# MagicaVoxel @ ephtracy

# material
mtllib Mustachefish.mtl
usemtl palette

# normals
vn -1 0 0
vn 1 0 0
vn 0 0 1
vn 0 0 -1
vn 0 -1 0
vn 0 1 0

# texcoords
vt 0.00195313 0.5
vt 0.00585938 0.5
vt 0.0136719 0.5
vt 0.0175781 0.5
vt 0.0214844 0.5
vt 0.0410156 0.5
vt 0.0605469 0.5
vt 0.0644531 0.5
vt 0.0722656 0.5
vt 0.0800781 0.5
vt 0.0917969 0.5
vt 0.103516 0.5

# verts
v -9.5 18 0.5
v -9.5 18 -0.5
v -9.5 22 0.5
v -9.5 22 -0.5
v -8.5 17 0.5
v -8.5 17 -0.5
v -8.5 18 1.5
v -8.5 18 0.5
v -8.5 18 -0.5
v -8.5 18 -1.5
v -8.5 20 1.5
v -8.5 20 0.5
v -8.5 20 -0.5
v -8.5 20 -1.5
v -7.5 16 0.5
v -7.5 16 -0.5
v -7.5 17 1.5
v -7.5 17 0.5
v -7.5 17 -0.5
v -7.5 17 -1.5
v -7.5 18 1.5
v -7.5 18 0.5
v -7.5 18 -0.5
v -7.5 18 -1.5
v -6.5 16 1.5
v -6.5 16 0.5
v -6.5 16 -0.5
v -6.5 16 -1.5
v -6.5 17 1.5
v -6.5 17 0.5
v -6.5 17 -0.5
v -6.5 17 -1.5
v -3.5 16 4.5
v -3.5 16 2.5
v -3.5 16 -2.5
v -3.5 16 -4.5
v -3.5 17 4.5
v -3.5 17 3.5
v -3.5 17 2.5
v -3.5 17 1.5
v -3.5 17 -1.5
v -3.5 17 -2.5
v -3.5 17 -3.5
v -3.5 17 -4.5
v -3.5 18 3.5
v -3.5 18 1.5
v -3.5 18 -1.5
v -3.5 18 -3.5
v -2.5 15 4.5
v -2.5 15 3.5
v -2.5 15 -3.5
v -2.5 15 -4.5
v -2.5 16 4.5
v -2.5 16 3.5
v -2.5 16 -3.5
v -2.5 16 -4.5
v 0.5 18 2.5
v 0.5 18 1.5
v 0.5 18 -1.5
v 0.5 18 -2.5
v 0.5 19 1.5
v 0.5 19 0.5
v 0.5 19 -0.5
v 0.5 19 -1.5
v 0.5 20 2.5
v 0.5 20 0.5
v 0.5 20 -0.5
v 0.5 20 -2.5
v 2.5 14 2.5
v 2.5 14 1.5
v 2.5 14 -1.5
v 2.5 14 -2.5
v 2.5 15 2.5
v 2.5 15 1.5
v 2.5 15 0.5
v 2.5 15 -0.5
v 2.5 15 -1.5
v 2.5 15 -2.5
v 2.5 16 2.5
v 2.5 16 1.5
v 2.5 16 0.5
v 2.5 16 -0.5
v 2.5 16 -1.5
v 2.5 16 -2.5
v -8.5 21 0.5
v -8.5 21 -0.5
v -8.5 22 0.5
v -8.5 22 -0.5
v -6.5 19 1.5
v -6.5 19 0.5
v -6.5 19 -0.5
v -6.5 19 -1.5
v -6.5 20 1.5
v -6.5 20 0.5
v -6.5 20 -0.5
v -6.5 20 -1.5
v -6.5 21 0.5
v -6.5 21 -0.5
v -5.5 19 0.5
v -5.5 19 -0.5
v -5.5 20 0.5
v -5.5 20 -0.5
v -1.5 15 4.5
v -1.5 15 3.5
v -1.5 15 -3.5
v -1.5 15 -4.5
v -1.5 16 4.5
v -1.5 16 3.5
v -1.5 16 -3.5
v -1.5 16 -4.5
v -0.5 16 4.5
v -0.5 16 2.5
v -0.5 16 -2.5
v -0.5 16 -4.5
v -0.5 17 4.5
v -0.5 17 3.5
v -0.5 17 2.5
v -0.5 17 1.5
v -0.5 17 -1.5
v -0.5 17 -2.5
v -0.5 17 -3.5
v -0.5 17 -4.5
v -0.5 18 3.5
v -0.5 18 1.5
v -0.5 18 -1.5
v -0.5 18 -3.5
v 2.5 16 0.5
v 2.5 16 -0.5
v 2.5 17 0.5
v 2.5 17 -0.5
v 2.5 18 2.5
v 2.5 18 1.5
v 2.5 18 0.5
v 2.5 18 -0.5
v 2.5 18 -1.5
v 2.5 18 -2.5
v 2.5 19 1.5
v 2.5 19 0.5
v 2.5 19 -0.5
v 2.5 19 -1.5
v 2.5 20 2.5
v 2.5 20 0.5
v 2.5 20 -0.5
v 2.5 20 -2.5
v 3.5 14 2.5
v 3.5 14 1.5
v 3.5 14 -1.5
v 3.5 14 -2.5
v 3.5 15 2.5
v 3.5 15 1.5
v 3.5 15 0.5
v 3.5 15 -0.5
v 3.5 15 -1.5
v 3.5 15 -2.5
v 3.5 16 2.5
v 3.5 16 1.5
v 3.5 16 -1.5
v 3.5 16 -2.5
v 3.5 17 1.5
v 3.5 17 0.5
v 3.5 17 -0.5
v 3.5 17 -1.5
v 3.5 18 1.5
v 3.5 18 -0.5
v 3.5 18 -1.5
v -3.5 16 4.5
v -3.5 17 4.5
v -2.5 15 4.5
v -2.5 16 4.5
v -1.5 15 4.5
v -1.5 16 4.5
v -0.5 16 4.5
v -0.5 17 4.5
v -3.5 17 3.5
v -3.5 18 3.5
v -0.5 17 3.5
v -0.5 18 3.5
v 0.5 18 2.5
v 0.5 20 2.5
v 1.5 18 2.5
v 1.5 20 2.5
v 2.5 14 2.5
v 2.5 15 2.5
v 2.5 16 2.5
v 2.5 18 2.5
v 2.5 20 2.5
v 3.5 14 2.5
v 3.5 15 2.5
v 3.5 16 2.5
v -8.5 18 1.5
v -8.5 20 1.5
v -7.5 17 1.5
v -7.5 18 1.5
v -6.5 16 1.5
v -6.5 17 1.5
v -6.5 19 1.5
v -6.5 20 1.5
v -3.5 17 1.5
v -3.5 18 1.5
v -0.5 17 1.5
v -0.5 18 1.5
v 0.5 18 1.5
v 0.5 19 1.5
v 1.5 18 1.5
v 2.5 16 1.5
v 2.5 17 1.5
v 2.5 18 1.5
v 3.5 16 1.5
v 3.5 17 1.5
v 3.5 18 1.5
v -9.5 18 0.5
v -9.5 22 0.5
v -8.5 17 0.5
v -8.5 18 0.5
v -8.5 20 0.5
v -8.5 21 0.5
v -8.5 22 0.5
v -7.5 16 0.5
v -7.5 17 0.5
v -7.5 18 0.5
v -6.5 16 0.5
v -6.5 17 0.5
v -6.5 19 0.5
v -6.5 20 0.5
v -6.5 21 0.5
v -5.5 19 0.5
v -5.5 20 0.5
v 0.5 19 -0.5
v 0.5 20 -0.5
v 1.5 19 -0.5
v 1.5 20 -0.5
v 2.5 15 -0.5
v 2.5 16 -0.5
v 2.5 17 -0.5
v 2.5 19 -0.5
v 2.5 20 -0.5
v 3.5 15 -0.5
v 3.5 17 -0.5
v 2.5 14 -1.5
v 2.5 15 -1.5
v 3.5 14 -1.5
v 3.5 15 -1.5
v -3.5 16 -2.5
v -3.5 17 -2.5
v -0.5 16 -2.5
v -0.5 17 -2.5
v -2.5 15 -3.5
v -2.5 16 -3.5
v -1.5 15 -3.5
v -1.5 16 -3.5
v -2.5 15 3.5
v -2.5 16 3.5
v -1.5 15 3.5
v -1.5 16 3.5
v -3.5 16 2.5
v -3.5 17 2.5
v -0.5 16 2.5
v -0.5 17 2.5
v 2.5 14 1.5
v 2.5 15 1.5
v 3.5 14 1.5
v 3.5 15 1.5
v 0.5 19 0.5
v 0.5 20 0.5
v 1.5 19 0.5
v 1.5 20 0.5
v 2.5 15 0.5
v 2.5 16 0.5
v 2.5 17 0.5
v 2.5 19 0.5
v 2.5 20 0.5
v 3.5 15 0.5
v 3.5 17 0.5
v -9.5 18 -0.5
v -9.5 22 -0.5
v -8.5 17 -0.5
v -8.5 18 -0.5
v -8.5 20 -0.5
v -8.5 21 -0.5
v -8.5 22 -0.5
v -7.5 16 -0.5
v -7.5 17 -0.5
v -7.5 18 -0.5
v -6.5 16 -0.5
v -6.5 17 -0.5
v -6.5 19 -0.5
v -6.5 20 -0.5
v -6.5 21 -0.5
v -5.5 19 -0.5
v -5.5 20 -0.5
v -8.5 18 -1.5
v -8.5 20 -1.5
v -7.5 17 -1.5
v -7.5 18 -1.5
v -6.5 16 -1.5
v -6.5 17 -1.5
v -6.5 19 -1.5
v -6.5 20 -1.5
v -3.5 17 -1.5
v -3.5 18 -1.5
v -0.5 17 -1.5
v -0.5 18 -1.5
v 0.5 18 -1.5
v 0.5 19 -1.5
v 1.5 18 -1.5
v 2.5 16 -1.5
v 2.5 17 -1.5
v 2.5 18 -1.5
v 3.5 16 -1.5
v 3.5 17 -1.5
v 3.5 18 -1.5
v 0.5 18 -2.5
v 0.5 20 -2.5
v 1.5 18 -2.5
v 1.5 20 -2.5
v 2.5 14 -2.5
v 2.5 15 -2.5
v 2.5 16 -2.5
v 2.5 18 -2.5
v 2.5 20 -2.5
v 3.5 14 -2.5
v 3.5 15 -2.5
v 3.5 16 -2.5
v -3.5 17 -3.5
v -3.5 18 -3.5
v -0.5 17 -3.5
v -0.5 18 -3.5
v -3.5 16 -4.5
v -3.5 17 -4.5
v -2.5 15 -4.5
v -2.5 16 -4.5
v -1.5 15 -4.5
v -1.5 16 -4.5
v -0.5 16 -4.5
v -0.5 17 -4.5
v 2.5 14 2.5
v 3.5 14 2.5
v 2.5 14 1.5
v 3.5 14 1.5
v 2.5 14 -1.5
v 3.5 14 -1.5
v 2.5 14 -2.5
v 3.5 14 -2.5
v -2.5 15 4.5
v -1.5 15 4.5
v -2.5 15 3.5
v -1.5 15 3.5
v 2.5 15 1.5
v 3.5 15 1.5
v 2.5 15 0.5
v 3.5 15 0.5
v 2.5 15 -0.5
v 3.5 15 -0.5
v 2.5 15 -1.5
v 3.5 15 -1.5
v -2.5 15 -3.5
v -1.5 15 -3.5
v -2.5 15 -4.5
v -1.5 15 -4.5
v -3.5 16 4.5
v -2.5 16 4.5
v -1.5 16 4.5
v -0.5 16 4.5
v -2.5 16 3.5
v -1.5 16 3.5
v -3.5 16 2.5
v -0.5 16 2.5
v -6.5 16 1.5
v 2.5 16 1.5
v -7.5 16 0.5
v -6.5 16 0.5
v 2.5 16 0.5
v -7.5 16 -0.5
v -6.5 16 -0.5
v 2.5 16 -0.5
v -6.5 16 -1.5
v 2.5 16 -1.5
v -3.5 16 -2.5
v -0.5 16 -2.5
v -2.5 16 -3.5
v -1.5 16 -3.5
v -3.5 16 -4.5
v -2.5 16 -4.5
v -1.5 16 -4.5
v -0.5 16 -4.5
v -3.5 17 2.5
v -0.5 17 2.5
v -7.5 17 1.5
v -6.5 17 1.5
v -3.5 17 1.5
v -0.5 17 1.5
v -8.5 17 0.5
v -7.5 17 0.5
v -6.5 17 0.5
v 2.5 17 0.5
v 3.5 17 0.5
v -8.5 17 -0.5
v -7.5 17 -0.5
v -6.5 17 -0.5
v 2.5 17 -0.5
v 3.5 17 -0.5
v -7.5 17 -1.5
v -6.5 17 -1.5
v -3.5 17 -1.5
v -0.5 17 -1.5
v -3.5 17 -2.5
v -0.5 17 -2.5
v 0.5 18 2.5
v 1.5 18 2.5
v 2.5 18 2.5
v -8.5 18 1.5
v -7.5 18 1.5
v 0.5 18 1.5
v 1.5 18 1.5
v 2.5 18 1.5
v -9.5 18 0.5
v -8.5 18 0.5
v -7.5 18 0.5
v -9.5 18 -0.5
v -8.5 18 -0.5
v -7.5 18 -0.5
v -8.5 18 -1.5
v -7.5 18 -1.5
v 0.5 18 -1.5
v 1.5 18 -1.5
v 2.5 18 -1.5
v 0.5 18 -2.5
v 1.5 18 -2.5
v 2.5 18 -2.5
v 2.5 16 2.5
v 3.5 16 2.5
v 2.5 16 1.5
v 3.5 16 1.5
v 2.5 16 -1.5
v 3.5 16 -1.5
v 2.5 16 -2.5
v 3.5 16 -2.5
v -3.5 17 4.5
v -0.5 17 4.5
v -3.5 17 3.5
v -0.5 17 3.5
v -3.5 17 -3.5
v -0.5 17 -3.5
v -3.5 17 -4.5
v -0.5 17 -4.5
v -3.5 18 3.5
v -0.5 18 3.5
v -3.5 18 1.5
v -0.5 18 1.5
v 2.5 18 1.5
v 3.5 18 1.5
v 2.5 18 0.5
v 2.5 18 -0.5
v 3.5 18 -0.5
v -3.5 18 -1.5
v -0.5 18 -1.5
v 2.5 18 -1.5
v 3.5 18 -1.5
v -3.5 18 -3.5
v -0.5 18 -3.5
v -6.5 19 1.5
v 0.5 19 1.5
v -6.5 19 0.5
v -5.5 19 0.5
v 0.5 19 0.5
v 1.5 19 0.5
v 2.5 19 0.5
v -6.5 19 -0.5
v -5.5 19 -0.5
v 0.5 19 -0.5
v 1.5 19 -0.5
v 2.5 19 -0.5
v -6.5 19 -1.5
v 0.5 19 -1.5
v 0.5 20 2.5
v 1.5 20 2.5
v 2.5 20 2.5
v -8.5 20 1.5
v -6.5 20 1.5
v -8.5 20 0.5
v -6.5 20 0.5
v -5.5 20 0.5
v 0.5 20 0.5
v 1.5 20 0.5
v 2.5 20 0.5
v -8.5 20 -0.5
v -6.5 20 -0.5
v -5.5 20 -0.5
v 0.5 20 -0.5
v 1.5 20 -0.5
v 2.5 20 -0.5
v -8.5 20 -1.5
v -6.5 20 -1.5
v 0.5 20 -2.5
v 1.5 20 -2.5
v 2.5 20 -2.5
v -8.5 21 0.5
v -6.5 21 0.5
v -8.5 21 -0.5
v -6.5 21 -0.5
v -9.5 22 0.5
v -8.5 22 0.5
v -9.5 22 -0.5
v -8.5 22 -0.5

# faces
f 3/6/1 2/6/1 1/6/1
f 4/6/1 2/6/1 3/6/1
f 8/6/1 6/6/1 5/6/1
f 9/6/1 6/6/1 8/6/1
f 11/6/1 8/6/1 7/6/1
f 12/6/1 8/6/1 11/6/1
f 13/6/1 10/6/1 9/6/1
f 14/6/1 10/6/1 13/6/1
f 18/6/1 16/6/1 15/6/1
f 19/6/1 16/6/1 18/6/1
f 21/6/1 18/6/1 17/6/1
f 22/6/1 18/6/1 21/6/1
f 23/6/1 20/6/1 19/6/1
f 24/6/1 20/6/1 23/6/1
f 29/6/1 26/6/1 25/6/1
f 30/6/1 26/6/1 29/6/1
f 31/6/1 28/6/1 27/6/1
f 32/6/1 28/6/1 31/6/1
f 37/9/1 34/9/1 33/9/1
f 38/9/1 34/9/1 37/9/1
f 39/9/1 34/9/1 38/9/1
f 42/9/1 36/9/1 35/9/1
f 43/9/1 36/9/1 42/9/1
f 44/9/1 36/9/1 43/9/1
f 45/9/1 40/9/1 39/9/1
f 45/9/1 39/9/1 38/9/1
f 46/9/1 40/9/1 45/9/1
f 47/9/1 43/9/1 42/9/1
f 47/9/1 42/9/1 41/9/1
f 48/9/1 43/9/1 47/9/1
f 53/9/1 50/9/1 49/9/1
f 54/9/1 50/9/1 53/9/1
f 55/9/1 52/9/1 51/9/1
f 56/9/1 52/9/1 55/9/1
f 61/8/1 58/8/1 57/8/1
f 64/8/1 60/8/1 59/8/1
f 65/8/1 62/8/1 61/8/1
f 65/8/1 61/8/1 57/8/1
f 66/8/1 62/8/1 65/8/1
f 67/8/1 64/8/1 63/8/1
f 68/8/1 60/8/1 64/8/1
f 68/8/1 64/8/1 67/8/1
f 73/1/1 70/1/1 69/1/1
f 74/1/1 70/1/1 73/1/1
f 77/2/1 72/2/1 71/2/1
f 78/2/1 72/2/1 77/2/1
f 79/3/1 75/3/1 74/3/1
f 79/3/1 74/3/1 73/3/1
f 80/3/1 75/3/1 79/3/1
f 81/3/1 75/3/1 80/3/1
f 82/4/1 77/4/1 76/4/1
f 83/5/1 78/5/1 77/5/1
f 83/4/1 77/4/1 82/4/1
f 84/5/1 78/5/1 83/5/1
f 85/6/2 86/6/2 87/6/2
f 87/6/2 86/6/2 88/6/2
f 89/6/2 90/6/2 93/6/2
f 93/6/2 90/6/2 94/6/2
f 91/6/2 92/6/2 95/6/2
f 95/6/2 92/6/2 96/6/2
f 94/6/2 95/6/2 97/6/2
f 97/6/2 95/6/2 98/6/2
f 99/6/2 100/6/2 101/6/2
f 101/6/2 100/6/2 102/6/2
f 103/9/2 104/9/2 107/9/2
f 107/9/2 104/9/2 108/9/2
f 105/9/2 106/9/2 109/9/2
f 109/9/2 106/9/2 110/9/2
f 111/9/2 112/9/2 115/9/2
f 115/9/2 112/9/2 116/9/2
f 116/9/2 112/9/2 117/9/2
f 113/9/2 114/9/2 120/9/2
f 120/9/2 114/9/2 121/9/2
f 121/9/2 114/9/2 122/9/2
f 117/9/2 118/9/2 123/9/2
f 116/9/2 117/9/2 123/9/2
f 123/9/2 118/9/2 124/9/2
f 120/9/2 121/9/2 125/9/2
f 119/9/2 120/9/2 125/9/2
f 125/9/2 121/9/2 126/9/2
f 127/6/2 128/6/2 129/6/2
f 129/6/2 128/6/2 130/6/2
f 131/11/2 132/11/2 137/11/2
f 132/12/2 133/12/2 137/12/2
f 133/6/2 134/6/2 138/6/2
f 137/12/2 133/12/2 138/12/2
f 134/12/2 135/12/2 139/12/2
f 138/6/2 134/6/2 139/6/2
f 135/11/2 136/11/2 140/11/2
f 139/12/2 135/12/2 140/12/2
f 131/11/2 137/11/2 141/11/2
f 137/11/2 138/11/2 141/11/2
f 141/11/2 138/11/2 142/11/2
f 139/11/2 140/11/2 143/11/2
f 140/11/2 136/11/2 144/11/2
f 143/11/2 140/11/2 144/11/2
f 145/1/2 146/1/2 149/1/2
f 149/1/2 146/1/2 150/1/2
f 147/2/2 148/2/2 153/2/2
f 153/2/2 148/2/2 154/2/2
f 150/3/2 151/3/2 155/3/2
f 149/3/2 150/3/2 155/3/2
f 155/3/2 151/3/2 156/3/2
f 153/5/2 154/5/2 157/5/2
f 152/4/2 153/4/2 157/4/2
f 157/5/2 154/5/2 158/5/2
f 156/3/2 151/3/2 159/3/2
f 159/3/2 151/3/2 160/3/2
f 152/4/2 157/4/2 161/4/2
f 161/4/2 157/4/2 162/4/2
f 159/1/2 160/1/2 163/1/2
f 160/1/2 161/1/2 163/1/2
f 161/3/2 162/3/2 164/3/2
f 163/1/2 161/1/2 164/1/2
f 164/3/2 162/3/2 165/3/2
f 169/9/3 167/9/3 166/9/3
f 170/9/3 169/9/3 168/9/3
f 171/9/3 167/9/3 169/9/3
f 171/9/3 169/9/3 170/9/3
f 172/9/3 167/9/3 171/9/3
f 173/9/3 167/9/3 172/9/3
f 176/9/3 175/9/3 174/9/3
f 177/9/3 175/9/3 176/9/3
f 180/8/3 179/8/3 178/8/3
f 181/8/3 179/8/3 180/8/3
f 185/11/3 181/11/3 180/11/3
f 186/11/3 181/11/3 185/11/3
f 187/1/3 183/1/3 182/1/3
f 188/3/3 184/3/3 183/3/3
f 188/1/3 183/1/3 187/1/3
f 189/3/3 184/3/3 188/3/3
f 193/6/3 191/6/3 190/6/3
f 195/6/3 193/6/3 192/6/3
f 196/6/3 191/6/3 193/6/3
f 196/6/3 193/6/3 195/6/3
f 197/6/3 191/6/3 196/6/3
f 198/6/3 195/6/3 194/6/3
f 198/6/3 196/6/3 195/6/3
f 199/6/3 196/6/3 198/6/3
f 200/6/3 198/6/3 194/6/3
f 201/6/3 196/6/3 199/6/3
f 202/6/3 196/6/3 201/6/3
f 202/6/3 201/6/3 200/6/3
f 203/6/3 196/6/3 202/6/3
f 204/6/3 202/6/3 200/6/3
f 205/6/3 200/6/3 194/6/3
f 205/6/3 204/6/3 200/6/3
f 206/6/3 204/6/3 205/6/3
f 207/6/3 204/6/3 206/6/3
f 208/3/3 206/3/3 205/3/3
f 209/1/3 207/1/3 206/1/3
f 209/3/3 206/3/3 208/3/3
f 210/1/3 207/1/3 209/1/3
f 214/6/3 212/6/3 211/6/3
f 215/6/3 212/6/3 214/6/3
f 216/6/3 212/6/3 215/6/3
f 217/6/3 212/6/3 216/6/3
f 219/6/3 214/6/3 213/6/3
f 220/6/3 214/6/3 219/6/3
f 221/6/3 219/6/3 218/6/3
f 222/6/3 219/6/3 221/6/3
f 224/6/3 216/6/3 215/6/3
f 225/6/3 216/6/3 224/6/3
f 226/6/3 224/6/3 223/6/3
f 227/6/3 224/6/3 226/6/3
f 230/8/3 229/8/3 228/8/3
f 231/8/3 229/8/3 230/8/3
f 235/11/3 231/11/3 230/11/3
f 236/11/3 231/11/3 235/11/3
f 237/4/3 234/4/3 233/4/3
f 237/4/3 233/4/3 232/4/3
f 238/4/3 234/4/3 237/4/3
f 241/2/3 240/2/3 239/2/3
f 242/2/3 240/2/3 241/2/3
f 245/9/3 244/9/3 243/9/3
f 246/9/3 244/9/3 245/9/3
f 249/9/3 248/9/3 247/9/3
f 250/9/3 248/9/3 249/9/3
f 251/9/4 252/9/4 253/9/4
f 253/9/4 252/9/4 254/9/4
f 255/9/4 256/9/4 257/9/4
f 257/9/4 256/9/4 258/9/4
f 259/1/4 260/1/4 261/1/4
f 261/1/4 260/1/4 262/1/4
f 263/8/4 264/8/4 265/8/4
f 265/8/4 264/8/4 266/8/4
f 265/11/4 266/11/4 270/11/4
f 270/11/4 266/11/4 271/11/4
f 268/3/4 269/3/4 272/3/4
f 267/3/4 268/3/4 272/3/4
f 272/3/4 269/3/4 273/3/4
f 274/6/4 275/6/4 277/6/4
f 277/6/4 275/6/4 278/6/4
f 278/6/4 275/6/4 279/6/4
f 279/6/4 275/6/4 280/6/4
f 276/6/4 277/6/4 282/6/4
f 282/6/4 277/6/4 283/6/4
f 281/6/4 282/6/4 284/6/4
f 284/6/4 282/6/4 285/6/4
f 278/6/4 279/6/4 287/6/4
f 287/6/4 279/6/4 288/6/4
f 286/6/4 287/6/4 289/6/4
f 289/6/4 287/6/4 290/6/4
f 291/6/4 292/6/4 294/6/4
f 293/6/4 294/6/4 296/6/4
f 294/6/4 292/6/4 297/6/4
f 296/6/4 294/6/4 297/6/4
f 297/6/4 292/6/4 298/6/4
f 295/6/4 296/6/4 299/6/4
f 296/6/4 297/6/4 299/6/4
f 299/6/4 297/6/4 300/6/4
f 295/6/4 299/6/4 301/6/4
f 300/6/4 297/6/4 302/6/4
f 302/6/4 297/6/4 303/6/4
f 301/6/4 302/6/4 303/6/4
f 303/6/4 297/6/4 304/6/4
f 301/6/4 303/6/4 305/6/4
f 295/6/4 301/6/4 306/6/4
f 301/6/4 305/6/4 306/6/4
f 306/6/4 305/6/4 307/6/4
f 307/6/4 305/6/4 308/6/4
f 306/4/4 307/4/4 309/4/4
f 307/3/4 308/3/4 310/3/4
f 309/4/4 307/4/4 310/4/4
f 310/3/4 308/3/4 311/3/4
f 312/8/4 313/8/4 314/8/4
f 314/8/4 313/8/4 315/8/4
f 314/11/4 315/11/4 319/11/4
f 319/11/4 315/11/4 320/11/4
f 316/2/4 317/2/4 321/2/4
f 317/5/4 318/5/4 322/5/4
f 321/2/4 317/2/4 322/2/4
f 322/5/4 318/5/4 323/5/4
f 324/9/4 325/9/4 326/9/4
f 326/9/4 325/9/4 327/9/4
f 328/9/4 329/9/4 331/9/4
f 330/9/4 331/9/4 332/9/4
f 331/9/4 329/9/4 333/9/4
f 332/9/4 331/9/4 333/9/4
f 333/9/4 329/9/4 334/9/4
f 334/9/4 329/9/4 335/9/4
f 338/1/5 337/1/5 336/1/5
f 339/1/5 337/1/5 338/1/5
f 342/2/5 341/2/5 340/2/5
f 343/2/5 341/2/5 342/2/5
f 346/9/5 345/9/5 344/9/5
f 347/9/5 345/9/5 346/9/5
f 350/3/5 349/3/5 348/3/5
f 351/3/5 349/3/5 350/3/5
f 354/4/5 353/4/5 352/4/5
f 355/4/5 353/4/5 354/4/5
f 358/9/5 357/9/5 356/9/5
f 359/9/5 357/9/5 358/9/5
f 364/9/5 361/9/5 360/9/5
f 365/9/5 363/9/5 362/9/5
f 366/9/5 364/9/5 360/9/5
f 366/9/5 365/9/5 364/9/5
f 367/9/5 363/9/5 365/9/5
f 367/9/5 365/9/5 366/9/5
f 371/6/5 369/6/5 368/6/5
f 372/6/5 369/6/5 371/6/5
f 373/6/5 371/6/5 370/6/5
f 373/6/5 372/6/5 371/6/5
f 374/6/5 372/6/5 373/6/5
f 375/6/5 372/6/5 374/6/5
f 376/6/5 375/6/5 374/6/5
f 377/6/5 375/6/5 376/6/5
f 380/9/5 379/9/5 378/9/5
f 381/9/5 379/9/5 380/9/5
f 382/9/5 380/9/5 378/9/5
f 383/9/5 380/9/5 382/9/5
f 384/9/5 379/9/5 381/9/5
f 385/9/5 379/9/5 384/9/5
f 390/9/5 387/9/5 386/9/5
f 391/9/5 387/9/5 390/9/5
f 393/6/5 389/6/5 388/6/5
f 394/6/5 389/6/5 393/6/5
f 397/6/5 393/6/5 392/6/5
f 398/6/5 393/6/5 397/6/5
f 400/1/5 396/1/5 395/1/5
f 401/1/5 396/1/5 400/1/5
f 402/6/5 399/6/5 398/6/5
f 403/6/5 399/6/5 402/6/5
f 406/9/5 405/9/5 404/9/5
f 407/9/5 405/9/5 406/9/5
f 413/8/5 409/8/5 408/8/5
f 414/11/5 410/11/5 409/11/5
f 414/8/5 409/8/5 413/8/5
f 415/11/5 410/11/5 414/11/5
f 417/6/5 412/6/5 411/6/5
f 418/6/5 412/6/5 417/6/5
f 419/6/5 417/6/5 416/6/5
f 420/6/5 417/6/5 419/6/5
f 422/6/5 421/6/5 420/6/5
f 423/6/5 421/6/5 422/6/5
f 427/8/5 425/8/5 424/8/5
f 428/11/5 426/11/5 425/11/5
f 428/8/5 425/8/5 427/8/5
f 429/11/5 426/11/5 428/11/5
f 430/3/6 431/3/6 432/3/6
f 432/3/6 431/3/6 433/3/6
f 434/5/6 435/5/6 436/5/6
f 436/5/6 435/5/6 437/5/6
f 438/9/6 439/9/6 440/9/6
f 440/9/6 439/9/6 441/9/6
f 442/9/6 443/9/6 444/9/6
f 444/9/6 443/9/6 445/9/6
f 446/9/6 447/9/6 448/9/6
f 448/9/6 447/9/6 449/9/6
f 450/1/6 451/1/6 452/1/6
f 452/1/6 451/1/6 453/1/6
f 453/1/6 451/1/6 454/1/6
f 453/3/6 454/3/6 457/3/6
f 457/3/6 454/3/6 458/3/6
f 455/9/6 456/9/6 459/9/6
f 459/9/6 456/9/6 460/9/6
f 461/6/6 462/6/6 463/6/6
f 463/6/6 462/6/6 464/6/6
f 464/6/6 462/6/6 465/6/6
f 466/6/6 467/6/6 469/6/6
f 465/6/6 466/6/6 469/6/6
f 464/6/6 465/6/6 469/6/6
f 469/6/6 467/6/6 470/6/6
f 470/6/6 467/6/6 471/6/6
f 471/6/6 467/6/6 472/6/6
f 468/6/6 469/6/6 473/6/6
f 469/6/6 470/6/6 473/6/6
f 473/6/6 470/6/6 474/6/6
f 478/6/6 479/6/6 480/6/6
f 480/6/6 479/6/6 481/6/6
f 475/8/6 476/8/6 483/8/6
f 476/11/6 477/11/6 484/11/6
f 483/8/6 476/8/6 484/8/6
f 484/11/6 477/11/6 485/11/6
f 481/6/6 482/6/6 487/6/6
f 487/6/6 482/6/6 488/6/6
f 486/6/6 487/6/6 492/6/6
f 492/6/6 487/6/6 493/6/6
f 489/8/6 490/8/6 494/8/6
f 490/11/6 491/11/6 495/11/6
f 494/8/6 490/8/6 495/8/6
f 495/11/6 491/11/6 496/11/6
f 497/6/6 498/6/6 499/6/6
f 499/6/6 498/6/6 500/6/6
f 501/6/6 502/6/6 503/6/6
f 503/6/6 502/6/6 504/6/6
