# MagicaVoxel @ ephtracy

# material
mtllib ShurikenFish.mtl
usemtl palette

# normals
vn -1 0 0
vn 1 0 0
vn 0 0 1
vn 0 0 -1
vn 0 -1 0
vn 0 1 0

# texcoords
vt 0.00195313 0.5
vt 0.00585938 0.5
vt 0.00976563 0.5
vt 0.0136719 0.5
vt 0.0175781 0.5

# verts
v -3.5 4 6
v -3.5 4 3
v -3.5 4 -1
v -3.5 5 6
v -3.5 5 3
v -3.5 5 -1
v -2.5 5 5
v -2.5 5 3
v -2.5 5 2
v -2.5 6 5
v -2.5 6 2
v -1.5 5 8
v -1.5 5 6
v -1.5 5 5
v -1.5 5 2
v -1.5 5 -2
v -1.5 6 8
v -1.5 6 7
v -1.5 6 6
v -1.5 6 5
v -1.5 6 2
v -1.5 6 -2
v -1.5 6 -3
v -1.5 7 8
v -1.5 7 7
v -1.5 7 6
v -1.5 7 5
v -1.5 7 -2
v -1.5 7 -3
v -1.5 8 7
v -1.5 8 6
v -1.5 8 -2
v -0.5 4 -5
v -0.5 4 -6
v -0.5 5 -2
v -0.5 5 -3
v -0.5 5 -4
v -0.5 5 -5
v -0.5 5 -6
v -0.5 5 -7
v -0.5 6 -2
v -0.5 6 -3
v -0.5 6 -4
v -0.5 6 -5
v -0.5 6 -6
v -0.5 6 -7
v -0.5 6 -8
v -0.5 7 8
v -0.5 7 7
v -0.5 7 -2
v -0.5 7 -3
v -0.5 7 -4
v -0.5 7 -5
v -0.5 7 -6
v -0.5 7 -7
v -0.5 7 -8
v -0.5 8 8
v -0.5 8 7
v -0.5 8 6
v -0.5 8 -2
v -0.5 8 -3
v -0.5 8 -4
v -0.5 8 -5
v -0.5 8 -6
v -0.5 8 -7
v -0.5 9 6
v -0.5 9 -2
v -0.5 9 -5
v -0.5 9 -6
v 0.5 6 6
v 0.5 6 5
v 0.5 6 -3
v 0.5 7 6
v 0.5 7 5
v 0.5 7 -2
v 0.5 7 -3
v 0.5 8 6
v 0.5 8 -2
v 2.5 4 6
v 2.5 4 3
v 2.5 4 -1
v 2.5 5 6
v 2.5 5 5
v 2.5 5 3
v 2.5 5 2
v 2.5 5 -1
v -2.5 4 6
v -2.5 4 3
v -2.5 4 -1
v -2.5 5 6
v -2.5 5 5
v -2.5 5 3
v -2.5 5 2
v -2.5 5 -1
v -0.5 6 6
v -0.5 6 5
v -0.5 6 -3
v -0.5 7 6
v -0.5 7 5
v -0.5 7 -2
v -0.5 7 -3
v -0.5 8 6
v -0.5 8 -2
v 0.5 4 -5
v 0.5 4 -6
v 0.5 5 -2
v 0.5 5 -3
v 0.5 5 -4
v 0.5 5 -5
v 0.5 5 -6
v 0.5 5 -7
v 0.5 6 -2
v 0.5 6 -3
v 0.5 6 -4
v 0.5 6 -5
v 0.5 6 -6
v 0.5 6 -7
v 0.5 6 -8
v 0.5 7 8
v 0.5 7 7
v 0.5 7 -2
v 0.5 7 -3
v 0.5 7 -4
v 0.5 7 -5
v 0.5 7 -6
v 0.5 7 -7
v 0.5 7 -8
v 0.5 8 8
v 0.5 8 7
v 0.5 8 6
v 0.5 8 -2
v 0.5 8 -3
v 0.5 8 -4
v 0.5 8 -5
v 0.5 8 -6
v 0.5 8 -7
v 0.5 9 6
v 0.5 9 -2
v 0.5 9 -5
v 0.5 9 -6
v 1.5 5 8
v 1.5 5 6
v 1.5 5 5
v 1.5 5 2
v 1.5 5 -2
v 1.5 6 8
v 1.5 6 7
v 1.5 6 6
v 1.5 6 5
v 1.5 6 2
v 1.5 6 -2
v 1.5 6 -3
v 1.5 7 8
v 1.5 7 7
v 1.5 7 6
v 1.5 7 5
v 1.5 7 -2
v 1.5 7 -3
v 1.5 8 7
v 1.5 8 6
v 1.5 8 -2
v 2.5 5 5
v 2.5 5 3
v 2.5 5 2
v 2.5 6 5
v 2.5 6 2
v 3.5 4 6
v 3.5 4 3
v 3.5 4 -1
v 3.5 5 6
v 3.5 5 3
v 3.5 5 -1
v -1.5 5 8
v -1.5 6 8
v -1.5 7 8
v -0.5 6 8
v -0.5 7 8
v -0.5 8 8
v 0.5 6 8
v 0.5 7 8
v 0.5 8 8
v 1.5 5 8
v 1.5 6 8
v 1.5 7 8
v -1.5 7 7
v -1.5 8 7
v -0.5 7 7
v -0.5 8 7
v 0.5 7 7
v 0.5 8 7
v 1.5 7 7
v 1.5 8 7
v -3.5 4 6
v -3.5 5 6
v -2.5 4 6
v -2.5 5 6
v -0.5 8 6
v -0.5 9 6
v 0.5 8 6
v 0.5 9 6
v 2.5 4 6
v 2.5 5 6
v 3.5 4 6
v 3.5 5 6
v -2.5 5 5
v -2.5 6 5
v -1.5 5 5
v -1.5 6 5
v 1.5 5 5
v 1.5 6 5
v 2.5 5 5
v 2.5 6 5
v -0.5 7 -2
v -0.5 8 -2
v 0.5 7 -2
v 0.5 8 -2
v -0.5 6 -3
v -0.5 7 -3
v 0.5 6 -3
v 0.5 7 -3
v -0.5 5 -4
v -0.5 6 -4
v -0.5 7 -4
v -0.5 8 -4
v 0.5 5 -4
v 0.5 6 -4
v 0.5 7 -4
v 0.5 8 -4
v -0.5 4 -5
v -0.5 5 -5
v -0.5 8 -5
v -0.5 9 -5
v 0.5 4 -5
v 0.5 5 -5
v 0.5 8 -5
v 0.5 9 -5
v -0.5 6 -6
v -0.5 7 -6
v 0.5 6 -6
v 0.5 7 -6
v -0.5 6 6
v -0.5 7 6
v -0.5 8 6
v 0.5 6 6
v 0.5 7 6
v 0.5 8 6
v -2.5 5 2
v -2.5 6 2
v -1.5 5 2
v -1.5 6 2
v 1.5 5 2
v 1.5 6 2
v 2.5 5 2
v 2.5 6 2
v -3.5 4 -1
v -3.5 5 -1
v -2.5 4 -1
v -2.5 5 -1
v 2.5 4 -1
v 2.5 5 -1
v 3.5 4 -1
v 3.5 5 -1
v -1.5 5 -2
v -1.5 6 -2
v -1.5 7 -2
v -1.5 8 -2
v -0.5 5 -2
v -0.5 6 -2
v -0.5 7 -2
v -0.5 8 -2
v -0.5 9 -2
v 0.5 5 -2
v 0.5 6 -2
v 0.5 7 -2
v 0.5 8 -2
v 0.5 9 -2
v 1.5 5 -2
v 1.5 6 -2
v 1.5 7 -2
v 1.5 8 -2
v -1.5 6 -3
v -1.5 7 -3
v -0.5 5 -3
v -0.5 6 -3
v -0.5 7 -3
v -0.5 8 -3
v 0.5 5 -3
v 0.5 6 -3
v 0.5 7 -3
v 0.5 8 -3
v 1.5 6 -3
v 1.5 7 -3
v -0.5 6 -5
v -0.5 7 -5
v 0.5 6 -5
v 0.5 7 -5
v -0.5 4 -6
v -0.5 5 -6
v -0.5 8 -6
v -0.5 9 -6
v 0.5 4 -6
v 0.5 5 -6
v 0.5 8 -6
v 0.5 9 -6
v -0.5 5 -7
v -0.5 6 -7
v -0.5 7 -7
v -0.5 8 -7
v 0.5 5 -7
v 0.5 6 -7
v 0.5 7 -7
v 0.5 8 -7
v -0.5 6 -8
v -0.5 7 -8
v 0.5 6 -8
v 0.5 7 -8
v -3.5 4 6
v -2.5 4 6
v 2.5 4 6
v 3.5 4 6
v -3.5 4 3
v -2.5 4 3
v 2.5 4 3
v 3.5 4 3
v -3.5 4 -1
v -2.5 4 -1
v 2.5 4 -1
v 3.5 4 -1
v -0.5 4 -5
v 0.5 4 -5
v -0.5 4 -6
v 0.5 4 -6
v -1.5 5 8
v 1.5 5 8
v -0.5 5 7
v 0.5 5 7
v -1.5 5 6
v -0.5 5 6
v 0.5 5 6
v 1.5 5 6
v -2.5 5 5
v -1.5 5 5
v 1.5 5 5
v 2.5 5 5
v -2.5 5 3
v 2.5 5 3
v -2.5 5 2
v -1.5 5 2
v 1.5 5 2
v 2.5 5 2
v -1.5 5 -2
v -0.5 5 -2
v 0.5 5 -2
v 1.5 5 -2
v -0.5 5 -3
v 0.5 5 -3
v -0.5 5 -4
v 0.5 5 -4
v -0.5 5 -5
v 0.5 5 -5
v -0.5 5 -6
v 0.5 5 -6
v -0.5 5 -7
v 0.5 5 -7
v -1.5 6 -2
v -0.5 6 -2
v 0.5 6 -2
v 1.5 6 -2
v -1.5 6 -3
v -0.5 6 -3
v 0.5 6 -3
v 1.5 6 -3
v -0.5 6 -4
v 0.5 6 -4
v -0.5 6 -7
v 0.5 6 -7
v -0.5 6 -8
v 0.5 6 -8
v -0.5 7 -2
v 0.5 7 -2
v -0.5 7 -3
v 0.5 7 -3
v -0.5 7 -5
v 0.5 7 -5
v -0.5 7 -6
v 0.5 7 -6
v -0.5 8 6
v 0.5 8 6
v -0.5 8 -2
v 0.5 8 -2
v -3.5 5 6
v -2.5 5 6
v 2.5 5 6
v 3.5 5 6
v -2.5 5 5
v 2.5 5 5
v -3.5 5 3
v -2.5 5 3
v 2.5 5 3
v 3.5 5 3
v -2.5 5 2
v 2.5 5 2
v -3.5 5 -1
v -2.5 5 -1
v 2.5 5 -1
v 3.5 5 -1
v -0.5 6 6
v 0.5 6 6
v -2.5 6 5
v -1.5 6 5
v -0.5 6 5
v 0.5 6 5
v 1.5 6 5
v 2.5 6 5
v -2.5 6 2
v -1.5 6 2
v 1.5 6 2
v 2.5 6 2
v -0.5 6 -3
v 0.5 6 -3
v -0.5 6 -5
v 0.5 6 -5
v -0.5 6 -6
v 0.5 6 -6
v -1.5 7 8
v -0.5 7 8
v 0.5 7 8
v 1.5 7 8
v -1.5 7 7
v -0.5 7 7
v 0.5 7 7
v 1.5 7 7
v -1.5 7 -2
v -0.5 7 -2
v 0.5 7 -2
v 1.5 7 -2
v -1.5 7 -3
v -0.5 7 -3
v 0.5 7 -3
v 1.5 7 -3
v -0.5 7 -4
v 0.5 7 -4
v -0.5 7 -7
v 0.5 7 -7
v -0.5 7 -8
v 0.5 7 -8
v -0.5 8 8
v 0.5 8 8
v -1.5 8 7
v -0.5 8 7
v 0.5 8 7
v 1.5 8 7
v -1.5 8 6
v -0.5 8 6
v 0.5 8 6
v 1.5 8 6
v -1.5 8 -2
v -0.5 8 -2
v 0.5 8 -2
v 1.5 8 -2
v -0.5 8 -3
v 0.5 8 -3
v -0.5 8 -4
v 0.5 8 -4
v -0.5 8 -5
v 0.5 8 -5
v -0.5 8 -6
v 0.5 8 -6
v -0.5 8 -7
v 0.5 8 -7
v -0.5 9 6
v 0.5 9 6
v -0.5 9 -2
v 0.5 9 -2
v -0.5 9 -5
v 0.5 9 -5
v -0.5 9 -6
v 0.5 9 -6

# faces
f 4/1/1 2/1/1 1/1/1
f 5/2/1 3/2/1 2/2/1
f 5/1/1 2/1/1 4/1/1
f 6/2/1 3/2/1 5/2/1
f 10/1/1 8/1/1 7/1/1
f 10/1/1 9/1/1 8/1/1
f 11/1/1 9/1/1 10/1/1
f 17/3/1 13/3/1 12/3/1
f 18/3/1 13/3/1 17/3/1
f 19/1/1 14/1/1 13/1/1
f 19/3/1 13/3/1 18/3/1
f 20/1/1 14/1/1 19/1/1
f 21/1/1 16/1/1 15/1/1
f 22/1/1 16/1/1 21/1/1
f 24/4/1 18/4/1 17/4/1
f 25/3/1 20/3/1 19/3/1
f 25/4/1 18/4/1 24/4/1
f 25/3/1 19/3/1 18/3/1
f 26/3/1 20/3/1 25/3/1
f 27/1/1 23/1/1 22/1/1
f 27/3/1 20/3/1 26/3/1
f 27/1/1 22/1/1 21/1/1
f 27/1/1 21/1/1 20/1/1
f 28/1/1 23/1/1 27/1/1
f 29/1/1 23/1/1 28/1/1
f 30/3/1 26/3/1 25/3/1
f 31/1/1 28/1/1 27/1/1
f 31/3/1 26/3/1 30/3/1
f 31/1/1 27/1/1 26/1/1
f 32/1/1 28/1/1 31/1/1
f 38/2/1 34/2/1 33/2/1
f 39/2/1 34/2/1 38/2/1
f 41/1/1 36/1/1 35/1/1
f 42/1/1 36/1/1 41/1/1
f 43/2/1 38/2/1 37/2/1
f 44/1/1 39/1/1 38/1/1
f 44/2/1 38/2/1 43/2/1
f 45/2/1 40/2/1 39/2/1
f 45/1/1 39/1/1 44/1/1
f 46/2/1 40/2/1 45/2/1
f 51/2/1 43/2/1 42/2/1
f 52/1/1 44/1/1 43/1/1
f 52/2/1 43/2/1 51/2/1
f 53/1/1 44/1/1 52/1/1
f 54/1/1 46/1/1 45/1/1
f 55/2/1 47/2/1 46/2/1
f 55/1/1 46/1/1 54/1/1
f 56/2/1 47/2/1 55/2/1
f 57/3/1 49/3/1 48/3/1
f 58/3/1 49/3/1 57/3/1
f 60/1/1 51/1/1 50/1/1
f 61/1/1 51/1/1 60/1/1
f 62/2/1 53/2/1 52/2/1
f 63/1/1 54/1/1 53/1/1
f 63/2/1 53/2/1 62/2/1
f 64/2/1 55/2/1 54/2/1
f 64/1/1 54/1/1 63/1/1
f 65/2/1 55/2/1 64/2/1
f 66/5/1 60/5/1 59/5/1
f 67/5/1 60/5/1 66/5/1
f 68/2/1 64/2/1 63/2/1
f 69/2/1 64/2/1 68/2/1
f 73/3/1 71/3/1 70/3/1
f 74/1/1 72/1/1 71/1/1
f 74/3/1 71/3/1 73/3/1
f 75/1/1 72/1/1 74/1/1
f 76/1/1 72/1/1 75/1/1
f 77/1/1 74/1/1 73/1/1
f 77/1/1 75/1/1 74/1/1
f 78/1/1 75/1/1 77/1/1
f 82/1/1 80/1/1 79/1/1
f 83/1/1 80/1/1 82/1/1
f 84/2/1 81/2/1 80/2/1
f 84/1/1 80/1/1 83/1/1
f 85/2/1 81/2/1 84/2/1
f 86/2/1 81/2/1 85/2/1
f 87/1/2 88/1/2 90/1/2
f 90/1/2 88/1/2 91/1/2
f 88/2/2 89/2/2 92/2/2
f 91/1/2 88/1/2 92/1/2
f 92/2/2 89/2/2 93/2/2
f 93/2/2 89/2/2 94/2/2
f 95/3/2 96/3/2 98/3/2
f 96/1/2 97/1/2 99/1/2
f 98/3/2 96/3/2 99/3/2
f 99/1/2 97/1/2 100/1/2
f 100/1/2 97/1/2 101/1/2
f 98/1/2 99/1/2 102/1/2
f 99/1/2 100/1/2 102/1/2
f 102/1/2 100/1/2 103/1/2
f 104/2/2 105/2/2 109/2/2
f 109/2/2 105/2/2 110/2/2
f 106/1/2 107/1/2 112/1/2
f 112/1/2 107/1/2 113/1/2
f 108/2/2 109/2/2 114/2/2
f 109/1/2 110/1/2 115/1/2
f 114/2/2 109/2/2 115/2/2
f 110/2/2 111/2/2 116/2/2
f 115/1/2 110/1/2 116/1/2
f 116/2/2 111/2/2 117/2/2
f 113/2/2 114/2/2 122/2/2
f 114/1/2 115/1/2 123/1/2
f 122/2/2 114/2/2 123/2/2
f 123/1/2 115/1/2 124/1/2
f 116/1/2 117/1/2 125/1/2
f 117/2/2 118/2/2 126/2/2
f 125/1/2 117/1/2 126/1/2
f 126/2/2 118/2/2 127/2/2
f 119/3/2 120/3/2 128/3/2
f 128/3/2 120/3/2 129/3/2
f 121/1/2 122/1/2 131/1/2
f 131/1/2 122/1/2 132/1/2
f 123/2/2 124/2/2 133/2/2
f 124/1/2 125/1/2 134/1/2
f 133/2/2 124/2/2 134/2/2
f 125/2/2 126/2/2 135/2/2
f 134/1/2 125/1/2 135/1/2
f 135/2/2 126/2/2 136/2/2
f 130/5/2 131/5/2 137/5/2
f 137/5/2 131/5/2 138/5/2
f 134/2/2 135/2/2 139/2/2
f 139/2/2 135/2/2 140/2/2
f 141/3/2 142/3/2 146/3/2
f 146/3/2 142/3/2 147/3/2
f 142/1/2 143/1/2 148/1/2
f 147/3/2 142/3/2 148/3/2
f 148/1/2 143/1/2 149/1/2
f 144/1/2 145/1/2 150/1/2
f 150/1/2 145/1/2 151/1/2
f 146/4/2 147/4/2 153/4/2
f 148/3/2 149/3/2 154/3/2
f 153/4/2 147/4/2 154/4/2
f 147/3/2 148/3/2 154/3/2
f 154/3/2 149/3/2 155/3/2
f 151/1/2 152/1/2 156/1/2
f 155/3/2 149/3/2 156/3/2
f 150/1/2 151/1/2 156/1/2
f 149/1/2 150/1/2 156/1/2
f 156/1/2 152/1/2 157/1/2
f 157/1/2 152/1/2 158/1/2
f 154/3/2 155/3/2 159/3/2
f 156/1/2 157/1/2 160/1/2
f 159/3/2 155/3/2 160/3/2
f 155/1/2 156/1/2 160/1/2
f 160/1/2 157/1/2 161/1/2
f 162/1/2 163/1/2 165/1/2
f 163/1/2 164/1/2 165/1/2
f 165/1/2 164/1/2 166/1/2
f 167/1/2 168/1/2 170/1/2
f 168/2/2 169/2/2 171/2/2
f 170/1/2 168/1/2 171/1/2
f 171/2/2 169/2/2 172/2/2
f 176/3/3 174/3/3 173/3/3
f 176/4/3 175/4/3 174/4/3
f 177/4/3 175/4/3 176/4/3
f 179/3/3 176/3/3 173/3/3
f 179/1/3 177/1/3 176/1/3
f 180/3/3 178/3/3 177/3/3
f 180/1/3 177/1/3 179/1/3
f 181/3/3 178/3/3 180/3/3
f 182/3/3 179/3/3 173/3/3
f 183/4/3 180/4/3 179/4/3
f 183/3/3 179/3/3 182/3/3
f 184/4/3 180/4/3 183/4/3
f 187/3/3 186/3/3 185/3/3
f 188/3/3 186/3/3 187/3/3
f 191/3/3 190/3/3 189/3/3
f 192/3/3 190/3/3 191/3/3
f 195/1/3 194/1/3 193/1/3
f 196/1/3 194/1/3 195/1/3
f 199/5/3 198/5/3 197/5/3
f 200/5/3 198/5/3 199/5/3
f 203/1/3 202/1/3 201/1/3
f 204/1/3 202/1/3 203/1/3
f 207/1/3 206/1/3 205/1/3
f 208/1/3 206/1/3 207/1/3
f 211/1/3 210/1/3 209/1/3
f 212/1/3 210/1/3 211/1/3
f 215/1/3 214/1/3 213/1/3
f 216/1/3 214/1/3 215/1/3
f 219/2/3 218/2/3 217/2/3
f 220/2/3 218/2/3 219/2/3
f 225/2/3 222/2/3 221/2/3
f 226/2/3 222/2/3 225/2/3
f 227/2/3 224/2/3 223/2/3
f 228/2/3 224/2/3 227/2/3
f 233/2/3 230/2/3 229/2/3
f 234/2/3 230/2/3 233/2/3
f 235/2/3 232/2/3 231/2/3
f 236/2/3 232/2/3 235/2/3
f 239/1/3 238/1/3 237/1/3
f 240/1/3 238/1/3 239/1/3
f 241/1/4 242/1/4 244/1/4
f 242/1/4 243/1/4 244/1/4
f 244/1/4 243/1/4 245/1/4
f 245/1/4 243/1/4 246/1/4
f 247/1/4 248/1/4 249/1/4
f 249/1/4 248/1/4 250/1/4
f 251/1/4 252/1/4 253/1/4
f 253/1/4 252/1/4 254/1/4
f 255/2/4 256/2/4 257/2/4
f 257/2/4 256/2/4 258/2/4
f 259/2/4 260/2/4 261/2/4
f 261/2/4 260/2/4 262/2/4
f 263/1/4 264/1/4 267/1/4
f 267/1/4 264/1/4 268/1/4
f 265/1/4 266/1/4 269/1/4
f 269/1/4 266/1/4 270/1/4
f 270/5/4 271/5/4 275/5/4
f 275/5/4 271/5/4 276/5/4
f 272/1/4 273/1/4 277/1/4
f 277/1/4 273/1/4 278/1/4
f 274/1/4 275/1/4 279/1/4
f 279/1/4 275/1/4 280/1/4
f 281/1/4 282/1/4 284/1/4
f 284/1/4 282/1/4 285/1/4
f 283/1/4 284/1/4 287/1/4
f 287/1/4 284/1/4 288/1/4
f 285/1/4 286/1/4 289/1/4
f 289/1/4 286/1/4 290/1/4
f 288/1/4 289/1/4 291/1/4
f 291/1/4 289/1/4 292/1/4
f 293/1/4 294/1/4 295/1/4
f 295/1/4 294/1/4 296/1/4
f 297/2/4 298/2/4 301/2/4
f 301/2/4 298/2/4 302/2/4
f 299/2/4 300/2/4 303/2/4
f 303/2/4 300/2/4 304/2/4
f 305/2/4 306/2/4 309/2/4
f 309/2/4 306/2/4 310/2/4
f 307/2/4 308/2/4 311/2/4
f 311/2/4 308/2/4 312/2/4
f 313/2/4 314/2/4 315/2/4
f 315/2/4 314/2/4 316/2/4
f 321/1/5 318/1/5 317/1/5
f 322/1/5 318/1/5 321/1/5
f 323/1/5 320/1/5 319/1/5
f 324/1/5 320/1/5 323/1/5
f 325/2/5 322/2/5 321/2/5
f 326/2/5 322/2/5 325/2/5
f 327/2/5 324/2/5 323/2/5
f 328/2/5 324/2/5 327/2/5
f 331/2/5 330/2/5 329/2/5
f 332/2/5 330/2/5 331/2/5
f 335/3/5 334/3/5 333/3/5
f 336/3/5 334/3/5 335/3/5
f 337/3/5 335/3/5 333/3/5
f 338/1/5 336/1/5 335/1/5
f 338/3/5 335/3/5 337/3/5
f 339/3/5 334/3/5 336/3/5
f 339/1/5 336/1/5 338/1/5
f 340/3/5 334/3/5 339/3/5
f 342/1/5 338/1/5 337/1/5
f 342/1/5 339/1/5 338/1/5
f 342/1/5 340/1/5 339/1/5
f 343/1/5 340/1/5 342/1/5
f 345/1/5 343/1/5 342/1/5
f 345/1/5 344/1/5 343/1/5
f 345/1/5 342/1/5 341/1/5
f 346/1/5 344/1/5 345/1/5
f 347/1/5 346/1/5 345/1/5
f 348/1/5 346/1/5 347/1/5
f 349/1/5 346/1/5 348/1/5
f 350/1/5 346/1/5 349/1/5
f 351/1/5 349/1/5 348/1/5
f 352/1/5 349/1/5 351/1/5
f 353/1/5 349/1/5 352/1/5
f 354/1/5 349/1/5 353/1/5
f 355/1/5 353/1/5 352/1/5
f 356/1/5 353/1/5 355/1/5
f 359/2/5 358/2/5 357/2/5
f 360/2/5 358/2/5 359/2/5
f 363/2/5 362/2/5 361/2/5
f 364/2/5 362/2/5 363/2/5
f 369/1/5 366/1/5 365/1/5
f 370/1/5 366/1/5 369/1/5
f 371/1/5 368/1/5 367/1/5
f 372/1/5 368/1/5 371/1/5
f 373/2/5 371/2/5 370/2/5
f 374/2/5 371/2/5 373/2/5
f 377/2/5 376/2/5 375/2/5
f 378/2/5 376/2/5 377/2/5
f 381/1/5 380/1/5 379/1/5
f 382/1/5 380/1/5 381/1/5
f 385/1/5 384/1/5 383/1/5
f 386/1/5 384/1/5 385/1/5
f 389/5/5 388/5/5 387/5/5
f 390/5/5 388/5/5 389/5/5
f 391/1/6 392/1/6 395/1/6
f 393/1/6 394/1/6 396/1/6
f 391/1/6 395/1/6 397/1/6
f 397/1/6 395/1/6 398/1/6
f 396/1/6 394/1/6 399/1/6
f 399/1/6 394/1/6 400/1/6
f 397/2/6 398/2/6 401/2/6
f 399/2/6 400/2/6 402/2/6
f 397/2/6 401/2/6 403/2/6
f 403/2/6 401/2/6 404/2/6
f 402/2/6 400/2/6 405/2/6
f 405/2/6 400/2/6 406/2/6
f 407/1/6 408/1/6 411/1/6
f 411/1/6 408/1/6 412/1/6
f 409/1/6 410/1/6 415/1/6
f 415/1/6 410/1/6 416/1/6
f 413/1/6 414/1/6 417/1/6
f 417/1/6 414/1/6 418/1/6
f 411/1/6 412/1/6 419/1/6
f 419/1/6 412/1/6 420/1/6
f 421/1/6 422/1/6 423/1/6
f 423/1/6 422/1/6 424/1/6
f 425/4/6 426/4/6 429/4/6
f 429/4/6 426/4/6 430/4/6
f 427/4/6 428/4/6 431/4/6
f 431/4/6 428/4/6 432/4/6
f 433/1/6 434/1/6 437/1/6
f 437/1/6 434/1/6 438/1/6
f 435/1/6 436/1/6 439/1/6
f 439/1/6 436/1/6 440/1/6
f 438/2/6 439/2/6 441/2/6
f 441/2/6 439/2/6 442/2/6
f 443/2/6 444/2/6 445/2/6
f 445/2/6 444/2/6 446/2/6
f 447/3/6 448/3/6 450/3/6
f 450/3/6 448/3/6 451/3/6
f 449/3/6 450/3/6 453/3/6
f 450/1/6 451/1/6 454/1/6
f 453/3/6 450/3/6 454/3/6
f 451/3/6 452/3/6 455/3/6
f 454/1/6 451/1/6 455/1/6
f 455/3/6 452/3/6 456/3/6
f 453/1/6 454/1/6 457/1/6
f 457/1/6 454/1/6 458/1/6
f 455/1/6 456/1/6 459/1/6
f 459/1/6 456/1/6 460/1/6
f 458/1/6 459/1/6 461/1/6
f 461/1/6 459/1/6 462/1/6
f 463/2/6 464/2/6 465/2/6
f 465/2/6 464/2/6 466/2/6
f 467/2/6 468/2/6 469/2/6
f 469/2/6 468/2/6 470/2/6
f 471/5/6 472/5/6 473/5/6
f 473/5/6 472/5/6 474/5/6
f 475/2/6 476/2/6 477/2/6
f 477/2/6 476/2/6 478/2/6
