# MagicaVoxel @ ephtracy

# material
mtllib basicfloat.mtl
usemtl palette

# normals
vn -1 0 0
vn 1 0 0
vn 0 0 1
vn 0 0 -1
vn 0 -1 0
vn 0 1 0

# texcoords
vt 0.00195313 0.5
vt 0.00585938 0.5
vt 0.00976563 0.5
vt 0.0136719 0.5
vt 0.0175781 0.5
vt 0.0214844 0.5
vt 0.0253906 0.5
vt 0.0292969 0.5
vt 0.0332031 0.5
vt 0.0371094 0.5
vt 0.0410156 0.5
vt 0.0449219 0.5
vt 0.0488281 0.5
vt 0.0527344 0.5
vt 0.0566406 0.5
vt 0.0605469 0.5
vt 0.0644531 0.5
vt 0.0683594 0.5
vt 0.0722656 0.5
vt 0.0761719 0.5
vt 0.0800781 0.5
vt 0.0839844 0.5
vt 0.0878906 0.5
vt 0.0917969 0.5
vt 0.0957031 0.5
vt 0.0996094 0.5
vt 0.103516 0.5
vt 0.107422 0.5
vt 0.111328 0.5
vt 0.115234 0.5
vt 0.119141 0.5
vt 0.123047 0.5
vt 0.126953 0.5

# verts
v -4.5 1 0.5
v -4.5 1 -0.5
v -4.5 2 1.5
v -4.5 2 0.5
v -4.5 2 -0.5
v -4.5 2 -1.5
v -4.5 3 1.5
v -4.5 3 0.5
v -4.5 3 -0.5
v -4.5 3 -1.5
v -4.5 4 0.5
v -4.5 4 -0.5
v -3.5 0 0.5
v -3.5 0 -0.5
v -3.5 1 1.5
v -3.5 1 0.5
v -3.5 1 -0.5
v -3.5 1 -1.5
v -3.5 2 2.5
v -3.5 2 1.5
v -3.5 2 0.5
v -3.5 2 -0.5
v -3.5 2 -1.5
v -3.5 2 -2.5
v -3.5 3 2.5
v -3.5 3 1.5
v -3.5 3 0.5
v -3.5 3 -0.5
v -3.5 3 -1.5
v -3.5 3 -2.5
v -3.5 4 1.5
v -3.5 4 0.5
v -3.5 4 -0.5
v -3.5 4 -1.5
v -3.5 5 0.5
v -3.5 5 -0.5
v -2.5 0 1.5
v -2.5 0 0.5
v -2.5 0 -0.5
v -2.5 0 -1.5
v -2.5 1 2.5
v -2.5 1 1.5
v -2.5 1 0.5
v -2.5 1 -0.5
v -2.5 1 -1.5
v -2.5 1 -2.5
v -2.5 2 2.5
v -2.5 2 1.5
v -2.5 2 -1.5
v -2.5 2 -2.5
v -2.5 3 2.5
v -2.5 3 1.5
v -2.5 3 -1.5
v -2.5 3 -2.5
v -2.5 4 2.5
v -2.5 4 1.5
v -2.5 4 0.5
v -2.5 4 -0.5
v -2.5 4 -1.5
v -2.5 4 -2.5
v -2.5 5 1.5
v -2.5 5 0.5
v -2.5 5 -0.5
v -2.5 5 -1.5
v -2.5 6 0.5
v -2.5 6 -0.5
v -1.5 0 1.5
v -1.5 0 0.5
v -1.5 0 -0.5
v -1.5 0 -1.5
v -1.5 1 2.5
v -1.5 1 1.5
v -1.5 1 0.5
v -1.5 1 -0.5
v -1.5 1 -1.5
v -1.5 1 -2.5
v -1.5 2 2.5
v -1.5 2 1.5
v -1.5 2 -1.5
v -1.5 2 -2.5
v -1.5 3 2.5
v -1.5 3 1.5
v -1.5 3 -1.5
v -1.5 3 -2.5
v -1.5 4 2.5
v -1.5 4 1.5
v -1.5 4 0.5
v -1.5 4 -0.5
v -1.5 4 -1.5
v -1.5 4 -2.5
v -1.5 5 1.5
v -1.5 5 0.5
v -1.5 5 -0.5
v -1.5 5 -1.5
v -1.5 6 0.5
v -1.5 6 -0.5
v -0.5 0 0.5
v -0.5 0 -0.5
v -0.5 1 1.5
v -0.5 1 0.5
v -0.5 1 -0.5
v -0.5 1 -1.5
v -0.5 2 2.5
v -0.5 2 1.5
v -0.5 2 0.5
v -0.5 2 -0.5
v -0.5 2 -1.5
v -0.5 2 -2.5
v -0.5 3 2.5
v -0.5 3 1.5
v -0.5 3 0.5
v -0.5 3 -0.5
v -0.5 3 -1.5
v -0.5 3 -2.5
v -0.5 4 1.5
v -0.5 4 0.5
v -0.5 4 -0.5
v -0.5 4 -1.5
v -0.5 5 0.5
v -0.5 5 -0.5
v 0.5 1 0.5
v 0.5 1 -0.5
v 0.5 2 1.5
v 0.5 2 0.5
v 0.5 2 -0.5
v 0.5 2 -1.5
v 0.5 3 1.5
v 0.5 3 0.5
v 0.5 3 -0.5
v 0.5 3 -1.5
v 0.5 4 0.5
v 0.5 4 -0.5
v -3.5 2 2.5
v -3.5 3 2.5
v -2.5 1 2.5
v -2.5 2 2.5
v -2.5 3 2.5
v -2.5 4 2.5
v -1.5 1 2.5
v -1.5 2 2.5
v -1.5 3 2.5
v -1.5 4 2.5
v -0.5 2 2.5
v -0.5 3 2.5
v -4.5 2 1.5
v -4.5 3 1.5
v -3.5 1 1.5
v -3.5 2 1.5
v -3.5 3 1.5
v -3.5 4 1.5
v -2.5 0 1.5
v -2.5 1 1.5
v -2.5 2 1.5
v -2.5 3 1.5
v -2.5 4 1.5
v -2.5 5 1.5
v -1.5 0 1.5
v -1.5 1 1.5
v -1.5 2 1.5
v -1.5 3 1.5
v -1.5 4 1.5
v -1.5 5 1.5
v -0.5 1 1.5
v -0.5 2 1.5
v -0.5 3 1.5
v -0.5 4 1.5
v 0.5 2 1.5
v 0.5 3 1.5
v -4.5 1 0.5
v -4.5 2 0.5
v -4.5 3 0.5
v -4.5 4 0.5
v -3.5 0 0.5
v -3.5 1 0.5
v -3.5 2 0.5
v -3.5 3 0.5
v -3.5 4 0.5
v -3.5 5 0.5
v -2.5 0 0.5
v -2.5 1 0.5
v -2.5 4 0.5
v -2.5 5 0.5
v -2.5 6 0.5
v -1.5 0 0.5
v -1.5 1 0.5
v -1.5 4 0.5
v -1.5 5 0.5
v -1.5 6 0.5
v -0.5 0 0.5
v -0.5 1 0.5
v -0.5 2 0.5
v -0.5 3 0.5
v -0.5 4 0.5
v -0.5 5 0.5
v 0.5 1 0.5
v 0.5 2 0.5
v 0.5 3 0.5
v 0.5 4 0.5
v -4.5 1 -0.5
v -4.5 2 -0.5
v -4.5 3 -0.5
v -4.5 4 -0.5
v -3.5 0 -0.5
v -3.5 1 -0.5
v -3.5 2 -0.5
v -3.5 3 -0.5
v -3.5 4 -0.5
v -3.5 5 -0.5
v -2.5 0 -0.5
v -2.5 1 -0.5
v -2.5 4 -0.5
v -2.5 5 -0.5
v -2.5 6 -0.5
v -1.5 0 -0.5
v -1.5 1 -0.5
v -1.5 4 -0.5
v -1.5 5 -0.5
v -1.5 6 -0.5
v -0.5 0 -0.5
v -0.5 1 -0.5
v -0.5 2 -0.5
v -0.5 3 -0.5
v -0.5 4 -0.5
v -0.5 5 -0.5
v 0.5 1 -0.5
v 0.5 2 -0.5
v 0.5 3 -0.5
v 0.5 4 -0.5
v -4.5 2 -1.5
v -4.5 3 -1.5
v -3.5 1 -1.5
v -3.5 2 -1.5
v -3.5 3 -1.5
v -3.5 4 -1.5
v -2.5 0 -1.5
v -2.5 1 -1.5
v -2.5 2 -1.5
v -2.5 3 -1.5
v -2.5 4 -1.5
v -2.5 5 -1.5
v -1.5 0 -1.5
v -1.5 1 -1.5
v -1.5 2 -1.5
v -1.5 3 -1.5
v -1.5 4 -1.5
v -1.5 5 -1.5
v -0.5 1 -1.5
v -0.5 2 -1.5
v -0.5 3 -1.5
v -0.5 4 -1.5
v 0.5 2 -1.5
v 0.5 3 -1.5
v -3.5 2 -2.5
v -3.5 3 -2.5
v -2.5 1 -2.5
v -2.5 2 -2.5
v -2.5 3 -2.5
v -2.5 4 -2.5
v -1.5 1 -2.5
v -1.5 2 -2.5
v -1.5 3 -2.5
v -1.5 4 -2.5
v -0.5 2 -2.5
v -0.5 3 -2.5
v -2.5 0 1.5
v -1.5 0 1.5
v -3.5 0 0.5
v -2.5 0 0.5
v -1.5 0 0.5
v -0.5 0 0.5
v -3.5 0 -0.5
v -2.5 0 -0.5
v -1.5 0 -0.5
v -0.5 0 -0.5
v -2.5 0 -1.5
v -1.5 0 -1.5
v -2.5 1 2.5
v -1.5 1 2.5
v -3.5 1 1.5
v -2.5 1 1.5
v -1.5 1 1.5
v -0.5 1 1.5
v -4.5 1 0.5
v -3.5 1 0.5
v -2.5 1 0.5
v -1.5 1 0.5
v -0.5 1 0.5
v 0.5 1 0.5
v -4.5 1 -0.5
v -3.5 1 -0.5
v -2.5 1 -0.5
v -1.5 1 -0.5
v -0.5 1 -0.5
v 0.5 1 -0.5
v -3.5 1 -1.5
v -2.5 1 -1.5
v -1.5 1 -1.5
v -0.5 1 -1.5
v -2.5 1 -2.5
v -1.5 1 -2.5
v -3.5 2 2.5
v -2.5 2 2.5
v -1.5 2 2.5
v -0.5 2 2.5
v -4.5 2 1.5
v -3.5 2 1.5
v -2.5 2 1.5
v -1.5 2 1.5
v -0.5 2 1.5
v 0.5 2 1.5
v -4.5 2 0.5
v -3.5 2 0.5
v -0.5 2 0.5
v 0.5 2 0.5
v -4.5 2 -0.5
v -3.5 2 -0.5
v -0.5 2 -0.5
v 0.5 2 -0.5
v -4.5 2 -1.5
v -3.5 2 -1.5
v -2.5 2 -1.5
v -1.5 2 -1.5
v -0.5 2 -1.5
v 0.5 2 -1.5
v -3.5 2 -2.5
v -2.5 2 -2.5
v -1.5 2 -2.5
v -0.5 2 -2.5
v -3.5 3 2.5
v -2.5 3 2.5
v -1.5 3 2.5
v -0.5 3 2.5
v -4.5 3 1.5
v -3.5 3 1.5
v -2.5 3 1.5
v -1.5 3 1.5
v -0.5 3 1.5
v 0.5 3 1.5
v -4.5 3 0.5
v -3.5 3 0.5
v -0.5 3 0.5
v 0.5 3 0.5
v -4.5 3 -0.5
v -3.5 3 -0.5
v -0.5 3 -0.5
v 0.5 3 -0.5
v -4.5 3 -1.5
v -3.5 3 -1.5
v -2.5 3 -1.5
v -1.5 3 -1.5
v -0.5 3 -1.5
v 0.5 3 -1.5
v -3.5 3 -2.5
v -2.5 3 -2.5
v -1.5 3 -2.5
v -0.5 3 -2.5
v -2.5 4 2.5
v -1.5 4 2.5
v -3.5 4 1.5
v -2.5 4 1.5
v -1.5 4 1.5
v -0.5 4 1.5
v -4.5 4 0.5
v -3.5 4 0.5
v -2.5 4 0.5
v -1.5 4 0.5
v -0.5 4 0.5
v 0.5 4 0.5
v -4.5 4 -0.5
v -3.5 4 -0.5
v -2.5 4 -0.5
v -1.5 4 -0.5
v -0.5 4 -0.5
v 0.5 4 -0.5
v -3.5 4 -1.5
v -2.5 4 -1.5
v -1.5 4 -1.5
v -0.5 4 -1.5
v -2.5 4 -2.5
v -1.5 4 -2.5
v -2.5 5 1.5
v -1.5 5 1.5
v -3.5 5 0.5
v -2.5 5 0.5
v -1.5 5 0.5
v -0.5 5 0.5
v -3.5 5 -0.5
v -2.5 5 -0.5
v -1.5 5 -0.5
v -0.5 5 -0.5
v -2.5 5 -1.5
v -1.5 5 -1.5
v -2.5 6 0.5
v -1.5 6 0.5
v -2.5 6 -0.5
v -1.5 6 -0.5

# faces
f 4/9/1 2/9/1 1/9/1
f 5/9/1 2/9/1 4/9/1
f 7/15/1 4/15/1 3/15/1
f 8/19/1 5/19/1 4/19/1
f 8/15/1 4/15/1 7/15/1
f 9/22/1 6/22/1 5/22/1
f 9/19/1 5/19/1 8/19/1
f 10/22/1 6/22/1 9/22/1
f 11/24/1 9/24/1 8/24/1
f 12/24/1 9/24/1 11/24/1
f 16/2/1 14/2/1 13/2/1
f 17/2/1 14/2/1 16/2/1
f 20/6/1 16/6/1 15/6/1
f 21/6/1 16/6/1 20/6/1
f 22/5/1 18/5/1 17/5/1
f 23/5/1 18/5/1 22/5/1
f 25/12/1 20/12/1 19/12/1
f 26/12/1 20/12/1 25/12/1
f 29/17/1 24/17/1 23/17/1
f 30/17/1 24/17/1 29/17/1
f 31/24/1 27/24/1 26/24/1
f 32/24/1 27/24/1 31/24/1
f 33/25/1 29/25/1 28/25/1
f 34/25/1 29/25/1 33/25/1
f 35/32/1 33/32/1 32/32/1
f 36/32/1 33/32/1 35/32/1
f 42/1/1 38/1/1 37/1/1
f 43/1/1 38/1/1 42/1/1
f 44/5/1 40/5/1 39/5/1
f 45/5/1 40/5/1 44/5/1
f 47/1/1 42/1/1 41/1/1
f 48/1/1 42/1/1 47/1/1
f 49/1/1 46/1/1 45/1/1
f 50/1/1 46/1/1 49/1/1
f 55/23/1 52/23/1 51/23/1
f 56/23/1 52/23/1 55/23/1
f 59/30/1 54/30/1 53/30/1
f 60/30/1 54/30/1 59/30/1
f 61/31/1 57/31/1 56/31/1
f 62/31/1 57/31/1 61/31/1
f 63/29/1 59/29/1 58/29/1
f 64/29/1 59/29/1 63/29/1
f 65/33/1 63/33/1 62/33/1
f 66/33/1 63/33/1 65/33/1
f 67/1/2 68/1/2 72/1/2
f 72/1/2 68/1/2 73/1/2
f 69/5/2 70/5/2 74/5/2
f 74/5/2 70/5/2 75/5/2
f 71/1/2 72/1/2 77/1/2
f 77/1/2 72/1/2 78/1/2
f 75/1/2 76/1/2 79/1/2
f 79/1/2 76/1/2 80/1/2
f 81/23/2 82/23/2 85/23/2
f 85/23/2 82/23/2 86/23/2
f 83/30/2 84/30/2 89/30/2
f 89/30/2 84/30/2 90/30/2
f 86/31/2 87/31/2 91/31/2
f 91/31/2 87/31/2 92/31/2
f 88/29/2 89/29/2 93/29/2
f 93/29/2 89/29/2 94/29/2
f 92/33/2 93/33/2 95/33/2
f 95/33/2 93/33/2 96/33/2
f 97/4/2 98/4/2 100/4/2
f 100/4/2 98/4/2 101/4/2
f 99/8/2 100/8/2 104/8/2
f 104/8/2 100/8/2 105/8/2
f 101/11/2 102/11/2 106/11/2
f 106/11/2 102/11/2 107/11/2
f 103/14/2 104/14/2 109/14/2
f 109/14/2 104/14/2 110/14/2
f 107/19/2 108/19/2 113/19/2
f 113/19/2 108/19/2 114/19/2
f 110/24/2 111/24/2 115/24/2
f 115/24/2 111/24/2 116/24/2
f 112/24/2 113/24/2 117/24/2
f 117/24/2 113/24/2 118/24/2
f 116/32/2 117/32/2 119/32/2
f 119/32/2 117/32/2 120/32/2
f 121/6/2 122/6/2 124/6/2
f 124/6/2 122/6/2 125/6/2
f 123/18/2 124/18/2 127/18/2
f 124/21/2 125/21/2 128/21/2
f 127/18/2 124/18/2 128/18/2
f 125/18/2 126/18/2 129/18/2
f 128/21/2 125/21/2 129/21/2
f 129/18/2 126/18/2 130/18/2
f 128/29/2 129/29/2 131/29/2
f 131/29/2 129/29/2 132/29/2
f 136/12/3 134/12/3 133/12/3
f 137/12/3 134/12/3 136/12/3
f 139/1/3 136/1/3 135/1/3
f 140/13/3 137/13/3 136/13/3
f 140/1/3 136/1/3 139/1/3
f 141/23/3 138/23/3 137/23/3
f 141/13/3 137/13/3 140/13/3
f 142/23/3 138/23/3 141/23/3
f 143/14/3 141/14/3 140/14/3
f 144/14/3 141/14/3 143/14/3
f 148/15/3 146/15/3 145/15/3
f 149/15/3 146/15/3 148/15/3
f 152/6/3 148/6/3 147/6/3
f 153/6/3 148/6/3 152/6/3
f 154/24/3 150/24/3 149/24/3
f 155/24/3 150/24/3 154/24/3
f 157/1/3 152/1/3 151/1/3
f 158/1/3 152/1/3 157/1/3
f 161/31/3 156/31/3 155/31/3
f 162/31/3 156/31/3 161/31/3
f 163/8/3 159/8/3 158/8/3
f 164/8/3 159/8/3 163/8/3
f 165/24/3 161/24/3 160/24/3
f 166/24/3 161/24/3 165/24/3
f 167/18/3 165/18/3 164/18/3
f 168/18/3 165/18/3 167/18/3
f 174/9/3 170/9/3 169/9/3
f 175/9/3 170/9/3 174/9/3
f 176/24/3 172/24/3 171/24/3
f 177/24/3 172/24/3 176/24/3
f 179/2/3 174/2/3 173/2/3
f 180/2/3 174/2/3 179/2/3
f 181/32/3 178/32/3 177/32/3
f 182/32/3 178/32/3 181/32/3
f 187/33/3 183/33/3 182/33/3
f 188/33/3 183/33/3 187/33/3
f 189/4/3 185/4/3 184/4/3
f 190/4/3 185/4/3 189/4/3
f 193/32/3 187/32/3 186/32/3
f 194/32/3 187/32/3 193/32/3
f 195/6/3 191/6/3 190/6/3
f 196/6/3 191/6/3 195/6/3
f 197/29/3 193/29/3 192/29/3
f 198/29/3 193/29/3 197/29/3
f 199/9/4 200/9/4 204/9/4
f 204/9/4 200/9/4 205/9/4
f 201/24/4 202/24/4 206/24/4
f 206/24/4 202/24/4 207/24/4
f 203/2/4 204/2/4 209/2/4
f 209/2/4 204/2/4 210/2/4
f 207/32/4 208/32/4 211/32/4
f 211/32/4 208/32/4 212/32/4
f 212/33/4 213/33/4 217/33/4
f 217/33/4 213/33/4 218/33/4
f 214/4/4 215/4/4 219/4/4
f 219/4/4 215/4/4 220/4/4
f 216/32/4 217/32/4 223/32/4
f 223/32/4 217/32/4 224/32/4
f 220/6/4 221/6/4 225/6/4
f 225/6/4 221/6/4 226/6/4
f 222/29/4 223/29/4 227/29/4
f 227/29/4 223/29/4 228/29/4
f 229/22/4 230/22/4 232/22/4
f 232/22/4 230/22/4 233/22/4
f 231/5/4 232/5/4 236/5/4
f 236/5/4 232/5/4 237/5/4
f 233/25/4 234/25/4 238/25/4
f 238/25/4 234/25/4 239/25/4
f 235/5/4 236/5/4 241/5/4
f 241/5/4 236/5/4 242/5/4
f 239/29/4 240/29/4 245/29/4
f 245/29/4 240/29/4 246/29/4
f 242/11/4 243/11/4 247/11/4
f 247/11/4 243/11/4 248/11/4
f 244/24/4 245/24/4 249/24/4
f 249/24/4 245/24/4 250/24/4
f 248/18/4 249/18/4 251/18/4
f 251/18/4 249/18/4 252/18/4
f 253/17/4 254/17/4 256/17/4
f 256/17/4 254/17/4 257/17/4
f 255/1/4 256/1/4 259/1/4
f 256/13/4 257/13/4 260/13/4
f 259/1/4 256/1/4 260/1/4
f 257/30/4 258/30/4 261/30/4
f 260/13/4 257/13/4 261/13/4
f 261/30/4 258/30/4 262/30/4
f 260/19/4 261/19/4 263/19/4
f 263/19/4 261/19/4 264/19/4
f 268/1/5 266/1/5 265/1/5
f 269/1/5 266/1/5 268/1/5
f 271/2/5 268/2/5 267/2/5
f 272/3/5 269/3/5 268/3/5
f 272/2/5 268/2/5 271/2/5
f 273/4/5 270/4/5 269/4/5
f 273/3/5 269/3/5 272/3/5
f 274/4/5 270/4/5 273/4/5
f 275/5/5 273/5/5 272/5/5
f 276/5/5 273/5/5 275/5/5
f 280/1/5 278/1/5 277/1/5
f 281/1/5 278/1/5 280/1/5
f 284/6/5 280/6/5 279/6/5
f 285/6/5 280/6/5 284/6/5
f 286/8/5 282/8/5 281/8/5
f 287/8/5 282/8/5 286/8/5
f 289/9/5 284/9/5 283/9/5
f 290/9/5 284/9/5 289/9/5
f 293/6/5 288/6/5 287/6/5
f 294/6/5 288/6/5 293/6/5
f 295/5/5 291/5/5 290/5/5
f 296/5/5 291/5/5 295/5/5
f 297/11/5 293/11/5 292/11/5
f 298/11/5 293/11/5 297/11/5
f 299/1/5 297/1/5 296/1/5
f 300/1/5 297/1/5 299/1/5
f 306/12/5 302/12/5 301/12/5
f 307/12/5 302/12/5 306/12/5
f 308/14/5 304/14/5 303/14/5
f 309/14/5 304/14/5 308/14/5
f 311/15/5 306/15/5 305/15/5
f 312/15/5 306/15/5 311/15/5
f 313/18/5 310/18/5 309/18/5
f 314/18/5 310/18/5 313/18/5
f 319/22/5 316/22/5 315/22/5
f 320/22/5 316/22/5 319/22/5
f 323/18/5 318/18/5 317/18/5
f 324/18/5 318/18/5 323/18/5
f 325/17/5 321/17/5 320/17/5
f 326/17/5 321/17/5 325/17/5
f 327/19/5 323/19/5 322/19/5
f 328/19/5 323/19/5 327/19/5
f 329/12/6 330/12/6 334/12/6
f 334/12/6 330/12/6 335/12/6
f 331/14/6 332/14/6 336/14/6
f 336/14/6 332/14/6 337/14/6
f 333/15/6 334/15/6 339/15/6
f 339/15/6 334/15/6 340/15/6
f 337/18/6 338/18/6 341/18/6
f 341/18/6 338/18/6 342/18/6
f 343/22/6 344/22/6 347/22/6
f 347/22/6 344/22/6 348/22/6
f 345/18/6 346/18/6 351/18/6
f 351/18/6 346/18/6 352/18/6
f 348/17/6 349/17/6 353/17/6
f 353/17/6 349/17/6 354/17/6
f 350/19/6 351/19/6 355/19/6
f 355/19/6 351/19/6 356/19/6
f 357/23/6 358/23/6 360/23/6
f 360/23/6 358/23/6 361/23/6
f 359/24/6 360/24/6 364/24/6
f 364/24/6 360/24/6 365/24/6
f 361/24/6 362/24/6 366/24/6
f 366/24/6 362/24/6 367/24/6
f 363/24/6 364/24/6 369/24/6
f 369/24/6 364/24/6 370/24/6
f 367/29/6 368/29/6 373/29/6
f 373/29/6 368/29/6 374/29/6
f 370/25/6 371/25/6 375/25/6
f 375/25/6 371/25/6 376/25/6
f 372/24/6 373/24/6 377/24/6
f 377/24/6 373/24/6 378/24/6
f 376/30/6 377/30/6 379/30/6
f 379/30/6 377/30/6 380/30/6
f 381/31/6 382/31/6 384/31/6
f 384/31/6 382/31/6 385/31/6
f 383/32/6 384/32/6 387/32/6
f 387/32/6 384/32/6 388/32/6
f 385/32/6 386/32/6 389/32/6
f 389/32/6 386/32/6 390/32/6
f 388/29/6 389/29/6 391/29/6
f 391/29/6 389/29/6 392/29/6
f 393/33/6 394/33/6 395/33/6
f 395/33/6 394/33/6 396/33/6
