# MagicaVoxel @ ephtracy

# material
mtllib bob_basketball.mtl
usemtl palette

# normals
vn -1 0 0
vn 1 0 0
vn 0 0 1
vn 0 0 -1
vn 0 -1 0
vn 0 1 0

# texcoords
vt 0.00195313 0.5
vt 0.00585938 0.5
vt 0.00976563 0.5

# verts
v -4.5 1 0.5
v -4.5 1 -0.5
v -4.5 2 1.5
v -4.5 2 0.5
v -4.5 2 -0.5
v -4.5 2 -1.5
v -4.5 3 1.5
v -4.5 3 0.5
v -4.5 3 -0.5
v -4.5 3 -1.5
v -4.5 4 0.5
v -4.5 4 -0.5
v -3.5 0 0.5
v -3.5 0 -0.5
v -3.5 1 1.5
v -3.5 1 0.5
v -3.5 1 -0.5
v -3.5 1 -1.5
v -3.5 2 2.5
v -3.5 2 1.5
v -3.5 2 0.5
v -3.5 2 -0.5
v -3.5 2 -1.5
v -3.5 2 -2.5
v -3.5 3 2.5
v -3.5 3 1.5
v -3.5 3 0.5
v -3.5 3 -0.5
v -3.5 3 -1.5
v -3.5 3 -2.5
v -3.5 4 1.5
v -3.5 4 0.5
v -3.5 4 -0.5
v -3.5 4 -1.5
v -3.5 5 0.5
v -3.5 5 -0.5
v -2.5 0 1.5
v -2.5 0 0.5
v -2.5 0 -0.5
v -2.5 0 -1.5
v -2.5 1 2.5
v -2.5 1 1.5
v -2.5 1 0.5
v -2.5 1 -0.5
v -2.5 1 -1.5
v -2.5 1 -2.5
v -2.5 2 2.5
v -2.5 2 1.5
v -2.5 2 -1.5
v -2.5 2 -2.5
v -2.5 3 2.5
v -2.5 3 1.5
v -2.5 3 -1.5
v -2.5 3 -2.5
v -2.5 4 2.5
v -2.5 4 1.5
v -2.5 4 0.5
v -2.5 4 -0.5
v -2.5 4 -1.5
v -2.5 4 -2.5
v -2.5 5 1.5
v -2.5 5 0.5
v -2.5 5 -0.5
v -2.5 5 -1.5
v -2.5 6 0.5
v -2.5 6 -0.5
v -1.5 0 1.5
v -1.5 0 0.5
v -1.5 0 -0.5
v -1.5 0 -1.5
v -1.5 1 2.5
v -1.5 1 1.5
v -1.5 1 0.5
v -1.5 1 -0.5
v -1.5 1 -1.5
v -1.5 1 -2.5
v -1.5 2 2.5
v -1.5 2 1.5
v -1.5 2 -1.5
v -1.5 2 -2.5
v -1.5 3 2.5
v -1.5 3 1.5
v -1.5 3 -1.5
v -1.5 3 -2.5
v -1.5 4 2.5
v -1.5 4 1.5
v -1.5 4 0.5
v -1.5 4 -0.5
v -1.5 4 -1.5
v -1.5 4 -2.5
v -1.5 5 1.5
v -1.5 5 0.5
v -1.5 5 -0.5
v -1.5 5 -1.5
v -1.5 6 0.5
v -1.5 6 -0.5
v -0.5 0 0.5
v -0.5 0 -0.5
v -0.5 1 1.5
v -0.5 1 0.5
v -0.5 1 -0.5
v -0.5 1 -1.5
v -0.5 2 2.5
v -0.5 2 1.5
v -0.5 2 0.5
v -0.5 2 -0.5
v -0.5 2 -1.5
v -0.5 2 -2.5
v -0.5 3 2.5
v -0.5 3 1.5
v -0.5 3 0.5
v -0.5 3 -0.5
v -0.5 3 -1.5
v -0.5 3 -2.5
v -0.5 4 1.5
v -0.5 4 0.5
v -0.5 4 -0.5
v -0.5 4 -1.5
v -0.5 5 0.5
v -0.5 5 -0.5
v 0.5 1 0.5
v 0.5 1 -0.5
v 0.5 2 1.5
v 0.5 2 0.5
v 0.5 2 -0.5
v 0.5 2 -1.5
v 0.5 3 1.5
v 0.5 3 0.5
v 0.5 3 -0.5
v 0.5 3 -1.5
v 0.5 4 0.5
v 0.5 4 -0.5
v -3.5 2 2.5
v -3.5 3 2.5
v -2.5 1 2.5
v -2.5 2 2.5
v -2.5 3 2.5
v -2.5 4 2.5
v -1.5 1 2.5
v -1.5 2 2.5
v -1.5 3 2.5
v -1.5 4 2.5
v -0.5 2 2.5
v -0.5 3 2.5
v -4.5 2 1.5
v -4.5 3 1.5
v -3.5 1 1.5
v -3.5 2 1.5
v -3.5 3 1.5
v -3.5 4 1.5
v -2.5 0 1.5
v -2.5 1 1.5
v -2.5 2 1.5
v -2.5 3 1.5
v -2.5 4 1.5
v -2.5 5 1.5
v -1.5 0 1.5
v -1.5 1 1.5
v -1.5 2 1.5
v -1.5 3 1.5
v -1.5 4 1.5
v -1.5 5 1.5
v -0.5 1 1.5
v -0.5 2 1.5
v -0.5 3 1.5
v -0.5 4 1.5
v 0.5 2 1.5
v 0.5 3 1.5
v -4.5 1 0.5
v -4.5 2 0.5
v -4.5 3 0.5
v -4.5 4 0.5
v -3.5 0 0.5
v -3.5 1 0.5
v -3.5 2 0.5
v -3.5 3 0.5
v -3.5 4 0.5
v -3.5 5 0.5
v -2.5 0 0.5
v -2.5 1 0.5
v -2.5 4 0.5
v -2.5 5 0.5
v -2.5 6 0.5
v -1.5 0 0.5
v -1.5 1 0.5
v -1.5 4 0.5
v -1.5 5 0.5
v -1.5 6 0.5
v -0.5 0 0.5
v -0.5 1 0.5
v -0.5 2 0.5
v -0.5 3 0.5
v -0.5 4 0.5
v -0.5 5 0.5
v 0.5 1 0.5
v 0.5 2 0.5
v 0.5 3 0.5
v 0.5 4 0.5
v -4.5 1 -0.5
v -4.5 2 -0.5
v -4.5 3 -0.5
v -4.5 4 -0.5
v -3.5 0 -0.5
v -3.5 1 -0.5
v -3.5 2 -0.5
v -3.5 3 -0.5
v -3.5 4 -0.5
v -3.5 5 -0.5
v -2.5 0 -0.5
v -2.5 1 -0.5
v -2.5 4 -0.5
v -2.5 5 -0.5
v -2.5 6 -0.5
v -1.5 0 -0.5
v -1.5 1 -0.5
v -1.5 4 -0.5
v -1.5 5 -0.5
v -1.5 6 -0.5
v -0.5 0 -0.5
v -0.5 1 -0.5
v -0.5 2 -0.5
v -0.5 3 -0.5
v -0.5 4 -0.5
v -0.5 5 -0.5
v 0.5 1 -0.5
v 0.5 2 -0.5
v 0.5 3 -0.5
v 0.5 4 -0.5
v -4.5 2 -1.5
v -4.5 3 -1.5
v -3.5 1 -1.5
v -3.5 2 -1.5
v -3.5 3 -1.5
v -3.5 4 -1.5
v -2.5 0 -1.5
v -2.5 1 -1.5
v -2.5 2 -1.5
v -2.5 3 -1.5
v -2.5 4 -1.5
v -2.5 5 -1.5
v -1.5 0 -1.5
v -1.5 1 -1.5
v -1.5 2 -1.5
v -1.5 3 -1.5
v -1.5 4 -1.5
v -1.5 5 -1.5
v -0.5 1 -1.5
v -0.5 2 -1.5
v -0.5 3 -1.5
v -0.5 4 -1.5
v 0.5 2 -1.5
v 0.5 3 -1.5
v -3.5 2 -2.5
v -3.5 3 -2.5
v -2.5 1 -2.5
v -2.5 2 -2.5
v -2.5 3 -2.5
v -2.5 4 -2.5
v -1.5 1 -2.5
v -1.5 2 -2.5
v -1.5 3 -2.5
v -1.5 4 -2.5
v -0.5 2 -2.5
v -0.5 3 -2.5
v -2.5 0 1.5
v -1.5 0 1.5
v -3.5 0 0.5
v -2.5 0 0.5
v -1.5 0 0.5
v -0.5 0 0.5
v -3.5 0 -0.5
v -2.5 0 -0.5
v -1.5 0 -0.5
v -0.5 0 -0.5
v -2.5 0 -1.5
v -1.5 0 -1.5
v -2.5 1 2.5
v -1.5 1 2.5
v -3.5 1 1.5
v -2.5 1 1.5
v -1.5 1 1.5
v -0.5 1 1.5
v -4.5 1 0.5
v -3.5 1 0.5
v -2.5 1 0.5
v -1.5 1 0.5
v -0.5 1 0.5
v 0.5 1 0.5
v -4.5 1 -0.5
v -3.5 1 -0.5
v -2.5 1 -0.5
v -1.5 1 -0.5
v -0.5 1 -0.5
v 0.5 1 -0.5
v -3.5 1 -1.5
v -2.5 1 -1.5
v -1.5 1 -1.5
v -0.5 1 -1.5
v -2.5 1 -2.5
v -1.5 1 -2.5
v -3.5 2 2.5
v -2.5 2 2.5
v -1.5 2 2.5
v -0.5 2 2.5
v -4.5 2 1.5
v -3.5 2 1.5
v -2.5 2 1.5
v -1.5 2 1.5
v -0.5 2 1.5
v 0.5 2 1.5
v -4.5 2 0.5
v -3.5 2 0.5
v -0.5 2 0.5
v 0.5 2 0.5
v -4.5 2 -0.5
v -3.5 2 -0.5
v -0.5 2 -0.5
v 0.5 2 -0.5
v -4.5 2 -1.5
v -3.5 2 -1.5
v -2.5 2 -1.5
v -1.5 2 -1.5
v -0.5 2 -1.5
v 0.5 2 -1.5
v -3.5 2 -2.5
v -2.5 2 -2.5
v -1.5 2 -2.5
v -0.5 2 -2.5
v -3.5 3 2.5
v -2.5 3 2.5
v -1.5 3 2.5
v -0.5 3 2.5
v -4.5 3 1.5
v -3.5 3 1.5
v -2.5 3 1.5
v -1.5 3 1.5
v -0.5 3 1.5
v 0.5 3 1.5
v -4.5 3 0.5
v -3.5 3 0.5
v -0.5 3 0.5
v 0.5 3 0.5
v -4.5 3 -0.5
v -3.5 3 -0.5
v -0.5 3 -0.5
v 0.5 3 -0.5
v -4.5 3 -1.5
v -3.5 3 -1.5
v -2.5 3 -1.5
v -1.5 3 -1.5
v -0.5 3 -1.5
v 0.5 3 -1.5
v -3.5 3 -2.5
v -2.5 3 -2.5
v -1.5 3 -2.5
v -0.5 3 -2.5
v -2.5 4 2.5
v -1.5 4 2.5
v -3.5 4 1.5
v -2.5 4 1.5
v -1.5 4 1.5
v -0.5 4 1.5
v -4.5 4 0.5
v -3.5 4 0.5
v -2.5 4 0.5
v -1.5 4 0.5
v -0.5 4 0.5
v 0.5 4 0.5
v -4.5 4 -0.5
v -3.5 4 -0.5
v -2.5 4 -0.5
v -1.5 4 -0.5
v -0.5 4 -0.5
v 0.5 4 -0.5
v -3.5 4 -1.5
v -2.5 4 -1.5
v -1.5 4 -1.5
v -0.5 4 -1.5
v -2.5 4 -2.5
v -1.5 4 -2.5
v -2.5 5 1.5
v -1.5 5 1.5
v -3.5 5 0.5
v -2.5 5 0.5
v -1.5 5 0.5
v -0.5 5 0.5
v -3.5 5 -0.5
v -2.5 5 -0.5
v -1.5 5 -0.5
v -0.5 5 -0.5
v -2.5 5 -1.5
v -1.5 5 -1.5
v -2.5 6 0.5
v -1.5 6 0.5
v -2.5 6 -0.5
v -1.5 6 -0.5

# faces
f 4/1/1 2/1/1 1/1/1
f 5/1/1 2/1/1 4/1/1
f 7/2/1 4/2/1 3/2/1
f 7/2/1 6/2/1 5/2/1
f 7/2/1 5/2/1 4/2/1
f 8/2/1 6/2/1 7/2/1
f 9/2/1 6/2/1 8/2/1
f 10/2/1 6/2/1 9/2/1
f 11/1/1 9/1/1 8/1/1
f 12/1/1 9/1/1 11/1/1
f 16/2/1 14/2/1 13/2/1
f 17/2/1 14/2/1 16/2/1
f 20/2/1 16/2/1 15/2/1
f 21/2/1 16/2/1 20/2/1
f 22/2/1 18/2/1 17/2/1
f 23/2/1 18/2/1 22/2/1
f 25/2/1 20/2/1 19/2/1
f 26/2/1 20/2/1 25/2/1
f 29/2/1 24/2/1 23/2/1
f 30/2/1 24/2/1 29/2/1
f 31/2/1 27/2/1 26/2/1
f 32/2/1 27/2/1 31/2/1
f 33/2/1 29/2/1 28/2/1
f 34/2/1 29/2/1 33/2/1
f 35/2/1 33/2/1 32/2/1
f 36/2/1 33/2/1 35/2/1
f 42/1/1 38/1/1 37/1/1
f 43/1/1 38/1/1 42/1/1
f 44/1/1 40/1/1 39/1/1
f 45/1/1 40/1/1 44/1/1
f 47/1/1 42/1/1 41/1/1
f 48/1/1 42/1/1 47/1/1
f 49/1/1 46/1/1 45/1/1
f 50/1/1 46/1/1 49/1/1
f 55/1/1 52/1/1 51/1/1
f 56/1/1 52/1/1 55/1/1
f 59/1/1 54/1/1 53/1/1
f 60/1/1 54/1/1 59/1/1
f 61/1/1 57/1/1 56/1/1
f 62/1/1 57/1/1 61/1/1
f 63/1/1 59/1/1 58/1/1
f 64/1/1 59/1/1 63/1/1
f 65/1/1 63/1/1 62/1/1
f 66/1/1 63/1/1 65/1/1
f 67/1/2 68/1/2 72/1/2
f 72/1/2 68/1/2 73/1/2
f 69/1/2 70/1/2 74/1/2
f 74/1/2 70/1/2 75/1/2
f 71/1/2 72/1/2 77/1/2
f 77/1/2 72/1/2 78/1/2
f 75/1/2 76/1/2 79/1/2
f 79/1/2 76/1/2 80/1/2
f 81/1/2 82/1/2 85/1/2
f 85/1/2 82/1/2 86/1/2
f 83/1/2 84/1/2 89/1/2
f 89/1/2 84/1/2 90/1/2
f 86/1/2 87/1/2 91/1/2
f 91/1/2 87/1/2 92/1/2
f 88/1/2 89/1/2 93/1/2
f 93/1/2 89/1/2 94/1/2
f 92/1/2 93/1/2 95/1/2
f 95/1/2 93/1/2 96/1/2
f 97/2/2 98/2/2 100/2/2
f 100/2/2 98/2/2 101/2/2
f 99/2/2 100/2/2 104/2/2
f 104/2/2 100/2/2 105/2/2
f 101/2/2 102/2/2 106/2/2
f 106/2/2 102/2/2 107/2/2
f 103/2/2 104/2/2 109/2/2
f 109/2/2 104/2/2 110/2/2
f 107/2/2 108/2/2 113/2/2
f 113/2/2 108/2/2 114/2/2
f 110/2/2 111/2/2 115/2/2
f 115/2/2 111/2/2 116/2/2
f 112/2/2 113/2/2 117/2/2
f 117/2/2 113/2/2 118/2/2
f 116/2/2 117/2/2 119/2/2
f 119/2/2 117/2/2 120/2/2
f 121/1/2 122/1/2 124/1/2
f 124/1/2 122/1/2 125/1/2
f 123/2/2 124/2/2 127/2/2
f 125/2/2 126/2/2 127/2/2
f 124/2/2 125/2/2 127/2/2
f 127/2/2 126/2/2 128/2/2
f 128/2/2 126/2/2 129/2/2
f 129/2/2 126/2/2 130/2/2
f 128/1/2 129/1/2 131/1/2
f 131/1/2 129/1/2 132/1/2
f 136/2/3 134/2/3 133/2/3
f 137/2/3 134/2/3 136/2/3
f 139/1/3 136/1/3 135/1/3
f 140/2/3 137/2/3 136/2/3
f 140/1/3 136/1/3 139/1/3
f 141/1/3 138/1/3 137/1/3
f 141/2/3 137/2/3 140/2/3
f 142/1/3 138/1/3 141/1/3
f 143/2/3 141/2/3 140/2/3
f 144/2/3 141/2/3 143/2/3
f 148/2/3 146/2/3 145/2/3
f 149/2/3 146/2/3 148/2/3
f 152/2/3 148/2/3 147/2/3
f 153/2/3 148/2/3 152/2/3
f 154/2/3 150/2/3 149/2/3
f 155/2/3 150/2/3 154/2/3
f 157/1/3 152/1/3 151/1/3
f 158/1/3 152/1/3 157/1/3
f 161/1/3 156/1/3 155/1/3
f 162/1/3 156/1/3 161/1/3
f 163/2/3 159/2/3 158/2/3
f 164/2/3 159/2/3 163/2/3
f 165/2/3 161/2/3 160/2/3
f 166/2/3 161/2/3 165/2/3
f 167/2/3 165/2/3 164/2/3
f 168/2/3 165/2/3 167/2/3
f 174/1/3 170/1/3 169/1/3
f 175/1/3 170/1/3 174/1/3
f 176/1/3 172/1/3 171/1/3
f 177/1/3 172/1/3 176/1/3
f 179/2/3 174/2/3 173/2/3
f 180/2/3 174/2/3 179/2/3
f 181/2/3 178/2/3 177/2/3
f 182/2/3 178/2/3 181/2/3
f 187/1/3 183/1/3 182/1/3
f 188/1/3 183/1/3 187/1/3
f 189/2/3 185/2/3 184/2/3
f 190/2/3 185/2/3 189/2/3
f 193/2/3 187/2/3 186/2/3
f 194/2/3 187/2/3 193/2/3
f 195/1/3 191/1/3 190/1/3
f 196/1/3 191/1/3 195/1/3
f 197/1/3 193/1/3 192/1/3
f 198/1/3 193/1/3 197/1/3
f 199/1/4 200/1/4 204/1/4
f 204/1/4 200/1/4 205/1/4
f 201/1/4 202/1/4 206/1/4
f 206/1/4 202/1/4 207/1/4
f 203/2/4 204/2/4 209/2/4
f 209/2/4 204/2/4 210/2/4
f 207/2/4 208/2/4 211/2/4
f 211/2/4 208/2/4 212/2/4
f 212/1/4 213/1/4 217/1/4
f 217/1/4 213/1/4 218/1/4
f 214/2/4 215/2/4 219/2/4
f 219/2/4 215/2/4 220/2/4
f 216/2/4 217/2/4 223/2/4
f 223/2/4 217/2/4 224/2/4
f 220/1/4 221/1/4 225/1/4
f 225/1/4 221/1/4 226/1/4
f 222/1/4 223/1/4 227/1/4
f 227/1/4 223/1/4 228/1/4
f 229/2/4 230/2/4 232/2/4
f 232/2/4 230/2/4 233/2/4
f 231/2/4 232/2/4 236/2/4
f 236/2/4 232/2/4 237/2/4
f 233/2/4 234/2/4 238/2/4
f 238/2/4 234/2/4 239/2/4
f 235/1/4 236/1/4 241/1/4
f 241/1/4 236/1/4 242/1/4
f 239/1/4 240/1/4 245/1/4
f 245/1/4 240/1/4 246/1/4
f 242/2/4 243/2/4 247/2/4
f 247/2/4 243/2/4 248/2/4
f 244/2/4 245/2/4 249/2/4
f 249/2/4 245/2/4 250/2/4
f 248/2/4 249/2/4 251/2/4
f 251/2/4 249/2/4 252/2/4
f 253/2/4 254/2/4 256/2/4
f 256/2/4 254/2/4 257/2/4
f 255/1/4 256/1/4 259/1/4
f 256/2/4 257/2/4 260/2/4
f 259/1/4 256/1/4 260/1/4
f 257/1/4 258/1/4 261/1/4
f 260/2/4 257/2/4 261/2/4
f 261/1/4 258/1/4 262/1/4
f 260/2/4 261/2/4 263/2/4
f 263/2/4 261/2/4 264/2/4
f 268/1/5 266/1/5 265/1/5
f 269/1/5 266/1/5 268/1/5
f 271/2/5 268/2/5 267/2/5
f 272/1/5 269/1/5 268/1/5
f 272/2/5 268/2/5 271/2/5
f 273/2/5 270/2/5 269/2/5
f 273/1/5 269/1/5 272/1/5
f 274/2/5 270/2/5 273/2/5
f 275/1/5 273/1/5 272/1/5
f 276/1/5 273/1/5 275/1/5
f 280/1/5 278/1/5 277/1/5
f 281/1/5 278/1/5 280/1/5
f 284/2/5 280/2/5 279/2/5
f 285/2/5 280/2/5 284/2/5
f 286/2/5 282/2/5 281/2/5
f 287/2/5 282/2/5 286/2/5
f 289/1/5 284/1/5 283/1/5
f 290/1/5 284/1/5 289/1/5
f 293/1/5 288/1/5 287/1/5
f 294/1/5 288/1/5 293/1/5
f 295/2/5 291/2/5 290/2/5
f 296/2/5 291/2/5 295/2/5
f 297/2/5 293/2/5 292/2/5
f 298/2/5 293/2/5 297/2/5
f 299/1/5 297/1/5 296/1/5
f 300/1/5 297/1/5 299/1/5
f 306/2/5 302/2/5 301/2/5
f 307/2/5 302/2/5 306/2/5
f 308/2/5 304/2/5 303/2/5
f 309/2/5 304/2/5 308/2/5
f 311/2/5 306/2/5 305/2/5
f 312/2/5 306/2/5 311/2/5
f 313/2/5 310/2/5 309/2/5
f 314/2/5 310/2/5 313/2/5
f 319/2/5 316/2/5 315/2/5
f 320/2/5 316/2/5 319/2/5
f 323/2/5 318/2/5 317/2/5
f 324/2/5 318/2/5 323/2/5
f 325/2/5 321/2/5 320/2/5
f 326/2/5 321/2/5 325/2/5
f 327/2/5 323/2/5 322/2/5
f 328/2/5 323/2/5 327/2/5
f 329/2/6 330/2/6 334/2/6
f 334/2/6 330/2/6 335/2/6
f 331/2/6 332/2/6 336/2/6
f 336/2/6 332/2/6 337/2/6
f 333/2/6 334/2/6 339/2/6
f 339/2/6 334/2/6 340/2/6
f 337/2/6 338/2/6 341/2/6
f 341/2/6 338/2/6 342/2/6
f 343/2/6 344/2/6 347/2/6
f 347/2/6 344/2/6 348/2/6
f 345/2/6 346/2/6 351/2/6
f 351/2/6 346/2/6 352/2/6
f 348/2/6 349/2/6 353/2/6
f 353/2/6 349/2/6 354/2/6
f 350/2/6 351/2/6 355/2/6
f 355/2/6 351/2/6 356/2/6
f 357/1/6 358/1/6 360/1/6
f 360/1/6 358/1/6 361/1/6
f 359/2/6 360/2/6 364/2/6
f 364/2/6 360/2/6 365/2/6
f 361/2/6 362/2/6 366/2/6
f 366/2/6 362/2/6 367/2/6
f 363/1/6 364/1/6 369/1/6
f 369/1/6 364/1/6 370/1/6
f 367/1/6 368/1/6 373/1/6
f 373/1/6 368/1/6 374/1/6
f 370/2/6 371/2/6 375/2/6
f 375/2/6 371/2/6 376/2/6
f 372/2/6 373/2/6 377/2/6
f 377/2/6 373/2/6 378/2/6
f 376/1/6 377/1/6 379/1/6
f 379/1/6 377/1/6 380/1/6
f 381/1/6 382/1/6 384/1/6
f 384/1/6 382/1/6 385/1/6
f 383/2/6 384/2/6 387/2/6
f 387/2/6 384/2/6 388/2/6
f 385/2/6 386/2/6 389/2/6
f 389/2/6 386/2/6 390/2/6
f 388/1/6 389/1/6 391/1/6
f 391/1/6 389/1/6 392/1/6
f 393/1/6 394/1/6 395/1/6
f 395/1/6 394/1/6 396/1/6
