# MagicaVoxel @ ephtracy

# material
mtllib bob_yellow.mtl
usemtl palette

# normals
vn -1 0 0
vn 1 0 0
vn 0 0 1
vn 0 0 -1
vn 0 -1 0
vn 0 1 0

# texcoords
vt 0.00195313 0.5
vt 0.00585938 0.5
vt 0.00976563 0.5
vt 0.0136719 0.5
vt 0.0175781 0.5
vt 0.0214844 0.5
vt 0.0253906 0.5
vt 0.0292969 0.5
vt 0.0332031 0.5
vt 0.0371094 0.5
vt 0.0410156 0.5
vt 0.0449219 0.5
vt 0.0488281 0.5
vt 0.0527344 0.5
vt 0.0566406 0.5
vt 0.0605469 0.5
vt 0.0644531 0.5
vt 0.0683594 0.5
vt 0.0722656 0.5
vt 0.0761719 0.5
vt 0.0800781 0.5
vt 0.0839844 0.5
vt 0.0878906 0.5
vt 0.0917969 0.5
vt 0.0957031 0.5
vt 0.0996094 0.5
vt 0.103516 0.5

# verts
v -4.5 1 0.5
v -4.5 1 -0.5
v -4.5 2 1.5
v -4.5 2 0.5
v -4.5 2 -0.5
v -4.5 2 -1.5
v -4.5 3 1.5
v -4.5 3 0.5
v -4.5 3 -0.5
v -4.5 3 -1.5
v -4.5 4 0.5
v -4.5 4 -0.5
v -3.5 0 0.5
v -3.5 0 -0.5
v -3.5 1 1.5
v -3.5 1 0.5
v -3.5 1 -0.5
v -3.5 1 -1.5
v -3.5 2 2.5
v -3.5 2 1.5
v -3.5 2 0.5
v -3.5 2 -0.5
v -3.5 2 -1.5
v -3.5 2 -2.5
v -3.5 3 2.5
v -3.5 3 1.5
v -3.5 3 0.5
v -3.5 3 -0.5
v -3.5 3 -1.5
v -3.5 3 -2.5
v -3.5 4 1.5
v -3.5 4 0.5
v -3.5 4 -0.5
v -3.5 4 -1.5
v -3.5 5 0.5
v -3.5 5 -0.5
v -2.5 0 1.5
v -2.5 0 0.5
v -2.5 0 -0.5
v -2.5 0 -1.5
v -2.5 1 2.5
v -2.5 1 1.5
v -2.5 1 0.5
v -2.5 1 -0.5
v -2.5 1 -1.5
v -2.5 1 -2.5
v -2.5 2 2.5
v -2.5 2 1.5
v -2.5 2 -1.5
v -2.5 2 -2.5
v -2.5 3 2.5
v -2.5 3 1.5
v -2.5 3 -1.5
v -2.5 3 -2.5
v -2.5 4 2.5
v -2.5 4 1.5
v -2.5 4 0.5
v -2.5 4 -0.5
v -2.5 4 -1.5
v -2.5 4 -2.5
v -2.5 5 1.5
v -2.5 5 0.5
v -2.5 5 -0.5
v -2.5 5 -1.5
v -2.5 6 0.5
v -2.5 6 -0.5
v -1.5 0 1.5
v -1.5 0 0.5
v -1.5 0 -0.5
v -1.5 0 -1.5
v -1.5 1 2.5
v -1.5 1 1.5
v -1.5 1 0.5
v -1.5 1 -0.5
v -1.5 1 -1.5
v -1.5 1 -2.5
v -1.5 2 2.5
v -1.5 2 1.5
v -1.5 2 -1.5
v -1.5 2 -2.5
v -1.5 3 2.5
v -1.5 3 1.5
v -1.5 3 -1.5
v -1.5 3 -2.5
v -1.5 4 2.5
v -1.5 4 1.5
v -1.5 4 0.5
v -1.5 4 -0.5
v -1.5 4 -1.5
v -1.5 4 -2.5
v -1.5 5 1.5
v -1.5 5 0.5
v -1.5 5 -0.5
v -1.5 5 -1.5
v -1.5 6 0.5
v -1.5 6 -0.5
v -0.5 0 0.5
v -0.5 0 -0.5
v -0.5 1 1.5
v -0.5 1 0.5
v -0.5 1 -0.5
v -0.5 1 -1.5
v -0.5 2 2.5
v -0.5 2 1.5
v -0.5 2 0.5
v -0.5 2 -0.5
v -0.5 2 -1.5
v -0.5 2 -2.5
v -0.5 3 2.5
v -0.5 3 1.5
v -0.5 3 0.5
v -0.5 3 -0.5
v -0.5 3 -1.5
v -0.5 3 -2.5
v -0.5 4 1.5
v -0.5 4 0.5
v -0.5 4 -0.5
v -0.5 4 -1.5
v -0.5 5 0.5
v -0.5 5 -0.5
v 0.5 1 0.5
v 0.5 1 -0.5
v 0.5 2 1.5
v 0.5 2 0.5
v 0.5 2 -0.5
v 0.5 2 -1.5
v 0.5 3 1.5
v 0.5 3 0.5
v 0.5 3 -0.5
v 0.5 3 -1.5
v 0.5 4 0.5
v 0.5 4 -0.5
v -3.5 2 2.5
v -3.5 3 2.5
v -2.5 1 2.5
v -2.5 2 2.5
v -2.5 3 2.5
v -2.5 4 2.5
v -1.5 1 2.5
v -1.5 2 2.5
v -1.5 3 2.5
v -1.5 4 2.5
v -0.5 2 2.5
v -0.5 3 2.5
v -4.5 2 1.5
v -4.5 3 1.5
v -3.5 1 1.5
v -3.5 2 1.5
v -3.5 3 1.5
v -3.5 4 1.5
v -2.5 0 1.5
v -2.5 1 1.5
v -2.5 2 1.5
v -2.5 3 1.5
v -2.5 4 1.5
v -2.5 5 1.5
v -1.5 0 1.5
v -1.5 1 1.5
v -1.5 2 1.5
v -1.5 3 1.5
v -1.5 4 1.5
v -1.5 5 1.5
v -0.5 1 1.5
v -0.5 2 1.5
v -0.5 3 1.5
v -0.5 4 1.5
v 0.5 2 1.5
v 0.5 3 1.5
v -4.5 1 0.5
v -4.5 2 0.5
v -4.5 3 0.5
v -4.5 4 0.5
v -3.5 0 0.5
v -3.5 1 0.5
v -3.5 2 0.5
v -3.5 3 0.5
v -3.5 4 0.5
v -3.5 5 0.5
v -2.5 0 0.5
v -2.5 1 0.5
v -2.5 4 0.5
v -2.5 5 0.5
v -2.5 6 0.5
v -1.5 0 0.5
v -1.5 1 0.5
v -1.5 4 0.5
v -1.5 5 0.5
v -1.5 6 0.5
v -0.5 0 0.5
v -0.5 1 0.5
v -0.5 2 0.5
v -0.5 3 0.5
v -0.5 4 0.5
v -0.5 5 0.5
v 0.5 1 0.5
v 0.5 2 0.5
v 0.5 3 0.5
v 0.5 4 0.5
v -4.5 1 -0.5
v -4.5 2 -0.5
v -4.5 3 -0.5
v -4.5 4 -0.5
v -3.5 0 -0.5
v -3.5 1 -0.5
v -3.5 2 -0.5
v -3.5 3 -0.5
v -3.5 4 -0.5
v -3.5 5 -0.5
v -2.5 0 -0.5
v -2.5 1 -0.5
v -2.5 4 -0.5
v -2.5 5 -0.5
v -2.5 6 -0.5
v -1.5 0 -0.5
v -1.5 1 -0.5
v -1.5 4 -0.5
v -1.5 5 -0.5
v -1.5 6 -0.5
v -0.5 0 -0.5
v -0.5 1 -0.5
v -0.5 2 -0.5
v -0.5 3 -0.5
v -0.5 4 -0.5
v -0.5 5 -0.5
v 0.5 1 -0.5
v 0.5 2 -0.5
v 0.5 3 -0.5
v 0.5 4 -0.5
v -4.5 2 -1.5
v -4.5 3 -1.5
v -3.5 1 -1.5
v -3.5 2 -1.5
v -3.5 3 -1.5
v -3.5 4 -1.5
v -2.5 0 -1.5
v -2.5 1 -1.5
v -2.5 2 -1.5
v -2.5 3 -1.5
v -2.5 4 -1.5
v -2.5 5 -1.5
v -1.5 0 -1.5
v -1.5 1 -1.5
v -1.5 2 -1.5
v -1.5 3 -1.5
v -1.5 4 -1.5
v -1.5 5 -1.5
v -0.5 1 -1.5
v -0.5 2 -1.5
v -0.5 3 -1.5
v -0.5 4 -1.5
v 0.5 2 -1.5
v 0.5 3 -1.5
v -3.5 2 -2.5
v -3.5 3 -2.5
v -2.5 1 -2.5
v -2.5 2 -2.5
v -2.5 3 -2.5
v -2.5 4 -2.5
v -1.5 1 -2.5
v -1.5 2 -2.5
v -1.5 3 -2.5
v -1.5 4 -2.5
v -0.5 2 -2.5
v -0.5 3 -2.5
v -2.5 0 1.5
v -1.5 0 1.5
v -3.5 0 0.5
v -2.5 0 0.5
v -1.5 0 0.5
v -0.5 0 0.5
v -3.5 0 -0.5
v -2.5 0 -0.5
v -1.5 0 -0.5
v -0.5 0 -0.5
v -2.5 0 -1.5
v -1.5 0 -1.5
v -2.5 1 2.5
v -1.5 1 2.5
v -3.5 1 1.5
v -2.5 1 1.5
v -1.5 1 1.5
v -0.5 1 1.5
v -4.5 1 0.5
v -3.5 1 0.5
v -2.5 1 0.5
v -1.5 1 0.5
v -0.5 1 0.5
v 0.5 1 0.5
v -4.5 1 -0.5
v -3.5 1 -0.5
v -2.5 1 -0.5
v -1.5 1 -0.5
v -0.5 1 -0.5
v 0.5 1 -0.5
v -3.5 1 -1.5
v -2.5 1 -1.5
v -1.5 1 -1.5
v -0.5 1 -1.5
v -2.5 1 -2.5
v -1.5 1 -2.5
v -3.5 2 2.5
v -2.5 2 2.5
v -1.5 2 2.5
v -0.5 2 2.5
v -4.5 2 1.5
v -3.5 2 1.5
v -2.5 2 1.5
v -1.5 2 1.5
v -0.5 2 1.5
v 0.5 2 1.5
v -4.5 2 0.5
v -3.5 2 0.5
v -0.5 2 0.5
v 0.5 2 0.5
v -4.5 2 -0.5
v -3.5 2 -0.5
v -0.5 2 -0.5
v 0.5 2 -0.5
v -4.5 2 -1.5
v -3.5 2 -1.5
v -2.5 2 -1.5
v -1.5 2 -1.5
v -0.5 2 -1.5
v 0.5 2 -1.5
v -3.5 2 -2.5
v -2.5 2 -2.5
v -1.5 2 -2.5
v -0.5 2 -2.5
v -3.5 3 2.5
v -2.5 3 2.5
v -1.5 3 2.5
v -0.5 3 2.5
v -4.5 3 1.5
v -3.5 3 1.5
v -2.5 3 1.5
v -1.5 3 1.5
v -0.5 3 1.5
v 0.5 3 1.5
v -4.5 3 0.5
v -3.5 3 0.5
v -0.5 3 0.5
v 0.5 3 0.5
v -4.5 3 -0.5
v -3.5 3 -0.5
v -0.5 3 -0.5
v 0.5 3 -0.5
v -4.5 3 -1.5
v -3.5 3 -1.5
v -2.5 3 -1.5
v -1.5 3 -1.5
v -0.5 3 -1.5
v 0.5 3 -1.5
v -3.5 3 -2.5
v -2.5 3 -2.5
v -1.5 3 -2.5
v -0.5 3 -2.5
v -2.5 4 2.5
v -1.5 4 2.5
v -3.5 4 1.5
v -2.5 4 1.5
v -1.5 4 1.5
v -0.5 4 1.5
v -4.5 4 0.5
v -3.5 4 0.5
v -2.5 4 0.5
v -1.5 4 0.5
v -0.5 4 0.5
v 0.5 4 0.5
v -4.5 4 -0.5
v -3.5 4 -0.5
v -2.5 4 -0.5
v -1.5 4 -0.5
v -0.5 4 -0.5
v 0.5 4 -0.5
v -3.5 4 -1.5
v -2.5 4 -1.5
v -1.5 4 -1.5
v -0.5 4 -1.5
v -2.5 4 -2.5
v -1.5 4 -2.5
v -2.5 5 1.5
v -1.5 5 1.5
v -3.5 5 0.5
v -2.5 5 0.5
v -1.5 5 0.5
v -0.5 5 0.5
v -3.5 5 -0.5
v -2.5 5 -0.5
v -1.5 5 -0.5
v -0.5 5 -0.5
v -2.5 5 -1.5
v -1.5 5 -1.5
v -2.5 6 0.5
v -1.5 6 0.5
v -2.5 6 -0.5
v -1.5 6 -0.5

# faces
f 4/8/1 2/8/1 1/8/1
f 5/8/1 2/8/1 4/8/1
f 7/14/1 4/14/1 3/14/1
f 8/15/1 5/15/1 4/15/1
f 8/14/1 4/14/1 7/14/1
f 9/12/1 6/12/1 5/12/1
f 9/15/1 5/15/1 8/15/1
f 10/12/1 6/12/1 9/12/1
f 11/25/1 9/25/1 8/25/1
f 12/25/1 9/25/1 11/25/1
f 16/2/1 14/2/1 13/2/1
f 17/2/1 14/2/1 16/2/1
f 20/6/1 16/6/1 15/6/1
f 21/6/1 16/6/1 20/6/1
f 22/1/1 18/1/1 17/1/1
f 23/1/1 18/1/1 22/1/1
f 25/11/1 20/11/1 19/11/1
f 26/11/1 20/11/1 25/11/1
f 29/24/1 24/24/1 23/24/1
f 30/24/1 24/24/1 29/24/1
f 31/25/1 27/25/1 26/25/1
f 32/25/1 27/25/1 31/25/1
f 33/25/1 29/25/1 28/25/1
f 34/25/1 29/25/1 33/25/1
f 35/25/1 33/25/1 32/25/1
f 36/25/1 33/25/1 35/25/1
f 42/1/1 38/1/1 37/1/1
f 43/1/1 38/1/1 42/1/1
f 44/4/1 40/4/1 39/4/1
f 45/4/1 40/4/1 44/4/1
f 47/5/1 42/5/1 41/5/1
f 48/5/1 42/5/1 47/5/1
f 49/7/1 46/7/1 45/7/1
f 50/7/1 46/7/1 49/7/1
f 55/25/1 52/25/1 51/25/1
f 56/25/1 52/25/1 55/25/1
f 59/25/1 54/25/1 53/25/1
f 60/25/1 54/25/1 59/25/1
f 61/25/1 57/25/1 56/25/1
f 62/25/1 57/25/1 61/25/1
f 63/25/1 59/25/1 58/25/1
f 64/25/1 59/25/1 63/25/1
f 65/27/1 63/27/1 62/27/1
f 66/27/1 63/27/1 65/27/1
f 67/1/2 68/1/2 72/1/2
f 72/1/2 68/1/2 73/1/2
f 69/4/2 70/4/2 74/4/2
f 74/4/2 70/4/2 75/4/2
f 71/5/2 72/5/2 77/5/2
f 77/5/2 72/5/2 78/5/2
f 75/7/2 76/7/2 79/7/2
f 79/7/2 76/7/2 80/7/2
f 81/25/2 82/25/2 85/25/2
f 85/25/2 82/25/2 86/25/2
f 83/25/2 84/25/2 89/25/2
f 89/25/2 84/25/2 90/25/2
f 86/25/2 87/25/2 91/25/2
f 91/25/2 87/25/2 92/25/2
f 88/25/2 89/25/2 93/25/2
f 93/25/2 89/25/2 94/25/2
f 92/27/2 93/27/2 95/27/2
f 95/27/2 93/27/2 96/27/2
f 97/1/2 98/1/2 100/1/2
f 100/1/2 98/1/2 101/1/2
f 99/3/2 100/3/2 104/3/2
f 104/3/2 100/3/2 105/3/2
f 101/10/2 102/10/2 106/10/2
f 106/10/2 102/10/2 107/10/2
f 103/13/2 104/13/2 109/13/2
f 109/13/2 104/13/2 110/13/2
f 107/12/2 108/12/2 113/12/2
f 113/12/2 108/12/2 114/12/2
f 110/25/2 111/25/2 115/25/2
f 115/25/2 111/25/2 116/25/2
f 112/25/2 113/25/2 117/25/2
f 117/25/2 113/25/2 118/25/2
f 116/25/2 117/25/2 119/25/2
f 119/25/2 117/25/2 120/25/2
f 121/7/2 122/7/2 124/7/2
f 124/7/2 122/7/2 125/7/2
f 123/17/2 124/17/2 127/17/2
f 124/11/2 125/11/2 128/11/2
f 127/17/2 124/17/2 128/17/2
f 125/23/2 126/23/2 129/23/2
f 128/11/2 125/11/2 129/11/2
f 129/23/2 126/23/2 130/23/2
f 128/25/2 129/25/2 131/25/2
f 131/25/2 129/25/2 132/25/2
f 136/11/3 134/11/3 133/11/3
f 137/11/3 134/11/3 136/11/3
f 139/5/3 136/5/3 135/5/3
f 140/12/3 137/12/3 136/12/3
f 140/5/3 136/5/3 139/5/3
f 141/25/3 138/25/3 137/25/3
f 141/12/3 137/12/3 140/12/3
f 142/25/3 138/25/3 141/25/3
f 143/13/3 141/13/3 140/13/3
f 144/13/3 141/13/3 143/13/3
f 148/14/3 146/14/3 145/14/3
f 149/14/3 146/14/3 148/14/3
f 152/6/3 148/6/3 147/6/3
f 153/6/3 148/6/3 152/6/3
f 154/25/3 150/25/3 149/25/3
f 155/25/3 150/25/3 154/25/3
f 157/1/3 152/1/3 151/1/3
f 158/1/3 152/1/3 157/1/3
f 161/25/3 156/25/3 155/25/3
f 162/25/3 156/25/3 161/25/3
f 163/3/3 159/3/3 158/3/3
f 164/3/3 159/3/3 163/3/3
f 165/25/3 161/25/3 160/25/3
f 166/25/3 161/25/3 165/25/3
f 167/17/3 165/17/3 164/17/3
f 168/17/3 165/17/3 167/17/3
f 174/8/3 170/8/3 169/8/3
f 175/8/3 170/8/3 174/8/3
f 176/25/3 172/25/3 171/25/3
f 177/25/3 172/25/3 176/25/3
f 179/2/3 174/2/3 173/2/3
f 180/2/3 174/2/3 179/2/3
f 181/25/3 178/25/3 177/25/3
f 182/25/3 178/25/3 181/25/3
f 187/27/3 183/27/3 182/27/3
f 188/27/3 183/27/3 187/27/3
f 189/1/3 185/1/3 184/1/3
f 190/1/3 185/1/3 189/1/3
f 193/25/3 187/25/3 186/25/3
f 194/25/3 187/25/3 193/25/3
f 195/7/3 191/7/3 190/7/3
f 196/7/3 191/7/3 195/7/3
f 197/25/3 193/25/3 192/25/3
f 198/25/3 193/25/3 197/25/3
f 199/8/4 200/8/4 204/8/4
f 204/8/4 200/8/4 205/8/4
f 201/25/4 202/25/4 206/25/4
f 206/25/4 202/25/4 207/25/4
f 203/2/4 204/2/4 209/2/4
f 209/2/4 204/2/4 210/2/4
f 207/25/4 208/25/4 211/25/4
f 211/25/4 208/25/4 212/25/4
f 212/27/4 213/27/4 217/27/4
f 217/27/4 213/27/4 218/27/4
f 214/1/4 215/1/4 219/1/4
f 219/1/4 215/1/4 220/1/4
f 216/25/4 217/25/4 223/25/4
f 223/25/4 217/25/4 224/25/4
f 220/7/4 221/7/4 225/7/4
f 225/7/4 221/7/4 226/7/4
f 222/25/4 223/25/4 227/25/4
f 227/25/4 223/25/4 228/25/4
f 229/12/4 230/12/4 232/12/4
f 232/12/4 230/12/4 233/12/4
f 231/1/4 232/1/4 236/1/4
f 236/1/4 232/1/4 237/1/4
f 233/25/4 234/25/4 238/25/4
f 238/25/4 234/25/4 239/25/4
f 235/4/4 236/4/4 241/4/4
f 241/4/4 236/4/4 242/4/4
f 239/25/4 240/25/4 245/25/4
f 245/25/4 240/25/4 246/25/4
f 242/10/4 243/10/4 247/10/4
f 247/10/4 243/10/4 248/10/4
f 244/25/4 245/25/4 249/25/4
f 249/25/4 245/25/4 250/25/4
f 248/23/4 249/23/4 251/23/4
f 251/23/4 249/23/4 252/23/4
f 253/24/4 254/24/4 256/24/4
f 256/24/4 254/24/4 257/24/4
f 255/7/4 256/7/4 259/7/4
f 256/11/4 257/11/4 260/11/4
f 259/7/4 256/7/4 260/7/4
f 257/25/4 258/25/4 261/25/4
f 260/11/4 257/11/4 261/11/4
f 261/25/4 258/25/4 262/25/4
f 260/12/4 261/12/4 263/12/4
f 263/12/4 261/12/4 264/12/4
f 268/1/5 266/1/5 265/1/5
f 269/1/5 266/1/5 268/1/5
f 271/2/5 268/2/5 267/2/5
f 272/3/5 269/3/5 268/3/5
f 272/2/5 268/2/5 271/2/5
f 273/1/5 270/1/5 269/1/5
f 273/3/5 269/3/5 272/3/5
f 274/1/5 270/1/5 273/1/5
f 275/4/5 273/4/5 272/4/5
f 276/4/5 273/4/5 275/4/5
f 280/5/5 278/5/5 277/5/5
f 281/5/5 278/5/5 280/5/5
f 284/6/5 280/6/5 279/6/5
f 285/6/5 280/6/5 284/6/5
f 286/3/5 282/3/5 281/3/5
f 287/3/5 282/3/5 286/3/5
f 289/8/5 284/8/5 283/8/5
f 290/8/5 284/8/5 289/8/5
f 293/7/5 288/7/5 287/7/5
f 294/7/5 288/7/5 293/7/5
f 295/1/5 291/1/5 290/1/5
f 296/1/5 291/1/5 295/1/5
f 297/10/5 293/10/5 292/10/5
f 298/10/5 293/10/5 297/10/5
f 299/7/5 297/7/5 296/7/5
f 300/7/5 297/7/5 299/7/5
f 306/11/5 302/11/5 301/11/5
f 307/11/5 302/11/5 306/11/5
f 308/13/5 304/13/5 303/13/5
f 309/13/5 304/13/5 308/13/5
f 311/14/5 306/14/5 305/14/5
f 312/14/5 306/14/5 311/14/5
f 313/17/5 310/17/5 309/17/5
f 314/17/5 310/17/5 313/17/5
f 319/12/5 316/12/5 315/12/5
f 320/12/5 316/12/5 319/12/5
f 323/23/5 318/23/5 317/23/5
f 324/23/5 318/23/5 323/23/5
f 325/24/5 321/24/5 320/24/5
f 326/24/5 321/24/5 325/24/5
f 327/12/5 323/12/5 322/12/5
f 328/12/5 323/12/5 327/12/5
f 329/11/6 330/11/6 334/11/6
f 334/11/6 330/11/6 335/11/6
f 331/13/6 332/13/6 336/13/6
f 336/13/6 332/13/6 337/13/6
f 333/14/6 334/14/6 339/14/6
f 339/14/6 334/14/6 340/14/6
f 337/17/6 338/17/6 341/17/6
f 341/17/6 338/17/6 342/17/6
f 343/12/6 344/12/6 347/12/6
f 347/12/6 344/12/6 348/12/6
f 345/23/6 346/23/6 351/23/6
f 351/23/6 346/23/6 352/23/6
f 348/24/6 349/24/6 353/24/6
f 353/24/6 349/24/6 354/24/6
f 350/12/6 351/12/6 355/12/6
f 355/12/6 351/12/6 356/12/6
f 357/25/6 358/25/6 360/25/6
f 360/25/6 358/25/6 361/25/6
f 359/25/6 360/25/6 364/25/6
f 364/25/6 360/25/6 365/25/6
f 361/25/6 362/25/6 366/25/6
f 366/25/6 362/25/6 367/25/6
f 363/25/6 364/25/6 369/25/6
f 369/25/6 364/25/6 370/25/6
f 367/25/6 368/25/6 373/25/6
f 373/25/6 368/25/6 374/25/6
f 370/25/6 371/25/6 375/25/6
f 375/25/6 371/25/6 376/25/6
f 372/25/6 373/25/6 377/25/6
f 377/25/6 373/25/6 378/25/6
f 376/25/6 377/25/6 379/25/6
f 379/25/6 377/25/6 380/25/6
f 381/25/6 382/25/6 384/25/6
f 384/25/6 382/25/6 385/25/6
f 383/25/6 384/25/6 387/25/6
f 387/25/6 384/25/6 388/25/6
f 385/25/6 386/25/6 389/25/6
f 389/25/6 386/25/6 390/25/6
f 388/25/6 389/25/6 391/25/6
f 391/25/6 389/25/6 392/25/6
f 393/27/6 394/27/6 395/27/6
f 395/27/6 394/27/6 396/27/6
