# MagicaVoxel @ ephtracy

# material
mtllib bob_apple.mtl
usemtl palette

# normals
vn -1 0 0
vn 1 0 0
vn 0 0 1
vn 0 0 -1
vn 0 -1 0
vn 0 1 0

# texcoords
vt 0.00195313 0.5
vt 0.00585938 0.5
vt 0.00976563 0.5
vt 0.0136719 0.5
vt 0.0175781 0.5
vt 0.0214844 0.5
vt 0.0253906 0.5
vt 0.0292969 0.5
vt 0.0332031 0.5
vt 0.0371094 0.5
vt 0.0410156 0.5
vt 0.0449219 0.5
vt 0.0488281 0.5
vt 0.0527344 0.5
vt 0.0566406 0.5
vt 0.0605469 0.5
vt 0.0644531 0.5
vt 0.0683594 0.5
vt 0.0722656 0.5
vt 0.0761719 0.5
vt 0.0800781 0.5
vt 0.0839844 0.5
vt 0.0878906 0.5
vt 0.0917969 0.5
vt 0.0957031 0.5
vt 0.0996094 0.5
vt 0.103516 0.5
vt 0.107422 0.5
vt 0.111328 0.5
vt 0.115234 0.5
vt 0.119141 0.5
vt 0.123047 0.5

# verts
v -4.5 1 0.5
v -4.5 1 -0.5
v -4.5 2 1.5
v -4.5 2 0.5
v -4.5 2 -0.5
v -4.5 2 -1.5
v -4.5 3 1.5
v -4.5 3 0.5
v -4.5 3 -0.5
v -4.5 3 -1.5
v -4.5 4 0.5
v -4.5 4 -0.5
v -3.5 0 0.5
v -3.5 0 -0.5
v -3.5 1 1.5
v -3.5 1 0.5
v -3.5 1 -0.5
v -3.5 1 -1.5
v -3.5 2 2.5
v -3.5 2 1.5
v -3.5 2 0.5
v -3.5 2 -0.5
v -3.5 2 -1.5
v -3.5 2 -2.5
v -3.5 3 2.5
v -3.5 3 1.5
v -3.5 3 0.5
v -3.5 3 -0.5
v -3.5 3 -1.5
v -3.5 3 -2.5
v -3.5 4 1.5
v -3.5 4 0.5
v -3.5 4 -0.5
v -3.5 4 -1.5
v -3.5 5 0.5
v -3.5 5 -0.5
v -2.5 0 1.5
v -2.5 0 0.5
v -2.5 0 -0.5
v -2.5 0 -1.5
v -2.5 1 2.5
v -2.5 1 1.5
v -2.5 1 0.5
v -2.5 1 -0.5
v -2.5 1 -1.5
v -2.5 1 -2.5
v -2.5 2 2.5
v -2.5 2 1.5
v -2.5 2 -1.5
v -2.5 2 -2.5
v -2.5 3 2.5
v -2.5 3 1.5
v -2.5 3 -1.5
v -2.5 3 -2.5
v -2.5 4 2.5
v -2.5 4 1.5
v -2.5 4 0.5
v -2.5 4 -0.5
v -2.5 4 -1.5
v -2.5 4 -2.5
v -2.5 5 1.5
v -2.5 5 0.5
v -2.5 5 -0.5
v -2.5 5 -1.5
v -2.5 6 0.5
v -2.5 6 -0.5
v -1.5 0 1.5
v -1.5 0 0.5
v -1.5 0 -0.5
v -1.5 0 -1.5
v -1.5 1 2.5
v -1.5 1 1.5
v -1.5 1 0.5
v -1.5 1 -0.5
v -1.5 1 -1.5
v -1.5 1 -2.5
v -1.5 2 2.5
v -1.5 2 1.5
v -1.5 2 -1.5
v -1.5 2 -2.5
v -1.5 3 2.5
v -1.5 3 1.5
v -1.5 3 -1.5
v -1.5 3 -2.5
v -1.5 4 2.5
v -1.5 4 1.5
v -1.5 4 0.5
v -1.5 4 -0.5
v -1.5 4 -1.5
v -1.5 4 -2.5
v -1.5 5 1.5
v -1.5 5 0.5
v -1.5 5 -0.5
v -1.5 5 -1.5
v -1.5 6 0.5
v -1.5 6 -0.5
v -0.5 0 0.5
v -0.5 0 -0.5
v -0.5 1 1.5
v -0.5 1 0.5
v -0.5 1 -0.5
v -0.5 1 -1.5
v -0.5 2 2.5
v -0.5 2 1.5
v -0.5 2 0.5
v -0.5 2 -0.5
v -0.5 2 -1.5
v -0.5 2 -2.5
v -0.5 3 2.5
v -0.5 3 1.5
v -0.5 3 0.5
v -0.5 3 -0.5
v -0.5 3 -1.5
v -0.5 3 -2.5
v -0.5 4 1.5
v -0.5 4 0.5
v -0.5 4 -0.5
v -0.5 4 -1.5
v -0.5 5 0.5
v -0.5 5 -0.5
v 0.5 1 0.5
v 0.5 1 -0.5
v 0.5 2 1.5
v 0.5 2 0.5
v 0.5 2 -0.5
v 0.5 2 -1.5
v 0.5 3 1.5
v 0.5 3 0.5
v 0.5 3 -0.5
v 0.5 3 -1.5
v 0.5 4 0.5
v 0.5 4 -0.5
v -3.5 2 2.5
v -3.5 3 2.5
v -2.5 1 2.5
v -2.5 2 2.5
v -2.5 3 2.5
v -2.5 4 2.5
v -1.5 1 2.5
v -1.5 2 2.5
v -1.5 3 2.5
v -1.5 4 2.5
v -0.5 2 2.5
v -0.5 3 2.5
v -4.5 2 1.5
v -4.5 3 1.5
v -3.5 1 1.5
v -3.5 2 1.5
v -3.5 3 1.5
v -3.5 4 1.5
v -2.5 0 1.5
v -2.5 1 1.5
v -2.5 2 1.5
v -2.5 3 1.5
v -2.5 4 1.5
v -2.5 5 1.5
v -1.5 0 1.5
v -1.5 1 1.5
v -1.5 2 1.5
v -1.5 3 1.5
v -1.5 4 1.5
v -1.5 5 1.5
v -0.5 1 1.5
v -0.5 2 1.5
v -0.5 3 1.5
v -0.5 4 1.5
v 0.5 2 1.5
v 0.5 3 1.5
v -4.5 1 0.5
v -4.5 2 0.5
v -4.5 3 0.5
v -4.5 4 0.5
v -3.5 0 0.5
v -3.5 1 0.5
v -3.5 2 0.5
v -3.5 3 0.5
v -3.5 4 0.5
v -3.5 5 0.5
v -2.5 0 0.5
v -2.5 1 0.5
v -2.5 4 0.5
v -2.5 5 0.5
v -2.5 6 0.5
v -1.5 0 0.5
v -1.5 1 0.5
v -1.5 4 0.5
v -1.5 5 0.5
v -1.5 6 0.5
v -0.5 0 0.5
v -0.5 1 0.5
v -0.5 2 0.5
v -0.5 3 0.5
v -0.5 4 0.5
v -0.5 5 0.5
v 0.5 1 0.5
v 0.5 2 0.5
v 0.5 3 0.5
v 0.5 4 0.5
v -4.5 1 -0.5
v -4.5 2 -0.5
v -4.5 3 -0.5
v -4.5 4 -0.5
v -3.5 0 -0.5
v -3.5 1 -0.5
v -3.5 2 -0.5
v -3.5 3 -0.5
v -3.5 4 -0.5
v -3.5 5 -0.5
v -2.5 0 -0.5
v -2.5 1 -0.5
v -2.5 4 -0.5
v -2.5 5 -0.5
v -2.5 6 -0.5
v -1.5 0 -0.5
v -1.5 1 -0.5
v -1.5 4 -0.5
v -1.5 5 -0.5
v -1.5 6 -0.5
v -0.5 0 -0.5
v -0.5 1 -0.5
v -0.5 2 -0.5
v -0.5 3 -0.5
v -0.5 4 -0.5
v -0.5 5 -0.5
v 0.5 1 -0.5
v 0.5 2 -0.5
v 0.5 3 -0.5
v 0.5 4 -0.5
v -4.5 2 -1.5
v -4.5 3 -1.5
v -3.5 1 -1.5
v -3.5 2 -1.5
v -3.5 3 -1.5
v -3.5 4 -1.5
v -2.5 0 -1.5
v -2.5 1 -1.5
v -2.5 2 -1.5
v -2.5 3 -1.5
v -2.5 4 -1.5
v -2.5 5 -1.5
v -1.5 0 -1.5
v -1.5 1 -1.5
v -1.5 2 -1.5
v -1.5 3 -1.5
v -1.5 4 -1.5
v -1.5 5 -1.5
v -0.5 1 -1.5
v -0.5 2 -1.5
v -0.5 3 -1.5
v -0.5 4 -1.5
v 0.5 2 -1.5
v 0.5 3 -1.5
v -3.5 2 -2.5
v -3.5 3 -2.5
v -2.5 1 -2.5
v -2.5 2 -2.5
v -2.5 3 -2.5
v -2.5 4 -2.5
v -1.5 1 -2.5
v -1.5 2 -2.5
v -1.5 3 -2.5
v -1.5 4 -2.5
v -0.5 2 -2.5
v -0.5 3 -2.5
v -2.5 0 1.5
v -1.5 0 1.5
v -3.5 0 0.5
v -2.5 0 0.5
v -1.5 0 0.5
v -0.5 0 0.5
v -3.5 0 -0.5
v -2.5 0 -0.5
v -1.5 0 -0.5
v -0.5 0 -0.5
v -2.5 0 -1.5
v -1.5 0 -1.5
v -2.5 1 2.5
v -1.5 1 2.5
v -3.5 1 1.5
v -2.5 1 1.5
v -1.5 1 1.5
v -0.5 1 1.5
v -4.5 1 0.5
v -3.5 1 0.5
v -2.5 1 0.5
v -1.5 1 0.5
v -0.5 1 0.5
v 0.5 1 0.5
v -4.5 1 -0.5
v -3.5 1 -0.5
v -2.5 1 -0.5
v -1.5 1 -0.5
v -0.5 1 -0.5
v 0.5 1 -0.5
v -3.5 1 -1.5
v -2.5 1 -1.5
v -1.5 1 -1.5
v -0.5 1 -1.5
v -2.5 1 -2.5
v -1.5 1 -2.5
v -3.5 2 2.5
v -2.5 2 2.5
v -1.5 2 2.5
v -0.5 2 2.5
v -4.5 2 1.5
v -3.5 2 1.5
v -2.5 2 1.5
v -1.5 2 1.5
v -0.5 2 1.5
v 0.5 2 1.5
v -4.5 2 0.5
v -3.5 2 0.5
v -0.5 2 0.5
v 0.5 2 0.5
v -4.5 2 -0.5
v -3.5 2 -0.5
v -0.5 2 -0.5
v 0.5 2 -0.5
v -4.5 2 -1.5
v -3.5 2 -1.5
v -2.5 2 -1.5
v -1.5 2 -1.5
v -0.5 2 -1.5
v 0.5 2 -1.5
v -3.5 2 -2.5
v -2.5 2 -2.5
v -1.5 2 -2.5
v -0.5 2 -2.5
v -3.5 3 2.5
v -2.5 3 2.5
v -1.5 3 2.5
v -0.5 3 2.5
v -4.5 3 1.5
v -3.5 3 1.5
v -2.5 3 1.5
v -1.5 3 1.5
v -0.5 3 1.5
v 0.5 3 1.5
v -4.5 3 0.5
v -3.5 3 0.5
v -0.5 3 0.5
v 0.5 3 0.5
v -4.5 3 -0.5
v -3.5 3 -0.5
v -0.5 3 -0.5
v 0.5 3 -0.5
v -4.5 3 -1.5
v -3.5 3 -1.5
v -2.5 3 -1.5
v -1.5 3 -1.5
v -0.5 3 -1.5
v 0.5 3 -1.5
v -3.5 3 -2.5
v -2.5 3 -2.5
v -1.5 3 -2.5
v -0.5 3 -2.5
v -2.5 4 2.5
v -1.5 4 2.5
v -3.5 4 1.5
v -2.5 4 1.5
v -1.5 4 1.5
v -0.5 4 1.5
v -4.5 4 0.5
v -3.5 4 0.5
v -2.5 4 0.5
v -1.5 4 0.5
v -0.5 4 0.5
v 0.5 4 0.5
v -4.5 4 -0.5
v -3.5 4 -0.5
v -2.5 4 -0.5
v -1.5 4 -0.5
v -0.5 4 -0.5
v 0.5 4 -0.5
v -3.5 4 -1.5
v -2.5 4 -1.5
v -1.5 4 -1.5
v -0.5 4 -1.5
v -2.5 4 -2.5
v -1.5 4 -2.5
v -2.5 5 1.5
v -1.5 5 1.5
v -3.5 5 0.5
v -2.5 5 0.5
v -1.5 5 0.5
v -0.5 5 0.5
v -3.5 5 -0.5
v -2.5 5 -0.5
v -1.5 5 -0.5
v -0.5 5 -0.5
v -2.5 5 -1.5
v -1.5 5 -1.5
v -2.5 6 0.5
v -1.5 6 0.5
v -2.5 6 -0.5
v -1.5 6 -0.5

# faces
f 4/9/1 2/9/1 1/9/1
f 5/9/1 2/9/1 4/9/1
f 7/14/1 4/14/1 3/14/1
f 8/18/1 5/18/1 4/18/1
f 8/14/1 4/14/1 7/14/1
f 9/9/1 6/9/1 5/9/1
f 9/18/1 5/18/1 8/18/1
f 10/9/1 6/9/1 9/9/1
f 11/1/1 9/1/1 8/1/1
f 12/1/1 9/1/1 11/1/1
f 16/2/1 14/2/1 13/2/1
f 17/2/1 14/2/1 16/2/1
f 20/7/1 16/7/1 15/7/1
f 21/7/1 16/7/1 20/7/1
f 22/1/1 18/1/1 17/1/1
f 23/1/1 18/1/1 22/1/1
f 25/12/1 20/12/1 19/12/1
f 26/12/1 20/12/1 25/12/1
f 29/21/1 24/21/1 23/21/1
f 30/21/1 24/21/1 29/21/1
f 31/24/1 27/24/1 26/24/1
f 32/24/1 27/24/1 31/24/1
f 33/8/1 29/8/1 28/8/1
f 34/8/1 29/8/1 33/8/1
f 35/29/1 33/29/1 32/29/1
f 36/29/1 33/29/1 35/29/1
f 42/1/1 38/1/1 37/1/1
f 43/1/1 38/1/1 42/1/1
f 44/5/1 40/5/1 39/5/1
f 45/5/1 40/5/1 44/5/1
f 47/6/1 42/6/1 41/6/1
f 48/6/1 42/6/1 47/6/1
f 49/13/1 46/13/1 45/13/1
f 50/13/1 46/13/1 49/13/1
f 55/4/1 52/4/1 51/4/1
f 56/4/1 52/4/1 55/4/1
f 59/27/1 54/27/1 53/27/1
f 60/27/1 54/27/1 59/27/1
f 61/28/1 57/28/1 56/28/1
f 62/28/1 57/28/1 61/28/1
f 63/31/1 59/31/1 58/31/1
f 64/31/1 59/31/1 63/31/1
f 65/32/1 63/32/1 62/32/1
f 66/32/1 63/32/1 65/32/1
f 67/1/2 68/1/2 72/1/2
f 72/1/2 68/1/2 73/1/2
f 69/5/2 70/5/2 74/5/2
f 74/5/2 70/5/2 75/5/2
f 71/6/2 72/6/2 77/6/2
f 77/6/2 72/6/2 78/6/2
f 75/13/2 76/13/2 79/13/2
f 79/13/2 76/13/2 80/13/2
f 81/4/2 82/4/2 85/4/2
f 85/4/2 82/4/2 86/4/2
f 83/27/2 84/27/2 89/27/2
f 89/27/2 84/27/2 90/27/2
f 86/28/2 87/28/2 91/28/2
f 91/28/2 87/28/2 92/28/2
f 88/31/2 89/31/2 93/31/2
f 93/31/2 89/31/2 94/31/2
f 92/32/2 93/32/2 95/32/2
f 95/32/2 93/32/2 96/32/2
f 97/4/2 98/4/2 100/4/2
f 100/4/2 98/4/2 101/4/2
f 99/4/2 100/4/2 104/4/2
f 104/4/2 100/4/2 105/4/2
f 101/12/2 102/12/2 106/12/2
f 106/12/2 102/12/2 107/12/2
f 103/4/2 104/4/2 109/4/2
f 109/4/2 104/4/2 110/4/2
f 107/23/2 108/23/2 113/23/2
f 113/23/2 108/23/2 114/23/2
f 110/4/2 111/4/2 115/4/2
f 115/4/2 111/4/2 116/4/2
f 112/26/2 113/26/2 117/26/2
f 117/26/2 113/26/2 118/26/2
f 116/17/2 117/17/2 119/17/2
f 119/17/2 117/17/2 120/17/2
f 121/4/2 122/4/2 124/4/2
f 124/4/2 122/4/2 125/4/2
f 123/4/2 124/4/2 127/4/2
f 124/4/2 125/4/2 127/4/2
f 127/4/2 125/4/2 128/4/2
f 125/20/2 126/20/2 129/20/2
f 128/4/2 125/4/2 129/4/2
f 129/20/2 126/20/2 130/20/2
f 128/7/2 129/7/2 131/7/2
f 131/7/2 129/7/2 132/7/2
f 136/12/3 134/12/3 133/12/3
f 137/12/3 134/12/3 136/12/3
f 139/6/3 136/6/3 135/6/3
f 140/12/3 137/12/3 136/12/3
f 140/6/3 136/6/3 139/6/3
f 141/4/3 138/4/3 137/4/3
f 141/12/3 137/12/3 140/12/3
f 142/4/3 138/4/3 141/4/3
f 143/4/3 141/4/3 140/4/3
f 144/4/3 141/4/3 143/4/3
f 148/14/3 146/14/3 145/14/3
f 149/14/3 146/14/3 148/14/3
f 152/7/3 148/7/3 147/7/3
f 153/7/3 148/7/3 152/7/3
f 154/24/3 150/24/3 149/24/3
f 155/24/3 150/24/3 154/24/3
f 157/1/3 152/1/3 151/1/3
f 158/1/3 152/1/3 157/1/3
f 161/28/3 156/28/3 155/28/3
f 162/28/3 156/28/3 161/28/3
f 163/4/3 159/4/3 158/4/3
f 164/4/3 159/4/3 163/4/3
f 165/4/3 161/4/3 160/4/3
f 166/4/3 161/4/3 165/4/3
f 167/4/3 165/4/3 164/4/3
f 168/4/3 165/4/3 167/4/3
f 174/9/3 170/9/3 169/9/3
f 175/9/3 170/9/3 174/9/3
f 176/1/3 172/1/3 171/1/3
f 177/1/3 172/1/3 176/1/3
f 179/2/3 174/2/3 173/2/3
f 180/2/3 174/2/3 179/2/3
f 181/29/3 178/29/3 177/29/3
f 182/29/3 178/29/3 181/29/3
f 187/32/3 183/32/3 182/32/3
f 188/32/3 183/32/3 187/32/3
f 189/4/3 185/4/3 184/4/3
f 190/4/3 185/4/3 189/4/3
f 193/17/3 187/17/3 186/17/3
f 194/17/3 187/17/3 193/17/3
f 195/4/3 191/4/3 190/4/3
f 196/4/3 191/4/3 195/4/3
f 197/7/3 193/7/3 192/7/3
f 198/7/3 193/7/3 197/7/3
f 199/9/4 200/9/4 204/9/4
f 204/9/4 200/9/4 205/9/4
f 201/1/4 202/1/4 206/1/4
f 206/1/4 202/1/4 207/1/4
f 203/2/4 204/2/4 209/2/4
f 209/2/4 204/2/4 210/2/4
f 207/29/4 208/29/4 211/29/4
f 211/29/4 208/29/4 212/29/4
f 212/32/4 213/32/4 217/32/4
f 217/32/4 213/32/4 218/32/4
f 214/4/4 215/4/4 219/4/4
f 219/4/4 215/4/4 220/4/4
f 216/17/4 217/17/4 223/17/4
f 223/17/4 217/17/4 224/17/4
f 220/4/4 221/4/4 225/4/4
f 225/4/4 221/4/4 226/4/4
f 222/7/4 223/7/4 227/7/4
f 227/7/4 223/7/4 228/7/4
f 229/9/4 230/9/4 232/9/4
f 232/9/4 230/9/4 233/9/4
f 231/1/4 232/1/4 236/1/4
f 236/1/4 232/1/4 237/1/4
f 233/8/4 234/8/4 238/8/4
f 238/8/4 234/8/4 239/8/4
f 235/5/4 236/5/4 241/5/4
f 241/5/4 236/5/4 242/5/4
f 239/31/4 240/31/4 245/31/4
f 245/31/4 240/31/4 246/31/4
f 242/12/4 243/12/4 247/12/4
f 247/12/4 243/12/4 248/12/4
f 244/26/4 245/26/4 249/26/4
f 249/26/4 245/26/4 250/26/4
f 248/20/4 249/20/4 251/20/4
f 251/20/4 249/20/4 252/20/4
f 253/21/4 254/21/4 256/21/4
f 256/21/4 254/21/4 257/21/4
f 255/13/4 256/13/4 259/13/4
f 256/22/4 257/22/4 260/22/4
f 259/13/4 256/13/4 260/13/4
f 257/27/4 258/27/4 261/27/4
f 260/22/4 257/22/4 261/22/4
f 261/27/4 258/27/4 262/27/4
f 260/23/4 261/23/4 263/23/4
f 263/23/4 261/23/4 264/23/4
f 268/1/5 266/1/5 265/1/5
f 269/1/5 266/1/5 268/1/5
f 271/2/5 268/2/5 267/2/5
f 272/3/5 269/3/5 268/3/5
f 272/2/5 268/2/5 271/2/5
f 273/4/5 270/4/5 269/4/5
f 273/3/5 269/3/5 272/3/5
f 274/4/5 270/4/5 273/4/5
f 275/5/5 273/5/5 272/5/5
f 276/5/5 273/5/5 275/5/5
f 280/6/5 278/6/5 277/6/5
f 281/6/5 278/6/5 280/6/5
f 284/7/5 280/7/5 279/7/5
f 285/7/5 280/7/5 284/7/5
f 286/4/5 282/4/5 281/4/5
f 287/4/5 282/4/5 286/4/5
f 289/9/5 284/9/5 283/9/5
f 290/9/5 284/9/5 289/9/5
f 293/4/5 288/4/5 287/4/5
f 294/4/5 288/4/5 293/4/5
f 295/1/5 291/1/5 290/1/5
f 296/1/5 291/1/5 295/1/5
f 297/12/5 293/12/5 292/12/5
f 298/12/5 293/12/5 297/12/5
f 299/13/5 297/13/5 296/13/5
f 300/13/5 297/13/5 299/13/5
f 306/12/5 302/12/5 301/12/5
f 307/12/5 302/12/5 306/12/5
f 308/4/5 304/4/5 303/4/5
f 309/4/5 304/4/5 308/4/5
f 311/14/5 306/14/5 305/14/5
f 312/14/5 306/14/5 311/14/5
f 313/4/5 310/4/5 309/4/5
f 314/4/5 310/4/5 313/4/5
f 319/9/5 316/9/5 315/9/5
f 320/9/5 316/9/5 319/9/5
f 323/20/5 318/20/5 317/20/5
f 324/20/5 318/20/5 323/20/5
f 325/21/5 321/21/5 320/21/5
f 326/21/5 321/21/5 325/21/5
f 327/23/5 323/23/5 322/23/5
f 328/23/5 323/23/5 327/23/5
f 329/12/6 330/12/6 334/12/6
f 334/12/6 330/12/6 335/12/6
f 331/4/6 332/4/6 336/4/6
f 336/4/6 332/4/6 337/4/6
f 333/14/6 334/14/6 339/14/6
f 339/14/6 334/14/6 340/14/6
f 337/4/6 338/4/6 341/4/6
f 341/4/6 338/4/6 342/4/6
f 343/9/6 344/9/6 347/9/6
f 347/9/6 344/9/6 348/9/6
f 345/20/6 346/20/6 351/20/6
f 351/20/6 346/20/6 352/20/6
f 348/21/6 349/21/6 353/21/6
f 353/21/6 349/21/6 354/21/6
f 350/23/6 351/23/6 355/23/6
f 355/23/6 351/23/6 356/23/6
f 357/4/6 358/4/6 360/4/6
f 360/4/6 358/4/6 361/4/6
f 359/24/6 360/24/6 364/24/6
f 364/24/6 360/24/6 365/24/6
f 361/4/6 362/4/6 366/4/6
f 366/4/6 362/4/6 367/4/6
f 363/1/6 364/1/6 369/1/6
f 369/1/6 364/1/6 370/1/6
f 367/7/6 368/7/6 373/7/6
f 373/7/6 368/7/6 374/7/6
f 370/8/6 371/8/6 375/8/6
f 375/8/6 371/8/6 376/8/6
f 372/26/6 373/26/6 377/26/6
f 377/26/6 373/26/6 378/26/6
f 376/27/6 377/27/6 379/27/6
f 379/27/6 377/27/6 380/27/6
f 381/28/6 382/28/6 384/28/6
f 384/28/6 382/28/6 385/28/6
f 383/29/6 384/29/6 387/29/6
f 387/29/6 384/29/6 388/29/6
f 385/17/6 386/17/6 389/17/6
f 389/17/6 386/17/6 390/17/6
f 388/31/6 389/31/6 391/31/6
f 391/31/6 389/31/6 392/31/6
f 393/32/6 394/32/6 395/32/6
f 395/32/6 394/32/6 396/32/6
