# MagicaVoxel @ ephtracy

# material
mtllib bob_thinmint.mtl
usemtl palette

# normals
vn -1 0 0
vn 1 0 0
vn 0 0 1
vn 0 0 -1
vn 0 -1 0
vn 0 1 0

# texcoords
vt 0.00195313 0.5
vt 0.00585938 0.5
vt 0.00976563 0.5
vt 0.0136719 0.5
vt 0.0175781 0.5
vt 0.0214844 0.5
vt 0.0253906 0.5
vt 0.0292969 0.5
vt 0.0332031 0.5
vt 0.0371094 0.5
vt 0.0410156 0.5
vt 0.0449219 0.5
vt 0.0488281 0.5
vt 0.0527344 0.5
vt 0.0566406 0.5
vt 0.0605469 0.5
vt 0.0644531 0.5
vt 0.0683594 0.5
vt 0.0722656 0.5
vt 0.0761719 0.5
vt 0.0800781 0.5
vt 0.0839844 0.5
vt 0.0878906 0.5
vt 0.0917969 0.5
vt 0.0957031 0.5
vt 0.0996094 0.5
vt 0.103516 0.5
vt 0.107422 0.5
vt 0.111328 0.5
vt 0.115234 0.5
vt 0.119141 0.5

# verts
v -4.5 1 0.5
v -4.5 1 -0.5
v -4.5 2 1.5
v -4.5 2 0.5
v -4.5 2 -0.5
v -4.5 2 -1.5
v -4.5 3 1.5
v -4.5 3 0.5
v -4.5 3 -0.5
v -4.5 3 -1.5
v -4.5 4 0.5
v -4.5 4 -0.5
v -3.5 0 0.5
v -3.5 0 -0.5
v -3.5 1 1.5
v -3.5 1 0.5
v -3.5 1 -0.5
v -3.5 1 -1.5
v -3.5 2 2.5
v -3.5 2 1.5
v -3.5 2 0.5
v -3.5 2 -0.5
v -3.5 2 -1.5
v -3.5 2 -2.5
v -3.5 3 2.5
v -3.5 3 1.5
v -3.5 3 0.5
v -3.5 3 -0.5
v -3.5 3 -1.5
v -3.5 3 -2.5
v -3.5 4 1.5
v -3.5 4 0.5
v -3.5 4 -0.5
v -3.5 4 -1.5
v -3.5 5 0.5
v -3.5 5 -0.5
v -2.5 0 1.5
v -2.5 0 0.5
v -2.5 0 -0.5
v -2.5 0 -1.5
v -2.5 1 2.5
v -2.5 1 1.5
v -2.5 1 0.5
v -2.5 1 -0.5
v -2.5 1 -1.5
v -2.5 1 -2.5
v -2.5 2 2.5
v -2.5 2 1.5
v -2.5 2 -1.5
v -2.5 2 -2.5
v -2.5 3 2.5
v -2.5 3 1.5
v -2.5 3 -1.5
v -2.5 3 -2.5
v -2.5 4 2.5
v -2.5 4 1.5
v -2.5 4 0.5
v -2.5 4 -0.5
v -2.5 4 -1.5
v -2.5 4 -2.5
v -2.5 5 1.5
v -2.5 5 0.5
v -2.5 5 -0.5
v -2.5 5 -1.5
v -2.5 6 0.5
v -2.5 6 -0.5
v -1.5 0 1.5
v -1.5 0 0.5
v -1.5 0 -0.5
v -1.5 0 -1.5
v -1.5 1 2.5
v -1.5 1 1.5
v -1.5 1 0.5
v -1.5 1 -0.5
v -1.5 1 -1.5
v -1.5 1 -2.5
v -1.5 2 2.5
v -1.5 2 1.5
v -1.5 2 -1.5
v -1.5 2 -2.5
v -1.5 3 2.5
v -1.5 3 1.5
v -1.5 3 -1.5
v -1.5 3 -2.5
v -1.5 4 2.5
v -1.5 4 1.5
v -1.5 4 0.5
v -1.5 4 -0.5
v -1.5 4 -1.5
v -1.5 4 -2.5
v -1.5 5 1.5
v -1.5 5 0.5
v -1.5 5 -0.5
v -1.5 5 -1.5
v -1.5 6 0.5
v -1.5 6 -0.5
v -0.5 0 0.5
v -0.5 0 -0.5
v -0.5 1 1.5
v -0.5 1 0.5
v -0.5 1 -0.5
v -0.5 1 -1.5
v -0.5 2 2.5
v -0.5 2 1.5
v -0.5 2 0.5
v -0.5 2 -0.5
v -0.5 2 -1.5
v -0.5 2 -2.5
v -0.5 3 2.5
v -0.5 3 1.5
v -0.5 3 0.5
v -0.5 3 -0.5
v -0.5 3 -1.5
v -0.5 3 -2.5
v -0.5 4 1.5
v -0.5 4 0.5
v -0.5 4 -0.5
v -0.5 4 -1.5
v -0.5 5 0.5
v -0.5 5 -0.5
v 0.5 1 0.5
v 0.5 1 -0.5
v 0.5 2 1.5
v 0.5 2 0.5
v 0.5 2 -0.5
v 0.5 2 -1.5
v 0.5 3 1.5
v 0.5 3 0.5
v 0.5 3 -0.5
v 0.5 3 -1.5
v 0.5 4 0.5
v 0.5 4 -0.5
v -3.5 2 2.5
v -3.5 3 2.5
v -2.5 1 2.5
v -2.5 2 2.5
v -2.5 3 2.5
v -2.5 4 2.5
v -1.5 1 2.5
v -1.5 2 2.5
v -1.5 3 2.5
v -1.5 4 2.5
v -0.5 2 2.5
v -0.5 3 2.5
v -4.5 2 1.5
v -4.5 3 1.5
v -3.5 1 1.5
v -3.5 2 1.5
v -3.5 3 1.5
v -3.5 4 1.5
v -2.5 0 1.5
v -2.5 1 1.5
v -2.5 2 1.5
v -2.5 3 1.5
v -2.5 4 1.5
v -2.5 5 1.5
v -1.5 0 1.5
v -1.5 1 1.5
v -1.5 2 1.5
v -1.5 3 1.5
v -1.5 4 1.5
v -1.5 5 1.5
v -0.5 1 1.5
v -0.5 2 1.5
v -0.5 3 1.5
v -0.5 4 1.5
v 0.5 2 1.5
v 0.5 3 1.5
v -4.5 1 0.5
v -4.5 2 0.5
v -4.5 3 0.5
v -4.5 4 0.5
v -3.5 0 0.5
v -3.5 1 0.5
v -3.5 2 0.5
v -3.5 3 0.5
v -3.5 4 0.5
v -3.5 5 0.5
v -2.5 0 0.5
v -2.5 1 0.5
v -2.5 4 0.5
v -2.5 5 0.5
v -2.5 6 0.5
v -1.5 0 0.5
v -1.5 1 0.5
v -1.5 4 0.5
v -1.5 5 0.5
v -1.5 6 0.5
v -0.5 0 0.5
v -0.5 1 0.5
v -0.5 2 0.5
v -0.5 3 0.5
v -0.5 4 0.5
v -0.5 5 0.5
v 0.5 1 0.5
v 0.5 2 0.5
v 0.5 3 0.5
v 0.5 4 0.5
v -4.5 1 -0.5
v -4.5 2 -0.5
v -4.5 3 -0.5
v -4.5 4 -0.5
v -3.5 0 -0.5
v -3.5 1 -0.5
v -3.5 2 -0.5
v -3.5 3 -0.5
v -3.5 4 -0.5
v -3.5 5 -0.5
v -2.5 0 -0.5
v -2.5 1 -0.5
v -2.5 4 -0.5
v -2.5 5 -0.5
v -2.5 6 -0.5
v -1.5 0 -0.5
v -1.5 1 -0.5
v -1.5 4 -0.5
v -1.5 5 -0.5
v -1.5 6 -0.5
v -0.5 0 -0.5
v -0.5 1 -0.5
v -0.5 2 -0.5
v -0.5 3 -0.5
v -0.5 4 -0.5
v -0.5 5 -0.5
v 0.5 1 -0.5
v 0.5 2 -0.5
v 0.5 3 -0.5
v 0.5 4 -0.5
v -4.5 2 -1.5
v -4.5 3 -1.5
v -3.5 1 -1.5
v -3.5 2 -1.5
v -3.5 3 -1.5
v -3.5 4 -1.5
v -2.5 0 -1.5
v -2.5 1 -1.5
v -2.5 2 -1.5
v -2.5 3 -1.5
v -2.5 4 -1.5
v -2.5 5 -1.5
v -1.5 0 -1.5
v -1.5 1 -1.5
v -1.5 2 -1.5
v -1.5 3 -1.5
v -1.5 4 -1.5
v -1.5 5 -1.5
v -0.5 1 -1.5
v -0.5 2 -1.5
v -0.5 3 -1.5
v -0.5 4 -1.5
v 0.5 2 -1.5
v 0.5 3 -1.5
v -3.5 2 -2.5
v -3.5 3 -2.5
v -2.5 1 -2.5
v -2.5 2 -2.5
v -2.5 3 -2.5
v -2.5 4 -2.5
v -1.5 1 -2.5
v -1.5 2 -2.5
v -1.5 3 -2.5
v -1.5 4 -2.5
v -0.5 2 -2.5
v -0.5 3 -2.5
v -2.5 0 1.5
v -1.5 0 1.5
v -3.5 0 0.5
v -2.5 0 0.5
v -1.5 0 0.5
v -0.5 0 0.5
v -3.5 0 -0.5
v -2.5 0 -0.5
v -1.5 0 -0.5
v -0.5 0 -0.5
v -2.5 0 -1.5
v -1.5 0 -1.5
v -2.5 1 2.5
v -1.5 1 2.5
v -3.5 1 1.5
v -2.5 1 1.5
v -1.5 1 1.5
v -0.5 1 1.5
v -4.5 1 0.5
v -3.5 1 0.5
v -2.5 1 0.5
v -1.5 1 0.5
v -0.5 1 0.5
v 0.5 1 0.5
v -4.5 1 -0.5
v -3.5 1 -0.5
v -2.5 1 -0.5
v -1.5 1 -0.5
v -0.5 1 -0.5
v 0.5 1 -0.5
v -3.5 1 -1.5
v -2.5 1 -1.5
v -1.5 1 -1.5
v -0.5 1 -1.5
v -2.5 1 -2.5
v -1.5 1 -2.5
v -3.5 2 2.5
v -2.5 2 2.5
v -1.5 2 2.5
v -0.5 2 2.5
v -4.5 2 1.5
v -3.5 2 1.5
v -2.5 2 1.5
v -1.5 2 1.5
v -0.5 2 1.5
v 0.5 2 1.5
v -4.5 2 0.5
v -3.5 2 0.5
v -0.5 2 0.5
v 0.5 2 0.5
v -4.5 2 -0.5
v -3.5 2 -0.5
v -0.5 2 -0.5
v 0.5 2 -0.5
v -4.5 2 -1.5
v -3.5 2 -1.5
v -2.5 2 -1.5
v -1.5 2 -1.5
v -0.5 2 -1.5
v 0.5 2 -1.5
v -3.5 2 -2.5
v -2.5 2 -2.5
v -1.5 2 -2.5
v -0.5 2 -2.5
v -3.5 3 2.5
v -2.5 3 2.5
v -1.5 3 2.5
v -0.5 3 2.5
v -4.5 3 1.5
v -3.5 3 1.5
v -2.5 3 1.5
v -1.5 3 1.5
v -0.5 3 1.5
v 0.5 3 1.5
v -4.5 3 0.5
v -3.5 3 0.5
v -0.5 3 0.5
v 0.5 3 0.5
v -4.5 3 -0.5
v -3.5 3 -0.5
v -0.5 3 -0.5
v 0.5 3 -0.5
v -4.5 3 -1.5
v -3.5 3 -1.5
v -2.5 3 -1.5
v -1.5 3 -1.5
v -0.5 3 -1.5
v 0.5 3 -1.5
v -3.5 3 -2.5
v -2.5 3 -2.5
v -1.5 3 -2.5
v -0.5 3 -2.5
v -2.5 4 2.5
v -1.5 4 2.5
v -3.5 4 1.5
v -2.5 4 1.5
v -1.5 4 1.5
v -0.5 4 1.5
v -4.5 4 0.5
v -3.5 4 0.5
v -2.5 4 0.5
v -1.5 4 0.5
v -0.5 4 0.5
v 0.5 4 0.5
v -4.5 4 -0.5
v -3.5 4 -0.5
v -2.5 4 -0.5
v -1.5 4 -0.5
v -0.5 4 -0.5
v 0.5 4 -0.5
v -3.5 4 -1.5
v -2.5 4 -1.5
v -1.5 4 -1.5
v -0.5 4 -1.5
v -2.5 4 -2.5
v -1.5 4 -2.5
v -2.5 5 1.5
v -1.5 5 1.5
v -3.5 5 0.5
v -2.5 5 0.5
v -1.5 5 0.5
v -0.5 5 0.5
v -3.5 5 -0.5
v -2.5 5 -0.5
v -1.5 5 -0.5
v -0.5 5 -0.5
v -2.5 5 -1.5
v -1.5 5 -1.5
v -2.5 6 0.5
v -1.5 6 0.5
v -2.5 6 -0.5
v -1.5 6 -0.5

# faces
f 4/5/1 2/5/1 1/5/1
f 5/5/1 2/5/1 4/5/1
f 7/16/1 4/16/1 3/16/1
f 7/16/1 6/16/1 5/16/1
f 7/16/1 5/16/1 4/16/1
f 8/16/1 6/16/1 7/16/1
f 9/16/1 6/16/1 8/16/1
f 10/16/1 6/16/1 9/16/1
f 11/21/1 9/21/1 8/21/1
f 12/21/1 9/21/1 11/21/1
f 16/2/1 14/2/1 13/2/1
f 17/2/1 14/2/1 16/2/1
f 20/7/1 16/7/1 15/7/1
f 21/7/1 16/7/1 20/7/1
f 22/13/1 18/13/1 17/13/1
f 23/13/1 18/13/1 22/13/1
f 25/16/1 20/16/1 19/16/1
f 26/16/1 20/16/1 25/16/1
f 29/16/1 24/16/1 23/16/1
f 30/16/1 24/16/1 29/16/1
f 31/18/1 27/18/1 26/18/1
f 32/18/1 27/18/1 31/18/1
f 33/26/1 29/26/1 28/26/1
f 34/26/1 29/26/1 33/26/1
f 35/20/1 33/20/1 32/20/1
f 36/20/1 33/20/1 35/20/1
f 42/1/1 38/1/1 37/1/1
f 43/1/1 38/1/1 42/1/1
f 44/5/1 40/5/1 39/5/1
f 45/5/1 40/5/1 44/5/1
f 47/6/1 42/6/1 41/6/1
f 48/6/1 42/6/1 47/6/1
f 49/15/1 46/15/1 45/15/1
f 50/15/1 46/15/1 49/15/1
f 55/17/1 52/17/1 51/17/1
f 56/17/1 52/17/1 55/17/1
f 59/20/1 54/20/1 53/20/1
f 60/20/1 54/20/1 59/20/1
f 61/28/1 57/28/1 56/28/1
f 62/28/1 57/28/1 61/28/1
f 63/31/1 59/31/1 58/31/1
f 64/31/1 59/31/1 63/31/1
f 65/26/1 63/26/1 62/26/1
f 66/26/1 63/26/1 65/26/1
f 67/1/2 68/1/2 72/1/2
f 72/1/2 68/1/2 73/1/2
f 69/5/2 70/5/2 74/5/2
f 74/5/2 70/5/2 75/5/2
f 71/6/2 72/6/2 77/6/2
f 77/6/2 72/6/2 78/6/2
f 75/15/2 76/15/2 79/15/2
f 79/15/2 76/15/2 80/15/2
f 81/17/2 82/17/2 85/17/2
f 85/17/2 82/17/2 86/17/2
f 83/20/2 84/20/2 89/20/2
f 89/20/2 84/20/2 90/20/2
f 86/28/2 87/28/2 91/28/2
f 91/28/2 87/28/2 92/28/2
f 88/31/2 89/31/2 93/31/2
f 93/31/2 89/31/2 94/31/2
f 92/26/2 93/26/2 95/26/2
f 95/26/2 93/26/2 96/26/2
f 97/4/2 98/4/2 100/4/2
f 100/4/2 98/4/2 101/4/2
f 99/9/2 100/9/2 104/9/2
f 104/9/2 100/9/2 105/9/2
f 101/8/2 102/8/2 106/8/2
f 106/8/2 102/8/2 107/8/2
f 103/16/2 104/16/2 109/16/2
f 109/16/2 104/16/2 110/16/2
f 107/16/2 108/16/2 113/16/2
f 113/16/2 108/16/2 114/16/2
f 110/20/2 111/20/2 115/20/2
f 115/20/2 111/20/2 116/20/2
f 112/19/2 113/19/2 117/19/2
f 117/19/2 113/19/2 118/19/2
f 116/30/2 117/30/2 119/30/2
f 119/30/2 117/30/2 120/30/2
f 121/12/2 122/12/2 124/12/2
f 124/12/2 122/12/2 125/12/2
f 123/16/2 124/16/2 127/16/2
f 125/16/2 126/16/2 127/16/2
f 124/16/2 125/16/2 127/16/2
f 127/16/2 126/16/2 128/16/2
f 128/16/2 126/16/2 129/16/2
f 129/16/2 126/16/2 130/16/2
f 128/25/2 129/25/2 131/25/2
f 131/25/2 129/25/2 132/25/2
f 136/16/3 134/16/3 133/16/3
f 137/16/3 134/16/3 136/16/3
f 139/6/3 136/6/3 135/6/3
f 140/16/3 137/16/3 136/16/3
f 140/6/3 136/6/3 139/6/3
f 141/17/3 138/17/3 137/17/3
f 141/16/3 137/16/3 140/16/3
f 142/17/3 138/17/3 141/17/3
f 143/16/3 141/16/3 140/16/3
f 144/16/3 141/16/3 143/16/3
f 148/16/3 146/16/3 145/16/3
f 149/16/3 146/16/3 148/16/3
f 152/7/3 148/7/3 147/7/3
f 153/7/3 148/7/3 152/7/3
f 154/18/3 150/18/3 149/18/3
f 155/18/3 150/18/3 154/18/3
f 157/1/3 152/1/3 151/1/3
f 158/1/3 152/1/3 157/1/3
f 161/28/3 156/28/3 155/28/3
f 162/28/3 156/28/3 161/28/3
f 163/9/3 159/9/3 158/9/3
f 164/9/3 159/9/3 163/9/3
f 165/20/3 161/20/3 160/20/3
f 166/20/3 161/20/3 165/20/3
f 167/16/3 165/16/3 164/16/3
f 168/16/3 165/16/3 167/16/3
f 174/5/3 170/5/3 169/5/3
f 175/5/3 170/5/3 174/5/3
f 176/21/3 172/21/3 171/21/3
f 177/21/3 172/21/3 176/21/3
f 179/2/3 174/2/3 173/2/3
f 180/2/3 174/2/3 179/2/3
f 181/20/3 178/20/3 177/20/3
f 182/20/3 178/20/3 181/20/3
f 187/26/3 183/26/3 182/26/3
f 188/26/3 183/26/3 187/26/3
f 189/4/3 185/4/3 184/4/3
f 190/4/3 185/4/3 189/4/3
f 193/30/3 187/30/3 186/30/3
f 194/30/3 187/30/3 193/30/3
f 195/12/3 191/12/3 190/12/3
f 196/12/3 191/12/3 195/12/3
f 197/25/3 193/25/3 192/25/3
f 198/25/3 193/25/3 197/25/3
f 199/5/4 200/5/4 204/5/4
f 204/5/4 200/5/4 205/5/4
f 201/21/4 202/21/4 206/21/4
f 206/21/4 202/21/4 207/21/4
f 203/2/4 204/2/4 209/2/4
f 209/2/4 204/2/4 210/2/4
f 207/20/4 208/20/4 211/20/4
f 211/20/4 208/20/4 212/20/4
f 212/26/4 213/26/4 217/26/4
f 217/26/4 213/26/4 218/26/4
f 214/4/4 215/4/4 219/4/4
f 219/4/4 215/4/4 220/4/4
f 216/30/4 217/30/4 223/30/4
f 223/30/4 217/30/4 224/30/4
f 220/12/4 221/12/4 225/12/4
f 225/12/4 221/12/4 226/12/4
f 222/25/4 223/25/4 227/25/4
f 227/25/4 223/25/4 228/25/4
f 229/16/4 230/16/4 232/16/4
f 232/16/4 230/16/4 233/16/4
f 231/13/4 232/13/4 236/13/4
f 236/13/4 232/13/4 237/13/4
f 233/26/4 234/26/4 238/26/4
f 238/26/4 234/26/4 239/26/4
f 235/5/4 236/5/4 241/5/4
f 241/5/4 236/5/4 242/5/4
f 239/31/4 240/31/4 245/31/4
f 245/31/4 240/31/4 246/31/4
f 242/8/4 243/8/4 247/8/4
f 247/8/4 243/8/4 248/8/4
f 244/19/4 245/19/4 249/19/4
f 249/19/4 245/19/4 250/19/4
f 248/16/4 249/16/4 251/16/4
f 251/16/4 249/16/4 252/16/4
f 253/16/4 254/16/4 256/16/4
f 256/16/4 254/16/4 257/16/4
f 255/15/4 256/15/4 259/15/4
f 256/16/4 257/16/4 260/16/4
f 259/15/4 256/15/4 260/15/4
f 257/20/4 258/20/4 261/20/4
f 260/16/4 257/16/4 261/16/4
f 261/20/4 258/20/4 262/20/4
f 260/16/4 261/16/4 263/16/4
f 263/16/4 261/16/4 264/16/4
f 268/1/5 266/1/5 265/1/5
f 269/1/5 266/1/5 268/1/5
f 271/2/5 268/2/5 267/2/5
f 272/3/5 269/3/5 268/3/5
f 272/2/5 268/2/5 271/2/5
f 273/4/5 270/4/5 269/4/5
f 273/3/5 269/3/5 272/3/5
f 274/4/5 270/4/5 273/4/5
f 275/5/5 273/5/5 272/5/5
f 276/5/5 273/5/5 275/5/5
f 280/6/5 278/6/5 277/6/5
f 281/6/5 278/6/5 280/6/5
f 284/7/5 280/7/5 279/7/5
f 285/7/5 280/7/5 284/7/5
f 286/9/5 282/9/5 281/9/5
f 287/9/5 282/9/5 286/9/5
f 289/5/5 284/5/5 283/5/5
f 290/5/5 284/5/5 289/5/5
f 293/12/5 288/12/5 287/12/5
f 294/12/5 288/12/5 293/12/5
f 295/13/5 291/13/5 290/13/5
f 296/13/5 291/13/5 295/13/5
f 297/8/5 293/8/5 292/8/5
f 298/8/5 293/8/5 297/8/5
f 299/15/5 297/15/5 296/15/5
f 300/15/5 297/15/5 299/15/5
f 306/16/5 302/16/5 301/16/5
f 307/16/5 302/16/5 306/16/5
f 308/16/5 304/16/5 303/16/5
f 309/16/5 304/16/5 308/16/5
f 311/16/5 306/16/5 305/16/5
f 312/16/5 306/16/5 311/16/5
f 313/16/5 310/16/5 309/16/5
f 314/16/5 310/16/5 313/16/5
f 319/16/5 316/16/5 315/16/5
f 320/16/5 316/16/5 319/16/5
f 323/16/5 318/16/5 317/16/5
f 324/16/5 318/16/5 323/16/5
f 325/16/5 321/16/5 320/16/5
f 326/16/5 321/16/5 325/16/5
f 327/16/5 323/16/5 322/16/5
f 328/16/5 323/16/5 327/16/5
f 329/16/6 330/16/6 334/16/6
f 334/16/6 330/16/6 335/16/6
f 331/16/6 332/16/6 336/16/6
f 336/16/6 332/16/6 337/16/6
f 333/16/6 334/16/6 339/16/6
f 339/16/6 334/16/6 340/16/6
f 337/16/6 338/16/6 341/16/6
f 341/16/6 338/16/6 342/16/6
f 343/16/6 344/16/6 347/16/6
f 347/16/6 344/16/6 348/16/6
f 345/16/6 346/16/6 351/16/6
f 351/16/6 346/16/6 352/16/6
f 348/16/6 349/16/6 353/16/6
f 353/16/6 349/16/6 354/16/6
f 350/16/6 351/16/6 355/16/6
f 355/16/6 351/16/6 356/16/6
f 357/17/6 358/17/6 360/17/6
f 360/17/6 358/17/6 361/17/6
f 359/18/6 360/18/6 364/18/6
f 364/18/6 360/18/6 365/18/6
f 361/20/6 362/20/6 366/20/6
f 366/20/6 362/20/6 367/20/6
f 363/21/6 364/21/6 369/21/6
f 369/21/6 364/21/6 370/21/6
f 367/25/6 368/25/6 373/25/6
f 373/25/6 368/25/6 374/25/6
f 370/26/6 371/26/6 375/26/6
f 375/26/6 371/26/6 376/26/6
f 372/19/6 373/19/6 377/19/6
f 377/19/6 373/19/6 378/19/6
f 376/20/6 377/20/6 379/20/6
f 379/20/6 377/20/6 380/20/6
f 381/28/6 382/28/6 384/28/6
f 384/28/6 382/28/6 385/28/6
f 383/20/6 384/20/6 387/20/6
f 387/20/6 384/20/6 388/20/6
f 385/30/6 386/30/6 389/30/6
f 389/30/6 386/30/6 390/30/6
f 388/31/6 389/31/6 391/31/6
f 391/31/6 389/31/6 392/31/6
f 393/26/6 394/26/6 395/26/6
f 395/26/6 394/26/6 396/26/6
