# MagicaVoxel @ ephtracy

# material
mtllib bob_watermelon.mtl
usemtl palette

# normals
vn -1 0 0
vn 1 0 0
vn 0 0 1
vn 0 0 -1
vn 0 -1 0
vn 0 1 0

# texcoords
vt 0.00195313 0.5
vt 0.00585938 0.5
vt 0.00976563 0.5
vt 0.0136719 0.5
vt 0.0175781 0.5
vt 0.0214844 0.5
vt 0.0253906 0.5
vt 0.0292969 0.5
vt 0.0332031 0.5
vt 0.0371094 0.5
vt 0.0410156 0.5
vt 0.0449219 0.5
vt 0.0488281 0.5
vt 0.0527344 0.5
vt 0.0566406 0.5
vt 0.0605469 0.5
vt 0.0644531 0.5
vt 0.0683594 0.5
vt 0.0722656 0.5
vt 0.0761719 0.5
vt 0.0800781 0.5
vt 0.0839844 0.5

# verts
v -4.5 1 0.5
v -4.5 1 -0.5
v -4.5 2 1.5
v -4.5 2 0.5
v -4.5 2 -0.5
v -4.5 2 -1.5
v -4.5 3 1.5
v -4.5 3 0.5
v -4.5 3 -0.5
v -4.5 3 -1.5
v -4.5 4 0.5
v -4.5 4 -0.5
v -3.5 0 0.5
v -3.5 0 -0.5
v -3.5 1 1.5
v -3.5 1 0.5
v -3.5 1 -0.5
v -3.5 1 -1.5
v -3.5 2 2.5
v -3.5 2 1.5
v -3.5 2 0.5
v -3.5 2 -0.5
v -3.5 2 -1.5
v -3.5 2 -2.5
v -3.5 3 2.5
v -3.5 3 1.5
v -3.5 3 0.5
v -3.5 3 -0.5
v -3.5 3 -1.5
v -3.5 3 -2.5
v -3.5 4 1.5
v -3.5 4 0.5
v -3.5 4 -0.5
v -3.5 4 -1.5
v -3.5 5 0.5
v -3.5 5 -0.5
v -2.5 0 1.5
v -2.5 0 0.5
v -2.5 0 -0.5
v -2.5 0 -1.5
v -2.5 1 2.5
v -2.5 1 1.5
v -2.5 1 0.5
v -2.5 1 -0.5
v -2.5 1 -1.5
v -2.5 1 -2.5
v -2.5 2 2.5
v -2.5 2 1.5
v -2.5 2 -1.5
v -2.5 2 -2.5
v -2.5 3 2.5
v -2.5 3 1.5
v -2.5 3 -1.5
v -2.5 3 -2.5
v -2.5 4 2.5
v -2.5 4 1.5
v -2.5 4 0.5
v -2.5 4 -0.5
v -2.5 4 -1.5
v -2.5 4 -2.5
v -2.5 5 1.5
v -2.5 5 0.5
v -2.5 5 -0.5
v -2.5 5 -1.5
v -2.5 6 0.5
v -2.5 6 -0.5
v -1.5 0 1.5
v -1.5 0 0.5
v -1.5 0 -0.5
v -1.5 0 -1.5
v -1.5 1 2.5
v -1.5 1 1.5
v -1.5 1 0.5
v -1.5 1 -0.5
v -1.5 1 -1.5
v -1.5 1 -2.5
v -1.5 2 2.5
v -1.5 2 1.5
v -1.5 2 -1.5
v -1.5 2 -2.5
v -1.5 3 2.5
v -1.5 3 1.5
v -1.5 3 -1.5
v -1.5 3 -2.5
v -1.5 4 2.5
v -1.5 4 1.5
v -1.5 4 0.5
v -1.5 4 -0.5
v -1.5 4 -1.5
v -1.5 4 -2.5
v -1.5 5 1.5
v -1.5 5 0.5
v -1.5 5 -0.5
v -1.5 5 -1.5
v -1.5 6 0.5
v -1.5 6 -0.5
v -0.5 0 0.5
v -0.5 0 -0.5
v -0.5 1 1.5
v -0.5 1 0.5
v -0.5 1 -0.5
v -0.5 1 -1.5
v -0.5 2 2.5
v -0.5 2 1.5
v -0.5 2 0.5
v -0.5 2 -0.5
v -0.5 2 -1.5
v -0.5 2 -2.5
v -0.5 3 2.5
v -0.5 3 1.5
v -0.5 3 0.5
v -0.5 3 -0.5
v -0.5 3 -1.5
v -0.5 3 -2.5
v -0.5 4 1.5
v -0.5 4 0.5
v -0.5 4 -0.5
v -0.5 4 -1.5
v -0.5 5 0.5
v -0.5 5 -0.5
v 0.5 1 0.5
v 0.5 1 -0.5
v 0.5 2 1.5
v 0.5 2 0.5
v 0.5 2 -0.5
v 0.5 2 -1.5
v 0.5 3 1.5
v 0.5 3 0.5
v 0.5 3 -0.5
v 0.5 3 -1.5
v 0.5 4 0.5
v 0.5 4 -0.5
v -3.5 2 2.5
v -3.5 3 2.5
v -2.5 1 2.5
v -2.5 2 2.5
v -2.5 3 2.5
v -2.5 4 2.5
v -1.5 1 2.5
v -1.5 2 2.5
v -1.5 3 2.5
v -1.5 4 2.5
v -0.5 2 2.5
v -0.5 3 2.5
v -4.5 2 1.5
v -4.5 3 1.5
v -3.5 1 1.5
v -3.5 2 1.5
v -3.5 3 1.5
v -3.5 4 1.5
v -2.5 0 1.5
v -2.5 1 1.5
v -2.5 2 1.5
v -2.5 3 1.5
v -2.5 4 1.5
v -2.5 5 1.5
v -1.5 0 1.5
v -1.5 1 1.5
v -1.5 2 1.5
v -1.5 3 1.5
v -1.5 4 1.5
v -1.5 5 1.5
v -0.5 1 1.5
v -0.5 2 1.5
v -0.5 3 1.5
v -0.5 4 1.5
v 0.5 2 1.5
v 0.5 3 1.5
v -4.5 1 0.5
v -4.5 2 0.5
v -4.5 3 0.5
v -4.5 4 0.5
v -3.5 0 0.5
v -3.5 1 0.5
v -3.5 2 0.5
v -3.5 3 0.5
v -3.5 4 0.5
v -3.5 5 0.5
v -2.5 0 0.5
v -2.5 1 0.5
v -2.5 4 0.5
v -2.5 5 0.5
v -2.5 6 0.5
v -1.5 0 0.5
v -1.5 1 0.5
v -1.5 4 0.5
v -1.5 5 0.5
v -1.5 6 0.5
v -0.5 0 0.5
v -0.5 1 0.5
v -0.5 2 0.5
v -0.5 3 0.5
v -0.5 4 0.5
v -0.5 5 0.5
v 0.5 1 0.5
v 0.5 2 0.5
v 0.5 3 0.5
v 0.5 4 0.5
v -4.5 1 -0.5
v -4.5 2 -0.5
v -4.5 3 -0.5
v -4.5 4 -0.5
v -3.5 0 -0.5
v -3.5 1 -0.5
v -3.5 2 -0.5
v -3.5 3 -0.5
v -3.5 4 -0.5
v -3.5 5 -0.5
v -2.5 0 -0.5
v -2.5 1 -0.5
v -2.5 4 -0.5
v -2.5 5 -0.5
v -2.5 6 -0.5
v -1.5 0 -0.5
v -1.5 1 -0.5
v -1.5 4 -0.5
v -1.5 5 -0.5
v -1.5 6 -0.5
v -0.5 0 -0.5
v -0.5 1 -0.5
v -0.5 2 -0.5
v -0.5 3 -0.5
v -0.5 4 -0.5
v -0.5 5 -0.5
v 0.5 1 -0.5
v 0.5 2 -0.5
v 0.5 3 -0.5
v 0.5 4 -0.5
v -4.5 2 -1.5
v -4.5 3 -1.5
v -3.5 1 -1.5
v -3.5 2 -1.5
v -3.5 3 -1.5
v -3.5 4 -1.5
v -2.5 0 -1.5
v -2.5 1 -1.5
v -2.5 2 -1.5
v -2.5 3 -1.5
v -2.5 4 -1.5
v -2.5 5 -1.5
v -1.5 0 -1.5
v -1.5 1 -1.5
v -1.5 2 -1.5
v -1.5 3 -1.5
v -1.5 4 -1.5
v -1.5 5 -1.5
v -0.5 1 -1.5
v -0.5 2 -1.5
v -0.5 3 -1.5
v -0.5 4 -1.5
v 0.5 2 -1.5
v 0.5 3 -1.5
v -3.5 2 -2.5
v -3.5 3 -2.5
v -2.5 1 -2.5
v -2.5 2 -2.5
v -2.5 3 -2.5
v -2.5 4 -2.5
v -1.5 1 -2.5
v -1.5 2 -2.5
v -1.5 3 -2.5
v -1.5 4 -2.5
v -0.5 2 -2.5
v -0.5 3 -2.5
v -2.5 0 1.5
v -1.5 0 1.5
v -3.5 0 0.5
v -2.5 0 0.5
v -1.5 0 0.5
v -0.5 0 0.5
v -3.5 0 -0.5
v -2.5 0 -0.5
v -1.5 0 -0.5
v -0.5 0 -0.5
v -2.5 0 -1.5
v -1.5 0 -1.5
v -2.5 1 2.5
v -1.5 1 2.5
v -3.5 1 1.5
v -2.5 1 1.5
v -1.5 1 1.5
v -0.5 1 1.5
v -4.5 1 0.5
v -3.5 1 0.5
v -2.5 1 0.5
v -1.5 1 0.5
v -0.5 1 0.5
v 0.5 1 0.5
v -4.5 1 -0.5
v -3.5 1 -0.5
v -2.5 1 -0.5
v -1.5 1 -0.5
v -0.5 1 -0.5
v 0.5 1 -0.5
v -3.5 1 -1.5
v -2.5 1 -1.5
v -1.5 1 -1.5
v -0.5 1 -1.5
v -2.5 1 -2.5
v -1.5 1 -2.5
v -3.5 2 2.5
v -2.5 2 2.5
v -1.5 2 2.5
v -0.5 2 2.5
v -4.5 2 1.5
v -3.5 2 1.5
v -2.5 2 1.5
v -1.5 2 1.5
v -0.5 2 1.5
v 0.5 2 1.5
v -4.5 2 0.5
v -3.5 2 0.5
v -0.5 2 0.5
v 0.5 2 0.5
v -4.5 2 -0.5
v -3.5 2 -0.5
v -0.5 2 -0.5
v 0.5 2 -0.5
v -4.5 2 -1.5
v -3.5 2 -1.5
v -2.5 2 -1.5
v -1.5 2 -1.5
v -0.5 2 -1.5
v 0.5 2 -1.5
v -3.5 2 -2.5
v -2.5 2 -2.5
v -1.5 2 -2.5
v -0.5 2 -2.5
v -3.5 3 2.5
v -2.5 3 2.5
v -1.5 3 2.5
v -0.5 3 2.5
v -4.5 3 1.5
v -3.5 3 1.5
v -2.5 3 1.5
v -1.5 3 1.5
v -0.5 3 1.5
v 0.5 3 1.5
v -4.5 3 0.5
v -3.5 3 0.5
v -0.5 3 0.5
v 0.5 3 0.5
v -4.5 3 -0.5
v -3.5 3 -0.5
v -0.5 3 -0.5
v 0.5 3 -0.5
v -4.5 3 -1.5
v -3.5 3 -1.5
v -2.5 3 -1.5
v -1.5 3 -1.5
v -0.5 3 -1.5
v 0.5 3 -1.5
v -3.5 3 -2.5
v -2.5 3 -2.5
v -1.5 3 -2.5
v -0.5 3 -2.5
v -2.5 4 2.5
v -1.5 4 2.5
v -3.5 4 1.5
v -2.5 4 1.5
v -1.5 4 1.5
v -0.5 4 1.5
v -4.5 4 0.5
v -3.5 4 0.5
v -2.5 4 0.5
v -1.5 4 0.5
v -0.5 4 0.5
v 0.5 4 0.5
v -4.5 4 -0.5
v -3.5 4 -0.5
v -2.5 4 -0.5
v -1.5 4 -0.5
v -0.5 4 -0.5
v 0.5 4 -0.5
v -3.5 4 -1.5
v -2.5 4 -1.5
v -1.5 4 -1.5
v -0.5 4 -1.5
v -2.5 4 -2.5
v -1.5 4 -2.5
v -2.5 5 1.5
v -1.5 5 1.5
v -3.5 5 0.5
v -2.5 5 0.5
v -1.5 5 0.5
v -0.5 5 0.5
v -3.5 5 -0.5
v -2.5 5 -0.5
v -1.5 5 -0.5
v -0.5 5 -0.5
v -2.5 5 -1.5
v -1.5 5 -1.5
v -2.5 6 0.5
v -1.5 6 0.5
v -2.5 6 -0.5
v -1.5 6 -0.5

# faces
f 4/8/1 2/8/1 1/8/1
f 5/8/1 2/8/1 4/8/1
f 7/2/1 4/2/1 3/2/1
f 8/15/1 5/15/1 4/15/1
f 8/2/1 4/2/1 7/2/1
f 9/8/1 6/8/1 5/8/1
f 9/15/1 5/15/1 8/15/1
f 10/8/1 6/8/1 9/8/1
f 11/20/1 9/20/1 8/20/1
f 12/20/1 9/20/1 11/20/1
f 16/2/1 14/2/1 13/2/1
f 17/2/1 14/2/1 16/2/1
f 20/2/1 16/2/1 15/2/1
f 21/2/1 16/2/1 20/2/1
f 22/4/1 18/4/1 17/4/1
f 23/4/1 18/4/1 22/4/1
f 25/12/1 20/12/1 19/12/1
f 26/12/1 20/12/1 25/12/1
f 29/13/1 24/13/1 23/13/1
f 30/13/1 24/13/1 29/13/1
f 31/20/1 27/20/1 26/20/1
f 32/20/1 27/20/1 31/20/1
f 33/19/1 29/19/1 28/19/1
f 34/19/1 29/19/1 33/19/1
f 35/17/1 33/17/1 32/17/1
f 36/17/1 33/17/1 35/17/1
f 42/1/1 38/1/1 37/1/1
f 43/1/1 38/1/1 42/1/1
f 44/5/1 40/5/1 39/5/1
f 45/5/1 40/5/1 44/5/1
f 47/6/1 42/6/1 41/6/1
f 48/6/1 42/6/1 47/6/1
f 49/5/1 46/5/1 45/5/1
f 50/5/1 46/5/1 49/5/1
f 55/6/1 52/6/1 51/6/1
f 56/6/1 52/6/1 55/6/1
f 59/2/1 54/2/1 53/2/1
f 60/2/1 54/2/1 59/2/1
f 61/7/1 57/7/1 56/7/1
f 62/7/1 57/7/1 61/7/1
f 63/15/1 59/15/1 58/15/1
f 64/15/1 59/15/1 63/15/1
f 65/22/1 63/22/1 62/22/1
f 66/22/1 63/22/1 65/22/1
f 67/1/2 68/1/2 72/1/2
f 72/1/2 68/1/2 73/1/2
f 69/5/2 70/5/2 74/5/2
f 74/5/2 70/5/2 75/5/2
f 71/6/2 72/6/2 77/6/2
f 77/6/2 72/6/2 78/6/2
f 75/5/2 76/5/2 79/5/2
f 79/5/2 76/5/2 80/5/2
f 81/6/2 82/6/2 85/6/2
f 85/6/2 82/6/2 86/6/2
f 83/2/2 84/2/2 89/2/2
f 89/2/2 84/2/2 90/2/2
f 86/7/2 87/7/2 91/7/2
f 91/7/2 87/7/2 92/7/2
f 88/15/2 89/15/2 93/15/2
f 93/15/2 89/15/2 94/15/2
f 92/22/2 93/22/2 95/22/2
f 95/22/2 93/22/2 96/22/2
f 97/4/2 98/4/2 100/4/2
f 100/4/2 98/4/2 101/4/2
f 99/7/2 100/7/2 104/7/2
f 104/7/2 100/7/2 105/7/2
f 101/11/2 102/11/2 106/11/2
f 106/11/2 102/11/2 107/11/2
f 103/7/2 104/7/2 109/7/2
f 109/7/2 104/7/2 110/7/2
f 107/19/2 108/19/2 113/19/2
f 113/19/2 108/19/2 114/19/2
f 110/7/2 111/7/2 115/7/2
f 115/7/2 111/7/2 116/7/2
f 112/10/2 113/10/2 117/10/2
f 117/10/2 113/10/2 118/10/2
f 116/6/2 117/6/2 119/6/2
f 119/6/2 117/6/2 120/6/2
f 121/7/2 122/7/2 124/7/2
f 124/7/2 122/7/2 125/7/2
f 123/6/2 124/6/2 127/6/2
f 124/7/2 125/7/2 128/7/2
f 127/6/2 124/6/2 128/6/2
f 125/4/2 126/4/2 129/4/2
f 128/7/2 125/7/2 129/7/2
f 129/4/2 126/4/2 130/4/2
f 128/7/2 129/7/2 131/7/2
f 131/7/2 129/7/2 132/7/2
f 136/12/3 134/12/3 133/12/3
f 137/12/3 134/12/3 136/12/3
f 139/6/3 136/6/3 135/6/3
f 140/7/3 137/7/3 136/7/3
f 140/6/3 136/6/3 139/6/3
f 141/6/3 138/6/3 137/6/3
f 141/7/3 137/7/3 140/7/3
f 142/6/3 138/6/3 141/6/3
f 143/7/3 141/7/3 140/7/3
f 144/7/3 141/7/3 143/7/3
f 148/2/3 146/2/3 145/2/3
f 149/2/3 146/2/3 148/2/3
f 152/2/3 148/2/3 147/2/3
f 153/2/3 148/2/3 152/2/3
f 154/20/3 150/20/3 149/20/3
f 155/20/3 150/20/3 154/20/3
f 157/1/3 152/1/3 151/1/3
f 158/1/3 152/1/3 157/1/3
f 161/7/3 156/7/3 155/7/3
f 162/7/3 156/7/3 161/7/3
f 163/7/3 159/7/3 158/7/3
f 164/7/3 159/7/3 163/7/3
f 165/7/3 161/7/3 160/7/3
f 166/7/3 161/7/3 165/7/3
f 167/6/3 165/6/3 164/6/3
f 168/6/3 165/6/3 167/6/3
f 174/8/3 170/8/3 169/8/3
f 175/8/3 170/8/3 174/8/3
f 176/20/3 172/20/3 171/20/3
f 177/20/3 172/20/3 176/20/3
f 179/2/3 174/2/3 173/2/3
f 180/2/3 174/2/3 179/2/3
f 181/17/3 178/17/3 177/17/3
f 182/17/3 178/17/3 181/17/3
f 187/22/3 183/22/3 182/22/3
f 188/22/3 183/22/3 187/22/3
f 189/4/3 185/4/3 184/4/3
f 190/4/3 185/4/3 189/4/3
f 193/6/3 187/6/3 186/6/3
f 194/6/3 187/6/3 193/6/3
f 195/7/3 191/7/3 190/7/3
f 196/7/3 191/7/3 195/7/3
f 197/7/3 193/7/3 192/7/3
f 198/7/3 193/7/3 197/7/3
f 199/8/4 200/8/4 204/8/4
f 204/8/4 200/8/4 205/8/4
f 201/20/4 202/20/4 206/20/4
f 206/20/4 202/20/4 207/20/4
f 203/2/4 204/2/4 209/2/4
f 209/2/4 204/2/4 210/2/4
f 207/17/4 208/17/4 211/17/4
f 211/17/4 208/17/4 212/17/4
f 212/22/4 213/22/4 217/22/4
f 217/22/4 213/22/4 218/22/4
f 214/4/4 215/4/4 219/4/4
f 219/4/4 215/4/4 220/4/4
f 216/6/4 217/6/4 223/6/4
f 223/6/4 217/6/4 224/6/4
f 220/7/4 221/7/4 225/7/4
f 225/7/4 221/7/4 226/7/4
f 222/7/4 223/7/4 227/7/4
f 227/7/4 223/7/4 228/7/4
f 229/8/4 230/8/4 232/8/4
f 232/8/4 230/8/4 233/8/4
f 231/4/4 232/4/4 236/4/4
f 236/4/4 232/4/4 237/4/4
f 233/19/4 234/19/4 238/19/4
f 238/19/4 234/19/4 239/19/4
f 235/5/4 236/5/4 241/5/4
f 241/5/4 236/5/4 242/5/4
f 239/15/4 240/15/4 245/15/4
f 245/15/4 240/15/4 246/15/4
f 242/11/4 243/11/4 247/11/4
f 247/11/4 243/11/4 248/11/4
f 244/10/4 245/10/4 249/10/4
f 249/10/4 245/10/4 250/10/4
f 248/4/4 249/4/4 251/4/4
f 251/4/4 249/4/4 252/4/4
f 253/13/4 254/13/4 256/13/4
f 256/13/4 254/13/4 257/13/4
f 255/5/4 256/5/4 259/5/4
f 256/18/4 257/18/4 260/18/4
f 259/5/4 256/5/4 260/5/4
f 257/2/4 258/2/4 261/2/4
f 260/18/4 257/18/4 261/18/4
f 261/2/4 258/2/4 262/2/4
f 260/19/4 261/19/4 263/19/4
f 263/19/4 261/19/4 264/19/4
f 268/1/5 266/1/5 265/1/5
f 269/1/5 266/1/5 268/1/5
f 271/2/5 268/2/5 267/2/5
f 272/3/5 269/3/5 268/3/5
f 272/2/5 268/2/5 271/2/5
f 273/4/5 270/4/5 269/4/5
f 273/3/5 269/3/5 272/3/5
f 274/4/5 270/4/5 273/4/5
f 275/5/5 273/5/5 272/5/5
f 276/5/5 273/5/5 275/5/5
f 280/6/5 278/6/5 277/6/5
f 281/6/5 278/6/5 280/6/5
f 284/2/5 280/2/5 279/2/5
f 285/2/5 280/2/5 284/2/5
f 286/7/5 282/7/5 281/7/5
f 287/7/5 282/7/5 286/7/5
f 289/8/5 284/8/5 283/8/5
f 290/8/5 284/8/5 289/8/5
f 293/7/5 288/7/5 287/7/5
f 294/7/5 288/7/5 293/7/5
f 295/4/5 291/4/5 290/4/5
f 296/4/5 291/4/5 295/4/5
f 297/11/5 293/11/5 292/11/5
f 298/11/5 293/11/5 297/11/5
f 299/5/5 297/5/5 296/5/5
f 300/5/5 297/5/5 299/5/5
f 306/12/5 302/12/5 301/12/5
f 307/12/5 302/12/5 306/12/5
f 308/7/5 304/7/5 303/7/5
f 309/7/5 304/7/5 308/7/5
f 311/2/5 306/2/5 305/2/5
f 312/2/5 306/2/5 311/2/5
f 313/6/5 310/6/5 309/6/5
f 314/6/5 310/6/5 313/6/5
f 319/8/5 316/8/5 315/8/5
f 320/8/5 316/8/5 319/8/5
f 323/4/5 318/4/5 317/4/5
f 324/4/5 318/4/5 323/4/5
f 325/13/5 321/13/5 320/13/5
f 326/13/5 321/13/5 325/13/5
f 327/19/5 323/19/5 322/19/5
f 328/19/5 323/19/5 327/19/5
f 329/12/6 330/12/6 334/12/6
f 334/12/6 330/12/6 335/12/6
f 331/7/6 332/7/6 336/7/6
f 336/7/6 332/7/6 337/7/6
f 333/2/6 334/2/6 339/2/6
f 339/2/6 334/2/6 340/2/6
f 337/6/6 338/6/6 341/6/6
f 341/6/6 338/6/6 342/6/6
f 343/8/6 344/8/6 347/8/6
f 347/8/6 344/8/6 348/8/6
f 345/4/6 346/4/6 351/4/6
f 351/4/6 346/4/6 352/4/6
f 348/13/6 349/13/6 353/13/6
f 353/13/6 349/13/6 354/13/6
f 350/19/6 351/19/6 355/19/6
f 355/19/6 351/19/6 356/19/6
f 357/6/6 358/6/6 360/6/6
f 360/6/6 358/6/6 361/6/6
f 359/20/6 360/20/6 364/20/6
f 364/20/6 360/20/6 365/20/6
f 361/7/6 362/7/6 366/7/6
f 366/7/6 362/7/6 367/7/6
f 363/20/6 364/20/6 369/20/6
f 369/20/6 364/20/6 370/20/6
f 367/7/6 368/7/6 373/7/6
f 373/7/6 368/7/6 374/7/6
f 370/19/6 371/19/6 375/19/6
f 375/19/6 371/19/6 376/19/6
f 372/10/6 373/10/6 377/10/6
f 377/10/6 373/10/6 378/10/6
f 376/2/6 377/2/6 379/2/6
f 379/2/6 377/2/6 380/2/6
f 381/7/6 382/7/6 384/7/6
f 384/7/6 382/7/6 385/7/6
f 383/17/6 384/17/6 387/17/6
f 387/17/6 384/17/6 388/17/6
f 385/6/6 386/6/6 389/6/6
f 389/6/6 386/6/6 390/6/6
f 388/15/6 389/15/6 391/15/6
f 391/15/6 389/15/6 392/15/6
f 393/22/6 394/22/6 395/22/6
f 395/22/6 394/22/6 396/22/6
