# MagicaVoxel @ ephtracy

# material
mtllib bob_orange.mtl
usemtl palette

# normals
vn -1 0 0
vn 1 0 0
vn 0 0 1
vn 0 0 -1
vn 0 -1 0
vn 0 1 0

# texcoords
vt 0.00195313 0.5
vt 0.00585938 0.5
vt 0.00976563 0.5
vt 0.0136719 0.5
vt 0.0175781 0.5
vt 0.0214844 0.5
vt 0.0253906 0.5
vt 0.0292969 0.5
vt 0.0332031 0.5
vt 0.0371094 0.5
vt 0.0410156 0.5
vt 0.0449219 0.5
vt 0.0488281 0.5
vt 0.0527344 0.5
vt 0.0566406 0.5
vt 0.0605469 0.5
vt 0.0644531 0.5
vt 0.0683594 0.5
vt 0.0722656 0.5
vt 0.0761719 0.5
vt 0.0800781 0.5
vt 0.0839844 0.5
vt 0.0878906 0.5
vt 0.0917969 0.5
vt 0.0957031 0.5
vt 0.0996094 0.5
vt 0.103516 0.5

# verts
v -4.5 1 0.5
v -4.5 1 -0.5
v -4.5 2 1.5
v -4.5 2 0.5
v -4.5 2 -0.5
v -4.5 2 -1.5
v -4.5 3 1.5
v -4.5 3 0.5
v -4.5 3 -0.5
v -4.5 3 -1.5
v -4.5 4 0.5
v -4.5 4 -0.5
v -3.5 0 0.5
v -3.5 0 -0.5
v -3.5 1 1.5
v -3.5 1 0.5
v -3.5 1 -0.5
v -3.5 1 -1.5
v -3.5 2 2.5
v -3.5 2 1.5
v -3.5 2 0.5
v -3.5 2 -0.5
v -3.5 2 -1.5
v -3.5 2 -2.5
v -3.5 3 2.5
v -3.5 3 1.5
v -3.5 3 0.5
v -3.5 3 -0.5
v -3.5 3 -1.5
v -3.5 3 -2.5
v -3.5 4 1.5
v -3.5 4 0.5
v -3.5 4 -0.5
v -3.5 4 -1.5
v -3.5 5 0.5
v -3.5 5 -0.5
v -2.5 0 1.5
v -2.5 0 0.5
v -2.5 0 -0.5
v -2.5 0 -1.5
v -2.5 1 2.5
v -2.5 1 1.5
v -2.5 1 0.5
v -2.5 1 -0.5
v -2.5 1 -1.5
v -2.5 1 -2.5
v -2.5 2 2.5
v -2.5 2 1.5
v -2.5 2 -1.5
v -2.5 2 -2.5
v -2.5 3 2.5
v -2.5 3 1.5
v -2.5 3 -1.5
v -2.5 3 -2.5
v -2.5 4 2.5
v -2.5 4 1.5
v -2.5 4 0.5
v -2.5 4 -0.5
v -2.5 4 -1.5
v -2.5 4 -2.5
v -2.5 5 1.5
v -2.5 5 0.5
v -2.5 5 -0.5
v -2.5 5 -1.5
v -2.5 6 0.5
v -2.5 6 -0.5
v -1.5 0 1.5
v -1.5 0 0.5
v -1.5 0 -0.5
v -1.5 0 -1.5
v -1.5 1 2.5
v -1.5 1 1.5
v -1.5 1 0.5
v -1.5 1 -0.5
v -1.5 1 -1.5
v -1.5 1 -2.5
v -1.5 2 2.5
v -1.5 2 1.5
v -1.5 2 -1.5
v -1.5 2 -2.5
v -1.5 3 2.5
v -1.5 3 1.5
v -1.5 3 -1.5
v -1.5 3 -2.5
v -1.5 4 2.5
v -1.5 4 1.5
v -1.5 4 0.5
v -1.5 4 -0.5
v -1.5 4 -1.5
v -1.5 4 -2.5
v -1.5 5 1.5
v -1.5 5 0.5
v -1.5 5 -0.5
v -1.5 5 -1.5
v -1.5 6 0.5
v -1.5 6 -0.5
v -0.5 0 0.5
v -0.5 0 -0.5
v -0.5 1 1.5
v -0.5 1 0.5
v -0.5 1 -0.5
v -0.5 1 -1.5
v -0.5 2 2.5
v -0.5 2 1.5
v -0.5 2 0.5
v -0.5 2 -0.5
v -0.5 2 -1.5
v -0.5 2 -2.5
v -0.5 3 2.5
v -0.5 3 1.5
v -0.5 3 0.5
v -0.5 3 -0.5
v -0.5 3 -1.5
v -0.5 3 -2.5
v -0.5 4 1.5
v -0.5 4 0.5
v -0.5 4 -0.5
v -0.5 4 -1.5
v -0.5 5 0.5
v -0.5 5 -0.5
v 0.5 1 0.5
v 0.5 1 -0.5
v 0.5 2 1.5
v 0.5 2 0.5
v 0.5 2 -0.5
v 0.5 2 -1.5
v 0.5 3 1.5
v 0.5 3 0.5
v 0.5 3 -0.5
v 0.5 3 -1.5
v 0.5 4 0.5
v 0.5 4 -0.5
v -3.5 2 2.5
v -3.5 3 2.5
v -2.5 1 2.5
v -2.5 2 2.5
v -2.5 3 2.5
v -2.5 4 2.5
v -1.5 1 2.5
v -1.5 2 2.5
v -1.5 3 2.5
v -1.5 4 2.5
v -0.5 2 2.5
v -0.5 3 2.5
v -4.5 2 1.5
v -4.5 3 1.5
v -3.5 1 1.5
v -3.5 2 1.5
v -3.5 3 1.5
v -3.5 4 1.5
v -2.5 0 1.5
v -2.5 1 1.5
v -2.5 2 1.5
v -2.5 3 1.5
v -2.5 4 1.5
v -2.5 5 1.5
v -1.5 0 1.5
v -1.5 1 1.5
v -1.5 2 1.5
v -1.5 3 1.5
v -1.5 4 1.5
v -1.5 5 1.5
v -0.5 1 1.5
v -0.5 2 1.5
v -0.5 3 1.5
v -0.5 4 1.5
v 0.5 2 1.5
v 0.5 3 1.5
v -4.5 1 0.5
v -4.5 2 0.5
v -4.5 3 0.5
v -4.5 4 0.5
v -3.5 0 0.5
v -3.5 1 0.5
v -3.5 2 0.5
v -3.5 3 0.5
v -3.5 4 0.5
v -3.5 5 0.5
v -2.5 0 0.5
v -2.5 1 0.5
v -2.5 4 0.5
v -2.5 5 0.5
v -2.5 6 0.5
v -1.5 0 0.5
v -1.5 1 0.5
v -1.5 4 0.5
v -1.5 5 0.5
v -1.5 6 0.5
v -0.5 0 0.5
v -0.5 1 0.5
v -0.5 2 0.5
v -0.5 3 0.5
v -0.5 4 0.5
v -0.5 5 0.5
v 0.5 1 0.5
v 0.5 2 0.5
v 0.5 3 0.5
v 0.5 4 0.5
v -4.5 1 -0.5
v -4.5 2 -0.5
v -4.5 3 -0.5
v -4.5 4 -0.5
v -3.5 0 -0.5
v -3.5 1 -0.5
v -3.5 2 -0.5
v -3.5 3 -0.5
v -3.5 4 -0.5
v -3.5 5 -0.5
v -2.5 0 -0.5
v -2.5 1 -0.5
v -2.5 4 -0.5
v -2.5 5 -0.5
v -2.5 6 -0.5
v -1.5 0 -0.5
v -1.5 1 -0.5
v -1.5 4 -0.5
v -1.5 5 -0.5
v -1.5 6 -0.5
v -0.5 0 -0.5
v -0.5 1 -0.5
v -0.5 2 -0.5
v -0.5 3 -0.5
v -0.5 4 -0.5
v -0.5 5 -0.5
v 0.5 1 -0.5
v 0.5 2 -0.5
v 0.5 3 -0.5
v 0.5 4 -0.5
v -4.5 2 -1.5
v -4.5 3 -1.5
v -3.5 1 -1.5
v -3.5 2 -1.5
v -3.5 3 -1.5
v -3.5 4 -1.5
v -2.5 0 -1.5
v -2.5 1 -1.5
v -2.5 2 -1.5
v -2.5 3 -1.5
v -2.5 4 -1.5
v -2.5 5 -1.5
v -1.5 0 -1.5
v -1.5 1 -1.5
v -1.5 2 -1.5
v -1.5 3 -1.5
v -1.5 4 -1.5
v -1.5 5 -1.5
v -0.5 1 -1.5
v -0.5 2 -1.5
v -0.5 3 -1.5
v -0.5 4 -1.5
v 0.5 2 -1.5
v 0.5 3 -1.5
v -3.5 2 -2.5
v -3.5 3 -2.5
v -2.5 1 -2.5
v -2.5 2 -2.5
v -2.5 3 -2.5
v -2.5 4 -2.5
v -1.5 1 -2.5
v -1.5 2 -2.5
v -1.5 3 -2.5
v -1.5 4 -2.5
v -0.5 2 -2.5
v -0.5 3 -2.5
v -2.5 0 1.5
v -1.5 0 1.5
v -3.5 0 0.5
v -2.5 0 0.5
v -1.5 0 0.5
v -0.5 0 0.5
v -3.5 0 -0.5
v -2.5 0 -0.5
v -1.5 0 -0.5
v -0.5 0 -0.5
v -2.5 0 -1.5
v -1.5 0 -1.5
v -2.5 1 2.5
v -1.5 1 2.5
v -3.5 1 1.5
v -2.5 1 1.5
v -1.5 1 1.5
v -0.5 1 1.5
v -4.5 1 0.5
v -3.5 1 0.5
v -2.5 1 0.5
v -1.5 1 0.5
v -0.5 1 0.5
v 0.5 1 0.5
v -4.5 1 -0.5
v -3.5 1 -0.5
v -2.5 1 -0.5
v -1.5 1 -0.5
v -0.5 1 -0.5
v 0.5 1 -0.5
v -3.5 1 -1.5
v -2.5 1 -1.5
v -1.5 1 -1.5
v -0.5 1 -1.5
v -2.5 1 -2.5
v -1.5 1 -2.5
v -3.5 2 2.5
v -2.5 2 2.5
v -1.5 2 2.5
v -0.5 2 2.5
v -4.5 2 1.5
v -3.5 2 1.5
v -2.5 2 1.5
v -1.5 2 1.5
v -0.5 2 1.5
v 0.5 2 1.5
v -4.5 2 0.5
v -3.5 2 0.5
v -0.5 2 0.5
v 0.5 2 0.5
v -4.5 2 -0.5
v -3.5 2 -0.5
v -0.5 2 -0.5
v 0.5 2 -0.5
v -4.5 2 -1.5
v -3.5 2 -1.5
v -2.5 2 -1.5
v -1.5 2 -1.5
v -0.5 2 -1.5
v 0.5 2 -1.5
v -3.5 2 -2.5
v -2.5 2 -2.5
v -1.5 2 -2.5
v -0.5 2 -2.5
v -3.5 3 2.5
v -2.5 3 2.5
v -1.5 3 2.5
v -0.5 3 2.5
v -4.5 3 1.5
v -3.5 3 1.5
v -2.5 3 1.5
v -1.5 3 1.5
v -0.5 3 1.5
v 0.5 3 1.5
v -4.5 3 0.5
v -3.5 3 0.5
v -0.5 3 0.5
v 0.5 3 0.5
v -4.5 3 -0.5
v -3.5 3 -0.5
v -0.5 3 -0.5
v 0.5 3 -0.5
v -4.5 3 -1.5
v -3.5 3 -1.5
v -2.5 3 -1.5
v -1.5 3 -1.5
v -0.5 3 -1.5
v 0.5 3 -1.5
v -3.5 3 -2.5
v -2.5 3 -2.5
v -1.5 3 -2.5
v -0.5 3 -2.5
v -2.5 4 2.5
v -1.5 4 2.5
v -3.5 4 1.5
v -2.5 4 1.5
v -1.5 4 1.5
v -0.5 4 1.5
v -4.5 4 0.5
v -3.5 4 0.5
v -2.5 4 0.5
v -1.5 4 0.5
v -0.5 4 0.5
v 0.5 4 0.5
v -4.5 4 -0.5
v -3.5 4 -0.5
v -2.5 4 -0.5
v -1.5 4 -0.5
v -0.5 4 -0.5
v 0.5 4 -0.5
v -3.5 4 -1.5
v -2.5 4 -1.5
v -1.5 4 -1.5
v -0.5 4 -1.5
v -2.5 4 -2.5
v -1.5 4 -2.5
v -2.5 5 1.5
v -1.5 5 1.5
v -3.5 5 0.5
v -2.5 5 0.5
v -1.5 5 0.5
v -0.5 5 0.5
v -3.5 5 -0.5
v -2.5 5 -0.5
v -1.5 5 -0.5
v -0.5 5 -0.5
v -2.5 5 -1.5
v -1.5 5 -1.5
v -2.5 6 0.5
v -1.5 6 0.5
v -2.5 6 -0.5
v -1.5 6 -0.5

# faces
f 4/8/1 2/8/1 1/8/1
f 5/8/1 2/8/1 4/8/1
f 7/16/1 4/16/1 3/16/1
f 8/19/1 5/19/1 4/19/1
f 8/16/1 4/16/1 7/16/1
f 9/22/1 6/22/1 5/22/1
f 9/19/1 5/19/1 8/19/1
f 10/22/1 6/22/1 9/22/1
f 11/25/1 9/25/1 8/25/1
f 12/25/1 9/25/1 11/25/1
f 16/2/1 14/2/1 13/2/1
f 17/2/1 14/2/1 16/2/1
f 20/6/1 16/6/1 15/6/1
f 21/6/1 16/6/1 20/6/1
f 22/11/1 18/11/1 17/11/1
f 23/11/1 18/11/1 22/11/1
f 25/13/1 20/13/1 19/13/1
f 26/13/1 20/13/1 25/13/1
f 29/23/1 24/23/1 23/23/1
f 30/23/1 24/23/1 29/23/1
f 31/25/1 27/25/1 26/25/1
f 32/25/1 27/25/1 31/25/1
f 33/25/1 29/25/1 28/25/1
f 34/25/1 29/25/1 33/25/1
f 35/25/1 33/25/1 32/25/1
f 36/25/1 33/25/1 35/25/1
f 42/1/1 38/1/1 37/1/1
f 43/1/1 38/1/1 42/1/1
f 44/4/1 40/4/1 39/4/1
f 45/4/1 40/4/1 44/4/1
f 47/5/1 42/5/1 41/5/1
f 48/5/1 42/5/1 47/5/1
f 49/1/1 46/1/1 45/1/1
f 50/1/1 46/1/1 49/1/1
f 55/25/1 52/25/1 51/25/1
f 56/25/1 52/25/1 55/25/1
f 59/25/1 54/25/1 53/25/1
f 60/25/1 54/25/1 59/25/1
f 61/25/1 57/25/1 56/25/1
f 62/25/1 57/25/1 61/25/1
f 63/25/1 59/25/1 58/25/1
f 64/25/1 59/25/1 63/25/1
f 65/27/1 63/27/1 62/27/1
f 66/27/1 63/27/1 65/27/1
f 67/1/2 68/1/2 72/1/2
f 72/1/2 68/1/2 73/1/2
f 69/4/2 70/4/2 74/4/2
f 74/4/2 70/4/2 75/4/2
f 71/5/2 72/5/2 77/5/2
f 77/5/2 72/5/2 78/5/2
f 75/1/2 76/1/2 79/1/2
f 79/1/2 76/1/2 80/1/2
f 81/25/2 82/25/2 85/25/2
f 85/25/2 82/25/2 86/25/2
f 83/25/2 84/25/2 89/25/2
f 89/25/2 84/25/2 90/25/2
f 86/25/2 87/25/2 91/25/2
f 91/25/2 87/25/2 92/25/2
f 88/25/2 89/25/2 93/25/2
f 93/25/2 89/25/2 94/25/2
f 92/27/2 93/27/2 95/27/2
f 95/27/2 93/27/2 96/27/2
f 97/4/2 98/4/2 100/4/2
f 100/4/2 98/4/2 101/4/2
f 99/1/2 100/1/2 104/1/2
f 104/1/2 100/1/2 105/1/2
f 101/7/2 102/7/2 106/7/2
f 106/7/2 102/7/2 107/7/2
f 103/15/2 104/15/2 109/15/2
f 109/15/2 104/15/2 110/15/2
f 107/24/2 108/24/2 113/24/2
f 113/24/2 108/24/2 114/24/2
f 110/25/2 111/25/2 115/25/2
f 115/25/2 111/25/2 116/25/2
f 112/25/2 113/25/2 117/25/2
f 117/25/2 113/25/2 118/25/2
f 116/25/2 117/25/2 119/25/2
f 119/25/2 117/25/2 120/25/2
f 121/2/2 122/2/2 124/2/2
f 124/2/2 122/2/2 125/2/2
f 123/16/2 124/16/2 127/16/2
f 124/22/2 125/22/2 128/22/2
f 127/16/2 124/16/2 128/16/2
f 125/21/2 126/21/2 129/21/2
f 128/22/2 125/22/2 129/22/2
f 129/21/2 126/21/2 130/21/2
f 128/25/2 129/25/2 131/25/2
f 131/25/2 129/25/2 132/25/2
f 136/13/3 134/13/3 133/13/3
f 137/13/3 134/13/3 136/13/3
f 139/5/3 136/5/3 135/5/3
f 140/14/3 137/14/3 136/14/3
f 140/5/3 136/5/3 139/5/3
f 141/25/3 138/25/3 137/25/3
f 141/14/3 137/14/3 140/14/3
f 142/25/3 138/25/3 141/25/3
f 143/15/3 141/15/3 140/15/3
f 144/15/3 141/15/3 143/15/3
f 148/16/3 146/16/3 145/16/3
f 149/16/3 146/16/3 148/16/3
f 152/6/3 148/6/3 147/6/3
f 153/6/3 148/6/3 152/6/3
f 154/25/3 150/25/3 149/25/3
f 155/25/3 150/25/3 154/25/3
f 157/1/3 152/1/3 151/1/3
f 158/1/3 152/1/3 157/1/3
f 161/25/3 156/25/3 155/25/3
f 162/25/3 156/25/3 161/25/3
f 163/1/3 159/1/3 158/1/3
f 164/1/3 159/1/3 163/1/3
f 165/25/3 161/25/3 160/25/3
f 166/25/3 161/25/3 165/25/3
f 167/16/3 165/16/3 164/16/3
f 168/16/3 165/16/3 167/16/3
f 174/8/3 170/8/3 169/8/3
f 175/8/3 170/8/3 174/8/3
f 176/25/3 172/25/3 171/25/3
f 177/25/3 172/25/3 176/25/3
f 179/2/3 174/2/3 173/2/3
f 180/2/3 174/2/3 179/2/3
f 181/25/3 178/25/3 177/25/3
f 182/25/3 178/25/3 181/25/3
f 187/27/3 183/27/3 182/27/3
f 188/27/3 183/27/3 187/27/3
f 189/4/3 185/4/3 184/4/3
f 190/4/3 185/4/3 189/4/3
f 193/25/3 187/25/3 186/25/3
f 194/25/3 187/25/3 193/25/3
f 195/2/3 191/2/3 190/2/3
f 196/2/3 191/2/3 195/2/3
f 197/25/3 193/25/3 192/25/3
f 198/25/3 193/25/3 197/25/3
f 199/8/4 200/8/4 204/8/4
f 204/8/4 200/8/4 205/8/4
f 201/25/4 202/25/4 206/25/4
f 206/25/4 202/25/4 207/25/4
f 203/2/4 204/2/4 209/2/4
f 209/2/4 204/2/4 210/2/4
f 207/25/4 208/25/4 211/25/4
f 211/25/4 208/25/4 212/25/4
f 212/27/4 213/27/4 217/27/4
f 217/27/4 213/27/4 218/27/4
f 214/4/4 215/4/4 219/4/4
f 219/4/4 215/4/4 220/4/4
f 216/25/4 217/25/4 223/25/4
f 223/25/4 217/25/4 224/25/4
f 220/2/4 221/2/4 225/2/4
f 225/2/4 221/2/4 226/2/4
f 222/25/4 223/25/4 227/25/4
f 227/25/4 223/25/4 228/25/4
f 229/22/4 230/22/4 232/22/4
f 232/22/4 230/22/4 233/22/4
f 231/11/4 232/11/4 236/11/4
f 236/11/4 232/11/4 237/11/4
f 233/25/4 234/25/4 238/25/4
f 238/25/4 234/25/4 239/25/4
f 235/4/4 236/4/4 241/4/4
f 241/4/4 236/4/4 242/4/4
f 239/25/4 240/25/4 245/25/4
f 245/25/4 240/25/4 246/25/4
f 242/7/4 243/7/4 247/7/4
f 247/7/4 243/7/4 248/7/4
f 244/25/4 245/25/4 249/25/4
f 249/25/4 245/25/4 250/25/4
f 248/21/4 249/21/4 251/21/4
f 251/21/4 249/21/4 252/21/4
f 253/23/4 254/23/4 256/23/4
f 256/23/4 254/23/4 257/23/4
f 255/1/4 256/1/4 259/1/4
f 256/17/4 257/17/4 260/17/4
f 259/1/4 256/1/4 260/1/4
f 257/25/4 258/25/4 261/25/4
f 260/17/4 257/17/4 261/17/4
f 261/25/4 258/25/4 262/25/4
f 260/24/4 261/24/4 263/24/4
f 263/24/4 261/24/4 264/24/4
f 268/1/5 266/1/5 265/1/5
f 269/1/5 266/1/5 268/1/5
f 271/2/5 268/2/5 267/2/5
f 272/3/5 269/3/5 268/3/5
f 272/2/5 268/2/5 271/2/5
f 273/4/5 270/4/5 269/4/5
f 273/3/5 269/3/5 272/3/5
f 274/4/5 270/4/5 273/4/5
f 275/4/5 273/4/5 272/4/5
f 276/4/5 273/4/5 275/4/5
f 280/5/5 278/5/5 277/5/5
f 281/5/5 278/5/5 280/5/5
f 284/6/5 280/6/5 279/6/5
f 285/6/5 280/6/5 284/6/5
f 286/1/5 282/1/5 281/1/5
f 287/1/5 282/1/5 286/1/5
f 289/8/5 284/8/5 283/8/5
f 290/8/5 284/8/5 289/8/5
f 293/2/5 288/2/5 287/2/5
f 294/2/5 288/2/5 293/2/5
f 295/11/5 291/11/5 290/11/5
f 296/11/5 291/11/5 295/11/5
f 297/7/5 293/7/5 292/7/5
f 298/7/5 293/7/5 297/7/5
f 299/1/5 297/1/5 296/1/5
f 300/1/5 297/1/5 299/1/5
f 306/13/5 302/13/5 301/13/5
f 307/13/5 302/13/5 306/13/5
f 308/15/5 304/15/5 303/15/5
f 309/15/5 304/15/5 308/15/5
f 311/16/5 306/16/5 305/16/5
f 312/16/5 306/16/5 311/16/5
f 313/16/5 310/16/5 309/16/5
f 314/16/5 310/16/5 313/16/5
f 319/22/5 316/22/5 315/22/5
f 320/22/5 316/22/5 319/22/5
f 323/21/5 318/21/5 317/21/5
f 324/21/5 318/21/5 323/21/5
f 325/23/5 321/23/5 320/23/5
f 326/23/5 321/23/5 325/23/5
f 327/24/5 323/24/5 322/24/5
f 328/24/5 323/24/5 327/24/5
f 329/13/6 330/13/6 334/13/6
f 334/13/6 330/13/6 335/13/6
f 331/15/6 332/15/6 336/15/6
f 336/15/6 332/15/6 337/15/6
f 333/16/6 334/16/6 339/16/6
f 339/16/6 334/16/6 340/16/6
f 337/16/6 338/16/6 341/16/6
f 341/16/6 338/16/6 342/16/6
f 343/22/6 344/22/6 347/22/6
f 347/22/6 344/22/6 348/22/6
f 345/21/6 346/21/6 351/21/6
f 351/21/6 346/21/6 352/21/6
f 348/23/6 349/23/6 353/23/6
f 353/23/6 349/23/6 354/23/6
f 350/24/6 351/24/6 355/24/6
f 355/24/6 351/24/6 356/24/6
f 357/25/6 358/25/6 360/25/6
f 360/25/6 358/25/6 361/25/6
f 359/25/6 360/25/6 364/25/6
f 364/25/6 360/25/6 365/25/6
f 361/25/6 362/25/6 366/25/6
f 366/25/6 362/25/6 367/25/6
f 363/25/6 364/25/6 369/25/6
f 369/25/6 364/25/6 370/25/6
f 367/25/6 368/25/6 373/25/6
f 373/25/6 368/25/6 374/25/6
f 370/25/6 371/25/6 375/25/6
f 375/25/6 371/25/6 376/25/6
f 372/25/6 373/25/6 377/25/6
f 377/25/6 373/25/6 378/25/6
f 376/25/6 377/25/6 379/25/6
f 379/25/6 377/25/6 380/25/6
f 381/25/6 382/25/6 384/25/6
f 384/25/6 382/25/6 385/25/6
f 383/25/6 384/25/6 387/25/6
f 387/25/6 384/25/6 388/25/6
f 385/25/6 386/25/6 389/25/6
f 389/25/6 386/25/6 390/25/6
f 388/25/6 389/25/6 391/25/6
f 391/25/6 389/25/6 392/25/6
f 393/27/6 394/27/6 395/27/6
f 395/27/6 394/27/6 396/27/6
