# MagicaVoxel @ ephtracy

# material
mtllib bob_moon.mtl
usemtl palette

# normals
vn -1 0 0
vn 1 0 0
vn 0 0 1
vn 0 0 -1
vn 0 -1 0
vn 0 1 0

# texcoords
vt 0.00195313 0.5
vt 0.00585938 0.5
vt 0.00976563 0.5
vt 0.0136719 0.5
vt 0.0175781 0.5
vt 0.0214844 0.5
vt 0.0253906 0.5
vt 0.0292969 0.5
vt 0.0332031 0.5
vt 0.0371094 0.5
vt 0.0410156 0.5
vt 0.0449219 0.5
vt 0.0488281 0.5
vt 0.0527344 0.5

# verts
v -4.5 1 0.5
v -4.5 1 -0.5
v -4.5 2 1.5
v -4.5 2 0.5
v -4.5 2 -0.5
v -4.5 2 -1.5
v -4.5 3 1.5
v -4.5 3 0.5
v -4.5 3 -0.5
v -4.5 3 -1.5
v -4.5 4 0.5
v -4.5 4 -0.5
v -3.5 0 0.5
v -3.5 0 -0.5
v -3.5 1 1.5
v -3.5 1 0.5
v -3.5 1 -0.5
v -3.5 1 -1.5
v -3.5 2 2.5
v -3.5 2 1.5
v -3.5 2 0.5
v -3.5 2 -0.5
v -3.5 2 -1.5
v -3.5 2 -2.5
v -3.5 3 2.5
v -3.5 3 1.5
v -3.5 3 0.5
v -3.5 3 -0.5
v -3.5 3 -1.5
v -3.5 3 -2.5
v -3.5 4 1.5
v -3.5 4 0.5
v -3.5 4 -0.5
v -3.5 4 -1.5
v -3.5 5 0.5
v -3.5 5 -0.5
v -2.5 0 1.5
v -2.5 0 0.5
v -2.5 0 -0.5
v -2.5 0 -1.5
v -2.5 1 2.5
v -2.5 1 1.5
v -2.5 1 0.5
v -2.5 1 -0.5
v -2.5 1 -1.5
v -2.5 1 -2.5
v -2.5 2 2.5
v -2.5 2 1.5
v -2.5 2 -1.5
v -2.5 2 -2.5
v -2.5 3 2.5
v -2.5 3 1.5
v -2.5 3 -1.5
v -2.5 3 -2.5
v -2.5 4 2.5
v -2.5 4 1.5
v -2.5 4 0.5
v -2.5 4 -0.5
v -2.5 4 -1.5
v -2.5 4 -2.5
v -2.5 5 1.5
v -2.5 5 0.5
v -2.5 5 -0.5
v -2.5 5 -1.5
v -2.5 6 0.5
v -2.5 6 -0.5
v -1.5 0 1.5
v -1.5 0 0.5
v -1.5 0 -0.5
v -1.5 0 -1.5
v -1.5 1 2.5
v -1.5 1 1.5
v -1.5 1 0.5
v -1.5 1 -0.5
v -1.5 1 -1.5
v -1.5 1 -2.5
v -1.5 2 2.5
v -1.5 2 1.5
v -1.5 2 -1.5
v -1.5 2 -2.5
v -1.5 3 2.5
v -1.5 3 1.5
v -1.5 3 -1.5
v -1.5 3 -2.5
v -1.5 4 2.5
v -1.5 4 1.5
v -1.5 4 0.5
v -1.5 4 -0.5
v -1.5 4 -1.5
v -1.5 4 -2.5
v -1.5 5 1.5
v -1.5 5 0.5
v -1.5 5 -0.5
v -1.5 5 -1.5
v -1.5 6 0.5
v -1.5 6 -0.5
v -0.5 0 0.5
v -0.5 0 -0.5
v -0.5 1 1.5
v -0.5 1 0.5
v -0.5 1 -0.5
v -0.5 1 -1.5
v -0.5 2 2.5
v -0.5 2 1.5
v -0.5 2 0.5
v -0.5 2 -0.5
v -0.5 2 -1.5
v -0.5 2 -2.5
v -0.5 3 2.5
v -0.5 3 1.5
v -0.5 3 0.5
v -0.5 3 -0.5
v -0.5 3 -1.5
v -0.5 3 -2.5
v -0.5 4 1.5
v -0.5 4 0.5
v -0.5 4 -0.5
v -0.5 4 -1.5
v -0.5 5 0.5
v -0.5 5 -0.5
v 0.5 1 0.5
v 0.5 1 -0.5
v 0.5 2 1.5
v 0.5 2 0.5
v 0.5 2 -0.5
v 0.5 2 -1.5
v 0.5 3 1.5
v 0.5 3 0.5
v 0.5 3 -0.5
v 0.5 3 -1.5
v 0.5 4 0.5
v 0.5 4 -0.5
v -3.5 2 2.5
v -3.5 3 2.5
v -2.5 1 2.5
v -2.5 2 2.5
v -2.5 3 2.5
v -2.5 4 2.5
v -1.5 1 2.5
v -1.5 2 2.5
v -1.5 3 2.5
v -1.5 4 2.5
v -0.5 2 2.5
v -0.5 3 2.5
v -4.5 2 1.5
v -4.5 3 1.5
v -3.5 1 1.5
v -3.5 2 1.5
v -3.5 3 1.5
v -3.5 4 1.5
v -2.5 0 1.5
v -2.5 1 1.5
v -2.5 2 1.5
v -2.5 3 1.5
v -2.5 4 1.5
v -2.5 5 1.5
v -1.5 0 1.5
v -1.5 1 1.5
v -1.5 2 1.5
v -1.5 3 1.5
v -1.5 4 1.5
v -1.5 5 1.5
v -0.5 1 1.5
v -0.5 2 1.5
v -0.5 3 1.5
v -0.5 4 1.5
v 0.5 2 1.5
v 0.5 3 1.5
v -4.5 1 0.5
v -4.5 2 0.5
v -4.5 3 0.5
v -4.5 4 0.5
v -3.5 0 0.5
v -3.5 1 0.5
v -3.5 2 0.5
v -3.5 3 0.5
v -3.5 4 0.5
v -3.5 5 0.5
v -2.5 0 0.5
v -2.5 1 0.5
v -2.5 4 0.5
v -2.5 5 0.5
v -2.5 6 0.5
v -1.5 0 0.5
v -1.5 1 0.5
v -1.5 4 0.5
v -1.5 5 0.5
v -1.5 6 0.5
v -0.5 0 0.5
v -0.5 1 0.5
v -0.5 2 0.5
v -0.5 3 0.5
v -0.5 4 0.5
v -0.5 5 0.5
v 0.5 1 0.5
v 0.5 2 0.5
v 0.5 3 0.5
v 0.5 4 0.5
v -4.5 1 -0.5
v -4.5 2 -0.5
v -4.5 3 -0.5
v -4.5 4 -0.5
v -3.5 0 -0.5
v -3.5 1 -0.5
v -3.5 2 -0.5
v -3.5 3 -0.5
v -3.5 4 -0.5
v -3.5 5 -0.5
v -2.5 0 -0.5
v -2.5 1 -0.5
v -2.5 4 -0.5
v -2.5 5 -0.5
v -2.5 6 -0.5
v -1.5 0 -0.5
v -1.5 1 -0.5
v -1.5 4 -0.5
v -1.5 5 -0.5
v -1.5 6 -0.5
v -0.5 0 -0.5
v -0.5 1 -0.5
v -0.5 2 -0.5
v -0.5 3 -0.5
v -0.5 4 -0.5
v -0.5 5 -0.5
v 0.5 1 -0.5
v 0.5 2 -0.5
v 0.5 3 -0.5
v 0.5 4 -0.5
v -4.5 2 -1.5
v -4.5 3 -1.5
v -3.5 1 -1.5
v -3.5 2 -1.5
v -3.5 3 -1.5
v -3.5 4 -1.5
v -2.5 0 -1.5
v -2.5 1 -1.5
v -2.5 2 -1.5
v -2.5 3 -1.5
v -2.5 4 -1.5
v -2.5 5 -1.5
v -1.5 0 -1.5
v -1.5 1 -1.5
v -1.5 2 -1.5
v -1.5 3 -1.5
v -1.5 4 -1.5
v -1.5 5 -1.5
v -0.5 1 -1.5
v -0.5 2 -1.5
v -0.5 3 -1.5
v -0.5 4 -1.5
v 0.5 2 -1.5
v 0.5 3 -1.5
v -3.5 2 -2.5
v -3.5 3 -2.5
v -2.5 1 -2.5
v -2.5 2 -2.5
v -2.5 3 -2.5
v -2.5 4 -2.5
v -1.5 1 -2.5
v -1.5 2 -2.5
v -1.5 3 -2.5
v -1.5 4 -2.5
v -0.5 2 -2.5
v -0.5 3 -2.5
v -2.5 0 1.5
v -1.5 0 1.5
v -3.5 0 0.5
v -2.5 0 0.5
v -1.5 0 0.5
v -0.5 0 0.5
v -3.5 0 -0.5
v -2.5 0 -0.5
v -1.5 0 -0.5
v -0.5 0 -0.5
v -2.5 0 -1.5
v -1.5 0 -1.5
v -2.5 1 2.5
v -1.5 1 2.5
v -3.5 1 1.5
v -2.5 1 1.5
v -1.5 1 1.5
v -0.5 1 1.5
v -4.5 1 0.5
v -3.5 1 0.5
v -2.5 1 0.5
v -1.5 1 0.5
v -0.5 1 0.5
v 0.5 1 0.5
v -4.5 1 -0.5
v -3.5 1 -0.5
v -2.5 1 -0.5
v -1.5 1 -0.5
v -0.5 1 -0.5
v 0.5 1 -0.5
v -3.5 1 -1.5
v -2.5 1 -1.5
v -1.5 1 -1.5
v -0.5 1 -1.5
v -2.5 1 -2.5
v -1.5 1 -2.5
v -3.5 2 2.5
v -2.5 2 2.5
v -1.5 2 2.5
v -0.5 2 2.5
v -4.5 2 1.5
v -3.5 2 1.5
v -2.5 2 1.5
v -1.5 2 1.5
v -0.5 2 1.5
v 0.5 2 1.5
v -4.5 2 0.5
v -3.5 2 0.5
v -0.5 2 0.5
v 0.5 2 0.5
v -4.5 2 -0.5
v -3.5 2 -0.5
v -0.5 2 -0.5
v 0.5 2 -0.5
v -4.5 2 -1.5
v -3.5 2 -1.5
v -2.5 2 -1.5
v -1.5 2 -1.5
v -0.5 2 -1.5
v 0.5 2 -1.5
v -3.5 2 -2.5
v -2.5 2 -2.5
v -1.5 2 -2.5
v -0.5 2 -2.5
v -3.5 3 2.5
v -2.5 3 2.5
v -1.5 3 2.5
v -0.5 3 2.5
v -4.5 3 1.5
v -3.5 3 1.5
v -2.5 3 1.5
v -1.5 3 1.5
v -0.5 3 1.5
v 0.5 3 1.5
v -4.5 3 0.5
v -3.5 3 0.5
v -0.5 3 0.5
v 0.5 3 0.5
v -4.5 3 -0.5
v -3.5 3 -0.5
v -0.5 3 -0.5
v 0.5 3 -0.5
v -4.5 3 -1.5
v -3.5 3 -1.5
v -2.5 3 -1.5
v -1.5 3 -1.5
v -0.5 3 -1.5
v 0.5 3 -1.5
v -3.5 3 -2.5
v -2.5 3 -2.5
v -1.5 3 -2.5
v -0.5 3 -2.5
v -2.5 4 2.5
v -1.5 4 2.5
v -3.5 4 1.5
v -2.5 4 1.5
v -1.5 4 1.5
v -0.5 4 1.5
v -4.5 4 0.5
v -3.5 4 0.5
v -2.5 4 0.5
v -1.5 4 0.5
v -0.5 4 0.5
v 0.5 4 0.5
v -4.5 4 -0.5
v -3.5 4 -0.5
v -2.5 4 -0.5
v -1.5 4 -0.5
v -0.5 4 -0.5
v 0.5 4 -0.5
v -3.5 4 -1.5
v -2.5 4 -1.5
v -1.5 4 -1.5
v -0.5 4 -1.5
v -2.5 4 -2.5
v -1.5 4 -2.5
v -2.5 5 1.5
v -1.5 5 1.5
v -3.5 5 0.5
v -2.5 5 0.5
v -1.5 5 0.5
v -0.5 5 0.5
v -3.5 5 -0.5
v -2.5 5 -0.5
v -1.5 5 -0.5
v -0.5 5 -0.5
v -2.5 5 -1.5
v -1.5 5 -1.5
v -2.5 6 0.5
v -1.5 6 0.5
v -2.5 6 -0.5
v -1.5 6 -0.5

# faces
f 4/7/1 2/7/1 1/7/1
f 5/7/1 2/7/1 4/7/1
f 7/11/1 4/11/1 3/11/1
f 8/13/1 5/13/1 4/13/1
f 8/11/1 4/11/1 7/11/1
f 9/4/1 6/4/1 5/4/1
f 9/13/1 5/13/1 8/13/1
f 10/4/1 6/4/1 9/4/1
f 11/13/1 9/13/1 8/13/1
f 12/13/1 9/13/1 11/13/1
f 16/2/1 14/2/1 13/2/1
f 17/2/1 14/2/1 16/2/1
f 20/5/1 16/5/1 15/5/1
f 21/5/1 16/5/1 20/5/1
f 22/4/1 18/4/1 17/4/1
f 23/4/1 18/4/1 22/4/1
f 25/4/1 20/4/1 19/4/1
f 26/4/1 20/4/1 25/4/1
f 29/10/1 24/10/1 23/10/1
f 30/10/1 24/10/1 29/10/1
f 31/2/1 27/2/1 26/2/1
f 32/2/1 27/2/1 31/2/1
f 33/1/1 29/1/1 28/1/1
f 34/1/1 29/1/1 33/1/1
f 35/3/1 33/3/1 32/3/1
f 36/3/1 33/3/1 35/3/1
f 42/1/1 38/1/1 37/1/1
f 43/1/1 38/1/1 42/1/1
f 44/1/1 40/1/1 39/1/1
f 45/1/1 40/1/1 44/1/1
f 47/4/1 42/4/1 41/4/1
f 48/4/1 42/4/1 47/4/1
f 49/9/1 46/9/1 45/9/1
f 50/9/1 46/9/1 49/9/1
f 55/4/1 52/4/1 51/4/1
f 56/4/1 52/4/1 55/4/1
f 59/3/1 54/3/1 53/3/1
f 60/3/1 54/3/1 59/3/1
f 61/1/1 57/1/1 56/1/1
f 62/1/1 57/1/1 61/1/1
f 63/4/1 59/4/1 58/4/1
f 64/4/1 59/4/1 63/4/1
f 65/4/1 63/4/1 62/4/1
f 66/4/1 63/4/1 65/4/1
f 67/1/2 68/1/2 72/1/2
f 72/1/2 68/1/2 73/1/2
f 69/1/2 70/1/2 74/1/2
f 74/1/2 70/1/2 75/1/2
f 71/4/2 72/4/2 77/4/2
f 77/4/2 72/4/2 78/4/2
f 75/9/2 76/9/2 79/9/2
f 79/9/2 76/9/2 80/9/2
f 81/4/2 82/4/2 85/4/2
f 85/4/2 82/4/2 86/4/2
f 83/3/2 84/3/2 89/3/2
f 89/3/2 84/3/2 90/3/2
f 86/1/2 87/1/2 91/1/2
f 91/1/2 87/1/2 92/1/2
f 88/4/2 89/4/2 93/4/2
f 93/4/2 89/4/2 94/4/2
f 92/4/2 93/4/2 95/4/2
f 95/4/2 93/4/2 96/4/2
f 97/1/2 98/1/2 100/1/2
f 100/1/2 98/1/2 101/1/2
f 99/6/2 100/6/2 104/6/2
f 104/6/2 100/6/2 105/6/2
f 101/8/2 102/8/2 106/8/2
f 106/8/2 102/8/2 107/8/2
f 103/10/2 104/10/2 109/10/2
f 109/10/2 104/10/2 110/10/2
f 107/1/2 108/1/2 113/1/2
f 113/1/2 108/1/2 114/1/2
f 110/13/2 111/13/2 115/13/2
f 115/13/2 111/13/2 116/13/2
f 112/4/2 113/4/2 117/4/2
f 117/4/2 113/4/2 118/4/2
f 116/2/2 117/2/2 119/2/2
f 119/2/2 117/2/2 120/2/2
f 121/3/2 122/3/2 124/3/2
f 124/3/2 122/3/2 125/3/2
f 123/12/2 124/12/2 127/12/2
f 124/6/2 125/6/2 128/6/2
f 127/12/2 124/12/2 128/12/2
f 125/3/2 126/3/2 129/3/2
f 128/6/2 125/6/2 129/6/2
f 129/3/2 126/3/2 130/3/2
f 128/7/2 129/7/2 131/7/2
f 131/7/2 129/7/2 132/7/2
f 136/4/3 134/4/3 133/4/3
f 137/4/3 134/4/3 136/4/3
f 139/4/3 136/4/3 135/4/3
f 140/1/3 137/1/3 136/1/3
f 140/4/3 136/4/3 139/4/3
f 141/4/3 138/4/3 137/4/3
f 141/1/3 137/1/3 140/1/3
f 142/4/3 138/4/3 141/4/3
f 143/10/3 141/10/3 140/10/3
f 144/10/3 141/10/3 143/10/3
f 148/11/3 146/11/3 145/11/3
f 149/11/3 146/11/3 148/11/3
f 152/5/3 148/5/3 147/5/3
f 153/5/3 148/5/3 152/5/3
f 154/2/3 150/2/3 149/2/3
f 155/2/3 150/2/3 154/2/3
f 157/1/3 152/1/3 151/1/3
f 158/1/3 152/1/3 157/1/3
f 161/1/3 156/1/3 155/1/3
f 162/1/3 156/1/3 161/1/3
f 163/6/3 159/6/3 158/6/3
f 164/6/3 159/6/3 163/6/3
f 165/13/3 161/13/3 160/13/3
f 166/13/3 161/13/3 165/13/3
f 167/12/3 165/12/3 164/12/3
f 168/12/3 165/12/3 167/12/3
f 174/7/3 170/7/3 169/7/3
f 175/7/3 170/7/3 174/7/3
f 176/13/3 172/13/3 171/13/3
f 177/13/3 172/13/3 176/13/3
f 179/2/3 174/2/3 173/2/3
f 180/2/3 174/2/3 179/2/3
f 181/3/3 178/3/3 177/3/3
f 182/3/3 178/3/3 181/3/3
f 187/4/3 183/4/3 182/4/3
f 188/4/3 183/4/3 187/4/3
f 189/1/3 185/1/3 184/1/3
f 190/1/3 185/1/3 189/1/3
f 193/2/3 187/2/3 186/2/3
f 194/2/3 187/2/3 193/2/3
f 195/3/3 191/3/3 190/3/3
f 196/3/3 191/3/3 195/3/3
f 197/7/3 193/7/3 192/7/3
f 198/7/3 193/7/3 197/7/3
f 199/7/4 200/7/4 204/7/4
f 204/7/4 200/7/4 205/7/4
f 201/13/4 202/13/4 206/13/4
f 206/13/4 202/13/4 207/13/4
f 203/2/4 204/2/4 209/2/4
f 209/2/4 204/2/4 210/2/4
f 207/3/4 208/3/4 211/3/4
f 211/3/4 208/3/4 212/3/4
f 212/4/4 213/4/4 217/4/4
f 217/4/4 213/4/4 218/4/4
f 214/1/4 215/1/4 219/1/4
f 219/1/4 215/1/4 220/1/4
f 216/2/4 217/2/4 223/2/4
f 223/2/4 217/2/4 224/2/4
f 220/3/4 221/3/4 225/3/4
f 225/3/4 221/3/4 226/3/4
f 222/7/4 223/7/4 227/7/4
f 227/7/4 223/7/4 228/7/4
f 229/4/4 230/4/4 232/4/4
f 232/4/4 230/4/4 233/4/4
f 231/4/4 232/4/4 236/4/4
f 236/4/4 232/4/4 237/4/4
f 233/1/4 234/1/4 238/1/4
f 238/1/4 234/1/4 239/1/4
f 235/1/4 236/1/4 241/1/4
f 241/1/4 236/1/4 242/1/4
f 239/4/4 240/4/4 245/4/4
f 245/4/4 240/4/4 246/4/4
f 242/8/4 243/8/4 247/8/4
f 247/8/4 243/8/4 248/8/4
f 244/4/4 245/4/4 249/4/4
f 249/4/4 245/4/4 250/4/4
f 248/3/4 249/3/4 251/3/4
f 251/3/4 249/3/4 252/3/4
f 253/10/4 254/10/4 256/10/4
f 256/10/4 254/10/4 257/10/4
f 255/9/4 256/9/4 259/9/4
f 256/6/4 257/6/4 260/6/4
f 259/9/4 256/9/4 260/9/4
f 257/3/4 258/3/4 261/3/4
f 260/6/4 257/6/4 261/6/4
f 261/3/4 258/3/4 262/3/4
f 260/1/4 261/1/4 263/1/4
f 263/1/4 261/1/4 264/1/4
f 268/1/5 266/1/5 265/1/5
f 269/1/5 266/1/5 268/1/5
f 271/2/5 268/2/5 267/2/5
f 272/3/5 269/3/5 268/3/5
f 272/2/5 268/2/5 271/2/5
f 273/1/5 270/1/5 269/1/5
f 273/3/5 269/3/5 272/3/5
f 274/1/5 270/1/5 273/1/5
f 275/1/5 273/1/5 272/1/5
f 276/1/5 273/1/5 275/1/5
f 280/4/5 278/4/5 277/4/5
f 281/4/5 278/4/5 280/4/5
f 284/5/5 280/5/5 279/5/5
f 285/5/5 280/5/5 284/5/5
f 286/6/5 282/6/5 281/6/5
f 287/6/5 282/6/5 286/6/5
f 289/7/5 284/7/5 283/7/5
f 290/7/5 284/7/5 289/7/5
f 293/3/5 288/3/5 287/3/5
f 294/3/5 288/3/5 293/3/5
f 295/4/5 291/4/5 290/4/5
f 296/4/5 291/4/5 295/4/5
f 297/8/5 293/8/5 292/8/5
f 298/8/5 293/8/5 297/8/5
f 299/9/5 297/9/5 296/9/5
f 300/9/5 297/9/5 299/9/5
f 306/4/5 302/4/5 301/4/5
f 307/4/5 302/4/5 306/4/5
f 308/10/5 304/10/5 303/10/5
f 309/10/5 304/10/5 308/10/5
f 311/11/5 306/11/5 305/11/5
f 312/11/5 306/11/5 311/11/5
f 313/12/5 310/12/5 309/12/5
f 314/12/5 310/12/5 313/12/5
f 319/4/5 316/4/5 315/4/5
f 320/4/5 316/4/5 319/4/5
f 323/3/5 318/3/5 317/3/5
f 324/3/5 318/3/5 323/3/5
f 325/10/5 321/10/5 320/10/5
f 326/10/5 321/10/5 325/10/5
f 327/1/5 323/1/5 322/1/5
f 328/1/5 323/1/5 327/1/5
f 329/4/6 330/4/6 334/4/6
f 334/4/6 330/4/6 335/4/6
f 331/10/6 332/10/6 336/10/6
f 336/10/6 332/10/6 337/10/6
f 333/11/6 334/11/6 339/11/6
f 339/11/6 334/11/6 340/11/6
f 337/12/6 338/12/6 341/12/6
f 341/12/6 338/12/6 342/12/6
f 343/4/6 344/4/6 347/4/6
f 347/4/6 344/4/6 348/4/6
f 345/3/6 346/3/6 351/3/6
f 351/3/6 346/3/6 352/3/6
f 348/10/6 349/10/6 353/10/6
f 353/10/6 349/10/6 354/10/6
f 350/1/6 351/1/6 355/1/6
f 355/1/6 351/1/6 356/1/6
f 357/4/6 358/4/6 360/4/6
f 360/4/6 358/4/6 361/4/6
f 359/2/6 360/2/6 364/2/6
f 364/2/6 360/2/6 365/2/6
f 361/13/6 362/13/6 366/13/6
f 366/13/6 362/13/6 367/13/6
f 363/13/6 364/13/6 369/13/6
f 369/13/6 364/13/6 370/13/6
f 367/7/6 368/7/6 373/7/6
f 373/7/6 368/7/6 374/7/6
f 370/1/6 371/1/6 375/1/6
f 375/1/6 371/1/6 376/1/6
f 372/4/6 373/4/6 377/4/6
f 377/4/6 373/4/6 378/4/6
f 376/3/6 377/3/6 379/3/6
f 379/3/6 377/3/6 380/3/6
f 381/1/6 382/1/6 384/1/6
f 384/1/6 382/1/6 385/1/6
f 383/3/6 384/3/6 387/3/6
f 387/3/6 384/3/6 388/3/6
f 385/2/6 386/2/6 389/2/6
f 389/2/6 386/2/6 390/2/6
f 388/4/6 389/4/6 391/4/6
f 391/4/6 389/4/6 392/4/6
f 393/4/6 394/4/6 395/4/6
f 395/4/6 394/4/6 396/4/6
