# MagicaVoxel @ ephtracy

# material
mtllib bob_ufo.mtl
usemtl palette

# normals
vn -1 0 0
vn 1 0 0
vn 0 0 1
vn 0 0 -1
vn 0 -1 0
vn 0 1 0

# texcoords
vt 0.00195313 0.5
vt 0.00585938 0.5
vt 0.00976563 0.5
vt 0.0136719 0.5
vt 0.0175781 0.5

# verts
v -4.5 1 0.5
v -4.5 1 -0.5
v -4.5 2 1.5
v -4.5 2 0.5
v -4.5 2 -0.5
v -4.5 2 -1.5
v -4.5 3 1.5
v -4.5 3 0.5
v -4.5 3 -0.5
v -4.5 3 -1.5
v -4.5 4 0.5
v -4.5 4 -0.5
v -3.5 0 0.5
v -3.5 0 -0.5
v -3.5 1 1.5
v -3.5 1 0.5
v -3.5 1 -0.5
v -3.5 1 -1.5
v -3.5 2 2.5
v -3.5 2 1.5
v -3.5 2 0.5
v -3.5 2 -0.5
v -3.5 2 -1.5
v -3.5 2 -2.5
v -3.5 3 2.5
v -3.5 3 1.5
v -3.5 3 0.5
v -3.5 3 -0.5
v -3.5 3 -1.5
v -3.5 3 -2.5
v -3.5 4 1.5
v -3.5 4 0.5
v -3.5 4 -0.5
v -3.5 4 -1.5
v -3.5 5 1.5
v -3.5 5 0.5
v -3.5 5 -0.5
v -3.5 5 -1.5
v -2.5 0 1.5
v -2.5 0 0.5
v -2.5 0 -0.5
v -2.5 0 -1.5
v -2.5 1 2.5
v -2.5 1 1.5
v -2.5 1 0.5
v -2.5 1 -0.5
v -2.5 1 -1.5
v -2.5 1 -2.5
v -2.5 2 2.5
v -2.5 2 1.5
v -2.5 2 -1.5
v -2.5 2 -2.5
v -2.5 3 2.5
v -2.5 3 1.5
v -2.5 3 -1.5
v -2.5 3 -2.5
v -2.5 4 2.5
v -2.5 4 1.5
v -2.5 4 -1.5
v -2.5 4 -2.5
v -2.5 5 1.5
v -2.5 5 0.5
v -2.5 5 -0.5
v -2.5 5 -1.5
v -2.5 6 2.5
v -2.5 6 1.5
v -2.5 6 0.5
v -2.5 6 -0.5
v -2.5 6 -1.5
v -2.5 6 -2.5
v -1.5 0 1.5
v -1.5 0 0.5
v -1.5 0 -0.5
v -1.5 0 -1.5
v -1.5 1 2.5
v -1.5 1 1.5
v -1.5 1 0.5
v -1.5 1 -0.5
v -1.5 1 -1.5
v -1.5 1 -2.5
v -1.5 2 2.5
v -1.5 2 1.5
v -1.5 2 -1.5
v -1.5 2 -2.5
v -1.5 3 2.5
v -1.5 3 1.5
v -1.5 3 -1.5
v -1.5 3 -2.5
v -1.5 4 2.5
v -1.5 4 1.5
v -1.5 4 -1.5
v -1.5 4 -2.5
v -1.5 5 1.5
v -1.5 5 0.5
v -1.5 5 -0.5
v -1.5 5 -1.5
v -1.5 6 2.5
v -1.5 6 1.5
v -1.5 6 0.5
v -1.5 6 -0.5
v -1.5 6 -1.5
v -1.5 6 -2.5
v -0.5 0 0.5
v -0.5 0 -0.5
v -0.5 1 1.5
v -0.5 1 0.5
v -0.5 1 -0.5
v -0.5 1 -1.5
v -0.5 2 2.5
v -0.5 2 1.5
v -0.5 2 0.5
v -0.5 2 -0.5
v -0.5 2 -1.5
v -0.5 2 -2.5
v -0.5 3 2.5
v -0.5 3 1.5
v -0.5 3 0.5
v -0.5 3 -0.5
v -0.5 3 -1.5
v -0.5 3 -2.5
v -0.5 4 1.5
v -0.5 4 0.5
v -0.5 4 -0.5
v -0.5 4 -1.5
v -0.5 5 1.5
v -0.5 5 0.5
v -0.5 5 -0.5
v -0.5 5 -1.5
v 0.5 1 0.5
v 0.5 1 -0.5
v 0.5 2 1.5
v 0.5 2 0.5
v 0.5 2 -0.5
v 0.5 2 -1.5
v 0.5 3 1.5
v 0.5 3 0.5
v 0.5 3 -0.5
v 0.5 3 -1.5
v 0.5 4 0.5
v 0.5 4 -0.5
v -3.5 2 2.5
v -3.5 3 2.5
v -2.5 1 2.5
v -2.5 2 2.5
v -2.5 3 2.5
v -2.5 4 2.5
v -2.5 6 2.5
v -1.5 1 2.5
v -1.5 2 2.5
v -1.5 3 2.5
v -1.5 4 2.5
v -1.5 6 2.5
v -0.5 2 2.5
v -0.5 3 2.5
v -4.5 2 1.5
v -4.5 3 1.5
v -3.5 1 1.5
v -3.5 2 1.5
v -3.5 3 1.5
v -3.5 4 1.5
v -3.5 5 1.5
v -2.5 0 1.5
v -2.5 1 1.5
v -2.5 2 1.5
v -2.5 3 1.5
v -2.5 4 1.5
v -2.5 5 1.5
v -1.5 0 1.5
v -1.5 1 1.5
v -1.5 2 1.5
v -1.5 3 1.5
v -1.5 4 1.5
v -1.5 5 1.5
v -0.5 1 1.5
v -0.5 2 1.5
v -0.5 3 1.5
v -0.5 4 1.5
v -0.5 5 1.5
v 0.5 2 1.5
v 0.5 3 1.5
v -4.5 1 0.5
v -4.5 2 0.5
v -4.5 3 0.5
v -4.5 4 0.5
v -3.5 0 0.5
v -3.5 1 0.5
v -3.5 2 0.5
v -3.5 3 0.5
v -3.5 4 0.5
v -2.5 0 0.5
v -2.5 1 0.5
v -2.5 5 0.5
v -2.5 6 0.5
v -1.5 0 0.5
v -1.5 1 0.5
v -1.5 5 0.5
v -1.5 6 0.5
v -0.5 0 0.5
v -0.5 1 0.5
v -0.5 2 0.5
v -0.5 3 0.5
v -0.5 4 0.5
v 0.5 1 0.5
v 0.5 2 0.5
v 0.5 3 0.5
v 0.5 4 0.5
v -2.5 5 -1.5
v -2.5 6 -1.5
v -1.5 5 -1.5
v -1.5 6 -1.5
v -2.5 5 1.5
v -2.5 6 1.5
v -1.5 5 1.5
v -1.5 6 1.5
v -4.5 1 -0.5
v -4.5 2 -0.5
v -4.5 3 -0.5
v -4.5 4 -0.5
v -3.5 0 -0.5
v -3.5 1 -0.5
v -3.5 2 -0.5
v -3.5 3 -0.5
v -3.5 4 -0.5
v -2.5 0 -0.5
v -2.5 1 -0.5
v -2.5 5 -0.5
v -2.5 6 -0.5
v -1.5 0 -0.5
v -1.5 1 -0.5
v -1.5 5 -0.5
v -1.5 6 -0.5
v -0.5 0 -0.5
v -0.5 1 -0.5
v -0.5 2 -0.5
v -0.5 3 -0.5
v -0.5 4 -0.5
v 0.5 1 -0.5
v 0.5 2 -0.5
v 0.5 3 -0.5
v 0.5 4 -0.5
v -4.5 2 -1.5
v -4.5 3 -1.5
v -3.5 1 -1.5
v -3.5 2 -1.5
v -3.5 3 -1.5
v -3.5 4 -1.5
v -3.5 5 -1.5
v -2.5 0 -1.5
v -2.5 1 -1.5
v -2.5 2 -1.5
v -2.5 3 -1.5
v -2.5 4 -1.5
v -2.5 5 -1.5
v -1.5 0 -1.5
v -1.5 1 -1.5
v -1.5 2 -1.5
v -1.5 3 -1.5
v -1.5 4 -1.5
v -1.5 5 -1.5
v -0.5 1 -1.5
v -0.5 2 -1.5
v -0.5 3 -1.5
v -0.5 4 -1.5
v -0.5 5 -1.5
v 0.5 2 -1.5
v 0.5 3 -1.5
v -3.5 2 -2.5
v -3.5 3 -2.5
v -2.5 1 -2.5
v -2.5 2 -2.5
v -2.5 3 -2.5
v -2.5 4 -2.5
v -2.5 6 -2.5
v -1.5 1 -2.5
v -1.5 2 -2.5
v -1.5 3 -2.5
v -1.5 4 -2.5
v -1.5 6 -2.5
v -0.5 2 -2.5
v -0.5 3 -2.5
v -2.5 0 1.5
v -1.5 0 1.5
v -3.5 0 0.5
v -2.5 0 0.5
v -1.5 0 0.5
v -0.5 0 0.5
v -3.5 0 -0.5
v -2.5 0 -0.5
v -1.5 0 -0.5
v -0.5 0 -0.5
v -2.5 0 -1.5
v -1.5 0 -1.5
v -2.5 1 2.5
v -1.5 1 2.5
v -3.5 1 1.5
v -2.5 1 1.5
v -1.5 1 1.5
v -0.5 1 1.5
v -4.5 1 0.5
v -3.5 1 0.5
v -2.5 1 0.5
v -1.5 1 0.5
v -0.5 1 0.5
v 0.5 1 0.5
v -4.5 1 -0.5
v -3.5 1 -0.5
v -2.5 1 -0.5
v -1.5 1 -0.5
v -0.5 1 -0.5
v 0.5 1 -0.5
v -3.5 1 -1.5
v -2.5 1 -1.5
v -1.5 1 -1.5
v -0.5 1 -1.5
v -2.5 1 -2.5
v -1.5 1 -2.5
v -3.5 2 2.5
v -2.5 2 2.5
v -1.5 2 2.5
v -0.5 2 2.5
v -4.5 2 1.5
v -3.5 2 1.5
v -2.5 2 1.5
v -1.5 2 1.5
v -0.5 2 1.5
v 0.5 2 1.5
v -4.5 2 0.5
v -3.5 2 0.5
v -0.5 2 0.5
v 0.5 2 0.5
v -4.5 2 -0.5
v -3.5 2 -0.5
v -0.5 2 -0.5
v 0.5 2 -0.5
v -4.5 2 -1.5
v -3.5 2 -1.5
v -2.5 2 -1.5
v -1.5 2 -1.5
v -0.5 2 -1.5
v 0.5 2 -1.5
v -3.5 2 -2.5
v -2.5 2 -2.5
v -1.5 2 -2.5
v -0.5 2 -2.5
v -3.5 3 2.5
v -2.5 3 2.5
v -1.5 3 2.5
v -0.5 3 2.5
v -4.5 3 1.5
v -3.5 3 1.5
v -2.5 3 1.5
v -1.5 3 1.5
v -0.5 3 1.5
v 0.5 3 1.5
v -4.5 3 0.5
v -3.5 3 0.5
v -0.5 3 0.5
v 0.5 3 0.5
v -4.5 3 -0.5
v -3.5 3 -0.5
v -0.5 3 -0.5
v 0.5 3 -0.5
v -4.5 3 -1.5
v -3.5 3 -1.5
v -2.5 3 -1.5
v -1.5 3 -1.5
v -0.5 3 -1.5
v 0.5 3 -1.5
v -3.5 3 -2.5
v -2.5 3 -2.5
v -1.5 3 -2.5
v -0.5 3 -2.5
v -4.5 4 0.5
v -3.5 4 0.5
v -0.5 4 0.5
v 0.5 4 0.5
v -4.5 4 -0.5
v -3.5 4 -0.5
v -0.5 4 -0.5
v 0.5 4 -0.5
v -3.5 5 1.5
v -2.5 5 1.5
v -1.5 5 1.5
v -0.5 5 1.5
v -3.5 5 0.5
v -2.5 5 0.5
v -1.5 5 0.5
v -0.5 5 0.5
v -3.5 5 -0.5
v -2.5 5 -0.5
v -1.5 5 -0.5
v -0.5 5 -0.5
v -3.5 5 -1.5
v -2.5 5 -1.5
v -1.5 5 -1.5
v -0.5 5 -1.5
v -2.5 6 2.5
v -1.5 6 2.5
v -2.5 6 1.5
v -1.5 6 1.5
v -2.5 6 0.5
v -1.5 6 0.5
v -2.5 6 -0.5
v -1.5 6 -0.5
v -2.5 6 -1.5
v -1.5 6 -1.5
v -2.5 6 -2.5
v -1.5 6 -2.5

# faces
f 4/1/1 2/1/1 1/1/1
f 5/1/1 2/1/1 4/1/1
f 7/2/1 4/2/1 3/2/1
f 7/2/1 6/2/1 5/2/1
f 7/2/1 5/2/1 4/2/1
f 8/2/1 6/2/1 7/2/1
f 9/2/1 6/2/1 8/2/1
f 10/2/1 6/2/1 9/2/1
f 11/3/1 9/3/1 8/3/1
f 12/3/1 9/3/1 11/3/1
f 16/1/1 14/1/1 13/1/1
f 17/1/1 14/1/1 16/1/1
f 20/1/1 16/1/1 15/1/1
f 21/1/1 16/1/1 20/1/1
f 22/1/1 18/1/1 17/1/1
f 23/1/1 18/1/1 22/1/1
f 25/2/1 20/2/1 19/2/1
f 26/2/1 20/2/1 25/2/1
f 29/2/1 24/2/1 23/2/1
f 30/2/1 24/2/1 29/2/1
f 31/3/1 27/3/1 26/3/1
f 32/3/1 27/3/1 31/3/1
f 33/3/1 29/3/1 28/3/1
f 34/3/1 29/3/1 33/3/1
f 35/4/1 32/4/1 31/4/1
f 36/3/1 33/3/1 32/3/1
f 36/4/1 32/4/1 35/4/1
f 37/4/1 34/4/1 33/4/1
f 37/3/1 33/3/1 36/3/1
f 38/4/1 34/4/1 37/4/1
f 44/1/1 40/1/1 39/1/1
f 45/1/1 40/1/1 44/1/1
f 46/1/1 42/1/1 41/1/1
f 47/1/1 42/1/1 46/1/1
f 49/1/1 44/1/1 43/1/1
f 50/1/1 44/1/1 49/1/1
f 51/1/1 48/1/1 47/1/1
f 52/1/1 48/1/1 51/1/1
f 57/3/1 54/3/1 53/3/1
f 58/3/1 54/3/1 57/3/1
f 59/3/1 56/3/1 55/3/1
f 60/3/1 56/3/1 59/3/1
f 61/4/1 58/4/1 57/4/1
f 64/4/1 60/4/1 59/4/1
f 65/4/1 61/4/1 57/4/1
f 66/4/1 61/4/1 65/4/1
f 67/2/1 63/2/1 62/2/1
f 68/2/1 63/2/1 67/2/1
f 69/4/1 60/4/1 64/4/1
f 70/4/1 60/4/1 69/4/1
f 71/1/2 72/1/2 76/1/2
f 76/1/2 72/1/2 77/1/2
f 73/1/2 74/1/2 78/1/2
f 78/1/2 74/1/2 79/1/2
f 75/1/2 76/1/2 81/1/2
f 81/1/2 76/1/2 82/1/2
f 79/1/2 80/1/2 83/1/2
f 83/1/2 80/1/2 84/1/2
f 85/3/2 86/3/2 89/3/2
f 89/3/2 86/3/2 90/3/2
f 87/3/2 88/3/2 91/3/2
f 91/3/2 88/3/2 92/3/2
f 89/4/2 90/4/2 93/4/2
f 91/4/2 92/4/2 96/4/2
f 89/4/2 93/4/2 97/4/2
f 97/4/2 93/4/2 98/4/2
f 94/2/2 95/2/2 99/2/2
f 99/2/2 95/2/2 100/2/2
f 96/4/2 92/4/2 101/4/2
f 101/4/2 92/4/2 102/4/2
f 103/1/2 104/1/2 106/1/2
f 106/1/2 104/1/2 107/1/2
f 105/1/2 106/1/2 110/1/2
f 110/1/2 106/1/2 111/1/2
f 107/1/2 108/1/2 112/1/2
f 112/1/2 108/1/2 113/1/2
f 109/2/2 110/2/2 115/2/2
f 115/2/2 110/2/2 116/2/2
f 113/2/2 114/2/2 119/2/2
f 119/2/2 114/2/2 120/2/2
f 116/3/2 117/3/2 121/3/2
f 121/3/2 117/3/2 122/3/2
f 118/3/2 119/3/2 123/3/2
f 123/3/2 119/3/2 124/3/2
f 121/4/2 122/4/2 125/4/2
f 122/3/2 123/3/2 126/3/2
f 125/4/2 122/4/2 126/4/2
f 123/4/2 124/4/2 127/4/2
f 126/3/2 123/3/2 127/3/2
f 127/4/2 124/4/2 128/4/2
f 129/1/2 130/1/2 132/1/2
f 132/1/2 130/1/2 133/1/2
f 131/2/2 132/2/2 135/2/2
f 133/2/2 134/2/2 135/2/2
f 132/2/2 133/2/2 135/2/2
f 135/2/2 134/2/2 136/2/2
f 136/2/2 134/2/2 137/2/2
f 137/2/2 134/2/2 138/2/2
f 136/3/2 137/3/2 139/3/2
f 139/3/2 137/3/2 140/3/2
f 144/2/3 142/2/3 141/2/3
f 145/2/3 142/2/3 144/2/3
f 148/1/3 144/1/3 143/1/3
f 149/2/3 145/2/3 144/2/3
f 149/1/3 144/1/3 148/1/3
f 150/3/3 146/3/3 145/3/3
f 150/2/3 145/2/3 149/2/3
f 151/4/3 147/4/3 146/4/3
f 151/3/3 146/3/3 150/3/3
f 152/4/3 147/4/3 151/4/3
f 153/2/3 150/2/3 149/2/3
f 154/2/3 150/2/3 153/2/3
f 158/2/3 156/2/3 155/2/3
f 159/2/3 156/2/3 158/2/3
f 163/1/3 158/1/3 157/1/3
f 164/1/3 158/1/3 163/1/3
f 165/3/3 160/3/3 159/3/3
f 166/4/3 161/4/3 160/4/3
f 166/3/3 160/3/3 165/3/3
f 167/4/3 161/4/3 166/4/3
f 168/1/3 163/1/3 162/1/3
f 169/1/3 163/1/3 168/1/3
f 174/1/3 170/1/3 169/1/3
f 175/1/3 170/1/3 174/1/3
f 176/3/3 172/3/3 171/3/3
f 177/4/3 173/4/3 172/4/3
f 177/3/3 172/3/3 176/3/3
f 178/4/3 173/4/3 177/4/3
f 179/2/3 176/2/3 175/2/3
f 180/2/3 176/2/3 179/2/3
f 186/1/3 182/1/3 181/1/3
f 187/1/3 182/1/3 186/1/3
f 188/3/3 184/3/3 183/3/3
f 189/3/3 184/3/3 188/3/3
f 190/1/3 186/1/3 185/1/3
f 191/1/3 186/1/3 190/1/3
f 196/2/3 193/2/3 192/2/3
f 197/2/3 193/2/3 196/2/3
f 198/1/3 195/1/3 194/1/3
f 199/1/3 195/1/3 198/1/3
f 203/1/3 200/1/3 199/1/3
f 204/1/3 200/1/3 203/1/3
f 205/3/3 202/3/3 201/3/3
f 206/3/3 202/3/3 205/3/3
f 209/4/3 208/4/3 207/4/3
f 210/4/3 208/4/3 209/4/3
f 211/4/4 212/4/4 213/4/4
f 213/4/4 212/4/4 214/4/4
f 215/1/4 216/1/4 220/1/4
f 220/1/4 216/1/4 221/1/4
f 217/3/4 218/3/4 222/3/4
f 222/3/4 218/3/4 223/3/4
f 219/1/4 220/1/4 224/1/4
f 224/1/4 220/1/4 225/1/4
f 226/2/4 227/2/4 230/2/4
f 230/2/4 227/2/4 231/2/4
f 228/1/4 229/1/4 232/1/4
f 232/1/4 229/1/4 233/1/4
f 233/1/4 234/1/4 237/1/4
f 237/1/4 234/1/4 238/1/4
f 235/3/4 236/3/4 239/3/4
f 239/3/4 236/3/4 240/3/4
f 241/2/4 242/2/4 244/2/4
f 244/2/4 242/2/4 245/2/4
f 243/1/4 244/1/4 249/1/4
f 249/1/4 244/1/4 250/1/4
f 245/3/4 246/3/4 251/3/4
f 246/4/4 247/4/4 252/4/4
f 251/3/4 246/3/4 252/3/4
f 252/4/4 247/4/4 253/4/4
f 248/1/4 249/1/4 254/1/4
f 254/1/4 249/1/4 255/1/4
f 255/1/4 256/1/4 260/1/4
f 260/1/4 256/1/4 261/1/4
f 257/3/4 258/3/4 262/3/4
f 258/4/4 259/4/4 263/4/4
f 262/3/4 258/3/4 263/3/4
f 263/4/4 259/4/4 264/4/4
f 261/2/4 262/2/4 265/2/4
f 265/2/4 262/2/4 266/2/4
f 267/2/4 268/2/4 270/2/4
f 270/2/4 268/2/4 271/2/4
f 269/1/4 270/1/4 274/1/4
f 270/2/4 271/2/4 275/2/4
f 274/1/4 270/1/4 275/1/4
f 271/3/4 272/3/4 276/3/4
f 275/2/4 271/2/4 276/2/4
f 272/4/4 273/4/4 277/4/4
f 276/3/4 272/3/4 277/3/4
f 277/4/4 273/4/4 278/4/4
f 275/2/4 276/2/4 279/2/4
f 279/2/4 276/2/4 280/2/4
f 284/1/5 282/1/5 281/1/5
f 285/1/5 282/1/5 284/1/5
f 287/1/5 284/1/5 283/1/5
f 287/1/5 286/1/5 285/1/5
f 287/1/5 285/1/5 284/1/5
f 288/1/5 286/1/5 287/1/5
f 289/1/5 286/1/5 288/1/5
f 290/1/5 286/1/5 289/1/5
f 291/1/5 289/1/5 288/1/5
f 292/1/5 289/1/5 291/1/5
f 296/1/5 294/1/5 293/1/5
f 297/1/5 294/1/5 296/1/5
f 300/1/5 296/1/5 295/1/5
f 301/1/5 296/1/5 300/1/5
f 302/1/5 298/1/5 297/1/5
f 303/1/5 298/1/5 302/1/5
f 305/1/5 300/1/5 299/1/5
f 306/1/5 300/1/5 305/1/5
f 309/1/5 304/1/5 303/1/5
f 310/1/5 304/1/5 309/1/5
f 311/1/5 307/1/5 306/1/5
f 312/1/5 307/1/5 311/1/5
f 313/1/5 309/1/5 308/1/5
f 314/1/5 309/1/5 313/1/5
f 315/1/5 313/1/5 312/1/5
f 316/1/5 313/1/5 315/1/5
f 322/2/5 318/2/5 317/2/5
f 323/2/5 318/2/5 322/2/5
f 324/2/5 320/2/5 319/2/5
f 325/2/5 320/2/5 324/2/5
f 327/2/5 322/2/5 321/2/5
f 328/2/5 322/2/5 327/2/5
f 329/2/5 326/2/5 325/2/5
f 330/2/5 326/2/5 329/2/5
f 335/2/5 332/2/5 331/2/5
f 336/2/5 332/2/5 335/2/5
f 339/2/5 334/2/5 333/2/5
f 340/2/5 334/2/5 339/2/5
f 341/2/5 337/2/5 336/2/5
f 342/2/5 337/2/5 341/2/5
f 343/2/5 339/2/5 338/2/5
f 344/2/5 339/2/5 343/2/5
f 345/2/6 346/2/6 350/2/6
f 350/2/6 346/2/6 351/2/6
f 347/2/6 348/2/6 352/2/6
f 352/2/6 348/2/6 353/2/6
f 349/2/6 350/2/6 355/2/6
f 355/2/6 350/2/6 356/2/6
f 353/2/6 354/2/6 357/2/6
f 357/2/6 354/2/6 358/2/6
f 359/2/6 360/2/6 363/2/6
f 363/2/6 360/2/6 364/2/6
f 361/2/6 362/2/6 367/2/6
f 367/2/6 362/2/6 368/2/6
f 364/2/6 365/2/6 369/2/6
f 369/2/6 365/2/6 370/2/6
f 366/2/6 367/2/6 371/2/6
f 371/2/6 367/2/6 372/2/6
f 373/3/6 374/3/6 377/3/6
f 377/3/6 374/3/6 378/3/6
f 375/3/6 376/3/6 379/3/6
f 379/3/6 376/3/6 380/3/6
f 381/4/6 382/4/6 385/4/6
f 383/4/6 384/4/6 385/4/6
f 382/4/6 383/4/6 385/4/6
f 385/4/6 384/4/6 386/4/6
f 386/4/6 384/4/6 387/4/6
f 387/4/6 384/4/6 388/4/6
f 385/3/6 386/3/6 389/3/6
f 389/3/6 386/3/6 390/3/6
f 387/3/6 388/3/6 391/3/6
f 391/3/6 388/3/6 392/3/6
f 389/4/6 390/4/6 393/4/6
f 390/4/6 391/4/6 393/4/6
f 391/4/6 392/4/6 393/4/6
f 393/4/6 392/4/6 394/4/6
f 394/4/6 392/4/6 395/4/6
f 395/4/6 392/4/6 396/4/6
f 397/4/6 398/4/6 399/4/6
f 399/4/6 398/4/6 400/4/6
f 401/2/6 402/2/6 403/2/6
f 403/2/6 402/2/6 404/2/6
f 405/4/6 406/4/6 407/4/6
f 407/4/6 406/4/6 408/4/6
