# MagicaVoxel @ ephtracy

# material
mtllib bob_saturn.mtl
usemtl palette

# normals
vn -1 0 0
vn 1 0 0
vn 0 0 1
vn 0 0 -1
vn 0 -1 0
vn 0 1 0

# texcoords
vt 0.00195313 0.5
vt 0.00585938 0.5
vt 0.00976563 0.5
vt 0.0136719 0.5
vt 0.0175781 0.5
vt 0.0214844 0.5
vt 0.0253906 0.5
vt 0.0292969 0.5
vt 0.0332031 0.5
vt 0.0371094 0.5
vt 0.0410156 0.5
vt 0.0449219 0.5
vt 0.0488281 0.5
vt 0.0527344 0.5
vt 0.0566406 0.5
vt 0.0605469 0.5
vt 0.0644531 0.5
vt 0.0683594 0.5

# verts
v -6.5 2 1.5
v -6.5 2 -1.5
v -6.5 3 1.5
v -6.5 3 -1.5
v -5.5 2 2.5
v -5.5 2 1.5
v -5.5 2 -1.5
v -5.5 2 -2.5
v -5.5 3 2.5
v -5.5 3 1.5
v -5.5 3 -1.5
v -5.5 3 -2.5
v -4.5 1 0.5
v -4.5 1 -0.5
v -4.5 2 3.5
v -4.5 2 2.5
v -4.5 2 1.5
v -4.5 2 0.5
v -4.5 2 -0.5
v -4.5 2 -1.5
v -4.5 2 -2.5
v -4.5 2 -3.5
v -4.5 3 3.5
v -4.5 3 2.5
v -4.5 3 1.5
v -4.5 3 0.5
v -4.5 3 -0.5
v -4.5 3 -1.5
v -4.5 3 -2.5
v -4.5 3 -3.5
v -4.5 4 0.5
v -4.5 4 -0.5
v -3.5 0 0.5
v -3.5 0 -0.5
v -3.5 1 1.5
v -3.5 1 0.5
v -3.5 1 -0.5
v -3.5 1 -1.5
v -3.5 2 4.5
v -3.5 2 3.5
v -3.5 2 2.5
v -3.5 2 1.5
v -3.5 2 0.5
v -3.5 2 -0.5
v -3.5 2 -1.5
v -3.5 2 -2.5
v -3.5 2 -3.5
v -3.5 2 -4.5
v -3.5 3 4.5
v -3.5 3 3.5
v -3.5 3 2.5
v -3.5 3 1.5
v -3.5 3 0.5
v -3.5 3 -0.5
v -3.5 3 -1.5
v -3.5 3 -2.5
v -3.5 3 -3.5
v -3.5 3 -4.5
v -3.5 4 1.5
v -3.5 4 0.5
v -3.5 4 -0.5
v -3.5 4 -1.5
v -3.5 5 0.5
v -3.5 5 -0.5
v -2.5 0 1.5
v -2.5 0 0.5
v -2.5 0 -0.5
v -2.5 0 -1.5
v -2.5 1 2.5
v -2.5 1 1.5
v -2.5 1 0.5
v -2.5 1 -0.5
v -2.5 1 -1.5
v -2.5 1 -2.5
v -2.5 2 2.5
v -2.5 2 1.5
v -2.5 2 -1.5
v -2.5 2 -2.5
v -2.5 3 2.5
v -2.5 3 1.5
v -2.5 3 -1.5
v -2.5 3 -2.5
v -2.5 4 2.5
v -2.5 4 1.5
v -2.5 4 0.5
v -2.5 4 -0.5
v -2.5 4 -1.5
v -2.5 4 -2.5
v -2.5 5 1.5
v -2.5 5 0.5
v -2.5 5 -0.5
v -2.5 5 -1.5
v -2.5 6 0.5
v -2.5 6 -0.5
v -0.5 2 3.5
v -0.5 2 2.5
v -0.5 2 -2.5
v -0.5 2 -3.5
v -0.5 3 3.5
v -0.5 3 2.5
v -0.5 3 -2.5
v -0.5 3 -3.5
v 0.5 2 2.5
v 0.5 2 1.5
v 0.5 2 -1.5
v 0.5 2 -2.5
v 0.5 3 2.5
v 0.5 3 1.5
v 0.5 3 -1.5
v 0.5 3 -2.5
v 1.5 2 1.5
v 1.5 2 -1.5
v 1.5 3 1.5
v 1.5 3 -1.5
v -5.5 2 1.5
v -5.5 2 -1.5
v -5.5 3 1.5
v -5.5 3 -1.5
v -4.5 2 2.5
v -4.5 2 1.5
v -4.5 2 -1.5
v -4.5 2 -2.5
v -4.5 3 2.5
v -4.5 3 1.5
v -4.5 3 -1.5
v -4.5 3 -2.5
v -3.5 2 3.5
v -3.5 2 2.5
v -3.5 2 -2.5
v -3.5 2 -3.5
v -3.5 3 3.5
v -3.5 3 2.5
v -3.5 3 -2.5
v -3.5 3 -3.5
v -1.5 0 1.5
v -1.5 0 0.5
v -1.5 0 -0.5
v -1.5 0 -1.5
v -1.5 1 2.5
v -1.5 1 1.5
v -1.5 1 0.5
v -1.5 1 -0.5
v -1.5 1 -1.5
v -1.5 1 -2.5
v -1.5 2 2.5
v -1.5 2 1.5
v -1.5 2 -1.5
v -1.5 2 -2.5
v -1.5 3 2.5
v -1.5 3 1.5
v -1.5 3 -1.5
v -1.5 3 -2.5
v -1.5 4 2.5
v -1.5 4 1.5
v -1.5 4 0.5
v -1.5 4 -0.5
v -1.5 4 -1.5
v -1.5 4 -2.5
v -1.5 5 1.5
v -1.5 5 0.5
v -1.5 5 -0.5
v -1.5 5 -1.5
v -1.5 6 0.5
v -1.5 6 -0.5
v -0.5 0 0.5
v -0.5 0 -0.5
v -0.5 1 1.5
v -0.5 1 0.5
v -0.5 1 -0.5
v -0.5 1 -1.5
v -0.5 2 4.5
v -0.5 2 3.5
v -0.5 2 2.5
v -0.5 2 1.5
v -0.5 2 0.5
v -0.5 2 -0.5
v -0.5 2 -1.5
v -0.5 2 -2.5
v -0.5 2 -3.5
v -0.5 2 -4.5
v -0.5 3 4.5
v -0.5 3 3.5
v -0.5 3 2.5
v -0.5 3 1.5
v -0.5 3 0.5
v -0.5 3 -0.5
v -0.5 3 -1.5
v -0.5 3 -2.5
v -0.5 3 -3.5
v -0.5 3 -4.5
v -0.5 4 1.5
v -0.5 4 0.5
v -0.5 4 -0.5
v -0.5 4 -1.5
v -0.5 5 0.5
v -0.5 5 -0.5
v 0.5 1 0.5
v 0.5 1 -0.5
v 0.5 2 3.5
v 0.5 2 2.5
v 0.5 2 1.5
v 0.5 2 0.5
v 0.5 2 -0.5
v 0.5 2 -1.5
v 0.5 2 -2.5
v 0.5 2 -3.5
v 0.5 3 3.5
v 0.5 3 2.5
v 0.5 3 1.5
v 0.5 3 0.5
v 0.5 3 -0.5
v 0.5 3 -1.5
v 0.5 3 -2.5
v 0.5 3 -3.5
v 0.5 4 0.5
v 0.5 4 -0.5
v 1.5 2 2.5
v 1.5 2 1.5
v 1.5 2 -1.5
v 1.5 2 -2.5
v 1.5 3 2.5
v 1.5 3 1.5
v 1.5 3 -1.5
v 1.5 3 -2.5
v 2.5 2 1.5
v 2.5 2 -1.5
v 2.5 3 1.5
v 2.5 3 -1.5
v -3.5 2 4.5
v -3.5 3 4.5
v -0.5 2 4.5
v -0.5 3 4.5
v -4.5 2 3.5
v -4.5 3 3.5
v -3.5 2 3.5
v -3.5 3 3.5
v -0.5 2 3.5
v -0.5 3 3.5
v 0.5 2 3.5
v 0.5 3 3.5
v -5.5 2 2.5
v -5.5 3 2.5
v -4.5 2 2.5
v -4.5 3 2.5
v -3.5 2 2.5
v -3.5 3 2.5
v -2.5 1 2.5
v -2.5 2 2.5
v -2.5 3 2.5
v -2.5 4 2.5
v -1.5 1 2.5
v -1.5 2 2.5
v -1.5 3 2.5
v -1.5 4 2.5
v -0.5 2 2.5
v -0.5 3 2.5
v 0.5 2 2.5
v 0.5 3 2.5
v 1.5 2 2.5
v 1.5 3 2.5
v -6.5 2 1.5
v -6.5 3 1.5
v -5.5 2 1.5
v -5.5 3 1.5
v -4.5 2 1.5
v -4.5 3 1.5
v -3.5 1 1.5
v -3.5 2 1.5
v -3.5 3 1.5
v -3.5 4 1.5
v -2.5 0 1.5
v -2.5 1 1.5
v -2.5 2 1.5
v -2.5 3 1.5
v -2.5 4 1.5
v -2.5 5 1.5
v -1.5 0 1.5
v -1.5 1 1.5
v -1.5 2 1.5
v -1.5 3 1.5
v -1.5 4 1.5
v -1.5 5 1.5
v -0.5 1 1.5
v -0.5 2 1.5
v -0.5 3 1.5
v -0.5 4 1.5
v 0.5 2 1.5
v 0.5 3 1.5
v 1.5 2 1.5
v 1.5 3 1.5
v 2.5 2 1.5
v 2.5 3 1.5
v -4.5 1 0.5
v -4.5 2 0.5
v -4.5 3 0.5
v -4.5 4 0.5
v -3.5 0 0.5
v -3.5 1 0.5
v -3.5 2 0.5
v -3.5 3 0.5
v -3.5 4 0.5
v -3.5 5 0.5
v -2.5 0 0.5
v -2.5 1 0.5
v -2.5 4 0.5
v -2.5 5 0.5
v -2.5 6 0.5
v -1.5 0 0.5
v -1.5 1 0.5
v -1.5 4 0.5
v -1.5 5 0.5
v -1.5 6 0.5
v -0.5 0 0.5
v -0.5 1 0.5
v -0.5 2 0.5
v -0.5 3 0.5
v -0.5 4 0.5
v -0.5 5 0.5
v 0.5 1 0.5
v 0.5 2 0.5
v 0.5 3 0.5
v 0.5 4 0.5
v -5.5 2 -1.5
v -5.5 3 -1.5
v -4.5 2 -1.5
v -4.5 3 -1.5
v 0.5 2 -1.5
v 0.5 3 -1.5
v 1.5 2 -1.5
v 1.5 3 -1.5
v -4.5 2 -2.5
v -4.5 3 -2.5
v -3.5 2 -2.5
v -3.5 3 -2.5
v -0.5 2 -2.5
v -0.5 3 -2.5
v 0.5 2 -2.5
v 0.5 3 -2.5
v -3.5 2 -3.5
v -3.5 3 -3.5
v -0.5 2 -3.5
v -0.5 3 -3.5
v -3.5 2 3.5
v -3.5 3 3.5
v -0.5 2 3.5
v -0.5 3 3.5
v -4.5 2 2.5
v -4.5 3 2.5
v -3.5 2 2.5
v -3.5 3 2.5
v -0.5 2 2.5
v -0.5 3 2.5
v 0.5 2 2.5
v 0.5 3 2.5
v -5.5 2 1.5
v -5.5 3 1.5
v -4.5 2 1.5
v -4.5 3 1.5
v 0.5 2 1.5
v 0.5 3 1.5
v 1.5 2 1.5
v 1.5 3 1.5
v -4.5 1 -0.5
v -4.5 2 -0.5
v -4.5 3 -0.5
v -4.5 4 -0.5
v -3.5 0 -0.5
v -3.5 1 -0.5
v -3.5 2 -0.5
v -3.5 3 -0.5
v -3.5 4 -0.5
v -3.5 5 -0.5
v -2.5 0 -0.5
v -2.5 1 -0.5
v -2.5 4 -0.5
v -2.5 5 -0.5
v -2.5 6 -0.5
v -1.5 0 -0.5
v -1.5 1 -0.5
v -1.5 4 -0.5
v -1.5 5 -0.5
v -1.5 6 -0.5
v -0.5 0 -0.5
v -0.5 1 -0.5
v -0.5 2 -0.5
v -0.5 3 -0.5
v -0.5 4 -0.5
v -0.5 5 -0.5
v 0.5 1 -0.5
v 0.5 2 -0.5
v 0.5 3 -0.5
v 0.5 4 -0.5
v -6.5 2 -1.5
v -6.5 3 -1.5
v -5.5 2 -1.5
v -5.5 3 -1.5
v -4.5 2 -1.5
v -4.5 3 -1.5
v -3.5 1 -1.5
v -3.5 2 -1.5
v -3.5 3 -1.5
v -3.5 4 -1.5
v -2.5 0 -1.5
v -2.5 1 -1.5
v -2.5 2 -1.5
v -2.5 3 -1.5
v -2.5 4 -1.5
v -2.5 5 -1.5
v -1.5 0 -1.5
v -1.5 1 -1.5
v -1.5 2 -1.5
v -1.5 3 -1.5
v -1.5 4 -1.5
v -1.5 5 -1.5
v -0.5 1 -1.5
v -0.5 2 -1.5
v -0.5 3 -1.5
v -0.5 4 -1.5
v 0.5 2 -1.5
v 0.5 3 -1.5
v 1.5 2 -1.5
v 1.5 3 -1.5
v 2.5 2 -1.5
v 2.5 3 -1.5
v -5.5 2 -2.5
v -5.5 3 -2.5
v -4.5 2 -2.5
v -4.5 3 -2.5
v -3.5 2 -2.5
v -3.5 3 -2.5
v -2.5 1 -2.5
v -2.5 2 -2.5
v -2.5 3 -2.5
v -2.5 4 -2.5
v -1.5 1 -2.5
v -1.5 2 -2.5
v -1.5 3 -2.5
v -1.5 4 -2.5
v -0.5 2 -2.5
v -0.5 3 -2.5
v 0.5 2 -2.5
v 0.5 3 -2.5
v 1.5 2 -2.5
v 1.5 3 -2.5
v -4.5 2 -3.5
v -4.5 3 -3.5
v -3.5 2 -3.5
v -3.5 3 -3.5
v -0.5 2 -3.5
v -0.5 3 -3.5
v 0.5 2 -3.5
v 0.5 3 -3.5
v -3.5 2 -4.5
v -3.5 3 -4.5
v -0.5 2 -4.5
v -0.5 3 -4.5
v -2.5 0 1.5
v -1.5 0 1.5
v -3.5 0 0.5
v -2.5 0 0.5
v -1.5 0 0.5
v -0.5 0 0.5
v -3.5 0 -0.5
v -2.5 0 -0.5
v -1.5 0 -0.5
v -0.5 0 -0.5
v -2.5 0 -1.5
v -1.5 0 -1.5
v -2.5 1 2.5
v -1.5 1 2.5
v -3.5 1 1.5
v -2.5 1 1.5
v -1.5 1 1.5
v -0.5 1 1.5
v -4.5 1 0.5
v -3.5 1 0.5
v -2.5 1 0.5
v -1.5 1 0.5
v -0.5 1 0.5
v 0.5 1 0.5
v -4.5 1 -0.5
v -3.5 1 -0.5
v -2.5 1 -0.5
v -1.5 1 -0.5
v -0.5 1 -0.5
v 0.5 1 -0.5
v -3.5 1 -1.5
v -2.5 1 -1.5
v -1.5 1 -1.5
v -0.5 1 -1.5
v -2.5 1 -2.5
v -1.5 1 -2.5
v -3.5 2 4.5
v -0.5 2 4.5
v -4.5 2 3.5
v -3.5 2 3.5
v -0.5 2 3.5
v 0.5 2 3.5
v -5.5 2 2.5
v -4.5 2 2.5
v -3.5 2 2.5
v -2.5 2 2.5
v -1.5 2 2.5
v -0.5 2 2.5
v 0.5 2 2.5
v 1.5 2 2.5
v -6.5 2 1.5
v -5.5 2 1.5
v -4.5 2 1.5
v -3.5 2 1.5
v -2.5 2 1.5
v -1.5 2 1.5
v -0.5 2 1.5
v 0.5 2 1.5
v 1.5 2 1.5
v 2.5 2 1.5
v -4.5 2 0.5
v -3.5 2 0.5
v -0.5 2 0.5
v 0.5 2 0.5
v -4.5 2 -0.5
v -3.5 2 -0.5
v -0.5 2 -0.5
v 0.5 2 -0.5
v -6.5 2 -1.5
v -5.5 2 -1.5
v -4.5 2 -1.5
v -3.5 2 -1.5
v -2.5 2 -1.5
v -1.5 2 -1.5
v -0.5 2 -1.5
v 0.5 2 -1.5
v 1.5 2 -1.5
v 2.5 2 -1.5
v -5.5 2 -2.5
v -4.5 2 -2.5
v -3.5 2 -2.5
v -2.5 2 -2.5
v -1.5 2 -2.5
v -0.5 2 -2.5
v 0.5 2 -2.5
v 1.5 2 -2.5
v -4.5 2 -3.5
v -3.5 2 -3.5
v -0.5 2 -3.5
v 0.5 2 -3.5
v -3.5 2 -4.5
v -0.5 2 -4.5
v -3.5 3 4.5
v -0.5 3 4.5
v -4.5 3 3.5
v -3.5 3 3.5
v -0.5 3 3.5
v 0.5 3 3.5
v -5.5 3 2.5
v -4.5 3 2.5
v -3.5 3 2.5
v -2.5 3 2.5
v -1.5 3 2.5
v -0.5 3 2.5
v 0.5 3 2.5
v 1.5 3 2.5
v -6.5 3 1.5
v -5.5 3 1.5
v -4.5 3 1.5
v -3.5 3 1.5
v -2.5 3 1.5
v -1.5 3 1.5
v -0.5 3 1.5
v 0.5 3 1.5
v 1.5 3 1.5
v 2.5 3 1.5
v -4.5 3 0.5
v -3.5 3 0.5
v -0.5 3 0.5
v 0.5 3 0.5
v -4.5 3 -0.5
v -3.5 3 -0.5
v -0.5 3 -0.5
v 0.5 3 -0.5
v -6.5 3 -1.5
v -5.5 3 -1.5
v -4.5 3 -1.5
v -3.5 3 -1.5
v -2.5 3 -1.5
v -1.5 3 -1.5
v -0.5 3 -1.5
v 0.5 3 -1.5
v 1.5 3 -1.5
v 2.5 3 -1.5
v -5.5 3 -2.5
v -4.5 3 -2.5
v -3.5 3 -2.5
v -2.5 3 -2.5
v -1.5 3 -2.5
v -0.5 3 -2.5
v 0.5 3 -2.5
v 1.5 3 -2.5
v -4.5 3 -3.5
v -3.5 3 -3.5
v -0.5 3 -3.5
v 0.5 3 -3.5
v -3.5 3 -4.5
v -0.5 3 -4.5
v -2.5 4 2.5
v -1.5 4 2.5
v -3.5 4 1.5
v -2.5 4 1.5
v -1.5 4 1.5
v -0.5 4 1.5
v -4.5 4 0.5
v -3.5 4 0.5
v -2.5 4 0.5
v -1.5 4 0.5
v -0.5 4 0.5
v 0.5 4 0.5
v -4.5 4 -0.5
v -3.5 4 -0.5
v -2.5 4 -0.5
v -1.5 4 -0.5
v -0.5 4 -0.5
v 0.5 4 -0.5
v -3.5 4 -1.5
v -2.5 4 -1.5
v -1.5 4 -1.5
v -0.5 4 -1.5
v -2.5 4 -2.5
v -1.5 4 -2.5
v -2.5 5 1.5
v -1.5 5 1.5
v -3.5 5 0.5
v -2.5 5 0.5
v -1.5 5 0.5
v -0.5 5 0.5
v -3.5 5 -0.5
v -2.5 5 -0.5
v -1.5 5 -0.5
v -0.5 5 -0.5
v -2.5 5 -1.5
v -1.5 5 -1.5
v -2.5 6 0.5
v -1.5 6 0.5
v -2.5 6 -0.5
v -1.5 6 -0.5

# faces
f 3/14/1 2/14/1 1/14/1
f 4/14/1 2/14/1 3/14/1
f 9/14/1 6/14/1 5/14/1
f 10/14/1 6/14/1 9/14/1
f 11/14/1 8/14/1 7/14/1
f 12/14/1 8/14/1 11/14/1
f 18/8/1 14/8/1 13/8/1
f 19/8/1 14/8/1 18/8/1
f 23/14/1 16/14/1 15/14/1
f 24/14/1 16/14/1 23/14/1
f 25/15/1 18/15/1 17/15/1
f 25/15/1 19/15/1 18/15/1
f 25/15/1 20/15/1 19/15/1
f 26/15/1 20/15/1 25/15/1
f 27/15/1 20/15/1 26/15/1
f 28/15/1 20/15/1 27/15/1
f 29/14/1 22/14/1 21/14/1
f 30/14/1 22/14/1 29/14/1
f 31/16/1 27/16/1 26/16/1
f 32/16/1 27/16/1 31/16/1
f 36/2/1 34/2/1 33/2/1
f 37/2/1 34/2/1 36/2/1
f 42/7/1 36/7/1 35/7/1
f 43/7/1 36/7/1 42/7/1
f 44/6/1 38/6/1 37/6/1
f 45/6/1 38/6/1 44/6/1
f 49/14/1 40/14/1 39/14/1
f 50/14/1 40/14/1 49/14/1
f 51/15/1 42/15/1 41/15/1
f 52/15/1 42/15/1 51/15/1
f 55/15/1 46/15/1 45/15/1
f 56/15/1 46/15/1 55/15/1
f 57/14/1 48/14/1 47/14/1
f 58/14/1 48/14/1 57/14/1
f 59/16/1 53/16/1 52/16/1
f 60/16/1 53/16/1 59/16/1
f 61/16/1 55/16/1 54/16/1
f 62/16/1 55/16/1 61/16/1
f 63/17/1 61/17/1 60/17/1
f 64/17/1 61/17/1 63/17/1
f 70/1/1 66/1/1 65/1/1
f 71/1/1 66/1/1 70/1/1
f 72/5/1 68/5/1 67/5/1
f 73/5/1 68/5/1 72/5/1
f 75/6/1 70/6/1 69/6/1
f 76/6/1 70/6/1 75/6/1
f 77/13/1 74/13/1 73/13/1
f 78/13/1 74/13/1 77/13/1
f 83/16/1 80/16/1 79/16/1
f 84/16/1 80/16/1 83/16/1
f 87/16/1 82/16/1 81/16/1
f 88/16/1 82/16/1 87/16/1
f 89/17/1 85/17/1 84/17/1
f 90/17/1 85/17/1 89/17/1
f 91/17/1 87/17/1 86/17/1
f 92/17/1 87/17/1 91/17/1
f 93/17/1 91/17/1 90/17/1
f 94/17/1 91/17/1 93/17/1
f 99/14/1 96/14/1 95/14/1
f 100/14/1 96/14/1 99/14/1
f 101/14/1 98/14/1 97/14/1
f 102/14/1 98/14/1 101/14/1
f 107/14/1 104/14/1 103/14/1
f 108/14/1 104/14/1 107/14/1
f 109/14/1 106/14/1 105/14/1
f 110/14/1 106/14/1 109/14/1
f 113/14/1 112/14/1 111/14/1
f 114/14/1 112/14/1 113/14/1
f 115/14/2 116/14/2 117/14/2
f 117/14/2 116/14/2 118/14/2
f 119/14/2 120/14/2 123/14/2
f 123/14/2 120/14/2 124/14/2
f 121/14/2 122/14/2 125/14/2
f 125/14/2 122/14/2 126/14/2
f 127/14/2 128/14/2 131/14/2
f 131/14/2 128/14/2 132/14/2
f 129/14/2 130/14/2 133/14/2
f 133/14/2 130/14/2 134/14/2
f 135/1/2 136/1/2 140/1/2
f 140/1/2 136/1/2 141/1/2
f 137/5/2 138/5/2 142/5/2
f 142/5/2 138/5/2 143/5/2
f 139/6/2 140/6/2 145/6/2
f 145/6/2 140/6/2 146/6/2
f 143/13/2 144/13/2 147/13/2
f 147/13/2 144/13/2 148/13/2
f 149/16/2 150/16/2 153/16/2
f 153/16/2 150/16/2 154/16/2
f 151/16/2 152/16/2 157/16/2
f 157/16/2 152/16/2 158/16/2
f 154/17/2 155/17/2 159/17/2
f 159/17/2 155/17/2 160/17/2
f 156/17/2 157/17/2 161/17/2
f 161/17/2 157/17/2 162/17/2
f 160/17/2 161/17/2 163/17/2
f 163/17/2 161/17/2 164/17/2
f 165/4/2 166/4/2 168/4/2
f 168/4/2 166/4/2 169/4/2
f 167/4/2 168/4/2 174/4/2
f 174/4/2 168/4/2 175/4/2
f 169/12/2 170/12/2 176/12/2
f 176/12/2 170/12/2 177/12/2
f 171/14/2 172/14/2 181/14/2
f 181/14/2 172/14/2 182/14/2
f 173/15/2 174/15/2 183/15/2
f 183/15/2 174/15/2 184/15/2
f 177/15/2 178/15/2 187/15/2
f 187/15/2 178/15/2 188/15/2
f 179/14/2 180/14/2 189/14/2
f 189/14/2 180/14/2 190/14/2
f 184/16/2 185/16/2 191/16/2
f 191/16/2 185/16/2 192/16/2
f 186/16/2 187/16/2 193/16/2
f 193/16/2 187/16/2 194/16/2
f 192/17/2 193/17/2 195/17/2
f 195/17/2 193/17/2 196/17/2
f 197/1/2 198/1/2 202/1/2
f 202/1/2 198/1/2 203/1/2
f 199/14/2 200/14/2 207/14/2
f 207/14/2 200/14/2 208/14/2
f 201/15/2 202/15/2 209/15/2
f 202/15/2 203/15/2 209/15/2
f 203/15/2 204/15/2 209/15/2
f 209/15/2 204/15/2 210/15/2
f 210/15/2 204/15/2 211/15/2
f 211/15/2 204/15/2 212/15/2
f 205/14/2 206/14/2 213/14/2
f 213/14/2 206/14/2 214/14/2
f 210/16/2 211/16/2 215/16/2
f 215/16/2 211/16/2 216/16/2
f 217/14/2 218/14/2 221/14/2
f 221/14/2 218/14/2 222/14/2
f 219/14/2 220/14/2 223/14/2
f 223/14/2 220/14/2 224/14/2
f 225/14/2 226/14/2 227/14/2
f 227/14/2 226/14/2 228/14/2
f 231/14/3 230/14/3 229/14/3
f 232/14/3 230/14/3 231/14/3
f 235/14/3 234/14/3 233/14/3
f 236/14/3 234/14/3 235/14/3
f 239/14/3 238/14/3 237/14/3
f 240/14/3 238/14/3 239/14/3
f 243/14/3 242/14/3 241/14/3
f 244/14/3 242/14/3 243/14/3
f 248/15/3 246/15/3 245/15/3
f 249/15/3 246/15/3 248/15/3
f 251/6/3 248/6/3 247/6/3
f 252/15/3 249/15/3 248/15/3
f 252/6/3 248/6/3 251/6/3
f 253/16/3 250/16/3 249/16/3
f 253/15/3 249/15/3 252/15/3
f 254/16/3 250/16/3 253/16/3
f 255/15/3 253/15/3 252/15/3
f 256/15/3 253/15/3 255/15/3
f 259/14/3 258/14/3 257/14/3
f 260/14/3 258/14/3 259/14/3
f 263/14/3 262/14/3 261/14/3
f 264/14/3 262/14/3 263/14/3
f 268/15/3 266/15/3 265/15/3
f 269/15/3 266/15/3 268/15/3
f 272/7/3 268/7/3 267/7/3
f 273/7/3 268/7/3 272/7/3
f 274/16/3 270/16/3 269/16/3
f 275/16/3 270/16/3 274/16/3
f 277/1/3 272/1/3 271/1/3
f 278/1/3 272/1/3 277/1/3
f 281/17/3 276/17/3 275/17/3
f 282/17/3 276/17/3 281/17/3
f 283/4/3 279/4/3 278/4/3
f 284/4/3 279/4/3 283/4/3
f 285/16/3 281/16/3 280/16/3
f 286/16/3 281/16/3 285/16/3
f 287/15/3 285/15/3 284/15/3
f 288/15/3 285/15/3 287/15/3
f 291/14/3 290/14/3 289/14/3
f 292/14/3 290/14/3 291/14/3
f 298/8/3 294/8/3 293/8/3
f 299/8/3 294/8/3 298/8/3
f 300/16/3 296/16/3 295/16/3
f 301/16/3 296/16/3 300/16/3
f 303/2/3 298/2/3 297/2/3
f 304/2/3 298/2/3 303/2/3
f 305/17/3 302/17/3 301/17/3
f 306/17/3 302/17/3 305/17/3
f 311/17/3 307/17/3 306/17/3
f 312/17/3 307/17/3 311/17/3
f 313/4/3 309/4/3 308/4/3
f 314/4/3 309/4/3 313/4/3
f 317/17/3 311/17/3 310/17/3
f 318/17/3 311/17/3 317/17/3
f 319/1/3 315/1/3 314/1/3
f 320/1/3 315/1/3 319/1/3
f 321/16/3 317/16/3 316/16/3
f 322/16/3 317/16/3 321/16/3
f 325/14/3 324/14/3 323/14/3
f 326/14/3 324/14/3 325/14/3
f 329/14/3 328/14/3 327/14/3
f 330/14/3 328/14/3 329/14/3
f 333/14/3 332/14/3 331/14/3
f 334/14/3 332/14/3 333/14/3
f 337/14/3 336/14/3 335/14/3
f 338/14/3 336/14/3 337/14/3
f 341/14/3 340/14/3 339/14/3
f 342/14/3 340/14/3 341/14/3
f 343/14/4 344/14/4 345/14/4
f 345/14/4 344/14/4 346/14/4
f 347/14/4 348/14/4 349/14/4
f 349/14/4 348/14/4 350/14/4
f 351/14/4 352/14/4 353/14/4
f 353/14/4 352/14/4 354/14/4
f 355/14/4 356/14/4 357/14/4
f 357/14/4 356/14/4 358/14/4
f 359/14/4 360/14/4 361/14/4
f 361/14/4 360/14/4 362/14/4
f 363/8/4 364/8/4 368/8/4
f 368/8/4 364/8/4 369/8/4
f 365/16/4 366/16/4 370/16/4
f 370/16/4 366/16/4 371/16/4
f 367/2/4 368/2/4 373/2/4
f 373/2/4 368/2/4 374/2/4
f 371/17/4 372/17/4 375/17/4
f 375/17/4 372/17/4 376/17/4
f 376/17/4 377/17/4 381/17/4
f 381/17/4 377/17/4 382/17/4
f 378/4/4 379/4/4 383/4/4
f 383/4/4 379/4/4 384/4/4
f 380/17/4 381/17/4 387/17/4
f 387/17/4 381/17/4 388/17/4
f 384/1/4 385/1/4 389/1/4
f 389/1/4 385/1/4 390/1/4
f 386/16/4 387/16/4 391/16/4
f 391/16/4 387/16/4 392/16/4
f 393/14/4 394/14/4 395/14/4
f 395/14/4 394/14/4 396/14/4
f 397/15/4 398/15/4 400/15/4
f 400/15/4 398/15/4 401/15/4
f 399/6/4 400/6/4 404/6/4
f 404/6/4 400/6/4 405/6/4
f 401/16/4 402/16/4 406/16/4
f 406/16/4 402/16/4 407/16/4
f 403/5/4 404/5/4 409/5/4
f 409/5/4 404/5/4 410/5/4
f 407/17/4 408/17/4 413/17/4
f 413/17/4 408/17/4 414/17/4
f 410/12/4 411/12/4 415/12/4
f 415/12/4 411/12/4 416/12/4
f 412/16/4 413/16/4 417/16/4
f 417/16/4 413/16/4 418/16/4
f 416/15/4 417/15/4 419/15/4
f 419/15/4 417/15/4 420/15/4
f 421/14/4 422/14/4 423/14/4
f 423/14/4 422/14/4 424/14/4
f 425/14/4 426/14/4 427/14/4
f 427/14/4 426/14/4 428/14/4
f 429/15/4 430/15/4 432/15/4
f 432/15/4 430/15/4 433/15/4
f 431/13/4 432/13/4 435/13/4
f 432/15/4 433/15/4 436/15/4
f 435/13/4 432/13/4 436/13/4
f 433/16/4 434/16/4 437/16/4
f 436/15/4 433/15/4 437/15/4
f 437/16/4 434/16/4 438/16/4
f 436/15/4 437/15/4 439/15/4
f 439/15/4 437/15/4 440/15/4
f 441/14/4 442/14/4 443/14/4
f 443/14/4 442/14/4 444/14/4
f 445/14/4 446/14/4 447/14/4
f 447/14/4 446/14/4 448/14/4
f 449/14/4 450/14/4 451/14/4
f 451/14/4 450/14/4 452/14/4
f 453/14/4 454/14/4 455/14/4
f 455/14/4 454/14/4 456/14/4
f 460/1/5 458/1/5 457/1/5
f 461/1/5 458/1/5 460/1/5
f 463/2/5 460/2/5 459/2/5
f 464/3/5 461/3/5 460/3/5
f 464/2/5 460/2/5 463/2/5
f 465/4/5 462/4/5 461/4/5
f 465/3/5 461/3/5 464/3/5
f 466/4/5 462/4/5 465/4/5
f 467/5/5 465/5/5 464/5/5
f 468/5/5 465/5/5 467/5/5
f 472/6/5 470/6/5 469/6/5
f 473/6/5 470/6/5 472/6/5
f 476/7/5 472/7/5 471/7/5
f 477/7/5 472/7/5 476/7/5
f 478/4/5 474/4/5 473/4/5
f 479/4/5 474/4/5 478/4/5
f 481/8/5 476/8/5 475/8/5
f 482/8/5 476/8/5 481/8/5
f 485/1/5 480/1/5 479/1/5
f 486/1/5 480/1/5 485/1/5
f 487/6/5 483/6/5 482/6/5
f 488/6/5 483/6/5 487/6/5
f 489/12/5 485/12/5 484/12/5
f 490/12/5 485/12/5 489/12/5
f 491/13/5 489/13/5 488/13/5
f 492/13/5 489/13/5 491/13/5
f 496/14/5 494/14/5 493/14/5
f 497/14/5 494/14/5 496/14/5
f 500/14/5 496/14/5 495/14/5
f 501/14/5 496/14/5 500/14/5
f 504/14/5 498/14/5 497/14/5
f 505/14/5 498/14/5 504/14/5
f 508/14/5 500/14/5 499/14/5
f 509/14/5 500/14/5 508/14/5
f 510/15/5 502/15/5 501/15/5
f 511/15/5 502/15/5 510/15/5
f 512/15/5 504/15/5 503/15/5
f 513/15/5 504/15/5 512/15/5
f 514/14/5 506/14/5 505/14/5
f 515/14/5 506/14/5 514/14/5
f 517/15/5 510/15/5 509/15/5
f 518/15/5 510/15/5 517/15/5
f 519/15/5 514/15/5 513/15/5
f 520/15/5 514/15/5 519/15/5
f 525/14/5 508/14/5 507/14/5
f 526/14/5 508/14/5 525/14/5
f 527/15/5 522/15/5 521/15/5
f 528/15/5 522/15/5 527/15/5
f 531/15/5 524/15/5 523/15/5
f 532/15/5 524/15/5 531/15/5
f 533/14/5 516/14/5 515/14/5
f 534/14/5 516/14/5 533/14/5
f 535/14/5 527/14/5 526/14/5
f 536/14/5 527/14/5 535/14/5
f 537/15/5 529/15/5 528/15/5
f 538/15/5 529/15/5 537/15/5
f 539/15/5 531/15/5 530/15/5
f 540/15/5 531/15/5 539/15/5
f 541/14/5 533/14/5 532/14/5
f 542/14/5 533/14/5 541/14/5
f 543/14/5 537/14/5 536/14/5
f 544/14/5 537/14/5 543/14/5
f 545/14/5 541/14/5 540/14/5
f 546/14/5 541/14/5 545/14/5
f 547/14/5 545/14/5 544/14/5
f 548/14/5 545/14/5 547/14/5
f 549/14/6 550/14/6 552/14/6
f 552/14/6 550/14/6 553/14/6
f 551/14/6 552/14/6 556/14/6
f 556/14/6 552/14/6 557/14/6
f 553/14/6 554/14/6 560/14/6
f 560/14/6 554/14/6 561/14/6
f 555/14/6 556/14/6 564/14/6
f 564/14/6 556/14/6 565/14/6
f 557/15/6 558/15/6 566/15/6
f 566/15/6 558/15/6 567/15/6
f 559/15/6 560/15/6 568/15/6
f 568/15/6 560/15/6 569/15/6
f 561/14/6 562/14/6 570/14/6
f 570/14/6 562/14/6 571/14/6
f 565/15/6 566/15/6 573/15/6
f 573/15/6 566/15/6 574/15/6
f 569/15/6 570/15/6 575/15/6
f 575/15/6 570/15/6 576/15/6
f 563/14/6 564/14/6 581/14/6
f 581/14/6 564/14/6 582/14/6
f 577/15/6 578/15/6 583/15/6
f 583/15/6 578/15/6 584/15/6
f 579/15/6 580/15/6 587/15/6
f 587/15/6 580/15/6 588/15/6
f 571/14/6 572/14/6 589/14/6
f 589/14/6 572/14/6 590/14/6
f 582/14/6 583/14/6 591/14/6
f 591/14/6 583/14/6 592/14/6
f 584/15/6 585/15/6 593/15/6
f 593/15/6 585/15/6 594/15/6
f 586/15/6 587/15/6 595/15/6
f 595/15/6 587/15/6 596/15/6
f 588/14/6 589/14/6 597/14/6
f 597/14/6 589/14/6 598/14/6
f 592/14/6 593/14/6 599/14/6
f 599/14/6 593/14/6 600/14/6
f 596/14/6 597/14/6 601/14/6
f 601/14/6 597/14/6 602/14/6
f 600/14/6 601/14/6 603/14/6
f 603/14/6 601/14/6 604/14/6
f 605/16/6 606/16/6 608/16/6
f 608/16/6 606/16/6 609/16/6
f 607/16/6 608/16/6 612/16/6
f 612/16/6 608/16/6 613/16/6
f 609/16/6 610/16/6 614/16/6
f 614/16/6 610/16/6 615/16/6
f 611/16/6 612/16/6 617/16/6
f 617/16/6 612/16/6 618/16/6
f 615/16/6 616/16/6 621/16/6
f 621/16/6 616/16/6 622/16/6
f 618/16/6 619/16/6 623/16/6
f 623/16/6 619/16/6 624/16/6
f 620/16/6 621/16/6 625/16/6
f 625/16/6 621/16/6 626/16/6
f 624/16/6 625/16/6 627/16/6
f 627/16/6 625/16/6 628/16/6
f 629/17/6 630/17/6 632/17/6
f 632/17/6 630/17/6 633/17/6
f 631/17/6 632/17/6 635/17/6
f 635/17/6 632/17/6 636/17/6
f 633/17/6 634/17/6 637/17/6
f 637/17/6 634/17/6 638/17/6
f 636/17/6 637/17/6 639/17/6
f 639/17/6 637/17/6 640/17/6
f 641/17/6 642/17/6 643/17/6
f 643/17/6 642/17/6 644/17/6
