# MagicaVoxel @ ephtracy

# material
mtllib bob_kirby.mtl
usemtl palette

# normals
vn -1 0 0
vn 1 0 0
vn 0 0 1
vn 0 0 -1
vn 0 -1 0
vn 0 1 0

# texcoords
vt 0.00195313 0.5
vt 0.00585938 0.5
vt 0.00976563 0.5
vt 0.0136719 0.5
vt 0.0175781 0.5
vt 0.0214844 0.5
vt 0.0253906 0.5
vt 0.0292969 0.5
vt 0.0332031 0.5
vt 0.0371094 0.5
vt 0.0410156 0.5
vt 0.0449219 0.5
vt 0.0488281 0.5
vt 0.0527344 0.5
vt 0.0566406 0.5
vt 0.0605469 0.5
vt 0.0644531 0.5
vt 0.0683594 0.5
vt 0.0722656 0.5
vt 0.0761719 0.5
vt 0.0800781 0.5
vt 0.0839844 0.5

# verts
v -4.5 1 0.5
v -4.5 1 -0.5
v -4.5 2 1.5
v -4.5 2 0.5
v -4.5 2 -0.5
v -4.5 2 -1.5
v -4.5 3 1.5
v -4.5 3 0.5
v -4.5 3 -0.5
v -4.5 3 -1.5
v -4.5 4 0.5
v -4.5 4 -0.5
v -3.5 0 0.5
v -3.5 0 -0.5
v -3.5 1 1.5
v -3.5 1 0.5
v -3.5 1 -0.5
v -3.5 1 -1.5
v -3.5 2 2.5
v -3.5 2 1.5
v -3.5 2 0.5
v -3.5 2 -0.5
v -3.5 2 -1.5
v -3.5 2 -2.5
v -3.5 3 2.5
v -3.5 3 1.5
v -3.5 3 0.5
v -3.5 3 -0.5
v -3.5 3 -1.5
v -3.5 3 -2.5
v -3.5 4 1.5
v -3.5 4 0.5
v -3.5 4 -0.5
v -3.5 4 -1.5
v -3.5 5 0.5
v -3.5 5 -0.5
v -2.5 0 1.5
v -2.5 0 0.5
v -2.5 0 -0.5
v -2.5 0 -1.5
v -2.5 1 2.5
v -2.5 1 1.5
v -2.5 1 0.5
v -2.5 1 -0.5
v -2.5 1 -1.5
v -2.5 1 -2.5
v -2.5 2 2.5
v -2.5 2 1.5
v -2.5 2 -1.5
v -2.5 2 -2.5
v -2.5 3 2.5
v -2.5 3 1.5
v -2.5 3 -1.5
v -2.5 3 -2.5
v -2.5 4 2.5
v -2.5 4 1.5
v -2.5 4 0.5
v -2.5 4 -0.5
v -2.5 4 -1.5
v -2.5 4 -2.5
v -2.5 5 1.5
v -2.5 5 0.5
v -2.5 5 -0.5
v -2.5 5 -1.5
v -2.5 6 0.5
v -2.5 6 -0.5
v -1.5 0 1.5
v -1.5 0 0.5
v -1.5 0 -0.5
v -1.5 0 -1.5
v -1.5 1 2.5
v -1.5 1 1.5
v -1.5 1 0.5
v -1.5 1 -0.5
v -1.5 1 -1.5
v -1.5 1 -2.5
v -1.5 2 2.5
v -1.5 2 1.5
v -1.5 2 -1.5
v -1.5 2 -2.5
v -1.5 3 2.5
v -1.5 3 1.5
v -1.5 3 -1.5
v -1.5 3 -2.5
v -1.5 4 2.5
v -1.5 4 1.5
v -1.5 4 0.5
v -1.5 4 -0.5
v -1.5 4 -1.5
v -1.5 4 -2.5
v -1.5 5 1.5
v -1.5 5 0.5
v -1.5 5 -0.5
v -1.5 5 -1.5
v -1.5 6 0.5
v -1.5 6 -0.5
v -0.5 0 0.5
v -0.5 0 -0.5
v -0.5 1 1.5
v -0.5 1 0.5
v -0.5 1 -0.5
v -0.5 1 -1.5
v -0.5 2 2.5
v -0.5 2 1.5
v -0.5 2 0.5
v -0.5 2 -0.5
v -0.5 2 -1.5
v -0.5 2 -2.5
v -0.5 3 2.5
v -0.5 3 1.5
v -0.5 3 0.5
v -0.5 3 -0.5
v -0.5 3 -1.5
v -0.5 3 -2.5
v -0.5 4 1.5
v -0.5 4 0.5
v -0.5 4 -0.5
v -0.5 4 -1.5
v -0.5 5 0.5
v -0.5 5 -0.5
v 0.5 1 0.5
v 0.5 1 -0.5
v 0.5 2 1.5
v 0.5 2 0.5
v 0.5 2 -0.5
v 0.5 2 -1.5
v 0.5 3 1.5
v 0.5 3 0.5
v 0.5 3 -0.5
v 0.5 3 -1.5
v 0.5 4 0.5
v 0.5 4 -0.5
v -3.5 2 2.5
v -3.5 3 2.5
v -2.5 1 2.5
v -2.5 2 2.5
v -2.5 3 2.5
v -2.5 4 2.5
v -1.5 1 2.5
v -1.5 2 2.5
v -1.5 3 2.5
v -1.5 4 2.5
v -0.5 2 2.5
v -0.5 3 2.5
v -4.5 2 1.5
v -4.5 3 1.5
v -3.5 1 1.5
v -3.5 2 1.5
v -3.5 3 1.5
v -3.5 4 1.5
v -2.5 0 1.5
v -2.5 1 1.5
v -2.5 2 1.5
v -2.5 3 1.5
v -2.5 4 1.5
v -2.5 5 1.5
v -1.5 0 1.5
v -1.5 1 1.5
v -1.5 2 1.5
v -1.5 3 1.5
v -1.5 4 1.5
v -1.5 5 1.5
v -0.5 1 1.5
v -0.5 2 1.5
v -0.5 3 1.5
v -0.5 4 1.5
v 0.5 2 1.5
v 0.5 3 1.5
v -4.5 1 0.5
v -4.5 2 0.5
v -4.5 3 0.5
v -4.5 4 0.5
v -3.5 0 0.5
v -3.5 1 0.5
v -3.5 2 0.5
v -3.5 3 0.5
v -3.5 4 0.5
v -3.5 5 0.5
v -2.5 0 0.5
v -2.5 1 0.5
v -2.5 4 0.5
v -2.5 5 0.5
v -2.5 6 0.5
v -1.5 0 0.5
v -1.5 1 0.5
v -1.5 4 0.5
v -1.5 5 0.5
v -1.5 6 0.5
v -0.5 0 0.5
v -0.5 1 0.5
v -0.5 2 0.5
v -0.5 3 0.5
v -0.5 4 0.5
v -0.5 5 0.5
v 0.5 1 0.5
v 0.5 2 0.5
v 0.5 3 0.5
v 0.5 4 0.5
v -4.5 1 -0.5
v -4.5 2 -0.5
v -4.5 3 -0.5
v -4.5 4 -0.5
v -3.5 0 -0.5
v -3.5 1 -0.5
v -3.5 2 -0.5
v -3.5 3 -0.5
v -3.5 4 -0.5
v -3.5 5 -0.5
v -2.5 0 -0.5
v -2.5 1 -0.5
v -2.5 4 -0.5
v -2.5 5 -0.5
v -2.5 6 -0.5
v -1.5 0 -0.5
v -1.5 1 -0.5
v -1.5 4 -0.5
v -1.5 5 -0.5
v -1.5 6 -0.5
v -0.5 0 -0.5
v -0.5 1 -0.5
v -0.5 2 -0.5
v -0.5 3 -0.5
v -0.5 4 -0.5
v -0.5 5 -0.5
v 0.5 1 -0.5
v 0.5 2 -0.5
v 0.5 3 -0.5
v 0.5 4 -0.5
v -4.5 2 -1.5
v -4.5 3 -1.5
v -3.5 1 -1.5
v -3.5 2 -1.5
v -3.5 3 -1.5
v -3.5 4 -1.5
v -2.5 0 -1.5
v -2.5 1 -1.5
v -2.5 2 -1.5
v -2.5 3 -1.5
v -2.5 4 -1.5
v -2.5 5 -1.5
v -1.5 0 -1.5
v -1.5 1 -1.5
v -1.5 2 -1.5
v -1.5 3 -1.5
v -1.5 4 -1.5
v -1.5 5 -1.5
v -0.5 1 -1.5
v -0.5 2 -1.5
v -0.5 3 -1.5
v -0.5 4 -1.5
v 0.5 2 -1.5
v 0.5 3 -1.5
v -3.5 2 -2.5
v -3.5 3 -2.5
v -2.5 1 -2.5
v -2.5 2 -2.5
v -2.5 3 -2.5
v -2.5 4 -2.5
v -1.5 1 -2.5
v -1.5 2 -2.5
v -1.5 3 -2.5
v -1.5 4 -2.5
v -0.5 2 -2.5
v -0.5 3 -2.5
v -2.5 0 1.5
v -1.5 0 1.5
v -3.5 0 0.5
v -2.5 0 0.5
v -1.5 0 0.5
v -0.5 0 0.5
v -3.5 0 -0.5
v -2.5 0 -0.5
v -1.5 0 -0.5
v -0.5 0 -0.5
v -2.5 0 -1.5
v -1.5 0 -1.5
v -2.5 1 2.5
v -1.5 1 2.5
v -3.5 1 1.5
v -2.5 1 1.5
v -1.5 1 1.5
v -0.5 1 1.5
v -4.5 1 0.5
v -3.5 1 0.5
v -2.5 1 0.5
v -1.5 1 0.5
v -0.5 1 0.5
v 0.5 1 0.5
v -4.5 1 -0.5
v -3.5 1 -0.5
v -2.5 1 -0.5
v -1.5 1 -0.5
v -0.5 1 -0.5
v 0.5 1 -0.5
v -3.5 1 -1.5
v -2.5 1 -1.5
v -1.5 1 -1.5
v -0.5 1 -1.5
v -2.5 1 -2.5
v -1.5 1 -2.5
v -3.5 2 2.5
v -2.5 2 2.5
v -1.5 2 2.5
v -0.5 2 2.5
v -4.5 2 1.5
v -3.5 2 1.5
v -2.5 2 1.5
v -1.5 2 1.5
v -0.5 2 1.5
v 0.5 2 1.5
v -4.5 2 0.5
v -3.5 2 0.5
v -0.5 2 0.5
v 0.5 2 0.5
v -4.5 2 -0.5
v -3.5 2 -0.5
v -0.5 2 -0.5
v 0.5 2 -0.5
v -4.5 2 -1.5
v -3.5 2 -1.5
v -2.5 2 -1.5
v -1.5 2 -1.5
v -0.5 2 -1.5
v 0.5 2 -1.5
v -3.5 2 -2.5
v -2.5 2 -2.5
v -1.5 2 -2.5
v -0.5 2 -2.5
v -3.5 3 2.5
v -2.5 3 2.5
v -1.5 3 2.5
v -0.5 3 2.5
v -4.5 3 1.5
v -3.5 3 1.5
v -2.5 3 1.5
v -1.5 3 1.5
v -0.5 3 1.5
v 0.5 3 1.5
v -4.5 3 0.5
v -3.5 3 0.5
v -0.5 3 0.5
v 0.5 3 0.5
v -4.5 3 -0.5
v -3.5 3 -0.5
v -0.5 3 -0.5
v 0.5 3 -0.5
v -4.5 3 -1.5
v -3.5 3 -1.5
v -2.5 3 -1.5
v -1.5 3 -1.5
v -0.5 3 -1.5
v 0.5 3 -1.5
v -3.5 3 -2.5
v -2.5 3 -2.5
v -1.5 3 -2.5
v -0.5 3 -2.5
v -2.5 4 2.5
v -1.5 4 2.5
v -3.5 4 1.5
v -2.5 4 1.5
v -1.5 4 1.5
v -0.5 4 1.5
v -4.5 4 0.5
v -3.5 4 0.5
v -2.5 4 0.5
v -1.5 4 0.5
v -0.5 4 0.5
v 0.5 4 0.5
v -4.5 4 -0.5
v -3.5 4 -0.5
v -2.5 4 -0.5
v -1.5 4 -0.5
v -0.5 4 -0.5
v 0.5 4 -0.5
v -3.5 4 -1.5
v -2.5 4 -1.5
v -1.5 4 -1.5
v -0.5 4 -1.5
v -2.5 4 -2.5
v -1.5 4 -2.5
v -2.5 5 1.5
v -1.5 5 1.5
v -3.5 5 0.5
v -2.5 5 0.5
v -1.5 5 0.5
v -0.5 5 0.5
v -3.5 5 -0.5
v -2.5 5 -0.5
v -1.5 5 -0.5
v -0.5 5 -0.5
v -2.5 5 -1.5
v -1.5 5 -1.5
v -2.5 6 0.5
v -1.5 6 0.5
v -2.5 6 -0.5
v -1.5 6 -0.5

# faces
f 4/8/1 2/8/1 1/8/1
f 5/8/1 2/8/1 4/8/1
f 7/14/1 4/14/1 3/14/1
f 8/11/1 5/11/1 4/11/1
f 8/14/1 4/14/1 7/14/1
f 9/3/1 6/3/1 5/3/1
f 9/11/1 5/11/1 8/11/1
f 10/3/1 6/3/1 9/3/1
f 11/11/1 9/11/1 8/11/1
f 12/11/1 9/11/1 11/11/1
f 16/2/1 14/2/1 13/2/1
f 17/2/1 14/2/1 16/2/1
f 20/6/1 16/6/1 15/6/1
f 21/6/1 16/6/1 20/6/1
f 22/8/1 18/8/1 17/8/1
f 23/8/1 18/8/1 22/8/1
f 25/4/1 20/4/1 19/4/1
f 26/4/1 20/4/1 25/4/1
f 29/20/1 24/20/1 23/20/1
f 30/20/1 24/20/1 29/20/1
f 31/15/1 27/15/1 26/15/1
f 32/15/1 27/15/1 31/15/1
f 33/5/1 29/5/1 28/5/1
f 34/5/1 29/5/1 33/5/1
f 35/13/1 33/13/1 32/13/1
f 36/13/1 33/13/1 35/13/1
f 42/1/1 38/1/1 37/1/1
f 43/1/1 38/1/1 42/1/1
f 44/1/1 40/1/1 39/1/1
f 45/1/1 40/1/1 44/1/1
f 47/5/1 42/5/1 41/5/1
f 48/5/1 42/5/1 47/5/1
f 49/9/1 46/9/1 45/9/1
f 50/9/1 46/9/1 49/9/1
f 55/19/1 52/19/1 51/19/1
f 56/19/1 52/19/1 55/19/1
f 59/4/1 54/4/1 53/4/1
f 60/4/1 54/4/1 59/4/1
f 61/12/1 57/12/1 56/12/1
f 62/12/1 57/12/1 61/12/1
f 63/20/1 59/20/1 58/20/1
f 64/20/1 59/20/1 63/20/1
f 65/11/1 63/11/1 62/11/1
f 66/11/1 63/11/1 65/11/1
f 67/1/2 68/1/2 72/1/2
f 72/1/2 68/1/2 73/1/2
f 69/1/2 70/1/2 74/1/2
f 74/1/2 70/1/2 75/1/2
f 71/5/2 72/5/2 77/5/2
f 77/5/2 72/5/2 78/5/2
f 75/9/2 76/9/2 79/9/2
f 79/9/2 76/9/2 80/9/2
f 81/19/2 82/19/2 85/19/2
f 85/19/2 82/19/2 86/19/2
f 83/4/2 84/4/2 89/4/2
f 89/4/2 84/4/2 90/4/2
f 86/12/2 87/12/2 91/12/2
f 91/12/2 87/12/2 92/12/2
f 88/20/2 89/20/2 93/20/2
f 93/20/2 89/20/2 94/20/2
f 92/11/2 93/11/2 95/11/2
f 95/11/2 93/11/2 96/11/2
f 97/4/2 98/4/2 100/4/2
f 100/4/2 98/4/2 101/4/2
f 99/6/2 100/6/2 104/6/2
f 104/6/2 100/6/2 105/6/2
f 101/7/2 102/7/2 106/7/2
f 106/7/2 102/7/2 107/7/2
f 103/5/2 104/5/2 109/5/2
f 109/5/2 104/5/2 110/5/2
f 107/14/2 108/14/2 113/14/2
f 113/14/2 108/14/2 114/14/2
f 110/21/2 111/21/2 115/21/2
f 115/21/2 111/21/2 116/21/2
f 112/21/2 113/21/2 117/21/2
f 117/21/2 113/21/2 118/21/2
f 116/7/2 117/7/2 119/7/2
f 119/7/2 117/7/2 120/7/2
f 121/12/2 122/12/2 124/12/2
f 124/12/2 122/12/2 125/12/2
f 123/16/2 124/16/2 127/16/2
f 124/18/2 125/18/2 128/18/2
f 127/16/2 124/16/2 128/16/2
f 125/19/2 126/19/2 129/19/2
f 128/18/2 125/18/2 129/18/2
f 129/19/2 126/19/2 130/19/2
f 128/8/2 129/8/2 131/8/2
f 131/8/2 129/8/2 132/8/2
f 136/4/3 134/4/3 133/4/3
f 137/4/3 134/4/3 136/4/3
f 139/5/3 136/5/3 135/5/3
f 140/13/3 137/13/3 136/13/3
f 140/5/3 136/5/3 139/5/3
f 141/19/3 138/19/3 137/19/3
f 141/13/3 137/13/3 140/13/3
f 142/19/3 138/19/3 141/19/3
f 143/5/3 141/5/3 140/5/3
f 144/5/3 141/5/3 143/5/3
f 148/14/3 146/14/3 145/14/3
f 149/14/3 146/14/3 148/14/3
f 152/6/3 148/6/3 147/6/3
f 153/6/3 148/6/3 152/6/3
f 154/15/3 150/15/3 149/15/3
f 155/15/3 150/15/3 154/15/3
f 157/1/3 152/1/3 151/1/3
f 158/1/3 152/1/3 157/1/3
f 161/12/3 156/12/3 155/12/3
f 162/12/3 156/12/3 161/12/3
f 163/6/3 159/6/3 158/6/3
f 164/6/3 159/6/3 163/6/3
f 165/21/3 161/21/3 160/21/3
f 166/21/3 161/21/3 165/21/3
f 167/16/3 165/16/3 164/16/3
f 168/16/3 165/16/3 167/16/3
f 174/8/3 170/8/3 169/8/3
f 175/8/3 170/8/3 174/8/3
f 176/11/3 172/11/3 171/11/3
f 177/11/3 172/11/3 176/11/3
f 179/2/3 174/2/3 173/2/3
f 180/2/3 174/2/3 179/2/3
f 181/13/3 178/13/3 177/13/3
f 182/13/3 178/13/3 181/13/3
f 187/11/3 183/11/3 182/11/3
f 188/11/3 183/11/3 187/11/3
f 189/4/3 185/4/3 184/4/3
f 190/4/3 185/4/3 189/4/3
f 193/7/3 187/7/3 186/7/3
f 194/7/3 187/7/3 193/7/3
f 195/12/3 191/12/3 190/12/3
f 196/12/3 191/12/3 195/12/3
f 197/8/3 193/8/3 192/8/3
f 198/8/3 193/8/3 197/8/3
f 199/8/4 200/8/4 204/8/4
f 204/8/4 200/8/4 205/8/4
f 201/11/4 202/11/4 206/11/4
f 206/11/4 202/11/4 207/11/4
f 203/2/4 204/2/4 209/2/4
f 209/2/4 204/2/4 210/2/4
f 207/13/4 208/13/4 211/13/4
f 211/13/4 208/13/4 212/13/4
f 212/11/4 213/11/4 217/11/4
f 217/11/4 213/11/4 218/11/4
f 214/4/4 215/4/4 219/4/4
f 219/4/4 215/4/4 220/4/4
f 216/7/4 217/7/4 223/7/4
f 223/7/4 217/7/4 224/7/4
f 220/12/4 221/12/4 225/12/4
f 225/12/4 221/12/4 226/12/4
f 222/8/4 223/8/4 227/8/4
f 227/8/4 223/8/4 228/8/4
f 229/3/4 230/3/4 232/3/4
f 232/3/4 230/3/4 233/3/4
f 231/8/4 232/8/4 236/8/4
f 236/8/4 232/8/4 237/8/4
f 233/5/4 234/5/4 238/5/4
f 238/5/4 234/5/4 239/5/4
f 235/1/4 236/1/4 241/1/4
f 241/1/4 236/1/4 242/1/4
f 239/20/4 240/20/4 245/20/4
f 245/20/4 240/20/4 246/20/4
f 242/7/4 243/7/4 247/7/4
f 247/7/4 243/7/4 248/7/4
f 244/21/4 245/21/4 249/21/4
f 249/21/4 245/21/4 250/21/4
f 248/19/4 249/19/4 251/19/4
f 251/19/4 249/19/4 252/19/4
f 253/20/4 254/20/4 256/20/4
f 256/20/4 254/20/4 257/20/4
f 255/9/4 256/9/4 259/9/4
f 256/17/4 257/17/4 260/17/4
f 259/9/4 256/9/4 260/9/4
f 257/4/4 258/4/4 261/4/4
f 260/17/4 257/17/4 261/17/4
f 261/4/4 258/4/4 262/4/4
f 260/14/4 261/14/4 263/14/4
f 263/14/4 261/14/4 264/14/4
f 268/1/5 266/1/5 265/1/5
f 269/1/5 266/1/5 268/1/5
f 271/2/5 268/2/5 267/2/5
f 272/3/5 269/3/5 268/3/5
f 272/2/5 268/2/5 271/2/5
f 273/4/5 270/4/5 269/4/5
f 273/3/5 269/3/5 272/3/5
f 274/4/5 270/4/5 273/4/5
f 275/1/5 273/1/5 272/1/5
f 276/1/5 273/1/5 275/1/5
f 280/5/5 278/5/5 277/5/5
f 281/5/5 278/5/5 280/5/5
f 284/6/5 280/6/5 279/6/5
f 285/6/5 280/6/5 284/6/5
f 286/6/5 282/6/5 281/6/5
f 287/6/5 282/6/5 286/6/5
f 289/8/5 284/8/5 283/8/5
f 290/8/5 284/8/5 289/8/5
f 293/12/5 288/12/5 287/12/5
f 294/12/5 288/12/5 293/12/5
f 295/8/5 291/8/5 290/8/5
f 296/8/5 291/8/5 295/8/5
f 297/7/5 293/7/5 292/7/5
f 298/7/5 293/7/5 297/7/5
f 299/9/5 297/9/5 296/9/5
f 300/9/5 297/9/5 299/9/5
f 306/4/5 302/4/5 301/4/5
f 307/4/5 302/4/5 306/4/5
f 308/5/5 304/5/5 303/5/5
f 309/5/5 304/5/5 308/5/5
f 311/14/5 306/14/5 305/14/5
f 312/14/5 306/14/5 311/14/5
f 313/16/5 310/16/5 309/16/5
f 314/16/5 310/16/5 313/16/5
f 319/3/5 316/3/5 315/3/5
f 320/3/5 316/3/5 319/3/5
f 323/19/5 318/19/5 317/19/5
f 324/19/5 318/19/5 323/19/5
f 325/20/5 321/20/5 320/20/5
f 326/20/5 321/20/5 325/20/5
f 327/14/5 323/14/5 322/14/5
f 328/14/5 323/14/5 327/14/5
f 329/4/6 330/4/6 334/4/6
f 334/4/6 330/4/6 335/4/6
f 331/5/6 332/5/6 336/5/6
f 336/5/6 332/5/6 337/5/6
f 333/14/6 334/14/6 339/14/6
f 339/14/6 334/14/6 340/14/6
f 337/16/6 338/16/6 341/16/6
f 341/16/6 338/16/6 342/16/6
f 343/3/6 344/3/6 347/3/6
f 347/3/6 344/3/6 348/3/6
f 345/19/6 346/19/6 351/19/6
f 351/19/6 346/19/6 352/19/6
f 348/20/6 349/20/6 353/20/6
f 353/20/6 349/20/6 354/20/6
f 350/14/6 351/14/6 355/14/6
f 355/14/6 351/14/6 356/14/6
f 357/19/6 358/19/6 360/19/6
f 360/19/6 358/19/6 361/19/6
f 359/15/6 360/15/6 364/15/6
f 364/15/6 360/15/6 365/15/6
f 361/21/6 362/21/6 366/21/6
f 366/21/6 362/21/6 367/21/6
f 363/11/6 364/11/6 369/11/6
f 369/11/6 364/11/6 370/11/6
f 367/8/6 368/8/6 373/8/6
f 373/8/6 368/8/6 374/8/6
f 370/5/6 371/5/6 375/5/6
f 375/5/6 371/5/6 376/5/6
f 372/21/6 373/21/6 377/21/6
f 377/21/6 373/21/6 378/21/6
f 376/4/6 377/4/6 379/4/6
f 379/4/6 377/4/6 380/4/6
f 381/12/6 382/12/6 384/12/6
f 384/12/6 382/12/6 385/12/6
f 383/13/6 384/13/6 387/13/6
f 387/13/6 384/13/6 388/13/6
f 385/7/6 386/7/6 389/7/6
f 389/7/6 386/7/6 390/7/6
f 388/20/6 389/20/6 391/20/6
f 391/20/6 389/20/6 392/20/6
f 393/11/6 394/11/6 395/11/6
f 395/11/6 394/11/6 396/11/6
