# MagicaVoxel @ ephtracy

# material
mtllib rod1.mtl
usemtl palette

# normals
vn -1 0 0
vn 1 0 0
vn 0 0 1
vn 0 0 -1
vn 0 -1 0
vn 0 1 0

# texcoords
vt 0.00195313 0.5
vt 0.00585938 0.5
vt 0.00976563 0.5
vt 0.0136719 0.5
vt 0.0175781 0.5
vt 0.0214844 0.5
vt 0.0253906 0.5
vt 0.0292969 0.5
vt 0.0332031 0.5
vt 0.0371094 0.5

# verts
v -4 0 -1
v -4 0 -3
v -4 1 -1
v -4 1 -2
v -4 2 -1
v -4 2 -2
v -4 2 -3
v -4 3 -1
v -4 3 -2
v -4 3 -3
v -4 4 -1
v -4 4 -2
v -4 4 -3
v -4 5 -1
v -4 5 -2
v -4 5 -3
v -4 6 -1
v -4 6 -2
v -4 6 -3
v -4 7 -1
v -4 7 -2
v -4 7 -3
v -4 9 -1
v -4 9 -2
v -4 9 -3
v -4 10 -1
v -4 10 -2
v -4 10 -3
v -4 15 -2
v -4 15 -3
v -4 16 -1
v -4 16 -2
v -4 17 -1
v -4 17 -2
v -4 17 -3
v -4 22 -2
v -4 22 -3
v -4 23 -1
v -4 23 -2
v -4 24 -1
v -4 24 -2
v -4 24 -3
v -4 29 -2
v -4 29 -3
v -4 30 -1
v -4 30 -2
v -4 31 -1
v -4 31 -2
v -4 32 -1
v -4 32 -2
v -4 33 -1
v -4 33 -3
v -2 6 -1
v -2 6 -4
v -2 7 -1
v -2 7 -4
v -2 8 -2
v -2 8 -3
v -2 10 -1
v -2 10 -2
v -2 10 -3
v -2 10 -4
v 1 7 -2
v 1 7 -3
v 1 8 -2
v 1 8 -3
v -3 0 -1
v -3 0 -3
v -3 1 -1
v -3 1 -2
v -3 2 -1
v -3 2 -2
v -3 2 -3
v -3 3 -1
v -3 3 -2
v -3 3 -3
v -3 4 -1
v -3 4 -2
v -3 4 -3
v -3 5 -1
v -3 5 -2
v -3 5 -3
v -3 6 -1
v -3 6 -2
v -3 6 -3
v -3 7 -1
v -3 7 -2
v -3 7 -3
v -3 8 -2
v -3 8 -3
v -3 9 -1
v -3 9 -2
v -3 10 -1
v -3 10 -2
v -3 10 -3
v -3 15 -2
v -3 15 -3
v -3 16 -1
v -3 16 -2
v -3 17 -1
v -3 17 -2
v -3 17 -3
v -3 22 -2
v -3 22 -3
v -3 23 -1
v -3 23 -2
v -3 24 -1
v -3 24 -2
v -3 24 -3
v -3 29 -2
v -3 29 -3
v -3 30 -1
v -3 30 -2
v -3 31 -1
v -3 31 -2
v -3 32 -1
v -3 32 -2
v -3 33 -1
v -3 33 -3
v -1 6 -1
v -1 6 -2
v -1 6 -3
v -1 6 -4
v -1 7 -1
v -1 7 -2
v -1 7 -3
v -1 7 -4
v 0 6 -2
v 0 6 -3
v 0 7 -1
v 0 7 -2
v 0 7 -3
v 0 7 -4
v 0 8 -1
v 0 8 -2
v 0 8 -3
v 0 8 -4
v 0 9 -2
v 0 9 -3
v 0 10 -1
v 0 10 -4
v 2 8 -2
v 2 8 -3
v 2 9 -2
v 2 9 -3
v 3 7 -2
v 3 7 -3
v 3 8 -2
v 3 8 -3
v -4 0 -1
v -4 1 -1
v -4 2 -1
v -4 3 -1
v -4 4 -1
v -4 5 -1
v -4 6 -1
v -4 7 -1
v -4 9 -1
v -4 10 -1
v -4 16 -1
v -4 17 -1
v -4 23 -1
v -4 24 -1
v -4 30 -1
v -4 31 -1
v -4 32 -1
v -4 33 -1
v -3 0 -1
v -3 1 -1
v -3 2 -1
v -3 3 -1
v -3 4 -1
v -3 5 -1
v -3 6 -1
v -3 7 -1
v -3 9 -1
v -3 10 -1
v -3 16 -1
v -3 17 -1
v -3 23 -1
v -3 24 -1
v -3 30 -1
v -3 31 -1
v -3 32 -1
v -3 33 -1
v -2 6 -1
v -2 7 -1
v -2 10 -1
v -1 6 -1
v -1 7 -1
v -1 8 -1
v 0 7 -1
v 0 8 -1
v 0 10 -1
v -4 10 -2
v -4 15 -2
v -4 16 -2
v -4 17 -2
v -4 22 -2
v -4 23 -2
v -4 24 -2
v -4 29 -2
v -4 30 -2
v -4 31 -2
v -4 32 -2
v -3 8 -2
v -3 9 -2
v -3 10 -2
v -3 15 -2
v -3 16 -2
v -3 17 -2
v -3 22 -2
v -3 23 -2
v -3 24 -2
v -3 29 -2
v -3 30 -2
v -3 31 -2
v -3 32 -2
v -2 8 -2
v -2 10 -2
v -1 6 -2
v -1 7 -2
v 0 6 -2
v 0 7 -2
v 0 8 -2
v 0 9 -2
v 1 7 -2
v 1 8 -2
v 2 8 -2
v 2 9 -2
v 3 7 -2
v 3 8 -2
v -4 0 -3
v -4 2 -3
v -4 3 -3
v -4 4 -3
v -4 5 -3
v -4 6 -3
v -4 7 -3
v -4 9 -3
v -4 10 -3
v -4 15 -3
v -4 17 -3
v -4 22 -3
v -4 24 -3
v -4 29 -3
v -4 33 -3
v -3 0 -3
v -3 2 -3
v -3 3 -3
v -3 4 -3
v -3 5 -3
v -3 6 -3
v -3 7 -3
v -3 8 -3
v -3 9 -3
v -3 10 -3
v -3 15 -3
v -3 17 -3
v -3 22 -3
v -3 24 -3
v -3 29 -3
v -3 33 -3
v -2 8 -3
v -2 10 -3
v -1 6 -3
v -1 7 -3
v 0 6 -3
v 0 7 -3
v 0 8 -3
v 0 9 -3
v 1 7 -3
v 1 8 -3
v 2 8 -3
v 2 9 -3
v 3 7 -3
v 3 8 -3
v -2 6 -4
v -2 7 -4
v -2 10 -4
v -1 6 -4
v -1 7 -4
v -1 8 -4
v 0 7 -4
v 0 8 -4
v 0 10 -4
v -4 0 -1
v -3 0 -1
v -4 0 -3
v -3 0 -3
v -2 6 -1
v -1 6 -1
v -1 6 -2
v 0 6 -2
v -1 6 -3
v 0 6 -3
v -2 6 -4
v -1 6 -4
v -1 7 -1
v 0 7 -1
v -1 7 -2
v 0 7 -2
v 1 7 -2
v 3 7 -2
v -1 7 -3
v 0 7 -3
v 1 7 -3
v 3 7 -3
v -1 7 -4
v 0 7 -4
v -3 8 -2
v -2 8 -2
v 0 8 -2
v 1 8 -2
v -3 8 -3
v -2 8 -3
v 0 8 -3
v 1 8 -3
v -4 16 -1
v -3 16 -1
v -4 16 -2
v -3 16 -2
v -4 23 -1
v -3 23 -1
v -4 23 -2
v -3 23 -2
v -4 30 -1
v -3 30 -1
v -4 30 -2
v -3 30 -2
v -4 32 -1
v -3 32 -1
v -4 32 -2
v -3 32 -2
v 2 8 -2
v 3 8 -2
v 2 8 -3
v 3 8 -3
v 0 9 -2
v 2 9 -2
v 0 9 -3
v 2 9 -3
v -4 10 -1
v -3 10 -1
v -2 10 -1
v 0 10 -1
v -4 10 -2
v -3 10 -2
v -2 10 -2
v -3 10 -3
v -2 10 -3
v -2 10 -4
v 0 10 -4
v -4 17 -1
v -3 17 -1
v -4 17 -2
v -3 17 -2
v -4 24 -1
v -3 24 -1
v -4 24 -2
v -3 24 -2
v -4 31 -1
v -3 31 -1
v -4 31 -2
v -3 31 -2
v -4 33 -1
v -3 33 -1
v -4 33 -3
v -3 33 -3

# faces
f 3/1/1 2/1/1 1/1/1
f 4/1/1 2/1/1 3/1/1
f 5/2/1 4/2/1 3/2/1
f 6/1/1 2/1/1 4/1/1
f 6/2/1 4/2/1 5/2/1
f 7/1/1 2/1/1 6/1/1
f 8/3/1 6/3/1 5/3/1
f 9/4/1 7/4/1 6/4/1
f 9/3/1 6/3/1 8/3/1
f 10/4/1 7/4/1 9/4/1
f 11/5/1 9/5/1 8/5/1
f 12/6/1 10/6/1 9/6/1
f 12/5/1 9/5/1 11/5/1
f 13/6/1 10/6/1 12/6/1
f 14/3/1 12/3/1 11/3/1
f 15/4/1 13/4/1 12/4/1
f 15/3/1 12/3/1 14/3/1
f 16/4/1 13/4/1 15/4/1
f 17/5/1 15/5/1 14/5/1
f 18/6/1 16/6/1 15/6/1
f 18/5/1 15/5/1 17/5/1
f 19/6/1 16/6/1 18/6/1
f 20/3/1 18/3/1 17/3/1
f 21/4/1 19/4/1 18/4/1
f 21/3/1 18/3/1 20/3/1
f 22/4/1 19/4/1 21/4/1
f 23/1/1 21/1/1 20/1/1
f 24/2/1 22/2/1 21/2/1
f 24/1/1 21/1/1 23/1/1
f 25/2/1 22/2/1 24/2/1
f 26/2/1 24/2/1 23/2/1
f 27/1/1 25/1/1 24/1/1
f 27/2/1 24/2/1 26/2/1
f 28/1/1 25/1/1 27/1/1
f 29/10/1 28/10/1 27/10/1
f 30/10/1 28/10/1 29/10/1
f 32/9/1 30/9/1 29/9/1
f 33/9/1 32/9/1 31/9/1
f 34/9/1 30/9/1 32/9/1
f 34/9/1 32/9/1 33/9/1
f 35/9/1 30/9/1 34/9/1
f 36/10/1 35/10/1 34/10/1
f 37/10/1 35/10/1 36/10/1
f 39/9/1 37/9/1 36/9/1
f 40/9/1 39/9/1 38/9/1
f 41/9/1 37/9/1 39/9/1
f 41/9/1 39/9/1 40/9/1
f 42/9/1 37/9/1 41/9/1
f 43/10/1 42/10/1 41/10/1
f 44/10/1 42/10/1 43/10/1
f 46/9/1 44/9/1 43/9/1
f 47/9/1 46/9/1 45/9/1
f 48/9/1 44/9/1 46/9/1
f 48/9/1 46/9/1 47/9/1
f 50/9/1 44/9/1 48/9/1
f 51/9/1 50/9/1 49/9/1
f 52/9/1 44/9/1 50/9/1
f 52/9/1 50/9/1 51/9/1
f 55/7/1 54/7/1 53/7/1
f 56/7/1 54/7/1 55/7/1
f 57/8/1 56/8/1 55/8/1
f 58/8/1 56/8/1 57/8/1
f 59/8/1 57/8/1 55/8/1
f 60/8/1 57/8/1 59/8/1
f 61/8/1 56/8/1 58/8/1
f 62/8/1 56/8/1 61/8/1
f 65/9/1 64/9/1 63/9/1
f 66/9/1 64/9/1 65/9/1
f 67/1/2 68/1/2 69/1/2
f 69/1/2 68/1/2 70/1/2
f 69/2/2 70/2/2 71/2/2
f 70/1/2 68/1/2 72/1/2
f 71/2/2 70/2/2 72/2/2
f 72/1/2 68/1/2 73/1/2
f 71/3/2 72/3/2 74/3/2
f 72/4/2 73/4/2 75/4/2
f 74/3/2 72/3/2 75/3/2
f 75/4/2 73/4/2 76/4/2
f 74/5/2 75/5/2 77/5/2
f 75/6/2 76/6/2 78/6/2
f 77/5/2 75/5/2 78/5/2
f 78/6/2 76/6/2 79/6/2
f 77/3/2 78/3/2 80/3/2
f 78/4/2 79/4/2 81/4/2
f 80/3/2 78/3/2 81/3/2
f 81/4/2 79/4/2 82/4/2
f 80/5/2 81/5/2 83/5/2
f 81/6/2 82/6/2 84/6/2
f 83/5/2 81/5/2 84/5/2
f 84/6/2 82/6/2 85/6/2
f 83/3/2 84/3/2 86/3/2
f 84/4/2 85/4/2 87/4/2
f 86/3/2 84/3/2 87/3/2
f 87/4/2 85/4/2 88/4/2
f 86/1/2 87/1/2 89/1/2
f 87/2/2 88/2/2 89/2/2
f 89/2/2 88/2/2 90/2/2
f 86/1/2 89/1/2 91/1/2
f 91/1/2 89/1/2 92/1/2
f 91/2/2 92/2/2 93/2/2
f 93/2/2 92/2/2 94/2/2
f 94/10/2 95/10/2 96/10/2
f 96/10/2 95/10/2 97/10/2
f 96/9/2 97/9/2 99/9/2
f 98/9/2 99/9/2 100/9/2
f 99/9/2 97/9/2 101/9/2
f 100/9/2 99/9/2 101/9/2
f 101/9/2 97/9/2 102/9/2
f 101/10/2 102/10/2 103/10/2
f 103/10/2 102/10/2 104/10/2
f 103/9/2 104/9/2 106/9/2
f 105/9/2 106/9/2 107/9/2
f 106/9/2 104/9/2 108/9/2
f 107/9/2 106/9/2 108/9/2
f 108/9/2 104/9/2 109/9/2
f 108/10/2 109/10/2 110/10/2
f 110/10/2 109/10/2 111/10/2
f 110/9/2 111/9/2 113/9/2
f 112/9/2 113/9/2 114/9/2
f 113/9/2 111/9/2 115/9/2
f 114/9/2 113/9/2 115/9/2
f 115/9/2 111/9/2 117/9/2
f 116/9/2 117/9/2 118/9/2
f 117/9/2 111/9/2 119/9/2
f 118/9/2 117/9/2 119/9/2
f 120/7/2 121/7/2 124/7/2
f 124/7/2 121/7/2 125/7/2
f 122/7/2 123/7/2 126/7/2
f 126/7/2 123/7/2 127/7/2
f 128/7/2 129/7/2 131/7/2
f 131/7/2 129/7/2 132/7/2
f 130/7/2 131/7/2 134/7/2
f 131/8/2 132/8/2 135/8/2
f 134/7/2 131/7/2 135/7/2
f 132/7/2 133/7/2 136/7/2
f 135/8/2 132/8/2 136/8/2
f 136/7/2 133/7/2 137/7/2
f 134/8/2 135/8/2 138/8/2
f 136/8/2 137/8/2 139/8/2
f 134/8/2 138/8/2 140/8/2
f 138/8/2 139/8/2 140/8/2
f 139/8/2 137/8/2 141/8/2
f 140/8/2 139/8/2 141/8/2
f 142/9/2 143/9/2 144/9/2
f 144/9/2 143/9/2 145/9/2
f 146/9/2 147/9/2 148/9/2
f 148/9/2 147/9/2 149/9/2
f 168/1/3 151/1/3 150/1/3
f 169/2/3 152/2/3 151/2/3
f 169/1/3 151/1/3 168/1/3
f 170/3/3 153/3/3 152/3/3
f 170/2/3 152/2/3 169/2/3
f 171/5/3 154/5/3 153/5/3
f 171/3/3 153/3/3 170/3/3
f 172/3/3 155/3/3 154/3/3
f 172/5/3 154/5/3 171/5/3
f 173/5/3 156/5/3 155/5/3
f 173/3/3 155/3/3 172/3/3
f 174/3/3 157/3/3 156/3/3
f 174/5/3 156/5/3 173/5/3
f 175/1/3 158/1/3 157/1/3
f 175/3/3 157/3/3 174/3/3
f 176/2/3 159/2/3 158/2/3
f 176/1/3 158/1/3 175/1/3
f 177/2/3 159/2/3 176/2/3
f 178/9/3 161/9/3 160/9/3
f 179/9/3 161/9/3 178/9/3
f 180/9/3 163/9/3 162/9/3
f 181/9/3 163/9/3 180/9/3
f 182/9/3 165/9/3 164/9/3
f 183/9/3 165/9/3 182/9/3
f 184/9/3 167/9/3 166/9/3
f 185/9/3 167/9/3 184/9/3
f 189/7/3 187/7/3 186/7/3
f 190/8/3 188/8/3 187/8/3
f 190/7/3 187/7/3 189/7/3
f 191/8/3 188/8/3 190/8/3
f 192/7/3 191/7/3 190/7/3
f 193/8/3 188/8/3 191/8/3
f 193/7/3 191/7/3 192/7/3
f 194/8/3 188/8/3 193/8/3
f 208/10/3 196/10/3 195/10/3
f 209/9/3 197/9/3 196/9/3
f 209/10/3 196/10/3 208/10/3
f 210/9/3 197/9/3 209/9/3
f 211/10/3 199/10/3 198/10/3
f 212/9/3 200/9/3 199/9/3
f 212/10/3 199/10/3 211/10/3
f 213/9/3 200/9/3 212/9/3
f 214/10/3 202/10/3 201/10/3
f 215/9/3 203/9/3 202/9/3
f 215/10/3 202/10/3 214/10/3
f 216/9/3 203/9/3 215/9/3
f 217/9/3 205/9/3 204/9/3
f 218/9/3 205/9/3 217/9/3
f 219/9/3 207/9/3 206/9/3
f 219/9/3 208/9/3 207/9/3
f 220/9/3 208/9/3 219/9/3
f 223/7/3 222/7/3 221/7/3
f 224/7/3 222/7/3 223/7/3
f 228/9/3 226/9/3 225/9/3
f 229/9/3 226/9/3 228/9/3
f 229/9/3 228/9/3 227/9/3
f 230/9/3 226/9/3 229/9/3
f 231/9/3 229/9/3 227/9/3
f 232/9/3 229/9/3 231/9/3
f 233/1/4 234/1/4 248/1/4
f 234/4/4 235/4/4 249/4/4
f 248/1/4 234/1/4 249/1/4
f 235/6/4 236/6/4 250/6/4
f 249/4/4 235/4/4 250/4/4
f 236/4/4 237/4/4 251/4/4
f 250/6/4 236/6/4 251/6/4
f 237/6/4 238/6/4 252/6/4
f 251/4/4 237/4/4 252/4/4
f 238/4/4 239/4/4 253/4/4
f 252/6/4 238/6/4 253/6/4
f 239/2/4 240/2/4 254/2/4
f 253/4/4 239/4/4 254/4/4
f 254/2/4 240/2/4 255/2/4
f 240/1/4 241/1/4 256/1/4
f 255/2/4 240/2/4 256/2/4
f 241/10/4 242/10/4 257/10/4
f 256/1/4 241/1/4 257/1/4
f 242/9/4 243/9/4 258/9/4
f 257/10/4 242/10/4 258/10/4
f 243/10/4 244/10/4 259/10/4
f 258/9/4 243/9/4 259/9/4
f 244/9/4 245/9/4 260/9/4
f 259/10/4 244/10/4 260/10/4
f 245/10/4 246/10/4 261/10/4
f 260/9/4 245/9/4 261/9/4
f 246/9/4 247/9/4 262/9/4
f 261/10/4 246/10/4 262/10/4
f 262/9/4 247/9/4 263/9/4
f 256/9/4 257/9/4 264/9/4
f 255/9/4 256/9/4 264/9/4
f 264/9/4 257/9/4 265/9/4
f 266/7/4 267/7/4 268/7/4
f 268/7/4 267/7/4 269/7/4
f 270/9/4 271/9/4 273/9/4
f 273/9/4 271/9/4 274/9/4
f 272/9/4 273/9/4 274/9/4
f 274/9/4 271/9/4 275/9/4
f 272/9/4 274/9/4 276/9/4
f 276/9/4 274/9/4 277/9/4
f 278/7/4 279/7/4 281/7/4
f 279/8/4 280/8/4 282/8/4
f 281/7/4 279/7/4 282/7/4
f 282/8/4 280/8/4 283/8/4
f 282/7/4 283/7/4 284/7/4
f 283/8/4 280/8/4 285/8/4
f 284/7/4 283/7/4 285/7/4
f 285/8/4 280/8/4 286/8/4
f 289/1/5 288/1/5 287/1/5
f 290/1/5 288/1/5 289/1/5
f 293/7/5 292/7/5 291/7/5
f 295/7/5 293/7/5 291/7/5
f 295/7/5 294/7/5 293/7/5
f 296/7/5 294/7/5 295/7/5
f 297/7/5 295/7/5 291/7/5
f 298/7/5 295/7/5 297/7/5
f 301/7/5 300/7/5 299/7/5
f 302/7/5 300/7/5 301/7/5
f 307/9/5 304/9/5 303/9/5
f 308/9/5 304/9/5 307/9/5
f 309/7/5 306/7/5 305/7/5
f 310/7/5 306/7/5 309/7/5
f 315/9/5 312/9/5 311/9/5
f 316/9/5 312/9/5 315/9/5
f 317/9/5 314/9/5 313/9/5
f 318/9/5 314/9/5 317/9/5
f 321/9/5 320/9/5 319/9/5
f 322/9/5 320/9/5 321/9/5
f 325/9/5 324/9/5 323/9/5
f 326/9/5 324/9/5 325/9/5
f 329/9/5 328/9/5 327/9/5
f 330/9/5 328/9/5 329/9/5
f 333/9/5 332/9/5 331/9/5
f 334/9/5 332/9/5 333/9/5
f 335/9/6 336/9/6 337/9/6
f 337/9/6 336/9/6 338/9/6
f 339/9/6 340/9/6 341/9/6
f 341/9/6 340/9/6 342/9/6
f 343/2/6 344/2/6 347/2/6
f 347/2/6 344/2/6 348/2/6
f 345/8/6 346/8/6 349/8/6
f 348/9/6 349/9/6 350/9/6
f 349/8/6 346/8/6 351/8/6
f 350/9/6 349/9/6 351/9/6
f 351/8/6 346/8/6 352/8/6
f 352/8/6 346/8/6 353/8/6
f 354/9/6 355/9/6 356/9/6
f 356/9/6 355/9/6 357/9/6
f 358/9/6 359/9/6 360/9/6
f 360/9/6 359/9/6 361/9/6
f 362/9/6 363/9/6 364/9/6
f 364/9/6 363/9/6 365/9/6
f 366/9/6 367/9/6 368/9/6
f 368/9/6 367/9/6 369/9/6
