# MagicaVoxel @ ephtracy

# material
mtllib rod_vampiric.mtl
usemtl palette

# normals
vn -1 0 0
vn 1 0 0
vn 0 0 1
vn 0 0 -1
vn 0 -1 0
vn 0 1 0

# texcoords
vt 0.00195313 0.5
vt 0.00585938 0.5
vt 0.00976563 0.5
vt 0.0136719 0.5
vt 0.0175781 0.5
vt 0.0214844 0.5
vt 0.0253906 0.5
vt 0.0292969 0.5
vt 0.0332031 0.5

# verts
v -4 0 -1
v -4 0 -3
v -4 1 -1
v -4 1 -2
v -4 2 -1
v -4 2 -2
v -4 2 -3
v -4 7 -1
v -4 7 -2
v -4 7 -3
v -4 9 -1
v -4 9 -2
v -4 9 -3
v -4 10 -1
v -4 10 -2
v -4 10 -3
v -4 15 -2
v -4 15 -3
v -4 16 -1
v -4 16 -2
v -4 17 -1
v -4 17 -2
v -4 17 -3
v -4 22 -2
v -4 22 -3
v -4 23 -1
v -4 23 -2
v -4 24 -1
v -4 24 -2
v -4 24 -3
v -4 29 -2
v -4 29 -3
v -4 30 -1
v -4 30 -2
v -4 31 -1
v -4 31 -2
v -4 32 -1
v -4 32 -2
v -4 33 -1
v -4 33 -3
v -2 6 -1
v -2 6 -4
v -2 7 -1
v -2 7 -4
v -2 8 -2
v -2 8 -3
v -2 10 -1
v -2 10 -2
v -2 10 -3
v -2 10 -4
v 1 7 -2
v 1 7 -3
v 1 8 -2
v 1 8 -3
v -3 0 -1
v -3 0 -3
v -3 1 -1
v -3 1 -2
v -3 2 -1
v -3 2 -2
v -3 2 -3
v -3 7 -1
v -3 7 -2
v -3 7 -3
v -3 8 -2
v -3 8 -3
v -3 9 -1
v -3 9 -2
v -3 10 -1
v -3 10 -2
v -3 10 -3
v -3 15 -2
v -3 15 -3
v -3 16 -1
v -3 16 -2
v -3 17 -1
v -3 17 -2
v -3 17 -3
v -3 22 -2
v -3 22 -3
v -3 23 -1
v -3 23 -2
v -3 24 -1
v -3 24 -2
v -3 24 -3
v -3 29 -2
v -3 29 -3
v -3 30 -1
v -3 30 -2
v -3 31 -1
v -3 31 -2
v -3 32 -1
v -3 32 -2
v -3 33 -1
v -3 33 -3
v -1 6 -1
v -1 6 -2
v -1 6 -3
v -1 6 -4
v -1 7 -1
v -1 7 -2
v -1 7 -3
v -1 7 -4
v 0 6 -2
v 0 6 -3
v 0 7 -1
v 0 7 -2
v 0 7 -3
v 0 7 -4
v 0 8 -1
v 0 8 -2
v 0 8 -3
v 0 8 -4
v 0 9 -2
v 0 9 -3
v 0 10 -1
v 0 10 -4
v 2 8 -2
v 2 8 -3
v 2 9 -2
v 2 9 -3
v 3 7 -2
v 3 7 -3
v 3 8 -2
v 3 8 -3
v -4 0 -1
v -4 1 -1
v -4 2 -1
v -4 7 -1
v -4 9 -1
v -4 10 -1
v -4 16 -1
v -4 17 -1
v -4 23 -1
v -4 24 -1
v -4 30 -1
v -4 31 -1
v -4 32 -1
v -4 33 -1
v -3 0 -1
v -3 1 -1
v -3 2 -1
v -3 7 -1
v -3 9 -1
v -3 10 -1
v -3 16 -1
v -3 17 -1
v -3 23 -1
v -3 24 -1
v -3 30 -1
v -3 31 -1
v -3 32 -1
v -3 33 -1
v -2 6 -1
v -2 7 -1
v -2 10 -1
v -1 6 -1
v -1 7 -1
v -1 8 -1
v 0 7 -1
v 0 8 -1
v 0 10 -1
v -4 10 -2
v -4 15 -2
v -4 16 -2
v -4 17 -2
v -4 22 -2
v -4 23 -2
v -4 24 -2
v -4 29 -2
v -4 30 -2
v -4 31 -2
v -4 32 -2
v -3 8 -2
v -3 9 -2
v -3 10 -2
v -3 15 -2
v -3 16 -2
v -3 17 -2
v -3 22 -2
v -3 23 -2
v -3 24 -2
v -3 29 -2
v -3 30 -2
v -3 31 -2
v -3 32 -2
v -2 8 -2
v -2 10 -2
v -1 6 -2
v -1 7 -2
v 0 6 -2
v 0 7 -2
v 0 8 -2
v 0 9 -2
v 1 7 -2
v 1 8 -2
v 2 8 -2
v 2 9 -2
v 3 7 -2
v 3 8 -2
v -4 0 -3
v -4 2 -3
v -4 7 -3
v -4 9 -3
v -4 10 -3
v -4 15 -3
v -4 17 -3
v -4 22 -3
v -4 24 -3
v -4 29 -3
v -4 33 -3
v -3 0 -3
v -3 2 -3
v -3 7 -3
v -3 8 -3
v -3 9 -3
v -3 10 -3
v -3 15 -3
v -3 17 -3
v -3 22 -3
v -3 24 -3
v -3 29 -3
v -3 33 -3
v -2 8 -3
v -2 10 -3
v -1 6 -3
v -1 7 -3
v 0 6 -3
v 0 7 -3
v 0 8 -3
v 0 9 -3
v 1 7 -3
v 1 8 -3
v 2 8 -3
v 2 9 -3
v 3 7 -3
v 3 8 -3
v -2 6 -4
v -2 7 -4
v -2 10 -4
v -1 6 -4
v -1 7 -4
v -1 8 -4
v 0 7 -4
v 0 8 -4
v 0 10 -4
v -4 0 -1
v -3 0 -1
v -4 0 -3
v -3 0 -3
v -2 6 -1
v -1 6 -1
v -1 6 -2
v 0 6 -2
v -1 6 -3
v 0 6 -3
v -2 6 -4
v -1 6 -4
v -1 7 -1
v 0 7 -1
v -1 7 -2
v 0 7 -2
v 1 7 -2
v 3 7 -2
v -1 7 -3
v 0 7 -3
v 1 7 -3
v 3 7 -3
v -1 7 -4
v 0 7 -4
v -3 8 -2
v -2 8 -2
v 0 8 -2
v 1 8 -2
v -3 8 -3
v -2 8 -3
v 0 8 -3
v 1 8 -3
v -4 16 -1
v -3 16 -1
v -4 16 -2
v -3 16 -2
v -4 23 -1
v -3 23 -1
v -4 23 -2
v -3 23 -2
v -4 30 -1
v -3 30 -1
v -4 30 -2
v -3 30 -2
v -4 32 -1
v -3 32 -1
v -4 32 -2
v -3 32 -2
v 2 8 -2
v 3 8 -2
v 2 8 -3
v 3 8 -3
v 0 9 -2
v 2 9 -2
v 0 9 -3
v 2 9 -3
v -4 10 -1
v -3 10 -1
v -2 10 -1
v 0 10 -1
v -4 10 -2
v -3 10 -2
v -2 10 -2
v -3 10 -3
v -2 10 -3
v -2 10 -4
v 0 10 -4
v -4 17 -1
v -3 17 -1
v -4 17 -2
v -3 17 -2
v -4 24 -1
v -3 24 -1
v -4 24 -2
v -3 24 -2
v -4 31 -1
v -3 31 -1
v -4 31 -2
v -3 31 -2
v -4 33 -1
v -3 33 -1
v -4 33 -3
v -3 33 -3

# faces
f 3/1/1 2/1/1 1/1/1
f 4/1/1 2/1/1 3/1/1
f 5/2/1 4/2/1 3/2/1
f 6/1/1 2/1/1 4/1/1
f 6/2/1 4/2/1 5/2/1
f 7/1/1 2/1/1 6/1/1
f 8/3/1 6/3/1 5/3/1
f 8/3/1 7/3/1 6/3/1
f 9/3/1 7/3/1 8/3/1
f 10/3/1 7/3/1 9/3/1
f 11/1/1 9/1/1 8/1/1
f 12/2/1 10/2/1 9/2/1
f 12/1/1 9/1/1 11/1/1
f 13/2/1 10/2/1 12/2/1
f 14/2/1 12/2/1 11/2/1
f 15/1/1 13/1/1 12/1/1
f 15/2/1 12/2/1 14/2/1
f 16/1/1 13/1/1 15/1/1
f 17/8/1 16/8/1 15/8/1
f 18/8/1 16/8/1 17/8/1
f 20/9/1 18/9/1 17/9/1
f 21/9/1 20/9/1 19/9/1
f 22/9/1 18/9/1 20/9/1
f 22/9/1 20/9/1 21/9/1
f 23/9/1 18/9/1 22/9/1
f 24/8/1 23/8/1 22/8/1
f 25/8/1 23/8/1 24/8/1
f 27/9/1 25/9/1 24/9/1
f 28/9/1 27/9/1 26/9/1
f 29/9/1 25/9/1 27/9/1
f 29/9/1 27/9/1 28/9/1
f 30/9/1 25/9/1 29/9/1
f 31/8/1 30/8/1 29/8/1
f 32/8/1 30/8/1 31/8/1
f 34/9/1 32/9/1 31/9/1
f 35/9/1 34/9/1 33/9/1
f 36/9/1 32/9/1 34/9/1
f 36/9/1 34/9/1 35/9/1
f 38/9/1 32/9/1 36/9/1
f 39/9/1 38/9/1 37/9/1
f 40/9/1 32/9/1 38/9/1
f 40/9/1 38/9/1 39/9/1
f 43/4/1 42/4/1 41/4/1
f 44/4/1 42/4/1 43/4/1
f 45/5/1 44/5/1 43/5/1
f 46/5/1 44/5/1 45/5/1
f 47/5/1 45/5/1 43/5/1
f 48/5/1 45/5/1 47/5/1
f 49/5/1 44/5/1 46/5/1
f 50/5/1 44/5/1 49/5/1
f 53/6/1 52/6/1 51/6/1
f 54/6/1 52/6/1 53/6/1
f 55/1/2 56/1/2 57/1/2
f 57/1/2 56/1/2 58/1/2
f 57/2/2 58/2/2 59/2/2
f 58/1/2 56/1/2 60/1/2
f 59/2/2 58/2/2 60/2/2
f 60/1/2 56/1/2 61/1/2
f 59/3/2 60/3/2 62/3/2
f 60/3/2 61/3/2 62/3/2
f 62/3/2 61/3/2 63/3/2
f 63/3/2 61/3/2 64/3/2
f 62/1/2 63/1/2 65/1/2
f 63/2/2 64/2/2 65/2/2
f 65/2/2 64/2/2 66/2/2
f 62/1/2 65/1/2 67/1/2
f 67/1/2 65/1/2 68/1/2
f 67/2/2 68/2/2 69/2/2
f 69/2/2 68/2/2 70/2/2
f 70/8/2 71/8/2 72/8/2
f 72/8/2 71/8/2 73/8/2
f 72/9/2 73/9/2 75/9/2
f 74/9/2 75/9/2 76/9/2
f 75/9/2 73/9/2 77/9/2
f 76/9/2 75/9/2 77/9/2
f 77/9/2 73/9/2 78/9/2
f 77/8/2 78/8/2 79/8/2
f 79/8/2 78/8/2 80/8/2
f 79/9/2 80/9/2 82/9/2
f 81/9/2 82/9/2 83/9/2
f 82/9/2 80/9/2 84/9/2
f 83/9/2 82/9/2 84/9/2
f 84/9/2 80/9/2 85/9/2
f 84/8/2 85/8/2 86/8/2
f 86/8/2 85/8/2 87/8/2
f 86/9/2 87/9/2 89/9/2
f 88/9/2 89/9/2 90/9/2
f 89/9/2 87/9/2 91/9/2
f 90/9/2 89/9/2 91/9/2
f 91/9/2 87/9/2 93/9/2
f 92/9/2 93/9/2 94/9/2
f 93/9/2 87/9/2 95/9/2
f 94/9/2 93/9/2 95/9/2
f 96/4/2 97/4/2 100/4/2
f 100/4/2 97/4/2 101/4/2
f 98/4/2 99/4/2 102/4/2
f 102/4/2 99/4/2 103/4/2
f 104/4/2 105/4/2 107/4/2
f 107/4/2 105/4/2 108/4/2
f 106/4/2 107/4/2 110/4/2
f 107/5/2 108/5/2 111/5/2
f 110/4/2 107/4/2 111/4/2
f 108/4/2 109/4/2 112/4/2
f 111/5/2 108/5/2 112/5/2
f 112/4/2 109/4/2 113/4/2
f 110/5/2 111/5/2 114/5/2
f 112/5/2 113/5/2 115/5/2
f 110/5/2 114/5/2 116/5/2
f 114/5/2 115/5/2 116/5/2
f 115/5/2 113/5/2 117/5/2
f 116/5/2 115/5/2 117/5/2
f 118/6/2 119/6/2 120/6/2
f 120/6/2 119/6/2 121/6/2
f 122/6/2 123/6/2 124/6/2
f 124/6/2 123/6/2 125/6/2
f 140/1/3 127/1/3 126/1/3
f 141/2/3 128/2/3 127/2/3
f 141/1/3 127/1/3 140/1/3
f 142/3/3 129/3/3 128/3/3
f 142/2/3 128/2/3 141/2/3
f 143/1/3 130/1/3 129/1/3
f 143/3/3 129/3/3 142/3/3
f 144/2/3 131/2/3 130/2/3
f 144/1/3 130/1/3 143/1/3
f 145/2/3 131/2/3 144/2/3
f 146/9/3 133/9/3 132/9/3
f 147/9/3 133/9/3 146/9/3
f 148/9/3 135/9/3 134/9/3
f 149/9/3 135/9/3 148/9/3
f 150/9/3 137/9/3 136/9/3
f 151/9/3 137/9/3 150/9/3
f 152/9/3 139/9/3 138/9/3
f 153/9/3 139/9/3 152/9/3
f 157/4/3 155/4/3 154/4/3
f 158/5/3 156/5/3 155/5/3
f 158/4/3 155/4/3 157/4/3
f 159/5/3 156/5/3 158/5/3
f 160/4/3 159/4/3 158/4/3
f 161/5/3 156/5/3 159/5/3
f 161/4/3 159/4/3 160/4/3
f 162/5/3 156/5/3 161/5/3
f 176/8/3 164/8/3 163/8/3
f 177/9/3 165/9/3 164/9/3
f 177/8/3 164/8/3 176/8/3
f 178/9/3 165/9/3 177/9/3
f 179/8/3 167/8/3 166/8/3
f 180/9/3 168/9/3 167/9/3
f 180/8/3 167/8/3 179/8/3
f 181/9/3 168/9/3 180/9/3
f 182/8/3 170/8/3 169/8/3
f 183/9/3 171/9/3 170/9/3
f 183/8/3 170/8/3 182/8/3
f 184/9/3 171/9/3 183/9/3
f 185/9/3 173/9/3 172/9/3
f 186/9/3 173/9/3 185/9/3
f 187/7/3 175/7/3 174/7/3
f 187/7/3 176/7/3 175/7/3
f 188/7/3 176/7/3 187/7/3
f 191/4/3 190/4/3 189/4/3
f 192/4/3 190/4/3 191/4/3
f 196/6/3 194/6/3 193/6/3
f 197/6/3 194/6/3 196/6/3
f 197/6/3 196/6/3 195/6/3
f 198/6/3 194/6/3 197/6/3
f 199/6/3 197/6/3 195/6/3
f 200/6/3 197/6/3 199/6/3
f 201/1/4 202/1/4 212/1/4
f 202/3/4 203/3/4 213/3/4
f 212/1/4 202/1/4 213/1/4
f 203/2/4 204/2/4 214/2/4
f 213/3/4 203/3/4 214/3/4
f 214/2/4 204/2/4 215/2/4
f 204/1/4 205/1/4 216/1/4
f 215/2/4 204/2/4 216/2/4
f 205/8/4 206/8/4 217/8/4
f 216/1/4 205/1/4 217/1/4
f 206/9/4 207/9/4 218/9/4
f 217/8/4 206/8/4 218/8/4
f 207/8/4 208/8/4 219/8/4
f 218/9/4 207/9/4 219/9/4
f 208/9/4 209/9/4 220/9/4
f 219/8/4 208/8/4 220/8/4
f 209/8/4 210/8/4 221/8/4
f 220/9/4 209/9/4 221/9/4
f 210/9/4 211/9/4 222/9/4
f 221/8/4 210/8/4 222/8/4
f 222/9/4 211/9/4 223/9/4
f 216/7/4 217/7/4 224/7/4
f 215/7/4 216/7/4 224/7/4
f 224/7/4 217/7/4 225/7/4
f 226/4/4 227/4/4 228/4/4
f 228/4/4 227/4/4 229/4/4
f 230/6/4 231/6/4 233/6/4
f 233/6/4 231/6/4 234/6/4
f 232/6/4 233/6/4 234/6/4
f 234/6/4 231/6/4 235/6/4
f 232/6/4 234/6/4 236/6/4
f 236/6/4 234/6/4 237/6/4
f 238/4/4 239/4/4 241/4/4
f 239/5/4 240/5/4 242/5/4
f 241/4/4 239/4/4 242/4/4
f 242/5/4 240/5/4 243/5/4
f 242/4/4 243/4/4 244/4/4
f 243/5/4 240/5/4 245/5/4
f 244/4/4 243/4/4 245/4/4
f 245/5/4 240/5/4 246/5/4
f 249/1/5 248/1/5 247/1/5
f 250/1/5 248/1/5 249/1/5
f 253/4/5 252/4/5 251/4/5
f 255/4/5 253/4/5 251/4/5
f 255/4/5 254/4/5 253/4/5
f 256/4/5 254/4/5 255/4/5
f 257/4/5 255/4/5 251/4/5
f 258/4/5 255/4/5 257/4/5
f 261/4/5 260/4/5 259/4/5
f 262/4/5 260/4/5 261/4/5
f 267/6/5 264/6/5 263/6/5
f 268/6/5 264/6/5 267/6/5
f 269/4/5 266/4/5 265/4/5
f 270/4/5 266/4/5 269/4/5
f 275/7/5 272/7/5 271/7/5
f 276/7/5 272/7/5 275/7/5
f 277/6/5 274/6/5 273/6/5
f 278/6/5 274/6/5 277/6/5
f 281/9/5 280/9/5 279/9/5
f 282/9/5 280/9/5 281/9/5
f 285/9/5 284/9/5 283/9/5
f 286/9/5 284/9/5 285/9/5
f 289/9/5 288/9/5 287/9/5
f 290/9/5 288/9/5 289/9/5
f 293/9/5 292/9/5 291/9/5
f 294/9/5 292/9/5 293/9/5
f 295/6/6 296/6/6 297/6/6
f 297/6/6 296/6/6 298/6/6
f 299/6/6 300/6/6 301/6/6
f 301/6/6 300/6/6 302/6/6
f 303/2/6 304/2/6 307/2/6
f 307/2/6 304/2/6 308/2/6
f 305/5/6 306/5/6 309/5/6
f 308/7/6 309/7/6 310/7/6
f 309/5/6 306/5/6 311/5/6
f 310/7/6 309/7/6 311/7/6
f 311/5/6 306/5/6 312/5/6
f 312/5/6 306/5/6 313/5/6
f 314/9/6 315/9/6 316/9/6
f 316/9/6 315/9/6 317/9/6
f 318/9/6 319/9/6 320/9/6
f 320/9/6 319/9/6 321/9/6
f 322/9/6 323/9/6 324/9/6
f 324/9/6 323/9/6 325/9/6
f 326/9/6 327/9/6 328/9/6
f 328/9/6 327/9/6 329/9/6
