# MagicaVoxel @ ephtracy

# material
mtllib rod_cloudnine.mtl
usemtl palette

# normals
vn -1 0 0
vn 1 0 0
vn 0 0 1
vn 0 0 -1
vn 0 -1 0
vn 0 1 0

# texcoords
vt 0.00195313 0.5
vt 0.00585938 0.5
vt 0.00976563 0.5
vt 0.0136719 0.5
vt 0.0175781 0.5
vt 0.0214844 0.5
vt 0.0253906 0.5
vt 0.0292969 0.5
vt 0.0332031 0.5
vt 0.0371094 0.5
vt 0.0410156 0.5
vt 0.0449219 0.5
vt 0.0488281 0.5
vt 0.0527344 0.5
vt 0.0566406 0.5
vt 0.0605469 0.5
vt 0.0644531 0.5
vt 0.0683594 0.5

# verts
v -4 0 -1
v -4 0 -3
v -4 2 -1
v -4 2 -2
v -4 2 -3
v -4 3 -1
v -4 3 -2
v -4 3 -3
v -4 4 -1
v -4 4 -2
v -4 5 -2
v -4 5 -3
v -4 6 -1
v -4 6 -2
v -4 6 -3
v -4 7 -1
v -4 7 -2
v -4 7 -3
v -4 10 -1
v -4 10 -2
v -4 10 -3
v -4 15 -2
v -4 15 -3
v -4 16 -1
v -4 16 -2
v -4 17 -1
v -4 17 -2
v -4 17 -3
v -4 22 -2
v -4 22 -3
v -4 23 -1
v -4 23 -2
v -4 24 -1
v -4 24 -2
v -4 24 -3
v -4 29 -2
v -4 29 -3
v -4 30 -1
v -4 30 -2
v -4 31 -1
v -4 31 -2
v -4 32 -1
v -4 32 -2
v -4 33 -1
v -4 33 -3
v -3 7 -3
v -3 7 -4
v -3 10 -3
v -3 10 -4
v -2 6 -1
v -2 6 -3
v -2 6 -4
v -2 7 -0
v -2 7 -1
v -2 7 -3
v -2 7 -4
v -2 7 -5
v -2 8 -4
v -2 8 -5
v -2 9 -4
v -2 9 -5
v -2 10 -0
v -2 10 -1
v -2 10 -2
v -2 10 -3
v -2 10 -4
v -2 10 -5
v -2 11 -1
v -2 11 -2
v -2 11 -3
v -2 11 -4
v -3 0 -1
v -3 0 -3
v -3 2 -1
v -3 2 -2
v -3 2 -3
v -3 3 -1
v -3 3 -2
v -3 3 -3
v -3 4 -1
v -3 4 -2
v -3 5 -2
v -3 5 -3
v -3 6 -1
v -3 6 -2
v -3 6 -3
v -3 7 -1
v -3 7 -2
v -3 7 -3
v -3 11 -2
v -3 11 -3
v -3 15 -2
v -3 15 -3
v -3 16 -1
v -3 16 -2
v -3 17 -1
v -3 17 -2
v -3 17 -3
v -3 22 -2
v -3 22 -3
v -3 23 -1
v -3 23 -2
v -3 24 -1
v -3 24 -2
v -3 24 -3
v -3 29 -2
v -3 29 -3
v -3 30 -1
v -3 30 -2
v -3 31 -1
v -3 31 -2
v -3 32 -1
v -3 32 -2
v -3 33 -1
v -3 33 -3
v -1 6 -1
v -1 6 -2
v -1 6 -3
v -1 6 -4
v -1 7 -0
v -1 7 -1
v -1 7 -2
v -1 7 -3
v -1 7 -4
v -1 7 -5
v -1 8 -0
v -1 8 -1
v -1 8 -4
v -1 8 -5
v 0 6 -2
v 0 6 -3
v 0 7 -1
v 0 7 -2
v 0 7 -3
v 0 7 -4
v 0 8 -0
v 0 8 -1
v 0 8 -2
v 0 8 -3
v 0 8 -4
v 0 8 -5
v 0 9 -4
v 0 9 -5
v 0 10 -0
v 0 10 -1
v 0 10 -4
v 0 10 -5
v 0 11 -1
v 0 11 -4
v 1 8 -1
v 1 8 -2
v 1 8 -3
v 1 8 -4
v 1 9 -2
v 1 9 -3
v 1 10 -1
v 1 10 -4
v 2 8 -2
v 2 8 -3
v 2 9 -2
v 2 9 -3
v 3 7 -2
v 3 7 -3
v 3 8 -2
v 3 8 -3
v -2 7 -0
v -2 10 -0
v -1 7 -0
v -1 8 -0
v 0 8 -0
v 0 10 -0
v -4 0 -1
v -4 2 -1
v -4 3 -1
v -4 4 -1
v -4 6 -1
v -4 7 -1
v -4 10 -1
v -4 16 -1
v -4 17 -1
v -4 23 -1
v -4 24 -1
v -4 30 -1
v -4 31 -1
v -4 32 -1
v -4 33 -1
v -3 0 -1
v -3 2 -1
v -3 3 -1
v -3 4 -1
v -3 6 -1
v -3 7 -1
v -3 10 -1
v -3 16 -1
v -3 17 -1
v -3 23 -1
v -3 24 -1
v -3 30 -1
v -3 31 -1
v -3 32 -1
v -3 33 -1
v -2 6 -1
v -2 7 -1
v -2 10 -1
v -2 11 -1
v -1 6 -1
v -1 7 -1
v -1 8 -1
v 0 7 -1
v 0 8 -1
v 0 10 -1
v 0 11 -1
v 1 8 -1
v 1 10 -1
v -4 10 -2
v -4 15 -2
v -4 16 -2
v -4 17 -2
v -4 22 -2
v -4 23 -2
v -4 24 -2
v -4 29 -2
v -4 30 -2
v -4 31 -2
v -4 32 -2
v -3 10 -2
v -3 11 -2
v -3 15 -2
v -3 16 -2
v -3 17 -2
v -3 22 -2
v -3 23 -2
v -3 24 -2
v -3 29 -2
v -3 30 -2
v -3 31 -2
v -3 32 -2
v -2 10 -2
v -2 11 -2
v -1 6 -2
v -1 7 -2
v 0 6 -2
v 0 7 -2
v 0 8 -2
v 1 7 -2
v 1 8 -2
v 1 9 -2
v 2 8 -2
v 2 9 -2
v 3 7 -2
v 3 8 -2
v -4 0 -3
v -4 2 -3
v -4 3 -3
v -4 5 -3
v -4 6 -3
v -4 7 -3
v -4 10 -3
v -4 15 -3
v -4 17 -3
v -4 22 -3
v -4 24 -3
v -4 29 -3
v -4 33 -3
v -3 0 -3
v -3 2 -3
v -3 3 -3
v -3 5 -3
v -3 6 -3
v -3 7 -3
v -3 10 -3
v -3 11 -3
v -3 15 -3
v -3 17 -3
v -3 22 -3
v -3 24 -3
v -3 29 -3
v -3 33 -3
v -2 10 -3
v -2 11 -3
v -1 6 -3
v -1 7 -3
v 0 6 -3
v 0 7 -3
v 0 8 -3
v 1 7 -3
v 1 8 -3
v 1 9 -3
v 2 8 -3
v 2 9 -3
v 3 7 -3
v 3 8 -3
v -3 7 -4
v -3 10 -4
v -2 6 -4
v -2 7 -4
v -2 8 -4
v -2 9 -4
v -2 10 -4
v -2 11 -4
v -1 6 -4
v -1 7 -4
v -1 8 -4
v -1 10 -4
v 0 7 -4
v 0 8 -4
v 0 9 -4
v 0 10 -4
v 0 11 -4
v 1 8 -4
v 1 10 -4
v -2 7 -5
v -2 8 -5
v -2 9 -5
v -2 10 -5
v -1 7 -5
v -1 8 -5
v -1 9 -5
v -1 10 -5
v 0 8 -5
v 0 9 -5
v 0 10 -5
v -4 0 -1
v -3 0 -1
v -4 0 -3
v -3 0 -3
v -2 6 -1
v -1 6 -1
v -1 6 -2
v 0 6 -2
v -2 6 -3
v -1 6 -3
v 0 6 -3
v -2 6 -4
v -1 6 -4
v -2 7 -0
v -1 7 -0
v -3 7 -1
v -2 7 -1
v -1 7 -1
v 0 7 -1
v -3 7 -2
v -1 7 -2
v 0 7 -2
v 1 7 -2
v 3 7 -2
v -3 7 -3
v -2 7 -3
v -1 7 -3
v 0 7 -3
v 1 7 -3
v 3 7 -3
v -3 7 -4
v -2 7 -4
v -1 7 -4
v 0 7 -4
v -2 7 -5
v -1 7 -5
v -1 8 -0
v 0 8 -0
v -1 8 -1
v 0 8 -1
v 1 8 -1
v 0 8 -2
v 1 8 -2
v 0 8 -3
v 1 8 -3
v -1 8 -4
v 0 8 -4
v 1 8 -4
v -1 8 -5
v 0 8 -5
v -4 16 -1
v -3 16 -1
v -4 16 -2
v -3 16 -2
v -4 23 -1
v -3 23 -1
v -4 23 -2
v -3 23 -2
v -4 30 -1
v -3 30 -1
v -4 30 -2
v -3 30 -2
v -4 32 -1
v -3 32 -1
v -4 32 -2
v -3 32 -2
v 2 8 -2
v 3 8 -2
v 2 8 -3
v 3 8 -3
v 1 9 -2
v 2 9 -2
v 1 9 -3
v 2 9 -3
v -2 10 -0
v 0 10 -0
v -4 10 -1
v -3 10 -1
v -2 10 -1
v 0 10 -1
v 1 10 -1
v -4 10 -2
v -3 10 -2
v -2 10 -2
v -3 10 -3
v -2 10 -3
v -3 10 -4
v -2 10 -4
v -1 10 -4
v 0 10 -4
v 1 10 -4
v -2 10 -5
v -1 10 -5
v 0 10 -5
v -2 11 -1
v 0 11 -1
v -3 11 -2
v -2 11 -2
v -3 11 -3
v -2 11 -3
v -2 11 -4
v 0 11 -4
v -4 17 -1
v -3 17 -1
v -4 17 -2
v -3 17 -2
v -4 24 -1
v -3 24 -1
v -4 24 -2
v -3 24 -2
v -4 31 -1
v -3 31 -1
v -4 31 -2
v -3 31 -2
v -4 33 -1
v -3 33 -1
v -4 33 -3
v -3 33 -3

# faces
f 3/1/1 2/1/1 1/1/1
f 4/1/1 2/1/1 3/1/1
f 5/1/1 2/1/1 4/1/1
f 6/2/1 4/2/1 3/2/1
f 7/3/1 5/3/1 4/3/1
f 7/2/1 4/2/1 6/2/1
f 8/3/1 5/3/1 7/3/1
f 9/4/1 7/4/1 6/4/1
f 10/5/1 8/5/1 7/5/1
f 10/4/1 7/4/1 9/4/1
f 11/6/1 10/6/1 9/6/1
f 11/5/1 8/5/1 10/5/1
f 12/5/1 8/5/1 11/5/1
f 13/6/1 11/6/1 9/6/1
f 14/4/1 12/4/1 11/4/1
f 14/6/1 11/6/1 13/6/1
f 15/4/1 12/4/1 14/4/1
f 16/7/1 14/7/1 13/7/1
f 17/9/1 15/9/1 14/9/1
f 17/7/1 14/7/1 16/7/1
f 18/9/1 15/9/1 17/9/1
f 19/1/1 17/1/1 16/1/1
f 19/1/1 18/1/1 17/1/1
f 20/1/1 18/1/1 19/1/1
f 21/1/1 18/1/1 20/1/1
f 22/18/1 21/18/1 20/18/1
f 23/18/1 21/18/1 22/18/1
f 25/1/1 23/1/1 22/1/1
f 26/1/1 25/1/1 24/1/1
f 27/1/1 23/1/1 25/1/1
f 27/1/1 25/1/1 26/1/1
f 28/1/1 23/1/1 27/1/1
f 29/18/1 28/18/1 27/18/1
f 30/18/1 28/18/1 29/18/1
f 32/1/1 30/1/1 29/1/1
f 33/1/1 32/1/1 31/1/1
f 34/1/1 30/1/1 32/1/1
f 34/1/1 32/1/1 33/1/1
f 35/1/1 30/1/1 34/1/1
f 36/18/1 35/18/1 34/18/1
f 37/18/1 35/18/1 36/18/1
f 39/1/1 37/1/1 36/1/1
f 40/1/1 39/1/1 38/1/1
f 41/1/1 37/1/1 39/1/1
f 41/1/1 39/1/1 40/1/1
f 43/1/1 37/1/1 41/1/1
f 44/1/1 43/1/1 42/1/1
f 45/1/1 37/1/1 43/1/1
f 45/1/1 43/1/1 44/1/1
f 48/12/1 47/12/1 46/12/1
f 49/12/1 47/12/1 48/12/1
f 54/8/1 51/8/1 50/8/1
f 55/11/1 52/11/1 51/11/1
f 55/8/1 51/8/1 54/8/1
f 56/11/1 52/11/1 55/11/1
f 58/15/1 57/15/1 56/15/1
f 59/15/1 57/15/1 58/15/1
f 60/10/1 59/10/1 58/10/1
f 61/10/1 59/10/1 60/10/1
f 62/12/1 54/12/1 53/12/1
f 63/12/1 54/12/1 62/12/1
f 66/17/1 61/17/1 60/17/1
f 67/17/1 61/17/1 66/17/1
f 68/12/1 64/12/1 63/12/1
f 69/12/1 64/12/1 68/12/1
f 70/12/1 66/12/1 65/12/1
f 71/12/1 66/12/1 70/12/1
f 72/1/2 73/1/2 74/1/2
f 74/1/2 73/1/2 75/1/2
f 75/1/2 73/1/2 76/1/2
f 74/2/2 75/2/2 77/2/2
f 75/3/2 76/3/2 78/3/2
f 77/2/2 75/2/2 78/2/2
f 78/3/2 76/3/2 79/3/2
f 77/4/2 78/4/2 80/4/2
f 78/5/2 79/5/2 81/5/2
f 80/4/2 78/4/2 81/4/2
f 80/6/2 81/6/2 82/6/2
f 81/5/2 79/5/2 82/5/2
f 82/5/2 79/5/2 83/5/2
f 80/6/2 82/6/2 84/6/2
f 82/4/2 83/4/2 85/4/2
f 84/6/2 82/6/2 85/6/2
f 85/4/2 83/4/2 86/4/2
f 84/7/2 85/7/2 87/7/2
f 85/9/2 86/9/2 88/9/2
f 87/7/2 85/7/2 88/7/2
f 88/9/2 86/9/2 89/9/2
f 90/18/2 91/18/2 92/18/2
f 92/18/2 91/18/2 93/18/2
f 92/1/2 93/1/2 95/1/2
f 94/1/2 95/1/2 96/1/2
f 95/1/2 93/1/2 97/1/2
f 96/1/2 95/1/2 97/1/2
f 97/1/2 93/1/2 98/1/2
f 97/18/2 98/18/2 99/18/2
f 99/18/2 98/18/2 100/18/2
f 99/1/2 100/1/2 102/1/2
f 101/1/2 102/1/2 103/1/2
f 102/1/2 100/1/2 104/1/2
f 103/1/2 102/1/2 104/1/2
f 104/1/2 100/1/2 105/1/2
f 104/18/2 105/18/2 106/18/2
f 106/18/2 105/18/2 107/18/2
f 106/1/2 107/1/2 109/1/2
f 108/1/2 109/1/2 110/1/2
f 109/1/2 107/1/2 111/1/2
f 110/1/2 109/1/2 111/1/2
f 111/1/2 107/1/2 113/1/2
f 112/1/2 113/1/2 114/1/2
f 113/1/2 107/1/2 115/1/2
f 114/1/2 113/1/2 115/1/2
f 116/8/2 117/8/2 121/8/2
f 121/8/2 117/8/2 122/8/2
f 118/11/2 119/11/2 123/11/2
f 123/11/2 119/11/2 124/11/2
f 120/12/2 121/12/2 126/12/2
f 126/12/2 121/12/2 127/12/2
f 124/15/2 125/15/2 128/15/2
f 128/15/2 125/15/2 129/15/2
f 130/10/2 131/10/2 133/10/2
f 133/10/2 131/10/2 134/10/2
f 132/12/2 133/12/2 137/12/2
f 137/12/2 133/12/2 138/12/2
f 134/12/2 135/12/2 139/12/2
f 139/12/2 135/12/2 140/12/2
f 140/16/2 141/16/2 142/16/2
f 142/16/2 141/16/2 143/16/2
f 136/12/2 137/12/2 144/12/2
f 144/12/2 137/12/2 145/12/2
f 142/11/2 143/11/2 146/11/2
f 146/11/2 143/11/2 147/11/2
f 145/12/2 146/12/2 148/12/2
f 148/12/2 146/12/2 149/12/2
f 150/12/2 151/12/2 154/12/2
f 152/12/2 153/12/2 155/12/2
f 150/12/2 154/12/2 156/12/2
f 154/12/2 155/12/2 156/12/2
f 155/12/2 153/12/2 157/12/2
f 156/12/2 155/12/2 157/12/2
f 158/14/2 159/14/2 160/14/2
f 160/14/2 159/14/2 161/14/2
f 162/14/2 163/14/2 164/14/2
f 164/14/2 163/14/2 165/14/2
f 168/12/3 167/12/3 166/12/3
f 169/12/3 167/12/3 168/12/3
f 170/12/3 167/12/3 169/12/3
f 171/12/3 167/12/3 170/12/3
f 187/1/3 173/1/3 172/1/3
f 188/2/3 174/2/3 173/2/3
f 188/1/3 173/1/3 187/1/3
f 189/4/3 175/4/3 174/4/3
f 189/2/3 174/2/3 188/2/3
f 190/6/3 176/6/3 175/6/3
f 190/4/3 175/4/3 189/4/3
f 191/7/3 177/7/3 176/7/3
f 191/6/3 176/6/3 190/6/3
f 192/1/3 178/1/3 177/1/3
f 192/7/3 177/7/3 191/7/3
f 193/1/3 178/1/3 192/1/3
f 194/1/3 180/1/3 179/1/3
f 195/1/3 180/1/3 194/1/3
f 196/1/3 182/1/3 181/1/3
f 197/1/3 182/1/3 196/1/3
f 198/1/3 184/1/3 183/1/3
f 199/1/3 184/1/3 198/1/3
f 200/1/3 186/1/3 185/1/3
f 201/1/3 186/1/3 200/1/3
f 203/12/3 193/12/3 192/12/3
f 204/12/3 193/12/3 203/12/3
f 206/8/3 203/8/3 202/8/3
f 207/8/3 203/8/3 206/8/3
f 209/12/3 208/12/3 207/12/3
f 210/12/3 208/12/3 209/12/3
f 211/12/3 205/12/3 204/12/3
f 212/12/3 205/12/3 211/12/3
f 213/12/3 211/12/3 210/12/3
f 214/12/3 211/12/3 213/12/3
f 226/18/3 216/18/3 215/18/3
f 227/18/3 216/18/3 226/18/3
f 228/1/3 217/1/3 216/1/3
f 228/18/3 216/18/3 227/18/3
f 229/1/3 217/1/3 228/1/3
f 230/18/3 219/18/3 218/18/3
f 231/1/3 220/1/3 219/1/3
f 231/18/3 219/18/3 230/18/3
f 232/1/3 220/1/3 231/1/3
f 233/18/3 222/18/3 221/18/3
f 234/1/3 223/1/3 222/1/3
f 234/18/3 222/18/3 233/18/3
f 235/1/3 223/1/3 234/1/3
f 236/1/3 225/1/3 224/1/3
f 237/1/3 225/1/3 236/1/3
f 238/12/3 227/12/3 226/12/3
f 239/12/3 227/12/3 238/12/3
f 242/10/3 241/10/3 240/10/3
f 243/10/3 241/10/3 242/10/3
f 245/12/3 244/12/3 243/12/3
f 246/12/3 244/12/3 245/12/3
f 248/14/3 246/14/3 245/14/3
f 248/14/3 247/14/3 246/14/3
f 249/14/3 247/14/3 248/14/3
f 250/14/3 248/14/3 245/14/3
f 251/14/3 248/14/3 250/14/3
f 252/1/4 253/1/4 265/1/4
f 253/3/4 254/3/4 266/3/4
f 265/1/4 253/1/4 266/1/4
f 254/5/4 255/5/4 267/5/4
f 266/3/4 254/3/4 267/3/4
f 255/4/4 256/4/4 268/4/4
f 267/5/4 255/5/4 268/5/4
f 256/9/4 257/9/4 269/9/4
f 268/4/4 256/4/4 269/4/4
f 257/1/4 258/1/4 270/1/4
f 269/9/4 257/9/4 270/9/4
f 258/18/4 259/18/4 271/18/4
f 270/1/4 258/1/4 271/1/4
f 271/18/4 259/18/4 272/18/4
f 259/1/4 260/1/4 273/1/4
f 272/18/4 259/18/4 273/18/4
f 260/18/4 261/18/4 274/18/4
f 273/1/4 260/1/4 274/1/4
f 261/1/4 262/1/4 275/1/4
f 274/18/4 261/18/4 275/18/4
f 262/18/4 263/18/4 276/18/4
f 275/1/4 262/1/4 276/1/4
f 263/1/4 264/1/4 277/1/4
f 276/18/4 263/18/4 277/18/4
f 277/1/4 264/1/4 278/1/4
f 271/12/4 272/12/4 279/12/4
f 279/12/4 272/12/4 280/12/4
f 281/10/4 282/10/4 283/10/4
f 283/10/4 282/10/4 284/10/4
f 284/12/4 285/12/4 286/12/4
f 286/12/4 285/12/4 287/12/4
f 286/14/4 287/14/4 289/14/4
f 287/14/4 288/14/4 289/14/4
f 289/14/4 288/14/4 290/14/4
f 286/14/4 289/14/4 291/14/4
f 291/14/4 289/14/4 292/14/4
f 293/12/4 294/12/4 296/12/4
f 296/12/4 294/12/4 297/12/4
f 297/12/4 294/12/4 298/12/4
f 298/12/4 294/12/4 299/12/4
f 295/11/4 296/11/4 301/11/4
f 301/11/4 296/11/4 302/11/4
f 299/12/4 300/12/4 304/12/4
f 302/12/4 303/12/4 305/12/4
f 305/12/4 303/12/4 306/12/4
f 304/12/4 300/12/4 308/12/4
f 308/12/4 300/12/4 309/12/4
f 306/12/4 307/12/4 310/12/4
f 307/12/4 308/12/4 310/12/4
f 310/12/4 308/12/4 311/12/4
f 312/15/4 313/15/4 316/15/4
f 313/10/4 314/10/4 317/10/4
f 316/15/4 313/15/4 317/15/4
f 314/17/4 315/17/4 318/17/4
f 317/10/4 314/10/4 318/10/4
f 318/17/4 315/17/4 319/17/4
f 317/16/4 318/16/4 320/16/4
f 318/11/4 319/11/4 321/11/4
f 320/16/4 318/16/4 321/16/4
f 321/11/4 319/11/4 322/11/4
f 325/1/5 324/1/5 323/1/5
f 326/1/5 324/1/5 325/1/5
f 329/8/5 328/8/5 327/8/5
f 331/8/5 329/8/5 327/8/5
f 332/10/5 330/10/5 329/10/5
f 332/8/5 329/8/5 331/8/5
f 333/10/5 330/10/5 332/10/5
f 334/11/5 332/11/5 331/11/5
f 335/11/5 332/11/5 334/11/5
f 339/12/5 337/12/5 336/12/5
f 340/12/5 337/12/5 339/12/5
f 342/12/5 339/12/5 338/12/5
f 343/12/5 341/12/5 340/12/5
f 344/12/5 341/12/5 343/12/5
f 347/12/5 339/12/5 342/12/5
f 348/12/5 339/12/5 347/12/5
f 350/12/5 345/12/5 344/12/5
f 351/14/5 346/14/5 345/14/5
f 351/12/5 345/12/5 350/12/5
f 352/14/5 346/14/5 351/14/5
f 353/12/5 348/12/5 347/12/5
f 354/12/5 348/12/5 353/12/5
f 355/12/5 350/12/5 349/12/5
f 356/12/5 350/12/5 355/12/5
f 357/15/5 355/15/5 354/15/5
f 358/15/5 355/15/5 357/15/5
f 361/12/5 360/12/5 359/12/5
f 362/12/5 360/12/5 361/12/5
f 364/12/5 363/12/5 362/12/5
f 365/12/5 363/12/5 364/12/5
f 369/12/5 367/12/5 366/12/5
f 370/12/5 367/12/5 369/12/5
f 371/16/5 369/16/5 368/16/5
f 372/16/5 369/16/5 371/16/5
f 375/1/5 374/1/5 373/1/5
f 376/1/5 374/1/5 375/1/5
f 379/1/5 378/1/5 377/1/5
f 380/1/5 378/1/5 379/1/5
f 383/1/5 382/1/5 381/1/5
f 384/1/5 382/1/5 383/1/5
f 387/1/5 386/1/5 385/1/5
f 388/1/5 386/1/5 387/1/5
f 389/14/6 390/14/6 391/14/6
f 391/14/6 390/14/6 392/14/6
f 393/14/6 394/14/6 395/14/6
f 395/14/6 394/14/6 396/14/6
f 397/12/6 398/12/6 401/12/6
f 401/12/6 398/12/6 402/12/6
f 399/1/6 400/1/6 404/1/6
f 400/12/6 401/12/6 405/12/6
f 404/1/6 400/1/6 405/1/6
f 405/12/6 401/12/6 406/12/6
f 407/12/6 408/12/6 409/12/6
f 409/12/6 408/12/6 410/12/6
f 402/12/6 403/12/6 412/12/6
f 412/12/6 403/12/6 413/12/6
f 410/17/6 411/17/6 414/17/6
f 411/11/6 412/11/6 415/11/6
f 414/17/6 411/17/6 415/17/6
f 415/11/6 412/11/6 416/11/6
f 417/12/6 418/12/6 420/12/6
f 419/12/6 420/12/6 421/12/6
f 420/12/6 418/12/6 422/12/6
f 421/12/6 420/12/6 422/12/6
f 422/12/6 418/12/6 423/12/6
f 423/12/6 418/12/6 424/12/6
f 425/1/6 426/1/6 427/1/6
f 427/1/6 426/1/6 428/1/6
f 429/1/6 430/1/6 431/1/6
f 431/1/6 430/1/6 432/1/6
f 433/1/6 434/1/6 435/1/6
f 435/1/6 434/1/6 436/1/6
f 437/1/6 438/1/6 439/1/6
f 439/1/6 438/1/6 440/1/6
