# MagicaVoxel @ ephtracy

# material
mtllib rod_creeper.mtl
usemtl palette

# normals
vn -1 0 0
vn 1 0 0
vn 0 0 1
vn 0 0 -1
vn 0 -1 0
vn 0 1 0

# texcoords
vt 0.00195313 0.5
vt 0.00585938 0.5
vt 0.00976563 0.5
vt 0.0136719 0.5
vt 0.0175781 0.5
vt 0.0214844 0.5
vt 0.0253906 0.5
vt 0.0292969 0.5

# verts
v -4 0 -1
v -4 0 -3
v -4 1 -1
v -4 1 -2
v -4 2 -1
v -4 2 -2
v -4 2 -3
v -4 3 -1
v -4 3 -2
v -4 3 -3
v -4 4 -1
v -4 4 -2
v -4 4 -3
v -4 5 -1
v -4 5 -2
v -4 5 -3
v -4 6 -1
v -4 6 -2
v -4 6 -3
v -4 7 -1
v -4 7 -2
v -4 7 -3
v -4 9 -1
v -4 9 -2
v -4 9 -3
v -4 10 -1
v -4 10 -2
v -4 10 -3
v -4 11 -2
v -4 11 -3
v -4 12 -2
v -4 12 -3
v -4 13 -2
v -4 13 -3
v -4 14 -2
v -4 14 -3
v -4 15 -2
v -4 15 -3
v -4 16 -1
v -4 16 -2
v -4 17 -1
v -4 17 -2
v -4 17 -3
v -4 18 -2
v -4 18 -3
v -4 19 -2
v -4 19 -3
v -4 20 -2
v -4 20 -3
v -4 21 -2
v -4 21 -3
v -4 22 -2
v -4 22 -3
v -4 23 -1
v -4 23 -2
v -4 24 -1
v -4 24 -2
v -4 24 -3
v -4 25 -2
v -4 25 -3
v -4 26 -2
v -4 26 -3
v -4 27 -2
v -4 27 -3
v -4 28 -2
v -4 28 -3
v -4 29 -2
v -4 29 -3
v -4 30 -1
v -4 30 -2
v -4 31 -1
v -4 31 -2
v -4 32 -1
v -4 32 -2
v -4 33 -1
v -4 33 -3
v -2 6 -1
v -2 6 -4
v -2 7 -1
v -2 7 -4
v -2 8 -2
v -2 8 -3
v -2 10 -1
v -2 10 -2
v -2 10 -3
v -2 10 -4
v 1 7 -2
v 1 7 -3
v 1 8 -2
v 1 8 -3
v -3 0 -1
v -3 0 -3
v -3 1 -1
v -3 1 -2
v -3 2 -1
v -3 2 -2
v -3 2 -3
v -3 3 -1
v -3 3 -2
v -3 3 -3
v -3 4 -1
v -3 4 -2
v -3 4 -3
v -3 5 -1
v -3 5 -2
v -3 5 -3
v -3 6 -1
v -3 6 -2
v -3 6 -3
v -3 7 -1
v -3 7 -2
v -3 7 -3
v -3 8 -2
v -3 8 -3
v -3 9 -1
v -3 9 -2
v -3 10 -1
v -3 10 -2
v -3 10 -3
v -3 11 -2
v -3 11 -3
v -3 12 -2
v -3 12 -3
v -3 13 -2
v -3 13 -3
v -3 14 -2
v -3 14 -3
v -3 15 -2
v -3 15 -3
v -3 16 -1
v -3 16 -2
v -3 17 -1
v -3 17 -2
v -3 17 -3
v -3 18 -2
v -3 18 -3
v -3 19 -2
v -3 19 -3
v -3 20 -2
v -3 20 -3
v -3 21 -2
v -3 21 -3
v -3 22 -2
v -3 22 -3
v -3 23 -1
v -3 23 -2
v -3 24 -1
v -3 24 -2
v -3 24 -3
v -3 25 -2
v -3 25 -3
v -3 26 -2
v -3 26 -3
v -3 27 -2
v -3 27 -3
v -3 28 -2
v -3 28 -3
v -3 29 -2
v -3 29 -3
v -3 30 -1
v -3 30 -2
v -3 31 -1
v -3 31 -2
v -3 32 -1
v -3 32 -2
v -3 33 -1
v -3 33 -3
v -1 6 -1
v -1 6 -2
v -1 6 -3
v -1 6 -4
v -1 7 -1
v -1 7 -2
v -1 7 -3
v -1 7 -4
v 0 6 -2
v 0 6 -3
v 0 7 -1
v 0 7 -2
v 0 7 -3
v 0 7 -4
v 0 8 -1
v 0 8 -2
v 0 8 -3
v 0 8 -4
v 0 9 -2
v 0 9 -3
v 0 10 -1
v 0 10 -4
v 2 8 -2
v 2 8 -3
v 2 9 -2
v 2 9 -3
v 3 7 -2
v 3 7 -3
v 3 8 -2
v 3 8 -3
v -4 0 -1
v -4 1 -1
v -4 2 -1
v -4 3 -1
v -4 4 -1
v -4 5 -1
v -4 6 -1
v -4 7 -1
v -4 9 -1
v -4 10 -1
v -4 16 -1
v -4 17 -1
v -4 23 -1
v -4 24 -1
v -4 30 -1
v -4 31 -1
v -4 32 -1
v -4 33 -1
v -3 0 -1
v -3 1 -1
v -3 2 -1
v -3 3 -1
v -3 4 -1
v -3 5 -1
v -3 6 -1
v -3 7 -1
v -3 9 -1
v -3 10 -1
v -3 16 -1
v -3 17 -1
v -3 23 -1
v -3 24 -1
v -3 30 -1
v -3 31 -1
v -3 32 -1
v -3 33 -1
v -2 6 -1
v -2 7 -1
v -2 10 -1
v -1 6 -1
v -1 7 -1
v -1 8 -1
v 0 7 -1
v 0 8 -1
v 0 10 -1
v -4 10 -2
v -4 11 -2
v -4 12 -2
v -4 13 -2
v -4 14 -2
v -4 15 -2
v -4 16 -2
v -4 17 -2
v -4 18 -2
v -4 19 -2
v -4 20 -2
v -4 21 -2
v -4 22 -2
v -4 23 -2
v -4 24 -2
v -4 25 -2
v -4 26 -2
v -4 27 -2
v -4 28 -2
v -4 29 -2
v -4 30 -2
v -4 31 -2
v -4 32 -2
v -3 8 -2
v -3 9 -2
v -3 10 -2
v -3 11 -2
v -3 12 -2
v -3 13 -2
v -3 14 -2
v -3 15 -2
v -3 16 -2
v -3 17 -2
v -3 18 -2
v -3 19 -2
v -3 20 -2
v -3 21 -2
v -3 22 -2
v -3 23 -2
v -3 24 -2
v -3 25 -2
v -3 26 -2
v -3 27 -2
v -3 28 -2
v -3 29 -2
v -3 30 -2
v -3 31 -2
v -3 32 -2
v -2 8 -2
v -2 10 -2
v -1 6 -2
v -1 7 -2
v 0 6 -2
v 0 7 -2
v 0 8 -2
v 0 9 -2
v 1 7 -2
v 1 8 -2
v 2 8 -2
v 2 9 -2
v 3 7 -2
v 3 8 -2
v -4 0 -3
v -4 2 -3
v -4 3 -3
v -4 4 -3
v -4 5 -3
v -4 6 -3
v -4 7 -3
v -4 9 -3
v -4 10 -3
v -4 11 -3
v -4 12 -3
v -4 13 -3
v -4 14 -3
v -4 15 -3
v -4 17 -3
v -4 18 -3
v -4 19 -3
v -4 20 -3
v -4 21 -3
v -4 22 -3
v -4 24 -3
v -4 25 -3
v -4 26 -3
v -4 27 -3
v -4 28 -3
v -4 29 -3
v -4 33 -3
v -3 0 -3
v -3 2 -3
v -3 3 -3
v -3 4 -3
v -3 5 -3
v -3 6 -3
v -3 7 -3
v -3 8 -3
v -3 9 -3
v -3 10 -3
v -3 11 -3
v -3 12 -3
v -3 13 -3
v -3 14 -3
v -3 15 -3
v -3 17 -3
v -3 18 -3
v -3 19 -3
v -3 20 -3
v -3 21 -3
v -3 22 -3
v -3 24 -3
v -3 25 -3
v -3 26 -3
v -3 27 -3
v -3 28 -3
v -3 29 -3
v -3 33 -3
v -2 8 -3
v -2 10 -3
v -1 6 -3
v -1 7 -3
v 0 6 -3
v 0 7 -3
v 0 8 -3
v 0 9 -3
v 1 7 -3
v 1 8 -3
v 2 8 -3
v 2 9 -3
v 3 7 -3
v 3 8 -3
v -2 6 -4
v -2 7 -4
v -2 10 -4
v -1 6 -4
v -1 7 -4
v -1 8 -4
v 0 7 -4
v 0 8 -4
v 0 10 -4
v -4 0 -1
v -3 0 -1
v -4 0 -3
v -3 0 -3
v -2 6 -1
v -1 6 -1
v -1 6 -2
v 0 6 -2
v -1 6 -3
v 0 6 -3
v -2 6 -4
v -1 6 -4
v -1 7 -1
v 0 7 -1
v -1 7 -2
v 0 7 -2
v 1 7 -2
v 3 7 -2
v -1 7 -3
v 0 7 -3
v 1 7 -3
v 3 7 -3
v -1 7 -4
v 0 7 -4
v -3 8 -2
v -2 8 -2
v 0 8 -2
v 1 8 -2
v -3 8 -3
v -2 8 -3
v 0 8 -3
v 1 8 -3
v -4 16 -1
v -3 16 -1
v -4 16 -2
v -3 16 -2
v -4 23 -1
v -3 23 -1
v -4 23 -2
v -3 23 -2
v -4 30 -1
v -3 30 -1
v -4 30 -2
v -3 30 -2
v -4 32 -1
v -3 32 -1
v -4 32 -2
v -3 32 -2
v 2 8 -2
v 3 8 -2
v 2 8 -3
v 3 8 -3
v 0 9 -2
v 2 9 -2
v 0 9 -3
v 2 9 -3
v -4 10 -1
v -3 10 -1
v -2 10 -1
v 0 10 -1
v -4 10 -2
v -3 10 -2
v -2 10 -2
v -3 10 -3
v -2 10 -3
v -2 10 -4
v 0 10 -4
v -4 17 -1
v -3 17 -1
v -4 17 -2
v -3 17 -2
v -4 24 -1
v -3 24 -1
v -4 24 -2
v -3 24 -2
v -4 31 -1
v -3 31 -1
v -4 31 -2
v -3 31 -2
v -4 33 -1
v -3 33 -1
v -4 33 -3
v -3 33 -3

# faces
f 3/1/1 2/1/1 1/1/1
f 4/1/1 2/1/1 3/1/1
f 5/2/1 4/2/1 3/2/1
f 6/1/1 2/1/1 4/1/1
f 6/2/1 4/2/1 5/2/1
f 7/1/1 2/1/1 6/1/1
f 8/3/1 6/3/1 5/3/1
f 9/4/1 7/4/1 6/4/1
f 9/3/1 6/3/1 8/3/1
f 10/4/1 7/4/1 9/4/1
f 11/4/1 9/4/1 8/4/1
f 12/3/1 10/3/1 9/3/1
f 12/4/1 9/4/1 11/4/1
f 13/3/1 10/3/1 12/3/1
f 14/3/1 12/3/1 11/3/1
f 15/4/1 13/4/1 12/4/1
f 15/3/1 12/3/1 14/3/1
f 16/4/1 13/4/1 15/4/1
f 17/4/1 15/4/1 14/4/1
f 18/3/1 16/3/1 15/3/1
f 18/4/1 15/4/1 17/4/1
f 19/3/1 16/3/1 18/3/1
f 20/3/1 18/3/1 17/3/1
f 21/4/1 19/4/1 18/4/1
f 21/3/1 18/3/1 20/3/1
f 22/4/1 19/4/1 21/4/1
f 23/1/1 21/1/1 20/1/1
f 24/2/1 22/2/1 21/2/1
f 24/1/1 21/1/1 23/1/1
f 25/2/1 22/2/1 24/2/1
f 26/2/1 24/2/1 23/2/1
f 27/1/1 25/1/1 24/1/1
f 27/2/1 24/2/1 26/2/1
f 28/1/1 25/1/1 27/1/1
f 29/3/1 28/3/1 27/3/1
f 30/3/1 28/3/1 29/3/1
f 31/4/1 30/4/1 29/4/1
f 32/4/1 30/4/1 31/4/1
f 33/3/1 32/3/1 31/3/1
f 34/3/1 32/3/1 33/3/1
f 35/4/1 34/4/1 33/4/1
f 36/4/1 34/4/1 35/4/1
f 37/3/1 36/3/1 35/3/1
f 38/3/1 36/3/1 37/3/1
f 40/8/1 38/8/1 37/8/1
f 41/8/1 40/8/1 39/8/1
f 42/8/1 38/8/1 40/8/1
f 42/8/1 40/8/1 41/8/1
f 43/8/1 38/8/1 42/8/1
f 44/3/1 43/3/1 42/3/1
f 45/3/1 43/3/1 44/3/1
f 46/4/1 45/4/1 44/4/1
f 47/4/1 45/4/1 46/4/1
f 48/3/1 47/3/1 46/3/1
f 49/3/1 47/3/1 48/3/1
f 50/4/1 49/4/1 48/4/1
f 51/4/1 49/4/1 50/4/1
f 52/3/1 51/3/1 50/3/1
f 53/3/1 51/3/1 52/3/1
f 55/8/1 53/8/1 52/8/1
f 56/8/1 55/8/1 54/8/1
f 57/8/1 53/8/1 55/8/1
f 57/8/1 55/8/1 56/8/1
f 58/8/1 53/8/1 57/8/1
f 59/3/1 58/3/1 57/3/1
f 60/3/1 58/3/1 59/3/1
f 61/4/1 60/4/1 59/4/1
f 62/4/1 60/4/1 61/4/1
f 63/3/1 62/3/1 61/3/1
f 64/3/1 62/3/1 63/3/1
f 65/4/1 64/4/1 63/4/1
f 66/4/1 64/4/1 65/4/1
f 67/3/1 66/3/1 65/3/1
f 68/3/1 66/3/1 67/3/1
f 70/8/1 68/8/1 67/8/1
f 71/8/1 70/8/1 69/8/1
f 72/8/1 68/8/1 70/8/1
f 72/8/1 70/8/1 71/8/1
f 74/8/1 68/8/1 72/8/1
f 75/8/1 74/8/1 73/8/1
f 76/8/1 68/8/1 74/8/1
f 76/8/1 74/8/1 75/8/1
f 79/5/1 78/5/1 77/5/1
f 80/5/1 78/5/1 79/5/1
f 81/6/1 80/6/1 79/6/1
f 82/6/1 80/6/1 81/6/1
f 83/6/1 81/6/1 79/6/1
f 84/6/1 81/6/1 83/6/1
f 85/6/1 80/6/1 82/6/1
f 86/6/1 80/6/1 85/6/1
f 89/7/1 88/7/1 87/7/1
f 90/7/1 88/7/1 89/7/1
f 91/1/2 92/1/2 93/1/2
f 93/1/2 92/1/2 94/1/2
f 93/2/2 94/2/2 95/2/2
f 94/1/2 92/1/2 96/1/2
f 95/2/2 94/2/2 96/2/2
f 96/1/2 92/1/2 97/1/2
f 95/3/2 96/3/2 98/3/2
f 96/4/2 97/4/2 99/4/2
f 98/3/2 96/3/2 99/3/2
f 99/4/2 97/4/2 100/4/2
f 98/4/2 99/4/2 101/4/2
f 99/3/2 100/3/2 102/3/2
f 101/4/2 99/4/2 102/4/2
f 102/3/2 100/3/2 103/3/2
f 101/3/2 102/3/2 104/3/2
f 102/4/2 103/4/2 105/4/2
f 104/3/2 102/3/2 105/3/2
f 105/4/2 103/4/2 106/4/2
f 104/4/2 105/4/2 107/4/2
f 105/3/2 106/3/2 108/3/2
f 107/4/2 105/4/2 108/4/2
f 108/3/2 106/3/2 109/3/2
f 107/3/2 108/3/2 110/3/2
f 108/4/2 109/4/2 111/4/2
f 110/3/2 108/3/2 111/3/2
f 111/4/2 109/4/2 112/4/2
f 110/1/2 111/1/2 113/1/2
f 111/2/2 112/2/2 113/2/2
f 113/2/2 112/2/2 114/2/2
f 110/1/2 113/1/2 115/1/2
f 115/1/2 113/1/2 116/1/2
f 115/2/2 116/2/2 117/2/2
f 117/2/2 116/2/2 118/2/2
f 118/3/2 119/3/2 120/3/2
f 120/3/2 119/3/2 121/3/2
f 120/4/2 121/4/2 122/4/2
f 122/4/2 121/4/2 123/4/2
f 122/3/2 123/3/2 124/3/2
f 124/3/2 123/3/2 125/3/2
f 124/4/2 125/4/2 126/4/2
f 126/4/2 125/4/2 127/4/2
f 126/3/2 127/3/2 128/3/2
f 128/3/2 127/3/2 129/3/2
f 128/8/2 129/8/2 131/8/2
f 130/8/2 131/8/2 132/8/2
f 131/8/2 129/8/2 133/8/2
f 132/8/2 131/8/2 133/8/2
f 133/8/2 129/8/2 134/8/2
f 133/3/2 134/3/2 135/3/2
f 135/3/2 134/3/2 136/3/2
f 135/4/2 136/4/2 137/4/2
f 137/4/2 136/4/2 138/4/2
f 137/3/2 138/3/2 139/3/2
f 139/3/2 138/3/2 140/3/2
f 139/4/2 140/4/2 141/4/2
f 141/4/2 140/4/2 142/4/2
f 141/3/2 142/3/2 143/3/2
f 143/3/2 142/3/2 144/3/2
f 143/8/2 144/8/2 146/8/2
f 145/8/2 146/8/2 147/8/2
f 146/8/2 144/8/2 148/8/2
f 147/8/2 146/8/2 148/8/2
f 148/8/2 144/8/2 149/8/2
f 148/3/2 149/3/2 150/3/2
f 150/3/2 149/3/2 151/3/2
f 150/4/2 151/4/2 152/4/2
f 152/4/2 151/4/2 153/4/2
f 152/3/2 153/3/2 154/3/2
f 154/3/2 153/3/2 155/3/2
f 154/4/2 155/4/2 156/4/2
f 156/4/2 155/4/2 157/4/2
f 156/3/2 157/3/2 158/3/2
f 158/3/2 157/3/2 159/3/2
f 158/8/2 159/8/2 161/8/2
f 160/8/2 161/8/2 162/8/2
f 161/8/2 159/8/2 163/8/2
f 162/8/2 161/8/2 163/8/2
f 163/8/2 159/8/2 165/8/2
f 164/8/2 165/8/2 166/8/2
f 165/8/2 159/8/2 167/8/2
f 166/8/2 165/8/2 167/8/2
f 168/5/2 169/5/2 172/5/2
f 172/5/2 169/5/2 173/5/2
f 170/5/2 171/5/2 174/5/2
f 174/5/2 171/5/2 175/5/2
f 176/5/2 177/5/2 179/5/2
f 179/5/2 177/5/2 180/5/2
f 178/5/2 179/5/2 182/5/2
f 179/6/2 180/6/2 183/6/2
f 182/5/2 179/5/2 183/5/2
f 180/5/2 181/5/2 184/5/2
f 183/6/2 180/6/2 184/6/2
f 184/5/2 181/5/2 185/5/2
f 182/6/2 183/6/2 186/6/2
f 184/6/2 185/6/2 187/6/2
f 182/6/2 186/6/2 188/6/2
f 186/6/2 187/6/2 188/6/2
f 187/6/2 185/6/2 189/6/2
f 188/6/2 187/6/2 189/6/2
f 190/7/2 191/7/2 192/7/2
f 192/7/2 191/7/2 193/7/2
f 194/7/2 195/7/2 196/7/2
f 196/7/2 195/7/2 197/7/2
f 216/1/3 199/1/3 198/1/3
f 217/2/3 200/2/3 199/2/3
f 217/1/3 199/1/3 216/1/3
f 218/3/3 201/3/3 200/3/3
f 218/2/3 200/2/3 217/2/3
f 219/4/3 202/4/3 201/4/3
f 219/3/3 201/3/3 218/3/3
f 220/3/3 203/3/3 202/3/3
f 220/4/3 202/4/3 219/4/3
f 221/4/3 204/4/3 203/4/3
f 221/3/3 203/3/3 220/3/3
f 222/3/3 205/3/3 204/3/3
f 222/4/3 204/4/3 221/4/3
f 223/1/3 206/1/3 205/1/3
f 223/3/3 205/3/3 222/3/3
f 224/2/3 207/2/3 206/2/3
f 224/1/3 206/1/3 223/1/3
f 225/2/3 207/2/3 224/2/3
f 226/8/3 209/8/3 208/8/3
f 227/8/3 209/8/3 226/8/3
f 228/8/3 211/8/3 210/8/3
f 229/8/3 211/8/3 228/8/3
f 230/8/3 213/8/3 212/8/3
f 231/8/3 213/8/3 230/8/3
f 232/8/3 215/8/3 214/8/3
f 233/8/3 215/8/3 232/8/3
f 237/5/3 235/5/3 234/5/3
f 238/6/3 236/6/3 235/6/3
f 238/5/3 235/5/3 237/5/3
f 239/6/3 236/6/3 238/6/3
f 240/5/3 239/5/3 238/5/3
f 241/6/3 236/6/3 239/6/3
f 241/5/3 239/5/3 240/5/3
f 242/6/3 236/6/3 241/6/3
f 268/3/3 244/3/3 243/3/3
f 269/4/3 245/4/3 244/4/3
f 269/3/3 244/3/3 268/3/3
f 270/3/3 246/3/3 245/3/3
f 270/4/3 245/4/3 269/4/3
f 271/4/3 247/4/3 246/4/3
f 271/3/3 246/3/3 270/3/3
f 272/3/3 248/3/3 247/3/3
f 272/4/3 247/4/3 271/4/3
f 273/8/3 249/8/3 248/8/3
f 273/3/3 248/3/3 272/3/3
f 274/8/3 249/8/3 273/8/3
f 275/3/3 251/3/3 250/3/3
f 276/4/3 252/4/3 251/4/3
f 276/3/3 251/3/3 275/3/3
f 277/3/3 253/3/3 252/3/3
f 277/4/3 252/4/3 276/4/3
f 278/4/3 254/4/3 253/4/3
f 278/3/3 253/3/3 277/3/3
f 279/3/3 255/3/3 254/3/3
f 279/4/3 254/4/3 278/4/3
f 280/8/3 256/8/3 255/8/3
f 280/3/3 255/3/3 279/3/3
f 281/8/3 256/8/3 280/8/3
f 282/3/3 258/3/3 257/3/3
f 283/4/3 259/4/3 258/4/3
f 283/3/3 258/3/3 282/3/3
f 284/3/3 260/3/3 259/3/3
f 284/4/3 259/4/3 283/4/3
f 285/4/3 261/4/3 260/4/3
f 285/3/3 260/3/3 284/3/3
f 286/3/3 262/3/3 261/3/3
f 286/4/3 261/4/3 285/4/3
f 287/8/3 263/8/3 262/8/3
f 287/3/3 262/3/3 286/3/3
f 288/8/3 263/8/3 287/8/3
f 289/8/3 265/8/3 264/8/3
f 290/8/3 265/8/3 289/8/3
f 291/7/3 267/7/3 266/7/3
f 291/7/3 268/7/3 267/7/3
f 292/7/3 268/7/3 291/7/3
f 295/5/3 294/5/3 293/5/3
f 296/5/3 294/5/3 295/5/3
f 300/7/3 298/7/3 297/7/3
f 301/7/3 298/7/3 300/7/3
f 301/7/3 300/7/3 299/7/3
f 302/7/3 298/7/3 301/7/3
f 303/7/3 301/7/3 299/7/3
f 304/7/3 301/7/3 303/7/3
f 305/1/4 306/1/4 332/1/4
f 306/4/4 307/4/4 333/4/4
f 332/1/4 306/1/4 333/1/4
f 307/3/4 308/3/4 334/3/4
f 333/4/4 307/4/4 334/4/4
f 308/4/4 309/4/4 335/4/4
f 334/3/4 308/3/4 335/3/4
f 309/3/4 310/3/4 336/3/4
f 335/4/4 309/4/4 336/4/4
f 310/4/4 311/4/4 337/4/4
f 336/3/4 310/3/4 337/3/4
f 311/2/4 312/2/4 338/2/4
f 337/4/4 311/4/4 338/4/4
f 338/2/4 312/2/4 339/2/4
f 312/1/4 313/1/4 340/1/4
f 339/2/4 312/2/4 340/2/4
f 313/3/4 314/3/4 341/3/4
f 340/1/4 313/1/4 341/1/4
f 314/4/4 315/4/4 342/4/4
f 341/3/4 314/3/4 342/3/4
f 315/3/4 316/3/4 343/3/4
f 342/4/4 315/4/4 343/4/4
f 316/4/4 317/4/4 344/4/4
f 343/3/4 316/3/4 344/3/4
f 317/3/4 318/3/4 345/3/4
f 344/4/4 317/4/4 345/4/4
f 318/8/4 319/8/4 346/8/4
f 345/3/4 318/3/4 346/3/4
f 319/3/4 320/3/4 347/3/4
f 346/8/4 319/8/4 347/8/4
f 320/4/4 321/4/4 348/4/4
f 347/3/4 320/3/4 348/3/4
f 321/3/4 322/3/4 349/3/4
f 348/4/4 321/4/4 349/4/4
f 322/4/4 323/4/4 350/4/4
f 349/3/4 322/3/4 350/3/4
f 323/3/4 324/3/4 351/3/4
f 350/4/4 323/4/4 351/4/4
f 324/8/4 325/8/4 352/8/4
f 351/3/4 324/3/4 352/3/4
f 325/3/4 326/3/4 353/3/4
f 352/8/4 325/8/4 353/8/4
f 326/4/4 327/4/4 354/4/4
f 353/3/4 326/3/4 354/3/4
f 327/3/4 328/3/4 355/3/4
f 354/4/4 327/4/4 355/4/4
f 328/4/4 329/4/4 356/4/4
f 355/3/4 328/3/4 356/3/4
f 329/3/4 330/3/4 357/3/4
f 356/4/4 329/4/4 357/4/4
f 330/8/4 331/8/4 358/8/4
f 357/3/4 330/3/4 358/3/4
f 358/8/4 331/8/4 359/8/4
f 340/7/4 341/7/4 360/7/4
f 339/7/4 340/7/4 360/7/4
f 360/7/4 341/7/4 361/7/4
f 362/5/4 363/5/4 364/5/4
f 364/5/4 363/5/4 365/5/4
f 366/7/4 367/7/4 369/7/4
f 369/7/4 367/7/4 370/7/4
f 368/7/4 369/7/4 370/7/4
f 370/7/4 367/7/4 371/7/4
f 368/7/4 370/7/4 372/7/4
f 372/7/4 370/7/4 373/7/4
f 374/5/4 375/5/4 377/5/4
f 375/6/4 376/6/4 378/6/4
f 377/5/4 375/5/4 378/5/4
f 378/6/4 376/6/4 379/6/4
f 378/5/4 379/5/4 380/5/4
f 379/6/4 376/6/4 381/6/4
f 380/5/4 379/5/4 381/5/4
f 381/6/4 376/6/4 382/6/4
f 385/1/5 384/1/5 383/1/5
f 386/1/5 384/1/5 385/1/5
f 389/5/5 388/5/5 387/5/5
f 391/5/5 389/5/5 387/5/5
f 391/5/5 390/5/5 389/5/5
f 392/5/5 390/5/5 391/5/5
f 393/5/5 391/5/5 387/5/5
f 394/5/5 391/5/5 393/5/5
f 397/5/5 396/5/5 395/5/5
f 398/5/5 396/5/5 397/5/5
f 403/7/5 400/7/5 399/7/5
f 404/7/5 400/7/5 403/7/5
f 405/5/5 402/5/5 401/5/5
f 406/5/5 402/5/5 405/5/5
f 411/7/5 408/7/5 407/7/5
f 412/7/5 408/7/5 411/7/5
f 413/7/5 410/7/5 409/7/5
f 414/7/5 410/7/5 413/7/5
f 417/8/5 416/8/5 415/8/5
f 418/8/5 416/8/5 417/8/5
f 421/8/5 420/8/5 419/8/5
f 422/8/5 420/8/5 421/8/5
f 425/8/5 424/8/5 423/8/5
f 426/8/5 424/8/5 425/8/5
f 429/8/5 428/8/5 427/8/5
f 430/8/5 428/8/5 429/8/5
f 431/7/6 432/7/6 433/7/6
f 433/7/6 432/7/6 434/7/6
f 435/7/6 436/7/6 437/7/6
f 437/7/6 436/7/6 438/7/6
f 439/2/6 440/2/6 443/2/6
f 443/2/6 440/2/6 444/2/6
f 441/6/6 442/6/6 445/6/6
f 444/7/6 445/7/6 446/7/6
f 445/6/6 442/6/6 447/6/6
f 446/7/6 445/7/6 447/7/6
f 447/6/6 442/6/6 448/6/6
f 448/6/6 442/6/6 449/6/6
f 450/8/6 451/8/6 452/8/6
f 452/8/6 451/8/6 453/8/6
f 454/8/6 455/8/6 456/8/6
f 456/8/6 455/8/6 457/8/6
f 458/8/6 459/8/6 460/8/6
f 460/8/6 459/8/6 461/8/6
f 462/8/6 463/8/6 464/8/6
f 464/8/6 463/8/6 465/8/6
