# MagicaVoxel @ ephtracy

# material
mtllib starterrod3.0.mtl
usemtl palette

# normals
vn -1 0 0
vn 1 0 0
vn 0 0 1
vn 0 0 -1
vn 0 -1 0
vn 0 1 0

# texcoords
vt 0.00195313 0.5
vt 0.00585938 0.5
vt 0.00976563 0.5
vt 0.0136719 0.5

# verts
v -5 11 -1
v -5 11 -2
v -5 11 -4
v -5 11 -5
v -5 12 -1
v -5 12 -2
v -5 12 -4
v -5 12 -5
v -5 25 -1
v -5 25 -2
v -5 26 -1
v -5 26 -2
v -5 28 -2
v -5 28 -3
v -5 29 -1
v -5 29 -2
v -5 29 -3
v -5 30 -1
v -5 30 -2
v -4 0 -3
v -4 0 -4
v -4 2 -4
v -4 2 -5
v -4 4 -3
v -4 4 -4
v -4 7 -4
v -4 7 -5
v -4 9 -2
v -4 9 -3
v -4 10 -4
v -4 10 -5
v -4 11 -2
v -4 11 -3
v -4 11 -4
v -4 12 -2
v -4 12 -3
v -4 12 -4
v -4 14 -2
v -4 14 -3
v -4 18 -0
v -4 18 -2
v -4 19 -0
v -4 19 -2
v -4 20 -3
v -4 20 -4
v -4 22 -1
v -4 22 -2
v -4 23 -3
v -4 23 -4
v -4 25 -1
v -4 25 -2
v -4 25 -3
v -4 26 -1
v -4 26 -2
v -4 28 -2
v -4 28 -3
v -4 29 -0
v -4 29 -1
v -4 29 -2
v -4 29 -3
v -4 29 -4
v -4 30 -0
v -4 30 -1
v -4 30 -2
v -4 30 -3
v -4 30 -4
v -4 31 -1
v -4 31 -3
v -3 1 -4
v -3 1 -5
v -3 2 -4
v -3 2 -5
v -3 10 -4
v -3 10 -5
v -3 11 -4
v -3 11 -5
v -3 21 -1
v -3 21 -2
v -3 22 -1
v -3 22 -2
v -3 31 -2
v -3 31 -3
v -3 32 -2
v -3 32 -3
v -2 11 -0
v -2 11 -2
v -2 11 -4
v -2 11 -5
v -2 12 -0
v -2 12 -2
v -2 12 -4
v -2 12 -5
v -1 30 -2
v -1 30 -3
v -1 31 -2
v -1 31 -3
v -4 11 -1
v -4 11 -2
v -4 11 -4
v -4 11 -5
v -4 12 -1
v -4 12 -2
v -4 12 -4
v -4 12 -5
v -3 0 -3
v -3 0 -4
v -3 1 -4
v -3 3 -3
v -3 3 -4
v -3 9 -2
v -3 9 -3
v -3 10 -2
v -3 10 -3
v -3 18 -0
v -3 18 -2
v -3 19 -0
v -3 19 -2
v -3 22 -3
v -3 22 -4
v -3 23 -3
v -3 23 -4
v -3 30 -1
v -3 30 -2
v -3 31 -1
v -3 31 -2
v -2 1 -4
v -2 1 -5
v -2 3 -3
v -2 3 -4
v -2 4 -3
v -2 4 -4
v -2 6 -3
v -2 6 -4
v -2 6 -5
v -2 7 -4
v -2 7 -5
v -2 10 -2
v -2 10 -3
v -2 11 -2
v -2 11 -4
v -2 11 -5
v -2 12 -2
v -2 12 -4
v -2 15 -3
v -2 15 -4
v -2 18 -3
v -2 18 -4
v -2 21 -1
v -2 21 -2
v -2 22 -1
v -2 22 -2
v -2 22 -3
v -2 22 -4
v -2 24 -2
v -2 24 -3
v -2 25 -1
v -2 25 -2
v -2 27 -2
v -2 27 -3
v -2 29 -0
v -2 29 -1
v -2 29 -3
v -2 29 -4
v -2 30 -0
v -2 30 -1
v -2 30 -2
v -2 30 -3
v -2 30 -4
v -2 32 -2
v -2 32 -3
v -1 6 -4
v -1 6 -5
v -1 7 -4
v -1 7 -5
v -1 11 -0
v -1 11 -2
v -1 11 -4
v -1 11 -5
v -1 12 -0
v -1 12 -2
v -1 12 -4
v -1 12 -5
v -1 29 -1
v -1 29 -3
v -1 30 -1
v -1 30 -2
v -1 30 -3
v 0 30 -2
v 0 30 -3
v 0 31 -2
v 0 31 -3
v -4 18 -0
v -4 19 -0
v -4 29 -0
v -4 30 -0
v -3 18 -0
v -3 19 -0
v -2 11 -0
v -2 12 -0
v -2 29 -0
v -2 30 -0
v -1 11 -0
v -1 12 -0
v -5 11 -1
v -5 12 -1
v -5 25 -1
v -5 26 -1
v -5 29 -1
v -5 30 -1
v -4 11 -1
v -4 12 -1
v -4 22 -1
v -4 25 -1
v -4 26 -1
v -4 29 -1
v -4 30 -1
v -4 31 -1
v -3 21 -1
v -3 22 -1
v -3 25 -1
v -3 30 -1
v -3 31 -1
v -2 21 -1
v -2 22 -1
v -2 25 -1
v -2 29 -1
v -2 30 -1
v -1 29 -1
v -1 30 -1
v -5 28 -2
v -5 29 -2
v -4 9 -2
v -4 11 -2
v -4 12 -2
v -4 14 -2
v -4 18 -2
v -4 19 -2
v -4 22 -2
v -4 28 -2
v -4 29 -2
v -3 9 -2
v -3 10 -2
v -3 11 -2
v -3 12 -2
v -3 14 -2
v -3 18 -2
v -3 19 -2
v -3 21 -2
v -3 22 -2
v -3 30 -2
v -3 31 -2
v -3 32 -2
v -2 10 -2
v -2 11 -2
v -2 12 -2
v -2 21 -2
v -2 30 -2
v -2 32 -2
v -1 30 -2
v -1 31 -2
v 0 30 -2
v 0 31 -2
v -4 0 -3
v -4 4 -3
v -4 9 -3
v -3 0 -3
v -3 3 -3
v -3 4 -3
v -3 6 -3
v -3 9 -3
v -3 10 -3
v -2 3 -3
v -2 4 -3
v -2 6 -3
v -2 10 -3
v -5 11 -4
v -5 12 -4
v -4 11 -4
v -4 12 -4
v -3 1 -4
v -3 3 -4
v -2 1 -4
v -2 3 -4
v -2 6 -4
v -2 7 -4
v -1 6 -4
v -1 7 -4
v -5 11 -2
v -5 12 -2
v -5 25 -2
v -5 26 -2
v -5 29 -2
v -5 30 -2
v -4 11 -2
v -4 12 -2
v -4 25 -2
v -4 26 -2
v -4 29 -2
v -4 30 -2
v -5 28 -3
v -5 29 -3
v -4 23 -3
v -4 25 -3
v -4 28 -3
v -4 29 -3
v -4 30 -3
v -4 31 -3
v -3 22 -3
v -3 23 -3
v -3 24 -3
v -3 25 -3
v -3 27 -3
v -3 29 -3
v -3 31 -3
v -3 32 -3
v -2 22 -3
v -2 24 -3
v -2 27 -3
v -2 29 -3
v -2 30 -3
v -2 32 -3
v -1 29 -3
v -1 30 -3
v -1 31 -3
v 0 30 -3
v 0 31 -3
v -4 0 -4
v -4 2 -4
v -4 10 -4
v -4 11 -4
v -4 12 -4
v -4 20 -4
v -4 23 -4
v -4 29 -4
v -4 30 -4
v -3 0 -4
v -3 1 -4
v -3 2 -4
v -3 10 -4
v -3 11 -4
v -3 15 -4
v -3 18 -4
v -3 20 -4
v -3 22 -4
v -3 23 -4
v -2 11 -4
v -2 12 -4
v -2 15 -4
v -2 18 -4
v -2 22 -4
v -2 29 -4
v -2 30 -4
v -5 11 -5
v -5 12 -5
v -4 2 -5
v -4 7 -5
v -4 10 -5
v -4 11 -5
v -4 12 -5
v -3 1 -5
v -3 2 -5
v -3 7 -5
v -3 10 -5
v -3 11 -5
v -2 1 -5
v -2 6 -5
v -2 7 -5
v -2 11 -5
v -2 12 -5
v -1 6 -5
v -1 7 -5
v -1 11 -5
v -1 12 -5
v -4 0 -3
v -3 0 -3
v -4 0 -4
v -3 0 -4
v -3 1 -4
v -2 1 -4
v -3 1 -5
v -2 1 -5
v -4 2 -4
v -3 2 -4
v -4 2 -5
v -3 2 -5
v -3 3 -3
v -2 3 -3
v -3 3 -4
v -2 3 -4
v -2 6 -4
v -1 6 -4
v -2 6 -5
v -1 6 -5
v -4 9 -2
v -3 9 -2
v -4 9 -3
v -3 9 -3
v -3 10 -2
v -2 10 -2
v -3 10 -3
v -2 10 -3
v -2 11 -0
v -1 11 -0
v -5 11 -1
v -4 11 -1
v -5 11 -2
v -4 11 -2
v -2 11 -2
v -1 11 -2
v -5 11 -4
v -4 11 -4
v -2 11 -4
v -1 11 -4
v -5 11 -5
v -4 11 -5
v -2 11 -5
v -1 11 -5
v -4 18 -0
v -3 18 -0
v -4 18 -2
v -3 18 -2
v -3 21 -1
v -2 21 -1
v -3 21 -2
v -2 21 -2
v -4 22 -1
v -3 22 -1
v -4 22 -2
v -3 22 -2
v -5 25 -1
v -4 25 -1
v -5 25 -2
v -4 25 -2
v -5 28 -2
v -4 28 -2
v -5 28 -3
v -4 28 -3
v -4 29 -0
v -2 29 -0
v -5 29 -1
v -4 29 -1
v -2 29 -1
v -1 29 -1
v -5 29 -2
v -4 29 -2
v -4 29 -3
v -3 29 -3
v -2 29 -3
v -1 29 -3
v -4 29 -4
v -2 29 -4
v -1 30 -2
v 0 30 -2
v -1 30 -3
v 0 30 -3
v -2 7 -4
v -1 7 -4
v -2 7 -5
v -1 7 -5
v -4 10 -4
v -3 10 -4
v -4 10 -5
v -3 10 -5
v -3 11 -4
v -2 11 -4
v -3 11 -5
v -2 11 -5
v -2 12 -0
v -1 12 -0
v -5 12 -1
v -4 12 -1
v -5 12 -2
v -4 12 -2
v -2 12 -2
v -1 12 -2
v -5 12 -4
v -4 12 -4
v -2 12 -4
v -1 12 -4
v -5 12 -5
v -4 12 -5
v -2 12 -5
v -1 12 -5
v -4 19 -0
v -3 19 -0
v -4 19 -2
v -3 19 -2
v -3 22 -3
v -2 22 -3
v -3 22 -4
v -2 22 -4
v -4 23 -3
v -3 23 -3
v -4 23 -4
v -3 23 -4
v -5 26 -1
v -4 26 -1
v -5 26 -2
v -4 26 -2
v -5 29 -2
v -4 29 -2
v -5 29 -3
v -4 29 -3
v -4 30 -0
v -2 30 -0
v -5 30 -1
v -4 30 -1
v -3 30 -1
v -2 30 -1
v -1 30 -1
v -5 30 -2
v -4 30 -2
v -3 30 -2
v -2 30 -2
v -1 30 -2
v -4 30 -3
v -2 30 -3
v -1 30 -3
v -4 30 -4
v -2 30 -4
v -4 31 -1
v -3 31 -1
v -3 31 -2
v -1 31 -2
v 0 31 -2
v -4 31 -3
v -3 31 -3
v -1 31 -3
v 0 31 -3
v -3 32 -2
v -2 32 -2
v -3 32 -3
v -2 32 -3

# faces
f 5/4/1 2/4/1 1/4/1
f 6/4/1 2/4/1 5/4/1
f 7/4/1 4/4/1 3/4/1
f 8/4/1 4/4/1 7/4/1
f 11/2/1 10/2/1 9/2/1
f 12/2/1 10/2/1 11/2/1
f 16/4/1 14/4/1 13/4/1
f 17/4/1 14/4/1 16/4/1
f 18/4/1 16/4/1 15/4/1
f 19/4/1 16/4/1 18/4/1
f 22/1/1 21/1/1 20/1/1
f 24/1/1 22/1/1 20/1/1
f 25/2/1 23/2/1 22/2/1
f 25/1/1 22/1/1 24/1/1
f 26/2/1 25/2/1 24/2/1
f 26/2/1 23/2/1 25/2/1
f 27/2/1 23/2/1 26/2/1
f 29/2/1 26/2/1 24/2/1
f 30/3/1 27/3/1 26/3/1
f 30/2/1 26/2/1 29/2/1
f 31/3/1 27/3/1 30/3/1
f 32/3/1 29/3/1 28/3/1
f 33/2/1 30/2/1 29/2/1
f 33/3/1 29/3/1 32/3/1
f 34/2/1 30/2/1 33/2/1
f 35/4/1 33/4/1 32/4/1
f 35/4/1 34/4/1 33/4/1
f 36/4/1 34/4/1 35/4/1
f 37/4/1 34/4/1 36/4/1
f 38/3/1 36/3/1 35/3/1
f 39/2/1 37/2/1 36/2/1
f 39/3/1 36/3/1 38/3/1
f 41/2/1 39/2/1 38/2/1
f 42/2/1 41/2/1 40/2/1
f 43/2/1 39/2/1 41/2/1
f 43/2/1 41/2/1 42/2/1
f 44/2/1 37/2/1 39/2/1
f 44/2/1 39/2/1 43/2/1
f 45/2/1 37/2/1 44/2/1
f 47/2/1 44/2/1 43/2/1
f 48/1/1 45/1/1 44/1/1
f 48/2/1 47/2/1 46/2/1
f 48/2/1 44/2/1 47/2/1
f 49/1/1 45/1/1 48/1/1
f 50/2/1 48/2/1 46/2/1
f 51/2/1 48/2/1 50/2/1
f 52/2/1 48/2/1 51/2/1
f 54/3/1 52/3/1 51/3/1
f 55/3/1 52/3/1 54/3/1
f 55/2/1 54/2/1 53/2/1
f 56/3/1 52/3/1 55/3/1
f 58/2/1 55/2/1 53/2/1
f 59/2/1 55/2/1 58/2/1
f 62/4/1 58/4/1 57/4/1
f 63/4/1 58/4/1 62/4/1
f 64/2/1 60/2/1 59/2/1
f 65/4/1 61/4/1 60/4/1
f 65/2/1 60/2/1 64/2/1
f 66/4/1 61/4/1 65/4/1
f 67/2/1 64/2/1 63/2/1
f 67/2/1 65/2/1 64/2/1
f 68/2/1 65/2/1 67/2/1
f 71/2/1 70/2/1 69/2/1
f 72/2/1 70/2/1 71/2/1
f 75/2/1 74/2/1 73/2/1
f 76/2/1 74/2/1 75/2/1
f 79/2/1 78/2/1 77/2/1
f 80/2/1 78/2/1 79/2/1
f 83/2/1 82/2/1 81/2/1
f 84/2/1 82/2/1 83/2/1
f 89/2/1 86/2/1 85/2/1
f 90/2/1 86/2/1 89/2/1
f 91/2/1 88/2/1 87/2/1
f 92/2/1 88/2/1 91/2/1
f 95/4/1 94/4/1 93/4/1
f 96/4/1 94/4/1 95/4/1
f 97/4/2 98/4/2 101/4/2
f 101/4/2 98/4/2 102/4/2
f 99/4/2 100/4/2 103/4/2
f 103/4/2 100/4/2 104/4/2
f 105/1/2 106/1/2 107/1/2
f 105/1/2 107/1/2 108/1/2
f 108/1/2 107/1/2 109/1/2
f 110/3/2 111/3/2 112/3/2
f 112/3/2 111/3/2 113/3/2
f 114/2/2 115/2/2 116/2/2
f 116/2/2 115/2/2 117/2/2
f 118/1/2 119/1/2 120/1/2
f 120/1/2 119/1/2 121/1/2
f 122/2/2 123/2/2 124/2/2
f 124/2/2 123/2/2 125/2/2
f 126/2/2 127/2/2 129/2/2
f 128/2/2 129/2/2 130/2/2
f 129/2/2 127/2/2 131/2/2
f 130/2/2 129/2/2 131/2/2
f 130/3/2 131/3/2 132/3/2
f 131/2/2 127/2/2 133/2/2
f 132/3/2 131/3/2 133/3/2
f 133/2/2 127/2/2 134/2/2
f 132/2/2 133/2/2 135/2/2
f 132/2/2 135/2/2 138/2/2
f 135/2/2 136/2/2 138/2/2
f 137/2/2 138/2/2 139/2/2
f 138/2/2 136/2/2 140/2/2
f 139/2/2 138/2/2 140/2/2
f 140/2/2 136/2/2 141/2/2
f 142/2/2 143/2/2 144/2/2
f 144/2/2 143/2/2 145/2/2
f 142/2/2 144/2/2 146/2/2
f 144/3/2 145/3/2 146/3/2
f 146/3/2 145/3/2 147/3/2
f 142/2/2 146/2/2 149/2/2
f 146/2/2 147/2/2 149/2/2
f 148/2/2 149/2/2 150/2/2
f 149/2/2 147/2/2 151/2/2
f 150/2/2 149/2/2 151/2/2
f 151/2/2 147/2/2 152/2/2
f 152/2/2 147/2/2 153/2/2
f 150/3/2 151/3/2 154/3/2
f 151/2/2 152/2/2 154/2/2
f 154/2/2 152/2/2 155/2/2
f 150/3/2 154/3/2 156/3/2
f 154/1/2 155/1/2 157/1/2
f 156/3/2 154/3/2 157/3/2
f 156/2/2 157/2/2 158/2/2
f 157/1/2 155/1/2 158/1/2
f 158/1/2 155/1/2 159/1/2
f 156/2/2 158/2/2 161/2/2
f 158/2/2 159/2/2 161/2/2
f 161/2/2 159/2/2 162/2/2
f 160/4/2 161/4/2 164/4/2
f 164/4/2 161/4/2 165/4/2
f 162/4/2 163/4/2 167/4/2
f 167/4/2 163/4/2 168/4/2
f 166/2/2 167/2/2 169/2/2
f 169/2/2 167/2/2 170/2/2
f 171/2/2 172/2/2 173/2/2
f 173/2/2 172/2/2 174/2/2
f 175/2/2 176/2/2 179/2/2
f 176/4/2 177/4/2 180/4/2
f 179/2/2 176/2/2 180/2/2
f 177/2/2 178/2/2 181/2/2
f 180/4/2 177/4/2 181/4/2
f 181/2/2 178/2/2 182/2/2
f 183/4/2 184/4/2 185/4/2
f 185/4/2 184/4/2 186/4/2
f 186/4/2 184/4/2 187/4/2
f 188/4/2 189/4/2 190/4/2
f 190/4/2 189/4/2 191/4/2
f 196/2/3 193/2/3 192/2/3
f 197/2/3 193/2/3 196/2/3
f 200/4/3 195/4/3 194/4/3
f 201/4/3 195/4/3 200/4/3
f 202/2/3 199/2/3 198/2/3
f 203/2/3 199/2/3 202/2/3
f 210/4/3 205/4/3 204/4/3
f 211/4/3 205/4/3 210/4/3
f 213/2/3 207/2/3 206/2/3
f 214/2/3 207/2/3 213/2/3
f 215/4/3 209/4/3 208/4/3
f 216/4/3 209/4/3 215/4/3
f 219/2/3 214/2/3 213/2/3
f 219/2/3 215/2/3 214/2/3
f 219/2/3 213/2/3 212/2/3
f 220/2/3 215/2/3 219/2/3
f 221/2/3 217/2/3 216/2/3
f 222/2/3 217/2/3 221/2/3
f 223/2/3 219/2/3 218/2/3
f 224/3/3 220/3/3 219/3/3
f 224/2/3 219/2/3 223/2/3
f 225/2/3 215/2/3 220/2/3
f 225/3/3 220/3/3 224/3/3
f 226/2/3 215/2/3 225/2/3
f 228/4/3 227/4/3 226/4/3
f 229/4/3 227/4/3 228/4/3
f 239/4/3 231/4/3 230/4/3
f 240/4/3 231/4/3 239/4/3
f 241/3/3 233/3/3 232/3/3
f 242/3/3 233/3/3 241/3/3
f 243/4/3 234/4/3 233/4/3
f 243/3/3 233/3/3 242/3/3
f 244/3/3 235/3/3 234/3/3
f 244/4/3 234/4/3 243/4/3
f 245/2/3 236/2/3 235/2/3
f 245/3/3 235/3/3 244/3/3
f 246/2/3 236/2/3 245/2/3
f 247/2/3 238/2/3 237/2/3
f 248/2/3 238/2/3 247/2/3
f 249/2/3 238/2/3 248/2/3
f 253/2/3 243/2/3 242/2/3
f 254/4/3 244/4/3 243/4/3
f 254/2/3 243/2/3 253/2/3
f 255/2/3 246/2/3 245/2/3
f 255/4/3 244/4/3 254/4/3
f 255/2/3 248/2/3 247/2/3
f 255/2/3 247/2/3 246/2/3
f 255/2/3 245/2/3 244/2/3
f 256/2/3 248/2/3 255/2/3
f 257/2/3 252/2/3 251/2/3
f 257/2/3 251/2/3 250/2/3
f 258/2/3 252/2/3 257/2/3
f 261/4/3 260/4/3 259/4/3
f 262/4/3 260/4/3 261/4/3
f 266/1/3 264/1/3 263/1/3
f 267/1/3 264/1/3 266/1/3
f 268/2/3 265/2/3 264/2/3
f 268/1/3 264/1/3 267/1/3
f 269/2/3 265/2/3 268/2/3
f 270/2/3 265/2/3 269/2/3
f 272/2/3 268/2/3 267/2/3
f 273/3/3 269/3/3 268/3/3
f 273/2/3 268/2/3 272/2/3
f 274/2/3 271/2/3 270/2/3
f 274/3/3 269/3/3 273/3/3
f 274/2/3 270/2/3 269/2/3
f 275/2/3 271/2/3 274/2/3
f 278/4/3 277/4/3 276/4/3
f 279/4/3 277/4/3 278/4/3
f 282/2/3 281/2/3 280/2/3
f 283/2/3 281/2/3 282/2/3
f 286/2/3 285/2/3 284/2/3
f 287/2/3 285/2/3 286/2/3
f 288/4/4 289/4/4 294/4/4
f 294/4/4 289/4/4 295/4/4
f 290/2/4 291/2/4 296/2/4
f 296/2/4 291/2/4 297/2/4
f 292/4/4 293/4/4 298/4/4
f 298/4/4 293/4/4 299/4/4
f 300/4/4 301/4/4 304/4/4
f 304/4/4 301/4/4 305/4/4
f 302/2/4 303/2/4 309/2/4
f 309/2/4 303/2/4 310/2/4
f 303/3/4 304/3/4 311/3/4
f 310/2/4 303/2/4 311/2/4
f 304/3/4 305/3/4 311/3/4
f 311/3/4 305/3/4 312/3/4
f 312/3/4 305/3/4 313/3/4
f 306/2/4 307/2/4 314/2/4
f 309/2/4 310/2/4 316/2/4
f 308/2/4 309/2/4 316/2/4
f 310/1/4 311/1/4 317/1/4
f 316/2/4 310/2/4 317/2/4
f 311/1/4 312/1/4 317/1/4
f 312/2/4 313/2/4 318/2/4
f 317/1/4 312/1/4 318/1/4
f 318/2/4 313/2/4 319/2/4
f 314/2/4 315/2/4 320/2/4
f 306/2/4 314/2/4 320/2/4
f 320/2/4 315/2/4 321/2/4
f 319/4/4 320/4/4 322/4/4
f 322/4/4 320/4/4 323/4/4
f 323/4/4 324/4/4 325/4/4
f 325/4/4 324/4/4 326/4/4
f 327/1/4 328/1/4 336/1/4
f 336/1/4 328/1/4 337/1/4
f 337/1/4 328/1/4 338/1/4
f 329/2/4 330/2/4 339/2/4
f 330/4/4 331/4/4 340/4/4
f 339/2/4 330/2/4 340/2/4
f 331/2/4 332/2/4 341/2/4
f 341/2/4 332/2/4 342/2/4
f 332/1/4 333/1/4 343/1/4
f 342/2/4 332/2/4 343/2/4
f 343/1/4 333/1/4 344/1/4
f 344/1/4 333/1/4 345/1/4
f 340/4/4 331/4/4 346/4/4
f 331/2/4 341/2/4 347/2/4
f 346/4/4 331/4/4 347/4/4
f 341/3/4 342/3/4 348/3/4
f 347/2/4 341/2/4 348/2/4
f 343/2/4 344/2/4 349/2/4
f 348/3/4 342/3/4 349/3/4
f 342/2/4 343/2/4 349/2/4
f 349/2/4 344/2/4 350/2/4
f 334/4/4 335/4/4 351/4/4
f 351/4/4 335/4/4 352/4/4
f 353/4/4 354/4/4 358/4/4
f 358/4/4 354/4/4 359/4/4
f 355/2/4 356/2/4 361/2/4
f 356/3/4 357/3/4 362/3/4
f 361/2/4 356/2/4 362/2/4
f 362/3/4 357/3/4 363/3/4
f 360/2/4 361/2/4 365/2/4
f 363/2/4 364/2/4 365/2/4
f 362/2/4 363/2/4 365/2/4
f 361/2/4 362/2/4 365/2/4
f 365/2/4 364/2/4 366/2/4
f 366/2/4 364/2/4 367/2/4
f 367/2/4 364/2/4 368/2/4
f 366/2/4 367/2/4 370/2/4
f 370/2/4 367/2/4 371/2/4
f 368/2/4 369/2/4 372/2/4
f 372/2/4 369/2/4 373/2/4
f 376/1/5 375/1/5 374/1/5
f 377/1/5 375/1/5 376/1/5
f 380/2/5 379/2/5 378/2/5
f 381/2/5 379/2/5 380/2/5
f 384/2/5 383/2/5 382/2/5
f 385/2/5 383/2/5 384/2/5
f 388/2/5 387/2/5 386/2/5
f 389/2/5 387/2/5 388/2/5
f 392/2/5 391/2/5 390/2/5
f 393/2/5 391/2/5 392/2/5
f 396/3/5 395/3/5 394/3/5
f 397/3/5 395/3/5 396/3/5
f 400/2/5 399/2/5 398/2/5
f 401/2/5 399/2/5 400/2/5
f 406/4/5 405/4/5 404/4/5
f 407/4/5 405/4/5 406/4/5
f 408/2/5 403/2/5 402/2/5
f 409/2/5 403/2/5 408/2/5
f 412/4/5 409/4/5 408/4/5
f 413/4/5 409/4/5 412/4/5
f 414/4/5 411/4/5 410/4/5
f 415/4/5 411/4/5 414/4/5
f 416/2/5 413/2/5 412/2/5
f 417/2/5 413/2/5 416/2/5
f 420/2/5 419/2/5 418/2/5
f 421/2/5 419/2/5 420/2/5
f 424/2/5 423/2/5 422/2/5
f 425/2/5 423/2/5 424/2/5
f 428/2/5 427/2/5 426/2/5
f 429/2/5 427/2/5 428/2/5
f 432/2/5 431/2/5 430/2/5
f 433/2/5 431/2/5 432/2/5
f 436/4/5 435/4/5 434/4/5
f 437/4/5 435/4/5 436/4/5
f 441/4/5 439/4/5 438/4/5
f 442/4/5 439/4/5 441/4/5
f 444/4/5 441/4/5 440/4/5
f 445/4/5 441/4/5 444/4/5
f 448/4/5 443/4/5 442/4/5
f 449/4/5 443/4/5 448/4/5
f 450/4/5 447/4/5 446/4/5
f 450/4/5 448/4/5 447/4/5
f 451/4/5 448/4/5 450/4/5
f 454/4/5 453/4/5 452/4/5
f 455/4/5 453/4/5 454/4/5
f 456/2/6 457/2/6 458/2/6
f 458/2/6 457/2/6 459/2/6
f 460/3/6 461/3/6 462/3/6
f 462/3/6 461/3/6 463/3/6
f 464/2/6 465/2/6 466/2/6
f 466/2/6 465/2/6 467/2/6
f 470/4/6 471/4/6 472/4/6
f 472/4/6 471/4/6 473/4/6
f 468/2/6 469/2/6 474/2/6
f 474/2/6 469/2/6 475/2/6
f 474/4/6 475/4/6 478/4/6
f 478/4/6 475/4/6 479/4/6
f 476/4/6 477/4/6 480/4/6
f 480/4/6 477/4/6 481/4/6
f 478/2/6 479/2/6 482/2/6
f 482/2/6 479/2/6 483/2/6
f 484/2/6 485/2/6 486/2/6
f 486/2/6 485/2/6 487/2/6
f 488/2/6 489/2/6 490/2/6
f 490/2/6 489/2/6 491/2/6
f 492/1/6 493/1/6 494/1/6
f 494/1/6 493/1/6 495/1/6
f 496/2/6 497/2/6 498/2/6
f 498/2/6 497/2/6 499/2/6
f 500/4/6 501/4/6 502/4/6
f 502/4/6 501/4/6 503/4/6
f 504/4/6 505/4/6 507/4/6
f 507/4/6 505/4/6 508/4/6
f 508/4/6 505/4/6 509/4/6
f 506/4/6 507/4/6 511/4/6
f 511/4/6 507/4/6 512/4/6
f 508/2/6 509/2/6 513/2/6
f 509/4/6 510/4/6 514/4/6
f 513/2/6 509/2/6 514/2/6
f 514/4/6 510/4/6 515/4/6
f 514/4/6 515/4/6 517/4/6
f 517/4/6 515/4/6 518/4/6
f 516/4/6 517/4/6 519/4/6
f 519/4/6 517/4/6 520/4/6
f 521/2/6 522/2/6 523/2/6
f 521/2/6 523/2/6 526/2/6
f 526/2/6 523/2/6 527/2/6
f 524/4/6 525/4/6 528/4/6
f 528/4/6 525/4/6 529/4/6
f 530/2/6 531/2/6 532/2/6
f 532/2/6 531/2/6 533/2/6
