# MagicaVoxel @ ephtracy

# material
mtllib can.mtl
usemtl palette

# normals
vn -1 0 0
vn 1 0 0
vn 0 0 1
vn 0 0 -1
vn 0 -1 0
vn 0 1 0

# texcoords
vt 0.00195313 0.5
vt 0.00585938 0.5

# verts
v -2 7 1
v -2 7 -2
v -2 8 1
v -2 8 -2
v -2 9 1
v -2 9 -2
v -2 10 1
v -2 10 -2
v -2 11 1
v -2 11 -2
v -2 12 1
v -2 12 -2
v -2 13 1
v -2 13 -2
v -1 7 2
v -1 7 1
v -1 7 -2
v -1 7 -3
v -1 8 2
v -1 8 1
v -1 8 -2
v -1 8 -3
v -1 9 2
v -1 9 1
v -1 9 -2
v -1 9 -3
v -1 10 2
v -1 10 1
v -1 10 -2
v -1 10 -3
v -1 11 2
v -1 11 1
v -1 11 -2
v -1 11 -3
v -1 12 2
v -1 12 1
v -1 12 -2
v -1 12 -3
v -1 13 2
v -1 13 1
v -1 13 -2
v -1 13 -3
v 2 8 1
v 2 8 -2
v 2 9 1
v 2 9 -2
v 2 10 1
v 2 10 -2
v 2 11 1
v 2 11 -2
v 2 12 1
v 2 12 -2
v 2 13 1
v 2 13 -2
v 3 13 1
v 3 13 -2
v 3 14 2
v 3 14 1
v 3 14 -2
v 3 14 -3
v 3 17 2
v 3 17 1
v 3 17 -2
v 3 17 -3
v 3 18 1
v 3 18 -2
v -1 8 1
v -1 8 -2
v -1 9 1
v -1 9 -2
v -1 10 1
v -1 10 -2
v -1 11 1
v -1 11 -2
v -1 12 1
v -1 12 -2
v -1 13 1
v -1 13 -2
v 2 7 2
v 2 7 1
v 2 7 -2
v 2 7 -3
v 2 8 2
v 2 8 1
v 2 8 -2
v 2 8 -3
v 2 9 2
v 2 9 1
v 2 9 -2
v 2 9 -3
v 2 10 2
v 2 10 1
v 2 10 -2
v 2 10 -3
v 2 11 2
v 2 11 1
v 2 11 -2
v 2 11 -3
v 2 12 2
v 2 12 1
v 2 12 -2
v 2 12 -3
v 2 13 2
v 2 13 1
v 2 13 -2
v 2 13 -3
v 3 7 1
v 3 7 -2
v 3 8 1
v 3 8 -2
v 3 9 1
v 3 9 -2
v 3 10 1
v 3 10 -2
v 3 11 1
v 3 11 -2
v 3 12 1
v 3 12 -2
v 3 13 1
v 3 13 -2
v 4 13 1
v 4 13 -2
v 4 14 2
v 4 14 1
v 4 14 -2
v 4 14 -3
v 4 17 2
v 4 17 1
v 4 17 -2
v 4 17 -3
v 4 18 1
v 4 18 -2
v -1 7 2
v -1 8 2
v -1 9 2
v -1 10 2
v -1 11 2
v -1 12 2
v -1 13 2
v 2 7 2
v 2 8 2
v 2 9 2
v 2 10 2
v 2 11 2
v 2 12 2
v 2 13 2
v 3 14 2
v 3 17 2
v 4 14 2
v 4 17 2
v -2 7 1
v -2 8 1
v -2 9 1
v -2 10 1
v -2 11 1
v -2 12 1
v -2 13 1
v -1 7 1
v -1 8 1
v -1 9 1
v -1 10 1
v -1 11 1
v -1 12 1
v -1 13 1
v 2 7 1
v 2 8 1
v 2 9 1
v 2 10 1
v 2 11 1
v 2 12 1
v 2 13 1
v 3 7 1
v 3 8 1
v 3 9 1
v 3 10 1
v 3 11 1
v 3 12 1
v 3 13 1
v 3 14 1
v 3 17 1
v 3 18 1
v 4 13 1
v 4 14 1
v 4 17 1
v 4 18 1
v -1 8 -2
v -1 9 -2
v -1 10 -2
v -1 11 -2
v -1 12 -2
v -1 13 -2
v 2 8 -2
v 2 9 -2
v 2 10 -2
v 2 11 -2
v 2 12 -2
v 2 13 -2
v -1 8 1
v -1 9 1
v -1 10 1
v -1 11 1
v -1 12 1
v -1 13 1
v 2 8 1
v 2 9 1
v 2 10 1
v 2 11 1
v 2 12 1
v 2 13 1
v -2 7 -2
v -2 8 -2
v -2 9 -2
v -2 10 -2
v -2 11 -2
v -2 12 -2
v -2 13 -2
v -1 7 -2
v -1 8 -2
v -1 9 -2
v -1 10 -2
v -1 11 -2
v -1 12 -2
v -1 13 -2
v 2 7 -2
v 2 8 -2
v 2 9 -2
v 2 10 -2
v 2 11 -2
v 2 12 -2
v 2 13 -2
v 3 7 -2
v 3 8 -2
v 3 9 -2
v 3 10 -2
v 3 11 -2
v 3 12 -2
v 3 13 -2
v 3 14 -2
v 3 17 -2
v 3 18 -2
v 4 13 -2
v 4 14 -2
v 4 17 -2
v 4 18 -2
v -1 7 -3
v -1 8 -3
v -1 9 -3
v -1 10 -3
v -1 11 -3
v -1 12 -3
v -1 13 -3
v 2 7 -3
v 2 8 -3
v 2 9 -3
v 2 10 -3
v 2 11 -3
v 2 12 -3
v 2 13 -3
v 3 14 -3
v 3 17 -3
v 4 14 -3
v 4 17 -3
v -1 7 2
v 2 7 2
v -2 7 1
v -1 7 1
v 2 7 1
v 3 7 1
v -2 7 -2
v -1 7 -2
v 2 7 -2
v 3 7 -2
v -1 7 -3
v 2 7 -3
v 3 13 1
v 4 13 1
v 3 13 -2
v 4 13 -2
v 3 14 2
v 4 14 2
v 3 14 1
v 4 14 1
v 3 14 -2
v 4 14 -2
v 3 14 -3
v 4 14 -3
v -1 8 1
v 2 8 1
v -1 8 -2
v 2 8 -2
v -1 13 2
v 2 13 2
v -2 13 1
v -1 13 1
v 2 13 1
v 3 13 1
v -2 13 -2
v -1 13 -2
v 2 13 -2
v 3 13 -2
v -1 13 -3
v 2 13 -3
v 3 17 2
v 4 17 2
v 3 17 1
v 4 17 1
v 3 17 -2
v 4 17 -2
v 3 17 -3
v 4 17 -3
v 3 18 1
v 4 18 1
v 3 18 -2
v 4 18 -2

# faces
f 3/1/1 2/1/1 1/1/1
f 4/1/1 2/1/1 3/1/1
f 5/2/1 4/2/1 3/2/1
f 6/2/1 4/2/1 5/2/1
f 7/1/1 6/1/1 5/1/1
f 8/1/1 6/1/1 7/1/1
f 9/2/1 8/2/1 7/2/1
f 10/2/1 8/2/1 9/2/1
f 11/1/1 10/1/1 9/1/1
f 12/1/1 10/1/1 11/1/1
f 13/2/1 12/2/1 11/2/1
f 14/2/1 12/2/1 13/2/1
f 19/1/1 16/1/1 15/1/1
f 20/1/1 16/1/1 19/1/1
f 21/1/1 18/1/1 17/1/1
f 22/1/1 18/1/1 21/1/1
f 23/2/1 20/2/1 19/2/1
f 24/2/1 20/2/1 23/2/1
f 25/2/1 22/2/1 21/2/1
f 26/2/1 22/2/1 25/2/1
f 27/1/1 24/1/1 23/1/1
f 28/1/1 24/1/1 27/1/1
f 29/1/1 26/1/1 25/1/1
f 30/1/1 26/1/1 29/1/1
f 31/2/1 28/2/1 27/2/1
f 32/2/1 28/2/1 31/2/1
f 33/2/1 30/2/1 29/2/1
f 34/2/1 30/2/1 33/2/1
f 35/1/1 32/1/1 31/1/1
f 36/1/1 32/1/1 35/1/1
f 37/1/1 34/1/1 33/1/1
f 38/1/1 34/1/1 37/1/1
f 39/2/1 36/2/1 35/2/1
f 40/2/1 36/2/1 39/2/1
f 41/2/1 38/2/1 37/2/1
f 42/2/1 38/2/1 41/2/1
f 45/2/1 44/2/1 43/2/1
f 46/2/1 44/2/1 45/2/1
f 47/1/1 46/1/1 45/1/1
f 48/1/1 46/1/1 47/1/1
f 49/2/1 48/2/1 47/2/1
f 50/2/1 48/2/1 49/2/1
f 51/1/1 50/1/1 49/1/1
f 52/1/1 50/1/1 51/1/1
f 53/2/1 52/2/1 51/2/1
f 54/2/1 52/2/1 53/2/1
f 58/2/1 56/2/1 55/2/1
f 59/2/1 56/2/1 58/2/1
f 61/2/1 58/2/1 57/2/1
f 62/1/1 59/1/1 58/1/1
f 62/2/1 58/2/1 61/2/1
f 63/2/1 60/2/1 59/2/1
f 63/1/1 59/1/1 62/1/1
f 64/2/1 60/2/1 63/2/1
f 65/2/1 63/2/1 62/2/1
f 66/2/1 63/2/1 65/2/1
f 67/2/2 68/2/2 69/2/2
f 69/2/2 68/2/2 70/2/2
f 69/1/2 70/1/2 71/1/2
f 71/1/2 70/1/2 72/1/2
f 71/2/2 72/2/2 73/2/2
f 73/2/2 72/2/2 74/2/2
f 73/1/2 74/1/2 75/1/2
f 75/1/2 74/1/2 76/1/2
f 75/2/2 76/2/2 77/2/2
f 77/2/2 76/2/2 78/2/2
f 79/1/2 80/1/2 83/1/2
f 83/1/2 80/1/2 84/1/2
f 81/1/2 82/1/2 85/1/2
f 85/1/2 82/1/2 86/1/2
f 83/2/2 84/2/2 87/2/2
f 87/2/2 84/2/2 88/2/2
f 85/2/2 86/2/2 89/2/2
f 89/2/2 86/2/2 90/2/2
f 87/1/2 88/1/2 91/1/2
f 91/1/2 88/1/2 92/1/2
f 89/1/2 90/1/2 93/1/2
f 93/1/2 90/1/2 94/1/2
f 91/2/2 92/2/2 95/2/2
f 95/2/2 92/2/2 96/2/2
f 93/2/2 94/2/2 97/2/2
f 97/2/2 94/2/2 98/2/2
f 95/1/2 96/1/2 99/1/2
f 99/1/2 96/1/2 100/1/2
f 97/1/2 98/1/2 101/1/2
f 101/1/2 98/1/2 102/1/2
f 99/2/2 100/2/2 103/2/2
f 103/2/2 100/2/2 104/2/2
f 101/2/2 102/2/2 105/2/2
f 105/2/2 102/2/2 106/2/2
f 107/1/2 108/1/2 109/1/2
f 109/1/2 108/1/2 110/1/2
f 109/2/2 110/2/2 111/2/2
f 111/2/2 110/2/2 112/2/2
f 111/1/2 112/1/2 113/1/2
f 113/1/2 112/1/2 114/1/2
f 113/2/2 114/2/2 115/2/2
f 115/2/2 114/2/2 116/2/2
f 115/1/2 116/1/2 117/1/2
f 117/1/2 116/1/2 118/1/2
f 117/2/2 118/2/2 119/2/2
f 119/2/2 118/2/2 120/2/2
f 121/2/2 122/2/2 124/2/2
f 124/2/2 122/2/2 125/2/2
f 123/2/2 124/2/2 127/2/2
f 124/1/2 125/1/2 128/1/2
f 127/2/2 124/2/2 128/2/2
f 125/2/2 126/2/2 129/2/2
f 128/1/2 125/1/2 129/1/2
f 129/2/2 126/2/2 130/2/2
f 128/2/2 129/2/2 131/2/2
f 131/2/2 129/2/2 132/2/2
f 140/1/3 134/1/3 133/1/3
f 141/2/3 135/2/3 134/2/3
f 141/1/3 134/1/3 140/1/3
f 142/1/3 136/1/3 135/1/3
f 142/2/3 135/2/3 141/2/3
f 143/2/3 137/2/3 136/2/3
f 143/1/3 136/1/3 142/1/3
f 144/1/3 138/1/3 137/1/3
f 144/2/3 137/2/3 143/2/3
f 145/2/3 139/2/3 138/2/3
f 145/1/3 138/1/3 144/1/3
f 146/2/3 139/2/3 145/2/3
f 149/2/3 148/2/3 147/2/3
f 150/2/3 148/2/3 149/2/3
f 158/1/3 152/1/3 151/1/3
f 159/2/3 153/2/3 152/2/3
f 159/1/3 152/1/3 158/1/3
f 160/1/3 154/1/3 153/1/3
f 160/2/3 153/2/3 159/2/3
f 161/2/3 155/2/3 154/2/3
f 161/1/3 154/1/3 160/1/3
f 162/1/3 156/1/3 155/1/3
f 162/2/3 155/2/3 161/2/3
f 163/2/3 157/2/3 156/2/3
f 163/1/3 156/1/3 162/1/3
f 164/2/3 157/2/3 163/2/3
f 172/1/3 166/1/3 165/1/3
f 173/2/3 167/2/3 166/2/3
f 173/1/3 166/1/3 172/1/3
f 174/1/3 168/1/3 167/1/3
f 174/2/3 167/2/3 173/2/3
f 175/2/3 169/2/3 168/2/3
f 175/1/3 168/1/3 174/1/3
f 176/1/3 170/1/3 169/1/3
f 176/2/3 169/2/3 175/2/3
f 177/2/3 171/2/3 170/2/3
f 177/1/3 170/1/3 176/1/3
f 178/2/3 171/2/3 177/2/3
f 182/2/3 179/2/3 178/2/3
f 183/2/3 179/2/3 182/2/3
f 184/2/3 181/2/3 180/2/3
f 185/2/3 181/2/3 184/2/3
f 192/2/3 187/2/3 186/2/3
f 193/1/3 188/1/3 187/1/3
f 193/2/3 187/2/3 192/2/3
f 194/2/3 189/2/3 188/2/3
f 194/1/3 188/1/3 193/1/3
f 195/1/3 190/1/3 189/1/3
f 195/2/3 189/2/3 194/2/3
f 196/2/3 191/2/3 190/2/3
f 196/1/3 190/1/3 195/1/3
f 197/2/3 191/2/3 196/2/3
f 198/2/4 199/2/4 204/2/4
f 199/1/4 200/1/4 205/1/4
f 204/2/4 199/2/4 205/2/4
f 200/2/4 201/2/4 206/2/4
f 205/1/4 200/1/4 206/1/4
f 201/1/4 202/1/4 207/1/4
f 206/2/4 201/2/4 207/2/4
f 202/2/4 203/2/4 208/2/4
f 207/1/4 202/1/4 208/1/4
f 208/2/4 203/2/4 209/2/4
f 210/1/4 211/1/4 217/1/4
f 211/2/4 212/2/4 218/2/4
f 217/1/4 211/1/4 218/1/4
f 212/1/4 213/1/4 219/1/4
f 218/2/4 212/2/4 219/2/4
f 213/2/4 214/2/4 220/2/4
f 219/1/4 213/1/4 220/1/4
f 214/1/4 215/1/4 221/1/4
f 220/2/4 214/2/4 221/2/4
f 215/2/4 216/2/4 222/2/4
f 221/1/4 215/1/4 222/1/4
f 222/2/4 216/2/4 223/2/4
f 224/1/4 225/1/4 231/1/4
f 225/2/4 226/2/4 232/2/4
f 231/1/4 225/1/4 232/1/4
f 226/1/4 227/1/4 233/1/4
f 232/2/4 226/2/4 233/2/4
f 227/2/4 228/2/4 234/2/4
f 233/1/4 227/1/4 234/1/4
f 228/1/4 229/1/4 235/1/4
f 234/2/4 228/2/4 235/2/4
f 229/2/4 230/2/4 236/2/4
f 235/1/4 229/1/4 236/1/4
f 236/2/4 230/2/4 237/2/4
f 237/2/4 238/2/4 241/2/4
f 241/2/4 238/2/4 242/2/4
f 239/2/4 240/2/4 243/2/4
f 243/2/4 240/2/4 244/2/4
f 245/1/4 246/1/4 252/1/4
f 246/2/4 247/2/4 253/2/4
f 252/1/4 246/1/4 253/1/4
f 247/1/4 248/1/4 254/1/4
f 253/2/4 247/2/4 254/2/4
f 248/2/4 249/2/4 255/2/4
f 254/1/4 248/1/4 255/1/4
f 249/1/4 250/1/4 256/1/4
f 255/2/4 249/2/4 256/2/4
f 250/2/4 251/2/4 257/2/4
f 256/1/4 250/1/4 257/1/4
f 257/2/4 251/2/4 258/2/4
f 259/2/4 260/2/4 261/2/4
f 261/2/4 260/2/4 262/2/4
f 266/1/5 264/1/5 263/1/5
f 267/1/5 264/1/5 266/1/5
f 269/1/5 266/1/5 265/1/5
f 269/1/5 268/1/5 267/1/5
f 269/1/5 267/1/5 266/1/5
f 270/1/5 268/1/5 269/1/5
f 271/1/5 268/1/5 270/1/5
f 272/1/5 268/1/5 271/1/5
f 273/1/5 271/1/5 270/1/5
f 274/1/5 271/1/5 273/1/5
f 277/2/5 276/2/5 275/2/5
f 278/2/5 276/2/5 277/2/5
f 281/2/5 280/2/5 279/2/5
f 282/2/5 280/2/5 281/2/5
f 285/2/5 284/2/5 283/2/5
f 286/2/5 284/2/5 285/2/5
f 287/1/6 288/1/6 289/1/6
f 289/1/6 288/1/6 290/1/6
f 291/2/6 292/2/6 294/2/6
f 294/2/6 292/2/6 295/2/6
f 293/2/6 294/2/6 297/2/6
f 297/2/6 294/2/6 298/2/6
f 295/2/6 296/2/6 299/2/6
f 299/2/6 296/2/6 300/2/6
f 298/2/6 299/2/6 301/2/6
f 301/2/6 299/2/6 302/2/6
f 303/2/6 304/2/6 305/2/6
f 305/2/6 304/2/6 306/2/6
f 307/2/6 308/2/6 309/2/6
f 309/2/6 308/2/6 310/2/6
f 311/2/6 312/2/6 313/2/6
f 313/2/6 312/2/6 314/2/6
