# MagicaVoxel @ ephtracy

# material
mtllib plunger.mtl
usemtl palette

# normals
vn -1 0 0
vn 1 0 0
vn 0 0 1
vn 0 0 -1
vn 0 -1 0
vn 0 1 0

# texcoords
vt 0.00195313 0.5
vt 0.00585938 0.5
vt 0.00976563 0.5

# verts
v -2 7 1
v -2 7 -2
v -2 8 1
v -2 8 -2
v -2 9 1
v -2 9 -2
v -1 7 2
v -1 7 1
v -1 7 -2
v -1 7 -3
v -1 8 2
v -1 8 1
v -1 8 -2
v -1 8 -3
v -1 9 2
v -1 9 1
v -1 9 -2
v -1 9 -3
v -1 10 1
v -1 10 -2
v 0 10 -0
v 0 10 -1
v 0 24 -0
v 0 24 -1
v 2 7 1
v 2 7 -2
v 2 8 1
v 2 8 -2
v 2 9 1
v 2 9 -2
v -1 7 1
v -1 7 -2
v -1 8 1
v -1 8 -2
v -1 9 1
v -1 9 -2
v 1 10 -0
v 1 10 -1
v 1 24 -0
v 1 24 -1
v 2 7 2
v 2 7 1
v 2 7 -2
v 2 7 -3
v 2 8 2
v 2 8 1
v 2 8 -2
v 2 8 -3
v 2 9 2
v 2 9 1
v 2 9 -2
v 2 9 -3
v 2 10 1
v 2 10 -2
v 3 7 1
v 3 7 -2
v 3 8 1
v 3 8 -2
v 3 9 1
v 3 9 -2
v -1 7 2
v -1 8 2
v -1 9 2
v 2 7 2
v 2 8 2
v 2 9 2
v -2 7 1
v -2 8 1
v -2 9 1
v -1 7 1
v -1 8 1
v -1 9 1
v -1 10 1
v 2 7 1
v 2 8 1
v 2 9 1
v 2 10 1
v 3 7 1
v 3 8 1
v 3 9 1
v 0 10 -0
v 0 24 -0
v 1 10 -0
v 1 24 -0
v -1 7 -2
v -1 8 -2
v -1 9 -2
v 2 7 -2
v 2 8 -2
v 2 9 -2
v -1 7 1
v -1 8 1
v -1 9 1
v 2 7 1
v 2 8 1
v 2 9 1
v 0 10 -1
v 0 24 -1
v 1 10 -1
v 1 24 -1
v -2 7 -2
v -2 8 -2
v -2 9 -2
v -1 7 -2
v -1 8 -2
v -1 9 -2
v -1 10 -2
v 2 7 -2
v 2 8 -2
v 2 9 -2
v 2 10 -2
v 3 7 -2
v 3 8 -2
v 3 9 -2
v -1 7 -3
v -1 8 -3
v -1 9 -3
v 2 7 -3
v 2 8 -3
v 2 9 -3
v -1 7 2
v 2 7 2
v -2 7 1
v -1 7 1
v 2 7 1
v 3 7 1
v -2 7 -2
v -1 7 -2
v 2 7 -2
v 3 7 -2
v -1 7 -3
v 2 7 -3
v -1 9 1
v 2 9 1
v -1 9 -2
v 2 9 -2
v -1 9 2
v 2 9 2
v -2 9 1
v -1 9 1
v 2 9 1
v 3 9 1
v -2 9 -2
v -1 9 -2
v 2 9 -2
v 3 9 -2
v -1 9 -3
v 2 9 -3
v -1 10 1
v 2 10 1
v 0 10 -0
v 1 10 -0
v 0 10 -1
v 1 10 -1
v -1 10 -2
v 2 10 -2
v 0 24 -0
v 1 24 -0
v 0 24 -1
v 1 24 -1

# faces
f 3/1/1 2/1/1 1/1/1
f 4/1/1 2/1/1 3/1/1
f 5/2/1 4/2/1 3/2/1
f 6/2/1 4/2/1 5/2/1
f 11/1/1 8/1/1 7/1/1
f 12/1/1 8/1/1 11/1/1
f 13/1/1 10/1/1 9/1/1
f 14/1/1 10/1/1 13/1/1
f 15/2/1 12/2/1 11/2/1
f 16/2/1 12/2/1 15/2/1
f 17/2/1 14/2/1 13/2/1
f 18/2/1 14/2/1 17/2/1
f 19/1/1 17/1/1 16/1/1
f 20/1/1 17/1/1 19/1/1
f 23/3/1 22/3/1 21/3/1
f 24/3/1 22/3/1 23/3/1
f 27/1/1 26/1/1 25/1/1
f 28/1/1 26/1/1 27/1/1
f 29/2/1 28/2/1 27/2/1
f 30/2/1 28/2/1 29/2/1
f 31/1/2 32/1/2 33/1/2
f 33/1/2 32/1/2 34/1/2
f 33/2/2 34/2/2 35/2/2
f 35/2/2 34/2/2 36/2/2
f 37/3/2 38/3/2 39/3/2
f 39/3/2 38/3/2 40/3/2
f 41/1/2 42/1/2 45/1/2
f 45/1/2 42/1/2 46/1/2
f 43/1/2 44/1/2 47/1/2
f 47/1/2 44/1/2 48/1/2
f 45/2/2 46/2/2 49/2/2
f 49/2/2 46/2/2 50/2/2
f 47/2/2 48/2/2 51/2/2
f 51/2/2 48/2/2 52/2/2
f 50/1/2 51/1/2 53/1/2
f 53/1/2 51/1/2 54/1/2
f 55/1/2 56/1/2 57/1/2
f 57/1/2 56/1/2 58/1/2
f 57/2/2 58/2/2 59/2/2
f 59/2/2 58/2/2 60/2/2
f 64/1/3 62/1/3 61/1/3
f 65/2/3 63/2/3 62/2/3
f 65/1/3 62/1/3 64/1/3
f 66/2/3 63/2/3 65/2/3
f 70/1/3 68/1/3 67/1/3
f 71/2/3 69/2/3 68/2/3
f 71/1/3 68/1/3 70/1/3
f 72/2/3 69/2/3 71/2/3
f 76/1/3 73/1/3 72/1/3
f 77/1/3 73/1/3 76/1/3
f 78/1/3 75/1/3 74/1/3
f 79/2/3 76/2/3 75/2/3
f 79/1/3 75/1/3 78/1/3
f 80/2/3 76/2/3 79/2/3
f 83/3/3 82/3/3 81/3/3
f 84/3/3 82/3/3 83/3/3
f 88/1/3 86/1/3 85/1/3
f 89/2/3 87/2/3 86/2/3
f 89/1/3 86/1/3 88/1/3
f 90/2/3 87/2/3 89/2/3
f 91/1/4 92/1/4 94/1/4
f 92/2/4 93/2/4 95/2/4
f 94/1/4 92/1/4 95/1/4
f 95/2/4 93/2/4 96/2/4
f 97/3/4 98/3/4 99/3/4
f 99/3/4 98/3/4 100/3/4
f 101/1/4 102/1/4 104/1/4
f 102/2/4 103/2/4 105/2/4
f 104/1/4 102/1/4 105/1/4
f 105/2/4 103/2/4 106/2/4
f 106/1/4 107/1/4 110/1/4
f 110/1/4 107/1/4 111/1/4
f 108/1/4 109/1/4 112/1/4
f 109/2/4 110/2/4 113/2/4
f 112/1/4 109/1/4 113/1/4
f 113/2/4 110/2/4 114/2/4
f 115/1/4 116/1/4 118/1/4
f 116/2/4 117/2/4 119/2/4
f 118/1/4 116/1/4 119/1/4
f 119/2/4 117/2/4 120/2/4
f 124/1/5 122/1/5 121/1/5
f 125/1/5 122/1/5 124/1/5
f 127/1/5 124/1/5 123/1/5
f 128/1/5 124/1/5 127/1/5
f 129/1/5 126/1/5 125/1/5
f 130/1/5 126/1/5 129/1/5
f 131/1/5 129/1/5 128/1/5
f 132/1/5 129/1/5 131/1/5
f 135/1/5 134/1/5 133/1/5
f 136/1/5 134/1/5 135/1/5
f 137/2/6 138/2/6 140/2/6
f 140/2/6 138/2/6 141/2/6
f 139/2/6 140/2/6 143/2/6
f 143/2/6 140/2/6 144/2/6
f 141/2/6 142/2/6 145/2/6
f 145/2/6 142/2/6 146/2/6
f 144/2/6 145/2/6 147/2/6
f 147/2/6 145/2/6 148/2/6
f 149/1/6 150/1/6 151/1/6
f 151/1/6 150/1/6 152/1/6
f 149/1/6 151/1/6 153/1/6
f 152/1/6 150/1/6 154/1/6
f 149/1/6 153/1/6 155/1/6
f 153/1/6 154/1/6 155/1/6
f 154/1/6 150/1/6 156/1/6
f 155/1/6 154/1/6 156/1/6
f 157/3/6 158/3/6 159/3/6
f 159/3/6 158/3/6 160/3/6
