# MagicaVoxel @ ephtracy

# material
mtllib bluetang.mtl
usemtl palette

# normals
vn -1 0 0
vn 1 0 0
vn 0 0 1
vn 0 0 -1
vn 0 -1 0
vn 0 1 0

# texcoords
vt 0.00195313 0.5
vt 0.00585938 0.5
vt 0.00976563 0.5
vt 0.0136719 0.5
vt 0.0175781 0.5
vt 0.0214844 0.5

# verts
v -6 5 -0
v -6 5 -1
v -6 6 -0
v -6 6 -1
v -6 9 -0
v -6 9 -1
v -6 10 -0
v -6 10 -1
v -2 10 -0
v -2 10 -1
v -2 11 -0
v -2 11 -1
v -1 3 -0
v -1 3 -1
v -1 4 -0
v -1 4 -1
v -1 5 -0
v -1 5 -1
v -1 6 1
v -1 6 -0
v -1 6 -1
v -1 6 -2
v -1 7 -0
v -1 7 -1
v -1 8 -0
v -1 8 -1
v -1 9 1
v -1 9 -0
v -1 9 -1
v -1 9 -2
v -1 10 -0
v -1 10 -1
v -1 11 -0
v -1 11 -1
v -1 12 -0
v -1 12 -1
v 0 4 -0
v 0 4 -1
v 0 5 1
v 0 5 -0
v 0 5 -1
v 0 5 -2
v 0 6 1
v 0 6 -0
v 0 6 -1
v 0 6 -2
v 1 9 1
v 1 9 -0
v 1 9 -1
v 1 9 -2
v 1 10 1
v 1 10 -0
v 1 10 -1
v 1 10 -2
v 6 5 2
v 6 5 1
v 6 5 -2
v 6 5 -3
v 6 6 2
v 6 6 1
v 6 6 -2
v 6 6 -3
v 6 7 1
v 6 7 -2
v 6 8 2
v 6 8 1
v 6 8 -2
v 6 8 -3
v -3 5 -0
v -3 5 -1
v -3 6 -0
v -3 6 -1
v -3 9 -0
v -3 9 -1
v -3 10 -0
v -3 10 -1
v 4 3 -0
v 4 3 -1
v 4 4 -0
v 4 4 -1
v 7 7 2
v 7 7 1
v 7 7 -2
v 7 7 -3
v 7 8 2
v 7 8 1
v 7 8 -2
v 7 8 -3
v 7 11 -0
v 7 11 -1
v 7 12 -0
v 7 12 -1
v 8 5 2
v 8 5 1
v 8 5 -2
v 8 5 -3
v 8 7 2
v 8 7 1
v 8 7 -2
v 8 7 -3
v 9 9 1
v 9 9 -0
v 9 9 -1
v 9 9 -2
v 9 10 1
v 9 10 -0
v 9 10 -1
v 9 10 -2
v 9 11 -0
v 9 11 -1
v 10 5 1
v 10 5 -0
v 10 5 -1
v 10 5 -2
v 10 6 1
v 10 6 -0
v 10 6 -1
v 10 6 -2
v 11 4 -0
v 11 4 -1
v 11 5 -0
v 11 5 -1
v 11 6 1
v 11 6 -0
v 11 6 -1
v 11 6 -2
v 11 9 1
v 11 9 -0
v 11 9 -1
v 11 9 -2
v 11 10 -0
v 11 10 -1
v 12 5 -0
v 12 5 -1
v 12 9 -0
v 12 9 -1
v 6 5 2
v 6 6 2
v 6 8 2
v 7 6 2
v 7 7 2
v 7 8 2
v 8 5 2
v 8 7 2
v -1 6 1
v -1 9 1
v 0 5 1
v 0 6 1
v 1 9 1
v 1 10 1
v 3 7 1
v 3 9 1
v 6 5 1
v 6 6 1
v 6 7 1
v 6 8 1
v 6 9 1
v 7 7 1
v 7 8 1
v 7 9 1
v 8 5 1
v 8 7 1
v 9 7 1
v 9 8 1
v 9 9 1
v 9 10 1
v 10 5 1
v 10 6 1
v 10 7 1
v 10 8 1
v 10 9 1
v 11 6 1
v 11 9 1
v -6 5 -0
v -6 6 -0
v -6 9 -0
v -6 10 -0
v -4 6 -0
v -4 7 -0
v -4 8 -0
v -4 9 -0
v -3 5 -0
v -3 6 -0
v -3 9 -0
v -3 10 -0
v -2 10 -0
v -2 11 -0
v -1 3 -0
v -1 4 -0
v -1 5 -0
v -1 6 -0
v -1 7 -0
v -1 8 -0
v -1 9 -0
v -1 10 -0
v -1 11 -0
v -1 12 -0
v 0 4 -0
v 0 5 -0
v 0 6 -0
v 1 9 -0
v 1 10 -0
v 1 11 -0
v 4 3 -0
v 4 4 -0
v 7 11 -0
v 7 12 -0
v 9 9 -0
v 9 10 -0
v 9 11 -0
v 10 5 -0
v 10 6 -0
v 10 9 -0
v 11 4 -0
v 11 5 -0
v 11 6 -0
v 11 9 -0
v 11 10 -0
v 12 5 -0
v 12 9 -0
v -6 5 -1
v -6 6 -1
v -6 9 -1
v -6 10 -1
v -4 6 -1
v -4 7 -1
v -4 8 -1
v -4 9 -1
v -3 5 -1
v -3 6 -1
v -3 9 -1
v -3 10 -1
v -2 10 -1
v -2 11 -1
v -1 3 -1
v -1 4 -1
v -1 5 -1
v -1 6 -1
v -1 7 -1
v -1 8 -1
v -1 9 -1
v -1 10 -1
v -1 11 -1
v -1 12 -1
v 0 4 -1
v 0 5 -1
v 0 6 -1
v 1 9 -1
v 1 10 -1
v 1 11 -1
v 4 3 -1
v 4 4 -1
v 7 11 -1
v 7 12 -1
v 9 9 -1
v 9 10 -1
v 9 11 -1
v 10 5 -1
v 10 6 -1
v 10 9 -1
v 11 4 -1
v 11 5 -1
v 11 6 -1
v 11 9 -1
v 11 10 -1
v 12 5 -1
v 12 9 -1
v -1 6 -2
v -1 9 -2
v 0 5 -2
v 0 6 -2
v 1 9 -2
v 1 10 -2
v 3 7 -2
v 3 9 -2
v 6 5 -2
v 6 6 -2
v 6 7 -2
v 6 8 -2
v 6 9 -2
v 7 7 -2
v 7 8 -2
v 7 9 -2
v 8 5 -2
v 8 7 -2
v 9 7 -2
v 9 8 -2
v 9 9 -2
v 9 10 -2
v 10 5 -2
v 10 6 -2
v 10 7 -2
v 10 8 -2
v 10 9 -2
v 11 6 -2
v 11 9 -2
v 6 5 -3
v 6 6 -3
v 6 8 -3
v 7 6 -3
v 7 7 -3
v 7 8 -3
v 8 5 -3
v 8 7 -3
v -1 3 -0
v 4 3 -0
v -1 3 -1
v 4 3 -1
v 4 4 -0
v 11 4 -0
v 4 4 -1
v 11 4 -1
v 6 5 2
v 8 5 2
v 0 5 1
v 6 5 1
v 8 5 1
v 10 5 1
v -6 5 -0
v -3 5 -0
v -1 5 -0
v 0 5 -0
v 10 5 -0
v 11 5 -0
v 12 5 -0
v -6 5 -1
v -3 5 -1
v -1 5 -1
v 0 5 -1
v 10 5 -1
v 11 5 -1
v 12 5 -1
v 0 5 -2
v 6 5 -2
v 8 5 -2
v 10 5 -2
v 6 5 -3
v 8 5 -3
v -1 6 1
v 0 6 1
v 10 6 1
v 11 6 1
v -3 6 -0
v -1 6 -0
v 0 6 -0
v 10 6 -0
v 11 6 -0
v -3 6 -1
v -1 6 -1
v 0 6 -1
v 10 6 -1
v 11 6 -1
v -1 6 -2
v 0 6 -2
v 10 6 -2
v 11 6 -2
v -2 10 -0
v -1 10 -0
v -2 10 -1
v -1 10 -1
v -1 4 -0
v 0 4 -0
v -1 4 -1
v 0 4 -1
v 7 7 2
v 8 7 2
v 7 7 1
v 8 7 1
v 7 7 -2
v 8 7 -2
v 7 7 -3
v 8 7 -3
v 6 8 2
v 7 8 2
v 6 8 1
v 7 8 1
v 6 8 -2
v 7 8 -2
v 6 8 -3
v 7 8 -3
v -1 9 1
v 1 9 1
v 9 9 1
v 10 9 1
v 11 9 1
v -3 9 -0
v -1 9 -0
v 1 9 -0
v 9 9 -0
v 10 9 -0
v 11 9 -0
v 12 9 -0
v -3 9 -1
v -1 9 -1
v 1 9 -1
v 9 9 -1
v 10 9 -1
v 11 9 -1
v 12 9 -1
v -1 9 -2
v 1 9 -2
v 9 9 -2
v 10 9 -2
v 11 9 -2
v 1 10 1
v 9 10 1
v -6 10 -0
v -3 10 -0
v 1 10 -0
v 9 10 -0
v 11 10 -0
v -6 10 -1
v -3 10 -1
v 1 10 -1
v 9 10 -1
v 11 10 -1
v 1 10 -2
v 9 10 -2
v -2 11 -0
v -1 11 -0
v 7 11 -0
v 9 11 -0
v -2 11 -1
v -1 11 -1
v 7 11 -1
v 9 11 -1
v -1 12 -0
v 7 12 -0
v -1 12 -1
v 7 12 -1

# faces
f 3/4/1 2/4/1 1/4/1
f 4/4/1 2/4/1 3/4/1
f 5/2/1 4/2/1 3/2/1
f 6/2/1 4/2/1 5/2/1
f 7/4/1 6/4/1 5/4/1
f 8/4/1 6/4/1 7/4/1
f 11/6/1 10/6/1 9/6/1
f 12/6/1 10/6/1 11/6/1
f 15/6/1 14/6/1 13/6/1
f 16/6/1 14/6/1 15/6/1
f 20/3/1 18/3/1 17/3/1
f 21/3/1 18/3/1 20/3/1
f 23/4/1 20/4/1 19/4/1
f 24/4/1 22/4/1 21/4/1
f 25/4/1 23/4/1 19/4/1
f 26/4/1 22/4/1 24/4/1
f 27/4/1 25/4/1 19/4/1
f 28/4/1 25/4/1 27/4/1
f 29/4/1 22/4/1 26/4/1
f 30/4/1 22/4/1 29/4/1
f 31/3/1 29/3/1 28/3/1
f 32/3/1 29/3/1 31/3/1
f 35/6/1 34/6/1 33/6/1
f 36/6/1 34/6/1 35/6/1
f 40/3/1 38/3/1 37/3/1
f 41/3/1 38/3/1 40/3/1
f 43/3/1 40/3/1 39/3/1
f 44/3/1 40/3/1 43/3/1
f 45/3/1 42/3/1 41/3/1
f 46/3/1 42/3/1 45/3/1
f 51/4/1 48/4/1 47/4/1
f 52/4/1 48/4/1 51/4/1
f 53/4/1 50/4/1 49/4/1
f 54/4/1 50/4/1 53/4/1
f 59/1/1 56/1/1 55/1/1
f 60/1/1 56/1/1 59/1/1
f 61/1/1 58/1/1 57/1/1
f 62/1/1 58/1/1 61/1/1
f 63/2/1 60/2/1 59/2/1
f 64/2/1 62/2/1 61/2/1
f 65/2/1 63/2/1 59/2/1
f 66/2/1 63/2/1 65/2/1
f 67/2/1 62/2/1 64/2/1
f 68/2/1 62/2/1 67/2/1
f 69/4/2 70/4/2 71/4/2
f 71/4/2 70/4/2 72/4/2
f 73/4/2 74/4/2 75/4/2
f 75/4/2 74/4/2 76/4/2
f 77/6/2 78/6/2 79/6/2
f 79/6/2 78/6/2 80/6/2
f 81/2/2 82/2/2 85/2/2
f 85/2/2 82/2/2 86/2/2
f 83/2/2 84/2/2 87/2/2
f 87/2/2 84/2/2 88/2/2
f 89/6/2 90/6/2 91/6/2
f 91/6/2 90/6/2 92/6/2
f 93/1/2 94/1/2 97/1/2
f 97/1/2 94/1/2 98/1/2
f 95/1/2 96/1/2 99/1/2
f 99/1/2 96/1/2 100/1/2
f 101/4/2 102/4/2 105/4/2
f 105/4/2 102/4/2 106/4/2
f 103/4/2 104/4/2 107/4/2
f 107/4/2 104/4/2 108/4/2
f 106/3/2 107/3/2 109/3/2
f 109/3/2 107/3/2 110/3/2
f 111/3/2 112/3/2 115/3/2
f 115/3/2 112/3/2 116/3/2
f 113/3/2 114/3/2 117/3/2
f 117/3/2 114/3/2 118/3/2
f 119/3/2 120/3/2 121/3/2
f 121/3/2 120/3/2 122/3/2
f 123/3/2 124/3/2 127/3/2
f 127/3/2 124/3/2 128/3/2
f 125/3/2 126/3/2 129/3/2
f 129/3/2 126/3/2 130/3/2
f 128/3/2 129/3/2 131/3/2
f 131/3/2 129/3/2 132/3/2
f 133/3/2 134/3/2 135/3/2
f 135/3/2 134/3/2 136/3/2
f 140/1/3 138/1/3 137/1/3
f 140/2/3 139/2/3 138/2/3
f 141/2/3 139/2/3 140/2/3
f 142/2/3 139/2/3 141/2/3
f 143/1/3 140/1/3 137/1/3
f 143/1/3 141/1/3 140/1/3
f 144/1/3 141/1/3 143/1/3
f 148/4/3 146/4/3 145/4/3
f 149/4/3 146/4/3 148/4/3
f 151/4/3 149/4/3 148/4/3
f 151/4/3 150/4/3 149/4/3
f 152/4/3 150/4/3 151/4/3
f 153/3/3 148/3/3 147/3/3
f 154/4/3 151/4/3 148/4/3
f 154/3/3 148/3/3 153/3/3
f 155/6/3 152/6/3 151/6/3
f 155/4/3 151/4/3 154/4/3
f 156/6/3 152/6/3 155/6/3
f 157/4/3 150/4/3 152/4/3
f 157/6/3 152/6/3 156/6/3
f 159/4/3 157/4/3 156/4/3
f 160/4/3 150/4/3 157/4/3
f 160/4/3 157/4/3 159/4/3
f 162/3/3 159/3/3 158/3/3
f 162/3/3 160/3/3 159/3/3
f 163/3/3 160/3/3 162/3/3
f 163/3/3 162/3/3 161/3/3
f 164/3/3 160/3/3 163/3/3
f 165/4/3 150/4/3 160/4/3
f 165/3/3 160/3/3 164/3/3
f 166/4/3 150/4/3 165/4/3
f 167/3/3 163/3/3 161/3/3
f 168/3/3 163/3/3 167/3/3
f 169/5/3 164/5/3 163/5/3
f 169/3/3 163/3/3 168/3/3
f 170/4/3 165/4/3 164/4/3
f 170/5/3 164/5/3 169/5/3
f 171/4/3 165/4/3 170/4/3
f 172/3/3 169/3/3 168/3/3
f 172/3/3 171/3/3 170/3/3
f 172/3/3 170/3/3 169/3/3
f 173/3/3 171/3/3 172/3/3
f 178/4/3 175/4/3 174/4/3
f 178/2/3 176/2/3 175/2/3
f 179/2/3 176/2/3 178/2/3
f 180/2/3 176/2/3 179/2/3
f 181/4/3 177/4/3 176/4/3
f 181/2/3 176/2/3 180/2/3
f 182/4/3 178/4/3 174/4/3
f 182/4/3 179/4/3 178/4/3
f 183/4/3 179/4/3 182/4/3
f 184/4/3 177/4/3 181/4/3
f 184/4/3 181/4/3 180/4/3
f 185/4/3 177/4/3 184/4/3
f 191/4/3 179/4/3 183/4/3
f 192/2/3 180/2/3 179/2/3
f 192/4/3 179/4/3 191/4/3
f 193/4/3 184/4/3 180/4/3
f 193/2/3 180/2/3 192/2/3
f 194/4/3 184/4/3 193/4/3
f 195/6/3 187/6/3 186/6/3
f 196/6/3 187/6/3 195/6/3
f 198/6/3 189/6/3 188/6/3
f 199/3/3 191/3/3 190/3/3
f 200/3/3 191/3/3 199/3/3
f 201/3/3 195/3/3 194/3/3
f 202/6/3 197/6/3 196/6/3
f 202/3/3 195/3/3 201/3/3
f 202/6/3 196/6/3 195/6/3
f 203/6/3 197/6/3 202/6/3
f 204/6/3 198/6/3 188/6/3
f 205/3/3 199/3/3 198/3/3
f 205/6/3 198/6/3 204/6/3
f 206/6/3 197/6/3 203/6/3
f 206/3/3 203/3/3 202/3/3
f 207/6/3 197/6/3 206/6/3
f 209/3/3 206/3/3 202/3/3
f 210/3/3 206/3/3 209/3/3
f 211/3/3 199/3/3 205/3/3
f 213/3/3 209/3/3 208/3/3
f 214/3/3 212/3/3 211/3/3
f 214/3/3 211/3/3 205/3/3
f 215/3/3 212/3/3 214/3/3
f 216/3/3 212/3/3 215/3/3
f 217/3/3 209/3/3 213/3/3
f 218/3/3 209/3/3 217/3/3
f 219/3/3 216/3/3 215/3/3
f 219/3/3 217/3/3 216/3/3
f 220/3/3 217/3/3 219/3/3
f 221/4/4 222/4/4 225/4/4
f 222/2/4 223/2/4 225/2/4
f 225/2/4 223/2/4 226/2/4
f 226/2/4 223/2/4 227/2/4
f 223/4/4 224/4/4 228/4/4
f 227/2/4 223/2/4 228/2/4
f 221/4/4 225/4/4 229/4/4
f 225/4/4 226/4/4 229/4/4
f 229/4/4 226/4/4 230/4/4
f 228/4/4 224/4/4 231/4/4
f 227/4/4 228/4/4 231/4/4
f 231/4/4 224/4/4 232/4/4
f 230/4/4 226/4/4 238/4/4
f 226/2/4 227/2/4 239/2/4
f 238/4/4 226/4/4 239/4/4
f 227/4/4 231/4/4 240/4/4
f 239/2/4 227/2/4 240/2/4
f 240/4/4 231/4/4 241/4/4
f 233/6/4 234/6/4 242/6/4
f 242/6/4 234/6/4 243/6/4
f 235/6/4 236/6/4 245/6/4
f 237/3/4 238/3/4 246/3/4
f 246/3/4 238/3/4 247/3/4
f 241/3/4 242/3/4 248/3/4
f 243/6/4 244/6/4 249/6/4
f 248/3/4 242/3/4 249/3/4
f 242/6/4 243/6/4 249/6/4
f 249/6/4 244/6/4 250/6/4
f 235/6/4 245/6/4 251/6/4
f 245/3/4 246/3/4 252/3/4
f 251/6/4 245/6/4 252/6/4
f 250/6/4 244/6/4 253/6/4
f 249/3/4 250/3/4 253/3/4
f 253/6/4 244/6/4 254/6/4
f 249/3/4 253/3/4 256/3/4
f 256/3/4 253/3/4 257/3/4
f 252/3/4 246/3/4 258/3/4
f 255/3/4 256/3/4 260/3/4
f 258/3/4 259/3/4 261/3/4
f 252/3/4 258/3/4 261/3/4
f 261/3/4 259/3/4 262/3/4
f 262/3/4 259/3/4 263/3/4
f 260/3/4 256/3/4 264/3/4
f 264/3/4 256/3/4 265/3/4
f 262/3/4 263/3/4 266/3/4
f 263/3/4 264/3/4 266/3/4
f 266/3/4 264/3/4 267/3/4
f 268/4/4 269/4/4 271/4/4
f 271/4/4 269/4/4 272/4/4
f 271/4/4 272/4/4 274/4/4
f 272/4/4 273/4/4 274/4/4
f 274/4/4 273/4/4 275/4/4
f 270/3/4 271/3/4 276/3/4
f 271/4/4 274/4/4 277/4/4
f 276/3/4 271/3/4 277/3/4
f 274/6/4 275/6/4 278/6/4
f 277/4/4 274/4/4 278/4/4
f 278/6/4 275/6/4 279/6/4
f 275/4/4 273/4/4 280/4/4
f 279/6/4 275/6/4 280/6/4
f 279/4/4 280/4/4 282/4/4
f 280/4/4 273/4/4 283/4/4
f 282/4/4 280/4/4 283/4/4
f 281/3/4 282/3/4 285/3/4
f 282/3/4 283/3/4 285/3/4
f 285/3/4 283/3/4 286/3/4
f 284/3/4 285/3/4 286/3/4
f 286/3/4 283/3/4 287/3/4
f 283/4/4 273/4/4 288/4/4
f 287/3/4 283/3/4 288/3/4
f 288/4/4 273/4/4 289/4/4
f 284/3/4 286/3/4 290/3/4
f 290/3/4 286/3/4 291/3/4
f 286/5/4 287/5/4 292/5/4
f 291/3/4 286/3/4 292/3/4
f 287/4/4 288/4/4 293/4/4
f 292/5/4 287/5/4 293/5/4
f 293/4/4 288/4/4 294/4/4
f 291/3/4 292/3/4 295/3/4
f 293/3/4 294/3/4 295/3/4
f 292/3/4 293/3/4 295/3/4
f 295/3/4 294/3/4 296/3/4
f 297/1/4 298/1/4 300/1/4
f 298/2/4 299/2/4 300/2/4
f 300/2/4 299/2/4 301/2/4
f 301/2/4 299/2/4 302/2/4
f 297/1/4 300/1/4 303/1/4
f 300/1/4 301/1/4 303/1/4
f 303/1/4 301/1/4 304/1/4
f 307/6/5 306/6/5 305/6/5
f 308/6/5 306/6/5 307/6/5
f 311/3/5 310/3/5 309/3/5
f 312/3/5 310/3/5 311/3/5
f 316/1/5 314/1/5 313/1/5
f 317/1/5 314/1/5 316/1/5
f 322/3/5 316/3/5 315/3/5
f 322/3/5 317/3/5 316/3/5
f 322/3/5 318/3/5 317/3/5
f 323/3/5 318/3/5 322/3/5
f 326/4/5 320/4/5 319/4/5
f 327/4/5 320/4/5 326/4/5
f 328/3/5 322/3/5 321/3/5
f 329/3/5 322/3/5 328/3/5
f 331/3/5 325/3/5 324/3/5
f 332/3/5 325/3/5 331/3/5
f 333/3/5 330/3/5 329/3/5
f 334/3/5 330/3/5 333/3/5
f 335/3/5 330/3/5 334/3/5
f 336/3/5 330/3/5 335/3/5
f 337/1/5 335/1/5 334/1/5
f 338/1/5 335/1/5 337/1/5
f 344/4/5 340/4/5 339/4/5
f 345/4/5 340/4/5 344/4/5
f 346/3/5 342/3/5 341/3/5
f 347/3/5 342/3/5 346/3/5
f 348/4/5 344/4/5 343/4/5
f 349/4/5 344/4/5 348/4/5
f 353/4/5 350/4/5 349/4/5
f 354/4/5 350/4/5 353/4/5
f 355/3/5 352/3/5 351/3/5
f 356/3/5 352/3/5 355/3/5
f 359/6/5 358/6/5 357/6/5
f 360/6/5 358/6/5 359/6/5
f 361/6/6 362/6/6 363/6/6
f 363/6/6 362/6/6 364/6/6
f 365/1/6 366/1/6 367/1/6
f 367/1/6 366/1/6 368/1/6
f 369/1/6 370/1/6 371/1/6
f 371/1/6 370/1/6 372/1/6
f 373/2/6 374/2/6 375/2/6
f 375/2/6 374/2/6 376/2/6
f 377/2/6 378/2/6 379/2/6
f 379/2/6 378/2/6 380/2/6
f 381/4/6 382/4/6 387/4/6
f 387/4/6 382/4/6 388/4/6
f 383/4/6 384/4/6 389/4/6
f 384/3/6 385/3/6 390/3/6
f 389/4/6 384/4/6 390/4/6
f 390/3/6 385/3/6 391/3/6
f 386/4/6 387/4/6 393/4/6
f 393/4/6 387/4/6 394/4/6
f 391/3/6 392/3/6 398/3/6
f 398/3/6 392/3/6 399/3/6
f 394/4/6 395/4/6 400/4/6
f 400/4/6 395/4/6 401/4/6
f 396/4/6 397/4/6 402/4/6
f 397/3/6 398/3/6 403/3/6
f 402/4/6 397/4/6 403/4/6
f 403/3/6 398/3/6 404/3/6
f 405/4/6 406/4/6 409/4/6
f 409/4/6 406/4/6 410/4/6
f 407/4/6 408/4/6 412/4/6
f 412/4/6 408/4/6 413/4/6
f 410/3/6 411/3/6 415/3/6
f 415/3/6 411/3/6 416/3/6
f 414/4/6 415/4/6 417/4/6
f 417/4/6 415/4/6 418/4/6
f 419/6/6 420/6/6 423/6/6
f 423/6/6 420/6/6 424/6/6
f 421/3/6 422/3/6 425/3/6
f 425/3/6 422/3/6 426/3/6
f 427/6/6 428/6/6 429/6/6
f 429/6/6 428/6/6 430/6/6
