# MagicaVoxel @ ephtracy

# material
mtllib classymantaray.mtl
usemtl palette

# normals
vn -1 0 0
vn 1 0 0
vn 0 0 1
vn 0 0 -1
vn 0 -1 0
vn 0 1 0

# texcoords
vt 0.00195313 0.5
vt 0.00585938 0.5
vt 0.00976563 0.5
vt 0.0136719 0.5
vt 0.0175781 0.5
vt 0.0214844 0.5
vt 0.0253906 0.5
vt 0.0292969 0.5
vt 0.0332031 0.5
vt 0.0371094 0.5
vt 0.0410156 0.5

# verts
v -11 10 -10
v -11 10 -11
v -11 11 -10
v -11 11 -11
v -10 10 -11
v -10 10 -13
v -10 11 -11
v -10 11 -13
v -9 10 -13
v -9 10 -15
v -9 11 -13
v -9 11 -15
v -8 10 -15
v -8 10 -16
v -8 11 -15
v -8 11 -16
v -7 10 -16
v -7 10 -17
v -7 11 -16
v -7 11 -17
v -5 6 -18
v -5 6 -19
v -5 10 -10
v -5 10 -11
v -5 10 -17
v -5 10 -18
v -5 11 -10
v -5 11 -11
v -5 11 -17
v -5 11 -18
v -5 11 -19
v -5 12 -18
v -5 12 -19
v -4 11 -12
v -4 11 -17
v -4 11 -18
v -4 12 -12
v -4 12 -17
v -4 12 -18
v -4 12 -19
v -4 13 -18
v -4 13 -19
v -3 10 -19
v -3 10 -21
v -3 11 -11
v -3 11 -12
v -3 11 -18
v -3 11 -19
v -3 11 -21
v -3 12 -11
v -3 12 -12
v -3 12 -18
v -3 12 -19
v -2 10 -9
v -2 10 -10
v -2 10 -21
v -2 10 -22
v -2 11 -9
v -2 11 -10
v -2 11 -11
v -2 11 -21
v -2 11 -22
v -2 12 -10
v -2 12 -11
v -2 12 -12
v -2 12 -13
v -2 12 -15
v -2 13 -12
v -2 13 -15
v -1 10 -8
v -1 10 -9
v -1 11 -8
v -1 11 -9
v -1 12 -11
v -1 12 -12
v -1 12 -15
v -1 12 -16
v -1 13 -11
v -1 13 -12
v -1 13 -15
v -1 13 -16
v -1 15 -12
v -1 15 -15
v 0 10 7
v 0 10 -8
v 0 11 7
v 0 11 -8
v 2 10 -18
v 2 10 -19
v 2 10 -21
v 2 10 -22
v 2 11 -18
v 2 11 -19
v 2 11 -21
v 2 11 -22
v 3 10 -19
v 3 10 -21
v 3 11 -17
v 3 11 -18
v 3 11 -19
v 3 11 -21
v 3 12 -17
v 3 12 -18
v 10 10 -10
v 10 10 -11
v 10 11 -10
v 10 11 -11
v -8 10 -10
v -8 10 -11
v -8 11 -10
v -8 11 -11
v -4 6 -18
v -4 6 -19
v -4 10 -18
v -4 10 -19
v -4 11 -18
v -4 11 -19
v -4 12 -18
v -4 12 -19
v -3 12 -18
v -3 12 -19
v -3 13 -18
v -3 13 -19
v -2 10 -19
v -2 10 -21
v -2 11 -17
v -2 11 -18
v -2 11 -19
v -2 11 -21
v -2 12 -17
v -2 12 -18
v -2 12 -19
v -1 10 -18
v -1 10 -19
v -1 10 -21
v -1 10 -22
v -1 11 -18
v -1 11 -19
v -1 11 -21
v -1 11 -22
v 1 10 7
v 1 10 -8
v 1 11 7
v 1 11 -8
v 2 10 -8
v 2 10 -9
v 2 11 -8
v 2 11 -9
v 2 12 -11
v 2 12 -12
v 2 12 -15
v 2 12 -16
v 2 13 -11
v 2 13 -12
v 2 13 -15
v 2 13 -16
v 2 15 -12
v 2 15 -15
v 3 10 -9
v 3 10 -10
v 3 10 -21
v 3 10 -22
v 3 11 -9
v 3 11 -10
v 3 11 -11
v 3 11 -21
v 3 11 -22
v 3 12 -10
v 3 12 -11
v 3 12 -12
v 3 12 -13
v 3 12 -15
v 3 13 -12
v 3 13 -15
v 4 10 -18
v 4 10 -21
v 4 11 -11
v 4 11 -12
v 4 11 -18
v 4 11 -21
v 4 12 -11
v 4 12 -12
v 5 11 -12
v 5 11 -17
v 5 11 -18
v 5 12 -12
v 5 12 -17
v 5 12 -18
v 6 10 -10
v 6 10 -11
v 6 10 -17
v 6 10 -18
v 6 11 -10
v 6 11 -11
v 6 11 -17
v 6 11 -18
v 8 10 -16
v 8 10 -17
v 8 11 -16
v 8 11 -17
v 9 10 -15
v 9 10 -16
v 9 11 -15
v 9 11 -16
v 10 10 -13
v 10 10 -15
v 10 11 -13
v 10 11 -15
v 11 10 -11
v 11 10 -13
v 11 11 -11
v 11 11 -13
v 12 10 -10
v 12 10 -11
v 12 11 -10
v 12 11 -11
v 0 10 7
v 0 11 7
v 1 10 7
v 1 11 7
v -1 10 -8
v -1 11 -8
v 0 10 -8
v 0 11 -8
v 1 10 -8
v 1 11 -8
v 2 10 -8
v 2 11 -8
v -2 10 -9
v -2 11 -9
v -1 10 -9
v -1 11 -9
v 2 10 -9
v 2 11 -9
v 3 10 -9
v 3 11 -9
v -11 10 -10
v -11 11 -10
v -8 10 -10
v -8 11 -10
v -5 10 -10
v -5 11 -10
v -2 10 -10
v -2 11 -10
v -2 12 -10
v 3 10 -10
v 3 11 -10
v 3 12 -10
v 6 10 -10
v 6 11 -10
v 10 10 -10
v 10 11 -10
v 12 10 -10
v 12 11 -10
v -8 10 -11
v -8 11 -11
v -5 10 -11
v -5 11 -11
v -3 11 -11
v -3 12 -11
v -2 11 -11
v -2 12 -11
v -1 12 -11
v -1 13 -11
v 2 12 -11
v 2 13 -11
v 3 11 -11
v 3 12 -11
v 4 11 -11
v 4 12 -11
v 6 10 -11
v 6 11 -11
v 9 10 -11
v 9 11 -11
v 10 10 -11
v 10 11 -11
v -4 11 -12
v -4 12 -12
v -3 11 -12
v -3 12 -12
v -2 12 -12
v -2 13 -12
v -1 12 -12
v -1 13 -12
v -1 15 -12
v 2 12 -12
v 2 13 -12
v 2 15 -12
v 3 12 -12
v 3 13 -12
v 4 11 -12
v 4 12 -12
v 5 11 -12
v 5 12 -12
v -5 6 -18
v -5 10 -18
v -5 11 -18
v -5 12 -18
v -4 6 -18
v -4 10 -18
v -4 11 -18
v -4 12 -18
v -4 13 -18
v -3 12 -18
v -3 13 -18
v -2 10 -21
v -2 11 -21
v -1 10 -21
v -1 11 -21
v 2 10 -21
v 2 11 -21
v 3 10 -21
v 3 11 -21
v -11 10 -11
v -11 11 -11
v -10 10 -11
v -10 11 -11
v 11 10 -11
v 11 11 -11
v 12 10 -11
v 12 11 -11
v -10 10 -13
v -10 11 -13
v -9 10 -13
v -9 11 -13
v 10 10 -13
v 10 11 -13
v 11 10 -13
v 11 11 -13
v -9 10 -15
v -9 11 -15
v -8 10 -15
v -8 11 -15
v -2 12 -15
v -2 13 -15
v -1 12 -15
v -1 13 -15
v -1 15 -15
v 2 12 -15
v 2 13 -15
v 2 15 -15
v 3 12 -15
v 3 13 -15
v 9 10 -15
v 9 11 -15
v 10 10 -15
v 10 11 -15
v -8 10 -16
v -8 11 -16
v -7 10 -16
v -7 11 -16
v -1 12 -16
v -1 13 -16
v 2 12 -16
v 2 13 -16
v 8 10 -16
v 8 11 -16
v 9 10 -16
v 9 11 -16
v -7 10 -17
v -7 11 -17
v -5 10 -17
v -5 11 -17
v -2 11 -17
v -2 12 -17
v 3 11 -17
v 3 12 -17
v 6 10 -17
v 6 11 -17
v 8 10 -17
v 8 11 -17
v -4 11 -18
v -4 12 -18
v -3 11 -18
v -3 12 -18
v -1 10 -18
v -1 11 -18
v 2 10 -18
v 2 11 -18
v 3 11 -18
v 3 12 -18
v 4 10 -18
v 4 11 -18
v 4 12 -18
v 5 11 -18
v 5 12 -18
v 6 10 -18
v 6 11 -18
v -5 6 -19
v -5 11 -19
v -5 12 -19
v -4 6 -19
v -4 10 -19
v -4 11 -19
v -4 12 -19
v -4 13 -19
v -3 10 -19
v -3 11 -19
v -3 12 -19
v -3 13 -19
v -2 10 -19
v -2 11 -19
v -2 12 -19
v -1 10 -19
v -1 11 -19
v 2 10 -19
v 2 11 -19
v 3 10 -19
v 3 11 -19
v -3 10 -21
v -3 11 -21
v -2 10 -21
v -2 11 -21
v 3 10 -21
v 3 11 -21
v 4 10 -21
v 4 11 -21
v -2 10 -22
v -2 11 -22
v -1 10 -22
v -1 11 -22
v 2 10 -22
v 2 11 -22
v 3 10 -22
v 3 11 -22
v -5 6 -18
v -4 6 -18
v -5 6 -19
v -4 6 -19
v 0 10 7
v 1 10 7
v -1 10 -8
v 0 10 -8
v 1 10 -8
v 2 10 -8
v -2 10 -9
v -1 10 -9
v 2 10 -9
v 3 10 -9
v -11 10 -10
v -8 10 -10
v -5 10 -10
v -2 10 -10
v 3 10 -10
v 6 10 -10
v 10 10 -10
v 12 10 -10
v -11 10 -11
v -10 10 -11
v -8 10 -11
v -5 10 -11
v -3 10 -11
v -2 10 -11
v 3 10 -11
v 4 10 -11
v 6 10 -11
v 9 10 -11
v 10 10 -11
v 11 10 -11
v 12 10 -11
v -4 10 -12
v -3 10 -12
v 4 10 -12
v 5 10 -12
v -10 10 -13
v -9 10 -13
v 10 10 -13
v 11 10 -13
v -8 10 -14
v -7 10 -14
v 8 10 -14
v 9 10 -14
v -9 10 -15
v -8 10 -15
v 9 10 -15
v 10 10 -15
v -8 10 -16
v -7 10 -16
v -5 10 -16
v 6 10 -16
v 8 10 -16
v 9 10 -16
v -7 10 -17
v -5 10 -17
v -4 10 -17
v -3 10 -17
v 4 10 -17
v 5 10 -17
v 6 10 -17
v 8 10 -17
v -5 10 -18
v -4 10 -18
v -3 10 -18
v -1 10 -18
v 2 10 -18
v 4 10 -18
v 6 10 -18
v -4 10 -19
v -3 10 -19
v -2 10 -19
v -1 10 -19
v 2 10 -19
v 3 10 -19
v -3 10 -21
v -2 10 -21
v -1 10 -21
v 2 10 -21
v 3 10 -21
v 4 10 -21
v -2 10 -22
v -1 10 -22
v 2 10 -22
v 3 10 -22
v -4 12 -18
v -3 12 -18
v -4 12 -19
v -3 12 -19
v 0 11 7
v 1 11 7
v -1 11 -8
v 0 11 -8
v 1 11 -8
v 2 11 -8
v -2 11 -9
v -1 11 -9
v 2 11 -9
v 3 11 -9
v -11 11 -10
v -8 11 -10
v -5 11 -10
v -2 11 -10
v 3 11 -10
v 6 11 -10
v 10 11 -10
v 12 11 -10
v -11 11 -11
v -10 11 -11
v -8 11 -11
v -5 11 -11
v -3 11 -11
v -2 11 -11
v 3 11 -11
v 4 11 -11
v 6 11 -11
v 9 11 -11
v 10 11 -11
v 11 11 -11
v 12 11 -11
v -4 11 -12
v -3 11 -12
v 4 11 -12
v 5 11 -12
v -10 11 -13
v -9 11 -13
v 10 11 -13
v 11 11 -13
v -8 11 -14
v -7 11 -14
v 8 11 -14
v 9 11 -14
v -9 11 -15
v -8 11 -15
v 9 11 -15
v 10 11 -15
v -8 11 -16
v -7 11 -16
v -5 11 -16
v 6 11 -16
v 8 11 -16
v 9 11 -16
v -7 11 -17
v -5 11 -17
v -4 11 -17
v -2 11 -17
v 3 11 -17
v 5 11 -17
v 6 11 -17
v 8 11 -17
v -5 11 -18
v -4 11 -18
v -3 11 -18
v -2 11 -18
v -1 11 -18
v 2 11 -18
v 3 11 -18
v 4 11 -18
v 5 11 -18
v 6 11 -18
v -4 11 -19
v -3 11 -19
v -2 11 -19
v -1 11 -19
v 2 11 -19
v 3 11 -19
v -3 11 -21
v -2 11 -21
v -1 11 -21
v 2 11 -21
v 3 11 -21
v 4 11 -21
v -2 11 -22
v -1 11 -22
v 2 11 -22
v 3 11 -22
v -2 12 -10
v 3 12 -10
v -3 12 -11
v -2 12 -11
v -1 12 -11
v 2 12 -11
v 3 12 -11
v 4 12 -11
v -4 12 -12
v -3 12 -12
v -2 12 -12
v -1 12 -12
v 2 12 -12
v 3 12 -12
v 4 12 -12
v 5 12 -12
v -3 12 -13
v -2 12 -13
v 3 12 -13
v 4 12 -13
v -3 12 -15
v -2 12 -15
v -1 12 -15
v 2 12 -15
v 3 12 -15
v 4 12 -15
v -2 12 -16
v -1 12 -16
v 2 12 -16
v 3 12 -16
v -4 12 -17
v -3 12 -17
v -2 12 -17
v 3 12 -17
v 4 12 -17
v 5 12 -17
v -5 12 -18
v -4 12 -18
v -3 12 -18
v -2 12 -18
v 3 12 -18
v 4 12 -18
v 5 12 -18
v -5 12 -19
v -4 12 -19
v -3 12 -19
v -2 12 -19
v -1 13 -11
v 2 13 -11
v -2 13 -12
v -1 13 -12
v 2 13 -12
v 3 13 -12
v -2 13 -15
v -1 13 -15
v 2 13 -15
v 3 13 -15
v -1 13 -16
v 2 13 -16
v -4 13 -18
v -3 13 -18
v -4 13 -19
v -3 13 -19
v -1 15 -12
v 2 15 -12
v -1 15 -15
v 2 15 -15

# faces
f 3/3/1 2/3/1 1/3/1
f 4/3/1 2/3/1 3/3/1
f 7/3/1 6/3/1 5/3/1
f 8/3/1 6/3/1 7/3/1
f 11/3/1 10/3/1 9/3/1
f 12/3/1 10/3/1 11/3/1
f 15/3/1 14/3/1 13/3/1
f 16/3/1 14/3/1 15/3/1
f 19/3/1 18/3/1 17/3/1
f 20/3/1 18/3/1 19/3/1
f 26/10/1 22/10/1 21/10/1
f 27/2/1 24/2/1 23/2/1
f 28/2/1 24/2/1 27/2/1
f 29/3/1 26/3/1 25/3/1
f 30/10/1 22/10/1 26/10/1
f 30/3/1 26/3/1 29/3/1
f 31/10/1 22/10/1 30/10/1
f 32/11/1 31/11/1 30/11/1
f 33/11/1 31/11/1 32/11/1
f 37/5/1 35/5/1 34/5/1
f 38/9/1 36/9/1 35/9/1
f 38/5/1 35/5/1 37/5/1
f 39/9/1 36/9/1 38/9/1
f 41/11/1 40/11/1 39/11/1
f 42/11/1 40/11/1 41/11/1
f 48/2/1 44/2/1 43/2/1
f 49/2/1 44/2/1 48/2/1
f 50/5/1 46/5/1 45/5/1
f 51/5/1 46/5/1 50/5/1
f 52/11/1 48/11/1 47/11/1
f 53/11/1 48/11/1 52/11/1
f 58/2/1 55/2/1 54/2/1
f 59/2/1 55/2/1 58/2/1
f 61/2/1 57/2/1 56/2/1
f 62/2/1 57/2/1 61/2/1
f 63/5/1 60/5/1 59/5/1
f 64/5/1 60/5/1 63/5/1
f 68/6/1 67/6/1 66/6/1
f 68/6/1 66/6/1 65/6/1
f 69/6/1 67/6/1 68/6/1
f 72/2/1 71/2/1 70/2/1
f 73/2/1 71/2/1 72/2/1
f 78/6/1 75/6/1 74/6/1
f 79/6/1 75/6/1 78/6/1
f 80/6/1 77/6/1 76/6/1
f 81/6/1 77/6/1 80/6/1
f 82/8/1 80/8/1 79/8/1
f 83/8/1 80/8/1 82/8/1
f 86/1/1 85/1/1 84/1/1
f 87/1/1 85/1/1 86/1/1
f 92/2/1 89/2/1 88/2/1
f 93/2/1 89/2/1 92/2/1
f 94/2/1 91/2/1 90/2/1
f 95/2/1 91/2/1 94/2/1
f 100/2/1 97/2/1 96/2/1
f 101/2/1 97/2/1 100/2/1
f 102/5/1 99/5/1 98/5/1
f 103/5/1 99/5/1 102/5/1
f 106/3/1 105/3/1 104/3/1
f 107/3/1 105/3/1 106/3/1
f 108/3/2 109/3/2 110/3/2
f 110/3/2 109/3/2 111/3/2
f 112/10/2 113/10/2 114/10/2
f 114/10/2 113/10/2 115/10/2
f 116/11/2 117/11/2 118/11/2
f 118/11/2 117/11/2 119/11/2
f 120/11/2 121/11/2 122/11/2
f 122/11/2 121/11/2 123/11/2
f 124/2/2 125/2/2 128/2/2
f 128/2/2 125/2/2 129/2/2
f 126/5/2 127/5/2 130/5/2
f 127/11/2 128/11/2 131/11/2
f 130/5/2 127/5/2 131/5/2
f 131/11/2 128/11/2 132/11/2
f 133/2/2 134/2/2 137/2/2
f 137/2/2 134/2/2 138/2/2
f 135/2/2 136/2/2 139/2/2
f 139/2/2 136/2/2 140/2/2
f 141/1/2 142/1/2 143/1/2
f 143/1/2 142/1/2 144/1/2
f 145/2/2 146/2/2 147/2/2
f 147/2/2 146/2/2 148/2/2
f 149/6/2 150/6/2 153/6/2
f 153/6/2 150/6/2 154/6/2
f 151/6/2 152/6/2 155/6/2
f 155/6/2 152/6/2 156/6/2
f 154/8/2 155/8/2 157/8/2
f 157/8/2 155/8/2 158/8/2
f 159/2/2 160/2/2 163/2/2
f 163/2/2 160/2/2 164/2/2
f 161/2/2 162/2/2 166/2/2
f 166/2/2 162/2/2 167/2/2
f 164/5/2 165/5/2 168/5/2
f 168/5/2 165/5/2 169/5/2
f 171/6/2 172/6/2 173/6/2
f 170/6/2 171/6/2 173/6/2
f 173/6/2 172/6/2 174/6/2
f 175/2/2 176/2/2 179/2/2
f 179/2/2 176/2/2 180/2/2
f 177/5/2 178/5/2 181/5/2
f 181/5/2 178/5/2 182/5/2
f 183/5/2 184/5/2 186/5/2
f 184/9/2 185/9/2 187/9/2
f 186/5/2 184/5/2 187/5/2
f 187/9/2 185/9/2 188/9/2
f 189/2/2 190/2/2 193/2/2
f 193/2/2 190/2/2 194/2/2
f 191/3/2 192/3/2 195/3/2
f 195/3/2 192/3/2 196/3/2
f 197/3/2 198/3/2 199/3/2
f 199/3/2 198/3/2 200/3/2
f 201/3/2 202/3/2 203/3/2
f 203/3/2 202/3/2 204/3/2
f 205/3/2 206/3/2 207/3/2
f 207/3/2 206/3/2 208/3/2
f 209/3/2 210/3/2 211/3/2
f 211/3/2 210/3/2 212/3/2
f 213/3/2 214/3/2 215/3/2
f 215/3/2 214/3/2 216/3/2
f 219/1/3 218/1/3 217/1/3
f 220/1/3 218/1/3 219/1/3
f 223/2/3 222/2/3 221/2/3
f 224/2/3 222/2/3 223/2/3
f 227/2/3 226/2/3 225/2/3
f 228/2/3 226/2/3 227/2/3
f 231/2/3 230/2/3 229/2/3
f 232/2/3 230/2/3 231/2/3
f 235/2/3 234/2/3 233/2/3
f 236/2/3 234/2/3 235/2/3
f 239/3/3 238/3/3 237/3/3
f 240/3/3 238/3/3 239/3/3
f 243/2/3 242/2/3 241/2/3
f 244/2/3 242/2/3 243/2/3
f 247/5/3 245/5/3 244/5/3
f 248/5/3 245/5/3 247/5/3
f 249/2/3 247/2/3 246/2/3
f 250/2/3 247/2/3 249/2/3
f 253/3/3 252/3/3 251/3/3
f 254/3/3 252/3/3 253/3/3
f 257/2/3 256/2/3 255/2/3
f 258/2/3 256/2/3 257/2/3
f 261/5/3 260/5/3 259/5/3
f 262/5/3 260/5/3 261/5/3
f 265/6/3 264/6/3 263/6/3
f 266/6/3 264/6/3 265/6/3
f 269/5/3 268/5/3 267/5/3
f 270/5/3 268/5/3 269/5/3
f 273/2/3 272/2/3 271/2/3
f 274/2/3 272/2/3 273/2/3
f 275/3/3 274/3/3 273/3/3
f 276/3/3 274/3/3 275/3/3
f 279/5/3 278/5/3 277/5/3
f 280/5/3 278/5/3 279/5/3
f 283/6/3 282/6/3 281/6/3
f 284/6/3 282/6/3 283/6/3
f 287/8/3 285/8/3 284/8/3
f 288/8/3 285/8/3 287/8/3
f 289/6/3 287/6/3 286/6/3
f 290/6/3 287/6/3 289/6/3
f 293/5/3 292/5/3 291/5/3
f 294/5/3 292/5/3 293/5/3
f 299/10/3 296/10/3 295/10/3
f 300/10/3 296/10/3 299/10/3
f 301/11/3 298/11/3 297/11/3
f 302/11/3 298/11/3 301/11/3
f 304/11/3 303/11/3 302/11/3
f 305/11/3 303/11/3 304/11/3
f 308/2/3 307/2/3 306/2/3
f 309/2/3 307/2/3 308/2/3
f 312/2/3 311/2/3 310/2/3
f 313/2/3 311/2/3 312/2/3
f 314/3/4 315/3/4 316/3/4
f 316/3/4 315/3/4 317/3/4
f 318/3/4 319/3/4 320/3/4
f 320/3/4 319/3/4 321/3/4
f 322/3/4 323/3/4 324/3/4
f 324/3/4 323/3/4 325/3/4
f 326/3/4 327/3/4 328/3/4
f 328/3/4 327/3/4 329/3/4
f 330/3/4 331/3/4 332/3/4
f 332/3/4 331/3/4 333/3/4
f 334/6/4 335/6/4 336/6/4
f 336/6/4 335/6/4 337/6/4
f 337/8/4 338/8/4 340/8/4
f 340/8/4 338/8/4 341/8/4
f 339/6/4 340/6/4 342/6/4
f 342/6/4 340/6/4 343/6/4
f 344/3/4 345/3/4 346/3/4
f 346/3/4 345/3/4 347/3/4
f 348/3/4 349/3/4 350/3/4
f 350/3/4 349/3/4 351/3/4
f 352/6/4 353/6/4 354/6/4
f 354/6/4 353/6/4 355/6/4
f 356/3/4 357/3/4 358/3/4
f 358/3/4 357/3/4 359/3/4
f 360/3/4 361/3/4 362/3/4
f 362/3/4 361/3/4 363/3/4
f 364/5/4 365/5/4 366/5/4
f 366/5/4 365/5/4 367/5/4
f 368/3/4 369/3/4 370/3/4
f 370/3/4 369/3/4 371/3/4
f 372/9/4 373/9/4 374/9/4
f 374/9/4 373/9/4 375/9/4
f 376/2/4 377/2/4 378/2/4
f 378/2/4 377/2/4 379/2/4
f 380/5/4 381/5/4 383/5/4
f 383/5/4 381/5/4 384/5/4
f 382/3/4 383/3/4 385/3/4
f 383/9/4 384/9/4 385/9/4
f 385/9/4 384/9/4 386/9/4
f 382/3/4 385/3/4 387/3/4
f 387/3/4 385/3/4 388/3/4
f 389/10/4 390/10/4 392/10/4
f 392/10/4 390/10/4 393/10/4
f 390/11/4 391/11/4 394/11/4
f 393/10/4 390/10/4 394/10/4
f 394/11/4 391/11/4 395/11/4
f 393/11/4 394/11/4 397/11/4
f 397/11/4 394/11/4 398/11/4
f 395/11/4 396/11/4 399/11/4
f 399/11/4 396/11/4 400/11/4
f 398/11/4 399/11/4 402/11/4
f 402/11/4 399/11/4 403/11/4
f 401/2/4 402/2/4 404/2/4
f 404/2/4 402/2/4 405/2/4
f 406/2/4 407/2/4 408/2/4
f 408/2/4 407/2/4 409/2/4
f 410/2/4 411/2/4 412/2/4
f 412/2/4 411/2/4 413/2/4
f 414/2/4 415/2/4 416/2/4
f 416/2/4 415/2/4 417/2/4
f 418/2/4 419/2/4 420/2/4
f 420/2/4 419/2/4 421/2/4
f 422/2/4 423/2/4 424/2/4
f 424/2/4 423/2/4 425/2/4
f 428/10/5 427/10/5 426/10/5
f 429/10/5 427/10/5 428/10/5
f 433/1/5 431/1/5 430/1/5
f 434/1/5 431/1/5 433/1/5
f 437/2/5 433/2/5 432/2/5
f 437/2/5 435/2/5 434/2/5
f 437/2/5 434/2/5 433/2/5
f 438/2/5 435/2/5 437/2/5
f 443/2/5 437/2/5 436/2/5
f 443/2/5 438/2/5 437/2/5
f 443/2/5 439/2/5 438/2/5
f 444/2/5 439/2/5 443/2/5
f 448/3/5 441/3/5 440/3/5
f 449/3/5 441/3/5 448/3/5
f 450/3/5 441/3/5 449/3/5
f 451/2/5 443/2/5 442/2/5
f 452/2/5 443/2/5 451/2/5
f 453/4/5 444/4/5 443/4/5
f 453/2/5 443/2/5 452/2/5
f 454/2/5 445/2/5 444/2/5
f 454/4/5 444/4/5 453/4/5
f 455/2/5 445/2/5 454/2/5
f 456/2/5 445/2/5 455/2/5
f 458/3/5 447/3/5 446/3/5
f 459/3/5 447/3/5 458/3/5
f 460/3/5 447/3/5 459/3/5
f 461/2/5 452/2/5 451/2/5
f 461/2/5 451/2/5 450/2/5
f 462/4/5 453/4/5 452/4/5
f 462/2/5 452/2/5 461/2/5
f 462/4/5 454/4/5 453/4/5
f 462/4/5 455/4/5 454/4/5
f 463/2/5 457/2/5 456/2/5
f 463/4/5 455/4/5 462/4/5
f 463/2/5 456/2/5 455/2/5
f 464/2/5 457/2/5 463/2/5
f 465/3/5 450/3/5 449/3/5
f 466/3/5 450/3/5 465/3/5
f 467/3/5 459/3/5 458/3/5
f 467/3/5 458/3/5 457/3/5
f 468/3/5 459/3/5 467/3/5
f 469/2/5 461/2/5 450/2/5
f 469/3/5 450/3/5 466/3/5
f 470/2/5 461/2/5 469/2/5
f 471/2/5 457/2/5 464/2/5
f 472/3/5 467/3/5 457/3/5
f 472/2/5 457/2/5 471/2/5
f 473/3/5 469/3/5 466/3/5
f 473/3/5 470/3/5 469/3/5
f 474/3/5 470/3/5 473/3/5
f 475/3/5 467/3/5 472/3/5
f 475/3/5 472/3/5 471/3/5
f 476/3/5 467/3/5 475/3/5
f 477/3/5 470/3/5 474/3/5
f 478/2/5 461/2/5 470/2/5
f 478/3/5 470/3/5 477/3/5
f 479/2/5 461/2/5 478/2/5
f 480/2/5 471/2/5 464/2/5
f 481/3/5 475/3/5 471/3/5
f 481/2/5 471/2/5 480/2/5
f 482/3/5 475/3/5 481/3/5
f 483/3/5 479/3/5 478/3/5
f 484/2/5 461/2/5 479/2/5
f 484/3/5 479/3/5 483/3/5
f 485/4/5 462/4/5 461/4/5
f 485/2/5 461/2/5 484/2/5
f 485/4/5 463/4/5 462/4/5
f 485/4/5 464/4/5 463/4/5
f 486/4/5 464/4/5 485/4/5
f 487/4/5 464/4/5 486/4/5
f 488/2/5 480/2/5 464/2/5
f 488/4/5 464/4/5 487/4/5
f 489/3/5 481/3/5 480/3/5
f 489/2/5 480/2/5 488/2/5
f 490/3/5 481/3/5 489/3/5
f 491/3/5 485/3/5 484/3/5
f 491/3/5 486/3/5 485/3/5
f 492/3/5 486/3/5 491/3/5
f 493/2/5 487/2/5 486/2/5
f 493/3/5 486/3/5 492/3/5
f 494/2/5 487/2/5 493/2/5
f 495/2/5 487/2/5 494/2/5
f 496/3/5 488/3/5 487/3/5
f 496/2/5 487/2/5 495/2/5
f 496/3/5 489/3/5 488/3/5
f 497/3/5 489/3/5 496/3/5
f 498/11/5 493/11/5 492/11/5
f 499/2/5 494/2/5 493/2/5
f 499/11/5 493/11/5 498/11/5
f 500/2/5 494/2/5 499/2/5
f 501/2/5 494/2/5 500/2/5
f 502/2/5 496/2/5 495/2/5
f 503/2/5 496/2/5 502/2/5
f 504/2/5 500/2/5 499/2/5
f 505/2/5 500/2/5 504/2/5
f 508/2/5 496/2/5 503/2/5
f 509/2/5 496/2/5 508/2/5
f 510/2/5 506/2/5 505/2/5
f 511/2/5 506/2/5 510/2/5
f 512/2/5 508/2/5 507/2/5
f 513/2/5 508/2/5 512/2/5
f 516/11/5 515/11/5 514/11/5
f 517/11/5 515/11/5 516/11/5
f 518/1/6 519/1/6 521/1/6
f 521/1/6 519/1/6 522/1/6
f 520/2/6 521/2/6 525/2/6
f 522/2/6 523/2/6 525/2/6
f 521/2/6 522/2/6 525/2/6
f 525/2/6 523/2/6 526/2/6
f 524/2/6 525/2/6 531/2/6
f 525/2/6 526/2/6 531/2/6
f 526/2/6 527/2/6 531/2/6
f 531/2/6 527/2/6 532/2/6
f 528/3/6 529/3/6 536/3/6
f 536/3/6 529/3/6 537/3/6
f 537/3/6 529/3/6 538/3/6
f 530/2/6 531/2/6 539/2/6
f 539/2/6 531/2/6 540/2/6
f 540/2/6 531/2/6 541/2/6
f 532/2/6 533/2/6 542/2/6
f 542/2/6 533/2/6 543/2/6
f 543/2/6 533/2/6 544/2/6
f 534/3/6 535/3/6 546/3/6
f 546/3/6 535/3/6 547/3/6
f 547/3/6 535/3/6 548/3/6
f 538/2/6 539/2/6 549/2/6
f 539/2/6 540/2/6 549/2/6
f 549/2/6 540/2/6 550/2/6
f 544/2/6 545/2/6 551/2/6
f 543/2/6 544/2/6 551/2/6
f 551/2/6 545/2/6 552/2/6
f 537/3/6 538/3/6 553/3/6
f 553/3/6 538/3/6 554/3/6
f 546/3/6 547/3/6 555/3/6
f 545/3/6 546/3/6 555/3/6
f 555/3/6 547/3/6 556/3/6
f 554/3/6 538/3/6 557/3/6
f 538/2/6 549/2/6 557/2/6
f 557/2/6 549/2/6 558/2/6
f 552/2/6 545/2/6 559/2/6
f 545/3/6 555/3/6 560/3/6
f 559/2/6 545/2/6 560/2/6
f 554/3/6 557/3/6 561/3/6
f 557/3/6 558/3/6 561/3/6
f 561/3/6 558/3/6 562/3/6
f 560/3/6 555/3/6 563/3/6
f 559/3/6 560/3/6 563/3/6
f 563/3/6 555/3/6 564/3/6
f 562/3/6 558/3/6 565/3/6
f 558/2/6 549/2/6 566/2/6
f 565/3/6 558/3/6 566/3/6
f 566/2/6 549/2/6 567/2/6
f 552/2/6 559/2/6 568/2/6
f 559/3/6 563/3/6 569/3/6
f 568/2/6 559/2/6 569/2/6
f 569/3/6 563/3/6 570/3/6
f 566/3/6 567/3/6 571/3/6
f 567/2/6 549/2/6 572/2/6
f 571/3/6 567/3/6 572/3/6
f 572/2/6 549/2/6 573/2/6
f 552/2/6 568/2/6 576/2/6
f 568/3/6 569/3/6 577/3/6
f 576/2/6 568/2/6 577/2/6
f 577/3/6 569/3/6 578/3/6
f 572/3/6 573/3/6 579/3/6
f 579/3/6 573/3/6 580/3/6
f 574/2/6 575/2/6 582/2/6
f 582/2/6 575/2/6 583/2/6
f 583/2/6 575/2/6 584/2/6
f 584/2/6 575/2/6 585/2/6
f 576/3/6 577/3/6 587/3/6
f 587/3/6 577/3/6 588/3/6
f 580/11/6 581/11/6 589/11/6
f 589/11/6 581/11/6 590/11/6
f 582/2/6 583/2/6 591/2/6
f 591/2/6 583/2/6 592/2/6
f 585/2/6 586/2/6 593/2/6
f 584/2/6 585/2/6 593/2/6
f 593/2/6 586/2/6 594/2/6
f 590/2/6 591/2/6 595/2/6
f 595/2/6 591/2/6 596/2/6
f 594/2/6 586/2/6 599/2/6
f 599/2/6 586/2/6 600/2/6
f 596/2/6 597/2/6 601/2/6
f 601/2/6 597/2/6 602/2/6
f 598/2/6 599/2/6 603/2/6
f 603/2/6 599/2/6 604/2/6
f 605/5/6 606/5/6 608/5/6
f 608/5/6 606/5/6 609/5/6
f 609/5/6 606/5/6 610/5/6
f 610/5/6 606/5/6 611/5/6
f 607/5/6 608/5/6 614/5/6
f 608/5/6 609/5/6 614/5/6
f 614/5/6 609/5/6 615/5/6
f 615/5/6 609/5/6 616/5/6
f 610/5/6 611/5/6 617/5/6
f 611/5/6 612/5/6 617/5/6
f 617/5/6 612/5/6 618/5/6
f 618/5/6 612/5/6 619/5/6
f 614/5/6 615/5/6 621/5/6
f 613/5/6 614/5/6 621/5/6
f 621/5/6 615/5/6 622/5/6
f 619/5/6 620/5/6 623/5/6
f 618/5/6 619/5/6 623/5/6
f 623/5/6 620/5/6 624/5/6
f 621/7/6 622/7/6 625/7/6
f 613/5/6 621/5/6 625/5/6
f 625/7/6 622/7/6 626/7/6
f 623/7/6 624/7/6 629/7/6
f 624/5/6 620/5/6 630/5/6
f 629/7/6 624/7/6 630/7/6
f 626/7/6 627/7/6 631/7/6
f 625/5/6 626/5/6 631/5/6
f 631/7/6 627/7/6 632/7/6
f 628/7/6 629/7/6 633/7/6
f 629/5/6 630/5/6 634/5/6
f 633/7/6 629/7/6 634/7/6
f 631/5/6 632/5/6 635/5/6
f 613/5/6 625/5/6 635/5/6
f 633/5/6 634/5/6 635/5/6
f 632/5/6 633/5/6 635/5/6
f 625/5/6 631/5/6 635/5/6
f 635/5/6 634/5/6 636/5/6
f 636/5/6 634/5/6 637/5/6
f 634/5/6 630/5/6 638/5/6
f 637/5/6 634/5/6 638/5/6
f 630/5/6 620/5/6 639/5/6
f 638/5/6 630/5/6 639/5/6
f 639/5/6 620/5/6 640/5/6
f 635/9/6 636/9/6 642/9/6
f 636/5/6 637/5/6 643/5/6
f 642/9/6 636/9/6 643/9/6
f 643/5/6 637/5/6 644/5/6
f 638/5/6 639/5/6 645/5/6
f 639/9/6 640/9/6 646/9/6
f 645/5/6 639/5/6 646/5/6
f 646/9/6 640/9/6 647/9/6
f 641/11/6 642/11/6 648/11/6
f 648/11/6 642/11/6 649/11/6
f 643/11/6 644/11/6 650/11/6
f 650/11/6 644/11/6 651/11/6
f 652/6/6 653/6/6 655/6/6
f 655/6/6 653/6/6 656/6/6
f 654/6/6 655/6/6 658/6/6
f 658/6/6 655/6/6 659/6/6
f 656/6/6 657/6/6 660/6/6
f 660/6/6 657/6/6 661/6/6
f 659/6/6 660/6/6 662/6/6
f 662/6/6 660/6/6 663/6/6
f 664/11/6 665/11/6 666/11/6
f 666/11/6 665/11/6 667/11/6
f 668/8/6 669/8/6 670/8/6
f 670/8/6 669/8/6 671/8/6
