# MagicaVoxel @ ephtracy

# material
mtllib deadfish.mtl
usemtl palette

# normals
vn -1 0 0
vn 1 0 0
vn 0 0 1
vn 0 0 -1
vn 0 -1 0
vn 0 1 0

# texcoords
vt 0.00195313 0.5
vt 0.00585938 0.5
vt 0.00976563 0.5
vt 0.0136719 0.5
vt 0.0175781 0.5

# verts
v -14 5 -0
v -14 5 -1
v -14 6 -0
v -14 6 -1
v -14 10 -0
v -14 10 -1
v -14 11 -0
v -14 11 -1
v -13 6 -0
v -13 6 -1
v -13 10 -0
v -13 10 -1
v -8 5 -0
v -8 5 -1
v -8 6 -0
v -8 6 -1
v -8 7 1
v -8 7 -0
v -8 7 -1
v -8 7 -2
v -8 8 1
v -8 8 -0
v -8 8 -1
v -8 8 -2
v -8 9 1
v -8 9 -0
v -8 9 -1
v -8 9 -2
v -8 10 -0
v -8 10 -1
v -8 11 -0
v -8 11 -1
v -7 6 1
v -7 6 -0
v -7 6 -1
v -7 6 -2
v -7 7 1
v -7 7 -0
v -7 7 -1
v -7 7 -2
v -7 9 1
v -7 9 -2
v -7 10 1
v -7 10 -0
v -7 10 -1
v -7 10 -2
v -6 4 -0
v -6 4 -1
v -6 5 -0
v -6 5 -1
v -6 11 -0
v -6 11 -1
v -6 12 -0
v -6 12 -1
v 1 10 -0
v 1 10 -1
v 1 11 -0
v 1 11 -1
v 2 11 -0
v 2 11 -1
v 2 12 -0
v 2 12 -1
v 3 5 -0
v 3 5 -1
v 3 6 -0
v 3 6 -1
v 5 4 -0
v 5 4 -1
v 5 5 -0
v 5 5 -1
v 6 10 -0
v 6 10 -1
v 6 11 -0
v 6 11 -1
v 7 11 -0
v 7 11 -1
v 7 12 -0
v 7 12 -1
v -12 5 -0
v -12 5 -1
v -12 6 -0
v -12 6 -1
v -12 10 -0
v -12 10 -1
v -12 11 -0
v -12 11 -1
v -11 6 -0
v -11 6 -1
v -11 7 -0
v -11 7 -1
v -11 9 -0
v -11 9 -1
v -11 10 -0
v -11 10 -1
v -4 10 -0
v -4 10 -1
v -4 12 -0
v -4 12 -1
v -3 4 -0
v -3 4 -1
v -3 6 -0
v -3 6 -1
v 4 10 -0
v 4 10 -1
v 4 12 -0
v 4 12 -1
v 8 4 -0
v 8 4 -1
v 8 6 -0
v 8 6 -1
v 9 10 -0
v 9 10 -1
v 9 12 -0
v 9 12 -1
v 11 6 1
v 11 6 -2
v 11 7 1
v 11 7 -0
v 11 7 -1
v 11 7 -2
v 12 7 1
v 12 7 -0
v 12 7 -1
v 12 7 -2
v 12 8 1
v 12 8 -0
v 12 8 -1
v 12 8 -2
v 13 8 1
v 13 8 -2
v 13 9 1
v 13 9 -2
v 13 10 1
v 13 10 -2
v -8 7 1
v -8 8 1
v -8 9 1
v -7 6 1
v -7 7 1
v -7 8 1
v -7 9 1
v -7 10 1
v -6 6 1
v -6 7 1
v -6 8 1
v -6 9 1
v -5 6 1
v -5 7 1
v -5 8 1
v -5 9 1
v -4 6 1
v -4 7 1
v -4 8 1
v -4 9 1
v -3 6 1
v -3 7 1
v -3 8 1
v -3 9 1
v -2 6 1
v -2 7 1
v -2 8 1
v -2 9 1
v -1 6 1
v -1 7 1
v -1 8 1
v -1 9 1
v 0 6 1
v 0 7 1
v 0 8 1
v 0 9 1
v 1 6 1
v 1 7 1
v 1 8 1
v 1 9 1
v 2 6 1
v 2 7 1
v 2 8 1
v 2 9 1
v 3 6 1
v 3 7 1
v 3 8 1
v 3 9 1
v 4 6 1
v 4 7 1
v 4 8 1
v 4 9 1
v 5 6 1
v 5 7 1
v 5 8 1
v 5 9 1
v 6 6 1
v 6 7 1
v 6 8 1
v 6 9 1
v 7 6 1
v 7 7 1
v 7 8 1
v 7 9 1
v 8 6 1
v 8 7 1
v 8 8 1
v 8 9 1
v 9 6 1
v 9 7 1
v 9 8 1
v 10 7 1
v 10 8 1
v 11 6 1
v 11 7 1
v 11 8 1
v 12 7 1
v 12 8 1
v 13 8 1
v 13 9 1
v 13 10 1
v -14 5 -0
v -14 6 -0
v -14 10 -0
v -14 11 -0
v -13 6 -0
v -13 10 -0
v -12 5 -0
v -12 6 -0
v -12 10 -0
v -12 11 -0
v -11 6 -0
v -11 7 -0
v -11 9 -0
v -11 10 -0
v -10 7 -0
v -10 8 -0
v -10 9 -0
v -9 7 -0
v -9 8 -0
v -9 9 -0
v -8 5 -0
v -8 6 -0
v -8 7 -0
v -8 8 -0
v -8 9 -0
v -8 10 -0
v -8 11 -0
v -7 6 -0
v -7 10 -0
v -6 4 -0
v -6 5 -0
v -6 6 -0
v -6 11 -0
v -6 12 -0
v -5 6 -0
v -4 6 -0
v -4 10 -0
v -4 12 -0
v -3 4 -0
v -3 6 -0
v 1 10 -0
v 1 11 -0
v 2 11 -0
v 2 12 -0
v 3 5 -0
v 3 6 -0
v 4 6 -0
v 4 10 -0
v 4 12 -0
v 5 4 -0
v 5 5 -0
v 5 6 -0
v 6 6 -0
v 6 10 -0
v 6 11 -0
v 7 6 -0
v 7 11 -0
v 7 12 -0
v 8 4 -0
v 8 6 -0
v 9 10 -0
v 9 12 -0
v -14 5 -1
v -14 6 -1
v -14 10 -1
v -14 11 -1
v -13 6 -1
v -13 10 -1
v -12 5 -1
v -12 6 -1
v -12 10 -1
v -12 11 -1
v -11 6 -1
v -11 7 -1
v -11 9 -1
v -11 10 -1
v -10 7 -1
v -10 8 -1
v -10 9 -1
v -9 7 -1
v -9 8 -1
v -9 9 -1
v -8 5 -1
v -8 6 -1
v -8 7 -1
v -8 8 -1
v -8 9 -1
v -8 10 -1
v -8 11 -1
v -7 6 -1
v -7 10 -1
v -6 4 -1
v -6 5 -1
v -6 6 -1
v -6 11 -1
v -6 12 -1
v -5 6 -1
v -4 6 -1
v -4 10 -1
v -4 12 -1
v -3 4 -1
v -3 6 -1
v 1 10 -1
v 1 11 -1
v 2 11 -1
v 2 12 -1
v 3 5 -1
v 3 6 -1
v 4 6 -1
v 4 10 -1
v 4 12 -1
v 5 4 -1
v 5 5 -1
v 5 6 -1
v 6 6 -1
v 6 10 -1
v 6 11 -1
v 7 6 -1
v 7 11 -1
v 7 12 -1
v 8 4 -1
v 8 6 -1
v 9 10 -1
v 9 12 -1
v -8 7 -2
v -8 8 -2
v -8 9 -2
v -7 6 -2
v -7 7 -2
v -7 8 -2
v -7 9 -2
v -7 10 -2
v -6 6 -2
v -6 7 -2
v -6 8 -2
v -6 9 -2
v -5 6 -2
v -5 7 -2
v -5 8 -2
v -5 9 -2
v -4 6 -2
v -4 7 -2
v -4 8 -2
v -4 9 -2
v -3 6 -2
v -3 7 -2
v -3 8 -2
v -3 9 -2
v -2 6 -2
v -2 7 -2
v -2 8 -2
v -2 9 -2
v -1 6 -2
v -1 7 -2
v -1 8 -2
v -1 9 -2
v 0 6 -2
v 0 7 -2
v 0 8 -2
v 0 9 -2
v 1 6 -2
v 1 7 -2
v 1 8 -2
v 1 9 -2
v 2 6 -2
v 2 7 -2
v 2 8 -2
v 2 9 -2
v 3 6 -2
v 3 7 -2
v 3 8 -2
v 3 9 -2
v 4 6 -2
v 4 7 -2
v 4 8 -2
v 4 9 -2
v 5 6 -2
v 5 7 -2
v 5 8 -2
v 5 9 -2
v 6 6 -2
v 6 7 -2
v 6 8 -2
v 6 9 -2
v 7 6 -2
v 7 7 -2
v 7 8 -2
v 7 9 -2
v 8 6 -2
v 8 7 -2
v 8 8 -2
v 8 9 -2
v 9 6 -2
v 9 7 -2
v 9 8 -2
v 10 7 -2
v 10 8 -2
v 11 6 -2
v 11 7 -2
v 11 8 -2
v 12 7 -2
v 12 8 -2
v 13 8 -2
v 13 9 -2
v 13 10 -2
v -6 4 -0
v -3 4 -0
v 5 4 -0
v 8 4 -0
v -6 4 -1
v -3 4 -1
v 5 4 -1
v 8 4 -1
v -14 5 -0
v -12 5 -0
v -8 5 -0
v -6 5 -0
v 3 5 -0
v 5 5 -0
v -14 5 -1
v -12 5 -1
v -8 5 -1
v -6 5 -1
v 3 5 -1
v 5 5 -1
v -7 6 1
v -6 6 1
v -5 6 1
v -4 6 1
v -3 6 1
v -2 6 1
v -1 6 1
v 0 6 1
v 1 6 1
v 2 6 1
v 3 6 1
v 4 6 1
v 5 6 1
v 6 6 1
v 7 6 1
v 8 6 1
v 9 6 1
v 11 6 1
v -12 6 -0
v -11 6 -0
v -7 6 -0
v -6 6 -0
v -5 6 -0
v -4 6 -0
v -3 6 -0
v -2 6 -0
v -1 6 -0
v 0 6 -0
v 1 6 -0
v 2 6 -0
v 3 6 -0
v 4 6 -0
v 5 6 -0
v 6 6 -0
v 7 6 -0
v 8 6 -0
v 9 6 -0
v 10 6 -0
v -12 6 -1
v -11 6 -1
v -7 6 -1
v -6 6 -1
v -5 6 -1
v -4 6 -1
v -3 6 -1
v -2 6 -1
v -1 6 -1
v 0 6 -1
v 1 6 -1
v 2 6 -1
v 3 6 -1
v 4 6 -1
v 5 6 -1
v 6 6 -1
v 7 6 -1
v 8 6 -1
v 9 6 -1
v 10 6 -1
v -7 6 -2
v -6 6 -2
v -5 6 -2
v -4 6 -2
v -3 6 -2
v -2 6 -2
v -1 6 -2
v 0 6 -2
v 1 6 -2
v 2 6 -2
v 3 6 -2
v 4 6 -2
v 5 6 -2
v 6 6 -2
v 7 6 -2
v 8 6 -2
v 9 6 -2
v 11 6 -2
v -8 7 1
v -7 7 1
v 11 7 1
v 12 7 1
v -11 7 -0
v -10 7 -0
v -9 7 -0
v -8 7 -0
v -7 7 -0
v 11 7 -0
v 12 7 -0
v -11 7 -1
v -10 7 -1
v -9 7 -1
v -8 7 -1
v -7 7 -1
v 11 7 -1
v 12 7 -1
v -8 7 -2
v -7 7 -2
v 11 7 -2
v 12 7 -2
v 12 8 1
v 13 8 1
v 12 8 -0
v 12 8 -1
v 12 8 -2
v 13 8 -2
v -14 10 -0
v -13 10 -0
v -8 10 -0
v -7 10 -0
v -14 10 -1
v -13 10 -1
v -8 10 -1
v -7 10 -1
v -14 6 -0
v -13 6 -0
v -8 6 -0
v -7 6 -0
v -14 6 -1
v -13 6 -1
v -8 6 -1
v -7 6 -1
v -8 9 1
v -7 9 1
v -11 9 -0
v -10 9 -0
v -9 9 -0
v -8 9 -0
v -11 9 -1
v -10 9 -1
v -9 9 -1
v -8 9 -1
v -8 9 -2
v -7 9 -2
v -7 10 1
v 13 10 1
v -12 10 -0
v -11 10 -0
v -7 10 -0
v -4 10 -0
v 1 10 -0
v 4 10 -0
v 6 10 -0
v 9 10 -0
v -12 10 -1
v -11 10 -1
v -7 10 -1
v -4 10 -1
v 1 10 -1
v 4 10 -1
v 6 10 -1
v 9 10 -1
v -7 10 -2
v 13 10 -2
v -14 11 -0
v -12 11 -0
v -8 11 -0
v -6 11 -0
v 1 11 -0
v 2 11 -0
v 6 11 -0
v 7 11 -0
v -14 11 -1
v -12 11 -1
v -8 11 -1
v -6 11 -1
v 1 11 -1
v 2 11 -1
v 6 11 -1
v 7 11 -1
v -6 12 -0
v -4 12 -0
v 2 12 -0
v 4 12 -0
v 7 12 -0
v 9 12 -0
v -6 12 -1
v -4 12 -1
v 2 12 -1
v 4 12 -1
v 7 12 -1
v 9 12 -1

# faces
f 3/5/1 2/5/1 1/5/1
f 4/5/1 2/5/1 3/5/1
f 7/5/1 6/5/1 5/5/1
f 8/5/1 6/5/1 7/5/1
f 11/5/1 10/5/1 9/5/1
f 12/5/1 10/5/1 11/5/1
f 15/5/1 14/5/1 13/5/1
f 16/5/1 14/5/1 15/5/1
f 21/1/1 18/1/1 17/1/1
f 22/1/1 18/1/1 21/1/1
f 23/1/1 20/1/1 19/1/1
f 24/1/1 20/1/1 23/1/1
f 25/2/1 22/2/1 21/2/1
f 26/2/1 22/2/1 25/2/1
f 27/2/1 24/2/1 23/2/1
f 28/2/1 24/2/1 27/2/1
f 31/5/1 30/5/1 29/5/1
f 32/5/1 30/5/1 31/5/1
f 37/1/1 34/1/1 33/1/1
f 38/2/1 35/2/1 34/2/1
f 38/1/1 34/1/1 37/1/1
f 39/1/1 36/1/1 35/1/1
f 39/2/1 35/2/1 38/2/1
f 40/1/1 36/1/1 39/1/1
f 43/4/1 42/4/1 41/4/1
f 44/4/1 42/4/1 43/4/1
f 45/4/1 42/4/1 44/4/1
f 46/4/1 42/4/1 45/4/1
f 49/5/1 48/5/1 47/5/1
f 50/5/1 48/5/1 49/5/1
f 53/5/1 52/5/1 51/5/1
f 54/5/1 52/5/1 53/5/1
f 57/5/1 56/5/1 55/5/1
f 58/5/1 56/5/1 57/5/1
f 61/5/1 60/5/1 59/5/1
f 62/5/1 60/5/1 61/5/1
f 65/5/1 64/5/1 63/5/1
f 66/5/1 64/5/1 65/5/1
f 69/5/1 68/5/1 67/5/1
f 70/5/1 68/5/1 69/5/1
f 73/5/1 72/5/1 71/5/1
f 74/5/1 72/5/1 73/5/1
f 77/5/1 76/5/1 75/5/1
f 78/5/1 76/5/1 77/5/1
f 79/5/2 80/5/2 81/5/2
f 81/5/2 80/5/2 82/5/2
f 83/5/2 84/5/2 85/5/2
f 85/5/2 84/5/2 86/5/2
f 87/5/2 88/5/2 89/5/2
f 89/5/2 88/5/2 90/5/2
f 91/5/2 92/5/2 93/5/2
f 93/5/2 92/5/2 94/5/2
f 95/5/2 96/5/2 97/5/2
f 97/5/2 96/5/2 98/5/2
f 99/5/2 100/5/2 101/5/2
f 101/5/2 100/5/2 102/5/2
f 103/5/2 104/5/2 105/5/2
f 105/5/2 104/5/2 106/5/2
f 107/5/2 108/5/2 109/5/2
f 109/5/2 108/5/2 110/5/2
f 111/5/2 112/5/2 113/5/2
f 113/5/2 112/5/2 114/5/2
f 115/1/2 116/1/2 117/1/2
f 117/1/2 116/1/2 118/1/2
f 118/1/2 116/1/2 119/1/2
f 119/1/2 116/1/2 120/1/2
f 121/3/2 122/3/2 125/3/2
f 122/2/2 123/2/2 126/2/2
f 125/3/2 122/3/2 126/3/2
f 123/3/2 124/3/2 127/3/2
f 126/2/2 123/2/2 127/2/2
f 127/3/2 124/3/2 128/3/2
f 129/2/2 130/2/2 131/2/2
f 131/2/2 130/2/2 132/2/2
f 131/4/2 132/4/2 133/4/2
f 133/4/2 132/4/2 134/4/2
f 139/1/3 136/1/3 135/1/3
f 140/2/3 137/2/3 136/2/3
f 140/1/3 136/1/3 139/1/3
f 141/2/3 137/2/3 140/2/3
f 143/1/3 139/1/3 138/1/3
f 144/2/3 140/2/3 139/2/3
f 144/1/3 139/1/3 143/1/3
f 145/1/3 141/1/3 140/1/3
f 145/2/3 140/2/3 144/2/3
f 146/4/3 142/4/3 141/4/3
f 146/1/3 141/1/3 145/1/3
f 147/2/3 144/2/3 143/2/3
f 148/1/3 145/1/3 144/1/3
f 148/2/3 144/2/3 147/2/3
f 149/2/3 146/2/3 145/2/3
f 149/1/3 145/1/3 148/1/3
f 150/4/3 142/4/3 146/4/3
f 150/2/3 146/2/3 149/2/3
f 151/1/3 148/1/3 147/1/3
f 152/2/3 149/2/3 148/2/3
f 152/1/3 148/1/3 151/1/3
f 153/1/3 150/1/3 149/1/3
f 153/2/3 149/2/3 152/2/3
f 154/4/3 142/4/3 150/4/3
f 154/1/3 150/1/3 153/1/3
f 155/2/3 152/2/3 151/2/3
f 156/1/3 153/1/3 152/1/3
f 156/2/3 152/2/3 155/2/3
f 157/2/3 154/2/3 153/2/3
f 157/1/3 153/1/3 156/1/3
f 158/4/3 142/4/3 154/4/3
f 158/2/3 154/2/3 157/2/3
f 159/1/3 156/1/3 155/1/3
f 160/2/3 157/2/3 156/2/3
f 160/1/3 156/1/3 159/1/3
f 161/1/3 158/1/3 157/1/3
f 161/2/3 157/2/3 160/2/3
f 162/4/3 142/4/3 158/4/3
f 162/1/3 158/1/3 161/1/3
f 163/2/3 160/2/3 159/2/3
f 164/1/3 161/1/3 160/1/3
f 164/2/3 160/2/3 163/2/3
f 165/2/3 162/2/3 161/2/3
f 165/1/3 161/1/3 164/1/3
f 166/4/3 142/4/3 162/4/3
f 166/2/3 162/2/3 165/2/3
f 167/1/3 164/1/3 163/1/3
f 168/2/3 165/2/3 164/2/3
f 168/1/3 164/1/3 167/1/3
f 169/1/3 166/1/3 165/1/3
f 169/2/3 165/2/3 168/2/3
f 170/4/3 142/4/3 166/4/3
f 170/1/3 166/1/3 169/1/3
f 171/2/3 168/2/3 167/2/3
f 172/1/3 169/1/3 168/1/3
f 172/2/3 168/2/3 171/2/3
f 173/2/3 170/2/3 169/2/3
f 173/1/3 169/1/3 172/1/3
f 174/4/3 142/4/3 170/4/3
f 174/2/3 170/2/3 173/2/3
f 175/1/3 172/1/3 171/1/3
f 176/2/3 173/2/3 172/2/3
f 176/1/3 172/1/3 175/1/3
f 177/1/3 174/1/3 173/1/3
f 177/2/3 173/2/3 176/2/3
f 178/4/3 142/4/3 174/4/3
f 178/1/3 174/1/3 177/1/3
f 179/2/3 176/2/3 175/2/3
f 180/1/3 177/1/3 176/1/3
f 180/2/3 176/2/3 179/2/3
f 181/2/3 178/2/3 177/2/3
f 181/1/3 177/1/3 180/1/3
f 182/4/3 142/4/3 178/4/3
f 182/2/3 178/2/3 181/2/3
f 183/1/3 180/1/3 179/1/3
f 184/2/3 181/2/3 180/2/3
f 184/1/3 180/1/3 183/1/3
f 185/1/3 182/1/3 181/1/3
f 185/2/3 181/2/3 184/2/3
f 186/4/3 142/4/3 182/4/3
f 186/1/3 182/1/3 185/1/3
f 187/2/3 184/2/3 183/2/3
f 188/1/3 185/1/3 184/1/3
f 188/2/3 184/2/3 187/2/3
f 189/2/3 186/2/3 185/2/3
f 189/1/3 185/1/3 188/1/3
f 190/4/3 142/4/3 186/4/3
f 190/2/3 186/2/3 189/2/3
f 191/1/3 188/1/3 187/1/3
f 192/2/3 189/2/3 188/2/3
f 192/1/3 188/1/3 191/1/3
f 193/1/3 190/1/3 189/1/3
f 193/2/3 189/2/3 192/2/3
f 194/4/3 142/4/3 190/4/3
f 194/1/3 190/1/3 193/1/3
f 195/2/3 192/2/3 191/2/3
f 196/1/3 193/1/3 192/1/3
f 196/2/3 192/2/3 195/2/3
f 197/2/3 194/2/3 193/2/3
f 197/1/3 193/1/3 196/1/3
f 198/4/3 142/4/3 194/4/3
f 198/2/3 194/2/3 197/2/3
f 199/1/3 196/1/3 195/1/3
f 200/2/3 197/2/3 196/2/3
f 200/1/3 196/1/3 199/1/3
f 201/1/3 198/1/3 197/1/3
f 201/2/3 197/2/3 200/2/3
f 202/4/3 142/4/3 198/4/3
f 202/1/3 198/1/3 201/1/3
f 203/2/3 200/2/3 199/2/3
f 204/1/3 201/1/3 200/1/3
f 204/2/3 200/2/3 203/2/3
f 205/2/3 202/2/3 201/2/3
f 205/1/3 201/1/3 204/1/3
f 206/1/3 204/1/3 203/1/3
f 206/2/3 205/2/3 204/2/3
f 207/2/3 202/2/3 205/2/3
f 207/2/3 205/2/3 206/2/3
f 208/1/3 206/1/3 203/1/3
f 208/1/3 207/1/3 206/1/3
f 209/1/3 207/1/3 208/1/3
f 210/2/3 202/2/3 207/2/3
f 210/1/3 207/1/3 209/1/3
f 211/3/3 210/3/3 209/3/3
f 212/2/3 202/2/3 210/2/3
f 212/3/3 210/3/3 211/3/3
f 213/2/3 202/2/3 212/2/3
f 214/4/3 142/4/3 202/4/3
f 214/2/3 202/2/3 213/2/3
f 215/4/3 142/4/3 214/4/3
f 220/5/3 217/5/3 216/5/3
f 221/5/3 219/5/3 218/5/3
f 222/5/3 220/5/3 216/5/3
f 222/5/3 221/5/3 220/5/3
f 223/5/3 221/5/3 222/5/3
f 224/5/3 219/5/3 221/5/3
f 224/5/3 221/5/3 223/5/3
f 225/5/3 219/5/3 224/5/3
f 226/5/3 224/5/3 223/5/3
f 227/5/3 224/5/3 226/5/3
f 228/5/3 224/5/3 227/5/3
f 229/5/3 224/5/3 228/5/3
f 230/5/3 228/5/3 227/5/3
f 231/5/3 228/5/3 230/5/3
f 232/5/3 228/5/3 231/5/3
f 233/1/3 231/1/3 230/1/3
f 234/2/3 232/2/3 231/2/3
f 234/1/3 231/1/3 233/1/3
f 235/2/3 232/2/3 234/2/3
f 238/2/3 234/2/3 233/2/3
f 239/1/3 235/1/3 234/1/3
f 239/2/3 234/2/3 238/2/3
f 240/1/3 235/1/3 239/1/3
f 243/5/3 237/5/3 236/5/3
f 244/5/3 242/5/3 241/5/3
f 246/5/3 243/5/3 236/5/3
f 247/5/3 243/5/3 246/5/3
f 248/5/3 242/5/3 244/5/3
f 250/5/3 247/5/3 246/5/3
f 250/5/3 246/5/3 245/5/3
f 251/5/3 250/5/3 245/5/3
f 252/5/3 248/5/3 244/5/3
f 252/5/3 249/5/3 248/5/3
f 253/5/3 249/5/3 252/5/3
f 254/5/3 251/5/3 245/5/3
f 255/5/3 251/5/3 254/5/3
f 258/5/3 257/5/3 256/5/3
f 262/5/3 261/5/3 260/5/3
f 263/5/3 258/5/3 256/5/3
f 263/5/3 259/5/3 258/5/3
f 264/5/3 259/5/3 263/5/3
f 266/5/3 262/5/3 260/5/3
f 267/5/3 262/5/3 266/5/3
f 268/5/3 266/5/3 265/5/3
f 268/5/3 267/5/3 266/5/3
f 271/5/3 268/5/3 265/5/3
f 272/5/3 270/5/3 269/5/3
f 274/5/3 271/5/3 265/5/3
f 275/5/3 271/5/3 274/5/3
f 276/5/3 273/5/3 272/5/3
f 276/5/3 272/5/3 269/5/3
f 277/5/3 273/5/3 276/5/3
f 278/5/4 279/5/4 282/5/4
f 280/5/4 281/5/4 283/5/4
f 278/5/4 282/5/4 284/5/4
f 282/5/4 283/5/4 284/5/4
f 284/5/4 283/5/4 285/5/4
f 283/5/4 281/5/4 286/5/4
f 285/5/4 283/5/4 286/5/4
f 286/5/4 281/5/4 287/5/4
f 285/5/4 286/5/4 288/5/4
f 288/5/4 286/5/4 289/5/4
f 289/5/4 286/5/4 290/5/4
f 290/5/4 286/5/4 291/5/4
f 289/5/4 290/5/4 292/5/4
f 292/5/4 290/5/4 293/5/4
f 293/5/4 290/5/4 294/5/4
f 292/1/4 293/1/4 295/1/4
f 293/2/4 294/2/4 296/2/4
f 295/1/4 293/1/4 296/1/4
f 296/2/4 294/2/4 297/2/4
f 295/2/4 296/2/4 300/2/4
f 296/1/4 297/1/4 301/1/4
f 300/2/4 296/2/4 301/2/4
f 301/1/4 297/1/4 302/1/4
f 298/5/4 299/5/4 305/5/4
f 303/5/4 304/5/4 306/5/4
f 298/5/4 305/5/4 308/5/4
f 308/5/4 305/5/4 309/5/4
f 306/5/4 304/5/4 310/5/4
f 308/5/4 309/5/4 312/5/4
f 307/5/4 308/5/4 312/5/4
f 307/5/4 312/5/4 313/5/4
f 306/5/4 310/5/4 314/5/4
f 310/5/4 311/5/4 314/5/4
f 314/5/4 311/5/4 315/5/4
f 307/5/4 313/5/4 316/5/4
f 316/5/4 313/5/4 317/5/4
f 318/5/4 319/5/4 320/5/4
f 322/5/4 323/5/4 324/5/4
f 318/5/4 320/5/4 325/5/4
f 320/5/4 321/5/4 325/5/4
f 325/5/4 321/5/4 326/5/4
f 322/5/4 324/5/4 328/5/4
f 328/5/4 324/5/4 329/5/4
f 327/5/4 328/5/4 330/5/4
f 328/5/4 329/5/4 330/5/4
f 327/5/4 330/5/4 333/5/4
f 331/5/4 332/5/4 334/5/4
f 327/5/4 333/5/4 336/5/4
f 336/5/4 333/5/4 337/5/4
f 334/5/4 335/5/4 338/5/4
f 331/5/4 334/5/4 338/5/4
f 338/5/4 335/5/4 339/5/4
f 340/1/4 341/1/4 344/1/4
f 341/2/4 342/2/4 345/2/4
f 344/1/4 341/1/4 345/1/4
f 345/2/4 342/2/4 346/2/4
f 343/1/4 344/1/4 348/1/4
f 344/2/4 345/2/4 349/2/4
f 348/1/4 344/1/4 349/1/4
f 345/1/4 346/1/4 350/1/4
f 349/2/4 345/2/4 350/2/4
f 346/4/4 347/4/4 351/4/4
f 350/1/4 346/1/4 351/1/4
f 348/2/4 349/2/4 352/2/4
f 349/1/4 350/1/4 353/1/4
f 352/2/4 349/2/4 353/2/4
f 350/2/4 351/2/4 354/2/4
f 353/1/4 350/1/4 354/1/4
f 351/4/4 347/4/4 355/4/4
f 354/2/4 351/2/4 355/2/4
f 352/1/4 353/1/4 356/1/4
f 353/2/4 354/2/4 357/2/4
f 356/1/4 353/1/4 357/1/4
f 354/1/4 355/1/4 358/1/4
f 357/2/4 354/2/4 358/2/4
f 355/4/4 347/4/4 359/4/4
f 358/1/4 355/1/4 359/1/4
f 356/2/4 357/2/4 360/2/4
f 357/1/4 358/1/4 361/1/4
f 360/2/4 357/2/4 361/2/4
f 358/2/4 359/2/4 362/2/4
f 361/1/4 358/1/4 362/1/4
f 359/4/4 347/4/4 363/4/4
f 362/2/4 359/2/4 363/2/4
f 360/1/4 361/1/4 364/1/4
f 361/2/4 362/2/4 365/2/4
f 364/1/4 361/1/4 365/1/4
f 362/1/4 363/1/4 366/1/4
f 365/2/4 362/2/4 366/2/4
f 363/4/4 347/4/4 367/4/4
f 366/1/4 363/1/4 367/1/4
f 364/2/4 365/2/4 368/2/4
f 365/1/4 366/1/4 369/1/4
f 368/2/4 365/2/4 369/2/4
f 366/2/4 367/2/4 370/2/4
f 369/1/4 366/1/4 370/1/4
f 367/4/4 347/4/4 371/4/4
f 370/2/4 367/2/4 371/2/4
f 368/1/4 369/1/4 372/1/4
f 369/2/4 370/2/4 373/2/4
f 372/1/4 369/1/4 373/1/4
f 370/1/4 371/1/4 374/1/4
f 373/2/4 370/2/4 374/2/4
f 371/4/4 347/4/4 375/4/4
f 374/1/4 371/1/4 375/1/4
f 372/2/4 373/2/4 376/2/4
f 373/1/4 374/1/4 377/1/4
f 376/2/4 373/2/4 377/2/4
f 374/2/4 375/2/4 378/2/4
f 377/1/4 374/1/4 378/1/4
f 375/4/4 347/4/4 379/4/4
f 378/2/4 375/2/4 379/2/4
f 376/1/4 377/1/4 380/1/4
f 377/2/4 378/2/4 381/2/4
f 380/1/4 377/1/4 381/1/4
f 378/1/4 379/1/4 382/1/4
f 381/2/4 378/2/4 382/2/4
f 379/4/4 347/4/4 383/4/4
f 382/1/4 379/1/4 383/1/4
f 380/2/4 381/2/4 384/2/4
f 381/1/4 382/1/4 385/1/4
f 384/2/4 381/2/4 385/2/4
f 382/2/4 383/2/4 386/2/4
f 385/1/4 382/1/4 386/1/4
f 383/4/4 347/4/4 387/4/4
f 386/2/4 383/2/4 387/2/4
f 384/1/4 385/1/4 388/1/4
f 385/2/4 386/2/4 389/2/4
f 388/1/4 385/1/4 389/1/4
f 386/1/4 387/1/4 390/1/4
f 389/2/4 386/2/4 390/2/4
f 387/4/4 347/4/4 391/4/4
f 390/1/4 387/1/4 391/1/4
f 388/2/4 389/2/4 392/2/4
f 389/1/4 390/1/4 393/1/4
f 392/2/4 389/2/4 393/2/4
f 390/2/4 391/2/4 394/2/4
f 393/1/4 390/1/4 394/1/4
f 391/4/4 347/4/4 395/4/4
f 394/2/4 391/2/4 395/2/4
f 392/1/4 393/1/4 396/1/4
f 393/2/4 394/2/4 397/2/4
f 396/1/4 393/1/4 397/1/4
f 394/1/4 395/1/4 398/1/4
f 397/2/4 394/2/4 398/2/4
f 395/4/4 347/4/4 399/4/4
f 398/1/4 395/1/4 399/1/4
f 396/2/4 397/2/4 400/2/4
f 397/1/4 398/1/4 401/1/4
f 400/2/4 397/2/4 401/2/4
f 398/2/4 399/2/4 402/2/4
f 401/1/4 398/1/4 402/1/4
f 399/4/4 347/4/4 403/4/4
f 402/2/4 399/2/4 403/2/4
f 400/1/4 401/1/4 404/1/4
f 401/2/4 402/2/4 405/2/4
f 404/1/4 401/1/4 405/1/4
f 402/1/4 403/1/4 406/1/4
f 405/2/4 402/2/4 406/2/4
f 403/4/4 347/4/4 407/4/4
f 406/1/4 403/1/4 407/1/4
f 404/2/4 405/2/4 408/2/4
f 405/1/4 406/1/4 409/1/4
f 408/2/4 405/2/4 409/2/4
f 406/2/4 407/2/4 410/2/4
f 409/1/4 406/1/4 410/1/4
f 408/1/4 409/1/4 411/1/4
f 409/2/4 410/2/4 411/2/4
f 410/2/4 407/2/4 412/2/4
f 411/2/4 410/2/4 412/2/4
f 408/1/4 411/1/4 413/1/4
f 411/1/4 412/1/4 413/1/4
f 413/1/4 412/1/4 414/1/4
f 412/2/4 407/2/4 415/2/4
f 414/1/4 412/1/4 415/1/4
f 414/3/4 415/3/4 416/3/4
f 415/2/4 407/2/4 417/2/4
f 416/3/4 415/3/4 417/3/4
f 417/2/4 407/2/4 418/2/4
f 407/4/4 347/4/4 419/4/4
f 418/2/4 407/2/4 419/2/4
f 419/4/4 347/4/4 420/4/4
f 425/5/5 422/5/5 421/5/5
f 426/5/5 422/5/5 425/5/5
f 427/5/5 424/5/5 423/5/5
f 428/5/5 424/5/5 427/5/5
f 435/5/5 430/5/5 429/5/5
f 436/5/5 430/5/5 435/5/5
f 437/5/5 432/5/5 431/5/5
f 438/5/5 432/5/5 437/5/5
f 439/5/5 434/5/5 433/5/5
f 440/5/5 434/5/5 439/5/5
f 461/1/5 442/1/5 441/1/5
f 462/2/5 443/2/5 442/2/5
f 462/1/5 442/1/5 461/1/5
f 463/1/5 444/1/5 443/1/5
f 463/2/5 443/2/5 462/2/5
f 464/2/5 445/2/5 444/2/5
f 464/1/5 444/1/5 463/1/5
f 465/1/5 446/1/5 445/1/5
f 465/2/5 445/2/5 464/2/5
f 466/2/5 447/2/5 446/2/5
f 466/1/5 446/1/5 465/1/5
f 467/1/5 448/1/5 447/1/5
f 467/2/5 447/2/5 466/2/5
f 468/2/5 449/2/5 448/2/5
f 468/1/5 448/1/5 467/1/5
f 469/1/5 450/1/5 449/1/5
f 469/2/5 449/2/5 468/2/5
f 470/2/5 451/2/5 450/2/5
f 470/1/5 450/1/5 469/1/5
f 471/1/5 452/1/5 451/1/5
f 471/2/5 451/2/5 470/2/5
f 472/2/5 453/2/5 452/2/5
f 472/1/5 452/1/5 471/1/5
f 473/1/5 454/1/5 453/1/5
f 473/2/5 453/2/5 472/2/5
f 474/2/5 455/2/5 454/2/5
f 474/1/5 454/1/5 473/1/5
f 475/1/5 456/1/5 455/1/5
f 475/2/5 455/2/5 474/2/5
f 476/2/5 457/2/5 456/2/5
f 476/1/5 456/1/5 475/1/5
f 477/1/5 458/1/5 457/1/5
f 477/2/5 457/2/5 476/2/5
f 478/1/5 458/1/5 477/1/5
f 479/5/5 460/5/5 459/5/5
f 480/5/5 460/5/5 479/5/5
f 485/2/5 466/2/5 465/2/5
f 486/1/5 467/1/5 466/1/5
f 486/2/5 466/2/5 485/2/5
f 487/2/5 468/2/5 467/2/5
f 487/1/5 467/1/5 486/1/5
f 488/1/5 469/1/5 468/1/5
f 488/2/5 468/2/5 487/2/5
f 489/2/5 470/2/5 469/2/5
f 489/1/5 469/1/5 488/1/5
f 490/1/5 471/1/5 470/1/5
f 490/2/5 470/2/5 489/2/5
f 491/1/5 471/1/5 490/1/5
f 496/1/5 477/1/5 476/1/5
f 497/2/5 478/2/5 477/2/5
f 497/1/5 477/1/5 496/1/5
f 498/1/5 458/1/5 478/1/5
f 498/2/5 478/2/5 497/2/5
f 499/1/5 482/1/5 481/1/5
f 500/2/5 483/2/5 482/2/5
f 500/1/5 482/1/5 499/1/5
f 501/1/5 484/1/5 483/1/5
f 501/2/5 483/2/5 500/2/5
f 502/2/5 485/2/5 484/2/5
f 502/1/5 484/1/5 501/1/5
f 503/1/5 486/1/5 485/1/5
f 503/2/5 485/2/5 502/2/5
f 504/2/5 487/2/5 486/2/5
f 504/1/5 486/1/5 503/1/5
f 505/1/5 488/1/5 487/1/5
f 505/2/5 487/2/5 504/2/5
f 506/2/5 489/2/5 488/2/5
f 506/1/5 488/1/5 505/1/5
f 507/1/5 490/1/5 489/1/5
f 507/2/5 489/2/5 506/2/5
f 508/2/5 491/2/5 490/2/5
f 508/1/5 490/1/5 507/1/5
f 509/1/5 492/1/5 491/1/5
f 509/2/5 491/2/5 508/2/5
f 510/2/5 493/2/5 492/2/5
f 510/1/5 492/1/5 509/1/5
f 511/1/5 494/1/5 493/1/5
f 511/2/5 493/2/5 510/2/5
f 512/2/5 495/2/5 494/2/5
f 512/1/5 494/1/5 511/1/5
f 513/1/5 496/1/5 495/1/5
f 513/2/5 495/2/5 512/2/5
f 514/2/5 497/2/5 496/2/5
f 514/1/5 496/1/5 513/1/5
f 515/1/5 498/1/5 497/1/5
f 515/2/5 497/2/5 514/2/5
f 516/1/5 458/1/5 498/1/5
f 516/1/5 498/1/5 515/1/5
f 524/1/5 518/1/5 517/1/5
f 525/1/5 518/1/5 524/1/5
f 526/3/5 520/3/5 519/3/5
f 527/3/5 520/3/5 526/3/5
f 528/5/5 522/5/5 521/5/5
f 529/1/5 523/1/5 522/1/5
f 529/5/5 522/5/5 528/5/5
f 530/2/5 525/2/5 524/2/5
f 530/1/5 523/1/5 529/1/5
f 530/2/5 524/2/5 523/2/5
f 531/2/5 525/2/5 530/2/5
f 532/2/5 525/2/5 531/2/5
f 533/2/5 527/2/5 526/2/5
f 534/2/5 527/2/5 533/2/5
f 535/1/5 532/1/5 531/1/5
f 536/1/5 532/1/5 535/1/5
f 537/3/5 534/3/5 533/3/5
f 538/3/5 534/3/5 537/3/5
f 541/2/5 540/2/5 539/2/5
f 542/2/5 540/2/5 541/2/5
f 543/2/5 540/2/5 542/2/5
f 544/2/5 540/2/5 543/2/5
f 549/5/5 546/5/5 545/5/5
f 550/5/5 546/5/5 549/5/5
f 551/5/5 548/5/5 547/5/5
f 552/5/5 548/5/5 551/5/5
f 553/5/6 554/5/6 557/5/6
f 557/5/6 554/5/6 558/5/6
f 555/5/6 556/5/6 559/5/6
f 559/5/6 556/5/6 560/5/6
f 561/2/6 562/2/6 566/2/6
f 563/5/6 564/5/6 567/5/6
f 564/2/6 565/2/6 568/2/6
f 567/5/6 564/5/6 568/5/6
f 565/1/6 566/1/6 569/1/6
f 568/2/6 565/2/6 569/2/6
f 566/2/6 562/2/6 570/2/6
f 569/1/6 566/1/6 570/1/6
f 570/2/6 562/2/6 571/2/6
f 571/2/6 562/2/6 572/2/6
f 573/4/6 574/4/6 577/4/6
f 577/4/6 574/4/6 578/4/6
f 578/4/6 574/4/6 579/4/6
f 579/4/6 574/4/6 580/4/6
f 580/4/6 574/4/6 581/4/6
f 581/4/6 574/4/6 582/4/6
f 575/5/6 576/5/6 583/5/6
f 583/5/6 576/5/6 584/5/6
f 578/4/6 579/4/6 586/4/6
f 586/4/6 579/4/6 587/4/6
f 580/4/6 581/4/6 588/4/6
f 588/4/6 581/4/6 589/4/6
f 582/4/6 574/4/6 590/4/6
f 588/4/6 589/4/6 591/4/6
f 589/4/6 590/4/6 591/4/6
f 586/4/6 587/4/6 591/4/6
f 587/4/6 588/4/6 591/4/6
f 585/4/6 586/4/6 591/4/6
f 590/4/6 574/4/6 592/4/6
f 591/4/6 590/4/6 592/4/6
f 593/5/6 594/5/6 601/5/6
f 601/5/6 594/5/6 602/5/6
f 595/5/6 596/5/6 603/5/6
f 603/5/6 596/5/6 604/5/6
f 597/5/6 598/5/6 605/5/6
f 605/5/6 598/5/6 606/5/6
f 599/5/6 600/5/6 607/5/6
f 607/5/6 600/5/6 608/5/6
f 609/5/6 610/5/6 615/5/6
f 615/5/6 610/5/6 616/5/6
f 611/5/6 612/5/6 617/5/6
f 617/5/6 612/5/6 618/5/6
f 613/5/6 614/5/6 619/5/6
f 619/5/6 614/5/6 620/5/6
