# MagicaVoxel @ ephtracy

# material
mtllib greenfish.mtl
usemtl palette

# normals
vn -1 0 0
vn 1 0 0
vn 0 0 1
vn 0 0 -1
vn 0 -1 0
vn 0 1 0

# texcoords
vt 0.00195313 0.5
vt 0.00585938 0.5
vt 0.00976563 0.5
vt 0.0136719 0.5
vt 0.0175781 0.5

# verts
v 1 6 -0
v 1 6 -1
v 1 7 -0
v 1 7 -1
v 1 9 -0
v 1 9 -1
v 1 10 -0
v 1 10 -1
v 2 7 -0
v 2 7 -1
v 2 9 -0
v 2 9 -1
v 3 7 1
v 3 7 -0
v 3 7 -1
v 3 7 -2
v 3 9 1
v 3 9 -0
v 3 9 -1
v 3 9 -2
v 4 5 -0
v 4 5 -1
v 4 6 -0
v 4 6 -1
v 4 7 -0
v 4 7 -1
v 4 9 -0
v 4 9 -1
v 4 10 -0
v 4 10 -1
v 5 10 -0
v 5 10 -1
v 5 11 -0
v 5 11 -1
v 6 7 2
v 6 7 1
v 6 7 -2
v 6 7 -3
v 6 8 2
v 6 8 1
v 6 8 -2
v 6 8 -3
v 6 11 -0
v 6 11 -1
v 6 12 -0
v 6 12 -1
v 7 5 -0
v 7 5 -1
v 7 6 2
v 7 6 1
v 7 6 -0
v 7 6 -1
v 7 6 -2
v 7 6 -3
v 7 7 2
v 7 7 1
v 7 7 -2
v 7 7 -3
v 3 6 -0
v 3 6 -1
v 3 7 -0
v 3 7 -1
v 3 9 -0
v 3 9 -1
v 3 10 -0
v 3 10 -1
v 6 5 -0
v 6 5 -1
v 6 6 -0
v 6 6 -1
v 8 6 2
v 8 6 1
v 8 6 -2
v 8 6 -3
v 8 7 1
v 8 7 -2
v 8 8 2
v 8 8 1
v 8 8 -2
v 8 8 -3
v 8 10 -0
v 8 10 -1
v 8 11 -0
v 8 11 -1
v 8 12 -0
v 8 12 -1
v 9 5 -0
v 9 5 -1
v 9 6 -0
v 9 6 -1
v 10 6 -0
v 10 6 -1
v 10 7 1
v 10 7 -0
v 10 7 -1
v 10 7 -2
v 10 8 1
v 10 8 -0
v 10 8 -1
v 10 8 -2
v 10 9 1
v 10 9 -0
v 10 9 -1
v 10 9 -2
v 10 10 -0
v 10 10 -1
v 11 7 -0
v 11 7 -1
v 11 9 -0
v 11 9 -1
v 6 7 2
v 6 8 2
v 7 6 2
v 7 7 2
v 8 6 2
v 8 8 2
v 3 7 1
v 3 9 1
v 4 7 1
v 4 9 1
v 5 8 1
v 5 9 1
v 6 7 1
v 6 8 1
v 6 9 1
v 7 8 1
v 7 9 1
v 8 7 1
v 8 8 1
v 8 9 1
v 9 8 1
v 9 9 1
v 10 7 1
v 10 8 1
v 10 9 1
v 1 6 -0
v 1 7 -0
v 1 9 -0
v 1 10 -0
v 2 7 -0
v 2 9 -0
v 3 6 -0
v 3 7 -0
v 3 9 -0
v 3 10 -0
v 4 5 -0
v 4 6 -0
v 4 7 -0
v 4 9 -0
v 4 10 -0
v 5 9 -0
v 5 10 -0
v 5 11 -0
v 6 5 -0
v 6 6 -0
v 6 9 -0
v 6 10 -0
v 6 11 -0
v 6 12 -0
v 7 5 -0
v 7 6 -0
v 7 7 -0
v 7 9 -0
v 7 10 -0
v 8 7 -0
v 8 9 -0
v 8 10 -0
v 8 11 -0
v 8 12 -0
v 9 5 -0
v 9 6 -0
v 9 9 -0
v 10 6 -0
v 10 7 -0
v 10 8 -0
v 10 9 -0
v 10 10 -0
v 11 7 -0
v 11 9 -0
v 7 6 -2
v 7 7 -2
v 8 6 -2
v 8 7 -2
v 7 6 1
v 7 7 1
v 8 6 1
v 8 7 1
v 1 6 -1
v 1 7 -1
v 1 9 -1
v 1 10 -1
v 2 7 -1
v 2 9 -1
v 3 6 -1
v 3 7 -1
v 3 9 -1
v 3 10 -1
v 4 5 -1
v 4 6 -1
v 4 7 -1
v 4 9 -1
v 4 10 -1
v 5 9 -1
v 5 10 -1
v 5 11 -1
v 6 5 -1
v 6 6 -1
v 6 9 -1
v 6 10 -1
v 6 11 -1
v 6 12 -1
v 7 5 -1
v 7 6 -1
v 7 7 -1
v 7 9 -1
v 7 10 -1
v 8 7 -1
v 8 9 -1
v 8 10 -1
v 8 11 -1
v 8 12 -1
v 9 5 -1
v 9 6 -1
v 9 9 -1
v 10 6 -1
v 10 7 -1
v 10 8 -1
v 10 9 -1
v 10 10 -1
v 11 7 -1
v 11 9 -1
v 3 7 -2
v 3 9 -2
v 4 7 -2
v 4 9 -2
v 5 8 -2
v 5 9 -2
v 6 7 -2
v 6 8 -2
v 6 9 -2
v 7 8 -2
v 7 9 -2
v 8 7 -2
v 8 8 -2
v 8 9 -2
v 9 8 -2
v 9 9 -2
v 10 7 -2
v 10 8 -2
v 10 9 -2
v 6 7 -3
v 6 8 -3
v 7 6 -3
v 7 7 -3
v 8 6 -3
v 8 8 -3
v 4 5 -0
v 6 5 -0
v 7 5 -0
v 9 5 -0
v 4 5 -1
v 6 5 -1
v 7 5 -1
v 9 5 -1
v 7 6 2
v 8 6 2
v 7 6 1
v 8 6 1
v 1 6 -0
v 3 6 -0
v 6 6 -0
v 7 6 -0
v 9 6 -0
v 10 6 -0
v 1 6 -1
v 3 6 -1
v 6 6 -1
v 7 6 -1
v 9 6 -1
v 10 6 -1
v 7 6 -2
v 8 6 -2
v 7 6 -3
v 8 6 -3
v 6 7 2
v 7 7 2
v 3 7 1
v 4 7 1
v 6 7 1
v 7 7 1
v 8 7 1
v 10 7 1
v 3 7 -0
v 4 7 -0
v 7 7 -0
v 8 7 -0
v 10 7 -0
v 11 7 -0
v 3 7 -1
v 4 7 -1
v 7 7 -1
v 8 7 -1
v 10 7 -1
v 11 7 -1
v 3 7 -2
v 4 7 -2
v 6 7 -2
v 7 7 -2
v 8 7 -2
v 10 7 -2
v 6 7 -3
v 7 7 -3
v 1 9 -0
v 2 9 -0
v 1 9 -1
v 2 9 -1
v 1 7 -0
v 2 7 -0
v 1 7 -1
v 2 7 -1
v 6 8 2
v 8 8 2
v 6 8 1
v 7 8 1
v 8 8 1
v 6 8 -2
v 7 8 -2
v 8 8 -2
v 6 8 -3
v 8 8 -3
v 3 9 1
v 4 9 1
v 5 9 1
v 6 9 1
v 7 9 1
v 8 9 1
v 9 9 1
v 10 9 1
v 3 9 -0
v 4 9 -0
v 5 9 -0
v 6 9 -0
v 7 9 -0
v 8 9 -0
v 9 9 -0
v 10 9 -0
v 11 9 -0
v 3 9 -1
v 4 9 -1
v 5 9 -1
v 6 9 -1
v 7 9 -1
v 8 9 -1
v 9 9 -1
v 10 9 -1
v 11 9 -1
v 3 9 -2
v 4 9 -2
v 5 9 -2
v 6 9 -2
v 7 9 -2
v 8 9 -2
v 9 9 -2
v 10 9 -2
v 1 10 -0
v 3 10 -0
v 4 10 -0
v 5 10 -0
v 8 10 -0
v 10 10 -0
v 1 10 -1
v 3 10 -1
v 4 10 -1
v 5 10 -1
v 8 10 -1
v 10 10 -1
v 5 11 -0
v 6 11 -0
v 5 11 -1
v 6 11 -1
v 6 12 -0
v 8 12 -0
v 6 12 -1
v 8 12 -1

# faces
f 3/5/1 2/5/1 1/5/1
f 4/5/1 2/5/1 3/5/1
f 7/5/1 6/5/1 5/5/1
f 8/5/1 6/5/1 7/5/1
f 11/5/1 10/5/1 9/5/1
f 12/5/1 10/5/1 11/5/1
f 17/3/1 14/3/1 13/3/1
f 18/3/1 14/3/1 17/3/1
f 19/3/1 16/3/1 15/3/1
f 20/3/1 16/3/1 19/3/1
f 23/5/1 22/5/1 21/5/1
f 24/5/1 22/5/1 23/5/1
f 25/2/1 24/2/1 23/2/1
f 26/2/1 24/2/1 25/2/1
f 29/2/1 28/2/1 27/2/1
f 30/2/1 28/2/1 29/2/1
f 33/5/1 32/5/1 31/5/1
f 34/5/1 32/5/1 33/5/1
f 39/1/1 36/1/1 35/1/1
f 40/1/1 36/1/1 39/1/1
f 41/1/1 38/1/1 37/1/1
f 42/1/1 38/1/1 41/1/1
f 45/1/1 44/1/1 43/1/1
f 46/1/1 44/1/1 45/1/1
f 51/5/1 48/5/1 47/5/1
f 52/5/1 48/5/1 51/5/1
f 55/1/1 50/1/1 49/1/1
f 56/1/1 50/1/1 55/1/1
f 57/1/1 54/1/1 53/1/1
f 58/1/1 54/1/1 57/1/1
f 59/5/2 60/5/2 61/5/2
f 61/5/2 60/5/2 62/5/2
f 63/5/2 64/5/2 65/5/2
f 65/5/2 64/5/2 66/5/2
f 67/5/2 68/5/2 69/5/2
f 69/5/2 68/5/2 70/5/2
f 71/1/2 72/1/2 75/1/2
f 73/1/2 74/1/2 76/1/2
f 71/1/2 75/1/2 77/1/2
f 77/1/2 75/1/2 78/1/2
f 76/1/2 74/1/2 79/1/2
f 79/1/2 74/1/2 80/1/2
f 81/5/2 82/5/2 83/5/2
f 83/5/2 82/5/2 84/5/2
f 83/1/2 84/1/2 85/1/2
f 85/1/2 84/1/2 86/1/2
f 87/5/2 88/5/2 89/5/2
f 89/5/2 88/5/2 90/5/2
f 91/2/2 92/2/2 94/2/2
f 94/2/2 92/2/2 95/2/2
f 93/2/2 94/2/2 97/2/2
f 97/2/2 94/2/2 98/2/2
f 95/2/2 96/2/2 99/2/2
f 99/2/2 96/2/2 100/2/2
f 97/4/2 98/4/2 101/4/2
f 101/4/2 98/4/2 102/4/2
f 99/4/2 100/4/2 103/4/2
f 103/4/2 100/4/2 104/4/2
f 102/2/2 103/2/2 105/2/2
f 105/2/2 103/2/2 106/2/2
f 107/2/2 108/2/2 109/2/2
f 109/2/2 108/2/2 110/2/2
f 114/1/3 112/1/3 111/1/3
f 115/1/3 114/1/3 113/1/3
f 116/1/3 112/1/3 114/1/3
f 116/1/3 114/1/3 115/1/3
f 119/3/3 118/3/3 117/3/3
f 120/3/3 118/3/3 119/3/3
f 121/2/3 120/2/3 119/2/3
f 122/2/3 120/2/3 121/2/3
f 123/2/3 121/2/3 119/2/3
f 124/3/3 122/3/3 121/3/3
f 124/2/3 121/2/3 123/2/3
f 125/3/3 122/3/3 124/3/3
f 126/2/3 125/2/3 124/2/3
f 127/2/3 125/2/3 126/2/3
f 129/3/3 127/3/3 126/3/3
f 130/3/3 127/3/3 129/3/3
f 131/2/3 129/2/3 128/2/3
f 131/2/3 130/2/3 129/2/3
f 132/2/3 130/2/3 131/2/3
f 133/2/3 131/2/3 128/2/3
f 134/4/3 132/4/3 131/4/3
f 134/2/3 131/2/3 133/2/3
f 135/4/3 132/4/3 134/4/3
f 140/5/3 137/5/3 136/5/3
f 141/5/3 139/5/3 138/5/3
f 142/5/3 140/5/3 136/5/3
f 142/5/3 141/5/3 140/5/3
f 143/5/3 141/5/3 142/5/3
f 144/5/3 139/5/3 141/5/3
f 144/5/3 141/5/3 143/5/3
f 145/5/3 139/5/3 144/5/3
f 151/2/3 150/2/3 149/2/3
f 152/2/3 150/2/3 151/2/3
f 154/5/3 147/5/3 146/5/3
f 155/2/3 148/2/3 147/2/3
f 155/5/3 147/5/3 154/5/3
f 156/3/3 152/3/3 151/3/3
f 157/5/3 153/5/3 152/5/3
f 157/3/3 152/3/3 156/3/3
f 158/5/3 153/5/3 157/5/3
f 161/2/3 148/2/3 155/2/3
f 162/2/3 148/2/3 161/2/3
f 163/2/3 157/2/3 156/2/3
f 164/5/3 158/5/3 157/5/3
f 164/2/3 157/2/3 163/2/3
f 165/2/3 162/2/3 161/2/3
f 166/3/3 164/3/3 163/3/3
f 167/5/3 158/5/3 164/5/3
f 167/3/3 164/3/3 166/3/3
f 168/1/3 159/1/3 158/1/3
f 168/5/3 158/5/3 167/5/3
f 169/1/3 159/1/3 168/1/3
f 170/5/3 161/5/3 160/5/3
f 171/2/3 165/2/3 161/2/3
f 171/5/3 161/5/3 170/5/3
f 172/2/3 167/2/3 166/2/3
f 173/2/3 165/2/3 171/2/3
f 174/2/3 165/2/3 173/2/3
f 176/2/3 167/2/3 172/2/3
f 177/2/3 167/2/3 176/2/3
f 178/2/3 175/2/3 174/2/3
f 178/2/3 176/2/3 175/2/3
f 179/2/3 176/2/3 178/2/3
f 182/1/3 181/1/3 180/1/3
f 183/1/3 181/1/3 182/1/3
f 184/1/4 185/1/4 186/1/4
f 186/1/4 185/1/4 187/1/4
f 188/5/4 189/5/4 192/5/4
f 190/5/4 191/5/4 193/5/4
f 188/5/4 192/5/4 194/5/4
f 192/5/4 193/5/4 194/5/4
f 194/5/4 193/5/4 195/5/4
f 193/5/4 191/5/4 196/5/4
f 195/5/4 193/5/4 196/5/4
f 196/5/4 191/5/4 197/5/4
f 201/2/4 202/2/4 203/2/4
f 203/2/4 202/2/4 204/2/4
f 198/5/4 199/5/4 206/5/4
f 199/2/4 200/2/4 207/2/4
f 206/5/4 199/5/4 207/5/4
f 203/3/4 204/3/4 208/3/4
f 204/5/4 205/5/4 209/5/4
f 208/3/4 204/3/4 209/3/4
f 209/5/4 205/5/4 210/5/4
f 207/2/4 200/2/4 213/2/4
f 213/2/4 200/2/4 214/2/4
f 208/2/4 209/2/4 215/2/4
f 209/5/4 210/5/4 216/5/4
f 215/2/4 209/2/4 216/2/4
f 213/2/4 214/2/4 217/2/4
f 215/3/4 216/3/4 218/3/4
f 216/5/4 210/5/4 219/5/4
f 218/3/4 216/3/4 219/3/4
f 210/1/4 211/1/4 220/1/4
f 219/5/4 210/5/4 220/5/4
f 220/1/4 211/1/4 221/1/4
f 212/5/4 213/5/4 222/5/4
f 213/2/4 217/2/4 223/2/4
f 222/5/4 213/5/4 223/5/4
f 218/2/4 219/2/4 224/2/4
f 223/2/4 217/2/4 225/2/4
f 225/2/4 217/2/4 226/2/4
f 224/2/4 219/2/4 228/2/4
f 228/2/4 219/2/4 229/2/4
f 226/2/4 227/2/4 230/2/4
f 227/2/4 228/2/4 230/2/4
f 230/2/4 228/2/4 231/2/4
f 232/3/4 233/3/4 234/3/4
f 234/3/4 233/3/4 235/3/4
f 234/2/4 235/2/4 236/2/4
f 236/2/4 235/2/4 237/2/4
f 234/2/4 236/2/4 238/2/4
f 236/3/4 237/3/4 239/3/4
f 238/2/4 236/2/4 239/2/4
f 239/3/4 237/3/4 240/3/4
f 239/2/4 240/2/4 241/2/4
f 241/2/4 240/2/4 242/2/4
f 241/3/4 242/3/4 244/3/4
f 244/3/4 242/3/4 245/3/4
f 243/2/4 244/2/4 246/2/4
f 244/2/4 245/2/4 246/2/4
f 246/2/4 245/2/4 247/2/4
f 243/2/4 246/2/4 248/2/4
f 246/4/4 247/4/4 249/4/4
f 248/2/4 246/2/4 249/2/4
f 249/4/4 247/4/4 250/4/4
f 251/1/4 252/1/4 254/1/4
f 253/1/4 254/1/4 255/1/4
f 254/1/4 252/1/4 256/1/4
f 255/1/4 254/1/4 256/1/4
f 261/5/5 258/5/5 257/5/5
f 262/5/5 258/5/5 261/5/5
f 263/5/5 260/5/5 259/5/5
f 264/5/5 260/5/5 263/5/5
f 267/1/5 266/1/5 265/1/5
f 268/1/5 266/1/5 267/1/5
f 275/5/5 270/5/5 269/5/5
f 276/5/5 270/5/5 275/5/5
f 277/2/5 272/2/5 271/2/5
f 278/2/5 272/2/5 277/2/5
f 279/2/5 274/2/5 273/2/5
f 280/2/5 274/2/5 279/2/5
f 283/1/5 282/1/5 281/1/5
f 284/1/5 282/1/5 283/1/5
f 289/1/5 286/1/5 285/1/5
f 290/1/5 286/1/5 289/1/5
f 293/3/5 288/3/5 287/3/5
f 294/2/5 289/2/5 288/2/5
f 294/3/5 288/3/5 293/3/5
f 294/2/5 290/2/5 289/2/5
f 295/3/5 291/3/5 290/3/5
f 295/2/5 290/2/5 294/2/5
f 296/2/5 292/2/5 291/2/5
f 296/3/5 291/3/5 295/3/5
f 297/2/5 292/2/5 296/2/5
f 299/2/5 294/2/5 293/2/5
f 300/2/5 294/2/5 299/2/5
f 303/2/5 298/2/5 297/2/5
f 304/2/5 298/2/5 303/2/5
f 305/3/5 300/3/5 299/3/5
f 306/2/5 301/2/5 300/2/5
f 306/3/5 300/3/5 305/3/5
f 307/2/5 301/2/5 306/2/5
f 308/3/5 302/3/5 301/3/5
f 308/2/5 301/2/5 307/2/5
f 309/2/5 303/2/5 302/2/5
f 309/3/5 302/3/5 308/3/5
f 310/2/5 303/2/5 309/2/5
f 311/1/5 308/1/5 307/1/5
f 312/1/5 308/1/5 311/1/5
f 315/5/5 314/5/5 313/5/5
f 316/5/5 314/5/5 315/5/5
f 317/5/6 318/5/6 319/5/6
f 319/5/6 318/5/6 320/5/6
f 321/1/6 322/1/6 323/1/6
f 323/1/6 322/1/6 324/1/6
f 324/1/6 322/1/6 325/1/6
f 326/1/6 327/1/6 329/1/6
f 327/1/6 328/1/6 329/1/6
f 329/1/6 328/1/6 330/1/6
f 331/3/6 332/3/6 339/3/6
f 332/2/6 333/2/6 340/2/6
f 339/3/6 332/3/6 340/3/6
f 333/3/6 334/3/6 341/3/6
f 340/2/6 333/2/6 341/2/6
f 334/2/6 335/2/6 342/2/6
f 341/3/6 334/3/6 342/3/6
f 335/3/6 336/3/6 343/3/6
f 342/2/6 335/2/6 343/2/6
f 336/2/6 337/2/6 344/2/6
f 343/3/6 336/3/6 344/3/6
f 337/4/6 338/4/6 345/4/6
f 344/2/6 337/2/6 345/2/6
f 345/4/6 338/4/6 346/4/6
f 339/2/6 340/2/6 348/2/6
f 348/2/6 340/2/6 349/2/6
f 346/2/6 347/2/6 355/2/6
f 355/2/6 347/2/6 356/2/6
f 348/3/6 349/3/6 357/3/6
f 349/2/6 350/2/6 358/2/6
f 357/3/6 349/3/6 358/3/6
f 350/3/6 351/3/6 359/3/6
f 358/2/6 350/2/6 359/2/6
f 351/2/6 352/2/6 360/2/6
f 359/3/6 351/3/6 360/3/6
f 352/3/6 353/3/6 361/3/6
f 360/2/6 352/2/6 361/2/6
f 353/2/6 354/2/6 362/2/6
f 361/3/6 353/3/6 362/3/6
f 354/4/6 355/4/6 363/4/6
f 362/2/6 354/2/6 363/2/6
f 363/4/6 355/4/6 364/4/6
f 365/5/6 366/5/6 371/5/6
f 371/5/6 366/5/6 372/5/6
f 367/2/6 368/2/6 373/2/6
f 373/2/6 368/2/6 374/2/6
f 369/2/6 370/2/6 375/2/6
f 375/2/6 370/2/6 376/2/6
f 377/5/6 378/5/6 379/5/6
f 379/5/6 378/5/6 380/5/6
f 381/1/6 382/1/6 383/1/6
f 383/1/6 382/1/6 384/1/6
