# MagicaVoxel @ ephtracy

# material
mtllib lakefish_02.mtl
usemtl palette

# normals
vn -1 0 0
vn 1 0 0
vn 0 0 1
vn 0 0 -1
vn 0 -1 0
vn 0 1 0

# texcoords
vt 0.00195313 0.5
vt 0.00585938 0.5
vt 0.00976563 0.5
vt 0.0136719 0.5
vt 0.0175781 0.5

# verts
v -14 5 -0
v -14 5 -1
v -14 7 -0
v -14 7 -1
v -14 9 -0
v -14 9 -1
v -14 11 -0
v -14 11 -1
v -13 7 -0
v -13 7 -1
v -13 9 -0
v -13 9 -1
v -8 4 -0
v -8 4 -1
v -8 6 -0
v -8 6 -1
v -8 7 1
v -8 7 -0
v -8 7 -1
v -8 7 -2
v -8 8 1
v -8 8 -0
v -8 8 -1
v -8 8 -2
v -8 9 1
v -8 9 -0
v -8 9 -1
v -8 9 -2
v -8 10 -0
v -8 10 -1
v -8 12 -0
v -8 12 -1
v -7 6 1
v -7 6 -0
v -7 6 -1
v -7 6 -2
v -7 7 1
v -7 7 -2
v -7 9 1
v -7 9 -0
v -7 9 -1
v -7 9 -2
v -7 10 1
v -7 10 -0
v -7 10 -1
v -7 10 -2
v 2 4 -0
v 2 4 -1
v 2 6 -0
v 2 6 -1
v 7 4 -0
v 7 4 -1
v 7 6 -0
v 7 6 -1
v -12 5 -0
v -12 5 -1
v -12 6 -0
v -12 6 -1
v -12 10 -0
v -12 10 -1
v -12 11 -0
v -12 11 -1
v -11 6 -0
v -11 6 -1
v -11 7 -0
v -11 7 -1
v -11 9 -0
v -11 9 -1
v -11 10 -0
v -11 10 -1
v -5 4 -0
v -5 4 -1
v -5 6 -0
v -5 6 -1
v -5 10 -0
v -5 10 -1
v -5 12 -0
v -5 12 -1
v 4 4 -0
v 4 4 -1
v 4 6 -0
v 4 6 -1
v 9 4 -0
v 9 4 -1
v 9 6 -0
v 9 6 -1
v 11 9 1
v 11 9 -2
v 11 10 1
v 11 10 -2
v 12 8 1
v 12 8 -2
v 12 9 1
v 12 9 -2
v 14 6 1
v 14 6 -2
v 14 7 1
v 14 7 -2
v 14 8 1
v 14 8 -2
v -8 7 1
v -8 8 1
v -8 9 1
v -7 6 1
v -7 7 1
v -7 8 1
v -7 9 1
v -7 10 1
v -6 7 1
v -6 8 1
v -6 9 1
v -6 10 1
v -5 7 1
v -5 8 1
v -5 9 1
v -5 10 1
v -4 7 1
v -4 8 1
v -4 9 1
v -4 10 1
v -3 7 1
v -3 8 1
v -3 9 1
v -3 10 1
v -2 7 1
v -2 8 1
v -2 9 1
v -2 10 1
v -1 7 1
v -1 8 1
v -1 9 1
v -1 10 1
v 0 7 1
v 0 8 1
v 0 9 1
v 0 10 1
v 1 7 1
v 1 8 1
v 1 9 1
v 1 10 1
v 2 7 1
v 2 8 1
v 2 9 1
v 2 10 1
v 3 7 1
v 3 8 1
v 3 9 1
v 3 10 1
v 4 7 1
v 4 8 1
v 4 9 1
v 4 10 1
v 5 7 1
v 5 8 1
v 5 9 1
v 5 10 1
v 6 7 1
v 6 8 1
v 6 9 1
v 6 10 1
v 7 7 1
v 7 8 1
v 7 9 1
v 7 10 1
v 8 7 1
v 8 8 1
v 8 9 1
v 8 10 1
v 9 8 1
v 9 9 1
v 9 10 1
v 10 8 1
v 10 9 1
v 10 10 1
v 11 8 1
v 11 9 1
v 11 10 1
v 12 8 1
v 12 9 1
v 14 6 1
v 14 7 1
v 14 8 1
v -14 5 -0
v -14 7 -0
v -14 9 -0
v -14 11 -0
v -13 7 -0
v -13 9 -0
v -12 5 -0
v -12 6 -0
v -12 10 -0
v -12 11 -0
v -11 6 -0
v -11 7 -0
v -11 9 -0
v -11 10 -0
v -10 7 -0
v -10 8 -0
v -10 9 -0
v -9 7 -0
v -9 8 -0
v -9 9 -0
v -8 4 -0
v -8 6 -0
v -8 7 -0
v -8 8 -0
v -8 9 -0
v -8 10 -0
v -8 12 -0
v -7 6 -0
v -7 10 -0
v -6 10 -0
v -5 4 -0
v -5 6 -0
v -5 10 -0
v -5 12 -0
v 2 4 -0
v 2 6 -0
v 4 4 -0
v 4 6 -0
v 7 4 -0
v 7 6 -0
v 9 4 -0
v 9 6 -0
v -14 5 -1
v -14 7 -1
v -14 9 -1
v -14 11 -1
v -13 7 -1
v -13 9 -1
v -12 5 -1
v -12 6 -1
v -12 10 -1
v -12 11 -1
v -11 6 -1
v -11 7 -1
v -11 9 -1
v -11 10 -1
v -10 7 -1
v -10 8 -1
v -10 9 -1
v -9 7 -1
v -9 8 -1
v -9 9 -1
v -8 4 -1
v -8 6 -1
v -8 7 -1
v -8 8 -1
v -8 9 -1
v -8 10 -1
v -8 12 -1
v -7 6 -1
v -7 10 -1
v -6 10 -1
v -5 4 -1
v -5 6 -1
v -5 10 -1
v -5 12 -1
v 2 4 -1
v 2 6 -1
v 4 4 -1
v 4 6 -1
v 7 4 -1
v 7 6 -1
v 9 4 -1
v 9 6 -1
v -8 7 -2
v -8 8 -2
v -8 9 -2
v -7 6 -2
v -7 7 -2
v -7 8 -2
v -7 9 -2
v -7 10 -2
v -6 7 -2
v -6 8 -2
v -6 9 -2
v -6 10 -2
v -5 7 -2
v -5 8 -2
v -5 9 -2
v -5 10 -2
v -4 7 -2
v -4 8 -2
v -4 9 -2
v -4 10 -2
v -3 7 -2
v -3 8 -2
v -3 9 -2
v -3 10 -2
v -2 7 -2
v -2 8 -2
v -2 9 -2
v -2 10 -2
v -1 7 -2
v -1 8 -2
v -1 9 -2
v -1 10 -2
v 0 7 -2
v 0 8 -2
v 0 9 -2
v 0 10 -2
v 1 7 -2
v 1 8 -2
v 1 9 -2
v 1 10 -2
v 2 7 -2
v 2 8 -2
v 2 9 -2
v 2 10 -2
v 3 7 -2
v 3 8 -2
v 3 9 -2
v 3 10 -2
v 4 7 -2
v 4 8 -2
v 4 9 -2
v 4 10 -2
v 5 7 -2
v 5 8 -2
v 5 9 -2
v 5 10 -2
v 6 7 -2
v 6 8 -2
v 6 9 -2
v 6 10 -2
v 7 7 -2
v 7 8 -2
v 7 9 -2
v 7 10 -2
v 8 7 -2
v 8 8 -2
v 8 9 -2
v 8 10 -2
v 9 8 -2
v 9 9 -2
v 9 10 -2
v 10 8 -2
v 10 9 -2
v 10 10 -2
v 11 8 -2
v 11 9 -2
v 11 10 -2
v 12 8 -2
v 12 9 -2
v 14 6 -2
v 14 7 -2
v 14 8 -2
v -8 4 -0
v -5 4 -0
v 2 4 -0
v 4 4 -0
v 7 4 -0
v 9 4 -0
v -8 4 -1
v -5 4 -1
v 2 4 -1
v 4 4 -1
v 7 4 -1
v 9 4 -1
v -14 5 -0
v -12 5 -0
v -14 5 -1
v -12 5 -1
v -7 6 1
v 14 6 1
v -12 6 -0
v -11 6 -0
v -7 6 -0
v -5 6 -0
v 2 6 -0
v 4 6 -0
v 7 6 -0
v 9 6 -0
v -12 6 -1
v -11 6 -1
v -7 6 -1
v -5 6 -1
v 2 6 -1
v 4 6 -1
v 7 6 -1
v 9 6 -1
v -7 6 -2
v 14 6 -2
v -8 7 1
v -7 7 1
v -11 7 -0
v -10 7 -0
v -9 7 -0
v -8 7 -0
v -11 7 -1
v -10 7 -1
v -9 7 -1
v -8 7 -1
v -8 7 -2
v -7 7 -2
v -14 9 -0
v -13 9 -0
v -14 9 -1
v -13 9 -1
v -8 10 -0
v -7 10 -0
v -8 10 -1
v -7 10 -1
v -8 6 -0
v -7 6 -0
v -8 6 -1
v -7 6 -1
v -14 7 -0
v -13 7 -0
v -14 7 -1
v -13 7 -1
v 12 8 1
v 14 8 1
v 12 8 -2
v 14 8 -2
v -8 9 1
v -7 9 1
v 11 9 1
v 12 9 1
v -11 9 -0
v -10 9 -0
v -9 9 -0
v -8 9 -0
v -7 9 -0
v -11 9 -1
v -10 9 -1
v -9 9 -1
v -8 9 -1
v -7 9 -1
v -8 9 -2
v -7 9 -2
v 11 9 -2
v 12 9 -2
v -7 10 1
v -6 10 1
v -5 10 1
v -4 10 1
v -3 10 1
v -2 10 1
v -1 10 1
v 0 10 1
v 1 10 1
v 2 10 1
v 3 10 1
v 4 10 1
v 5 10 1
v 6 10 1
v 7 10 1
v 8 10 1
v 9 10 1
v 10 10 1
v 11 10 1
v -12 10 -0
v -11 10 -0
v -7 10 -0
v -6 10 -0
v -5 10 -0
v -4 10 -0
v -3 10 -0
v -2 10 -0
v -1 10 -0
v 0 10 -0
v 1 10 -0
v 2 10 -0
v 3 10 -0
v 4 10 -0
v 5 10 -0
v 6 10 -0
v 7 10 -0
v 8 10 -0
v 9 10 -0
v 10 10 -0
v -12 10 -1
v -11 10 -1
v -7 10 -1
v -6 10 -1
v -5 10 -1
v -4 10 -1
v -3 10 -1
v -2 10 -1
v -1 10 -1
v 0 10 -1
v 1 10 -1
v 2 10 -1
v 3 10 -1
v 4 10 -1
v 5 10 -1
v 6 10 -1
v 7 10 -1
v 8 10 -1
v 9 10 -1
v 10 10 -1
v -7 10 -2
v -6 10 -2
v -5 10 -2
v -4 10 -2
v -3 10 -2
v -2 10 -2
v -1 10 -2
v 0 10 -2
v 1 10 -2
v 2 10 -2
v 3 10 -2
v 4 10 -2
v 5 10 -2
v 6 10 -2
v 7 10 -2
v 8 10 -2
v 9 10 -2
v 10 10 -2
v 11 10 -2
v -14 11 -0
v -12 11 -0
v -14 11 -1
v -12 11 -1
v -8 12 -0
v -5 12 -0
v -8 12 -1
v -5 12 -1

# faces
f 3/5/1 2/5/1 1/5/1
f 4/5/1 2/5/1 3/5/1
f 7/5/1 6/5/1 5/5/1
f 8/5/1 6/5/1 7/5/1
f 11/5/1 10/5/1 9/5/1
f 12/5/1 10/5/1 11/5/1
f 15/5/1 14/5/1 13/5/1
f 16/5/1 14/5/1 15/5/1
f 21/2/1 18/2/1 17/2/1
f 22/2/1 18/2/1 21/2/1
f 23/2/1 20/2/1 19/2/1
f 24/2/1 20/2/1 23/2/1
f 25/3/1 22/3/1 21/3/1
f 26/3/1 22/3/1 25/3/1
f 27/3/1 24/3/1 23/3/1
f 28/3/1 24/3/1 27/3/1
f 31/5/1 30/5/1 29/5/1
f 32/5/1 30/5/1 31/5/1
f 37/1/1 34/1/1 33/1/1
f 37/1/1 36/1/1 35/1/1
f 37/1/1 35/1/1 34/1/1
f 38/1/1 36/1/1 37/1/1
f 43/3/1 40/3/1 39/3/1
f 44/2/1 41/2/1 40/2/1
f 44/3/1 40/3/1 43/3/1
f 45/3/1 42/3/1 41/3/1
f 45/2/1 41/2/1 44/2/1
f 46/3/1 42/3/1 45/3/1
f 49/5/1 48/5/1 47/5/1
f 50/5/1 48/5/1 49/5/1
f 53/5/1 52/5/1 51/5/1
f 54/5/1 52/5/1 53/5/1
f 55/5/2 56/5/2 57/5/2
f 57/5/2 56/5/2 58/5/2
f 59/5/2 60/5/2 61/5/2
f 61/5/2 60/5/2 62/5/2
f 63/5/2 64/5/2 65/5/2
f 65/5/2 64/5/2 66/5/2
f 67/5/2 68/5/2 69/5/2
f 69/5/2 68/5/2 70/5/2
f 71/5/2 72/5/2 73/5/2
f 73/5/2 72/5/2 74/5/2
f 75/5/2 76/5/2 77/5/2
f 77/5/2 76/5/2 78/5/2
f 79/5/2 80/5/2 81/5/2
f 81/5/2 80/5/2 82/5/2
f 83/5/2 84/5/2 85/5/2
f 85/5/2 84/5/2 86/5/2
f 87/2/2 88/2/2 89/2/2
f 89/2/2 88/2/2 90/2/2
f 91/2/2 92/2/2 93/2/2
f 93/2/2 92/2/2 94/2/2
f 95/1/2 96/1/2 97/1/2
f 97/1/2 96/1/2 98/1/2
f 97/2/2 98/2/2 99/2/2
f 99/2/2 98/2/2 100/2/2
f 105/2/3 102/2/3 101/2/3
f 106/3/3 103/3/3 102/3/3
f 106/2/3 102/2/3 105/2/3
f 107/3/3 103/3/3 106/3/3
f 109/1/3 105/1/3 104/1/3
f 109/3/3 106/3/3 105/3/3
f 110/2/3 107/2/3 106/2/3
f 110/3/3 106/3/3 109/3/3
f 111/3/3 108/3/3 107/3/3
f 111/2/3 107/2/3 110/2/3
f 112/3/3 108/3/3 111/3/3
f 113/2/3 110/2/3 109/2/3
f 113/1/3 109/1/3 104/1/3
f 114/3/3 111/3/3 110/3/3
f 114/2/3 110/2/3 113/2/3
f 115/2/3 112/2/3 111/2/3
f 115/3/3 111/3/3 114/3/3
f 116/2/3 112/2/3 115/2/3
f 117/3/3 114/3/3 113/3/3
f 117/1/3 113/1/3 104/1/3
f 118/2/3 115/2/3 114/2/3
f 118/3/3 114/3/3 117/3/3
f 119/3/3 116/3/3 115/3/3
f 119/2/3 115/2/3 118/2/3
f 120/3/3 116/3/3 119/3/3
f 121/2/3 118/2/3 117/2/3
f 121/1/3 117/1/3 104/1/3
f 122/3/3 119/3/3 118/3/3
f 122/2/3 118/2/3 121/2/3
f 123/2/3 120/2/3 119/2/3
f 123/3/3 119/3/3 122/3/3
f 124/2/3 120/2/3 123/2/3
f 125/3/3 122/3/3 121/3/3
f 125/1/3 121/1/3 104/1/3
f 126/2/3 123/2/3 122/2/3
f 126/3/3 122/3/3 125/3/3
f 127/3/3 124/3/3 123/3/3
f 127/2/3 123/2/3 126/2/3
f 128/3/3 124/3/3 127/3/3
f 129/2/3 126/2/3 125/2/3
f 129/1/3 125/1/3 104/1/3
f 130/3/3 127/3/3 126/3/3
f 130/2/3 126/2/3 129/2/3
f 131/2/3 128/2/3 127/2/3
f 131/3/3 127/3/3 130/3/3
f 132/2/3 128/2/3 131/2/3
f 133/3/3 130/3/3 129/3/3
f 133/1/3 129/1/3 104/1/3
f 134/2/3 131/2/3 130/2/3
f 134/3/3 130/3/3 133/3/3
f 135/3/3 132/3/3 131/3/3
f 135/2/3 131/2/3 134/2/3
f 136/3/3 132/3/3 135/3/3
f 137/2/3 134/2/3 133/2/3
f 137/1/3 133/1/3 104/1/3
f 138/3/3 135/3/3 134/3/3
f 138/2/3 134/2/3 137/2/3
f 139/2/3 136/2/3 135/2/3
f 139/3/3 135/3/3 138/3/3
f 140/2/3 136/2/3 139/2/3
f 141/3/3 138/3/3 137/3/3
f 141/1/3 137/1/3 104/1/3
f 142/2/3 139/2/3 138/2/3
f 142/3/3 138/3/3 141/3/3
f 143/3/3 140/3/3 139/3/3
f 143/2/3 139/2/3 142/2/3
f 144/3/3 140/3/3 143/3/3
f 145/2/3 142/2/3 141/2/3
f 145/1/3 141/1/3 104/1/3
f 146/3/3 143/3/3 142/3/3
f 146/2/3 142/2/3 145/2/3
f 147/2/3 144/2/3 143/2/3
f 147/3/3 143/3/3 146/3/3
f 148/2/3 144/2/3 147/2/3
f 149/3/3 146/3/3 145/3/3
f 149/1/3 145/1/3 104/1/3
f 150/2/3 147/2/3 146/2/3
f 150/3/3 146/3/3 149/3/3
f 151/3/3 148/3/3 147/3/3
f 151/2/3 147/2/3 150/2/3
f 152/3/3 148/3/3 151/3/3
f 153/2/3 150/2/3 149/2/3
f 153/1/3 149/1/3 104/1/3
f 154/3/3 151/3/3 150/3/3
f 154/2/3 150/2/3 153/2/3
f 155/2/3 152/2/3 151/2/3
f 155/3/3 151/3/3 154/3/3
f 156/2/3 152/2/3 155/2/3
f 157/3/3 154/3/3 153/3/3
f 157/1/3 153/1/3 104/1/3
f 158/2/3 155/2/3 154/2/3
f 158/3/3 154/3/3 157/3/3
f 159/3/3 156/3/3 155/3/3
f 159/2/3 155/2/3 158/2/3
f 160/3/3 156/3/3 159/3/3
f 161/2/3 158/2/3 157/2/3
f 161/1/3 157/1/3 104/1/3
f 162/3/3 159/3/3 158/3/3
f 162/2/3 158/2/3 161/2/3
f 163/2/3 160/2/3 159/2/3
f 163/3/3 159/3/3 162/3/3
f 164/2/3 160/2/3 163/2/3
f 165/3/3 162/3/3 161/3/3
f 165/1/3 161/1/3 104/1/3
f 166/2/3 163/2/3 162/2/3
f 166/3/3 162/3/3 165/3/3
f 167/3/3 164/3/3 163/3/3
f 167/2/3 163/2/3 166/2/3
f 168/3/3 164/3/3 167/3/3
f 169/2/3 166/2/3 165/2/3
f 169/3/3 167/3/3 166/3/3
f 170/2/3 168/2/3 167/2/3
f 170/3/3 167/3/3 169/3/3
f 171/2/3 168/2/3 170/2/3
f 172/2/3 169/2/3 165/2/3
f 172/2/3 170/2/3 169/2/3
f 173/3/3 171/3/3 170/3/3
f 173/2/3 170/2/3 172/2/3
f 174/3/3 171/3/3 173/3/3
f 175/2/3 172/2/3 165/2/3
f 175/4/3 173/4/3 172/4/3
f 176/2/3 174/2/3 173/2/3
f 176/4/3 173/4/3 175/4/3
f 177/2/3 174/2/3 176/2/3
f 178/2/3 175/2/3 165/2/3
f 178/2/3 176/2/3 175/2/3
f 179/2/3 176/2/3 178/2/3
f 180/1/3 165/1/3 104/1/3
f 181/2/3 178/2/3 165/2/3
f 181/1/3 165/1/3 180/1/3
f 182/2/3 178/2/3 181/2/3
f 187/5/3 184/5/3 183/5/3
f 188/5/3 186/5/3 185/5/3
f 189/5/3 187/5/3 183/5/3
f 189/5/3 188/5/3 187/5/3
f 190/5/3 188/5/3 189/5/3
f 191/5/3 186/5/3 188/5/3
f 191/5/3 188/5/3 190/5/3
f 192/5/3 186/5/3 191/5/3
f 193/5/3 191/5/3 190/5/3
f 194/5/3 191/5/3 193/5/3
f 195/5/3 191/5/3 194/5/3
f 196/5/3 191/5/3 195/5/3
f 197/5/3 195/5/3 194/5/3
f 198/5/3 195/5/3 197/5/3
f 199/5/3 195/5/3 198/5/3
f 200/2/3 198/2/3 197/2/3
f 201/3/3 199/3/3 198/3/3
f 201/2/3 198/2/3 200/2/3
f 202/3/3 199/3/3 201/3/3
f 205/3/3 201/3/3 200/3/3
f 206/2/3 202/2/3 201/2/3
f 206/3/3 201/3/3 205/3/3
f 207/2/3 202/2/3 206/2/3
f 210/5/3 204/5/3 203/5/3
f 211/5/3 209/5/3 208/5/3
f 212/5/3 209/5/3 211/5/3
f 213/5/3 210/5/3 203/5/3
f 214/5/3 210/5/3 213/5/3
f 215/5/3 209/5/3 212/5/3
f 216/5/3 209/5/3 215/5/3
f 219/5/3 218/5/3 217/5/3
f 220/5/3 218/5/3 219/5/3
f 223/5/3 222/5/3 221/5/3
f 224/5/3 222/5/3 223/5/3
f 225/5/4 226/5/4 229/5/4
f 227/5/4 228/5/4 230/5/4
f 225/5/4 229/5/4 231/5/4
f 229/5/4 230/5/4 231/5/4
f 231/5/4 230/5/4 232/5/4
f 230/5/4 228/5/4 233/5/4
f 232/5/4 230/5/4 233/5/4
f 233/5/4 228/5/4 234/5/4
f 232/5/4 233/5/4 235/5/4
f 235/5/4 233/5/4 236/5/4
f 236/5/4 233/5/4 237/5/4
f 237/5/4 233/5/4 238/5/4
f 236/5/4 237/5/4 239/5/4
f 239/5/4 237/5/4 240/5/4
f 240/5/4 237/5/4 241/5/4
f 239/2/4 240/2/4 242/2/4
f 240/3/4 241/3/4 243/3/4
f 242/2/4 240/2/4 243/2/4
f 243/3/4 241/3/4 244/3/4
f 242/3/4 243/3/4 247/3/4
f 243/2/4 244/2/4 248/2/4
f 247/3/4 243/3/4 248/3/4
f 248/2/4 244/2/4 249/2/4
f 245/5/4 246/5/4 252/5/4
f 250/5/4 251/5/4 253/5/4
f 253/5/4 251/5/4 254/5/4
f 245/5/4 252/5/4 255/5/4
f 255/5/4 252/5/4 256/5/4
f 254/5/4 251/5/4 257/5/4
f 257/5/4 251/5/4 258/5/4
f 259/5/4 260/5/4 261/5/4
f 261/5/4 260/5/4 262/5/4
f 263/5/4 264/5/4 265/5/4
f 265/5/4 264/5/4 266/5/4
f 267/2/4 268/2/4 271/2/4
f 268/3/4 269/3/4 272/3/4
f 271/2/4 268/2/4 272/2/4
f 272/3/4 269/3/4 273/3/4
f 270/1/4 271/1/4 275/1/4
f 271/3/4 272/3/4 275/3/4
f 272/2/4 273/2/4 276/2/4
f 275/3/4 272/3/4 276/3/4
f 273/3/4 274/3/4 277/3/4
f 276/2/4 273/2/4 277/2/4
f 277/3/4 274/3/4 278/3/4
f 275/2/4 276/2/4 279/2/4
f 270/1/4 275/1/4 279/1/4
f 276/3/4 277/3/4 280/3/4
f 279/2/4 276/2/4 280/2/4
f 277/2/4 278/2/4 281/2/4
f 280/3/4 277/3/4 281/3/4
f 281/2/4 278/2/4 282/2/4
f 279/3/4 280/3/4 283/3/4
f 270/1/4 279/1/4 283/1/4
f 280/2/4 281/2/4 284/2/4
f 283/3/4 280/3/4 284/3/4
f 281/3/4 282/3/4 285/3/4
f 284/2/4 281/2/4 285/2/4
f 285/3/4 282/3/4 286/3/4
f 283/2/4 284/2/4 287/2/4
f 270/1/4 283/1/4 287/1/4
f 284/3/4 285/3/4 288/3/4
f 287/2/4 284/2/4 288/2/4
f 285/2/4 286/2/4 289/2/4
f 288/3/4 285/3/4 289/3/4
f 289/2/4 286/2/4 290/2/4
f 287/3/4 288/3/4 291/3/4
f 270/1/4 287/1/4 291/1/4
f 288/2/4 289/2/4 292/2/4
f 291/3/4 288/3/4 292/3/4
f 289/3/4 290/3/4 293/3/4
f 292/2/4 289/2/4 293/2/4
f 293/3/4 290/3/4 294/3/4
f 291/2/4 292/2/4 295/2/4
f 270/1/4 291/1/4 295/1/4
f 292/3/4 293/3/4 296/3/4
f 295/2/4 292/2/4 296/2/4
f 293/2/4 294/2/4 297/2/4
f 296/3/4 293/3/4 297/3/4
f 297/2/4 294/2/4 298/2/4
f 295/3/4 296/3/4 299/3/4
f 270/1/4 295/1/4 299/1/4
f 296/2/4 297/2/4 300/2/4
f 299/3/4 296/3/4 300/3/4
f 297/3/4 298/3/4 301/3/4
f 300/2/4 297/2/4 301/2/4
f 301/3/4 298/3/4 302/3/4
f 299/2/4 300/2/4 303/2/4
f 270/1/4 299/1/4 303/1/4
f 300/3/4 301/3/4 304/3/4
f 303/2/4 300/2/4 304/2/4
f 301/2/4 302/2/4 305/2/4
f 304/3/4 301/3/4 305/3/4
f 305/2/4 302/2/4 306/2/4
f 303/3/4 304/3/4 307/3/4
f 270/1/4 303/1/4 307/1/4
f 304/2/4 305/2/4 308/2/4
f 307/3/4 304/3/4 308/3/4
f 305/3/4 306/3/4 309/3/4
f 308/2/4 305/2/4 309/2/4
f 309/3/4 306/3/4 310/3/4
f 307/2/4 308/2/4 311/2/4
f 270/1/4 307/1/4 311/1/4
f 308/3/4 309/3/4 312/3/4
f 311/2/4 308/2/4 312/2/4
f 309/2/4 310/2/4 313/2/4
f 312/3/4 309/3/4 313/3/4
f 313/2/4 310/2/4 314/2/4
f 311/3/4 312/3/4 315/3/4
f 270/1/4 311/1/4 315/1/4
f 312/2/4 313/2/4 316/2/4
f 315/3/4 312/3/4 316/3/4
f 313/3/4 314/3/4 317/3/4
f 316/2/4 313/2/4 317/2/4
f 317/3/4 314/3/4 318/3/4
f 315/2/4 316/2/4 319/2/4
f 270/1/4 315/1/4 319/1/4
f 316/3/4 317/3/4 320/3/4
f 319/2/4 316/2/4 320/2/4
f 317/2/4 318/2/4 321/2/4
f 320/3/4 317/3/4 321/3/4
f 321/2/4 318/2/4 322/2/4
f 319/3/4 320/3/4 323/3/4
f 270/1/4 319/1/4 323/1/4
f 320/2/4 321/2/4 324/2/4
f 323/3/4 320/3/4 324/3/4
f 321/3/4 322/3/4 325/3/4
f 324/2/4 321/2/4 325/2/4
f 325/3/4 322/3/4 326/3/4
f 323/2/4 324/2/4 327/2/4
f 270/1/4 323/1/4 327/1/4
f 324/3/4 325/3/4 328/3/4
f 327/2/4 324/2/4 328/2/4
f 325/2/4 326/2/4 329/2/4
f 328/3/4 325/3/4 329/3/4
f 329/2/4 326/2/4 330/2/4
f 327/3/4 328/3/4 331/3/4
f 270/1/4 327/1/4 331/1/4
f 328/2/4 329/2/4 332/2/4
f 331/3/4 328/3/4 332/3/4
f 329/3/4 330/3/4 333/3/4
f 332/2/4 329/2/4 333/2/4
f 333/3/4 330/3/4 334/3/4
f 331/2/4 332/2/4 335/2/4
f 332/3/4 333/3/4 335/3/4
f 333/2/4 334/2/4 336/2/4
f 335/3/4 333/3/4 336/3/4
f 336/2/4 334/2/4 337/2/4
f 331/2/4 335/2/4 338/2/4
f 335/2/4 336/2/4 338/2/4
f 336/3/4 337/3/4 339/3/4
f 338/2/4 336/2/4 339/2/4
f 339/3/4 337/3/4 340/3/4
f 331/2/4 338/2/4 341/2/4
f 338/4/4 339/4/4 341/4/4
f 339/2/4 340/2/4 342/2/4
f 341/4/4 339/4/4 342/4/4
f 342/2/4 340/2/4 343/2/4
f 331/2/4 341/2/4 344/2/4
f 341/2/4 342/2/4 344/2/4
f 344/2/4 342/2/4 345/2/4
f 270/1/4 331/1/4 346/1/4
f 331/2/4 344/2/4 347/2/4
f 346/1/4 331/1/4 347/1/4
f 347/2/4 344/2/4 348/2/4
f 355/5/5 350/5/5 349/5/5
f 356/5/5 350/5/5 355/5/5
f 357/5/5 352/5/5 351/5/5
f 358/5/5 352/5/5 357/5/5
f 359/5/5 354/5/5 353/5/5
f 360/5/5 354/5/5 359/5/5
f 363/5/5 362/5/5 361/5/5
f 364/5/5 362/5/5 363/5/5
f 369/1/5 366/1/5 365/1/5
f 370/1/5 366/1/5 369/1/5
f 371/1/5 366/1/5 370/1/5
f 372/1/5 366/1/5 371/1/5
f 373/1/5 366/1/5 372/1/5
f 374/1/5 366/1/5 373/1/5
f 375/5/5 368/5/5 367/5/5
f 376/5/5 368/5/5 375/5/5
f 378/1/5 371/1/5 370/1/5
f 379/1/5 371/1/5 378/1/5
f 380/1/5 373/1/5 372/1/5
f 381/1/5 373/1/5 380/1/5
f 382/1/5 366/1/5 374/1/5
f 383/1/5 381/1/5 380/1/5
f 383/1/5 382/1/5 381/1/5
f 383/1/5 379/1/5 378/1/5
f 383/1/5 380/1/5 379/1/5
f 383/1/5 378/1/5 377/1/5
f 384/1/5 366/1/5 382/1/5
f 384/1/5 382/1/5 383/1/5
f 390/2/5 386/2/5 385/2/5
f 391/5/5 388/5/5 387/5/5
f 392/2/5 389/2/5 388/2/5
f 392/5/5 388/5/5 391/5/5
f 393/3/5 390/3/5 389/3/5
f 393/2/5 389/2/5 392/2/5
f 394/2/5 386/2/5 390/2/5
f 394/3/5 390/3/5 393/3/5
f 395/2/5 386/2/5 394/2/5
f 396/2/5 386/2/5 395/2/5
f 399/5/5 398/5/5 397/5/5
f 400/5/5 398/5/5 399/5/5
f 403/5/5 402/5/5 401/5/5
f 404/5/5 402/5/5 403/5/5
f 405/5/6 406/5/6 407/5/6
f 407/5/6 406/5/6 408/5/6
f 409/5/6 410/5/6 411/5/6
f 411/5/6 410/5/6 412/5/6
f 413/2/6 414/2/6 415/2/6
f 415/2/6 414/2/6 416/2/6
f 417/3/6 418/3/6 424/3/6
f 424/3/6 418/3/6 425/3/6
f 421/5/6 422/5/6 426/5/6
f 422/3/6 423/3/6 427/3/6
f 426/5/6 422/5/6 427/5/6
f 423/2/6 424/2/6 428/2/6
f 427/3/6 423/3/6 428/3/6
f 424/2/6 425/2/6 428/2/6
f 428/2/6 425/2/6 429/2/6
f 429/2/6 425/2/6 430/2/6
f 429/3/6 430/3/6 431/3/6
f 431/3/6 430/3/6 432/3/6
f 419/2/6 420/2/6 433/2/6
f 433/2/6 420/2/6 434/2/6
f 435/3/6 436/3/6 456/3/6
f 436/2/6 437/2/6 457/2/6
f 456/3/6 436/3/6 457/3/6
f 437/3/6 438/3/6 458/3/6
f 457/2/6 437/2/6 458/2/6
f 438/2/6 439/2/6 459/2/6
f 458/3/6 438/3/6 459/3/6
f 439/3/6 440/3/6 460/3/6
f 459/2/6 439/2/6 460/2/6
f 440/2/6 441/2/6 461/2/6
f 460/3/6 440/3/6 461/3/6
f 441/3/6 442/3/6 462/3/6
f 461/2/6 441/2/6 462/2/6
f 442/2/6 443/2/6 463/2/6
f 462/3/6 442/3/6 463/3/6
f 443/3/6 444/3/6 464/3/6
f 463/2/6 443/2/6 464/2/6
f 444/2/6 445/2/6 465/2/6
f 464/3/6 444/3/6 465/3/6
f 445/3/6 446/3/6 466/3/6
f 465/2/6 445/2/6 466/2/6
f 446/2/6 447/2/6 467/2/6
f 466/3/6 446/3/6 467/3/6
f 447/3/6 448/3/6 468/3/6
f 467/2/6 447/2/6 468/2/6
f 448/2/6 449/2/6 469/2/6
f 468/3/6 448/3/6 469/3/6
f 449/3/6 450/3/6 470/3/6
f 469/2/6 449/2/6 470/2/6
f 450/2/6 451/2/6 471/2/6
f 470/3/6 450/3/6 471/3/6
f 451/3/6 452/3/6 472/3/6
f 471/2/6 451/2/6 472/2/6
f 452/2/6 453/2/6 473/2/6
f 472/3/6 452/3/6 473/3/6
f 454/5/6 455/5/6 474/5/6
f 474/5/6 455/5/6 475/5/6
f 458/2/6 459/2/6 478/2/6
f 459/3/6 460/3/6 479/3/6
f 478/2/6 459/2/6 479/2/6
f 460/2/6 461/2/6 480/2/6
f 479/3/6 460/3/6 480/3/6
f 461/3/6 462/3/6 481/3/6
f 480/2/6 461/2/6 481/2/6
f 462/2/6 463/2/6 482/2/6
f 481/3/6 462/3/6 482/3/6
f 463/3/6 464/3/6 483/3/6
f 482/2/6 463/2/6 483/2/6
f 464/2/6 465/2/6 484/2/6
f 483/3/6 464/3/6 484/3/6
f 465/3/6 466/3/6 485/3/6
f 484/2/6 465/2/6 485/2/6
f 466/2/6 467/2/6 486/2/6
f 485/3/6 466/3/6 486/3/6
f 467/3/6 468/3/6 487/3/6
f 486/2/6 467/2/6 487/2/6
f 468/2/6 469/2/6 488/2/6
f 487/3/6 468/3/6 488/3/6
f 469/3/6 470/3/6 489/3/6
f 488/2/6 469/2/6 489/2/6
f 470/2/6 471/2/6 490/2/6
f 489/3/6 470/3/6 490/3/6
f 471/3/6 472/3/6 491/3/6
f 490/2/6 471/2/6 491/2/6
f 472/2/6 473/2/6 492/2/6
f 491/3/6 472/3/6 492/3/6
f 473/2/6 453/2/6 493/2/6
f 492/2/6 473/2/6 493/2/6
f 476/3/6 477/3/6 494/3/6
f 477/2/6 478/2/6 495/2/6
f 494/3/6 477/3/6 495/3/6
f 478/3/6 479/3/6 496/3/6
f 495/2/6 478/2/6 496/2/6
f 479/2/6 480/2/6 497/2/6
f 496/3/6 479/3/6 497/3/6
f 480/3/6 481/3/6 498/3/6
f 497/2/6 480/2/6 498/2/6
f 481/2/6 482/2/6 499/2/6
f 498/3/6 481/3/6 499/3/6
f 482/3/6 483/3/6 500/3/6
f 499/2/6 482/2/6 500/2/6
f 483/2/6 484/2/6 501/2/6
f 500/3/6 483/3/6 501/3/6
f 484/3/6 485/3/6 502/3/6
f 501/2/6 484/2/6 502/2/6
f 485/2/6 486/2/6 503/2/6
f 502/3/6 485/3/6 503/3/6
f 486/3/6 487/3/6 504/3/6
f 503/2/6 486/2/6 504/2/6
f 487/2/6 488/2/6 505/2/6
f 504/3/6 487/3/6 505/3/6
f 488/3/6 489/3/6 506/3/6
f 505/2/6 488/2/6 506/2/6
f 489/2/6 490/2/6 507/2/6
f 506/3/6 489/3/6 507/3/6
f 490/3/6 491/3/6 508/3/6
f 507/2/6 490/2/6 508/2/6
f 491/2/6 492/2/6 509/2/6
f 508/3/6 491/3/6 509/3/6
f 492/3/6 493/3/6 510/3/6
f 509/2/6 492/2/6 510/2/6
f 493/2/6 453/2/6 511/2/6
f 510/3/6 493/3/6 511/3/6
f 511/2/6 453/2/6 512/2/6
f 513/5/6 514/5/6 515/5/6
f 515/5/6 514/5/6 516/5/6
f 517/5/6 518/5/6 519/5/6
f 519/5/6 518/5/6 520/5/6
