# MagicaVoxel @ ephtracy

# material
mtllib lakefish_01.mtl
usemtl palette

# normals
vn -1 0 0
vn 1 0 0
vn 0 0 1
vn 0 0 -1
vn 0 -1 0
vn 0 1 0

# texcoords
vt 0.00195313 0.5
vt 0.00585938 0.5
vt 0.00976563 0.5
vt 0.0136719 0.5
vt 0.0175781 0.5
vt 0.0214844 0.5

# verts
v -4 5 -0
v -4 5 -1
v -4 7 -0
v -4 7 -1
v -4 8 -0
v -4 8 -1
v -4 10 -0
v -4 10 -1
v -3 7 -0
v -3 7 -1
v -3 8 -0
v -3 8 -1
v -1 6 1
v -1 6 -2
v -1 7 -0
v -1 7 -1
v -1 8 1
v -1 8 -0
v -1 8 -1
v -1 8 -2
v -1 9 1
v -1 9 -2
v 1 5 -0
v 1 5 -1
v 1 6 -0
v 1 6 -1
v 1 9 1
v 1 9 -2
v 1 10 1
v 1 10 -0
v 1 10 -1
v 1 10 -2
v 1 11 -0
v 1 11 -1
v 2 11 -0
v 2 11 -1
v 2 12 -0
v 2 12 -1
v 5 10 -0
v 5 10 -1
v 5 11 -0
v 5 11 -1
v 6 5 1
v 6 5 -0
v 6 5 -1
v 6 5 -2
v 6 6 1
v 6 6 -0
v 6 6 -1
v 6 6 -2
v 6 11 -0
v 6 11 -1
v 6 12 -0
v 6 12 -1
v -3 5 -0
v -3 5 -1
v -3 6 -0
v -3 6 -1
v -3 9 -0
v -3 9 -1
v -3 10 -0
v -3 10 -1
v -2 6 -0
v -2 6 -1
v -2 7 -0
v -2 7 -1
v -2 8 -0
v -2 8 -1
v -2 9 -0
v -2 9 -1
v 3 5 -0
v 3 5 -1
v 3 6 -0
v 3 6 -1
v 4 10 -0
v 4 10 -1
v 4 12 -0
v 4 12 -1
v 8 5 1
v 8 5 -0
v 8 5 -1
v 8 5 -2
v 8 6 1
v 8 6 -0
v 8 6 -1
v 8 6 -2
v 8 10 -0
v 8 10 -1
v 8 12 -0
v 8 12 -1
v 10 9 1
v 10 9 -0
v 10 9 -1
v 10 9 -2
v 10 10 1
v 10 10 -2
v 11 8 1
v 11 8 -0
v 11 8 -1
v 11 8 -2
v 11 9 1
v 11 9 -0
v 11 9 -1
v 11 9 -2
v 12 6 1
v 12 6 -2
v 12 8 1
v 12 8 -2
v -1 6 1
v -1 8 1
v -1 9 1
v 0 8 1
v 0 9 1
v 1 7 1
v 1 8 1
v 1 9 1
v 1 10 1
v 2 7 1
v 2 8 1
v 2 10 1
v 3 8 1
v 3 10 1
v 4 8 1
v 4 10 1
v 5 7 1
v 5 8 1
v 5 10 1
v 6 5 1
v 6 6 1
v 6 7 1
v 6 8 1
v 6 10 1
v 7 8 1
v 7 10 1
v 8 5 1
v 8 6 1
v 8 8 1
v 8 10 1
v 10 8 1
v 10 9 1
v 10 10 1
v 11 8 1
v 11 9 1
v 12 6 1
v 12 8 1
v -4 5 -0
v -4 7 -0
v -4 8 -0
v -4 10 -0
v -3 5 -0
v -3 6 -0
v -3 7 -0
v -3 8 -0
v -3 9 -0
v -3 10 -0
v -2 6 -0
v -2 7 -0
v -2 8 -0
v -2 9 -0
v -1 7 -0
v -1 8 -0
v 1 5 -0
v 1 6 -0
v 1 10 -0
v 1 11 -0
v 2 10 -0
v 2 11 -0
v 2 12 -0
v 3 5 -0
v 3 6 -0
v 3 10 -0
v 4 10 -0
v 4 12 -0
v 5 10 -0
v 5 11 -0
v 6 10 -0
v 6 11 -0
v 6 12 -0
v 7 10 -0
v 8 10 -0
v 8 12 -0
v 6 5 -1
v 6 6 -1
v 8 5 -1
v 8 6 -1
v 6 5 -0
v 6 6 -0
v 8 5 -0
v 8 6 -0
v -4 5 -1
v -4 7 -1
v -4 8 -1
v -4 10 -1
v -3 5 -1
v -3 6 -1
v -3 7 -1
v -3 8 -1
v -3 9 -1
v -3 10 -1
v -2 6 -1
v -2 7 -1
v -2 8 -1
v -2 9 -1
v -1 7 -1
v -1 8 -1
v 1 5 -1
v 1 6 -1
v 1 10 -1
v 1 11 -1
v 2 10 -1
v 2 11 -1
v 2 12 -1
v 3 5 -1
v 3 6 -1
v 3 10 -1
v 4 10 -1
v 4 12 -1
v 5 10 -1
v 5 11 -1
v 6 10 -1
v 6 11 -1
v 6 12 -1
v 7 10 -1
v 8 10 -1
v 8 12 -1
v -1 6 -2
v -1 8 -2
v -1 9 -2
v 0 8 -2
v 0 9 -2
v 1 7 -2
v 1 8 -2
v 1 9 -2
v 1 10 -2
v 2 7 -2
v 2 8 -2
v 2 10 -2
v 3 8 -2
v 3 10 -2
v 4 8 -2
v 4 10 -2
v 5 7 -2
v 5 8 -2
v 5 10 -2
v 6 5 -2
v 6 6 -2
v 6 7 -2
v 6 8 -2
v 6 10 -2
v 7 8 -2
v 7 10 -2
v 8 5 -2
v 8 6 -2
v 8 8 -2
v 8 10 -2
v 10 8 -2
v 10 9 -2
v 10 10 -2
v 11 8 -2
v 11 9 -2
v 12 6 -2
v 12 8 -2
v 6 5 1
v 8 5 1
v -4 5 -0
v -3 5 -0
v 1 5 -0
v 3 5 -0
v 6 5 -0
v 8 5 -0
v -4 5 -1
v -3 5 -1
v 1 5 -1
v 3 5 -1
v 6 5 -1
v 8 5 -1
v 6 5 -2
v 8 5 -2
v -1 6 1
v 6 6 1
v 8 6 1
v 12 6 1
v -3 6 -0
v -2 6 -0
v 1 6 -0
v 3 6 -0
v 6 6 -0
v 8 6 -0
v -3 6 -1
v -2 6 -1
v 1 6 -1
v 3 6 -1
v 6 6 -1
v 8 6 -1
v -1 6 -2
v 6 6 -2
v 8 6 -2
v 12 6 -2
v -2 7 -0
v -1 7 -0
v -2 7 -1
v -1 7 -1
v -4 8 -0
v -3 8 -0
v -4 8 -1
v -3 8 -1
v -4 7 -0
v -3 7 -0
v -4 7 -1
v -3 7 -1
v 11 8 1
v 12 8 1
v -2 8 -0
v -1 8 -0
v 11 8 -0
v -2 8 -1
v -1 8 -1
v 11 8 -1
v 11 8 -2
v 12 8 -2
v -1 9 1
v 0 9 1
v 1 9 1
v 10 9 1
v 11 9 1
v -3 9 -0
v -2 9 -0
v 10 9 -0
v 11 9 -0
v -3 9 -1
v -2 9 -1
v 10 9 -1
v 11 9 -1
v -1 9 -2
v 0 9 -2
v 1 9 -2
v 10 9 -2
v 11 9 -2
v 1 10 1
v 2 10 1
v 3 10 1
v 4 10 1
v 5 10 1
v 6 10 1
v 7 10 1
v 8 10 1
v 10 10 1
v -4 10 -0
v -3 10 -0
v 1 10 -0
v 2 10 -0
v 3 10 -0
v 4 10 -0
v 5 10 -0
v 6 10 -0
v 7 10 -0
v 8 10 -0
v -4 10 -1
v -3 10 -1
v 1 10 -1
v 2 10 -1
v 3 10 -1
v 4 10 -1
v 5 10 -1
v 6 10 -1
v 7 10 -1
v 8 10 -1
v 1 10 -2
v 2 10 -2
v 3 10 -2
v 4 10 -2
v 5 10 -2
v 6 10 -2
v 7 10 -2
v 8 10 -2
v 10 10 -2
v 1 11 -0
v 2 11 -0
v 5 11 -0
v 6 11 -0
v 1 11 -1
v 2 11 -1
v 5 11 -1
v 6 11 -1
v 2 12 -0
v 4 12 -0
v 6 12 -0
v 8 12 -0
v 2 12 -1
v 4 12 -1
v 6 12 -1
v 8 12 -1

# faces
f 3/1/1 2/1/1 1/1/1
f 4/1/1 2/1/1 3/1/1
f 7/1/1 6/1/1 5/1/1
f 8/1/1 6/1/1 7/1/1
f 11/1/1 10/1/1 9/1/1
f 12/1/1 10/1/1 11/1/1
f 15/2/1 14/2/1 13/2/1
f 16/2/1 14/2/1 15/2/1
f 17/2/1 15/2/1 13/2/1
f 18/2/1 15/2/1 17/2/1
f 19/2/1 14/2/1 16/2/1
f 20/2/1 14/2/1 19/2/1
f 21/3/1 18/3/1 17/3/1
f 21/3/1 19/3/1 18/3/1
f 21/3/1 20/3/1 19/3/1
f 22/3/1 20/3/1 21/3/1
f 25/1/1 24/1/1 23/1/1
f 26/1/1 24/1/1 25/1/1
f 29/3/1 28/3/1 27/3/1
f 30/3/1 28/3/1 29/3/1
f 31/3/1 28/3/1 30/3/1
f 32/3/1 28/3/1 31/3/1
f 33/1/1 31/1/1 30/1/1
f 34/1/1 31/1/1 33/1/1
f 37/1/1 36/1/1 35/1/1
f 38/1/1 36/1/1 37/1/1
f 41/1/1 40/1/1 39/1/1
f 42/1/1 40/1/1 41/1/1
f 47/1/1 44/1/1 43/1/1
f 48/1/1 44/1/1 47/1/1
f 49/1/1 46/1/1 45/1/1
f 50/1/1 46/1/1 49/1/1
f 53/1/1 52/1/1 51/1/1
f 54/1/1 52/1/1 53/1/1
f 55/1/2 56/1/2 57/1/2
f 57/1/2 56/1/2 58/1/2
f 59/1/2 60/1/2 61/1/2
f 61/1/2 60/1/2 62/1/2
f 63/1/2 64/1/2 65/1/2
f 65/1/2 64/1/2 66/1/2
f 67/1/2 68/1/2 69/1/2
f 69/1/2 68/1/2 70/1/2
f 71/1/2 72/1/2 73/1/2
f 73/1/2 72/1/2 74/1/2
f 75/1/2 76/1/2 77/1/2
f 77/1/2 76/1/2 78/1/2
f 79/1/2 80/1/2 83/1/2
f 83/1/2 80/1/2 84/1/2
f 81/1/2 82/1/2 85/1/2
f 85/1/2 82/1/2 86/1/2
f 87/1/2 88/1/2 89/1/2
f 89/1/2 88/1/2 90/1/2
f 91/5/2 92/5/2 95/5/2
f 93/5/2 94/5/2 95/5/2
f 92/5/2 93/5/2 95/5/2
f 95/5/2 94/5/2 96/5/2
f 97/4/2 98/4/2 101/4/2
f 98/5/2 99/5/2 102/5/2
f 101/4/2 98/4/2 102/4/2
f 99/4/2 100/4/2 103/4/2
f 102/5/2 99/5/2 103/5/2
f 103/4/2 100/4/2 104/4/2
f 105/2/2 106/2/2 107/2/2
f 107/2/2 106/2/2 108/2/2
f 112/2/3 110/2/3 109/2/3
f 112/3/3 111/3/3 110/3/3
f 113/3/3 111/3/3 112/3/3
f 114/2/3 112/2/3 109/2/3
f 115/5/3 113/5/3 112/5/3
f 115/2/3 112/2/3 114/2/3
f 116/5/3 113/5/3 115/5/3
f 118/3/3 116/3/3 115/3/3
f 118/3/3 117/3/3 116/3/3
f 118/3/3 115/3/3 114/3/3
f 118/2/3 114/2/3 109/2/3
f 119/3/3 117/3/3 118/3/3
f 120/3/3 117/3/3 119/3/3
f 121/2/3 119/2/3 118/2/3
f 121/5/3 120/5/3 119/5/3
f 122/5/3 120/5/3 121/5/3
f 123/2/3 121/2/3 118/2/3
f 123/3/3 122/3/3 121/3/3
f 124/3/3 122/3/3 123/3/3
f 125/2/3 118/2/3 109/2/3
f 125/2/3 123/2/3 118/2/3
f 126/5/3 124/5/3 123/5/3
f 126/2/3 123/2/3 125/2/3
f 127/5/3 124/5/3 126/5/3
f 129/2/3 125/2/3 109/2/3
f 130/3/3 126/3/3 125/3/3
f 130/3/3 127/3/3 126/3/3
f 130/2/3 125/2/3 129/2/3
f 131/3/3 127/3/3 130/3/3
f 132/3/3 127/3/3 131/3/3
f 133/2/3 130/2/3 129/2/3
f 133/2/3 131/2/3 130/2/3
f 133/5/3 132/5/3 131/5/3
f 134/5/3 132/5/3 133/5/3
f 135/1/3 129/1/3 128/1/3
f 136/2/3 133/2/3 129/2/3
f 136/1/3 129/1/3 135/1/3
f 137/3/3 134/3/3 133/3/3
f 137/2/3 133/2/3 136/2/3
f 138/3/3 134/3/3 137/3/3
f 139/2/3 137/2/3 136/2/3
f 139/5/3 138/5/3 137/5/3
f 140/5/3 138/5/3 139/5/3
f 141/5/3 138/5/3 140/5/3
f 142/2/3 139/2/3 136/2/3
f 142/4/3 140/4/3 139/4/3
f 143/4/3 140/4/3 142/4/3
f 144/2/3 142/2/3 136/2/3
f 145/2/3 142/2/3 144/2/3
f 150/1/3 147/1/3 146/1/3
f 151/1/3 147/1/3 150/1/3
f 152/1/3 147/1/3 151/1/3
f 153/1/3 149/1/3 148/1/3
f 154/1/3 149/1/3 153/1/3
f 155/1/3 149/1/3 154/1/3
f 156/1/3 152/1/3 151/1/3
f 156/1/3 154/1/3 153/1/3
f 156/1/3 153/1/3 152/1/3
f 157/1/3 154/1/3 156/1/3
f 158/1/3 154/1/3 157/1/3
f 159/1/3 154/1/3 158/1/3
f 160/2/3 158/2/3 157/2/3
f 161/2/3 158/2/3 160/2/3
f 166/1/3 165/1/3 164/1/3
f 167/1/3 165/1/3 166/1/3
f 169/1/3 163/1/3 162/1/3
f 170/1/3 163/1/3 169/1/3
f 171/1/3 168/1/3 167/1/3
f 171/1/3 167/1/3 166/1/3
f 172/1/3 168/1/3 171/1/3
f 173/1/3 168/1/3 172/1/3
f 176/1/3 175/1/3 174/1/3
f 177/1/3 175/1/3 176/1/3
f 179/1/3 177/1/3 176/1/3
f 179/1/3 178/1/3 177/1/3
f 180/1/3 178/1/3 179/1/3
f 181/1/3 178/1/3 180/1/3
f 184/1/3 183/1/3 182/1/3
f 185/1/3 183/1/3 184/1/3
f 186/1/4 187/1/4 188/1/4
f 188/1/4 187/1/4 189/1/4
f 190/1/4 191/1/4 194/1/4
f 194/1/4 191/1/4 195/1/4
f 195/1/4 191/1/4 196/1/4
f 192/1/4 193/1/4 197/1/4
f 197/1/4 193/1/4 198/1/4
f 198/1/4 193/1/4 199/1/4
f 195/1/4 196/1/4 200/1/4
f 197/1/4 198/1/4 200/1/4
f 196/1/4 197/1/4 200/1/4
f 200/1/4 198/1/4 201/1/4
f 201/1/4 198/1/4 202/1/4
f 202/1/4 198/1/4 203/1/4
f 201/2/4 202/2/4 204/2/4
f 204/2/4 202/2/4 205/2/4
f 208/1/4 209/1/4 210/1/4
f 210/1/4 209/1/4 211/1/4
f 206/1/4 207/1/4 213/1/4
f 213/1/4 207/1/4 214/1/4
f 211/1/4 212/1/4 215/1/4
f 210/1/4 211/1/4 215/1/4
f 215/1/4 212/1/4 216/1/4
f 216/1/4 212/1/4 217/1/4
f 218/1/4 219/1/4 220/1/4
f 220/1/4 219/1/4 221/1/4
f 220/1/4 221/1/4 223/1/4
f 221/1/4 222/1/4 223/1/4
f 223/1/4 222/1/4 224/1/4
f 224/1/4 222/1/4 225/1/4
f 226/2/4 227/2/4 229/2/4
f 227/3/4 228/3/4 229/3/4
f 229/3/4 228/3/4 230/3/4
f 226/2/4 229/2/4 231/2/4
f 229/5/4 230/5/4 232/5/4
f 231/2/4 229/2/4 232/2/4
f 232/5/4 230/5/4 233/5/4
f 232/3/4 233/3/4 235/3/4
f 233/3/4 234/3/4 235/3/4
f 231/3/4 232/3/4 235/3/4
f 226/2/4 231/2/4 235/2/4
f 235/3/4 234/3/4 236/3/4
f 236/3/4 234/3/4 237/3/4
f 235/2/4 236/2/4 238/2/4
f 236/5/4 237/5/4 238/5/4
f 238/5/4 237/5/4 239/5/4
f 235/2/4 238/2/4 240/2/4
f 238/3/4 239/3/4 240/3/4
f 240/3/4 239/3/4 241/3/4
f 226/2/4 235/2/4 242/2/4
f 235/2/4 240/2/4 242/2/4
f 240/5/4 241/5/4 243/5/4
f 242/2/4 240/2/4 243/2/4
f 243/5/4 241/5/4 244/5/4
f 226/2/4 242/2/4 246/2/4
f 242/3/4 243/3/4 247/3/4
f 243/3/4 244/3/4 247/3/4
f 246/2/4 242/2/4 247/2/4
f 247/3/4 244/3/4 248/3/4
f 248/3/4 244/3/4 249/3/4
f 246/2/4 247/2/4 250/2/4
f 247/2/4 248/2/4 250/2/4
f 248/5/4 249/5/4 250/5/4
f 250/5/4 249/5/4 251/5/4
f 245/1/4 246/1/4 252/1/4
f 246/2/4 250/2/4 253/2/4
f 252/1/4 246/1/4 253/1/4
f 250/3/4 251/3/4 254/3/4
f 253/2/4 250/2/4 254/2/4
f 254/3/4 251/3/4 255/3/4
f 253/2/4 254/2/4 256/2/4
f 254/5/4 255/5/4 256/5/4
f 256/5/4 255/5/4 257/5/4
f 257/5/4 255/5/4 258/5/4
f 253/2/4 256/2/4 259/2/4
f 256/4/4 257/4/4 259/4/4
f 259/4/4 257/4/4 260/4/4
f 253/2/4 259/2/4 261/2/4
f 261/2/4 259/2/4 262/2/4
f 269/1/5 264/1/5 263/1/5
f 270/1/5 264/1/5 269/1/5
f 271/1/5 266/1/5 265/1/5
f 272/1/5 266/1/5 271/1/5
f 273/1/5 268/1/5 267/1/5
f 274/1/5 268/1/5 273/1/5
f 277/1/5 276/1/5 275/1/5
f 278/1/5 276/1/5 277/1/5
f 285/2/5 280/2/5 279/2/5
f 286/2/5 280/2/5 285/2/5
f 287/2/5 280/2/5 286/2/5
f 288/2/5 282/2/5 281/2/5
f 289/1/5 284/1/5 283/1/5
f 290/1/5 284/1/5 289/1/5
f 291/2/5 285/2/5 279/2/5
f 292/2/5 288/2/5 287/2/5
f 292/2/5 287/2/5 286/2/5
f 293/2/5 288/2/5 292/2/5
f 294/2/5 282/2/5 288/2/5
f 294/2/5 288/2/5 293/2/5
f 295/2/5 291/2/5 279/2/5
f 295/2/5 292/2/5 291/2/5
f 295/2/5 293/2/5 292/2/5
f 296/2/5 293/2/5 295/2/5
f 297/2/5 282/2/5 294/2/5
f 298/2/5 282/2/5 297/2/5
f 301/2/5 300/2/5 299/2/5
f 302/2/5 300/2/5 301/2/5
f 305/1/5 304/1/5 303/1/5
f 306/1/5 304/1/5 305/1/5
f 307/1/6 308/1/6 309/1/6
f 309/1/6 308/1/6 310/1/6
f 311/2/6 312/2/6 315/2/6
f 313/2/6 314/2/6 316/2/6
f 316/2/6 314/2/6 317/2/6
f 315/2/6 312/2/6 318/2/6
f 318/2/6 312/2/6 319/2/6
f 319/2/6 312/2/6 320/2/6
f 324/4/6 325/4/6 328/4/6
f 328/4/6 325/4/6 329/4/6
f 326/1/6 327/1/6 330/1/6
f 330/1/6 327/1/6 331/1/6
f 328/5/6 329/5/6 332/5/6
f 332/5/6 329/5/6 333/5/6
f 321/3/6 322/3/6 334/3/6
f 322/5/6 323/5/6 335/5/6
f 334/3/6 322/3/6 335/3/6
f 335/5/6 323/5/6 336/5/6
f 332/4/6 333/4/6 337/4/6
f 337/4/6 333/4/6 338/4/6
f 339/3/6 340/3/6 350/3/6
f 340/5/6 341/5/6 351/5/6
f 350/3/6 340/3/6 351/3/6
f 341/3/6 342/3/6 352/3/6
f 351/5/6 341/5/6 352/5/6
f 342/5/6 343/5/6 353/5/6
f 352/3/6 342/3/6 353/3/6
f 343/3/6 344/3/6 354/3/6
f 353/5/6 343/5/6 354/5/6
f 344/5/6 345/5/6 355/5/6
f 354/3/6 344/3/6 355/3/6
f 345/3/6 346/3/6 356/3/6
f 355/5/6 345/5/6 356/5/6
f 346/5/6 347/5/6 357/5/6
f 356/3/6 346/3/6 357/3/6
f 348/1/6 349/1/6 358/1/6
f 358/1/6 349/1/6 359/1/6
f 353/5/6 354/5/6 363/5/6
f 363/5/6 354/5/6 364/5/6
f 357/5/6 347/5/6 367/5/6
f 360/3/6 361/3/6 368/3/6
f 361/5/6 362/5/6 369/5/6
f 368/3/6 361/3/6 369/3/6
f 362/3/6 363/3/6 370/3/6
f 369/5/6 362/5/6 370/5/6
f 363/5/6 364/5/6 371/5/6
f 370/3/6 363/3/6 371/3/6
f 364/3/6 365/3/6 372/3/6
f 371/5/6 364/5/6 372/5/6
f 365/5/6 366/5/6 373/5/6
f 372/3/6 365/3/6 373/3/6
f 366/3/6 367/3/6 374/3/6
f 373/5/6 366/5/6 374/5/6
f 367/5/6 347/5/6 375/5/6
f 374/3/6 367/3/6 375/3/6
f 375/5/6 347/5/6 376/5/6
f 377/1/6 378/1/6 381/1/6
f 381/1/6 378/1/6 382/1/6
f 379/1/6 380/1/6 383/1/6
f 383/1/6 380/1/6 384/1/6
f 385/1/6 386/1/6 389/1/6
f 389/1/6 386/1/6 390/1/6
f 387/1/6 388/1/6 391/1/6
f 391/1/6 388/1/6 392/1/6
