# MagicaVoxel @ ephtracy

# material
mtllib mantaray.mtl
usemtl palette

# normals
vn -1 0 0
vn 1 0 0
vn 0 0 1
vn 0 0 -1
vn 0 -1 0
vn 0 1 0

# texcoords
vt 0.00195313 0.5
vt 0.00585938 0.5
vt 0.00976563 0.5
vt 0.0136719 0.5
vt 0.0175781 0.5
vt 0.0214844 0.5
vt 0.0253906 0.5

# verts
v -11 10 -10
v -11 10 -11
v -11 11 -10
v -11 11 -11
v -10 10 -11
v -10 10 -13
v -10 11 -11
v -10 11 -13
v -9 10 -13
v -9 10 -15
v -9 11 -13
v -9 11 -15
v -8 10 -15
v -8 10 -16
v -8 11 -15
v -8 11 -16
v -7 10 -16
v -7 10 -17
v -7 11 -16
v -7 11 -17
v -5 10 -10
v -5 10 -11
v -5 10 -17
v -5 10 -18
v -5 11 -10
v -5 11 -11
v -5 11 -17
v -5 11 -18
v -4 11 -12
v -4 11 -17
v -4 11 -18
v -4 12 -12
v -4 12 -17
v -4 12 -18
v -3 10 -18
v -3 10 -21
v -3 11 -11
v -3 11 -12
v -3 11 -18
v -3 11 -21
v -3 12 -11
v -3 12 -12
v -2 10 -9
v -2 10 -10
v -2 10 -21
v -2 10 -22
v -2 11 -9
v -2 11 -10
v -2 11 -11
v -2 11 -21
v -2 11 -22
v -2 12 -10
v -2 12 -11
v -1 10 -8
v -1 10 -9
v -1 11 -8
v -1 11 -9
v 0 10 7
v 0 10 -8
v 0 11 7
v 0 11 -8
v 2 10 -18
v 2 10 -19
v 2 10 -21
v 2 10 -22
v 2 11 -18
v 2 11 -19
v 2 11 -21
v 2 11 -22
v 3 10 -19
v 3 10 -21
v 3 11 -17
v 3 11 -18
v 3 11 -19
v 3 11 -21
v 3 12 -17
v 3 12 -18
v 10 10 -10
v 10 10 -11
v 10 11 -10
v 10 11 -11
v -8 10 -10
v -8 10 -11
v -8 11 -10
v -8 11 -11
v -2 10 -19
v -2 10 -21
v -2 11 -17
v -2 11 -18
v -2 11 -19
v -2 11 -21
v -2 12 -17
v -2 12 -18
v -1 10 -18
v -1 10 -19
v -1 10 -21
v -1 10 -22
v -1 11 -18
v -1 11 -19
v -1 11 -21
v -1 11 -22
v 1 10 7
v 1 10 -8
v 1 11 7
v 1 11 -8
v 2 10 -8
v 2 10 -9
v 2 11 -8
v 2 11 -9
v 3 10 -9
v 3 10 -10
v 3 10 -21
v 3 10 -22
v 3 11 -9
v 3 11 -10
v 3 11 -11
v 3 11 -21
v 3 11 -22
v 3 12 -10
v 3 12 -11
v 4 10 -18
v 4 10 -21
v 4 11 -11
v 4 11 -12
v 4 11 -18
v 4 11 -21
v 4 12 -11
v 4 12 -12
v 5 11 -12
v 5 11 -17
v 5 11 -18
v 5 12 -12
v 5 12 -17
v 5 12 -18
v 6 10 -10
v 6 10 -11
v 6 10 -17
v 6 10 -18
v 6 11 -10
v 6 11 -11
v 6 11 -17
v 6 11 -18
v 8 10 -16
v 8 10 -17
v 8 11 -16
v 8 11 -17
v 9 10 -15
v 9 10 -16
v 9 11 -15
v 9 11 -16
v 10 10 -13
v 10 10 -15
v 10 11 -13
v 10 11 -15
v 11 10 -11
v 11 10 -13
v 11 11 -11
v 11 11 -13
v 12 10 -10
v 12 10 -11
v 12 11 -10
v 12 11 -11
v 0 10 7
v 0 11 7
v 1 10 7
v 1 11 7
v -1 10 -8
v -1 11 -8
v 0 10 -8
v 0 11 -8
v 1 10 -8
v 1 11 -8
v 2 10 -8
v 2 11 -8
v -2 10 -9
v -2 11 -9
v -1 10 -9
v -1 11 -9
v 2 10 -9
v 2 11 -9
v 3 10 -9
v 3 11 -9
v -11 10 -10
v -11 11 -10
v -8 10 -10
v -8 11 -10
v -5 10 -10
v -5 11 -10
v -2 10 -10
v -2 11 -10
v -2 12 -10
v 3 10 -10
v 3 11 -10
v 3 12 -10
v 6 10 -10
v 6 11 -10
v 10 10 -10
v 10 11 -10
v 12 10 -10
v 12 11 -10
v -8 10 -11
v -8 11 -11
v -5 10 -11
v -5 11 -11
v -3 11 -11
v -3 12 -11
v -2 11 -11
v -2 12 -11
v 3 11 -11
v 3 12 -11
v 4 11 -11
v 4 12 -11
v 6 10 -11
v 6 11 -11
v 9 10 -11
v 9 11 -11
v 10 10 -11
v 10 11 -11
v -4 11 -12
v -4 12 -12
v -3 11 -12
v -3 12 -12
v 4 11 -12
v 4 12 -12
v 5 11 -12
v 5 12 -12
v -2 10 -21
v -2 11 -21
v -1 10 -21
v -1 11 -21
v 2 10 -21
v 2 11 -21
v 3 10 -21
v 3 11 -21
v -11 10 -11
v -11 11 -11
v -10 10 -11
v -10 11 -11
v 11 10 -11
v 11 11 -11
v 12 10 -11
v 12 11 -11
v -10 10 -13
v -10 11 -13
v -9 10 -13
v -9 11 -13
v 10 10 -13
v 10 11 -13
v 11 10 -13
v 11 11 -13
v -9 10 -15
v -9 11 -15
v -8 10 -15
v -8 11 -15
v 9 10 -15
v 9 11 -15
v 10 10 -15
v 10 11 -15
v -8 10 -16
v -8 11 -16
v -7 10 -16
v -7 11 -16
v 8 10 -16
v 8 11 -16
v 9 10 -16
v 9 11 -16
v -7 10 -17
v -7 11 -17
v -5 10 -17
v -5 11 -17
v -2 11 -17
v -2 12 -17
v 3 11 -17
v 3 12 -17
v 6 10 -17
v 6 11 -17
v 8 10 -17
v 8 11 -17
v -5 10 -18
v -5 11 -18
v -4 11 -18
v -4 12 -18
v -3 10 -18
v -3 11 -18
v -3 12 -18
v -2 11 -18
v -2 12 -18
v -1 10 -18
v -1 11 -18
v 2 10 -18
v 2 11 -18
v 3 11 -18
v 3 12 -18
v 4 10 -18
v 4 11 -18
v 4 12 -18
v 5 11 -18
v 5 12 -18
v 6 10 -18
v 6 11 -18
v -2 10 -19
v -2 11 -19
v -1 10 -19
v -1 11 -19
v 2 10 -19
v 2 11 -19
v 3 10 -19
v 3 11 -19
v -3 10 -21
v -3 11 -21
v -2 10 -21
v -2 11 -21
v 3 10 -21
v 3 11 -21
v 4 10 -21
v 4 11 -21
v -2 10 -22
v -2 11 -22
v -1 10 -22
v -1 11 -22
v 2 10 -22
v 2 11 -22
v 3 10 -22
v 3 11 -22
v 0 10 7
v 1 10 7
v -1 10 -8
v 0 10 -8
v 1 10 -8
v 2 10 -8
v -2 10 -9
v -1 10 -9
v 2 10 -9
v 3 10 -9
v -11 10 -10
v -8 10 -10
v -5 10 -10
v -2 10 -10
v 3 10 -10
v 6 10 -10
v 10 10 -10
v 12 10 -10
v -11 10 -11
v -10 10 -11
v -8 10 -11
v -5 10 -11
v -3 10 -11
v -2 10 -11
v 3 10 -11
v 4 10 -11
v 6 10 -11
v 9 10 -11
v 10 10 -11
v 11 10 -11
v 12 10 -11
v -4 10 -12
v -3 10 -12
v 4 10 -12
v 5 10 -12
v -10 10 -13
v -9 10 -13
v 10 10 -13
v 11 10 -13
v -8 10 -14
v -7 10 -14
v 8 10 -14
v 9 10 -14
v -9 10 -15
v -8 10 -15
v 9 10 -15
v 10 10 -15
v -8 10 -16
v -7 10 -16
v -5 10 -16
v 6 10 -16
v 8 10 -16
v 9 10 -16
v -7 10 -17
v -5 10 -17
v -4 10 -17
v -3 10 -17
v 4 10 -17
v 5 10 -17
v 6 10 -17
v 8 10 -17
v -5 10 -18
v -3 10 -18
v -1 10 -18
v 2 10 -18
v 4 10 -18
v 6 10 -18
v -2 10 -19
v -1 10 -19
v 2 10 -19
v 3 10 -19
v -3 10 -21
v -2 10 -21
v -1 10 -21
v 2 10 -21
v 3 10 -21
v 4 10 -21
v -2 10 -22
v -1 10 -22
v 2 10 -22
v 3 10 -22
v 0 11 7
v 1 11 7
v -1 11 -8
v 0 11 -8
v 1 11 -8
v 2 11 -8
v -2 11 -9
v -1 11 -9
v 2 11 -9
v 3 11 -9
v -11 11 -10
v -8 11 -10
v -5 11 -10
v -2 11 -10
v 3 11 -10
v 6 11 -10
v 10 11 -10
v 12 11 -10
v -11 11 -11
v -10 11 -11
v -8 11 -11
v -5 11 -11
v -3 11 -11
v -2 11 -11
v 3 11 -11
v 4 11 -11
v 6 11 -11
v 9 11 -11
v 10 11 -11
v 11 11 -11
v 12 11 -11
v -4 11 -12
v -3 11 -12
v 4 11 -12
v 5 11 -12
v -10 11 -13
v -9 11 -13
v 10 11 -13
v 11 11 -13
v -8 11 -14
v -7 11 -14
v 8 11 -14
v 9 11 -14
v -9 11 -15
v -8 11 -15
v 9 11 -15
v 10 11 -15
v -8 11 -16
v -7 11 -16
v -5 11 -16
v 6 11 -16
v 8 11 -16
v 9 11 -16
v -7 11 -17
v -5 11 -17
v -4 11 -17
v -2 11 -17
v 3 11 -17
v 5 11 -17
v 6 11 -17
v 8 11 -17
v -5 11 -18
v -4 11 -18
v -3 11 -18
v -2 11 -18
v -1 11 -18
v 2 11 -18
v 3 11 -18
v 4 11 -18
v 5 11 -18
v 6 11 -18
v -2 11 -19
v -1 11 -19
v 2 11 -19
v 3 11 -19
v -3 11 -21
v -2 11 -21
v -1 11 -21
v 2 11 -21
v 3 11 -21
v 4 11 -21
v -2 11 -22
v -1 11 -22
v 2 11 -22
v 3 11 -22
v -2 12 -10
v 3 12 -10
v -3 12 -11
v -2 12 -11
v 3 12 -11
v 4 12 -11
v -4 12 -12
v -3 12 -12
v -2 12 -12
v 3 12 -12
v 4 12 -12
v 5 12 -12
v -3 12 -13
v -2 12 -13
v 3 12 -13
v 4 12 -13
v -3 12 -15
v -2 12 -15
v 3 12 -15
v 4 12 -15
v -2 12 -16
v 3 12 -16
v -4 12 -17
v -3 12 -17
v -2 12 -17
v 3 12 -17
v 4 12 -17
v 5 12 -17
v -4 12 -18
v -3 12 -18
v -2 12 -18
v 3 12 -18
v 4 12 -18
v 5 12 -18

# faces
f 3/3/1 2/3/1 1/3/1
f 4/3/1 2/3/1 3/3/1
f 7/3/1 6/3/1 5/3/1
f 8/3/1 6/3/1 7/3/1
f 11/3/1 10/3/1 9/3/1
f 12/3/1 10/3/1 11/3/1
f 15/3/1 14/3/1 13/3/1
f 16/3/1 14/3/1 15/3/1
f 19/3/1 18/3/1 17/3/1
f 20/3/1 18/3/1 19/3/1
f 25/2/1 22/2/1 21/2/1
f 26/2/1 22/2/1 25/2/1
f 27/3/1 24/3/1 23/3/1
f 28/3/1 24/3/1 27/3/1
f 32/5/1 30/5/1 29/5/1
f 33/7/1 31/7/1 30/7/1
f 33/5/1 30/5/1 32/5/1
f 34/7/1 31/7/1 33/7/1
f 39/2/1 36/2/1 35/2/1
f 40/2/1 36/2/1 39/2/1
f 41/5/1 38/5/1 37/5/1
f 42/5/1 38/5/1 41/5/1
f 47/2/1 44/2/1 43/2/1
f 48/2/1 44/2/1 47/2/1
f 50/2/1 46/2/1 45/2/1
f 51/2/1 46/2/1 50/2/1
f 52/5/1 49/5/1 48/5/1
f 53/5/1 49/5/1 52/5/1
f 56/2/1 55/2/1 54/2/1
f 57/2/1 55/2/1 56/2/1
f 60/1/1 59/1/1 58/1/1
f 61/1/1 59/1/1 60/1/1
f 66/2/1 63/2/1 62/2/1
f 67/2/1 63/2/1 66/2/1
f 68/2/1 65/2/1 64/2/1
f 69/2/1 65/2/1 68/2/1
f 74/2/1 71/2/1 70/2/1
f 75/2/1 71/2/1 74/2/1
f 76/5/1 73/5/1 72/5/1
f 77/5/1 73/5/1 76/5/1
f 80/3/1 79/3/1 78/3/1
f 81/3/1 79/3/1 80/3/1
f 82/3/2 83/3/2 84/3/2
f 84/3/2 83/3/2 85/3/2
f 86/2/2 87/2/2 90/2/2
f 90/2/2 87/2/2 91/2/2
f 88/5/2 89/5/2 92/5/2
f 92/5/2 89/5/2 93/5/2
f 94/2/2 95/2/2 98/2/2
f 98/2/2 95/2/2 99/2/2
f 96/2/2 97/2/2 100/2/2
f 100/2/2 97/2/2 101/2/2
f 102/1/2 103/1/2 104/1/2
f 104/1/2 103/1/2 105/1/2
f 106/2/2 107/2/2 108/2/2
f 108/2/2 107/2/2 109/2/2
f 110/2/2 111/2/2 114/2/2
f 114/2/2 111/2/2 115/2/2
f 112/2/2 113/2/2 117/2/2
f 117/2/2 113/2/2 118/2/2
f 115/5/2 116/5/2 119/5/2
f 119/5/2 116/5/2 120/5/2
f 121/2/2 122/2/2 125/2/2
f 125/2/2 122/2/2 126/2/2
f 123/5/2 124/5/2 127/5/2
f 127/5/2 124/5/2 128/5/2
f 129/5/2 130/5/2 132/5/2
f 130/7/2 131/7/2 133/7/2
f 132/5/2 130/5/2 133/5/2
f 133/7/2 131/7/2 134/7/2
f 135/2/2 136/2/2 139/2/2
f 139/2/2 136/2/2 140/2/2
f 137/3/2 138/3/2 141/3/2
f 141/3/2 138/3/2 142/3/2
f 143/3/2 144/3/2 145/3/2
f 145/3/2 144/3/2 146/3/2
f 147/3/2 148/3/2 149/3/2
f 149/3/2 148/3/2 150/3/2
f 151/3/2 152/3/2 153/3/2
f 153/3/2 152/3/2 154/3/2
f 155/3/2 156/3/2 157/3/2
f 157/3/2 156/3/2 158/3/2
f 159/3/2 160/3/2 161/3/2
f 161/3/2 160/3/2 162/3/2
f 165/1/3 164/1/3 163/1/3
f 166/1/3 164/1/3 165/1/3
f 169/2/3 168/2/3 167/2/3
f 170/2/3 168/2/3 169/2/3
f 173/2/3 172/2/3 171/2/3
f 174/2/3 172/2/3 173/2/3
f 177/2/3 176/2/3 175/2/3
f 178/2/3 176/2/3 177/2/3
f 181/2/3 180/2/3 179/2/3
f 182/2/3 180/2/3 181/2/3
f 185/3/3 184/3/3 183/3/3
f 186/3/3 184/3/3 185/3/3
f 189/2/3 188/2/3 187/2/3
f 190/2/3 188/2/3 189/2/3
f 193/5/3 191/5/3 190/5/3
f 194/5/3 191/5/3 193/5/3
f 195/2/3 193/2/3 192/2/3
f 196/2/3 193/2/3 195/2/3
f 199/3/3 198/3/3 197/3/3
f 200/3/3 198/3/3 199/3/3
f 203/2/3 202/2/3 201/2/3
f 204/2/3 202/2/3 203/2/3
f 207/5/3 206/5/3 205/5/3
f 208/5/3 206/5/3 207/5/3
f 211/5/3 210/5/3 209/5/3
f 212/5/3 210/5/3 211/5/3
f 215/2/3 214/2/3 213/2/3
f 216/2/3 214/2/3 215/2/3
f 217/3/3 216/3/3 215/3/3
f 218/3/3 216/3/3 217/3/3
f 221/5/3 220/5/3 219/5/3
f 222/5/3 220/5/3 221/5/3
f 225/5/3 224/5/3 223/5/3
f 226/5/3 224/5/3 225/5/3
f 229/2/3 228/2/3 227/2/3
f 230/2/3 228/2/3 229/2/3
f 233/2/3 232/2/3 231/2/3
f 234/2/3 232/2/3 233/2/3
f 235/3/4 236/3/4 237/3/4
f 237/3/4 236/3/4 238/3/4
f 239/3/4 240/3/4 241/3/4
f 241/3/4 240/3/4 242/3/4
f 243/3/4 244/3/4 245/3/4
f 245/3/4 244/3/4 246/3/4
f 247/3/4 248/3/4 249/3/4
f 249/3/4 248/3/4 250/3/4
f 251/3/4 252/3/4 253/3/4
f 253/3/4 252/3/4 254/3/4
f 255/3/4 256/3/4 257/3/4
f 257/3/4 256/3/4 258/3/4
f 259/3/4 260/3/4 261/3/4
f 261/3/4 260/3/4 262/3/4
f 263/3/4 264/3/4 265/3/4
f 265/3/4 264/3/4 266/3/4
f 267/3/4 268/3/4 269/3/4
f 269/3/4 268/3/4 270/3/4
f 271/5/4 272/5/4 273/5/4
f 273/5/4 272/5/4 274/5/4
f 275/3/4 276/3/4 277/3/4
f 277/3/4 276/3/4 278/3/4
f 279/3/4 280/3/4 281/3/4
f 279/3/4 281/3/4 283/3/4
f 281/7/4 282/7/4 284/7/4
f 283/3/4 281/3/4 284/3/4
f 284/7/4 282/7/4 285/7/4
f 284/5/4 285/5/4 286/5/4
f 286/5/4 285/5/4 287/5/4
f 288/2/4 289/2/4 290/2/4
f 290/2/4 289/2/4 291/2/4
f 292/5/4 293/5/4 295/5/4
f 295/5/4 293/5/4 296/5/4
f 294/3/4 295/3/4 297/3/4
f 295/7/4 296/7/4 297/7/4
f 297/7/4 296/7/4 298/7/4
f 294/3/4 297/3/4 299/3/4
f 299/3/4 297/3/4 300/3/4
f 301/2/4 302/2/4 303/2/4
f 303/2/4 302/2/4 304/2/4
f 305/2/4 306/2/4 307/2/4
f 307/2/4 306/2/4 308/2/4
f 309/2/4 310/2/4 311/2/4
f 311/2/4 310/2/4 312/2/4
f 313/2/4 314/2/4 315/2/4
f 315/2/4 314/2/4 316/2/4
f 317/2/4 318/2/4 319/2/4
f 319/2/4 318/2/4 320/2/4
f 321/2/4 322/2/4 323/2/4
f 323/2/4 322/2/4 324/2/4
f 328/1/5 326/1/5 325/1/5
f 329/1/5 326/1/5 328/1/5
f 332/2/5 328/2/5 327/2/5
f 332/2/5 330/2/5 329/2/5
f 332/2/5 329/2/5 328/2/5
f 333/2/5 330/2/5 332/2/5
f 338/2/5 332/2/5 331/2/5
f 338/2/5 333/2/5 332/2/5
f 338/2/5 334/2/5 333/2/5
f 339/2/5 334/2/5 338/2/5
f 343/3/5 336/3/5 335/3/5
f 344/3/5 336/3/5 343/3/5
f 345/3/5 336/3/5 344/3/5
f 346/2/5 338/2/5 337/2/5
f 347/2/5 338/2/5 346/2/5
f 348/4/5 339/4/5 338/4/5
f 348/2/5 338/2/5 347/2/5
f 349/2/5 340/2/5 339/2/5
f 349/4/5 339/4/5 348/4/5
f 350/2/5 340/2/5 349/2/5
f 351/2/5 340/2/5 350/2/5
f 353/3/5 342/3/5 341/3/5
f 354/3/5 342/3/5 353/3/5
f 355/3/5 342/3/5 354/3/5
f 356/2/5 347/2/5 346/2/5
f 356/2/5 346/2/5 345/2/5
f 357/4/5 348/4/5 347/4/5
f 357/2/5 347/2/5 356/2/5
f 357/4/5 349/4/5 348/4/5
f 357/4/5 350/4/5 349/4/5
f 358/2/5 352/2/5 351/2/5
f 358/4/5 350/4/5 357/4/5
f 358/2/5 351/2/5 350/2/5
f 359/2/5 352/2/5 358/2/5
f 360/3/5 345/3/5 344/3/5
f 361/3/5 345/3/5 360/3/5
f 362/3/5 354/3/5 353/3/5
f 362/3/5 353/3/5 352/3/5
f 363/3/5 354/3/5 362/3/5
f 364/2/5 356/2/5 345/2/5
f 364/3/5 345/3/5 361/3/5
f 365/2/5 356/2/5 364/2/5
f 366/2/5 352/2/5 359/2/5
f 367/3/5 362/3/5 352/3/5
f 367/2/5 352/2/5 366/2/5
f 368/3/5 364/3/5 361/3/5
f 368/3/5 365/3/5 364/3/5
f 369/3/5 365/3/5 368/3/5
f 370/3/5 362/3/5 367/3/5
f 370/3/5 367/3/5 366/3/5
f 371/3/5 362/3/5 370/3/5
f 372/3/5 365/3/5 369/3/5
f 373/2/5 356/2/5 365/2/5
f 373/3/5 365/3/5 372/3/5
f 374/2/5 356/2/5 373/2/5
f 375/2/5 366/2/5 359/2/5
f 376/3/5 370/3/5 366/3/5
f 376/2/5 366/2/5 375/2/5
f 377/3/5 370/3/5 376/3/5
f 378/3/5 374/3/5 373/3/5
f 379/2/5 356/2/5 374/2/5
f 379/3/5 374/3/5 378/3/5
f 380/4/5 357/4/5 356/4/5
f 380/2/5 356/2/5 379/2/5
f 380/4/5 358/4/5 357/4/5
f 380/4/5 359/4/5 358/4/5
f 381/4/5 359/4/5 380/4/5
f 382/4/5 359/4/5 381/4/5
f 383/2/5 375/2/5 359/2/5
f 383/4/5 359/4/5 382/4/5
f 384/3/5 376/3/5 375/3/5
f 384/2/5 375/2/5 383/2/5
f 385/3/5 376/3/5 384/3/5
f 386/3/5 380/3/5 379/3/5
f 386/3/5 381/3/5 380/3/5
f 387/2/5 382/2/5 381/2/5
f 387/3/5 381/3/5 386/3/5
f 388/2/5 382/2/5 387/2/5
f 389/2/5 382/2/5 388/2/5
f 390/3/5 383/3/5 382/3/5
f 390/2/5 382/2/5 389/2/5
f 390/3/5 384/3/5 383/3/5
f 391/3/5 384/3/5 390/3/5
f 392/2/5 388/2/5 387/2/5
f 393/2/5 388/2/5 392/2/5
f 394/2/5 390/2/5 389/2/5
f 395/2/5 390/2/5 394/2/5
f 396/2/5 392/2/5 387/2/5
f 397/2/5 392/2/5 396/2/5
f 400/2/5 390/2/5 395/2/5
f 401/2/5 390/2/5 400/2/5
f 402/2/5 398/2/5 397/2/5
f 403/2/5 398/2/5 402/2/5
f 404/2/5 400/2/5 399/2/5
f 405/2/5 400/2/5 404/2/5
f 406/1/6 407/1/6 409/1/6
f 409/1/6 407/1/6 410/1/6
f 408/2/6 409/2/6 413/2/6
f 410/2/6 411/2/6 413/2/6
f 409/2/6 410/2/6 413/2/6
f 413/2/6 411/2/6 414/2/6
f 412/2/6 413/2/6 419/2/6
f 413/2/6 414/2/6 419/2/6
f 414/2/6 415/2/6 419/2/6
f 419/2/6 415/2/6 420/2/6
f 416/3/6 417/3/6 424/3/6
f 424/3/6 417/3/6 425/3/6
f 425/3/6 417/3/6 426/3/6
f 418/2/6 419/2/6 427/2/6
f 427/2/6 419/2/6 428/2/6
f 428/2/6 419/2/6 429/2/6
f 420/2/6 421/2/6 430/2/6
f 430/2/6 421/2/6 431/2/6
f 431/2/6 421/2/6 432/2/6
f 422/3/6 423/3/6 434/3/6
f 434/3/6 423/3/6 435/3/6
f 435/3/6 423/3/6 436/3/6
f 426/2/6 427/2/6 437/2/6
f 427/2/6 428/2/6 437/2/6
f 437/2/6 428/2/6 438/2/6
f 432/2/6 433/2/6 439/2/6
f 431/2/6 432/2/6 439/2/6
f 439/2/6 433/2/6 440/2/6
f 425/3/6 426/3/6 441/3/6
f 441/3/6 426/3/6 442/3/6
f 434/3/6 435/3/6 443/3/6
f 433/3/6 434/3/6 443/3/6
f 443/3/6 435/3/6 444/3/6
f 442/3/6 426/3/6 445/3/6
f 426/2/6 437/2/6 445/2/6
f 445/2/6 437/2/6 446/2/6
f 440/2/6 433/2/6 447/2/6
f 433/3/6 443/3/6 448/3/6
f 447/2/6 433/2/6 448/2/6
f 442/3/6 445/3/6 449/3/6
f 445/3/6 446/3/6 449/3/6
f 449/3/6 446/3/6 450/3/6
f 448/3/6 443/3/6 451/3/6
f 447/3/6 448/3/6 451/3/6
f 451/3/6 443/3/6 452/3/6
f 450/3/6 446/3/6 453/3/6
f 446/2/6 437/2/6 454/2/6
f 453/3/6 446/3/6 454/3/6
f 454/2/6 437/2/6 455/2/6
f 440/2/6 447/2/6 456/2/6
f 447/3/6 451/3/6 457/3/6
f 456/2/6 447/2/6 457/2/6
f 457/3/6 451/3/6 458/3/6
f 454/3/6 455/3/6 459/3/6
f 455/2/6 437/2/6 460/2/6
f 459/3/6 455/3/6 460/3/6
f 460/2/6 437/2/6 461/2/6
f 440/2/6 456/2/6 464/2/6
f 456/3/6 457/3/6 465/3/6
f 464/2/6 456/2/6 465/2/6
f 465/3/6 457/3/6 466/3/6
f 460/3/6 461/3/6 467/3/6
f 467/3/6 461/3/6 468/3/6
f 462/2/6 463/2/6 470/2/6
f 470/2/6 463/2/6 471/2/6
f 471/2/6 463/2/6 472/2/6
f 472/2/6 463/2/6 473/2/6
f 464/3/6 465/3/6 475/3/6
f 475/3/6 465/3/6 476/3/6
f 469/2/6 470/2/6 477/2/6
f 470/2/6 471/2/6 477/2/6
f 477/2/6 471/2/6 478/2/6
f 473/2/6 474/2/6 479/2/6
f 472/2/6 473/2/6 479/2/6
f 479/2/6 474/2/6 480/2/6
f 469/2/6 477/2/6 481/2/6
f 481/2/6 477/2/6 482/2/6
f 480/2/6 474/2/6 485/2/6
f 485/2/6 474/2/6 486/2/6
f 482/2/6 483/2/6 487/2/6
f 487/2/6 483/2/6 488/2/6
f 484/2/6 485/2/6 489/2/6
f 489/2/6 485/2/6 490/2/6
f 491/5/6 492/5/6 494/5/6
f 494/5/6 492/5/6 495/5/6
f 493/5/6 494/5/6 498/5/6
f 495/5/6 496/5/6 498/5/6
f 494/5/6 495/5/6 498/5/6
f 498/5/6 496/5/6 499/5/6
f 499/5/6 496/5/6 500/5/6
f 500/5/6 496/5/6 501/5/6
f 497/5/6 498/5/6 503/5/6
f 498/5/6 499/5/6 503/5/6
f 499/6/6 500/6/6 504/6/6
f 503/5/6 499/5/6 504/5/6
f 501/5/6 502/5/6 505/5/6
f 504/6/6 500/6/6 505/6/6
f 500/5/6 501/5/6 505/5/6
f 505/5/6 502/5/6 506/5/6
f 503/6/6 504/6/6 507/6/6
f 497/5/6 503/5/6 507/5/6
f 505/6/6 506/6/6 507/6/6
f 504/6/6 505/6/6 507/6/6
f 507/6/6 506/6/6 508/6/6
f 508/6/6 506/6/6 509/6/6
f 506/5/6 502/5/6 510/5/6
f 509/6/6 506/6/6 510/6/6
f 508/6/6 509/6/6 511/6/6
f 507/5/6 508/5/6 511/5/6
f 509/5/6 510/5/6 512/5/6
f 511/6/6 509/6/6 512/6/6
f 497/5/6 507/5/6 513/5/6
f 507/5/6 511/5/6 513/5/6
f 511/5/6 512/5/6 513/5/6
f 513/5/6 512/5/6 514/5/6
f 514/5/6 512/5/6 515/5/6
f 512/5/6 510/5/6 516/5/6
f 515/5/6 512/5/6 516/5/6
f 510/5/6 502/5/6 517/5/6
f 516/5/6 510/5/6 517/5/6
f 517/5/6 502/5/6 518/5/6
f 513/7/6 514/7/6 519/7/6
f 514/5/6 515/5/6 520/5/6
f 519/7/6 514/7/6 520/7/6
f 520/5/6 515/5/6 521/5/6
f 516/5/6 517/5/6 522/5/6
f 517/7/6 518/7/6 523/7/6
f 522/5/6 517/5/6 523/5/6
f 523/7/6 518/7/6 524/7/6
