# MagicaVoxel @ ephtracy

# material
mtllib purplefish.mtl
usemtl palette

# normals
vn -1 0 0
vn 1 0 0
vn 0 0 1
vn 0 0 -1
vn 0 -1 0
vn 0 1 0

# texcoords
vt 0.00195313 0.5
vt 0.00585938 0.5
vt 0.00976563 0.5
vt 0.0136719 0.5

# verts
v -7 5 -0
v -7 5 -1
v -7 6 -0
v -7 6 -1
v -7 9 -0
v -7 9 -1
v -7 10 -0
v -7 10 -1
v -5 6 -0
v -5 6 -1
v -5 7 -0
v -5 7 -1
v -5 8 -0
v -5 8 -1
v -5 9 -0
v -5 9 -1
v -4 7 -0
v -4 7 -1
v -4 8 -0
v -4 8 -1
v -2 11 -0
v -2 11 -1
v -2 12 -0
v -2 12 -1
v -1 9 -0
v -1 9 -1
v -1 11 -0
v -1 11 -1
v 0 6 1
v 0 6 -0
v 0 6 -1
v 0 6 -2
v 0 9 1
v 0 9 -0
v 0 9 -1
v 0 9 -2
v 1 5 -0
v 1 5 -1
v 1 6 -0
v 1 6 -1
v 3 3 -0
v 3 3 -1
v 3 4 -0
v 3 4 -1
v 3 12 -0
v 3 12 -1
v 3 13 -0
v 3 13 -1
v 4 4 -0
v 4 4 -1
v 4 5 -0
v 4 5 -1
v 4 10 -0
v 4 10 -1
v 4 12 -0
v 4 12 -1
v -3 5 -0
v -3 5 -1
v -3 6 -0
v -3 6 -1
v -3 9 -0
v -3 9 -1
v -3 10 -0
v -3 10 -1
v 0 11 -0
v 0 11 -1
v 0 12 -0
v 0 12 -1
v 1 10 -0
v 1 10 -1
v 1 11 -0
v 1 11 -1
v 6 3 -0
v 6 3 -1
v 6 4 -0
v 6 4 -1
v 6 12 -0
v 6 12 -1
v 6 13 -0
v 6 13 -1
v 7 4 -0
v 7 4 -1
v 7 5 -0
v 7 5 -1
v 7 11 -0
v 7 11 -1
v 7 12 -0
v 7 12 -1
v 8 10 -0
v 8 10 -1
v 8 11 -0
v 8 11 -1
v 10 6 1
v 10 6 -0
v 10 6 -1
v 10 6 -2
v 10 8 1
v 10 8 -0
v 10 8 -1
v 10 8 -2
v 10 9 1
v 10 9 -0
v 10 9 -1
v 10 9 -2
v 11 5 -0
v 11 5 -1
v 11 6 -0
v 11 6 -1
v 11 9 -0
v 11 9 -1
v 11 10 -0
v 11 10 -1
v 12 6 -0
v 12 6 -1
v 12 9 -0
v 12 9 -1
v 0 6 1
v 0 9 1
v 1 8 1
v 1 9 1
v 2 8 1
v 2 9 1
v 3 7 1
v 3 9 1
v 4 7 1
v 4 9 1
v 5 8 1
v 5 9 1
v 6 8 1
v 6 9 1
v 7 7 1
v 7 9 1
v 8 7 1
v 8 9 1
v 9 8 1
v 9 9 1
v 10 6 1
v 10 8 1
v 10 9 1
v -7 5 -0
v -7 6 -0
v -7 9 -0
v -7 10 -0
v -5 6 -0
v -5 7 -0
v -5 8 -0
v -5 9 -0
v -4 7 -0
v -4 8 -0
v -3 5 -0
v -3 6 -0
v -3 9 -0
v -3 10 -0
v -2 6 -0
v -2 9 -0
v -2 11 -0
v -2 12 -0
v -1 9 -0
v -1 11 -0
v 0 6 -0
v 0 9 -0
v 0 11 -0
v 0 12 -0
v 1 5 -0
v 1 6 -0
v 1 9 -0
v 1 10 -0
v 1 11 -0
v 2 9 -0
v 2 10 -0
v 3 3 -0
v 3 4 -0
v 3 9 -0
v 3 10 -0
v 3 12 -0
v 3 13 -0
v 4 4 -0
v 4 5 -0
v 4 9 -0
v 4 10 -0
v 4 12 -0
v 5 9 -0
v 5 10 -0
v 6 3 -0
v 6 4 -0
v 6 9 -0
v 6 10 -0
v 6 12 -0
v 6 13 -0
v 7 4 -0
v 7 5 -0
v 7 9 -0
v 7 10 -0
v 7 11 -0
v 7 12 -0
v 8 9 -0
v 8 10 -0
v 8 11 -0
v 9 9 -0
v 10 6 -0
v 10 8 -0
v 10 9 -0
v 11 5 -0
v 11 6 -0
v 11 9 -0
v 11 10 -0
v 12 6 -0
v 12 9 -0
v -7 5 -1
v -7 6 -1
v -7 9 -1
v -7 10 -1
v -5 6 -1
v -5 7 -1
v -5 8 -1
v -5 9 -1
v -4 7 -1
v -4 8 -1
v -3 5 -1
v -3 6 -1
v -3 9 -1
v -3 10 -1
v -2 6 -1
v -2 9 -1
v -2 11 -1
v -2 12 -1
v -1 9 -1
v -1 11 -1
v 0 6 -1
v 0 9 -1
v 0 11 -1
v 0 12 -1
v 1 5 -1
v 1 6 -1
v 1 9 -1
v 1 10 -1
v 1 11 -1
v 2 9 -1
v 2 10 -1
v 3 3 -1
v 3 4 -1
v 3 9 -1
v 3 10 -1
v 3 12 -1
v 3 13 -1
v 4 4 -1
v 4 5 -1
v 4 9 -1
v 4 10 -1
v 4 12 -1
v 5 9 -1
v 5 10 -1
v 6 3 -1
v 6 4 -1
v 6 9 -1
v 6 10 -1
v 6 12 -1
v 6 13 -1
v 7 4 -1
v 7 5 -1
v 7 9 -1
v 7 10 -1
v 7 11 -1
v 7 12 -1
v 8 9 -1
v 8 10 -1
v 8 11 -1
v 9 9 -1
v 10 6 -1
v 10 8 -1
v 10 9 -1
v 11 5 -1
v 11 6 -1
v 11 9 -1
v 11 10 -1
v 12 6 -1
v 12 9 -1
v 0 6 -2
v 0 9 -2
v 1 8 -2
v 1 9 -2
v 2 8 -2
v 2 9 -2
v 3 7 -2
v 3 9 -2
v 4 7 -2
v 4 9 -2
v 5 8 -2
v 5 9 -2
v 6 8 -2
v 6 9 -2
v 7 7 -2
v 7 9 -2
v 8 7 -2
v 8 9 -2
v 9 8 -2
v 9 9 -2
v 10 6 -2
v 10 8 -2
v 10 9 -2
v 3 3 -0
v 6 3 -0
v 3 3 -1
v 6 3 -1
v 6 4 -0
v 7 4 -0
v 6 4 -1
v 7 4 -1
v -7 5 -0
v -3 5 -0
v 1 5 -0
v 4 5 -0
v 7 5 -0
v 11 5 -0
v -7 5 -1
v -3 5 -1
v 1 5 -1
v 4 5 -1
v 7 5 -1
v 11 5 -1
v 0 6 1
v 10 6 1
v -3 6 -0
v -2 6 -0
v 0 6 -0
v 1 6 -0
v 10 6 -0
v 11 6 -0
v 12 6 -0
v -3 6 -1
v -2 6 -1
v 0 6 -1
v 1 6 -1
v 10 6 -1
v 11 6 -1
v 12 6 -1
v 0 6 -2
v 10 6 -2
v -5 8 -0
v -4 8 -0
v -5 8 -1
v -4 8 -1
v -7 9 -0
v -5 9 -0
v -7 9 -1
v -5 9 -1
v -2 11 -0
v -1 11 -0
v -2 11 -1
v -1 11 -1
v 3 12 -0
v 4 12 -0
v 3 12 -1
v 4 12 -1
v 3 4 -0
v 4 4 -0
v 3 4 -1
v 4 4 -1
v -7 6 -0
v -5 6 -0
v -7 6 -1
v -5 6 -1
v -5 7 -0
v -4 7 -0
v -5 7 -1
v -4 7 -1
v 0 9 1
v 1 9 1
v 2 9 1
v 3 9 1
v 4 9 1
v 5 9 1
v 6 9 1
v 7 9 1
v 8 9 1
v 9 9 1
v 10 9 1
v -3 9 -0
v -2 9 -0
v -1 9 -0
v 0 9 -0
v 1 9 -0
v 2 9 -0
v 3 9 -0
v 4 9 -0
v 5 9 -0
v 6 9 -0
v 7 9 -0
v 8 9 -0
v 9 9 -0
v 10 9 -0
v 11 9 -0
v 12 9 -0
v -3 9 -1
v -2 9 -1
v -1 9 -1
v 0 9 -1
v 1 9 -1
v 2 9 -1
v 3 9 -1
v 4 9 -1
v 5 9 -1
v 6 9 -1
v 7 9 -1
v 8 9 -1
v 9 9 -1
v 10 9 -1
v 11 9 -1
v 12 9 -1
v 0 9 -2
v 1 9 -2
v 2 9 -2
v 3 9 -2
v 4 9 -2
v 5 9 -2
v 6 9 -2
v 7 9 -2
v 8 9 -2
v 9 9 -2
v 10 9 -2
v -7 10 -0
v -3 10 -0
v 1 10 -0
v 2 10 -0
v 3 10 -0
v 4 10 -0
v 8 10 -0
v 11 10 -0
v -7 10 -1
v -3 10 -1
v 1 10 -1
v 2 10 -1
v 3 10 -1
v 4 10 -1
v 8 10 -1
v 11 10 -1
v 0 11 -0
v 1 11 -0
v 7 11 -0
v 8 11 -0
v 0 11 -1
v 1 11 -1
v 7 11 -1
v 8 11 -1
v -2 12 -0
v 0 12 -0
v 6 12 -0
v 7 12 -0
v -2 12 -1
v 0 12 -1
v 6 12 -1
v 7 12 -1
v 3 13 -0
v 6 13 -0
v 3 13 -1
v 6 13 -1

# faces
f 3/4/1 2/4/1 1/4/1
f 4/4/1 2/4/1 3/4/1
f 7/4/1 6/4/1 5/4/1
f 8/4/1 6/4/1 7/4/1
f 11/4/1 10/4/1 9/4/1
f 12/4/1 10/4/1 11/4/1
f 15/4/1 14/4/1 13/4/1
f 16/4/1 14/4/1 15/4/1
f 19/4/1 18/4/1 17/4/1
f 20/4/1 18/4/1 19/4/1
f 23/4/1 22/4/1 21/4/1
f 24/4/1 22/4/1 23/4/1
f 27/4/1 26/4/1 25/4/1
f 28/4/1 26/4/1 27/4/1
f 33/1/1 30/1/1 29/1/1
f 34/1/1 30/1/1 33/1/1
f 35/1/1 32/1/1 31/1/1
f 36/1/1 32/1/1 35/1/1
f 39/1/1 38/1/1 37/1/1
f 40/1/1 38/1/1 39/1/1
f 43/4/1 42/4/1 41/4/1
f 44/4/1 42/4/1 43/4/1
f 47/4/1 46/4/1 45/4/1
f 48/4/1 46/4/1 47/4/1
f 51/4/1 50/4/1 49/4/1
f 52/4/1 50/4/1 51/4/1
f 55/4/1 54/4/1 53/4/1
f 56/4/1 54/4/1 55/4/1
f 57/4/2 58/4/2 59/4/2
f 59/4/2 58/4/2 60/4/2
f 61/4/2 62/4/2 63/4/2
f 63/4/2 62/4/2 64/4/2
f 65/4/2 66/4/2 67/4/2
f 67/4/2 66/4/2 68/4/2
f 69/4/2 70/4/2 71/4/2
f 71/4/2 70/4/2 72/4/2
f 73/4/2 74/4/2 75/4/2
f 75/4/2 74/4/2 76/4/2
f 77/4/2 78/4/2 79/4/2
f 79/4/2 78/4/2 80/4/2
f 81/4/2 82/4/2 83/4/2
f 83/4/2 82/4/2 84/4/2
f 85/4/2 86/4/2 87/4/2
f 87/4/2 86/4/2 88/4/2
f 89/4/2 90/4/2 91/4/2
f 91/4/2 90/4/2 92/4/2
f 93/1/2 94/1/2 97/1/2
f 97/1/2 94/1/2 98/1/2
f 95/1/2 96/1/2 99/1/2
f 99/1/2 96/1/2 100/1/2
f 97/3/2 98/3/2 101/3/2
f 101/3/2 98/3/2 102/3/2
f 99/3/2 100/3/2 103/3/2
f 103/3/2 100/3/2 104/3/2
f 105/1/2 106/1/2 107/1/2
f 107/1/2 106/1/2 108/1/2
f 109/1/2 110/1/2 111/1/2
f 111/1/2 110/1/2 112/1/2
f 113/1/2 114/1/2 115/1/2
f 115/1/2 114/1/2 116/1/2
f 119/1/3 118/1/3 117/1/3
f 120/1/3 118/1/3 119/1/3
f 121/1/3 119/1/3 117/1/3
f 121/2/3 120/2/3 119/2/3
f 122/2/3 120/2/3 121/2/3
f 123/1/3 121/1/3 117/1/3
f 123/1/3 122/1/3 121/1/3
f 124/1/3 122/1/3 123/1/3
f 125/1/3 123/1/3 117/1/3
f 125/2/3 124/2/3 123/2/3
f 126/2/3 124/2/3 125/2/3
f 127/1/3 126/1/3 125/1/3
f 128/1/3 126/1/3 127/1/3
f 129/1/3 127/1/3 125/1/3
f 129/2/3 128/2/3 127/2/3
f 130/2/3 128/2/3 129/2/3
f 131/1/3 125/1/3 117/1/3
f 131/1/3 129/1/3 125/1/3
f 131/1/3 130/1/3 129/1/3
f 132/1/3 130/1/3 131/1/3
f 133/1/3 131/1/3 117/1/3
f 133/2/3 132/2/3 131/2/3
f 134/2/3 132/2/3 133/2/3
f 135/1/3 134/1/3 133/1/3
f 136/1/3 134/1/3 135/1/3
f 137/1/3 133/1/3 117/1/3
f 137/1/3 135/1/3 133/1/3
f 138/3/3 136/3/3 135/3/3
f 138/1/3 135/1/3 137/1/3
f 139/3/3 136/3/3 138/3/3
f 144/4/3 141/4/3 140/4/3
f 147/4/3 143/4/3 142/4/3
f 148/4/3 145/4/3 144/4/3
f 149/4/3 147/4/3 146/4/3
f 150/4/3 148/4/3 144/4/3
f 150/4/3 149/4/3 148/4/3
f 150/4/3 144/4/3 140/4/3
f 151/4/3 149/4/3 150/4/3
f 152/4/3 147/4/3 149/4/3
f 152/4/3 149/4/3 151/4/3
f 152/4/3 143/4/3 147/4/3
f 153/4/3 143/4/3 152/4/3
f 154/4/3 152/4/3 151/4/3
f 155/4/3 152/4/3 154/4/3
f 158/1/3 155/1/3 154/1/3
f 159/4/3 157/4/3 156/4/3
f 160/1/3 158/1/3 154/1/3
f 161/4/3 159/4/3 158/4/3
f 161/1/3 158/1/3 160/1/3
f 162/4/3 157/4/3 159/4/3
f 162/4/3 159/4/3 161/4/3
f 163/4/3 157/4/3 162/4/3
f 166/4/3 162/4/3 161/4/3
f 167/4/3 162/4/3 166/4/3
f 168/4/3 162/4/3 167/4/3
f 169/2/3 167/2/3 166/2/3
f 170/2/3 167/2/3 169/2/3
f 173/1/3 170/1/3 169/1/3
f 174/1/3 170/1/3 173/1/3
f 177/4/3 172/4/3 171/4/3
f 178/1/3 165/1/3 164/1/3
f 179/2/3 174/2/3 173/2/3
f 180/2/3 174/2/3 179/2/3
f 181/4/3 176/4/3 175/4/3
f 182/1/3 180/1/3 179/1/3
f 183/4/3 181/4/3 180/4/3
f 183/1/3 180/1/3 182/1/3
f 184/4/3 177/4/3 171/4/3
f 184/4/3 178/4/3 177/4/3
f 185/4/3 178/4/3 184/4/3
f 186/2/3 183/2/3 182/2/3
f 187/4/3 181/4/3 183/4/3
f 187/2/3 183/2/3 186/2/3
f 188/4/3 176/4/3 181/4/3
f 188/4/3 181/4/3 187/4/3
f 189/4/3 176/4/3 188/4/3
f 190/4/3 178/4/3 185/4/3
f 191/1/3 165/1/3 178/1/3
f 191/4/3 178/4/3 190/4/3
f 192/1/3 187/1/3 186/1/3
f 193/4/3 188/4/3 187/4/3
f 193/1/3 187/1/3 192/1/3
f 194/4/3 188/4/3 193/4/3
f 195/4/3 188/4/3 194/4/3
f 196/2/3 193/2/3 192/2/3
f 197/4/3 194/4/3 193/4/3
f 197/2/3 193/2/3 196/2/3
f 198/4/3 194/4/3 197/4/3
f 199/1/3 197/1/3 196/1/3
f 200/1/3 165/1/3 191/1/3
f 202/1/3 197/1/3 199/1/3
f 203/1/3 201/1/3 200/1/3
f 203/1/3 202/1/3 201/1/3
f 203/1/3 200/1/3 191/1/3
f 204/1/3 202/1/3 203/1/3
f 205/1/3 197/1/3 202/1/3
f 205/1/3 202/1/3 204/1/3
f 206/1/3 197/1/3 205/1/3
f 207/1/3 205/1/3 204/1/3
f 208/1/3 205/1/3 207/1/3
f 209/4/4 210/4/4 213/4/4
f 211/4/4 212/4/4 216/4/4
f 213/4/4 214/4/4 217/4/4
f 215/4/4 216/4/4 218/4/4
f 213/4/4 217/4/4 219/4/4
f 217/4/4 218/4/4 219/4/4
f 209/4/4 213/4/4 219/4/4
f 219/4/4 218/4/4 220/4/4
f 218/4/4 216/4/4 221/4/4
f 220/4/4 218/4/4 221/4/4
f 216/4/4 212/4/4 221/4/4
f 221/4/4 212/4/4 222/4/4
f 220/4/4 221/4/4 223/4/4
f 223/4/4 221/4/4 224/4/4
f 223/1/4 224/1/4 227/1/4
f 225/4/4 226/4/4 228/4/4
f 223/1/4 227/1/4 229/1/4
f 227/4/4 228/4/4 230/4/4
f 229/1/4 227/1/4 230/1/4
f 228/4/4 226/4/4 231/4/4
f 230/4/4 228/4/4 231/4/4
f 231/4/4 226/4/4 232/4/4
f 230/4/4 231/4/4 235/4/4
f 235/4/4 231/4/4 236/4/4
f 236/4/4 231/4/4 237/4/4
f 235/2/4 236/2/4 238/2/4
f 238/2/4 236/2/4 239/2/4
f 238/1/4 239/1/4 242/1/4
f 242/1/4 239/1/4 243/1/4
f 240/4/4 241/4/4 246/4/4
f 233/1/4 234/1/4 247/1/4
f 242/2/4 243/2/4 248/2/4
f 248/2/4 243/2/4 249/2/4
f 244/4/4 245/4/4 250/4/4
f 248/1/4 249/1/4 251/1/4
f 249/4/4 250/4/4 252/4/4
f 251/1/4 249/1/4 252/1/4
f 240/4/4 246/4/4 253/4/4
f 246/4/4 247/4/4 253/4/4
f 253/4/4 247/4/4 254/4/4
f 251/2/4 252/2/4 255/2/4
f 252/4/4 250/4/4 256/4/4
f 255/2/4 252/2/4 256/2/4
f 250/4/4 245/4/4 257/4/4
f 256/4/4 250/4/4 257/4/4
f 257/4/4 245/4/4 258/4/4
f 254/4/4 247/4/4 259/4/4
f 247/1/4 234/1/4 260/1/4
f 259/4/4 247/4/4 260/4/4
f 255/1/4 256/1/4 261/1/4
f 256/4/4 257/4/4 262/4/4
f 261/1/4 256/1/4 262/1/4
f 262/4/4 257/4/4 263/4/4
f 263/4/4 257/4/4 264/4/4
f 261/2/4 262/2/4 265/2/4
f 262/4/4 263/4/4 266/4/4
f 265/2/4 262/2/4 266/2/4
f 266/4/4 263/4/4 267/4/4
f 265/1/4 266/1/4 268/1/4
f 260/1/4 234/1/4 269/1/4
f 268/1/4 266/1/4 271/1/4
f 269/1/4 270/1/4 272/1/4
f 270/1/4 271/1/4 272/1/4
f 260/1/4 269/1/4 272/1/4
f 272/1/4 271/1/4 273/1/4
f 271/1/4 266/1/4 274/1/4
f 273/1/4 271/1/4 274/1/4
f 274/1/4 266/1/4 275/1/4
f 273/1/4 274/1/4 276/1/4
f 276/1/4 274/1/4 277/1/4
f 278/1/4 279/1/4 280/1/4
f 280/1/4 279/1/4 281/1/4
f 278/1/4 280/1/4 282/1/4
f 280/2/4 281/2/4 282/2/4
f 282/2/4 281/2/4 283/2/4
f 278/1/4 282/1/4 284/1/4
f 282/1/4 283/1/4 284/1/4
f 284/1/4 283/1/4 285/1/4
f 278/1/4 284/1/4 286/1/4
f 284/2/4 285/2/4 286/2/4
f 286/2/4 285/2/4 287/2/4
f 286/1/4 287/1/4 288/1/4
f 288/1/4 287/1/4 289/1/4
f 286/1/4 288/1/4 290/1/4
f 288/2/4 289/2/4 290/2/4
f 290/2/4 289/2/4 291/2/4
f 278/1/4 286/1/4 292/1/4
f 286/1/4 290/1/4 292/1/4
f 290/1/4 291/1/4 292/1/4
f 292/1/4 291/1/4 293/1/4
f 278/1/4 292/1/4 294/1/4
f 292/2/4 293/2/4 294/2/4
f 294/2/4 293/2/4 295/2/4
f 294/1/4 295/1/4 296/1/4
f 296/1/4 295/1/4 297/1/4
f 278/1/4 294/1/4 298/1/4
f 294/1/4 296/1/4 298/1/4
f 296/3/4 297/3/4 299/3/4
f 298/1/4 296/1/4 299/1/4
f 299/3/4 297/3/4 300/3/4
f 303/4/5 302/4/5 301/4/5
f 304/4/5 302/4/5 303/4/5
f 307/4/5 306/4/5 305/4/5
f 308/4/5 306/4/5 307/4/5
f 315/4/5 310/4/5 309/4/5
f 316/4/5 310/4/5 315/4/5
f 317/1/5 312/1/5 311/1/5
f 318/1/5 312/1/5 317/1/5
f 319/1/5 314/1/5 313/1/5
f 320/1/5 314/1/5 319/1/5
f 325/1/5 322/1/5 321/1/5
f 326/1/5 322/1/5 325/1/5
f 327/1/5 322/1/5 326/1/5
f 330/4/5 324/4/5 323/4/5
f 331/1/5 325/1/5 324/1/5
f 331/4/5 324/4/5 330/4/5
f 331/1/5 326/1/5 325/1/5
f 332/1/5 326/1/5 331/1/5
f 333/1/5 326/1/5 332/1/5
f 335/1/5 329/1/5 328/1/5
f 336/1/5 329/1/5 335/1/5
f 337/1/5 334/1/5 333/1/5
f 337/1/5 333/1/5 332/1/5
f 338/1/5 334/1/5 337/1/5
f 341/4/5 340/4/5 339/4/5
f 342/4/5 340/4/5 341/4/5
f 345/4/5 344/4/5 343/4/5
f 346/4/5 344/4/5 345/4/5
f 349/4/5 348/4/5 347/4/5
f 350/4/5 348/4/5 349/4/5
f 353/4/5 352/4/5 351/4/5
f 354/4/5 352/4/5 353/4/5
f 355/4/6 356/4/6 357/4/6
f 357/4/6 356/4/6 358/4/6
f 359/4/6 360/4/6 361/4/6
f 361/4/6 360/4/6 362/4/6
f 363/4/6 364/4/6 365/4/6
f 365/4/6 364/4/6 366/4/6
f 367/1/6 368/1/6 381/1/6
f 368/2/6 369/2/6 382/2/6
f 381/1/6 368/1/6 382/1/6
f 369/1/6 370/1/6 383/1/6
f 382/2/6 369/2/6 383/2/6
f 370/2/6 371/2/6 384/2/6
f 383/1/6 370/1/6 384/1/6
f 371/1/6 372/1/6 385/1/6
f 384/2/6 371/2/6 385/2/6
f 372/2/6 373/2/6 386/2/6
f 385/1/6 372/1/6 386/1/6
f 373/1/6 374/1/6 387/1/6
f 386/2/6 373/2/6 387/2/6
f 374/2/6 375/2/6 388/2/6
f 387/1/6 374/1/6 388/1/6
f 375/1/6 376/1/6 389/1/6
f 388/2/6 375/2/6 389/2/6
f 376/3/6 377/3/6 390/3/6
f 389/1/6 376/1/6 390/1/6
f 390/3/6 377/3/6 391/3/6
f 378/4/6 379/4/6 394/4/6
f 379/1/6 380/1/6 395/1/6
f 394/4/6 379/4/6 395/4/6
f 395/1/6 380/1/6 396/1/6
f 392/1/6 393/1/6 408/1/6
f 408/1/6 393/1/6 409/1/6
f 397/1/6 398/1/6 410/1/6
f 398/2/6 399/2/6 411/2/6
f 410/1/6 398/1/6 411/1/6
f 399/1/6 400/1/6 412/1/6
f 411/2/6 399/2/6 412/2/6
f 400/2/6 401/2/6 413/2/6
f 412/1/6 400/1/6 413/1/6
f 401/1/6 402/1/6 414/1/6
f 413/2/6 401/2/6 414/2/6
f 402/2/6 403/2/6 415/2/6
f 414/1/6 402/1/6 415/1/6
f 403/1/6 404/1/6 416/1/6
f 415/2/6 403/2/6 416/2/6
f 404/2/6 405/2/6 417/2/6
f 416/1/6 404/1/6 417/1/6
f 405/1/6 406/1/6 418/1/6
f 417/2/6 405/2/6 418/2/6
f 406/3/6 407/3/6 419/3/6
f 418/1/6 406/1/6 419/1/6
f 419/3/6 407/3/6 420/3/6
f 421/4/6 422/4/6 429/4/6
f 429/4/6 422/4/6 430/4/6
f 423/2/6 424/2/6 431/2/6
f 424/1/6 425/1/6 432/1/6
f 431/2/6 424/2/6 432/2/6
f 425/2/6 426/2/6 433/2/6
f 432/1/6 425/1/6 433/1/6
f 433/2/6 426/2/6 434/2/6
f 427/1/6 428/1/6 435/1/6
f 435/1/6 428/1/6 436/1/6
f 437/4/6 438/4/6 441/4/6
f 441/4/6 438/4/6 442/4/6
f 439/4/6 440/4/6 443/4/6
f 443/4/6 440/4/6 444/4/6
f 445/4/6 446/4/6 449/4/6
f 449/4/6 446/4/6 450/4/6
f 447/4/6 448/4/6 451/4/6
f 451/4/6 448/4/6 452/4/6
f 453/4/6 454/4/6 455/4/6
f 455/4/6 454/4/6 456/4/6
