# MagicaVoxel @ ephtracy

# material
mtllib seahorse.mtl
usemtl palette

# normals
vn -1 0 0
vn 1 0 0
vn 0 0 1
vn 0 0 -1
vn 0 -1 0
vn 0 1 0

# texcoords
vt 0.00195313 0.5
vt 0.00585938 0.5
vt 0.00976563 0.5
vt 0.0136719 0.5

# verts
v -4.5 12 0.5
v -4.5 12 -0.5
v -4.5 13 0.5
v -4.5 13 -0.5
v -3.5 2 0.5
v -3.5 2 -0.5
v -3.5 3 0.5
v -3.5 3 -0.5
v -3.5 4 0.5
v -3.5 4 -0.5
v -3.5 13 1.5
v -3.5 13 0.5
v -3.5 13 -0.5
v -3.5 13 -1.5
v -3.5 14 1.5
v -3.5 14 0.5
v -3.5 14 -0.5
v -3.5 14 -1.5
v -2.5 1 0.5
v -2.5 1 -0.5
v -2.5 2 0.5
v -2.5 2 -0.5
v -2.5 7 0.5
v -2.5 7 -0.5
v -2.5 8 0.5
v -2.5 8 -0.5
v -2.5 9 0.5
v -2.5 9 -0.5
v -2.5 10 0.5
v -2.5 10 -0.5
v -2.5 11 0.5
v -2.5 11 -0.5
v -2.5 14 0.5
v -2.5 14 -0.5
v -2.5 15 0.5
v -2.5 15 -0.5
v -1.5 6 0.5
v -1.5 6 -0.5
v -1.5 7 0.5
v -1.5 7 -0.5
v -1.5 11 0.5
v -1.5 11 -0.5
v -1.5 12 0.5
v -1.5 12 -0.5
v -1.5 15 0.5
v -1.5 15 -0.5
v -1.5 16 0.5
v -1.5 16 -0.5
v -0.5 2 0.5
v -0.5 2 -0.5
v -0.5 3 0.5
v -0.5 3 -0.5
v -0.5 4 0.5
v -0.5 4 -0.5
v -0.5 5 0.5
v -0.5 5 -0.5
v -0.5 6 0.5
v -0.5 6 -0.5
v -2.5 2 0.5
v -2.5 2 -0.5
v -2.5 3 0.5
v -2.5 3 -0.5
v -2.5 13 1.5
v -2.5 13 0.5
v -2.5 13 -0.5
v -2.5 13 -1.5
v -2.5 14 1.5
v -2.5 14 0.5
v -2.5 14 -0.5
v -2.5 14 -1.5
v -1.5 3 0.5
v -1.5 3 -0.5
v -1.5 4 0.5
v -1.5 4 -0.5
v -0.5 1 0.5
v -0.5 1 -0.5
v -0.5 2 0.5
v -0.5 2 -0.5
v 0.5 2 0.5
v 0.5 2 -0.5
v 0.5 3 0.5
v 0.5 3 -0.5
v 0.5 4 0.5
v 0.5 4 -0.5
v 0.5 5 0.5
v 0.5 5 -0.5
v 0.5 6 0.5
v 0.5 6 -0.5
v 0.5 7 0.5
v 0.5 7 -0.5
v 0.5 11 0.5
v 0.5 11 -0.5
v 0.5 12 0.5
v 0.5 12 -0.5
v 0.5 13 0.5
v 0.5 13 -0.5
v 0.5 15 0.5
v 0.5 15 -0.5
v 0.5 16 0.5
v 0.5 16 -0.5
v 1.5 7 0.5
v 1.5 7 -0.5
v 1.5 11 0.5
v 1.5 11 -0.5
v 1.5 13 0.5
v 1.5 13 -0.5
v 1.5 15 0.5
v 1.5 15 -0.5
v -3.5 13 1.5
v -3.5 14 1.5
v -2.5 13 1.5
v -2.5 14 1.5
v -4.5 12 0.5
v -4.5 13 0.5
v -3.5 2 0.5
v -3.5 3 0.5
v -3.5 4 0.5
v -3.5 13 0.5
v -2.5 1 0.5
v -2.5 2 0.5
v -2.5 3 0.5
v -2.5 7 0.5
v -2.5 8 0.5
v -2.5 9 0.5
v -2.5 10 0.5
v -2.5 11 0.5
v -2.5 13 0.5
v -2.5 14 0.5
v -2.5 15 0.5
v -1.5 1 0.5
v -1.5 2 0.5
v -1.5 3 0.5
v -1.5 4 0.5
v -1.5 6 0.5
v -1.5 7 0.5
v -1.5 11 0.5
v -1.5 12 0.5
v -1.5 15 0.5
v -1.5 16 0.5
v -0.5 1 0.5
v -0.5 2 0.5
v -0.5 3 0.5
v -0.5 4 0.5
v -0.5 5 0.5
v -0.5 6 0.5
v -0.5 14 0.5
v -0.5 15 0.5
v 0.5 2 0.5
v 0.5 3 0.5
v 0.5 4 0.5
v 0.5 5 0.5
v 0.5 6 0.5
v 0.5 7 0.5
v 0.5 8 0.5
v 0.5 9 0.5
v 0.5 10 0.5
v 0.5 11 0.5
v 0.5 12 0.5
v 0.5 13 0.5
v 0.5 14 0.5
v 0.5 15 0.5
v 0.5 16 0.5
v 1.5 7 0.5
v 1.5 11 0.5
v 1.5 13 0.5
v 1.5 15 0.5
v -4.5 12 -0.5
v -4.5 13 -0.5
v -3.5 2 -0.5
v -3.5 3 -0.5
v -3.5 4 -0.5
v -3.5 13 -0.5
v -2.5 1 -0.5
v -2.5 2 -0.5
v -2.5 3 -0.5
v -2.5 7 -0.5
v -2.5 8 -0.5
v -2.5 9 -0.5
v -2.5 10 -0.5
v -2.5 11 -0.5
v -2.5 13 -0.5
v -2.5 14 -0.5
v -2.5 15 -0.5
v -1.5 1 -0.5
v -1.5 2 -0.5
v -1.5 3 -0.5
v -1.5 4 -0.5
v -1.5 6 -0.5
v -1.5 7 -0.5
v -1.5 11 -0.5
v -1.5 12 -0.5
v -1.5 15 -0.5
v -1.5 16 -0.5
v -0.5 1 -0.5
v -0.5 2 -0.5
v -0.5 3 -0.5
v -0.5 4 -0.5
v -0.5 5 -0.5
v -0.5 6 -0.5
v -0.5 14 -0.5
v -0.5 15 -0.5
v 0.5 2 -0.5
v 0.5 3 -0.5
v 0.5 4 -0.5
v 0.5 5 -0.5
v 0.5 6 -0.5
v 0.5 7 -0.5
v 0.5 8 -0.5
v 0.5 9 -0.5
v 0.5 10 -0.5
v 0.5 11 -0.5
v 0.5 12 -0.5
v 0.5 13 -0.5
v 0.5 14 -0.5
v 0.5 15 -0.5
v 0.5 16 -0.5
v 1.5 7 -0.5
v 1.5 11 -0.5
v 1.5 13 -0.5
v 1.5 15 -0.5
v -3.5 13 -1.5
v -3.5 14 -1.5
v -2.5 13 -1.5
v -2.5 14 -1.5
v -2.5 1 0.5
v -1.5 1 0.5
v -0.5 1 0.5
v -2.5 1 -0.5
v -1.5 1 -0.5
v -0.5 1 -0.5
v -3.5 2 0.5
v -2.5 2 0.5
v -0.5 2 0.5
v 0.5 2 0.5
v -3.5 2 -0.5
v -2.5 2 -0.5
v -0.5 2 -0.5
v 0.5 2 -0.5
v -2.5 3 0.5
v -1.5 3 0.5
v -2.5 3 -0.5
v -1.5 3 -0.5
v -1.5 6 0.5
v -0.5 6 0.5
v -1.5 6 -0.5
v -0.5 6 -0.5
v -2.5 7 0.5
v -1.5 7 0.5
v 0.5 7 0.5
v 1.5 7 0.5
v -2.5 7 -0.5
v -1.5 7 -0.5
v 0.5 7 -0.5
v 1.5 7 -0.5
v -4.5 12 0.5
v -1.5 12 0.5
v -4.5 12 -0.5
v -1.5 12 -0.5
v -3.5 13 1.5
v -2.5 13 1.5
v -3.5 13 0.5
v -2.5 13 0.5
v 0.5 13 0.5
v 1.5 13 0.5
v -3.5 13 -0.5
v -2.5 13 -0.5
v 0.5 13 -0.5
v 1.5 13 -0.5
v -3.5 13 -1.5
v -2.5 13 -1.5
v -2.5 2 0.5
v -1.5 2 0.5
v -0.5 2 0.5
v -2.5 2 -0.5
v -1.5 2 -0.5
v -0.5 2 -0.5
v -3.5 4 0.5
v -1.5 4 0.5
v -3.5 4 -0.5
v -1.5 4 -0.5
v -2.5 11 0.5
v -1.5 11 0.5
v 0.5 11 0.5
v 1.5 11 0.5
v -2.5 11 -0.5
v -1.5 11 -0.5
v 0.5 11 -0.5
v 1.5 11 -0.5
v -4.5 13 0.5
v -3.5 13 0.5
v -4.5 13 -0.5
v -3.5 13 -0.5
v -3.5 14 1.5
v -2.5 14 1.5
v -3.5 14 0.5
v -2.5 14 0.5
v -3.5 14 -0.5
v -2.5 14 -0.5
v -3.5 14 -1.5
v -2.5 14 -1.5
v -2.5 15 0.5
v -1.5 15 0.5
v 0.5 15 0.5
v 1.5 15 0.5
v -2.5 15 -0.5
v -1.5 15 -0.5
v 0.5 15 -0.5
v 1.5 15 -0.5
v -1.5 16 0.5
v 0.5 16 0.5
v -1.5 16 -0.5
v 0.5 16 -0.5

# faces
f 3/3/1 2/3/1 1/3/1
f 4/3/1 2/3/1 3/3/1
f 7/2/1 6/2/1 5/2/1
f 8/2/1 6/2/1 7/2/1
f 9/3/1 8/3/1 7/3/1
f 10/3/1 8/3/1 9/3/1
f 15/1/1 12/1/1 11/1/1
f 16/2/1 13/2/1 12/2/1
f 16/1/1 12/1/1 15/1/1
f 17/1/1 14/1/1 13/1/1
f 17/2/1 13/2/1 16/2/1
f 18/1/1 14/1/1 17/1/1
f 21/3/1 20/3/1 19/3/1
f 22/3/1 20/3/1 21/3/1
f 25/2/1 24/2/1 23/2/1
f 26/2/1 24/2/1 25/2/1
f 27/3/1 26/3/1 25/3/1
f 28/3/1 26/3/1 27/3/1
f 29/2/1 28/2/1 27/2/1
f 30/2/1 28/2/1 29/2/1
f 31/3/1 30/3/1 29/3/1
f 32/3/1 30/3/1 31/3/1
f 35/3/1 34/3/1 33/3/1
f 36/3/1 34/3/1 35/3/1
f 39/3/1 38/3/1 37/3/1
f 40/3/1 38/3/1 39/3/1
f 43/2/1 42/2/1 41/2/1
f 44/2/1 42/2/1 43/2/1
f 47/4/1 46/4/1 45/4/1
f 48/4/1 46/4/1 47/4/1
f 51/3/1 50/3/1 49/3/1
f 52/3/1 50/3/1 51/3/1
f 53/2/1 52/2/1 51/2/1
f 54/2/1 52/2/1 53/2/1
f 55/3/1 54/3/1 53/3/1
f 56/3/1 54/3/1 55/3/1
f 57/2/1 56/2/1 55/2/1
f 58/2/1 56/2/1 57/2/1
f 59/2/2 60/2/2 61/2/2
f 61/2/2 60/2/2 62/2/2
f 63/1/2 64/1/2 67/1/2
f 67/1/2 64/1/2 68/1/2
f 65/1/2 66/1/2 69/1/2
f 69/1/2 66/1/2 70/1/2
f 71/3/2 72/3/2 73/3/2
f 73/3/2 72/3/2 74/3/2
f 75/2/2 76/2/2 77/2/2
f 77/2/2 76/2/2 78/2/2
f 79/3/2 80/3/2 81/3/2
f 81/3/2 80/3/2 82/3/2
f 81/2/2 82/2/2 83/2/2
f 83/2/2 82/2/2 84/2/2
f 83/3/2 84/3/2 85/3/2
f 85/3/2 84/3/2 86/3/2
f 85/2/2 86/2/2 87/2/2
f 87/2/2 86/2/2 88/2/2
f 87/3/2 88/3/2 89/3/2
f 89/3/2 88/3/2 90/3/2
f 91/2/2 92/2/2 93/2/2
f 93/2/2 92/2/2 94/2/2
f 93/3/2 94/3/2 95/3/2
f 95/3/2 94/3/2 96/3/2
f 97/4/2 98/4/2 99/4/2
f 99/4/2 98/4/2 100/4/2
f 101/4/2 102/4/2 103/4/2
f 103/4/2 102/4/2 104/4/2
f 105/4/2 106/4/2 107/4/2
f 107/4/2 106/4/2 108/4/2
f 111/1/3 110/1/3 109/1/3
f 112/1/3 110/1/3 111/1/3
f 118/3/3 114/3/3 113/3/3
f 120/2/3 116/2/3 115/2/3
f 121/3/3 117/3/3 116/3/3
f 121/2/3 116/2/3 120/2/3
f 127/3/3 118/3/3 113/3/3
f 130/3/3 120/3/3 119/3/3
f 131/3/3 120/3/3 130/3/3
f 132/3/3 117/3/3 121/3/3
f 133/3/3 117/3/3 132/3/3
f 135/2/3 123/2/3 122/2/3
f 136/3/3 126/3/3 125/3/3
f 137/3/3 127/3/3 113/3/3
f 138/3/3 129/3/3 128/3/3
f 140/2/3 131/2/3 130/2/3
f 141/2/3 131/2/3 140/2/3
f 145/3/3 135/3/3 134/3/3
f 146/2/3 128/2/3 127/2/3
f 146/3/3 138/3/3 128/3/3
f 147/4/3 139/4/3 138/4/3
f 147/3/3 138/3/3 146/3/3
f 148/3/3 142/3/3 141/3/3
f 149/2/3 143/2/3 142/2/3
f 149/3/3 142/3/3 148/3/3
f 150/3/3 144/3/3 143/3/3
f 150/2/3 143/2/3 149/2/3
f 151/2/3 145/2/3 144/2/3
f 151/3/3 144/3/3 150/3/3
f 152/3/3 135/3/3 145/3/3
f 152/2/3 145/2/3 151/2/3
f 153/2/3 123/2/3 135/2/3
f 153/3/3 135/3/3 152/3/3
f 154/3/3 124/3/3 123/3/3
f 154/2/3 123/2/3 153/2/3
f 155/2/3 125/2/3 124/2/3
f 155/3/3 124/3/3 154/3/3
f 156/3/3 136/3/3 125/3/3
f 156/2/3 125/2/3 155/2/3
f 157/2/3 137/2/3 136/2/3
f 157/3/3 136/3/3 156/3/3
f 158/3/3 127/3/3 137/3/3
f 158/2/3 137/2/3 157/2/3
f 159/2/3 146/2/3 127/2/3
f 159/3/3 127/3/3 158/3/3
f 160/4/3 147/4/3 146/4/3
f 160/2/3 146/2/3 159/2/3
f 161/4/3 139/4/3 147/4/3
f 161/4/3 147/4/3 160/4/3
f 162/4/3 139/4/3 161/4/3
f 163/4/3 156/4/3 155/4/3
f 163/4/3 155/4/3 154/4/3
f 163/4/3 157/4/3 156/4/3
f 163/4/3 154/4/3 153/4/3
f 164/4/3 157/4/3 163/4/3
f 165/4/3 161/4/3 160/4/3
f 165/4/3 160/4/3 159/4/3
f 166/4/3 161/4/3 165/4/3
f 167/3/4 168/3/4 172/3/4
f 169/2/4 170/2/4 174/2/4
f 170/3/4 171/3/4 175/3/4
f 174/2/4 170/2/4 175/2/4
f 167/3/4 172/3/4 181/3/4
f 173/3/4 174/3/4 184/3/4
f 184/3/4 174/3/4 185/3/4
f 175/3/4 171/3/4 186/3/4
f 186/3/4 171/3/4 187/3/4
f 176/2/4 177/2/4 189/2/4
f 179/3/4 180/3/4 190/3/4
f 167/3/4 181/3/4 191/3/4
f 182/3/4 183/3/4 192/3/4
f 184/2/4 185/2/4 194/2/4
f 194/2/4 185/2/4 195/2/4
f 188/3/4 189/3/4 199/3/4
f 181/2/4 182/2/4 200/2/4
f 182/3/4 192/3/4 200/3/4
f 192/4/4 193/4/4 201/4/4
f 200/3/4 192/3/4 201/3/4
f 195/3/4 196/3/4 202/3/4
f 196/2/4 197/2/4 203/2/4
f 202/3/4 196/3/4 203/3/4
f 197/3/4 198/3/4 204/3/4
f 203/2/4 197/2/4 204/2/4
f 198/2/4 199/2/4 205/2/4
f 204/3/4 198/3/4 205/3/4
f 199/3/4 189/3/4 206/3/4
f 205/2/4 199/2/4 206/2/4
f 189/2/4 177/2/4 207/2/4
f 206/3/4 189/3/4 207/3/4
f 177/3/4 178/3/4 208/3/4
f 207/2/4 177/2/4 208/2/4
f 178/2/4 179/2/4 209/2/4
f 208/3/4 178/3/4 209/3/4
f 179/3/4 190/3/4 210/3/4
f 209/2/4 179/2/4 210/2/4
f 190/2/4 191/2/4 211/2/4
f 210/3/4 190/3/4 211/3/4
f 191/3/4 181/3/4 212/3/4
f 211/2/4 191/2/4 212/2/4
f 181/2/4 200/2/4 213/2/4
f 212/3/4 181/3/4 213/3/4
f 200/4/4 201/4/4 214/4/4
f 213/2/4 200/2/4 214/2/4
f 201/4/4 193/4/4 215/4/4
f 214/4/4 201/4/4 215/4/4
f 215/4/4 193/4/4 216/4/4
f 209/4/4 210/4/4 217/4/4
f 208/4/4 209/4/4 217/4/4
f 210/4/4 211/4/4 217/4/4
f 207/4/4 208/4/4 217/4/4
f 217/4/4 211/4/4 218/4/4
f 214/4/4 215/4/4 219/4/4
f 213/4/4 214/4/4 219/4/4
f 219/4/4 215/4/4 220/4/4
f 221/1/4 222/1/4 223/1/4
f 223/1/4 222/1/4 224/1/4
f 228/3/5 226/3/5 225/3/5
f 229/2/5 227/2/5 226/2/5
f 229/3/5 226/3/5 228/3/5
f 230/2/5 227/2/5 229/2/5
f 235/2/5 232/2/5 231/2/5
f 236/2/5 232/2/5 235/2/5
f 237/3/5 234/3/5 233/3/5
f 238/3/5 234/3/5 237/3/5
f 241/3/5 240/3/5 239/3/5
f 242/3/5 240/3/5 241/3/5
f 245/3/5 244/3/5 243/3/5
f 246/3/5 244/3/5 245/3/5
f 251/2/5 248/2/5 247/2/5
f 252/2/5 248/2/5 251/2/5
f 253/4/5 250/4/5 249/4/5
f 254/4/5 250/4/5 253/4/5
f 257/3/5 256/3/5 255/3/5
f 258/3/5 256/3/5 257/3/5
f 261/1/5 260/1/5 259/1/5
f 262/1/5 260/1/5 261/1/5
f 267/4/5 264/4/5 263/4/5
f 268/4/5 264/4/5 267/4/5
f 269/1/5 266/1/5 265/1/5
f 270/1/5 266/1/5 269/1/5
f 271/3/6 272/3/6 274/3/6
f 272/2/6 273/2/6 275/2/6
f 274/3/6 272/3/6 275/3/6
f 275/2/6 273/2/6 276/2/6
f 277/3/6 278/3/6 279/3/6
f 279/3/6 278/3/6 280/3/6
f 281/3/6 282/3/6 285/3/6
f 285/3/6 282/3/6 286/3/6
f 283/4/6 284/4/6 287/4/6
f 287/4/6 284/4/6 288/4/6
f 289/3/6 290/3/6 291/3/6
f 291/3/6 290/3/6 292/3/6
f 293/1/6 294/1/6 295/1/6
f 295/1/6 294/1/6 296/1/6
f 295/2/6 296/2/6 297/2/6
f 297/2/6 296/2/6 298/2/6
f 297/1/6 298/1/6 299/1/6
f 299/1/6 298/1/6 300/1/6
f 301/3/6 302/3/6 305/3/6
f 305/3/6 302/3/6 306/3/6
f 303/4/6 304/4/6 307/4/6
f 307/4/6 304/4/6 308/4/6
f 309/4/6 310/4/6 311/4/6
f 311/4/6 310/4/6 312/4/6
