# MagicaVoxel @ ephtracy

# material
mtllib skelletonfish.mtl
usemtl palette

# normals
vn -1 0 0
vn 1 0 0
vn 0 0 1
vn 0 0 -1
vn 0 -1 0
vn 0 1 0

# texcoords
vt 0.00195313 0.5
vt 0.00585938 0.5
vt 0.00976563 0.5
vt 0.0136719 0.5
vt 0.0175781 0.5

# verts
v -4 5 -0
v -4 5 -1
v -4 7 -0
v -4 7 -1
v -4 8 -0
v -4 8 -1
v -4 10 -0
v -4 10 -1
v -3 7 -0
v -3 7 -1
v -3 8 -0
v -3 8 -1
v -1 6 1
v -1 6 -2
v -1 7 -0
v -1 7 -1
v -1 8 -0
v -1 8 -1
v -1 9 1
v -1 9 -2
v 1 5 -0
v 1 5 -1
v 1 6 1
v 1 6 -0
v 1 6 -1
v 1 6 -2
v 1 7 -0
v 1 7 -1
v 1 8 -0
v 1 8 -1
v 1 10 1
v 1 10 -0
v 1 10 -1
v 1 10 -2
v 1 11 -0
v 1 11 -1
v 2 11 -0
v 2 11 -1
v 2 12 -0
v 2 12 -1
v 3 6 1
v 3 6 -0
v 3 6 -1
v 3 6 -2
v 3 7 -0
v 3 7 -1
v 3 8 -0
v 3 8 -1
v 3 10 1
v 3 10 -0
v 3 10 -1
v 3 10 -2
v 5 6 1
v 5 6 -2
v 5 7 -0
v 5 7 -1
v 5 8 -0
v 5 8 -1
v 5 10 1
v 5 10 -0
v 5 10 -1
v 5 10 -2
v 5 11 -0
v 5 11 -1
v 6 5 1
v 6 5 -0
v 6 5 -1
v 6 5 -2
v 6 6 1
v 6 6 -0
v 6 6 -1
v 6 6 -2
v 6 11 -0
v 6 11 -1
v 6 12 -0
v 6 12 -1
v 7 6 1
v 7 6 -0
v 7 6 -1
v 7 6 -2
v 7 7 -0
v 7 7 -1
v 7 8 -0
v 7 8 -1
v 7 10 1
v 7 10 -0
v 7 10 -1
v 7 10 -2
v 9 6 1
v 9 6 -2
v 9 7 -0
v 9 7 -1
v 9 8 -0
v 9 8 -1
v 9 10 1
v 9 10 -2
v -3 5 -0
v -3 5 -1
v -3 6 -0
v -3 6 -1
v -3 9 -0
v -3 9 -1
v -3 10 -0
v -3 10 -1
v -2 6 -0
v -2 6 -1
v -2 7 -0
v -2 7 -1
v -2 8 -0
v -2 8 -1
v -2 9 -0
v -2 9 -1
v 0 6 1
v 0 6 -2
v 0 7 -0
v 0 7 -1
v 0 8 -0
v 0 8 -1
v 0 9 1
v 0 9 -2
v 2 6 1
v 2 6 -0
v 2 6 -1
v 2 6 -2
v 2 7 -0
v 2 7 -1
v 2 8 -0
v 2 8 -1
v 2 10 1
v 2 10 -0
v 2 10 -1
v 2 10 -2
v 3 5 -0
v 3 5 -1
v 3 6 -0
v 3 6 -1
v 4 6 1
v 4 6 -2
v 4 7 -0
v 4 7 -1
v 4 8 -0
v 4 8 -1
v 4 10 1
v 4 10 -0
v 4 10 -1
v 4 10 -2
v 4 12 -0
v 4 12 -1
v 6 6 1
v 6 6 -0
v 6 6 -1
v 6 6 -2
v 6 7 -0
v 6 7 -1
v 6 8 -0
v 6 8 -1
v 6 10 1
v 6 10 -0
v 6 10 -1
v 6 10 -2
v 8 5 1
v 8 5 -0
v 8 5 -1
v 8 5 -2
v 8 6 1
v 8 6 -0
v 8 6 -1
v 8 6 -2
v 8 7 -0
v 8 7 -1
v 8 8 -0
v 8 8 -1
v 8 10 1
v 8 10 -0
v 8 10 -1
v 8 10 -2
v 8 12 -0
v 8 12 -1
v 10 6 1
v 10 6 -0
v 10 6 -1
v 10 6 -2
v 10 8 1
v 10 8 -0
v 10 8 -1
v 10 8 -2
v 10 9 1
v 10 9 -0
v 10 9 -1
v 10 9 -2
v 10 10 1
v 10 10 -2
v 11 8 1
v 11 8 -0
v 11 8 -1
v 11 8 -2
v 11 9 1
v 11 9 -0
v 11 9 -1
v 11 9 -2
v 12 6 -0
v 12 6 -1
v 12 8 -0
v 12 8 -1
v -1 6 1
v -1 9 1
v 0 6 1
v 0 9 1
v 1 6 1
v 1 10 1
v 2 6 1
v 2 10 1
v 3 6 1
v 3 10 1
v 4 6 1
v 4 10 1
v 5 6 1
v 5 10 1
v 6 5 1
v 6 6 1
v 6 10 1
v 7 6 1
v 7 10 1
v 8 5 1
v 8 6 1
v 8 10 1
v 9 6 1
v 9 10 1
v 10 6 1
v 10 8 1
v 10 9 1
v 10 10 1
v 11 8 1
v 11 9 1
v -4 5 -0
v -4 7 -0
v -4 8 -0
v -4 10 -0
v -3 5 -0
v -3 6 -0
v -3 7 -0
v -3 8 -0
v -3 9 -0
v -3 10 -0
v -2 6 -0
v -2 7 -0
v -2 8 -0
v -2 9 -0
v -1 7 -0
v -1 8 -0
v 0 7 -0
v 0 8 -0
v 1 5 -0
v 1 6 -0
v 1 7 -0
v 1 8 -0
v 1 10 -0
v 1 11 -0
v 2 6 -0
v 2 7 -0
v 2 8 -0
v 2 10 -0
v 2 11 -0
v 2 12 -0
v 3 5 -0
v 3 6 -0
v 3 7 -0
v 3 8 -0
v 3 10 -0
v 4 7 -0
v 4 8 -0
v 4 10 -0
v 4 12 -0
v 5 7 -0
v 5 8 -0
v 5 10 -0
v 5 11 -0
v 6 7 -0
v 6 8 -0
v 6 10 -0
v 6 11 -0
v 6 12 -0
v 7 7 -0
v 7 8 -0
v 7 10 -0
v 8 7 -0
v 8 8 -0
v 8 10 -0
v 8 12 -0
v 9 7 -0
v 9 8 -0
v 10 6 -0
v 10 8 -0
v 11 6 -0
v 11 8 -0
v 12 6 -0
v 12 8 -0
v 6 5 -1
v 6 6 -1
v 7 6 -1
v 8 5 -1
v 8 6 -1
v 6 5 -0
v 6 6 -0
v 7 6 -0
v 8 5 -0
v 8 6 -0
v -4 5 -1
v -4 7 -1
v -4 8 -1
v -4 10 -1
v -3 5 -1
v -3 6 -1
v -3 7 -1
v -3 8 -1
v -3 9 -1
v -3 10 -1
v -2 6 -1
v -2 7 -1
v -2 8 -1
v -2 9 -1
v -1 7 -1
v -1 8 -1
v 0 7 -1
v 0 8 -1
v 1 5 -1
v 1 6 -1
v 1 7 -1
v 1 8 -1
v 1 10 -1
v 1 11 -1
v 2 6 -1
v 2 7 -1
v 2 8 -1
v 2 10 -1
v 2 11 -1
v 2 12 -1
v 3 5 -1
v 3 6 -1
v 3 7 -1
v 3 8 -1
v 3 10 -1
v 4 7 -1
v 4 8 -1
v 4 10 -1
v 4 12 -1
v 5 7 -1
v 5 8 -1
v 5 10 -1
v 5 11 -1
v 6 7 -1
v 6 8 -1
v 6 10 -1
v 6 11 -1
v 6 12 -1
v 7 7 -1
v 7 8 -1
v 7 10 -1
v 8 7 -1
v 8 8 -1
v 8 10 -1
v 8 12 -1
v 9 7 -1
v 9 8 -1
v 10 6 -1
v 10 8 -1
v 11 6 -1
v 11 8 -1
v 12 6 -1
v 12 8 -1
v -1 6 -2
v -1 9 -2
v 0 6 -2
v 0 9 -2
v 1 6 -2
v 1 10 -2
v 2 6 -2
v 2 10 -2
v 3 6 -2
v 3 10 -2
v 4 6 -2
v 4 10 -2
v 5 6 -2
v 5 10 -2
v 6 5 -2
v 6 6 -2
v 6 10 -2
v 7 6 -2
v 7 10 -2
v 8 5 -2
v 8 6 -2
v 8 10 -2
v 9 6 -2
v 9 10 -2
v 10 6 -2
v 10 8 -2
v 10 9 -2
v 10 10 -2
v 11 8 -2
v 11 9 -2
v 6 5 1
v 8 5 1
v -4 5 -0
v -3 5 -0
v 1 5 -0
v 3 5 -0
v 6 5 -0
v 8 5 -0
v -4 5 -1
v -3 5 -1
v 1 5 -1
v 3 5 -1
v 6 5 -1
v 8 5 -1
v 6 5 -2
v 8 5 -2
v -1 6 1
v 0 6 1
v 1 6 1
v 2 6 1
v 3 6 1
v 4 6 1
v 5 6 1
v 6 6 1
v 9 6 1
v 10 6 1
v -3 6 -0
v -2 6 -0
v 1 6 -0
v 2 6 -0
v 3 6 -0
v 6 6 -0
v 7 6 -0
v 8 6 -0
v 10 6 -0
v 11 6 -0
v 12 6 -0
v -3 6 -1
v -2 6 -1
v 1 6 -1
v 2 6 -1
v 3 6 -1
v 6 6 -1
v 7 6 -1
v 8 6 -1
v 10 6 -1
v 11 6 -1
v 12 6 -1
v -1 6 -2
v 0 6 -2
v 1 6 -2
v 2 6 -2
v 3 6 -2
v 4 6 -2
v 5 6 -2
v 6 6 -2
v 9 6 -2
v 10 6 -2
v -2 7 -0
v -1 7 -0
v 0 7 -0
v 1 7 -0
v 2 7 -0
v 3 7 -0
v 4 7 -0
v 5 7 -0
v 6 7 -0
v 7 7 -0
v 8 7 -0
v 9 7 -0
v -2 7 -1
v -1 7 -1
v 0 7 -1
v 1 7 -1
v 2 7 -1
v 3 7 -1
v 4 7 -1
v 5 7 -1
v 6 7 -1
v 7 7 -1
v 8 7 -1
v 9 7 -1
v 10 8 1
v 11 8 1
v -4 8 -0
v -3 8 -0
v 10 8 -0
v 11 8 -0
v -4 8 -1
v -3 8 -1
v 10 8 -1
v 11 8 -1
v 10 8 -2
v 11 8 -2
v 2 10 -0
v 3 10 -0
v 6 10 -0
v 7 10 -0
v 2 10 -1
v 3 10 -1
v 6 10 -1
v 7 10 -1
v 6 6 1
v 7 6 1
v 2 6 -0
v 3 6 -0
v 6 6 -0
v 7 6 -0
v 2 6 -1
v 3 6 -1
v 6 6 -1
v 7 6 -1
v 6 6 -2
v 7 6 -2
v -4 7 -0
v -3 7 -0
v -4 7 -1
v -3 7 -1
v -2 8 -0
v -1 8 -0
v 0 8 -0
v 1 8 -0
v 2 8 -0
v 3 8 -0
v 4 8 -0
v 5 8 -0
v 6 8 -0
v 7 8 -0
v 8 8 -0
v 9 8 -0
v 11 8 -0
v 12 8 -0
v -2 8 -1
v -1 8 -1
v 0 8 -1
v 1 8 -1
v 2 8 -1
v 3 8 -1
v 4 8 -1
v 5 8 -1
v 6 8 -1
v 7 8 -1
v 8 8 -1
v 9 8 -1
v 11 8 -1
v 12 8 -1
v -1 9 1
v 0 9 1
v 10 9 1
v 11 9 1
v -3 9 -0
v -2 9 -0
v 10 9 -0
v 11 9 -0
v -3 9 -1
v -2 9 -1
v 10 9 -1
v 11 9 -1
v -1 9 -2
v 0 9 -2
v 10 9 -2
v 11 9 -2
v 1 10 1
v 2 10 1
v 3 10 1
v 4 10 1
v 5 10 1
v 6 10 1
v 7 10 1
v 8 10 1
v 9 10 1
v 10 10 1
v -4 10 -0
v -3 10 -0
v 1 10 -0
v 2 10 -0
v 3 10 -0
v 4 10 -0
v 5 10 -0
v 6 10 -0
v 7 10 -0
v 8 10 -0
v -4 10 -1
v -3 10 -1
v 1 10 -1
v 2 10 -1
v 3 10 -1
v 4 10 -1
v 5 10 -1
v 6 10 -1
v 7 10 -1
v 8 10 -1
v 1 10 -2
v 2 10 -2
v 3 10 -2
v 4 10 -2
v 5 10 -2
v 6 10 -2
v 7 10 -2
v 8 10 -2
v 9 10 -2
v 10 10 -2
v 1 11 -0
v 2 11 -0
v 5 11 -0
v 6 11 -0
v 1 11 -1
v 2 11 -1
v 5 11 -1
v 6 11 -1
v 2 12 -0
v 4 12 -0
v 6 12 -0
v 8 12 -0
v 2 12 -1
v 4 12 -1
v 6 12 -1
v 8 12 -1

# faces
f 3/1/1 2/1/1 1/1/1
f 4/1/1 2/1/1 3/1/1
f 7/1/1 6/1/1 5/1/1
f 8/1/1 6/1/1 7/1/1
f 11/1/1 10/1/1 9/1/1
f 12/1/1 10/1/1 11/1/1
f 15/2/1 14/2/1 13/2/1
f 16/2/1 14/2/1 15/2/1
f 17/2/1 15/2/1 13/2/1
f 18/2/1 14/2/1 16/2/1
f 19/2/1 17/2/1 13/2/1
f 19/2/1 18/2/1 17/2/1
f 20/2/1 14/2/1 18/2/1
f 20/2/1 18/2/1 19/2/1
f 24/1/1 22/1/1 21/1/1
f 25/1/1 22/1/1 24/1/1
f 27/2/1 24/2/1 23/2/1
f 27/2/1 26/2/1 25/2/1
f 27/2/1 25/2/1 24/2/1
f 28/2/1 26/2/1 27/2/1
f 29/2/1 27/2/1 23/2/1
f 30/2/1 26/2/1 28/2/1
f 31/2/1 29/2/1 23/2/1
f 31/2/1 30/2/1 29/2/1
f 32/2/1 30/2/1 31/2/1
f 33/2/1 26/2/1 30/2/1
f 33/2/1 30/2/1 32/2/1
f 34/2/1 26/2/1 33/2/1
f 35/1/1 33/1/1 32/1/1
f 36/1/1 33/1/1 35/1/1
f 39/1/1 38/1/1 37/1/1
f 40/1/1 38/1/1 39/1/1
f 45/2/1 42/2/1 41/2/1
f 45/2/1 44/2/1 43/2/1
f 45/2/1 43/2/1 42/2/1
f 46/2/1 44/2/1 45/2/1
f 47/2/1 45/2/1 41/2/1
f 48/2/1 44/2/1 46/2/1
f 49/2/1 47/2/1 41/2/1
f 49/2/1 48/2/1 47/2/1
f 50/2/1 48/2/1 49/2/1
f 51/2/1 44/2/1 48/2/1
f 51/2/1 48/2/1 50/2/1
f 52/2/1 44/2/1 51/2/1
f 55/2/1 54/2/1 53/2/1
f 56/2/1 54/2/1 55/2/1
f 57/2/1 55/2/1 53/2/1
f 58/2/1 54/2/1 56/2/1
f 59/2/1 57/2/1 53/2/1
f 59/2/1 58/2/1 57/2/1
f 60/2/1 58/2/1 59/2/1
f 61/2/1 54/2/1 58/2/1
f 61/2/1 58/2/1 60/2/1
f 62/2/1 54/2/1 61/2/1
f 63/1/1 61/1/1 60/1/1
f 64/1/1 61/1/1 63/1/1
f 69/1/1 66/1/1 65/1/1
f 70/1/1 66/1/1 69/1/1
f 71/1/1 68/1/1 67/1/1
f 72/1/1 68/1/1 71/1/1
f 75/1/1 74/1/1 73/1/1
f 76/1/1 74/1/1 75/1/1
f 81/2/1 78/2/1 77/2/1
f 81/2/1 80/2/1 79/2/1
f 81/2/1 79/2/1 78/2/1
f 82/2/1 80/2/1 81/2/1
f 83/2/1 81/2/1 77/2/1
f 84/2/1 80/2/1 82/2/1
f 85/2/1 83/2/1 77/2/1
f 85/2/1 84/2/1 83/2/1
f 86/2/1 84/2/1 85/2/1
f 87/2/1 80/2/1 84/2/1
f 87/2/1 84/2/1 86/2/1
f 88/2/1 80/2/1 87/2/1
f 91/2/1 90/2/1 89/2/1
f 92/2/1 90/2/1 91/2/1
f 93/2/1 91/2/1 89/2/1
f 94/2/1 90/2/1 92/2/1
f 95/2/1 93/2/1 89/2/1
f 95/2/1 94/2/1 93/2/1
f 96/2/1 90/2/1 94/2/1
f 96/2/1 94/2/1 95/2/1
f 97/1/2 98/1/2 99/1/2
f 99/1/2 98/1/2 100/1/2
f 101/1/2 102/1/2 103/1/2
f 103/1/2 102/1/2 104/1/2
f 105/1/2 106/1/2 107/1/2
f 107/1/2 106/1/2 108/1/2
f 109/1/2 110/1/2 111/1/2
f 111/1/2 110/1/2 112/1/2
f 113/2/2 114/2/2 115/2/2
f 115/2/2 114/2/2 116/2/2
f 113/2/2 115/2/2 117/2/2
f 116/2/2 114/2/2 118/2/2
f 113/2/2 117/2/2 119/2/2
f 117/2/2 118/2/2 119/2/2
f 118/2/2 114/2/2 120/2/2
f 119/2/2 118/2/2 120/2/2
f 121/2/2 122/2/2 125/2/2
f 123/2/2 124/2/2 125/2/2
f 122/2/2 123/2/2 125/2/2
f 125/2/2 124/2/2 126/2/2
f 121/2/2 125/2/2 127/2/2
f 126/2/2 124/2/2 128/2/2
f 121/2/2 127/2/2 129/2/2
f 127/2/2 128/2/2 129/2/2
f 129/2/2 128/2/2 130/2/2
f 128/2/2 124/2/2 131/2/2
f 130/2/2 128/2/2 131/2/2
f 131/2/2 124/2/2 132/2/2
f 133/1/2 134/1/2 135/1/2
f 135/1/2 134/1/2 136/1/2
f 137/2/2 138/2/2 139/2/2
f 139/2/2 138/2/2 140/2/2
f 137/2/2 139/2/2 141/2/2
f 140/2/2 138/2/2 142/2/2
f 137/2/2 141/2/2 143/2/2
f 141/2/2 142/2/2 143/2/2
f 143/2/2 142/2/2 144/2/2
f 142/2/2 138/2/2 145/2/2
f 144/2/2 142/2/2 145/2/2
f 145/2/2 138/2/2 146/2/2
f 144/1/2 145/1/2 147/1/2
f 147/1/2 145/1/2 148/1/2
f 149/2/2 150/2/2 153/2/2
f 151/2/2 152/2/2 153/2/2
f 150/2/2 151/2/2 153/2/2
f 153/2/2 152/2/2 154/2/2
f 149/2/2 153/2/2 155/2/2
f 154/2/2 152/2/2 156/2/2
f 149/2/2 155/2/2 157/2/2
f 155/2/2 156/2/2 157/2/2
f 157/2/2 156/2/2 158/2/2
f 156/2/2 152/2/2 159/2/2
f 158/2/2 156/2/2 159/2/2
f 159/2/2 152/2/2 160/2/2
f 161/1/2 162/1/2 165/1/2
f 165/1/2 162/1/2 166/1/2
f 163/1/2 164/1/2 167/1/2
f 167/1/2 164/1/2 168/1/2
f 165/2/2 166/2/2 169/2/2
f 166/2/2 167/2/2 169/2/2
f 167/2/2 168/2/2 169/2/2
f 169/2/2 168/2/2 170/2/2
f 165/2/2 169/2/2 171/2/2
f 170/2/2 168/2/2 172/2/2
f 165/2/2 171/2/2 173/2/2
f 171/2/2 172/2/2 173/2/2
f 173/2/2 172/2/2 174/2/2
f 172/2/2 168/2/2 175/2/2
f 174/2/2 172/2/2 175/2/2
f 175/2/2 168/2/2 176/2/2
f 174/1/2 175/1/2 177/1/2
f 177/1/2 175/1/2 178/1/2
f 179/2/2 180/2/2 183/2/2
f 183/2/2 180/2/2 184/2/2
f 181/2/2 182/2/2 185/2/2
f 185/2/2 182/2/2 186/2/2
f 187/2/2 188/2/2 191/2/2
f 189/2/2 190/2/2 191/2/2
f 188/2/2 189/2/2 191/2/2
f 191/2/2 190/2/2 192/2/2
f 193/3/2 194/3/2 197/3/2
f 194/2/2 195/2/2 198/2/2
f 197/3/2 194/3/2 198/3/2
f 195/3/2 196/3/2 199/3/2
f 198/2/2 195/2/2 199/2/2
f 199/3/2 196/3/2 200/3/2
f 201/2/2 202/2/2 203/2/2
f 203/2/2 202/2/2 204/2/2
f 207/2/3 206/2/3 205/2/3
f 208/2/3 206/2/3 207/2/3
f 211/2/3 210/2/3 209/2/3
f 212/2/3 210/2/3 211/2/3
f 215/2/3 214/2/3 213/2/3
f 216/2/3 214/2/3 215/2/3
f 220/2/3 218/2/3 217/2/3
f 221/2/3 218/2/3 220/2/3
f 222/1/3 220/1/3 219/1/3
f 224/1/3 222/1/3 219/1/3
f 225/2/3 223/2/3 222/2/3
f 225/1/3 222/1/3 224/1/3
f 226/2/3 223/2/3 225/2/3
f 229/2/3 228/2/3 227/2/3
f 230/2/3 228/2/3 229/2/3
f 231/2/3 228/2/3 230/2/3
f 232/2/3 228/2/3 231/2/3
f 233/3/3 231/3/3 230/3/3
f 234/3/3 231/3/3 233/3/3
f 239/1/3 236/1/3 235/1/3
f 240/1/3 236/1/3 239/1/3
f 241/1/3 236/1/3 240/1/3
f 242/1/3 238/1/3 237/1/3
f 243/1/3 238/1/3 242/1/3
f 244/1/3 238/1/3 243/1/3
f 245/1/3 241/1/3 240/1/3
f 245/1/3 243/1/3 242/1/3
f 245/1/3 242/1/3 241/1/3
f 246/1/3 243/1/3 245/1/3
f 247/1/3 243/1/3 246/1/3
f 248/1/3 243/1/3 247/1/3
f 249/4/3 247/4/3 246/4/3
f 250/4/3 247/4/3 249/4/3
f 255/4/3 252/4/3 251/4/3
f 256/4/3 252/4/3 255/4/3
f 259/1/3 254/1/3 253/1/3
f 262/1/3 258/1/3 257/1/3
f 263/1/3 258/1/3 262/1/3
f 265/1/3 259/1/3 253/1/3
f 266/1/3 259/1/3 265/1/3
f 267/4/3 261/4/3 260/4/3
f 268/4/3 261/4/3 267/4/3
f 269/1/3 264/1/3 263/1/3
f 269/1/3 263/1/3 262/1/3
f 272/1/3 264/1/3 269/1/3
f 273/1/3 264/1/3 272/1/3
f 274/4/3 271/4/3 270/4/3
f 275/4/3 271/4/3 274/4/3
f 280/1/3 277/1/3 276/1/3
f 281/1/3 277/1/3 280/1/3
f 283/4/3 279/4/3 278/4/3
f 284/4/3 279/4/3 283/4/3
f 285/1/3 282/1/3 281/1/3
f 285/1/3 281/1/3 280/1/3
f 288/1/3 282/1/3 285/1/3
f 289/1/3 282/1/3 288/1/3
f 290/4/3 287/4/3 286/4/3
f 291/4/3 287/4/3 290/4/3
f 294/4/3 293/4/3 292/4/3
f 295/4/3 293/4/3 294/4/3
f 296/2/3 295/2/3 294/2/3
f 297/2/3 295/2/3 296/2/3
f 300/1/3 299/1/3 298/1/3
f 301/1/3 300/1/3 298/1/3
f 302/1/3 300/1/3 301/1/3
f 303/1/4 304/1/4 305/1/4
f 303/1/4 305/1/4 306/1/4
f 306/1/4 305/1/4 307/1/4
f 308/1/4 309/1/4 312/1/4
f 312/1/4 309/1/4 313/1/4
f 313/1/4 309/1/4 314/1/4
f 310/1/4 311/1/4 315/1/4
f 315/1/4 311/1/4 316/1/4
f 316/1/4 311/1/4 317/1/4
f 313/1/4 314/1/4 318/1/4
f 315/1/4 316/1/4 318/1/4
f 314/1/4 315/1/4 318/1/4
f 318/1/4 316/1/4 319/1/4
f 319/1/4 316/1/4 320/1/4
f 320/1/4 316/1/4 321/1/4
f 319/4/4 320/4/4 322/4/4
f 322/4/4 320/4/4 323/4/4
f 324/4/4 325/4/4 328/4/4
f 328/4/4 325/4/4 329/4/4
f 326/1/4 327/1/4 332/1/4
f 330/1/4 331/1/4 335/1/4
f 335/1/4 331/1/4 336/1/4
f 326/1/4 332/1/4 338/1/4
f 338/1/4 332/1/4 339/1/4
f 333/4/4 334/4/4 340/4/4
f 340/4/4 334/4/4 341/4/4
f 336/1/4 337/1/4 342/1/4
f 335/1/4 336/1/4 342/1/4
f 342/1/4 337/1/4 345/1/4
f 345/1/4 337/1/4 346/1/4
f 343/4/4 344/4/4 347/4/4
f 347/4/4 344/4/4 348/4/4
f 349/1/4 350/1/4 353/1/4
f 353/1/4 350/1/4 354/1/4
f 351/4/4 352/4/4 356/4/4
f 356/4/4 352/4/4 357/4/4
f 354/1/4 355/1/4 358/1/4
f 353/1/4 354/1/4 358/1/4
f 358/1/4 355/1/4 361/1/4
f 361/1/4 355/1/4 362/1/4
f 359/4/4 360/4/4 363/4/4
f 363/4/4 360/4/4 364/4/4
f 365/4/4 366/4/4 367/4/4
f 367/4/4 366/4/4 368/4/4
f 367/2/4 368/2/4 369/2/4
f 369/2/4 368/2/4 370/2/4
f 371/2/4 372/2/4 373/2/4
f 373/2/4 372/2/4 374/2/4
f 375/2/4 376/2/4 377/2/4
f 377/2/4 376/2/4 378/2/4
f 379/2/4 380/2/4 381/2/4
f 381/2/4 380/2/4 382/2/4
f 383/2/4 384/2/4 386/2/4
f 386/2/4 384/2/4 387/2/4
f 385/1/4 386/1/4 388/1/4
f 385/1/4 388/1/4 390/1/4
f 388/2/4 389/2/4 391/2/4
f 390/1/4 388/1/4 391/1/4
f 391/2/4 389/2/4 392/2/4
f 393/2/4 394/2/4 395/2/4
f 395/2/4 394/2/4 396/2/4
f 396/2/4 394/2/4 397/2/4
f 397/2/4 394/2/4 398/2/4
f 396/3/4 397/3/4 399/3/4
f 399/3/4 397/3/4 400/3/4
f 407/1/5 402/1/5 401/1/5
f 408/1/5 402/1/5 407/1/5
f 409/1/5 404/1/5 403/1/5
f 410/1/5 404/1/5 409/1/5
f 411/1/5 406/1/5 405/1/5
f 412/1/5 406/1/5 411/1/5
f 415/1/5 414/1/5 413/1/5
f 416/1/5 414/1/5 415/1/5
f 429/2/5 420/2/5 419/2/5
f 430/2/5 420/2/5 429/2/5
f 431/2/5 422/2/5 421/2/5
f 432/2/5 424/2/5 423/2/5
f 435/2/5 426/2/5 425/2/5
f 438/1/5 428/1/5 427/1/5
f 439/1/5 428/1/5 438/1/5
f 442/2/5 422/2/5 431/2/5
f 443/2/5 432/2/5 423/2/5
f 444/2/5 434/2/5 433/2/5
f 445/2/5 434/2/5 444/2/5
f 446/4/5 436/4/5 435/4/5
f 446/2/5 435/2/5 425/2/5
f 447/2/5 437/2/5 436/2/5
f 447/4/5 436/4/5 446/4/5
f 448/2/5 437/2/5 447/2/5
f 449/2/5 418/2/5 417/2/5
f 450/2/5 418/2/5 449/2/5
f 451/2/5 441/2/5 440/2/5
f 452/2/5 441/2/5 451/2/5
f 453/2/5 422/2/5 442/2/5
f 454/2/5 422/2/5 453/2/5
f 455/2/5 443/2/5 423/2/5
f 456/2/5 443/2/5 455/2/5
f 457/2/5 446/2/5 425/2/5
f 458/2/5 446/2/5 457/2/5
f 471/4/5 460/4/5 459/4/5
f 472/4/5 460/4/5 471/4/5
f 473/4/5 462/4/5 461/4/5
f 474/4/5 462/4/5 473/4/5
f 475/4/5 464/4/5 463/4/5
f 476/4/5 464/4/5 475/4/5
f 477/4/5 466/4/5 465/4/5
f 478/4/5 466/4/5 477/4/5
f 479/4/5 468/4/5 467/4/5
f 480/4/5 468/4/5 479/4/5
f 481/4/5 470/4/5 469/4/5
f 482/4/5 470/4/5 481/4/5
f 487/3/5 484/3/5 483/3/5
f 488/3/5 484/3/5 487/3/5
f 489/1/5 486/1/5 485/1/5
f 490/1/5 486/1/5 489/1/5
f 493/3/5 492/3/5 491/3/5
f 494/3/5 492/3/5 493/3/5
f 499/1/5 496/1/5 495/1/5
f 500/1/5 496/1/5 499/1/5
f 501/1/5 498/1/5 497/1/5
f 502/1/5 498/1/5 501/1/5
f 503/1/6 504/1/6 507/1/6
f 507/1/6 504/1/6 508/1/6
f 505/1/6 506/1/6 509/1/6
f 509/1/6 506/1/6 510/1/6
f 511/1/6 512/1/6 513/1/6
f 513/1/6 512/1/6 514/1/6
f 515/1/6 516/1/6 517/1/6
f 517/1/6 516/1/6 518/1/6
f 519/4/6 520/4/6 533/4/6
f 533/4/6 520/4/6 534/4/6
f 521/4/6 522/4/6 535/4/6
f 535/4/6 522/4/6 536/4/6
f 523/4/6 524/4/6 537/4/6
f 537/4/6 524/4/6 538/4/6
f 525/4/6 526/4/6 539/4/6
f 539/4/6 526/4/6 540/4/6
f 527/4/6 528/4/6 541/4/6
f 541/4/6 528/4/6 542/4/6
f 529/4/6 530/4/6 543/4/6
f 543/4/6 530/4/6 544/4/6
f 531/2/6 532/2/6 545/2/6
f 545/2/6 532/2/6 546/2/6
f 549/3/6 550/3/6 553/3/6
f 553/3/6 550/3/6 554/3/6
f 551/1/6 552/1/6 555/1/6
f 555/1/6 552/1/6 556/1/6
f 553/2/6 554/2/6 557/2/6
f 557/2/6 554/2/6 558/2/6
f 547/2/6 548/2/6 559/2/6
f 559/2/6 548/2/6 560/2/6
f 557/3/6 558/3/6 561/3/6
f 561/3/6 558/3/6 562/3/6
f 563/2/6 564/2/6 575/2/6
f 575/2/6 564/2/6 576/2/6
f 565/2/6 566/2/6 577/2/6
f 577/2/6 566/2/6 578/2/6
f 567/2/6 568/2/6 579/2/6
f 579/2/6 568/2/6 580/2/6
f 569/2/6 570/2/6 581/2/6
f 581/2/6 570/2/6 582/2/6
f 573/1/6 574/1/6 583/1/6
f 583/1/6 574/1/6 584/1/6
f 585/2/6 586/2/6 593/2/6
f 593/2/6 586/2/6 594/2/6
f 587/2/6 588/2/6 595/2/6
f 595/2/6 588/2/6 596/2/6
f 589/2/6 590/2/6 597/2/6
f 597/2/6 590/2/6 598/2/6
f 591/2/6 592/2/6 599/2/6
f 599/2/6 592/2/6 600/2/6
f 571/2/6 572/2/6 601/2/6
f 601/2/6 572/2/6 602/2/6
f 603/1/6 604/1/6 607/1/6
f 607/1/6 604/1/6 608/1/6
f 605/1/6 606/1/6 609/1/6
f 609/1/6 606/1/6 610/1/6
f 611/1/6 612/1/6 615/1/6
f 615/1/6 612/1/6 616/1/6
f 613/1/6 614/1/6 617/1/6
f 617/1/6 614/1/6 618/1/6
