# MagicaVoxel @ ephtracy

# material
mtllib snake.mtl
usemtl palette

# normals
vn -1 0 0
vn 1 0 0
vn 0 0 1
vn 0 0 -1
vn 0 -1 0
vn 0 1 0

# texcoords
vt 0.00195313 0.5
vt 0.00585938 0.5
vt 0.00976563 0.5
vt 0.0136719 0.5
vt 0.0175781 0.5

# verts
v -12 7 -1
v -12 7 -2
v -12 8 -1
v -12 8 -2
v -10 8 -1
v -10 8 -2
v -10 9 -1
v -10 9 -2
v -9 7 -0
v -9 7 -1
v -9 9 -0
v -9 9 -1
v -6 8 -1
v -6 8 -2
v -6 9 -1
v -6 10 -1
v -6 10 -2
v -2 7 -0
v -2 7 -1
v -2 8 -1
v -2 9 -0
v -2 9 -1
v 1 8 1
v 1 8 -0
v 1 9 -0
v 1 10 1
v 1 10 -0
v 5 7 -0
v 5 7 -1
v 5 8 -0
v 5 8 -1
v 5 9 -0
v 5 9 -1
v 8 9 -0
v 8 9 -1
v 8 10 -0
v 8 10 -1
v 9 9 1
v 9 9 -0
v 9 9 -1
v 9 9 -2
v 9 10 1
v 9 10 -0
v 9 10 -1
v 9 10 -2
v -8 7 -1
v -8 7 -2
v -8 8 -1
v -8 8 -2
v -8 9 -1
v -8 9 -2
v -5 7 -0
v -5 7 -1
v -5 8 -0
v -5 8 -1
v -5 9 -0
v -5 9 -1
v -1 8 -1
v -1 8 -2
v -1 9 -1
v -1 10 -1
v -1 10 -2
v 2 7 -0
v 2 7 -1
v 2 8 -0
v 2 8 -1
v 2 9 -0
v 2 9 -1
v 6 8 1
v 6 8 -0
v 6 9 -0
v 6 10 1
v 6 10 -0
v 8 7 -0
v 8 7 -1
v 8 8 -0
v 8 8 -1
v 10 9 1
v 10 9 -0
v 10 9 -1
v 10 9 -2
v 10 10 1
v 10 10 -0
v 10 10 -1
v 10 10 -2
v 11 9 -0
v 11 9 -1
v 11 10 -0
v 11 10 -1
v 13 8 -0
v 13 8 -1
v 13 9 -0
v 13 9 -1
v 1 8 1
v 1 10 1
v 2 8 1
v 2 10 1
v 3 8 1
v 3 9 1
v 3 10 1
v 4 8 1
v 4 9 1
v 4 10 1
v 5 8 1
v 5 10 1
v 6 8 1
v 6 10 1
v 9 9 1
v 9 10 1
v 10 9 1
v 10 10 1
v -9 7 -0
v -9 9 -0
v -8 7 -0
v -8 9 -0
v -7 7 -0
v -7 8 -0
v -7 9 -0
v -6 7 -0
v -6 8 -0
v -5 7 -0
v -5 8 -0
v -5 9 -0
v -2 7 -0
v -2 9 -0
v -1 7 -0
v -1 8 -0
v -1 9 -0
v 0 7 -0
v 0 8 -0
v 0 9 -0
v 1 7 -0
v 1 8 -0
v 1 9 -0
v 2 7 -0
v 2 8 -0
v 5 7 -0
v 5 8 -0
v 6 7 -0
v 6 8 -0
v 6 9 -0
v 7 7 -0
v 7 8 -0
v 7 9 -0
v 8 7 -0
v 8 8 -0
v 8 9 -0
v 8 10 -0
v 9 8 -0
v 9 9 -0
v 9 10 -0
v 10 8 -0
v 10 9 -0
v 10 10 -0
v 11 8 -0
v 11 9 -0
v 11 10 -0
v 13 8 -0
v 13 9 -0
v -12 7 -1
v -12 8 -1
v -10 8 -1
v -10 9 -1
v -9 7 -1
v -9 9 -1
v -6 9 -1
v -6 10 -1
v -5 8 -1
v -5 9 -1
v -5 10 -1
v -4 8 -1
v -4 9 -1
v -4 10 -1
v -3 8 -1
v -3 9 -1
v -3 10 -1
v -2 8 -1
v -2 9 -1
v -2 10 -1
v -1 9 -1
v -1 10 -1
v 1 9 -0
v 1 10 -0
v 2 8 -0
v 2 9 -0
v 2 10 -0
v 3 8 -0
v 3 9 -0
v 3 10 -0
v 4 8 -0
v 4 9 -0
v 4 10 -0
v 5 8 -0
v 5 9 -0
v 5 10 -0
v 6 9 -0
v 6 10 -0
v -8 7 -1
v -8 8 -1
v -8 9 -1
v -7 7 -1
v -7 8 -1
v -7 9 -1
v -6 7 -1
v -6 8 -1
v -6 9 -1
v -5 7 -1
v -5 8 -1
v -2 7 -1
v -2 8 -1
v -1 7 -1
v -1 8 -1
v -1 9 -1
v 0 7 -1
v 0 8 -1
v 0 9 -1
v 1 7 -1
v 1 8 -1
v 1 9 -1
v 2 7 -1
v 2 8 -1
v 2 9 -1
v 5 7 -1
v 5 8 -1
v 5 9 -1
v 6 7 -1
v 6 8 -1
v 6 9 -1
v 7 7 -1
v 7 8 -1
v 7 9 -1
v 8 7 -1
v 8 8 -1
v 8 9 -1
v 8 10 -1
v 9 8 -1
v 9 9 -1
v 9 10 -1
v 10 8 -1
v 10 9 -1
v 10 10 -1
v 11 8 -1
v 11 9 -1
v 11 10 -1
v 13 8 -1
v 13 9 -1
v -12 7 -2
v -12 8 -2
v -10 8 -2
v -10 9 -2
v -9 7 -2
v -9 8 -2
v -8 7 -2
v -8 8 -2
v -8 9 -2
v -6 8 -2
v -6 10 -2
v -5 8 -2
v -5 9 -2
v -5 10 -2
v -4 8 -2
v -4 9 -2
v -4 10 -2
v -3 8 -2
v -3 9 -2
v -3 10 -2
v -2 8 -2
v -2 9 -2
v -2 10 -2
v -1 8 -2
v -1 10 -2
v 9 9 -2
v 9 10 -2
v 10 9 -2
v 10 10 -2
v -9 7 -0
v -8 7 -0
v -7 7 -0
v -6 7 -0
v -5 7 -0
v -2 7 -0
v -1 7 -0
v 0 7 -0
v 1 7 -0
v 2 7 -0
v 5 7 -0
v 6 7 -0
v 7 7 -0
v 8 7 -0
v -12 7 -1
v -9 7 -1
v -8 7 -1
v -7 7 -1
v -6 7 -1
v -5 7 -1
v -2 7 -1
v -1 7 -1
v 0 7 -1
v 1 7 -1
v 2 7 -1
v 5 7 -1
v 6 7 -1
v 7 7 -1
v 8 7 -1
v -12 7 -2
v -9 7 -2
v -8 7 -2
v 1 8 1
v 2 8 1
v 3 8 1
v 4 8 1
v 5 8 1
v 6 8 1
v 1 8 -0
v 2 8 -0
v 3 8 -0
v 4 8 -0
v 5 8 -0
v 6 8 -0
v 8 8 -0
v 9 8 -0
v 10 8 -0
v 11 8 -0
v 13 8 -0
v -6 8 -1
v -5 8 -1
v -4 8 -1
v -3 8 -1
v -2 8 -1
v -1 8 -1
v 8 8 -1
v 9 8 -1
v 10 8 -1
v 11 8 -1
v 13 8 -1
v -6 8 -2
v -5 8 -2
v -4 8 -2
v -3 8 -2
v -2 8 -2
v -1 8 -2
v 9 9 1
v 10 9 1
v 9 9 -0
v 10 9 -0
v 9 9 -1
v 10 9 -1
v 9 9 -2
v 10 9 -2
v -12 8 -1
v -10 8 -1
v -12 8 -2
v -10 8 -2
v -9 9 -0
v -8 9 -0
v -7 9 -0
v -5 9 -0
v -2 9 -0
v -1 9 -0
v 0 9 -0
v 1 9 -0
v 2 9 -0
v 5 9 -0
v 6 9 -0
v 7 9 -0
v 8 9 -0
v 11 9 -0
v 13 9 -0
v -10 9 -1
v -9 9 -1
v -8 9 -1
v -7 9 -1
v -6 9 -1
v -5 9 -1
v -2 9 -1
v -1 9 -1
v 0 9 -1
v 1 9 -1
v 2 9 -1
v 5 9 -1
v 6 9 -1
v 7 9 -1
v 8 9 -1
v 11 9 -1
v 13 9 -1
v -10 9 -2
v -8 9 -2
v 1 10 1
v 2 10 1
v 3 10 1
v 4 10 1
v 5 10 1
v 6 10 1
v 9 10 1
v 10 10 1
v 1 10 -0
v 2 10 -0
v 3 10 -0
v 4 10 -0
v 5 10 -0
v 6 10 -0
v 8 10 -0
v 9 10 -0
v 10 10 -0
v 11 10 -0
v -6 10 -1
v -5 10 -1
v -4 10 -1
v -3 10 -1
v -2 10 -1
v -1 10 -1
v 8 10 -1
v 9 10 -1
v 10 10 -1
v 11 10 -1
v -6 10 -2
v -5 10 -2
v -4 10 -2
v -3 10 -2
v -2 10 -2
v -1 10 -2
v 9 10 -2
v 10 10 -2

# faces
f 3/1/1 2/1/1 1/1/1
f 4/1/1 2/1/1 3/1/1
f 7/1/1 6/1/1 5/1/1
f 8/1/1 6/1/1 7/1/1
f 11/1/1 10/1/1 9/1/1
f 12/1/1 10/1/1 11/1/1
f 15/2/1 14/2/1 13/2/1
f 16/2/1 14/2/1 15/2/1
f 17/2/1 14/2/1 16/2/1
f 20/2/1 19/2/1 18/2/1
f 21/2/1 20/2/1 18/2/1
f 22/2/1 20/2/1 21/2/1
f 25/1/1 24/1/1 23/1/1
f 26/1/1 25/1/1 23/1/1
f 27/1/1 25/1/1 26/1/1
f 30/3/1 29/3/1 28/3/1
f 31/3/1 29/3/1 30/3/1
f 32/1/1 31/1/1 30/1/1
f 33/1/1 31/1/1 32/1/1
f 36/2/1 35/2/1 34/2/1
f 37/2/1 35/2/1 36/2/1
f 42/4/1 39/4/1 38/4/1
f 43/4/1 39/4/1 42/4/1
f 44/4/1 41/4/1 40/4/1
f 45/4/1 41/4/1 44/4/1
f 46/3/2 47/3/2 48/3/2
f 48/3/2 47/3/2 49/3/2
f 48/1/2 49/1/2 50/1/2
f 50/1/2 49/1/2 51/1/2
f 52/2/2 53/2/2 54/2/2
f 54/2/2 53/2/2 55/2/2
f 54/1/2 55/1/2 56/1/2
f 56/1/2 55/1/2 57/1/2
f 58/2/2 59/2/2 60/2/2
f 60/2/2 59/2/2 61/2/2
f 61/2/2 59/2/2 62/2/2
f 63/3/2 64/3/2 65/3/2
f 65/3/2 64/3/2 66/3/2
f 65/1/2 66/1/2 67/1/2
f 67/1/2 66/1/2 68/1/2
f 69/1/2 70/1/2 71/1/2
f 69/1/2 71/1/2 72/1/2
f 72/1/2 71/1/2 73/1/2
f 74/3/2 75/3/2 76/3/2
f 76/3/2 75/3/2 77/3/2
f 78/4/2 79/4/2 82/4/2
f 82/4/2 79/4/2 83/4/2
f 80/4/2 81/4/2 84/4/2
f 84/4/2 81/4/2 85/4/2
f 86/2/2 87/2/2 88/2/2
f 88/2/2 87/2/2 89/2/2
f 90/5/2 91/5/2 92/5/2
f 92/5/2 91/5/2 93/5/2
f 96/1/3 95/1/3 94/1/3
f 97/1/3 95/1/3 96/1/3
f 98/2/3 97/2/3 96/2/3
f 99/2/3 97/2/3 98/2/3
f 100/2/3 97/2/3 99/2/3
f 101/3/3 99/3/3 98/3/3
f 102/1/3 100/1/3 99/1/3
f 102/3/3 99/3/3 101/3/3
f 103/1/3 100/1/3 102/1/3
f 104/2/3 102/2/3 101/2/3
f 104/2/3 103/2/3 102/2/3
f 105/2/3 103/2/3 104/2/3
f 106/1/3 105/1/3 104/1/3
f 107/1/3 105/1/3 106/1/3
f 110/4/3 109/4/3 108/4/3
f 111/4/3 109/4/3 110/4/3
f 114/1/3 113/1/3 112/1/3
f 115/1/3 113/1/3 114/1/3
f 116/2/3 115/2/3 114/2/3
f 117/2/3 115/2/3 116/2/3
f 118/2/3 115/2/3 117/2/3
f 119/3/3 117/3/3 116/3/3
f 120/1/3 118/1/3 117/1/3
f 120/3/3 117/3/3 119/3/3
f 121/2/3 120/2/3 119/2/3
f 122/1/3 118/1/3 120/1/3
f 122/2/3 120/2/3 121/2/3
f 123/1/3 118/1/3 122/1/3
f 126/2/3 125/2/3 124/2/3
f 127/2/3 125/2/3 126/2/3
f 128/2/3 125/2/3 127/2/3
f 129/3/3 127/3/3 126/3/3
f 130/1/3 128/1/3 127/1/3
f 130/3/3 127/3/3 129/3/3
f 131/1/3 128/1/3 130/1/3
f 132/2/3 130/2/3 129/2/3
f 132/2/3 131/2/3 130/2/3
f 133/2/3 131/2/3 132/2/3
f 134/2/3 131/2/3 133/2/3
f 135/3/3 133/3/3 132/3/3
f 136/3/3 133/3/3 135/3/3
f 139/3/3 138/3/3 137/3/3
f 140/3/3 138/3/3 139/3/3
f 142/2/3 140/2/3 139/2/3
f 142/2/3 141/2/3 140/2/3
f 143/2/3 141/2/3 142/2/3
f 144/2/3 141/2/3 143/2/3
f 145/3/3 143/3/3 142/3/3
f 146/1/3 144/1/3 143/1/3
f 146/3/3 143/3/3 145/3/3
f 147/1/3 144/1/3 146/1/3
f 149/2/3 147/2/3 146/2/3
f 149/2/3 148/2/3 147/2/3
f 150/2/3 148/2/3 149/2/3
f 151/2/3 148/2/3 150/2/3
f 152/1/3 150/1/3 149/1/3
f 153/1/3 150/1/3 152/1/3
f 155/2/3 153/2/3 152/2/3
f 155/2/3 154/2/3 153/2/3
f 156/2/3 154/2/3 155/2/3
f 157/2/3 154/2/3 156/2/3
f 158/5/3 156/5/3 155/5/3
f 159/5/3 156/5/3 158/5/3
f 162/1/3 161/1/3 160/1/3
f 164/1/3 162/1/3 160/1/3
f 164/1/3 163/1/3 162/1/3
f 165/1/3 163/1/3 164/1/3
f 169/2/3 167/2/3 166/2/3
f 170/2/3 167/2/3 169/2/3
f 171/3/3 169/3/3 168/3/3
f 172/1/3 170/1/3 169/1/3
f 172/3/3 169/3/3 171/3/3
f 173/1/3 170/1/3 172/1/3
f 174/2/3 172/2/3 171/2/3
f 174/2/3 173/2/3 172/2/3
f 175/2/3 173/2/3 174/2/3
f 176/2/3 173/2/3 175/2/3
f 177/3/3 175/3/3 174/3/3
f 178/1/3 176/1/3 175/1/3
f 178/3/3 175/3/3 177/3/3
f 179/1/3 176/1/3 178/1/3
f 180/2/3 179/2/3 178/2/3
f 181/2/3 179/2/3 180/2/3
f 182/1/4 183/1/4 185/1/4
f 185/1/4 183/1/4 186/1/4
f 184/2/4 185/2/4 187/2/4
f 185/2/4 186/2/4 187/2/4
f 187/2/4 186/2/4 188/2/4
f 188/2/4 186/2/4 189/2/4
f 187/3/4 188/3/4 190/3/4
f 188/1/4 189/1/4 191/1/4
f 190/3/4 188/3/4 191/3/4
f 191/1/4 189/1/4 192/1/4
f 190/2/4 191/2/4 193/2/4
f 191/2/4 192/2/4 193/2/4
f 193/2/4 192/2/4 194/2/4
f 194/2/4 192/2/4 195/2/4
f 194/1/4 195/1/4 196/1/4
f 196/1/4 195/1/4 197/1/4
f 198/2/4 199/2/4 201/2/4
f 199/2/4 200/2/4 201/2/4
f 201/2/4 200/2/4 202/2/4
f 202/2/4 200/2/4 203/2/4
f 201/3/4 202/3/4 204/3/4
f 202/1/4 203/1/4 205/1/4
f 204/3/4 202/3/4 205/3/4
f 205/1/4 203/1/4 206/1/4
f 204/2/4 205/2/4 207/2/4
f 207/2/4 205/2/4 208/2/4
f 209/2/4 210/2/4 211/2/4
f 211/2/4 210/2/4 212/2/4
f 211/3/4 212/3/4 214/3/4
f 212/1/4 213/1/4 215/1/4
f 214/3/4 212/3/4 215/3/4
f 215/1/4 213/1/4 216/1/4
f 214/2/4 215/2/4 217/2/4
f 215/2/4 216/2/4 217/2/4
f 217/2/4 216/2/4 218/2/4
f 218/2/4 216/2/4 219/2/4
f 217/3/4 218/3/4 220/3/4
f 218/1/4 219/1/4 221/1/4
f 220/3/4 218/3/4 221/3/4
f 221/1/4 219/1/4 222/1/4
f 223/3/4 224/3/4 226/3/4
f 224/1/4 225/1/4 227/1/4
f 226/3/4 224/3/4 227/3/4
f 227/1/4 225/1/4 228/1/4
f 226/2/4 227/2/4 229/2/4
f 227/2/4 228/2/4 229/2/4
f 229/2/4 228/2/4 230/2/4
f 230/2/4 228/2/4 231/2/4
f 229/3/4 230/3/4 232/3/4
f 230/1/4 231/1/4 233/1/4
f 232/3/4 230/3/4 233/3/4
f 233/1/4 231/1/4 234/1/4
f 233/2/4 234/2/4 236/2/4
f 234/2/4 235/2/4 236/2/4
f 236/2/4 235/2/4 237/2/4
f 237/2/4 235/2/4 238/2/4
f 236/1/4 237/1/4 239/1/4
f 239/1/4 237/1/4 240/1/4
f 239/2/4 240/2/4 242/2/4
f 240/2/4 241/2/4 242/2/4
f 242/2/4 241/2/4 243/2/4
f 243/2/4 241/2/4 244/2/4
f 242/5/4 243/5/4 245/5/4
f 245/5/4 243/5/4 246/5/4
f 247/1/4 248/1/4 249/1/4
f 247/1/4 249/1/4 251/1/4
f 249/1/4 250/1/4 251/1/4
f 251/1/4 250/1/4 252/1/4
f 251/3/4 252/3/4 253/3/4
f 252/1/4 250/1/4 254/1/4
f 253/3/4 252/3/4 254/3/4
f 254/1/4 250/1/4 255/1/4
f 256/2/4 257/2/4 258/2/4
f 258/2/4 257/2/4 259/2/4
f 259/2/4 257/2/4 260/2/4
f 258/3/4 259/3/4 261/3/4
f 259/1/4 260/1/4 262/1/4
f 261/3/4 259/3/4 262/3/4
f 262/1/4 260/1/4 263/1/4
f 261/2/4 262/2/4 264/2/4
f 262/2/4 263/2/4 264/2/4
f 264/2/4 263/2/4 265/2/4
f 265/2/4 263/2/4 266/2/4
f 264/3/4 265/3/4 267/3/4
f 265/1/4 266/1/4 268/1/4
f 267/3/4 265/3/4 268/3/4
f 268/1/4 266/1/4 269/1/4
f 267/2/4 268/2/4 270/2/4
f 268/2/4 269/2/4 270/2/4
f 270/2/4 269/2/4 271/2/4
f 272/4/4 273/4/4 274/4/4
f 274/4/4 273/4/4 275/4/4
f 291/1/5 277/1/5 276/1/5
f 292/2/5 278/2/5 277/2/5
f 292/1/5 277/1/5 291/1/5
f 293/3/5 279/3/5 278/3/5
f 293/2/5 278/2/5 292/2/5
f 294/2/5 280/2/5 279/2/5
f 294/3/5 279/3/5 293/3/5
f 295/2/5 280/2/5 294/2/5
f 296/2/5 282/2/5 281/2/5
f 297/3/5 283/3/5 282/3/5
f 297/2/5 282/2/5 296/2/5
f 298/2/5 284/2/5 283/2/5
f 298/3/5 283/3/5 297/3/5
f 299/3/5 285/3/5 284/3/5
f 299/2/5 284/2/5 298/2/5
f 300/3/5 285/3/5 299/3/5
f 301/3/5 287/3/5 286/3/5
f 302/2/5 288/2/5 287/2/5
f 302/3/5 287/3/5 301/3/5
f 303/3/5 289/3/5 288/3/5
f 303/2/5 288/2/5 302/2/5
f 304/3/5 289/3/5 303/3/5
f 305/1/5 291/1/5 290/1/5
f 306/3/5 292/3/5 291/3/5
f 306/1/5 291/1/5 305/1/5
f 307/3/5 292/3/5 306/3/5
f 314/1/5 309/1/5 308/1/5
f 315/2/5 310/2/5 309/2/5
f 315/1/5 309/1/5 314/1/5
f 316/3/5 311/3/5 310/3/5
f 316/2/5 310/2/5 315/2/5
f 317/2/5 312/2/5 311/2/5
f 317/3/5 311/3/5 316/3/5
f 318/1/5 313/1/5 312/1/5
f 318/2/5 312/2/5 317/2/5
f 319/1/5 313/1/5 318/1/5
f 331/2/5 321/2/5 320/2/5
f 332/1/5 322/1/5 321/1/5
f 332/2/5 321/2/5 331/2/5
f 333/2/5 323/2/5 322/2/5
f 333/1/5 322/1/5 332/1/5
f 334/5/5 324/5/5 323/5/5
f 334/2/5 323/2/5 333/2/5
f 335/5/5 324/5/5 334/5/5
f 336/2/5 326/2/5 325/2/5
f 337/3/5 327/3/5 326/3/5
f 337/2/5 326/2/5 336/2/5
f 338/2/5 328/2/5 327/2/5
f 338/3/5 327/3/5 337/3/5
f 339/3/5 329/3/5 328/3/5
f 339/2/5 328/2/5 338/2/5
f 340/2/5 330/2/5 329/2/5
f 340/3/5 329/3/5 339/3/5
f 341/2/5 330/2/5 340/2/5
f 344/4/5 343/4/5 342/4/5
f 345/4/5 343/4/5 344/4/5
f 348/4/5 347/4/5 346/4/5
f 349/4/5 347/4/5 348/4/5
f 350/1/6 351/1/6 352/1/6
f 352/1/6 351/1/6 353/1/6
f 354/1/6 355/1/6 370/1/6
f 355/2/6 356/2/6 371/2/6
f 370/1/6 355/1/6 371/1/6
f 356/1/6 357/1/6 372/1/6
f 371/2/6 356/2/6 372/2/6
f 372/1/6 357/1/6 373/1/6
f 373/1/6 357/1/6 374/1/6
f 358/2/6 359/2/6 375/2/6
f 359/1/6 360/1/6 376/1/6
f 375/2/6 359/2/6 376/2/6
f 360/2/6 361/2/6 377/2/6
f 376/1/6 360/1/6 377/1/6
f 361/1/6 362/1/6 378/1/6
f 377/2/6 361/2/6 378/2/6
f 378/1/6 362/1/6 379/1/6
f 363/1/6 364/1/6 380/1/6
f 364/2/6 365/2/6 381/2/6
f 380/1/6 364/1/6 381/1/6
f 365/1/6 366/1/6 382/1/6
f 381/2/6 365/2/6 382/2/6
f 382/1/6 366/1/6 383/1/6
f 367/5/6 368/5/6 384/5/6
f 384/5/6 368/5/6 385/5/6
f 369/1/6 370/1/6 386/1/6
f 370/1/6 371/1/6 386/1/6
f 386/1/6 371/1/6 387/1/6
f 388/1/6 389/1/6 396/1/6
f 389/2/6 390/2/6 397/2/6
f 396/1/6 389/1/6 397/1/6
f 390/1/6 391/1/6 398/1/6
f 397/2/6 390/2/6 398/2/6
f 391/2/6 392/2/6 399/2/6
f 398/1/6 391/1/6 399/1/6
f 392/1/6 393/1/6 400/1/6
f 399/2/6 392/2/6 400/2/6
f 400/1/6 393/1/6 401/1/6
f 394/4/6 395/4/6 403/4/6
f 403/4/6 395/4/6 404/4/6
f 402/2/6 403/2/6 412/2/6
f 403/1/6 404/1/6 413/1/6
f 412/2/6 403/2/6 413/2/6
f 404/2/6 405/2/6 414/2/6
f 413/1/6 404/1/6 414/1/6
f 414/2/6 405/2/6 415/2/6
f 406/2/6 407/2/6 416/2/6
f 407/1/6 408/1/6 417/1/6
f 416/2/6 407/2/6 417/2/6
f 408/2/6 409/2/6 418/2/6
f 417/1/6 408/1/6 418/1/6
f 409/1/6 410/1/6 419/1/6
f 418/2/6 409/2/6 419/2/6
f 410/2/6 411/2/6 420/2/6
f 419/1/6 410/1/6 420/1/6
f 420/2/6 411/2/6 421/2/6
f 413/4/6 414/4/6 422/4/6
f 422/4/6 414/4/6 423/4/6
