# MagicaVoxel @ ephtracy

# material
mtllib tropicalfish_01.mtl
usemtl palette

# normals
vn -1 0 0
vn 1 0 0
vn 0 0 1
vn 0 0 -1
vn 0 -1 0
vn 0 1 0

# texcoords
vt 0.00195313 0.5
vt 0.00585938 0.5
vt 0.00976563 0.5
vt 0.0136719 0.5
vt 0.0175781 0.5
vt 0.0214844 0.5
vt 0.0253906 0.5

# verts
v 2 8 11
v 2 8 10
v 2 8 7
v 2 8 6
v 2 8 4
v 2 8 3
v 2 8 2
v 2 9 2
v 2 9 1
v 2 10 2
v 2 10 1
v 2 11 11
v 2 11 10
v 2 11 7
v 2 11 6
v 2 11 4
v 2 11 3
v 2 11 2
v 3 6 10
v 3 6 8
v 3 6 5
v 3 6 3
v 3 6 -1
v 3 6 -2
v 3 6 -4
v 3 7 13
v 3 7 11
v 3 7 10
v 3 7 8
v 3 7 7
v 3 7 6
v 3 7 5
v 3 7 4
v 3 7 3
v 3 7 2
v 3 7 -0
v 3 7 -1
v 3 7 -3
v 3 7 -4
v 3 8 13
v 3 8 12
v 3 8 11
v 3 8 10
v 3 8 7
v 3 8 6
v 3 8 4
v 3 8 3
v 3 8 2
v 3 8 -0
v 3 8 -1
v 3 8 -2
v 3 9 14
v 3 9 12
v 3 9 2
v 3 9 1
v 3 9 -0
v 3 9 -1
v 3 9 -3
v 3 10 12
v 3 10 11
v 3 10 2
v 3 10 1
v 3 10 -0
v 3 10 -1
v 3 10 -3
v 3 11 14
v 3 11 13
v 3 11 12
v 3 11 11
v 3 11 10
v 3 11 7
v 3 11 6
v 3 11 4
v 3 11 3
v 3 11 2
v 3 11 -0
v 3 11 -1
v 3 11 -2
v 3 12 13
v 3 12 11
v 3 12 10
v 3 12 9
v 3 12 7
v 3 12 6
v 3 12 4
v 3 12 3
v 3 12 2
v 3 12 -0
v 3 12 -1
v 3 12 -3
v 3 12 -4
v 3 13 11
v 3 13 9
v 3 13 7
v 3 13 5
v 3 13 4
v 3 13 2
v 3 13 -1
v 3 13 -2
v 3 13 -4
v 3 14 9
v 3 14 7
v 3 14 5
v 3 14 2
v 4 6 10
v 4 6 8
v 4 6 5
v 4 6 3
v 4 6 -1
v 4 6 -2
v 4 6 -4
v 4 7 13
v 4 7 11
v 4 7 10
v 4 7 8
v 4 7 7
v 4 7 6
v 4 7 5
v 4 7 4
v 4 7 3
v 4 7 2
v 4 7 -0
v 4 7 -1
v 4 7 -3
v 4 7 -4
v 4 8 13
v 4 8 12
v 4 8 11
v 4 8 10
v 4 8 7
v 4 8 6
v 4 8 4
v 4 8 3
v 4 8 2
v 4 8 -0
v 4 8 -1
v 4 8 -2
v 4 9 14
v 4 9 12
v 4 9 2
v 4 9 1
v 4 9 -0
v 4 9 -1
v 4 9 -3
v 4 10 12
v 4 10 11
v 4 10 2
v 4 10 1
v 4 10 -0
v 4 10 -1
v 4 10 -3
v 4 11 14
v 4 11 13
v 4 11 12
v 4 11 11
v 4 11 10
v 4 11 7
v 4 11 6
v 4 11 4
v 4 11 3
v 4 11 2
v 4 11 -0
v 4 11 -1
v 4 11 -2
v 4 12 13
v 4 12 11
v 4 12 10
v 4 12 9
v 4 12 7
v 4 12 6
v 4 12 4
v 4 12 3
v 4 12 2
v 4 12 -0
v 4 12 -1
v 4 12 -3
v 4 12 -4
v 4 13 11
v 4 13 9
v 4 13 7
v 4 13 5
v 4 13 4
v 4 13 2
v 4 13 -1
v 4 13 -2
v 4 13 -4
v 4 14 9
v 4 14 7
v 4 14 5
v 4 14 2
v 5 8 11
v 5 8 10
v 5 8 7
v 5 8 6
v 5 8 4
v 5 8 3
v 5 8 2
v 5 9 2
v 5 9 1
v 5 10 2
v 5 10 1
v 5 11 11
v 5 11 10
v 5 11 7
v 5 11 6
v 5 11 4
v 5 11 3
v 5 11 2
v 3 9 14
v 3 11 14
v 4 9 14
v 4 11 14
v 3 7 13
v 3 8 13
v 3 11 13
v 3 12 13
v 4 7 13
v 4 8 13
v 4 11 13
v 4 12 13
v 3 8 12
v 3 9 12
v 4 8 12
v 4 9 12
v 2 8 11
v 2 11 11
v 3 8 11
v 3 10 11
v 3 11 11
v 3 12 11
v 3 13 11
v 4 8 11
v 4 10 11
v 4 11 11
v 4 12 11
v 4 13 11
v 5 8 11
v 5 11 11
v 3 6 10
v 3 7 10
v 4 6 10
v 4 7 10
v 3 13 9
v 3 14 9
v 4 13 9
v 4 14 9
v 3 6 5
v 3 7 5
v 4 6 5
v 4 7 5
v 3 7 -0
v 3 8 -0
v 3 11 -0
v 3 12 -0
v 4 7 -0
v 4 8 -0
v 4 11 -0
v 4 12 -0
v 3 6 -1
v 3 7 -1
v 3 12 -1
v 3 13 -1
v 4 6 -1
v 4 7 -1
v 4 12 -1
v 4 13 -1
v 3 6 8
v 3 7 8
v 4 6 8
v 4 7 8
v 3 12 4
v 3 13 4
v 4 12 4
v 4 13 4
v 3 6 3
v 3 7 3
v 4 6 3
v 4 7 3
v 2 8 2
v 2 9 2
v 2 10 2
v 2 11 2
v 3 7 2
v 3 8 2
v 3 9 2
v 3 10 2
v 3 11 2
v 3 12 2
v 3 13 2
v 3 14 2
v 4 7 2
v 4 8 2
v 4 9 2
v 4 10 2
v 4 11 2
v 4 12 2
v 4 13 2
v 4 14 2
v 5 8 2
v 5 9 2
v 5 10 2
v 5 11 2
v 2 9 1
v 2 10 1
v 3 9 1
v 3 10 1
v 4 9 1
v 4 10 1
v 5 9 1
v 5 10 1
v 3 9 -1
v 3 10 -1
v 4 9 -1
v 4 10 -1
v 3 7 -3
v 3 9 -3
v 3 10 -3
v 3 12 -3
v 4 7 -3
v 4 9 -3
v 4 10 -3
v 4 12 -3
v 3 6 -4
v 3 7 -4
v 3 12 -4
v 3 13 -4
v 4 6 -4
v 4 7 -4
v 4 12 -4
v 4 13 -4
v 3 6 10
v 4 6 10
v 3 6 8
v 4 6 8
v 3 6 5
v 4 6 5
v 3 6 3
v 4 6 3
v 3 6 -1
v 4 6 -1
v 3 6 -2
v 4 6 -2
v 3 6 -4
v 4 6 -4
v 3 7 13
v 4 7 13
v 3 7 11
v 4 7 11
v 3 7 10
v 4 7 10
v 3 7 8
v 4 7 8
v 3 7 7
v 4 7 7
v 3 7 6
v 4 7 6
v 3 7 5
v 4 7 5
v 3 7 3
v 4 7 3
v 3 7 2
v 4 7 2
v 3 7 -0
v 4 7 -0
v 3 7 -1
v 4 7 -1
v 2 8 11
v 3 8 11
v 4 8 11
v 5 8 11
v 2 8 10
v 3 8 10
v 4 8 10
v 5 8 10
v 2 8 7
v 3 8 7
v 4 8 7
v 5 8 7
v 2 8 6
v 3 8 6
v 4 8 6
v 5 8 6
v 2 8 4
v 3 8 4
v 4 8 4
v 5 8 4
v 2 8 3
v 3 8 3
v 4 8 3
v 5 8 3
v 2 8 2
v 3 8 2
v 4 8 2
v 5 8 2
v 3 8 -0
v 4 8 -0
v 3 9 14
v 4 9 14
v 3 9 12
v 4 9 12
v 2 9 2
v 3 9 2
v 4 9 2
v 5 9 2
v 2 9 1
v 3 9 1
v 4 9 1
v 5 9 1
v 3 10 -1
v 4 10 -1
v 3 10 -3
v 4 10 -3
v 3 12 -3
v 4 12 -3
v 3 12 -4
v 4 12 -4
v 3 13 4
v 4 13 4
v 3 13 2
v 4 13 2
v 3 7 -3
v 4 7 -3
v 3 7 -4
v 4 7 -4
v 3 8 13
v 4 8 13
v 3 8 12
v 4 8 12
v 3 9 -1
v 4 9 -1
v 3 9 -3
v 4 9 -3
v 2 10 2
v 3 10 2
v 4 10 2
v 5 10 2
v 2 10 1
v 3 10 1
v 4 10 1
v 5 10 1
v 3 11 14
v 4 11 14
v 3 11 13
v 4 11 13
v 2 11 11
v 3 11 11
v 4 11 11
v 5 11 11
v 2 11 10
v 3 11 10
v 4 11 10
v 5 11 10
v 2 11 7
v 3 11 7
v 4 11 7
v 5 11 7
v 2 11 6
v 3 11 6
v 4 11 6
v 5 11 6
v 2 11 4
v 3 11 4
v 4 11 4
v 5 11 4
v 2 11 3
v 3 11 3
v 4 11 3
v 5 11 3
v 2 11 2
v 3 11 2
v 4 11 2
v 5 11 2
v 3 11 -0
v 4 11 -0
v 3 12 13
v 4 12 13
v 3 12 11
v 4 12 11
v 3 12 4
v 4 12 4
v 3 12 3
v 4 12 3
v 3 12 2
v 4 12 2
v 3 12 -0
v 4 12 -0
v 3 12 -1
v 4 12 -1
v 3 13 11
v 4 13 11
v 3 13 9
v 4 13 9
v 3 13 -1
v 4 13 -1
v 3 13 -2
v 4 13 -2
v 3 13 -4
v 4 13 -4
v 3 14 9
v 4 14 9
v 3 14 7
v 4 14 7
v 3 14 5
v 4 14 5
v 3 14 2
v 4 14 2

# faces
f 8/1/1 7/1/1 6/1/1
f 10/1/1 8/1/1 6/1/1
f 10/1/1 9/1/1 8/1/1
f 11/1/1 9/1/1 10/1/1
f 12/3/1 2/3/1 1/3/1
f 13/1/1 3/1/1 2/1/1
f 13/3/1 2/3/1 12/3/1
f 14/3/1 4/3/1 3/3/1
f 14/1/1 3/1/1 13/1/1
f 15/1/1 5/1/1 4/1/1
f 15/3/1 4/3/1 14/3/1
f 16/3/1 6/3/1 5/3/1
f 16/1/1 5/1/1 15/1/1
f 17/1/1 10/1/1 6/1/1
f 17/3/1 6/3/1 16/3/1
f 18/1/1 10/1/1 17/1/1
f 28/5/1 20/5/1 19/5/1
f 29/5/1 20/5/1 28/5/1
f 32/5/1 22/5/1 21/5/1
f 33/5/1 22/5/1 32/5/1
f 34/5/1 22/5/1 33/5/1
f 37/7/1 24/7/1 23/7/1
f 38/5/1 25/5/1 24/5/1
f 39/5/1 25/5/1 38/5/1
f 40/1/1 27/1/1 26/1/1
f 41/1/1 27/1/1 40/1/1
f 42/3/1 28/3/1 27/3/1
f 42/1/1 27/1/1 41/1/1
f 43/1/1 29/1/1 28/1/1
f 43/3/1 28/3/1 42/3/1
f 43/1/1 30/1/1 29/1/1
f 44/3/1 31/3/1 30/3/1
f 44/1/1 30/1/1 43/1/1
f 45/1/1 32/1/1 31/1/1
f 45/3/1 31/3/1 44/3/1
f 45/1/1 33/1/1 32/1/1
f 46/3/1 34/3/1 33/3/1
f 46/1/1 33/1/1 45/1/1
f 47/1/1 35/1/1 34/1/1
f 47/3/1 34/3/1 46/3/1
f 48/1/1 35/1/1 47/1/1
f 49/4/1 37/4/1 36/4/1
f 50/7/1 24/7/1 37/7/1
f 50/4/1 37/4/1 49/4/1
f 51/5/1 38/5/1 24/5/1
f 51/7/1 24/7/1 50/7/1
f 53/1/1 42/1/1 41/1/1
f 54/1/1 49/1/1 48/1/1
f 55/1/1 49/1/1 54/1/1
f 56/7/1 50/7/1 49/7/1
f 56/1/1 49/1/1 55/1/1
f 57/5/1 51/5/1 50/5/1
f 57/7/1 50/7/1 56/7/1
f 58/5/1 38/5/1 51/5/1
f 58/5/1 51/5/1 57/5/1
f 59/1/1 53/1/1 52/1/1
f 59/1/1 42/1/1 53/1/1
f 60/1/1 42/1/1 59/1/1
f 62/1/1 56/1/1 55/1/1
f 63/4/1 57/4/1 56/4/1
f 63/1/1 56/1/1 62/1/1
f 64/4/1 57/4/1 63/4/1
f 66/1/1 59/1/1 52/1/1
f 67/1/1 59/1/1 66/1/1
f 68/2/1 60/2/1 59/2/1
f 68/1/1 59/1/1 67/1/1
f 69/2/1 60/2/1 68/2/1
f 75/1/1 62/1/1 61/1/1
f 75/1/1 63/1/1 62/1/1
f 76/7/1 64/7/1 63/7/1
f 76/1/1 63/1/1 75/1/1
f 77/5/1 65/5/1 64/5/1
f 77/7/1 64/7/1 76/7/1
f 78/5/1 65/5/1 77/5/1
f 79/1/1 68/1/1 67/1/1
f 79/1/1 69/1/1 68/1/1
f 80/3/1 70/3/1 69/3/1
f 80/1/1 69/1/1 79/1/1
f 81/1/1 71/1/1 70/1/1
f 81/3/1 70/3/1 80/3/1
f 82/1/1 71/1/1 81/1/1
f 83/3/1 72/3/1 71/3/1
f 83/1/1 71/1/1 82/1/1
f 84/1/1 73/1/1 72/1/1
f 84/3/1 72/3/1 83/3/1
f 85/3/1 74/3/1 73/3/1
f 85/1/1 73/1/1 84/1/1
f 86/1/1 75/1/1 74/1/1
f 86/3/1 74/3/1 85/3/1
f 87/1/1 75/1/1 86/1/1
f 88/4/1 77/4/1 76/4/1
f 89/7/1 78/7/1 77/7/1
f 89/4/1 77/4/1 88/4/1
f 90/5/1 65/5/1 78/5/1
f 92/4/1 81/4/1 80/4/1
f 92/4/1 82/4/1 81/4/1
f 93/7/1 83/7/1 82/7/1
f 93/4/1 82/4/1 92/4/1
f 94/5/1 84/5/1 83/5/1
f 94/7/1 83/7/1 93/7/1
f 94/5/1 85/5/1 84/5/1
f 95/5/1 85/5/1 94/5/1
f 96/5/1 85/5/1 95/5/1
f 98/7/1 78/7/1 89/7/1
f 99/5/1 90/5/1 78/5/1
f 99/7/1 78/7/1 98/7/1
f 99/5/1 91/5/1 90/5/1
f 100/5/1 91/5/1 99/5/1
f 101/4/1 94/4/1 93/4/1
f 102/7/1 95/7/1 94/7/1
f 102/4/1 94/4/1 101/4/1
f 103/5/1 97/5/1 96/5/1
f 103/7/1 95/7/1 102/7/1
f 103/5/1 96/5/1 95/5/1
f 104/5/1 97/5/1 103/5/1
f 105/5/2 106/5/2 114/5/2
f 114/5/2 106/5/2 115/5/2
f 107/5/2 108/5/2 118/5/2
f 118/5/2 108/5/2 119/5/2
f 119/5/2 108/5/2 120/5/2
f 109/7/2 110/7/2 123/7/2
f 110/5/2 111/5/2 124/5/2
f 124/5/2 111/5/2 125/5/2
f 112/1/2 113/1/2 126/1/2
f 126/1/2 113/1/2 127/1/2
f 113/3/2 114/3/2 128/3/2
f 127/1/2 113/1/2 128/1/2
f 114/1/2 115/1/2 129/1/2
f 128/3/2 114/3/2 129/3/2
f 115/1/2 116/1/2 129/1/2
f 116/3/2 117/3/2 130/3/2
f 129/1/2 116/1/2 130/1/2
f 117/1/2 118/1/2 131/1/2
f 130/3/2 117/3/2 131/3/2
f 118/1/2 119/1/2 131/1/2
f 119/3/2 120/3/2 132/3/2
f 131/1/2 119/1/2 132/1/2
f 120/1/2 121/1/2 133/1/2
f 132/3/2 120/3/2 133/3/2
f 133/1/2 121/1/2 134/1/2
f 122/4/2 123/4/2 135/4/2
f 123/7/2 110/7/2 136/7/2
f 135/4/2 123/4/2 136/4/2
f 110/5/2 124/5/2 137/5/2
f 136/7/2 110/7/2 137/7/2
f 127/1/2 128/1/2 139/1/2
f 134/1/2 135/1/2 140/1/2
f 140/1/2 135/1/2 141/1/2
f 135/7/2 136/7/2 142/7/2
f 141/1/2 135/1/2 142/1/2
f 136/5/2 137/5/2 143/5/2
f 142/7/2 136/7/2 143/7/2
f 137/5/2 124/5/2 144/5/2
f 143/5/2 137/5/2 144/5/2
f 138/1/2 139/1/2 145/1/2
f 139/1/2 128/1/2 145/1/2
f 145/1/2 128/1/2 146/1/2
f 141/1/2 142/1/2 148/1/2
f 142/4/2 143/4/2 149/4/2
f 148/1/2 142/1/2 149/1/2
f 149/4/2 143/4/2 150/4/2
f 138/1/2 145/1/2 152/1/2
f 152/1/2 145/1/2 153/1/2
f 145/2/2 146/2/2 154/2/2
f 153/1/2 145/1/2 154/1/2
f 154/2/2 146/2/2 155/2/2
f 147/1/2 148/1/2 161/1/2
f 148/1/2 149/1/2 161/1/2
f 149/7/2 150/7/2 162/7/2
f 161/1/2 149/1/2 162/1/2
f 150/5/2 151/5/2 163/5/2
f 162/7/2 150/7/2 163/7/2
f 163/5/2 151/5/2 164/5/2
f 153/1/2 154/1/2 165/1/2
f 154/1/2 155/1/2 165/1/2
f 155/3/2 156/3/2 166/3/2
f 165/1/2 155/1/2 166/1/2
f 156/1/2 157/1/2 167/1/2
f 166/3/2 156/3/2 167/3/2
f 167/1/2 157/1/2 168/1/2
f 157/3/2 158/3/2 169/3/2
f 168/1/2 157/1/2 169/1/2
f 158/1/2 159/1/2 170/1/2
f 169/3/2 158/3/2 170/3/2
f 159/3/2 160/3/2 171/3/2
f 170/1/2 159/1/2 171/1/2
f 160/1/2 161/1/2 172/1/2
f 171/3/2 160/3/2 172/3/2
f 172/1/2 161/1/2 173/1/2
f 162/4/2 163/4/2 174/4/2
f 163/7/2 164/7/2 175/7/2
f 174/4/2 163/4/2 175/4/2
f 164/5/2 151/5/2 176/5/2
f 166/4/2 167/4/2 178/4/2
f 167/4/2 168/4/2 178/4/2
f 168/7/2 169/7/2 179/7/2
f 178/4/2 168/4/2 179/4/2
f 169/5/2 170/5/2 180/5/2
f 179/7/2 169/7/2 180/7/2
f 170/5/2 171/5/2 180/5/2
f 180/5/2 171/5/2 181/5/2
f 181/5/2 171/5/2 182/5/2
f 175/7/2 164/7/2 184/7/2
f 164/5/2 176/5/2 185/5/2
f 184/7/2 164/7/2 185/7/2
f 176/5/2 177/5/2 185/5/2
f 185/5/2 177/5/2 186/5/2
f 179/4/2 180/4/2 187/4/2
f 180/7/2 181/7/2 188/7/2
f 187/4/2 180/4/2 188/4/2
f 182/5/2 183/5/2 189/5/2
f 188/7/2 181/7/2 189/7/2
f 181/5/2 182/5/2 189/5/2
f 189/5/2 183/5/2 190/5/2
f 196/1/2 197/1/2 198/1/2
f 196/1/2 198/1/2 200/1/2
f 198/1/2 199/1/2 200/1/2
f 200/1/2 199/1/2 201/1/2
f 191/3/2 192/3/2 202/3/2
f 192/1/2 193/1/2 203/1/2
f 202/3/2 192/3/2 203/3/2
f 193/3/2 194/3/2 204/3/2
f 203/1/2 193/1/2 204/1/2
f 194/1/2 195/1/2 205/1/2
f 204/3/2 194/3/2 205/3/2
f 195/3/2 196/3/2 206/3/2
f 205/1/2 195/1/2 206/1/2
f 196/1/2 200/1/2 207/1/2
f 206/3/2 196/3/2 207/3/2
f 207/1/2 200/1/2 208/1/2
f 211/1/3 210/1/3 209/1/3
f 212/1/3 210/1/3 211/1/3
f 217/1/3 214/1/3 213/1/3
f 218/1/3 214/1/3 217/1/3
f 219/1/3 216/1/3 215/1/3
f 220/1/3 216/1/3 219/1/3
f 223/1/3 222/1/3 221/1/3
f 224/1/3 222/1/3 223/1/3
f 227/3/3 226/3/3 225/3/3
f 228/3/3 226/3/3 227/3/3
f 229/3/3 226/3/3 228/3/3
f 235/4/3 231/4/3 230/4/3
f 236/4/3 231/4/3 235/4/3
f 237/3/3 234/3/3 233/3/3
f 237/3/3 233/3/3 232/3/3
f 238/3/3 234/3/3 237/3/3
f 241/5/3 240/5/3 239/5/3
f 242/5/3 240/5/3 241/5/3
f 245/4/3 244/4/3 243/4/3
f 246/4/3 244/4/3 245/4/3
f 249/5/3 248/5/3 247/5/3
f 250/5/3 248/5/3 249/5/3
f 255/4/3 252/4/3 251/4/3
f 256/4/3 252/4/3 255/4/3
f 257/4/3 254/4/3 253/4/3
f 258/4/3 254/4/3 257/4/3
f 263/7/3 260/7/3 259/7/3
f 264/7/3 260/7/3 263/7/3
f 265/7/3 262/7/3 261/7/3
f 266/7/3 262/7/3 265/7/3
f 267/5/4 268/5/4 269/5/4
f 269/5/4 268/5/4 270/5/4
f 271/5/4 272/5/4 273/5/4
f 273/5/4 272/5/4 274/5/4
f 275/5/4 276/5/4 277/5/4
f 277/5/4 276/5/4 278/5/4
f 279/1/4 280/1/4 284/1/4
f 284/1/4 280/1/4 285/1/4
f 281/1/4 282/1/4 286/1/4
f 286/1/4 282/1/4 287/1/4
f 283/1/4 284/1/4 291/1/4
f 291/1/4 284/1/4 292/1/4
f 287/1/4 288/1/4 295/1/4
f 295/1/4 288/1/4 296/1/4
f 289/5/4 290/5/4 297/5/4
f 297/5/4 290/5/4 298/5/4
f 292/1/4 293/1/4 299/1/4
f 299/1/4 293/1/4 300/1/4
f 294/1/4 295/1/4 301/1/4
f 301/1/4 295/1/4 302/1/4
f 303/1/4 304/1/4 305/1/4
f 305/1/4 304/1/4 306/1/4
f 307/1/4 308/1/4 309/1/4
f 309/1/4 308/1/4 310/1/4
f 311/4/4 312/4/4 313/4/4
f 313/4/4 312/4/4 314/4/4
f 315/5/4 316/5/4 319/5/4
f 319/5/4 316/5/4 320/5/4
f 317/5/4 318/5/4 321/5/4
f 321/5/4 318/5/4 322/5/4
f 323/5/4 324/5/4 327/5/4
f 327/5/4 324/5/4 328/5/4
f 325/5/4 326/5/4 329/5/4
f 329/5/4 326/5/4 330/5/4
f 333/5/5 332/5/5 331/5/5
f 334/5/5 332/5/5 333/5/5
f 337/5/5 336/5/5 335/5/5
f 338/5/5 336/5/5 337/5/5
f 341/7/5 340/7/5 339/7/5
f 342/7/5 340/7/5 341/7/5
f 343/5/5 342/5/5 341/5/5
f 344/5/5 342/5/5 343/5/5
f 347/1/5 346/1/5 345/1/5
f 348/1/5 346/1/5 347/1/5
f 349/3/5 348/3/5 347/3/5
f 350/3/5 348/3/5 349/3/5
f 353/1/5 352/1/5 351/1/5
f 354/1/5 352/1/5 353/1/5
f 355/3/5 354/3/5 353/3/5
f 356/3/5 354/3/5 355/3/5
f 357/1/5 356/1/5 355/1/5
f 358/1/5 356/1/5 357/1/5
f 361/1/5 360/1/5 359/1/5
f 362/1/5 360/1/5 361/1/5
f 365/4/5 364/4/5 363/4/5
f 366/4/5 364/4/5 365/4/5
f 371/3/5 368/3/5 367/3/5
f 372/3/5 368/3/5 371/3/5
f 373/3/5 370/3/5 369/3/5
f 374/3/5 370/3/5 373/3/5
f 375/1/5 372/1/5 371/1/5
f 376/1/5 372/1/5 375/1/5
f 377/1/5 374/1/5 373/1/5
f 378/1/5 374/1/5 377/1/5
f 379/3/5 376/3/5 375/3/5
f 380/3/5 376/3/5 379/3/5
f 381/3/5 378/3/5 377/3/5
f 382/3/5 378/3/5 381/3/5
f 383/1/5 380/1/5 379/1/5
f 384/1/5 380/1/5 383/1/5
f 385/1/5 382/1/5 381/1/5
f 386/1/5 382/1/5 385/1/5
f 387/3/5 384/3/5 383/3/5
f 388/3/5 384/3/5 387/3/5
f 389/3/5 386/3/5 385/3/5
f 390/3/5 386/3/5 389/3/5
f 391/1/5 388/1/5 387/1/5
f 392/1/5 388/1/5 391/1/5
f 393/1/5 390/1/5 389/1/5
f 394/1/5 390/1/5 393/1/5
f 395/1/5 393/1/5 392/1/5
f 396/1/5 393/1/5 395/1/5
f 399/1/5 398/1/5 397/1/5
f 400/1/5 398/1/5 399/1/5
f 405/1/5 402/1/5 401/1/5
f 406/1/5 402/1/5 405/1/5
f 407/1/5 404/1/5 403/1/5
f 408/1/5 404/1/5 407/1/5
f 411/5/5 410/5/5 409/5/5
f 412/5/5 410/5/5 411/5/5
f 415/5/5 414/5/5 413/5/5
f 416/5/5 414/5/5 415/5/5
f 419/5/5 418/5/5 417/5/5
f 420/5/5 418/5/5 419/5/5
f 421/5/6 422/5/6 423/5/6
f 423/5/6 422/5/6 424/5/6
f 425/1/6 426/1/6 427/1/6
f 427/1/6 426/1/6 428/1/6
f 429/5/6 430/5/6 431/5/6
f 431/5/6 430/5/6 432/5/6
f 433/1/6 434/1/6 437/1/6
f 437/1/6 434/1/6 438/1/6
f 435/1/6 436/1/6 439/1/6
f 439/1/6 436/1/6 440/1/6
f 441/1/6 442/1/6 443/1/6
f 443/1/6 442/1/6 444/1/6
f 445/3/6 446/3/6 449/3/6
f 449/3/6 446/3/6 450/3/6
f 447/3/6 448/3/6 451/3/6
f 451/3/6 448/3/6 452/3/6
f 449/1/6 450/1/6 453/1/6
f 453/1/6 450/1/6 454/1/6
f 451/1/6 452/1/6 455/1/6
f 455/1/6 452/1/6 456/1/6
f 453/3/6 454/3/6 457/3/6
f 457/3/6 454/3/6 458/3/6
f 455/3/6 456/3/6 459/3/6
f 459/3/6 456/3/6 460/3/6
f 457/1/6 458/1/6 461/1/6
f 461/1/6 458/1/6 462/1/6
f 459/1/6 460/1/6 463/1/6
f 463/1/6 460/1/6 464/1/6
f 461/3/6 462/3/6 465/3/6
f 465/3/6 462/3/6 466/3/6
f 463/3/6 464/3/6 467/3/6
f 467/3/6 464/3/6 468/3/6
f 465/1/6 466/1/6 469/1/6
f 469/1/6 466/1/6 470/1/6
f 467/1/6 468/1/6 471/1/6
f 471/1/6 468/1/6 472/1/6
f 470/1/6 471/1/6 473/1/6
f 473/1/6 471/1/6 474/1/6
f 475/1/6 476/1/6 477/1/6
f 477/1/6 476/1/6 478/1/6
f 479/3/6 480/3/6 481/3/6
f 481/3/6 480/3/6 482/3/6
f 481/1/6 482/1/6 483/1/6
f 483/1/6 482/1/6 484/1/6
f 485/4/6 486/4/6 487/4/6
f 487/4/6 486/4/6 488/4/6
f 489/4/6 490/4/6 491/4/6
f 491/4/6 490/4/6 492/4/6
f 493/7/6 494/7/6 495/7/6
f 495/7/6 494/7/6 496/7/6
f 495/5/6 496/5/6 497/5/6
f 497/5/6 496/5/6 498/5/6
f 499/4/6 500/4/6 501/4/6
f 501/4/6 500/4/6 502/4/6
f 501/7/6 502/7/6 503/7/6
f 503/7/6 502/7/6 504/7/6
f 503/5/6 504/5/6 505/5/6
f 505/5/6 504/5/6 506/5/6
