# MagicaVoxel @ ephtracy

# material
mtllib whitebluefish.mtl
usemtl palette

# normals
vn -1 0 0
vn 1 0 0
vn 0 0 1
vn 0 0 -1
vn 0 -1 0
vn 0 1 0

# texcoords
vt 0.00195313 0.5
vt 0.00585938 0.5
vt 0.00976563 0.5
vt 0.0136719 0.5
vt 0.0175781 0.5

# verts
v -4 6 -1
v -4 6 -2
v -4 7 -1
v -4 7 -2
v -4 8 -1
v -4 8 -2
v -3 5 -1
v -3 5 -2
v -3 6 -1
v -3 6 -2
v -3 8 -1
v -3 8 -2
v -3 9 -1
v -3 9 -2
v -2 3 -1
v -2 3 -2
v -2 5 -1
v -2 5 -2
v -2 9 -1
v -2 9 -2
v -2 10 -1
v -2 10 -2
v -1 10 -1
v -1 10 -2
v -1 11 -1
v -1 11 -2
v 1 3 -1
v 1 3 -2
v 1 5 -1
v 1 5 -2
v 7 5 -1
v 7 5 -2
v 7 6 -1
v 7 6 -2
v 7 8 -1
v 7 8 -2
v 7 9 -1
v 7 9 -2
v -1 3 -1
v -1 3 -2
v -1 4 -1
v -1 4 -2
v 0 4 -1
v 0 4 -2
v 0 5 -1
v 0 5 -2
v 4 3 -1
v 4 3 -2
v 4 4 -1
v 4 4 -2
v 5 5 -1
v 5 5 -2
v 5 6 -1
v 5 6 -2
v 5 8 -1
v 5 8 -2
v 5 9 -1
v 5 9 -2
v 5 10 -1
v 5 10 -2
v 6 4 -1
v 6 4 -2
v 6 5 -1
v 6 5 -2
v 6 10 -1
v 6 10 -2
v 6 11 -1
v 6 11 -2
v 9 6 -1
v 9 6 -2
v 9 8 -1
v 9 8 -2
v 10 5 -1
v 10 5 -2
v 10 6 -1
v 10 6 -2
v 10 8 -1
v 10 8 -2
v 10 9 -1
v 10 9 -2
v -4 6 -1
v -4 7 -1
v -4 8 -1
v -3 5 -1
v -3 6 -1
v -3 7 -1
v -3 8 -1
v -3 9 -1
v -2 3 -1
v -2 5 -1
v -2 6 -1
v -2 7 -1
v -2 8 -1
v -2 9 -1
v -2 10 -1
v -1 3 -1
v -1 4 -1
v -1 6 -1
v -1 7 -1
v -1 8 -1
v -1 10 -1
v -1 11 -1
v 0 4 -1
v 0 5 -1
v 0 6 -1
v 0 7 -1
v 0 8 -1
v 0 9 -1
v 1 3 -1
v 1 5 -1
v 1 6 -1
v 1 8 -1
v 1 9 -1
v 2 5 -1
v 2 6 -1
v 2 7 -1
v 2 8 -1
v 2 9 -1
v 3 6 -1
v 3 7 -1
v 4 3 -1
v 4 4 -1
v 4 5 -1
v 4 6 -1
v 4 7 -1
v 4 8 -1
v 4 9 -1
v 5 5 -1
v 5 6 -1
v 5 7 -1
v 5 8 -1
v 5 9 -1
v 5 10 -1
v 6 4 -1
v 6 5 -1
v 6 6 -1
v 6 7 -1
v 6 8 -1
v 6 10 -1
v 6 11 -1
v 7 5 -1
v 7 6 -1
v 7 7 -1
v 7 8 -1
v 7 9 -1
v 8 6 -1
v 8 8 -1
v 9 6 -1
v 9 8 -1
v 10 5 -1
v 10 6 -1
v 10 8 -1
v 10 9 -1
v -4 6 -2
v -4 7 -2
v -4 8 -2
v -3 5 -2
v -3 6 -2
v -3 7 -2
v -3 8 -2
v -3 9 -2
v -2 3 -2
v -2 5 -2
v -2 6 -2
v -2 7 -2
v -2 8 -2
v -2 9 -2
v -2 10 -2
v -1 3 -2
v -1 4 -2
v -1 6 -2
v -1 7 -2
v -1 8 -2
v -1 10 -2
v -1 11 -2
v 0 4 -2
v 0 5 -2
v 0 6 -2
v 0 7 -2
v 0 8 -2
v 0 9 -2
v 1 3 -2
v 1 5 -2
v 1 6 -2
v 1 8 -2
v 1 9 -2
v 2 5 -2
v 2 6 -2
v 2 7 -2
v 2 8 -2
v 2 9 -2
v 3 6 -2
v 3 7 -2
v 4 3 -2
v 4 4 -2
v 4 5 -2
v 4 6 -2
v 4 7 -2
v 4 8 -2
v 4 9 -2
v 5 5 -2
v 5 6 -2
v 5 7 -2
v 5 8 -2
v 5 9 -2
v 5 10 -2
v 6 4 -2
v 6 5 -2
v 6 6 -2
v 6 7 -2
v 6 8 -2
v 6 10 -2
v 6 11 -2
v 7 5 -2
v 7 6 -2
v 7 7 -2
v 7 8 -2
v 7 9 -2
v 8 6 -2
v 8 8 -2
v 9 6 -2
v 9 8 -2
v 10 5 -2
v 10 6 -2
v 10 8 -2
v 10 9 -2
v -2 3 -1
v -1 3 -1
v 1 3 -1
v 4 3 -1
v -2 3 -2
v -1 3 -2
v 1 3 -2
v 4 3 -2
v -1 4 -1
v 0 4 -1
v 4 4 -1
v 6 4 -1
v -1 4 -2
v 0 4 -2
v 4 4 -2
v 6 4 -2
v -3 5 -1
v -2 5 -1
v 0 5 -1
v 1 5 -1
v 7 5 -1
v 10 5 -1
v -3 5 -2
v -2 5 -2
v 0 5 -2
v 1 5 -2
v 7 5 -2
v 10 5 -2
v -4 6 -1
v -3 6 -1
v 5 6 -1
v 6 6 -1
v 7 6 -1
v -4 6 -2
v -3 6 -2
v 5 6 -2
v 6 6 -2
v 7 6 -2
v 9 8 -1
v 10 8 -1
v 9 8 -2
v 10 8 -2
v 5 10 -1
v 6 10 -1
v 5 10 -2
v 6 10 -2
v 5 5 -1
v 6 5 -1
v 5 5 -2
v 6 5 -2
v 9 6 -1
v 10 6 -1
v 9 6 -2
v 10 6 -2
v -4 8 -1
v -3 8 -1
v 5 8 -1
v 6 8 -1
v 7 8 -1
v -4 8 -2
v -3 8 -2
v 5 8 -2
v 6 8 -2
v 7 8 -2
v -3 9 -1
v -2 9 -1
v 7 9 -1
v 10 9 -1
v -3 9 -2
v -2 9 -2
v 7 9 -2
v 10 9 -2
v -2 10 -1
v -1 10 -1
v -2 10 -2
v -1 10 -2
v -1 11 -1
v 6 11 -1
v -1 11 -2
v 6 11 -2

# faces
f 3/3/1 2/3/1 1/3/1
f 4/3/1 2/3/1 3/3/1
f 5/4/1 4/4/1 3/4/1
f 6/4/1 4/4/1 5/4/1
f 9/3/1 8/3/1 7/3/1
f 10/3/1 8/3/1 9/3/1
f 13/2/1 12/2/1 11/2/1
f 14/2/1 12/2/1 13/2/1
f 17/1/1 16/1/1 15/1/1
f 18/1/1 16/1/1 17/1/1
f 21/1/1 20/1/1 19/1/1
f 22/1/1 20/1/1 21/1/1
f 25/1/1 24/1/1 23/1/1
f 26/1/1 24/1/1 25/1/1
f 29/1/1 28/1/1 27/1/1
f 30/1/1 28/1/1 29/1/1
f 33/1/1 32/1/1 31/1/1
f 34/1/1 32/1/1 33/1/1
f 37/1/1 36/1/1 35/1/1
f 38/1/1 36/1/1 37/1/1
f 39/1/2 40/1/2 41/1/2
f 41/1/2 40/1/2 42/1/2
f 43/1/2 44/1/2 45/1/2
f 45/1/2 44/1/2 46/1/2
f 47/1/2 48/1/2 49/1/2
f 49/1/2 48/1/2 50/1/2
f 51/2/2 52/2/2 53/2/2
f 53/2/2 52/2/2 54/2/2
f 55/4/2 56/4/2 57/4/2
f 57/4/2 56/4/2 58/4/2
f 57/1/2 58/1/2 59/1/2
f 59/1/2 58/1/2 60/1/2
f 61/1/2 62/1/2 63/1/2
f 63/1/2 62/1/2 64/1/2
f 65/1/2 66/1/2 67/1/2
f 67/1/2 66/1/2 68/1/2
f 69/1/2 70/1/2 71/1/2
f 71/1/2 70/1/2 72/1/2
f 73/1/2 74/1/2 75/1/2
f 75/1/2 74/1/2 76/1/2
f 77/1/2 78/1/2 79/1/2
f 79/1/2 78/1/2 80/1/2
f 85/3/3 82/3/3 81/3/3
f 86/4/3 83/4/3 82/4/3
f 86/3/3 82/3/3 85/3/3
f 87/4/3 83/4/3 86/4/3
f 90/3/3 85/3/3 84/3/3
f 91/2/3 86/2/3 85/2/3
f 91/3/3 85/3/3 90/3/3
f 92/3/3 87/3/3 86/3/3
f 92/2/3 86/2/3 91/2/3
f 93/2/3 88/2/3 87/2/3
f 93/3/3 87/3/3 92/3/3
f 94/2/3 88/2/3 93/2/3
f 96/1/3 90/1/3 89/1/3
f 97/1/3 90/1/3 96/1/3
f 98/4/3 92/4/3 91/4/3
f 98/3/3 91/3/3 90/3/3
f 99/5/3 93/5/3 92/5/3
f 99/4/3 92/4/3 98/4/3
f 100/3/3 94/3/3 93/3/3
f 100/5/3 93/5/3 99/5/3
f 101/1/3 95/1/3 94/1/3
f 103/1/3 90/1/3 97/1/3
f 104/3/3 98/3/3 90/3/3
f 104/1/3 90/1/3 103/1/3
f 104/3/3 99/3/3 98/3/3
f 105/3/3 99/3/3 104/3/3
f 106/2/3 100/2/3 99/2/3
f 106/3/3 99/3/3 105/3/3
f 107/3/3 94/3/3 100/3/3
f 107/2/3 100/2/3 106/2/3
f 108/1/3 102/1/3 101/1/3
f 108/3/3 94/3/3 107/3/3
f 108/1/3 101/1/3 94/1/3
f 110/2/3 105/2/3 104/2/3
f 111/3/3 107/3/3 106/3/3
f 111/3/3 106/3/3 105/3/3
f 111/2/3 105/2/3 110/2/3
f 112/4/3 108/4/3 107/4/3
f 112/3/3 107/3/3 111/3/3
f 113/1/3 102/1/3 108/1/3
f 113/4/3 108/4/3 112/4/3
f 114/1/3 110/1/3 109/1/3
f 114/4/3 111/4/3 110/4/3
f 115/3/3 112/3/3 111/3/3
f 115/4/3 111/4/3 114/4/3
f 116/3/3 112/3/3 115/3/3
f 117/2/3 113/2/3 112/2/3
f 117/3/3 112/3/3 116/3/3
f 118/1/3 102/1/3 113/1/3
f 118/2/3 113/2/3 117/2/3
f 119/2/3 116/2/3 115/2/3
f 119/3/3 115/3/3 114/3/3
f 120/3/3 117/3/3 116/3/3
f 120/2/3 116/2/3 119/2/3
f 120/3/3 118/3/3 117/3/3
f 121/1/3 114/1/3 109/1/3
f 122/1/3 114/1/3 121/1/3
f 123/3/3 119/3/3 114/3/3
f 123/1/3 114/1/3 122/1/3
f 124/4/3 120/4/3 119/4/3
f 124/3/3 119/3/3 123/3/3
f 125/3/3 118/3/3 120/3/3
f 125/4/3 120/4/3 124/4/3
f 126/3/3 118/3/3 125/3/3
f 127/1/3 102/1/3 118/1/3
f 127/3/3 118/3/3 126/3/3
f 128/2/3 124/2/3 123/2/3
f 128/1/3 123/1/3 122/1/3
f 129/3/3 125/3/3 124/3/3
f 129/2/3 124/2/3 128/2/3
f 130/2/3 126/2/3 125/2/3
f 130/3/3 125/3/3 129/3/3
f 131/4/3 127/4/3 126/4/3
f 131/2/3 126/2/3 130/2/3
f 132/1/3 102/1/3 127/1/3
f 132/4/3 127/4/3 131/4/3
f 133/1/3 102/1/3 132/1/3
f 134/1/3 128/1/3 122/1/3
f 135/1/3 128/1/3 134/1/3
f 136/3/3 130/3/3 129/3/3
f 137/4/3 131/4/3 130/4/3
f 137/3/3 130/3/3 136/3/3
f 138/4/3 131/4/3 137/4/3
f 139/1/3 102/1/3 133/1/3
f 140/1/3 102/1/3 139/1/3
f 142/2/3 137/2/3 136/2/3
f 143/3/3 138/3/3 137/3/3
f 143/2/3 137/2/3 142/2/3
f 144/3/3 138/3/3 143/3/3
f 146/1/3 142/1/3 141/1/3
f 146/3/3 143/3/3 142/3/3
f 146/3/3 144/3/3 143/3/3
f 147/1/3 145/1/3 144/1/3
f 147/3/3 144/3/3 146/3/3
f 148/1/3 146/1/3 141/1/3
f 148/1/3 147/1/3 146/1/3
f 149/1/3 145/1/3 147/1/3
f 149/1/3 147/1/3 148/1/3
f 150/1/3 148/1/3 141/1/3
f 151/1/3 148/1/3 150/1/3
f 152/1/3 145/1/3 149/1/3
f 153/1/3 145/1/3 152/1/3
f 154/3/4 155/3/4 158/3/4
f 155/4/4 156/4/4 159/4/4
f 158/3/4 155/3/4 159/3/4
f 159/4/4 156/4/4 160/4/4
f 157/3/4 158/3/4 163/3/4
f 158/2/4 159/2/4 164/2/4
f 163/3/4 158/3/4 164/3/4
f 159/3/4 160/3/4 165/3/4
f 164/2/4 159/2/4 165/2/4
f 160/2/4 161/2/4 166/2/4
f 165/3/4 160/3/4 166/3/4
f 166/2/4 161/2/4 167/2/4
f 162/1/4 163/1/4 169/1/4
f 169/1/4 163/1/4 170/1/4
f 164/4/4 165/4/4 171/4/4
f 163/3/4 164/3/4 171/3/4
f 165/5/4 166/5/4 172/5/4
f 171/4/4 165/4/4 172/4/4
f 166/3/4 167/3/4 173/3/4
f 172/5/4 166/5/4 173/5/4
f 167/1/4 168/1/4 174/1/4
f 170/1/4 163/1/4 176/1/4
f 163/3/4 171/3/4 177/3/4
f 176/1/4 163/1/4 177/1/4
f 171/3/4 172/3/4 177/3/4
f 177/3/4 172/3/4 178/3/4
f 172/2/4 173/2/4 179/2/4
f 178/3/4 172/3/4 179/3/4
f 173/3/4 167/3/4 180/3/4
f 179/2/4 173/2/4 180/2/4
f 174/1/4 175/1/4 181/1/4
f 180/3/4 167/3/4 181/3/4
f 167/1/4 174/1/4 181/1/4
f 177/2/4 178/2/4 183/2/4
f 179/3/4 180/3/4 184/3/4
f 178/3/4 179/3/4 184/3/4
f 183/2/4 178/2/4 184/2/4
f 180/4/4 181/4/4 185/4/4
f 184/3/4 180/3/4 185/3/4
f 181/1/4 175/1/4 186/1/4
f 185/4/4 181/4/4 186/4/4
f 182/1/4 183/1/4 187/1/4
f 183/4/4 184/4/4 187/4/4
f 184/3/4 185/3/4 188/3/4
f 187/4/4 184/4/4 188/4/4
f 188/3/4 185/3/4 189/3/4
f 185/2/4 186/2/4 190/2/4
f 189/3/4 185/3/4 190/3/4
f 186/1/4 175/1/4 191/1/4
f 190/2/4 186/2/4 191/2/4
f 188/2/4 189/2/4 192/2/4
f 187/3/4 188/3/4 192/3/4
f 189/3/4 190/3/4 193/3/4
f 192/2/4 189/2/4 193/2/4
f 190/3/4 191/3/4 193/3/4
f 182/1/4 187/1/4 194/1/4
f 194/1/4 187/1/4 195/1/4
f 187/3/4 192/3/4 196/3/4
f 195/1/4 187/1/4 196/1/4
f 192/4/4 193/4/4 197/4/4
f 196/3/4 192/3/4 197/3/4
f 193/3/4 191/3/4 198/3/4
f 197/4/4 193/4/4 198/4/4
f 198/3/4 191/3/4 199/3/4
f 191/1/4 175/1/4 200/1/4
f 199/3/4 191/3/4 200/3/4
f 196/2/4 197/2/4 201/2/4
f 195/1/4 196/1/4 201/1/4
f 197/3/4 198/3/4 202/3/4
f 201/2/4 197/2/4 202/2/4
f 198/2/4 199/2/4 203/2/4
f 202/3/4 198/3/4 203/3/4
f 199/4/4 200/4/4 204/4/4
f 203/2/4 199/2/4 204/2/4
f 200/1/4 175/1/4 205/1/4
f 204/4/4 200/4/4 205/4/4
f 205/1/4 175/1/4 206/1/4
f 195/1/4 201/1/4 207/1/4
f 207/1/4 201/1/4 208/1/4
f 202/3/4 203/3/4 209/3/4
f 203/4/4 204/4/4 210/4/4
f 209/3/4 203/3/4 210/3/4
f 210/4/4 204/4/4 211/4/4
f 206/1/4 175/1/4 212/1/4
f 212/1/4 175/1/4 213/1/4
f 209/2/4 210/2/4 215/2/4
f 210/3/4 211/3/4 216/3/4
f 215/2/4 210/2/4 216/2/4
f 216/3/4 211/3/4 217/3/4
f 214/1/4 215/1/4 219/1/4
f 215/3/4 216/3/4 219/3/4
f 216/3/4 217/3/4 219/3/4
f 217/1/4 218/1/4 220/1/4
f 219/3/4 217/3/4 220/3/4
f 214/1/4 219/1/4 221/1/4
f 219/1/4 220/1/4 221/1/4
f 220/1/4 218/1/4 222/1/4
f 221/1/4 220/1/4 222/1/4
f 214/1/4 221/1/4 223/1/4
f 223/1/4 221/1/4 224/1/4
f 222/1/4 218/1/4 225/1/4
f 225/1/4 218/1/4 226/1/4
f 231/1/5 228/1/5 227/1/5
f 232/1/5 228/1/5 231/1/5
f 233/1/5 230/1/5 229/1/5
f 234/1/5 230/1/5 233/1/5
f 239/1/5 236/1/5 235/1/5
f 240/1/5 236/1/5 239/1/5
f 241/1/5 238/1/5 237/1/5
f 242/1/5 238/1/5 241/1/5
f 249/3/5 244/3/5 243/3/5
f 250/3/5 244/3/5 249/3/5
f 251/2/5 246/2/5 245/2/5
f 252/2/5 246/2/5 251/2/5
f 253/1/5 248/1/5 247/1/5
f 254/1/5 248/1/5 253/1/5
f 260/3/5 256/3/5 255/3/5
f 261/3/5 256/3/5 260/3/5
f 262/3/5 258/3/5 257/3/5
f 263/2/5 259/2/5 258/2/5
f 263/3/5 258/3/5 262/3/5
f 264/2/5 259/2/5 263/2/5
f 267/1/5 266/1/5 265/1/5
f 268/1/5 266/1/5 267/1/5
f 271/1/5 270/1/5 269/1/5
f 272/1/5 270/1/5 271/1/5
f 273/1/6 274/1/6 275/1/6
f 275/1/6 274/1/6 276/1/6
f 277/1/6 278/1/6 279/1/6
f 279/1/6 278/1/6 280/1/6
f 281/4/6 282/4/6 286/4/6
f 286/4/6 282/4/6 287/4/6
f 283/4/6 284/4/6 288/4/6
f 284/3/6 285/3/6 289/3/6
f 288/4/6 284/4/6 289/4/6
f 289/3/6 285/3/6 290/3/6
f 291/2/6 292/2/6 295/2/6
f 295/2/6 292/2/6 296/2/6
f 293/1/6 294/1/6 297/1/6
f 297/1/6 294/1/6 298/1/6
f 299/1/6 300/1/6 301/1/6
f 301/1/6 300/1/6 302/1/6
f 303/1/6 304/1/6 305/1/6
f 305/1/6 304/1/6 306/1/6
